<svg width="48" height="48" viewBox="0 0 48 48" fill="none" xmlns="http://www.w3.org/2000/svg">
<path d="M32.9363 20.8074L33.6809 20.718L32.9363 20.8074ZM32.7884 19.9967L32.0624 20.1849L32.7884 19.9967ZM32.4408 19.3153L31.8541 19.7826L32.4408 19.3153ZM32.2529 17.81L31.5441 17.565L32.2529 17.81ZM31.9527 17.1154L31.5736 17.7625L31.9527 17.1154ZM31.5139 16.4596L30.7642 16.4391L31.5139 16.4596ZM31.1879 14.2141L30.5172 14.5497L31.1879 14.2141ZM30.9863 13.487L31.7339 13.4275L30.9863 13.487ZM30.8939 12.7071L30.1529 12.823L30.8939 12.7071ZM31.2864 12.0199L30.8799 11.3896L31.2864 12.0199ZM31.4339 11.2846L30.8174 11.7117L31.4339 11.2846ZM31.4033 10.5142L31.9772 10.997L31.4033 10.5142ZM31.9721 9.09733L31.5017 8.5132L31.9721 9.09733ZM33.0699 4.79372L32.3454 4.98756L33.0699 4.79372ZM32.9374 3.98641L32.1882 4.01996L32.9374 3.98641ZM32.8911 3.09636L33.6399 3.05345L32.8911 3.09636ZM31.7366 3.1347L31.5293 3.8555L31.7366 3.1347ZM15.4661 5.6739L16.1228 5.31162L15.4661 5.6739ZM15.7964 6.36749L15.101 6.64841L15.7964 6.36749ZM15.8919 9.4062L16.6001 9.15941L15.8919 9.4062ZM16.6829 10.7793L17.4174 10.6273L16.6829 10.7793ZM16.6784 11.5446L17.4135 11.6935L16.6784 11.5446ZM16.6472 13.0795L17.3939 13.0093L16.6472 13.0795ZM16.6202 13.7477L15.8866 13.5918V13.5918L16.6202 13.7477ZM16.5303 14.4224L17.2783 14.4766L16.5303 14.4224ZM16.0025 18.1693L15.3574 17.7867L16.0025 18.1693ZM15.6788 18.8574L16.3857 19.1082L15.6788 18.8574ZM15.4839 19.5817L16.2211 19.7198L15.4839 19.5817ZM13.7589 21.9382L13.3568 21.3052L13.7589 21.9382ZM12.5705 22.8545L13.0029 23.4673L12.5705 22.8545ZM10.7135 25.2932L11.4584 25.3804L10.7135 25.2932ZM12.598 29.1562L12.434 29.8881L12.598 29.1562ZM13.348 29.1217L13.5741 29.8368L13.348 29.1217ZM14.098 29.0563L13.9926 29.7989L14.098 29.0563ZM14.848 28.868L14.4419 28.2375L14.848 28.868ZM15.598 29.0098L15.0619 29.5343L15.598 29.0098ZM16.348 29.1097L15.8958 28.5113L16.348 29.1097ZM17.848 29.0635L17.9173 28.3167L17.848 29.0635ZM21.598 29.1313L21.1274 28.5473L21.598 29.1313ZM23.3272 29.4441L22.6625 29.0967L23.3272 29.4441ZM23.4976 33.848L24.0459 33.3363L23.4976 33.848ZM23.5668 36.098L24.283 36.3207L23.5668 36.098ZM23.5431 36.848L24.2711 36.6675L23.5431 36.848ZM23.4301 38.348L24.1459 38.1243L23.4301 38.348ZM23.3165 39.098L23.9553 39.491L23.3165 39.098ZM23.5384 42.098L23.017 42.6371L23.5384 42.098ZM23.6435 43.598L22.9502 43.3119L23.6435 43.598ZM24.5524 44.9826L25.267 45.2102L24.5524 44.9826ZM24.8133 43.4826L25.5322 43.6965L24.8133 43.4826ZM24.6944 39.7326L25.388 39.4474L24.6944 39.7326ZM24.3495 38.9826L25.018 38.6427L24.3495 38.9826ZM24.5269 35.2326L23.7959 35.4005L24.5269 35.2326ZM24.3899 33.7326L25.133 33.6308L24.3899 33.7326ZM24.1425 32.2326L23.4123 32.0616L24.1425 32.2326ZM24.425 31.4826L25.0907 31.8282L24.425 31.4826ZM24.6013 30.7326L23.8522 30.7695L24.6013 30.7326ZM25.7674 28.9035L25.3498 28.2805L25.7674 28.9035ZM26.5174 28.6108L26.5995 29.3563L26.5174 28.6108ZM32.5174 28.9964L32.5396 29.7461L32.5174 28.9964ZM35.5174 29.3363L35.5897 30.0828L35.5174 29.3363ZM36.2674 29.1777L36.0349 28.4647L36.2674 29.1777ZM37.1289 25.9813L36.4115 26.2L37.1289 25.9813ZM36.7725 25.2841L37.3716 24.8329L36.7725 25.2841ZM36.3675 24.6616L35.7079 25.0186L36.3675 24.6616ZM36.1217 23.9991L35.3906 24.1663L36.1217 23.9991ZM35.7146 23.4641L35.36 24.125L35.7146 23.4641ZM34.125 28.1855L33.8532 27.4865V27.4865L34.125 28.1855ZM33.375 28.0073L33.8653 27.4398L33.375 28.0073ZM31.125 27.7799L31.0213 28.5227L31.125 27.7799ZM30.375 27.6673L30.256 28.4078L30.375 27.6673ZM29.625 27.9863L30.1583 28.5136L29.625 27.9863ZM27.375 27.7365L27.5621 28.4628L27.375 27.7365ZM25.125 28.2221L25.2102 27.477L25.125 28.2221ZM23.625 27.7031L23.5395 28.4482L23.625 27.7031ZM22.125 27.7993L22.037 27.0544L22.125 27.7993ZM19.125 28.1772L19.0009 27.4375L19.125 28.1772ZM16.125 28.2563L15.9064 28.9738L16.125 28.2563ZM15.375 28.0465L15.1897 28.7732L15.375 28.0465ZM13.125 27.6754L13.0607 28.4227L13.125 27.6754ZM12.375 27.8858L12.7825 28.5155L12.375 27.8858ZM12.182 25.4016L11.4406 25.2885L12.182 25.4016ZM12.4637 24.7601L13.049 25.229L12.4637 24.7601ZM13.801 23.0038L13.4943 22.3194L13.801 23.0038ZM15.0256 22.1323L14.3809 21.7492L15.0256 22.1323ZM15.4667 21.4858L14.8759 21.0238L15.4667 21.4858ZM16.0411 20.9868L15.6643 20.3383L16.0411 20.9868ZM17.4714 16.0387L16.7944 15.7159L17.4714 16.0387ZM18.0087 13.1895L17.4962 13.737L18.0087 13.1895ZM17.6126 11.6608L16.8633 11.6279L17.6126 11.6608ZM17.1792 7.92423L17.9022 7.72482L17.1792 7.92423ZM16.4002 4.04975L16.161 4.76057L16.4002 4.04975ZM21.6502 4.28076L21.6002 5.0291V5.0291L21.6502 4.28076ZM22.4002 4.22976L22.2511 3.49473L22.4002 4.22976ZM23.1502 4.00949L22.881 3.30946L23.1502 4.00949ZM31.8518 4.43527L32.3901 3.91301L31.8518 4.43527ZM31.8395 4.87133L32.5673 5.05244L31.8395 4.87133ZM31.5081 5.56292L30.901 5.12264L31.5081 5.56292ZM31.5137 6.3284L32.1637 5.95419L31.5137 6.3284ZM30.6455 9.97947L29.9192 10.1666L30.6455 9.97947ZM30.6079 10.7364L31.3045 11.0142L30.6079 10.7364ZM30.5309 11.4857L29.7907 11.6063L30.5309 11.4857ZM30.374 12.2192L29.7461 11.809L30.374 12.2192ZM30.0511 13.7073L29.3488 13.4442L30.0511 13.7073ZM30.2762 15.1229L29.7214 15.6276L30.2762 15.1229ZM30.5064 15.8384L31.2492 15.942L30.5064 15.8384ZM30.813 16.5345L30.3395 17.1161L30.813 16.5345ZM31.5242 19.449L31.1141 20.077L31.5242 19.449ZM32.1866 20.8289L31.4377 20.8687L32.1866 20.8289ZM32.7336 22.112L33.1003 21.4578L32.7336 22.112ZM35.8208 25.2299L35.2771 25.7466L35.8208 25.2299ZM36.071 25.9156L35.3243 25.846L36.071 25.9156ZM35.1739 22.7298L35.4961 22.0525C35.471 22.0406 35.4296 22.0185 35.3887 21.9011L34.6804 22.1478L33.9722 22.3946C34.1246 22.8321 34.4121 23.198 34.8517 23.4071L35.1739 22.7298ZM34.6804 22.1478L35.3887 21.9011C35.3043 21.6589 35.1649 21.429 34.952 21.2474C34.7384 21.0652 34.4882 20.9635 34.2325 20.9211L34.1097 21.661L33.9869 22.4008C34.0025 22.4034 34.0062 22.4058 34.002 22.4039C33.9999 22.403 33.9965 22.4013 33.9921 22.3986C33.9877 22.3958 33.983 22.3925 33.9785 22.3886C33.974 22.3847 33.9702 22.3809 33.9673 22.3776C33.9643 22.3742 33.9627 22.3719 33.9622 22.3711C33.9612 22.3696 33.9657 22.3759 33.9722 22.3946L34.6804 22.1478ZM34.1097 21.661L34.2325 20.9211C34.0109 20.8843 33.823 20.8245 33.6633 20.7473L33.337 21.4226L33.0106 22.0979C33.3135 22.2443 33.6408 22.3434 33.9869 22.4008L34.1097 21.661ZM33.337 21.4226L33.6633 20.7473C33.6614 20.7464 33.666 20.7485 33.6736 20.755C33.6813 20.7617 33.6876 20.7693 33.6918 20.7757C33.7004 20.7889 33.6882 20.7786 33.6809 20.718L32.9363 20.8074L32.1916 20.8968C32.2519 21.3987 32.507 21.8545 33.0106 22.0979L33.337 21.4226ZM32.9363 20.8074L33.6809 20.718C33.6419 20.3927 33.5871 20.0887 33.5144 19.8085L32.7884 19.9967L32.0624 20.1849C32.1153 20.3888 32.159 20.6253 32.1916 20.8968L32.9363 20.8074ZM32.7884 19.9967L33.5144 19.8085C33.4231 19.4563 33.2563 19.1354 33.0274 18.8481L32.4408 19.3153L31.8541 19.7826C31.9633 19.9196 32.0282 20.053 32.0624 20.1849L32.7884 19.9967ZM32.4408 19.3153L33.0274 18.8481C32.9401 18.7385 32.9022 18.638 32.891 18.5369L32.1455 18.6193L31.4001 18.7016C31.4445 19.1042 31.6034 19.4678 31.8541 19.7826L32.4408 19.3153ZM32.1455 18.6193L32.891 18.5369C32.8776 18.4155 32.8915 18.2585 32.9618 18.0551L32.2529 17.81L31.5441 17.565C31.4155 17.9368 31.3578 18.3193 31.4001 18.7016L32.1455 18.6193ZM32.2529 17.81L32.9618 18.0551C33.0594 17.7727 33.08 17.4449 32.9409 17.1231C32.8076 16.8147 32.5684 16.6068 32.3317 16.4682L31.9527 17.1154L31.5736 17.7625C31.6365 17.7994 31.5972 17.795 31.564 17.7182C31.5474 17.6797 31.5402 17.6399 31.5401 17.6058C31.5401 17.5739 31.5462 17.5589 31.5441 17.565L32.2529 17.81ZM31.9527 17.1154L32.3317 16.4682C32.2497 16.4202 32.2349 16.3927 32.2416 16.4027C32.2457 16.4088 32.2526 16.4213 32.2577 16.4391C32.2629 16.4569 32.2639 16.4717 32.2636 16.4801L31.5139 16.4596L30.7642 16.4391C30.7471 17.0637 31.1266 17.5007 31.5736 17.7625L31.9527 17.1154ZM31.5139 16.4596L32.2636 16.4801C32.2755 16.0459 32.1442 15.6434 31.8861 15.2969L31.2847 15.745L30.6832 16.193C30.745 16.276 30.7666 16.35 30.7642 16.4391L31.5139 16.4596ZM31.2847 15.745L31.8861 15.2969C31.8822 15.2917 31.8832 15.2918 31.8854 15.2972C31.8876 15.3028 31.889 15.3088 31.8895 15.3132C31.8906 15.323 31.8854 15.304 31.9069 15.2446L31.2018 14.9892L30.4966 14.7338C30.3209 15.2189 30.3483 15.7435 30.6832 16.193L31.2847 15.745ZM31.2018 14.9892L31.9069 15.2446C32.066 14.8054 32.0833 14.3275 31.8586 13.8784L31.1879 14.2141L30.5172 14.5497C30.5203 14.556 30.5469 14.5949 30.4966 14.7338L31.2018 14.9892ZM31.1879 14.2141L31.8586 13.8784C31.7884 13.7381 31.7468 13.5897 31.7339 13.4275L30.9863 13.487L30.2386 13.5465C30.2667 13.8984 30.3595 14.2347 30.5172 14.5497L31.1879 14.2141ZM30.9863 13.487L31.7339 13.4275C31.7119 13.151 31.6788 12.8722 31.6349 12.5912L30.8939 12.7071L30.1529 12.823C30.1912 13.0678 30.2197 13.3089 30.2386 13.5465L30.9863 13.487ZM30.8939 12.7071L31.6349 12.5912C31.6368 12.6032 31.6379 12.6244 31.6331 12.6508C31.6283 12.6773 31.6195 12.6978 31.6124 12.7101C31.606 12.7214 31.6042 12.7203 31.6161 12.7087C31.6282 12.6969 31.6519 12.6766 31.6928 12.6502L31.2864 12.0199L30.8799 11.3896C30.4328 11.6779 30.0493 12.161 30.1529 12.823L30.8939 12.7071ZM31.2864 12.0199L31.6928 12.6502C31.9388 12.4916 32.2064 12.2323 32.2857 11.8373C32.3651 11.4414 32.2176 11.0987 32.0504 10.8575L31.4339 11.2846L30.8174 11.7117C30.8547 11.7655 30.7847 11.6928 30.815 11.5421C30.8451 11.3921 30.9367 11.353 30.8799 11.3896L31.2864 12.0199ZM31.4339 11.2846L32.0504 10.8575C31.9985 10.7826 32.02 10.7811 32.0224 10.8409C32.0237 10.8729 32.0186 10.9088 32.0062 10.9427C31.9943 10.9753 31.9803 10.9933 31.9772 10.997L31.4033 10.5142L30.8294 10.0313C30.6316 10.2664 30.5102 10.564 30.5236 10.9006C30.5362 11.2172 30.665 11.4916 30.8174 11.7117L31.4339 11.2846ZM31.4033 10.5142L31.9772 10.997C32.2805 10.6365 32.435 10.1957 32.3802 9.71107L31.6349 9.79538L30.8897 9.87968C30.8938 9.91626 30.8939 9.95461 30.8294 10.0313L31.4033 10.5142ZM31.6349 9.79538L32.3802 9.71107C32.3803 9.71201 32.3808 9.71893 32.3791 9.7295C32.3773 9.74014 32.3742 9.74804 32.3725 9.75165C32.3693 9.75817 32.3799 9.73195 32.4425 9.68147L31.9721 9.09733L31.5017 8.5132C31.1036 8.83385 30.8241 9.29973 30.8897 9.87968L31.6349 9.79538ZM31.9721 9.09733L32.4425 9.68147C32.6814 9.48914 32.8967 9.19885 32.9243 8.80802C32.9503 8.4382 32.7965 8.12639 32.6297 7.89933L32.0253 8.34342L31.4209 8.7875C31.4729 8.85828 31.4196 8.82104 31.428 8.70253C31.4323 8.64195 31.4515 8.58909 31.4743 8.55088C31.495 8.51616 31.5113 8.50545 31.5017 8.5132L31.9721 9.09733ZM32.0253 8.34342L32.6297 7.89933C32.5981 7.85639 32.5804 7.82492 32.5709 7.80496C32.5615 7.78525 32.5619 7.78024 32.5634 7.78862C32.5652 7.79813 32.567 7.81775 32.563 7.84356C32.5591 7.86962 32.5509 7.8909 32.5433 7.90491L31.8822 7.55089L31.221 7.19687C30.9063 7.78453 31.1126 8.36786 31.4209 8.7875L32.0253 8.34342ZM31.8822 7.55089L32.5433 7.90491C32.6863 7.63791 32.8049 7.36353 32.8981 7.08198L32.1861 6.8463L31.4741 6.61062C31.4089 6.8075 31.3249 7.00285 31.221 7.19687L31.8822 7.55089ZM32.1861 6.8463L32.8981 7.08198C32.9947 6.79002 33.0581 6.49071 33.0878 6.18505L32.3413 6.11246L31.5948 6.03987C31.5759 6.23423 31.5358 6.42415 31.4741 6.61062L32.1861 6.8463ZM32.3413 6.11246L33.0878 6.18505C33.0878 6.18503 33.0877 6.18606 33.0873 6.18788C33.0869 6.18971 33.0863 6.19175 33.0855 6.19379C33.0838 6.19837 33.0826 6.19952 33.0845 6.19671C33.0889 6.19047 33.1125 6.16007 33.1828 6.11559L32.7817 5.48183L32.3806 4.84807C31.9734 5.10578 31.6474 5.49927 31.5948 6.03987L32.3413 6.11246ZM32.7817 5.48183L33.1828 6.11559C33.4108 5.9713 33.6253 5.76338 33.7475 5.47174C33.8718 5.17503 33.8671 4.87127 33.7944 4.59987L33.0699 4.79372L32.3454 4.98756C32.3483 4.99829 32.3451 4.99173 32.3458 4.9715C32.3466 4.94981 32.3517 4.9216 32.364 4.89224C32.39 4.82997 32.4219 4.82194 32.3806 4.84807L32.7817 5.48183ZM33.0699 4.79372L33.7944 4.59987C33.7287 4.3542 33.695 4.13935 33.6867 3.95285L32.9374 3.98641L32.1882 4.01996C32.2022 4.33322 32.2569 4.65658 32.3454 4.98756L33.0699 4.79372ZM32.9374 3.98641L33.6867 3.95285C33.6753 3.69894 33.6597 3.39899 33.6399 3.05345L32.8911 3.09636L32.1423 3.13926C32.1619 3.4807 32.1772 3.77411 32.1882 4.01996L32.9374 3.98641ZM32.8911 3.09636L33.6399 3.05345C33.6328 2.93026 33.6135 2.77623 33.5555 2.62425C33.4983 2.4743 33.3679 2.23863 33.0865 2.11025C32.7974 1.97839 32.5267 2.03984 32.3662 2.10615C32.2094 2.17088 32.0825 2.26818 31.9905 2.34931L32.4866 2.91182L32.9826 3.47434C33.0157 3.44523 32.9993 3.46754 32.9388 3.49254C32.8745 3.51911 32.6856 3.57607 32.4639 3.47496C32.2499 3.37734 32.1726 3.20768 32.154 3.15897C32.1347 3.10824 32.1396 3.09071 32.1423 3.13926L32.8911 3.09636ZM32.4866 2.91182L31.9905 2.34931C31.9253 2.40684 31.8938 2.4152 31.8979 2.41396C31.9007 2.41315 31.9088 2.41127 31.9205 2.41121C31.9321 2.41116 31.9406 2.41297 31.9438 2.4139L31.7366 3.1347L31.5293 3.8555C32.0948 4.01807 32.6018 3.81016 32.9826 3.47434L32.4866 2.91182ZM31.7366 3.1347L31.9438 2.4139C31.7043 2.34504 31.4646 2.27046 31.2247 2.19012L30.9866 2.90131L30.7484 3.6125C31.0085 3.69959 31.2688 3.7806 31.5293 3.8555L31.7366 3.1347ZM30.9866 2.90131L31.2247 2.19012C30.7811 2.04158 30.3308 2.07883 29.9153 2.27587L30.2366 2.95355L30.5579 3.63123C30.6423 3.5912 30.6921 3.59363 30.7484 3.6125L30.9866 2.90131ZM30.2366 2.95355L29.9153 2.27587C29.7469 2.35569 29.5956 2.39132 29.4569 2.39682L29.4866 3.14623L29.5163 3.89564C29.8776 3.88131 30.2262 3.78849 30.5579 3.63123L30.2366 2.95355ZM29.4866 3.14623L29.4569 2.39682C29.4318 2.39781 29.3528 2.3946 29.2036 2.27584L28.7366 2.86273L28.2696 3.44963C28.6204 3.72869 29.0414 3.91448 29.5163 3.89564L29.4866 3.14623ZM28.7366 2.86273L29.2036 2.27584C28.9641 2.0853 28.6405 1.94481 28.2628 1.99499C27.9051 2.04252 27.6327 2.24434 27.4407 2.44806L27.9866 2.96237L28.5325 3.47669C28.5905 3.41507 28.5681 3.46761 28.4604 3.48193C28.4053 3.48924 28.3535 3.48236 28.3132 3.469C28.2762 3.45674 28.2619 3.44349 28.2696 3.44963L28.7366 2.86273ZM27.9866 2.96237L27.4407 2.44806C27.3885 2.50353 27.4337 2.42794 27.5759 2.42116C27.7276 2.41394 27.7934 2.4932 27.7577 2.45871L27.2366 2.9981L26.7155 3.5375C26.9298 3.74453 27.2456 3.9386 27.6473 3.91946C28.0395 3.90078 28.3347 3.68657 28.5325 3.47669L27.9866 2.96237ZM27.2366 2.9981L27.7577 2.45871C27.407 2.11992 26.9348 1.86632 26.3748 1.95071L26.4866 2.69234L26.5984 3.43396C26.5924 3.43486 26.5851 3.43498 26.5785 3.43414C26.5722 3.43333 26.5718 3.43231 26.5784 3.43502C26.5935 3.44118 26.6403 3.4649 26.7155 3.5375L27.2366 2.9981ZM26.4866 2.69234L26.3748 1.95071C25.9401 2.01623 25.5604 2.23565 25.2364 2.52562L25.7366 3.08448L26.2368 3.64334C26.4128 3.48581 26.5331 3.44379 26.5984 3.43396L26.4866 2.69234ZM25.7366 3.08448L25.2364 2.52562C25.0786 2.66685 25.0051 2.66251 25.0022 2.66245L24.9866 3.41229L24.971 4.16212C25.4681 4.17248 25.8946 3.94961 26.2368 3.64334L25.7366 3.08448ZM24.9866 3.41229L25.0022 2.66245C24.9742 2.66187 24.885 2.65099 24.7247 2.5136L24.2366 3.08303L23.7485 3.65245C24.0882 3.94365 24.4989 4.15229 24.971 4.16212L24.9866 3.41229ZM24.2366 3.08303L24.7247 2.5136C24.3329 2.17778 23.8154 1.98697 23.2513 2.17336L23.4866 2.88549L23.7219 3.59762C23.7201 3.59823 23.7119 3.60053 23.6992 3.60095C23.6865 3.60138 23.6762 3.59966 23.6706 3.59819C23.6603 3.59548 23.6867 3.59947 23.7485 3.65245L24.2366 3.08303ZM23.4866 2.88549L23.2513 2.17336C23.0661 2.23455 22.8874 2.26606 22.7131 2.27152L22.7366 3.02115L22.7601 3.77078C23.0858 3.76058 23.4071 3.70165 23.7219 3.59762L23.4866 2.88549ZM22.7366 3.02115L22.7131 2.27152C22.5112 2.27784 22.3087 2.26491 22.105 2.23235L21.9866 2.97295L21.8682 3.71355C22.1645 3.76092 22.462 3.78012 22.7601 3.77078L22.7366 3.02115ZM21.9866 2.97295L22.105 2.23235C21.8461 2.19097 21.5871 2.15436 21.3281 2.12251L21.2366 2.86691L21.1451 3.61131C21.3861 3.64093 21.6271 3.67501 21.8682 3.71355L21.9866 2.97295ZM21.2366 2.86691L21.3281 2.12251C21.0965 2.09405 20.8646 2.05682 20.6324 2.01079L20.4866 2.74648L20.3408 3.48217C20.6085 3.53525 20.8767 3.57831 21.1451 3.61131L21.2366 2.86691ZM20.4866 2.74648L20.6324 2.01079C20.1173 1.90869 19.6507 2.08049 19.2745 2.37477L19.7366 2.9655L20.1987 3.55622C20.2646 3.50464 20.3058 3.48867 20.3218 3.484C20.3338 3.48051 20.3366 3.48135 20.3408 3.48217L20.4866 2.74648ZM19.7366 2.9655L19.2745 2.37477C19.2139 2.42216 19.1829 2.43013 19.1815 2.43048C19.1809 2.43062 19.184 2.42988 19.1892 2.42999C19.1944 2.43009 19.1964 2.43092 19.1939 2.4302L18.9866 3.15098L18.7792 3.87175C19.3122 4.02505 19.8062 3.86325 20.1987 3.55622L19.7366 2.9655ZM18.9866 3.15098L19.1939 2.4302C18.7564 2.30433 18.3186 2.35197 17.9149 2.54366L18.2366 3.22116L18.5583 3.89867C18.6546 3.85294 18.7168 3.85379 18.7792 3.87175L18.9866 3.15098ZM18.2366 3.22116L17.9149 2.54366C17.9056 2.54807 17.9045 2.54732 17.9107 2.54616C17.9136 2.54561 17.9176 2.54509 17.9222 2.54488C17.9269 2.54468 17.9315 2.54482 17.9357 2.54524C17.9448 2.54614 17.9481 2.54787 17.9444 2.54644C17.9402 2.54482 17.9272 2.53919 17.9055 2.52459L17.4866 3.14667L17.0676 3.76874C17.5137 4.06916 18.0442 4.14276 18.5583 3.89867L18.2366 3.22116ZM17.4866 3.14667L17.9055 2.52459C17.5285 2.27065 17.0873 2.13779 16.6131 2.21692L16.7366 2.95669L16.86 3.69646C16.8859 3.69214 16.9447 3.68594 17.0676 3.76874L17.4866 3.14667ZM16.7366 2.95669L16.6131 2.21692C16.4007 2.25236 16.1892 2.2711 15.9784 2.2734L15.9866 3.02336L15.9948 3.77331C16.2839 3.77016 16.5725 3.74444 16.86 3.69646L16.7366 2.95669ZM15.9866 3.02336L15.9784 2.2734C15.7114 2.27632 15.4384 2.29631 15.2111 2.36488L15.4276 3.08293L15.6442 3.80098C15.6432 3.8013 15.6501 3.79918 15.6673 3.79602C15.6841 3.79292 15.7076 3.7894 15.7388 3.78607C15.802 3.77934 15.8863 3.7745 15.9948 3.77331L15.9866 3.02336ZM15.4276 3.08293L15.2111 2.36488C14.9095 2.45585 14.7206 2.66906 14.6155 2.86858C14.5171 3.05515 14.4753 3.25602 14.4556 3.42805L15.2007 3.51341L15.9459 3.59877C15.9548 3.52081 15.9651 3.52493 15.9424 3.568C15.929 3.59344 15.9008 3.63839 15.8494 3.68526C15.7954 3.73439 15.7257 3.77642 15.6442 3.80098L15.4276 3.08293ZM15.2007 3.51341L14.4556 3.42805C14.4264 3.68285 14.3999 3.93593 14.3761 4.18729L15.1228 4.258L15.8694 4.32871C15.8923 4.08729 15.9178 3.84398 15.9459 3.59877L15.2007 3.51341ZM15.1228 4.258L14.3761 4.18729C14.3444 4.52181 14.3718 4.85306 14.4592 5.1766L15.1833 4.98097L15.9073 4.78535C15.8674 4.63771 15.8545 4.48697 15.8694 4.32871L15.1228 4.258ZM15.1833 4.98097L14.4592 5.1766C14.5395 5.47358 14.6572 5.76029 14.8094 6.03619L15.4661 5.6739L16.1228 5.31162C16.0252 5.1348 15.9544 4.95956 15.9073 4.78535L15.1833 4.98097ZM15.4661 5.6739L14.8094 6.03619C14.9199 6.23663 15.0171 6.44068 15.101 6.64841L15.7964 6.36749L16.4918 6.08658C16.385 5.82224 16.2619 5.56389 16.1228 5.31162L15.4661 5.6739ZM15.7964 6.36749L15.101 6.64841C15.1753 6.83224 15.2267 7.01849 15.2563 7.20807L15.9973 7.09234L16.7384 6.97661C16.6908 6.6718 16.6082 6.37481 16.4918 6.08658L15.7964 6.36749ZM15.9973 7.09234L15.2563 7.20807C15.2923 7.43819 15.3203 7.66997 15.3405 7.90345L16.0877 7.83894L16.8349 7.77442C16.8118 7.50683 16.7796 7.24088 16.7384 6.97661L15.9973 7.09234ZM16.0877 7.83894L15.3405 7.90345C15.3497 8.0101 15.3325 8.15156 15.253 8.33931L15.9437 8.63164L16.6344 8.92396C16.7902 8.55585 16.869 8.16885 16.8349 7.77442L16.0877 7.83894ZM15.9437 8.63164L15.253 8.33931C15.0778 8.75325 15.0278 9.20576 15.1837 9.65299L15.8919 9.4062L16.6001 9.15941C16.5898 9.12974 16.5743 9.06588 16.6344 8.92396L15.9437 8.63164ZM15.8919 9.4062L15.1837 9.65299C15.3049 10.0009 15.5029 10.3138 15.7572 10.593L16.3117 10.088L16.8662 9.58298C16.7269 9.43005 16.6451 9.28843 16.6001 9.15941L15.8919 9.4062ZM16.3117 10.088L15.7572 10.593C15.879 10.7267 15.9294 10.839 15.9485 10.9314L16.6829 10.7793L17.4174 10.6273C17.3351 10.23 17.1381 9.88147 16.8662 9.58298L16.3117 10.088ZM16.6829 10.7793L15.9485 10.9314C15.977 11.069 15.9786 11.2214 15.9433 11.3957L16.6784 11.5446L17.4135 11.6935C17.4856 11.3371 17.4903 10.9793 17.4174 10.6273L16.6829 10.7793ZM16.6784 11.5446L15.9433 11.3957C15.8794 11.7112 15.8492 12.0254 15.855 12.3374L16.6049 12.3234L17.3547 12.3095C17.3511 12.1137 17.3698 11.9088 17.4135 11.6935L16.6784 11.5446ZM16.6049 12.3234L15.855 12.3374C15.8601 12.6099 15.8752 12.8806 15.9005 13.1497L16.6472 13.0795L17.3939 13.0093C17.3722 12.778 17.3591 12.5448 17.3547 12.3095L16.6049 12.3234ZM16.6472 13.0795L15.9005 13.1497C15.9187 13.3428 15.9089 13.487 15.8866 13.5918L16.6202 13.7477L17.3538 13.9036C17.4146 13.6177 17.4228 13.3165 17.3939 13.0093L16.6472 13.0795ZM16.6202 13.7477L15.8866 13.5918C15.8363 13.8283 15.8025 14.0884 15.7823 14.3682L16.5303 14.4224L17.2783 14.4766C17.2949 14.2474 17.3211 14.0577 17.3538 13.9036L16.6202 13.7477ZM16.5303 14.4224L15.7823 14.3682C15.7688 14.5543 15.7309 14.7305 15.669 14.8991L16.3732 15.1573L17.0773 15.4155C17.1881 15.1133 17.255 14.7996 17.2783 14.4766L16.5303 14.4224ZM16.3732 15.1573L15.669 14.8991C15.5978 15.0932 15.5086 15.2838 15.4006 15.4713L16.0505 15.8457L16.7004 16.2201C16.8499 15.9606 16.9758 15.6923 17.0773 15.4155L16.3732 15.1573ZM16.0505 15.8457L15.4006 15.4713C15.1444 15.916 15.1405 16.4026 15.2952 16.8547L16.0048 16.6119L16.7144 16.3691C16.6911 16.3009 16.6903 16.2634 16.6912 16.2495C16.6918 16.2389 16.6935 16.2319 16.7004 16.2201L16.0505 15.8457ZM16.0048 16.6119L15.2952 16.8547C15.3749 17.0875 15.4163 17.2967 15.4278 17.4847L16.1764 17.4392L16.925 17.3936C16.9043 17.0532 16.8314 16.7109 16.7144 16.3691L16.0048 16.6119ZM16.1764 17.4392L15.4278 17.4847C15.435 17.6027 15.411 17.6964 15.3574 17.7867L16.0025 18.1693L16.6476 18.5519C16.858 18.1971 16.95 17.804 16.925 17.3936L16.1764 17.4392ZM16.0025 18.1693L15.3574 17.7867C15.2014 18.0498 15.0725 18.3232 14.972 18.6067L15.6788 18.8574L16.3857 19.1082C16.4526 18.9194 16.5396 18.734 16.6476 18.5519L16.0025 18.1693ZM15.6788 18.8574L14.972 18.6067C14.8752 18.8796 14.8 19.1587 14.7467 19.4436L15.4839 19.5817L16.2211 19.7198C16.2601 19.5113 16.3149 19.3075 16.3857 19.1082L15.6788 18.8574ZM15.4839 19.5817L14.7467 19.4436C14.7034 19.6747 14.6529 19.9036 14.5953 20.1304L15.3221 20.3153L16.049 20.5002C16.1146 20.2422 16.1719 19.9821 16.2211 19.7198L15.4839 19.5817ZM15.3221 20.3153L14.5953 20.1304C14.5948 20.1324 14.5958 20.1275 14.6007 20.1188C14.6056 20.1099 14.6119 20.1017 14.618 20.0956C14.6238 20.0897 14.626 20.0891 14.6209 20.0922C14.6154 20.0955 14.6017 20.1028 14.5765 20.1116L14.8223 20.8202L15.0681 21.5287C15.5363 21.3663 15.9151 21.0266 16.049 20.5002L15.3221 20.3153ZM14.8223 20.8202L14.5765 20.1116C14.1117 20.2728 13.7567 20.5944 13.5586 21.0491L14.2462 21.3486L14.9339 21.6481C14.9606 21.5867 14.9896 21.5559 15.0681 21.5287L14.8223 20.8202ZM14.2462 21.3486L13.5586 21.0491C13.4986 21.1869 13.4283 21.2597 13.3568 21.3052L13.7589 21.9382L14.1611 22.5713C14.5145 22.3467 14.769 22.0265 14.9339 21.6481L14.2462 21.3486ZM13.7589 21.9382L13.3568 21.3052C13.1112 21.4611 12.8796 21.6352 12.6624 21.8272L13.159 22.3892L13.6556 22.9512C13.8134 22.8118 13.9818 22.6852 14.1611 22.5713L13.7589 21.9382ZM13.159 22.3892L12.6624 21.8272C12.4954 21.9747 12.3207 22.1129 12.1381 22.2417L12.5705 22.8545L13.0029 23.4673C13.23 23.3071 13.4476 23.135 13.6556 22.9512L13.159 22.3892ZM12.5705 22.8545L12.1381 22.2417C11.9648 22.364 11.7689 22.4821 11.5488 22.5951L11.8915 23.2622L12.2342 23.9294C12.5098 23.7878 12.7665 23.6341 13.0029 23.4673L12.5705 22.8545ZM11.8915 23.2622L11.5488 22.5951C11.2765 22.735 11.0469 22.9657 10.9362 23.2909C10.8329 23.5942 10.8611 23.8979 10.9278 24.1522L11.6533 23.9619L12.3787 23.7715C12.3565 23.6868 12.38 23.7042 12.3561 23.7744C12.3433 23.812 12.3215 23.8498 12.2926 23.8816C12.2649 23.9121 12.241 23.9259 12.2342 23.9294L11.8915 23.2622ZM11.6533 23.9619L10.9278 24.1522C10.9338 24.1749 10.9297 24.1718 10.9312 24.1489C10.9329 24.1231 10.9409 24.085 10.9623 24.0446C11.0073 23.9595 11.0588 23.9567 10.9917 23.9839L11.2739 24.6788L11.5561 25.3737C11.8309 25.2621 12.1166 25.0703 12.2881 24.7463C12.4628 24.416 12.4563 24.0674 12.3787 23.7715L11.6533 23.9619ZM11.2739 24.6788L10.9917 23.9839C10.4987 24.1841 10.0431 24.5689 9.96858 25.2061L10.7135 25.2932L11.4584 25.3804C11.4576 25.3876 11.4548 25.4006 11.4479 25.4156C11.441 25.4305 11.4338 25.4394 11.4315 25.4419C11.4289 25.4448 11.456 25.4143 11.5561 25.3737L11.2739 24.6788ZM10.7135 25.2932L9.96858 25.2061C9.92019 25.6196 9.98895 26.0222 10.1629 26.3999L10.8441 26.0862L11.5253 25.7725C11.4618 25.6344 11.4434 25.5084 11.4584 25.3804L10.7135 25.2932ZM10.8441 26.0862L10.1629 26.3999C10.2764 26.6464 10.3802 26.8882 10.4745 27.1252L11.1714 26.848L11.8683 26.5708C11.7637 26.3078 11.6493 26.0417 11.5253 25.7725L10.8441 26.0862ZM11.1714 26.848L10.4745 27.1252C10.5412 27.2929 10.5697 27.4481 10.5691 27.5951L11.3191 27.598L12.0691 27.6009C12.0705 27.2479 12.0004 26.9031 11.8683 26.5708L11.1714 26.848ZM11.3191 27.598L10.5691 27.5951C10.5681 27.8625 10.5764 28.1299 10.5939 28.3972L11.3423 28.348L12.0907 28.2988C12.0754 28.0661 12.0682 27.8335 12.0691 27.6009L11.3191 27.598ZM11.3423 28.348L10.5939 28.3972C10.6118 28.6683 10.6403 28.9225 10.6808 29.1583L11.42 29.0312L12.1591 28.9041C12.129 28.7289 12.1058 28.5277 12.0907 28.2988L11.3423 28.348ZM11.42 29.0312L10.6808 29.1583C10.7251 29.4157 10.8779 29.7634 11.2702 29.9234C11.599 30.0575 11.9161 29.9777 12.0997 29.9123L11.848 29.2058L11.5963 28.4993C11.5299 28.523 11.6506 28.4586 11.8368 28.5345C11.9432 28.5779 12.0302 28.6521 12.0882 28.738C12.1408 28.816 12.1553 28.8818 12.1591 28.9041L11.42 29.0312ZM11.848 29.2058L12.0997 29.9123C12.2214 29.8689 12.3273 29.8642 12.434 29.8881L12.598 29.1562L12.762 28.4244C12.3687 28.3362 11.9746 28.3645 11.5963 28.4993L11.848 29.2058ZM12.598 29.1562L12.434 29.8881C12.8164 29.9738 13.2009 29.9548 13.5741 29.8368L13.348 29.1217L13.1219 28.4066C12.995 28.4467 12.8796 28.4507 12.762 28.4244L12.598 29.1562ZM13.348 29.1217L13.5741 29.8368C13.7213 29.7902 13.8581 29.7798 13.9926 29.7989L14.098 29.0563L14.2034 28.3137C13.8379 28.2619 13.4747 28.295 13.1219 28.4066L13.348 29.1217ZM14.098 29.0563L13.9926 29.7989C14.4518 29.864 14.8809 29.7389 15.2541 29.4986L14.848 28.868L14.4419 28.2375C14.315 28.3192 14.2442 28.3195 14.2034 28.3137L14.098 29.0563ZM14.848 28.868L15.2541 29.4986C15.2547 29.4982 15.2369 29.5096 15.2019 29.5176C15.1647 29.5261 15.1232 29.5271 15.0837 29.5196C15.0079 29.5053 15.0023 29.4733 15.0619 29.5343L15.598 29.0098L16.1341 28.4853C15.9437 28.2907 15.6881 28.1073 15.3623 28.0458C15.0171 27.9805 14.6992 28.0717 14.4419 28.2375L14.848 28.868ZM15.598 29.0098L15.0619 29.5343C15.2563 29.733 15.526 29.9235 15.874 29.9698C16.2396 30.0185 16.558 29.891 16.8002 29.708L16.348 29.1097L15.8958 28.5113C15.8892 28.5164 15.903 28.5044 15.9376 28.4936C15.9751 28.4819 16.0223 28.4764 16.072 28.483C16.17 28.496 16.1897 28.5421 16.1341 28.4853L15.598 29.0098ZM16.348 29.1097L16.8002 29.708C16.8608 29.6622 16.8939 29.6527 16.9001 29.6512C16.9031 29.6505 16.9027 29.6509 16.9004 29.6509C16.8981 29.6508 16.8984 29.6504 16.9026 29.6516L17.098 28.9275L17.2934 28.2034C16.7721 28.0627 16.2874 28.2154 15.8958 28.5113L16.348 29.1097ZM17.098 28.9275L16.9026 29.6516C17.1926 29.7298 17.4848 29.783 17.7787 29.8103L17.848 29.0635L17.9173 28.3167C17.7112 28.2975 17.5034 28.26 17.2934 28.2034L17.098 28.9275ZM17.848 29.0635L17.7787 29.8103C18.2201 29.8512 18.6324 29.7268 18.9965 29.4984L18.598 28.8631L18.1995 28.2277C18.0636 28.3129 17.9758 28.3221 17.9173 28.3167L17.848 29.0635ZM18.598 28.8631L18.9965 29.4984C19.0158 29.4864 19.0264 29.4824 19.0285 29.4817C19.0295 29.4814 19.0288 29.4817 19.0264 29.4822C19.0239 29.4827 19.0205 29.4832 19.0162 29.4834C19.0119 29.4837 19.0075 29.4836 19.0034 29.4833C18.9994 29.4829 18.9963 29.4823 18.9944 29.4819C18.9904 29.481 18.9942 29.4813 19.0063 29.4874L19.348 28.8198L19.6897 28.1522C19.1903 27.8966 18.6595 27.9392 18.1995 28.2277L18.598 28.8631ZM19.348 28.8198L19.0063 29.4874C19.3335 29.6549 19.6785 29.7606 20.0378 29.7895L20.098 29.042L20.1582 28.2944C20.0175 28.283 19.8625 28.2406 19.6897 28.1522L19.348 28.8198ZM20.098 29.042L20.0378 29.7895C20.1864 29.8015 20.3469 29.8439 20.5225 29.9285L20.848 29.2528L21.1735 28.5771C20.8491 28.4208 20.5096 28.3227 20.1582 28.2944L20.098 29.042ZM20.848 29.2528L20.5225 29.9285C20.772 30.0487 21.0518 30.1003 21.343 30.0531C21.6265 30.0072 21.8689 29.8762 22.0686 29.7152L21.598 29.1313L21.1274 28.5473C21.0771 28.5879 21.0695 28.5778 21.103 28.5724C21.1194 28.5698 21.1374 28.5697 21.1539 28.5724C21.1698 28.5749 21.1767 28.5787 21.1735 28.5771L20.848 29.2528ZM21.598 29.1313L22.0686 29.7152C22.2142 29.5979 22.2832 29.6025 22.2959 29.6034L22.348 28.8552L22.4001 28.107C21.9128 28.0731 21.4818 28.2617 21.1274 28.5473L21.598 29.1313ZM22.348 28.8552L22.2959 29.6034C22.4681 29.6154 22.6464 29.6542 22.8325 29.7247L23.098 29.0233L23.3635 28.3218C23.0496 28.203 22.7279 28.1298 22.4001 28.107L22.348 28.8552ZM23.098 29.0233L22.8325 29.7247C22.8941 29.748 22.7733 29.7218 22.6842 29.5582C22.6339 29.466 22.6129 29.3626 22.6191 29.2656C22.6248 29.1765 22.6515 29.1178 22.6625 29.0967L23.3272 29.4441L23.9919 29.7915C24.116 29.5542 24.1957 29.1974 24.0014 28.8407C23.8359 28.5368 23.5519 28.3932 23.3635 28.3218L23.098 29.0233ZM23.3272 29.4441L22.6625 29.0967C22.4793 29.4472 22.4389 29.8286 22.4907 30.2011L23.2335 30.098L23.9764 29.9948C23.9587 29.8674 23.9807 29.8129 23.9919 29.7915L23.3272 29.4441ZM23.2335 30.098L22.4907 30.2011C22.5346 30.5173 22.6204 30.8279 22.7447 31.1318L23.4389 30.848L24.1331 30.5642C24.053 30.3681 24.0019 30.1786 23.9764 29.9948L23.2335 30.098ZM23.4389 30.848L22.7447 31.1318C22.8273 31.3339 22.8834 31.5306 22.9158 31.7225L23.6554 31.598L24.3949 31.4735C24.3431 31.1654 24.2549 30.8621 24.1331 30.5642L23.4389 30.848ZM23.6554 31.598L22.9158 31.7225C22.9577 31.9713 22.9989 32.2201 23.0396 32.4689L23.7798 32.348L24.52 32.227C24.4789 31.9759 24.4372 31.7247 24.3949 31.4735L23.6554 31.598ZM23.7798 32.348L23.0396 32.4689C23.039 32.4652 23.0387 32.4598 23.0393 32.4545C23.0398 32.4495 23.0406 32.4497 23.0381 32.4562C23.0326 32.4708 23.0111 32.5159 22.9436 32.5888L23.4943 33.098L24.045 33.6071C24.3751 33.2502 24.6099 32.7778 24.52 32.227L23.7798 32.348ZM23.4943 33.098L22.9436 32.5888C22.7465 32.8021 22.5702 33.1016 22.5718 33.4763C22.5734 33.8502 22.7517 34.148 22.9493 34.3597L23.4976 33.848L24.0459 33.3363C24.0101 33.298 24.0713 33.3458 24.0718 33.4697C24.0723 33.5944 24.011 33.6439 24.045 33.6071L23.4943 33.098ZM23.4976 33.848L22.9493 34.3597C23.014 34.4291 23.0265 34.465 23.0264 34.4646C23.026 34.4634 23.0236 34.4557 23.0231 34.4433C23.0226 34.4307 23.0241 34.4203 23.0257 34.4142L23.7528 34.598L24.4799 34.7817C24.6254 34.2063 24.3898 33.7047 24.0459 33.3363L23.4976 33.848ZM23.7528 34.598L23.0257 34.4142C22.9458 34.7304 22.9102 35.0508 22.9211 35.3733L23.6707 35.348L24.4203 35.3227C24.4143 35.1452 24.4335 34.9656 24.4799 34.7817L23.7528 34.598ZM23.6707 35.348L22.9211 35.3733C22.9266 35.5355 22.9046 35.7018 22.8506 35.8753L23.5668 36.098L24.283 36.3207C24.3845 35.9942 24.4317 35.6605 24.4203 35.3227L23.6707 35.348ZM23.5668 36.098L22.8506 35.8753C22.7329 36.2538 22.7197 36.6432 22.8152 37.0285L23.5431 36.848L24.2711 36.6675C24.2426 36.5528 24.2452 36.4422 24.283 36.3207L23.5668 36.098ZM23.5431 36.848L22.8152 37.0285C22.8354 37.1099 22.8325 37.1925 22.7857 37.3012L23.4745 37.598L24.1632 37.8948C24.3319 37.5034 24.3749 37.0861 24.2711 36.6675L23.5431 36.848ZM23.4745 37.598L22.7857 37.3012C22.6101 37.7088 22.5803 38.1433 22.7142 38.5717L23.4301 38.348L24.1459 38.1243C24.1235 38.0527 24.1234 37.9872 24.1632 37.8948L23.4745 37.598ZM23.4301 38.348L22.7142 38.5717C22.7206 38.5921 22.72 38.6023 22.7187 38.6107C22.7171 38.6215 22.7103 38.6521 22.6777 38.705L23.3165 39.098L23.9553 39.491C24.2074 39.0812 24.297 38.6077 24.1459 38.1243L23.4301 38.348ZM23.3165 39.098L22.6777 38.705C22.5202 38.9609 22.4366 39.271 22.4966 39.6054C22.5537 39.9236 22.7255 40.178 22.9138 40.3713L23.4511 39.848L23.9883 39.3247C23.9331 39.268 23.9608 39.2724 23.973 39.3405C23.9793 39.3756 23.9783 39.4123 23.9712 39.4452C23.9644 39.4764 23.9547 39.492 23.9553 39.491L23.3165 39.098ZM23.4511 39.848L22.9138 40.3713C22.953 40.4115 22.8807 40.3563 22.882 40.216C22.8833 40.0774 22.955 40.0261 22.9118 40.0696L23.4441 40.598L23.9764 41.1264C24.1814 40.9199 24.3783 40.6186 24.3819 40.23C24.3856 39.8396 24.1927 39.5345 23.9883 39.3247L23.4511 39.848ZM23.4441 40.598L22.9118 40.0696C22.5717 40.4122 22.3071 40.8726 22.3654 41.4265L23.1113 41.348L23.8572 41.2695C23.859 41.2865 23.8533 41.293 23.8603 41.2772C23.8698 41.2558 23.8989 41.2044 23.9764 41.1264L23.4441 40.598ZM23.1113 41.348L22.3654 41.4265C22.4167 41.9136 22.6855 42.3164 23.017 42.6371L23.5384 42.098L24.0599 41.5589C23.8745 41.3796 23.8585 41.2824 23.8572 41.2695L23.1113 41.348ZM23.5384 42.098L23.017 42.6371C23.0967 42.7142 23.1203 42.7601 23.1246 42.7702C23.1263 42.774 23.1238 42.7693 23.1223 42.7576C23.1207 42.7455 23.121 42.7328 23.1229 42.722L23.8622 42.848L24.6015 42.974C24.7015 42.3875 24.4162 41.9035 24.0599 41.5589L23.5384 42.098ZM23.8622 42.848L23.1229 42.722C23.0902 42.9136 23.0336 43.11 22.9502 43.3119L23.6435 43.598L24.3368 43.8841C24.4598 43.586 24.549 43.2824 24.6015 42.974L23.8622 42.848ZM23.6435 43.598L22.9502 43.3119C22.8557 43.541 22.7486 43.7712 22.6285 44.0027L23.2943 44.348L23.96 44.6933C24.0993 44.4248 24.225 44.155 24.3368 43.8841L23.6435 43.598ZM23.2943 44.348L22.6285 44.0027C22.3929 44.4568 22.379 44.9538 22.6008 45.4201L23.2781 45.098L23.9554 44.7759C23.9475 44.7593 23.9447 44.749 23.9436 44.7444C23.9431 44.7421 23.9429 44.7407 23.9429 44.7401C23.9428 44.7395 23.9428 44.7393 23.9428 44.7392C23.9428 44.739 23.9428 44.7385 23.943 44.7375C23.9431 44.7364 23.9435 44.7343 23.9444 44.7311C23.9461 44.7247 23.9502 44.7123 23.96 44.6933L23.2943 44.348ZM23.2781 45.098L22.6008 45.4201C22.7069 45.6432 22.7927 45.8579 22.8594 46.0645L23.5731 45.8339L24.2868 45.6033C24.198 45.3286 24.0871 45.0528 23.9554 44.7759L23.2781 45.098ZM23.5731 45.8339L22.8594 46.0645C22.9288 46.2791 23.0626 46.5365 23.326 46.7122C23.6046 46.898 23.911 46.9154 24.1633 46.8649L24.0163 46.1295L23.8693 45.394C23.9039 45.3871 24.0275 45.377 24.1583 45.4643C24.274 45.5414 24.2951 45.6293 24.2868 45.6033L23.5731 45.8339ZM24.0163 46.1295L24.1633 46.8649C24.4009 46.8174 24.6435 46.704 24.8334 46.4901C25.0197 46.2803 25.103 46.0325 25.1319 45.8057L24.3879 45.7109L23.644 45.6161C23.6428 45.6249 23.6492 45.5646 23.7117 45.4942C23.7776 45.4199 23.8494 45.398 23.8693 45.394L24.0163 46.1295ZM24.3879 45.7109L25.1319 45.8057C25.1556 45.6197 25.1998 45.4214 25.267 45.2102L24.5524 44.9826L23.8377 44.755C23.7458 45.0439 23.6803 45.3311 23.644 45.6161L24.3879 45.7109ZM24.5524 44.9826L25.267 45.2102C25.366 44.8993 25.4234 44.5829 25.4362 44.2625L24.6868 44.2326L23.9374 44.2027C23.9302 44.3824 23.898 44.5659 23.8377 44.755L24.5524 44.9826ZM24.6868 44.2326L25.4362 44.2625C25.4436 44.0775 25.4748 43.8892 25.5322 43.6965L24.8133 43.4826L24.0944 43.2687C24.003 43.576 23.9499 43.8878 23.9374 44.2027L24.6868 44.2326ZM24.8133 43.4826L25.5322 43.6965C25.6775 43.2082 25.5767 42.7348 25.3181 42.3294L24.6857 42.7326L24.0534 43.1359C24.0882 43.1905 24.0959 43.2223 24.0978 43.2334C24.0992 43.2418 24.0998 43.2506 24.0944 43.2687L24.8133 43.4826ZM24.6857 42.7326L25.3181 42.3294C25.3072 42.3122 25.3051 42.3048 25.3058 42.3071C25.3068 42.3101 25.3094 42.3197 25.3099 42.334C25.3101 42.3407 25.3098 42.3472 25.3091 42.3532C25.3083 42.3592 25.3073 42.3638 25.3065 42.3667C25.3049 42.3726 25.3049 42.3693 25.3124 42.3563L24.6621 41.9826L24.0118 41.6089C23.8814 41.8358 23.8017 42.097 23.8106 42.3813C23.8195 42.6642 23.9147 42.9184 24.0534 43.1359L24.6857 42.7326ZM24.6621 41.9826L25.3124 42.3563C25.5262 41.9842 25.6292 41.569 25.57 41.132L24.8268 41.2326L24.0836 41.3333C24.0921 41.3963 24.0853 41.481 24.0118 41.6089L24.6621 41.9826ZM24.8268 41.2326L25.57 41.132C25.5439 40.939 25.5402 40.747 25.5588 40.5548L24.8123 40.4826L24.0658 40.4104C24.036 40.7182 24.042 41.0262 24.0836 41.3333L24.8268 41.2326ZM24.8123 40.4826L25.5588 40.5548C25.5956 40.174 25.5337 39.8016 25.388 39.4474L24.6944 39.7326L24.0007 40.0178C24.0606 40.1636 24.0773 40.2912 24.0658 40.4104L24.8123 40.4826ZM24.6944 39.7326L25.388 39.4474C25.2773 39.1782 25.1539 38.9099 25.018 38.6427L24.3495 38.9826L23.681 39.3225C23.7993 39.5553 23.9058 39.7871 24.0007 40.0178L24.6944 39.7326ZM24.3495 38.9826L25.018 38.6427C24.9373 38.4839 24.9073 38.348 24.9066 38.2283L24.1567 38.2326L23.4067 38.237C23.4089 38.6172 23.5075 38.9813 23.681 39.3225L24.3495 38.9826ZM24.1567 38.2326L24.9066 38.2283C24.906 38.1194 24.9336 37.9917 25.0165 37.8369L24.3555 37.4826L23.6945 37.1283C23.5094 37.4735 23.4044 37.8458 23.4067 38.237L24.1567 38.2326ZM24.3555 37.4826L25.0165 37.8369C25.2474 37.4062 25.2913 36.9276 25.1092 36.4603L24.4104 36.7326L23.7116 37.0049C23.7227 37.0334 23.7222 37.0469 23.7217 37.0529C23.7212 37.0601 23.7183 37.0838 23.6945 37.1283L24.3555 37.4826ZM24.4104 36.7326L25.1092 36.4603C25.0883 36.4067 25.086 36.3692 25.1187 36.2988L24.4386 35.9826L23.7585 35.6664C23.5587 36.0961 23.5376 36.5586 23.7116 37.0049L24.4104 36.7326ZM24.4386 35.9826L25.1187 36.2988C25.2996 35.9097 25.3554 35.4898 25.2578 35.0647L24.5269 35.2326L23.7959 35.4005C23.8131 35.4754 23.8101 35.5555 23.7585 35.6664L24.4386 35.9826ZM24.5269 35.2326L25.2578 35.0647C25.2128 34.8685 25.1909 34.675 25.191 34.4832L24.441 34.4826L23.691 34.4821C23.6908 34.7902 23.7261 35.0967 23.7959 35.4005L24.5269 35.2326ZM24.441 34.4826L25.191 34.4832C25.1912 34.1986 25.1718 33.9144 25.133 33.6308L24.3899 33.7326L23.6468 33.8344C23.6765 34.0508 23.6912 34.2666 23.691 34.4821L24.441 34.4826ZM24.3899 33.7326L25.133 33.6308C25.0906 33.3216 25.0115 33.0168 24.898 32.7172L24.1966 32.9826L23.4951 33.2481C23.5709 33.4484 23.6207 33.6436 23.6468 33.8344L24.3899 33.7326ZM24.1966 32.9826L24.898 32.7172C24.8539 32.6005 24.8496 32.5023 24.8727 32.4036L24.1425 32.2326L23.4123 32.0616C23.3183 32.4629 23.3501 32.8647 23.4951 33.2481L24.1966 32.9826ZM24.1425 32.2326L24.8727 32.4036C24.9158 32.2198 24.9868 32.0282 25.0907 31.8282L24.425 31.4826L23.7594 31.137C23.6037 31.437 23.4863 31.7454 23.4123 32.0616L24.1425 32.2326ZM24.425 31.4826L25.0907 31.8282C25.2738 31.4755 25.37 31.0944 25.3504 30.6958L24.6013 30.7326L23.8522 30.7695C23.8572 30.8708 23.8359 30.9898 23.7594 31.137L24.425 31.4826ZM24.6013 30.7326L25.3504 30.6958C25.3397 30.4775 25.3428 30.2593 25.3598 30.0409L24.6121 29.9826L23.8644 29.9243C23.8424 30.2059 23.8384 30.4877 23.8522 30.7695L24.6013 30.7326ZM24.6121 29.9826L25.3598 30.0409C25.3812 29.7663 25.3915 29.4506 25.3919 29.0965L24.6419 29.0957L23.8919 29.0949C23.8915 29.4233 23.8819 29.6989 23.8644 29.9243L24.6121 29.9826ZM24.6419 29.0957L25.3919 29.0965C25.3919 29.0477 25.3974 29.0602 25.3836 29.1059C25.3713 29.1469 25.3137 29.3106 25.1232 29.4255C24.9155 29.5507 24.7174 29.5192 24.6337 29.4935C24.5604 29.4711 24.5339 29.4438 24.5631 29.466L25.0174 28.8693L25.4717 28.2726C25.3759 28.1997 25.24 28.1104 25.0729 28.0593C24.8954 28.0049 24.6191 27.9779 24.3488 28.1409C24.0957 28.2934 23.9911 28.5281 23.9474 28.6733C23.9022 28.8232 23.892 28.973 23.8919 29.0949L24.6419 29.0957ZM25.0174 28.8693L24.5631 29.466C24.7782 29.6299 25.046 29.7556 25.3583 29.7698C25.6738 29.7842 25.9544 29.681 26.185 29.5265L25.7674 28.9035L25.3498 28.2805C25.3384 28.2881 25.3406 28.2846 25.3563 28.2797C25.3732 28.2744 25.3978 28.2701 25.4265 28.2714C25.4887 28.2742 25.5065 28.2991 25.4717 28.2726L25.0174 28.8693ZM25.7674 28.9035L26.185 29.5265C26.3542 29.413 26.491 29.3683 26.5995 29.3563L26.5174 28.6108L26.4353 27.8653C26.0438 27.9085 25.6805 28.0588 25.3498 28.2805L25.7674 28.9035ZM26.5174 28.6108L26.5995 29.3563C26.7748 29.337 26.9501 29.3438 27.1279 29.3774L27.2674 28.6405L27.4069 27.9036C27.0847 27.8426 26.76 27.8296 26.4353 27.8653L26.5174 28.6108ZM27.2674 28.6405L27.1279 29.3774C27.2042 29.3918 27.3329 29.4436 27.5131 29.6073L28.0174 29.0521L28.5217 28.497C28.2019 28.2065 27.8306 27.9838 27.4069 27.9036L27.2674 28.6405ZM28.0174 29.0521L27.5131 29.6073C27.858 29.9207 28.2954 30.1491 28.8075 30.1216L28.7674 29.3727L28.7272 28.6238C28.7266 28.6238 28.7158 28.6252 28.6872 28.613C28.6551 28.5993 28.5992 28.5674 28.5217 28.497L28.0174 29.0521ZM28.7674 29.3727L28.8075 30.1216C29.2642 30.0972 29.6644 29.8935 30.0009 29.6097L29.5174 29.0364L29.0339 28.463C28.8704 28.6009 28.7706 28.6215 28.7272 28.6238L28.7674 29.3727ZM29.5174 29.0364L30.0009 29.6097C30.0519 29.5667 30.0557 29.5809 30.0135 29.5878C29.9925 29.5912 29.9701 29.591 29.9497 29.5874C29.9301 29.584 29.9209 29.5789 29.9234 29.5802L30.2674 28.9137L30.6114 28.2472C30.3599 28.1175 30.0728 28.0581 29.7713 28.1074C29.4791 28.1552 29.2329 28.2952 29.0339 28.463L29.5174 29.0364ZM30.2674 28.9137L29.9234 29.5802C30.2056 29.7258 30.4913 29.8474 30.7805 29.9437L31.0174 29.2321L31.2543 28.5205C31.0435 28.4503 30.8292 28.3597 30.6114 28.2472L30.2674 28.9137ZM31.0174 29.2321L30.7805 29.9437C31.2215 30.0905 31.6693 30.0553 32.0841 29.8621L31.7674 29.1822L31.4507 28.5024C31.3654 28.5421 31.3133 28.5401 31.2543 28.5205L31.0174 29.2321ZM31.7674 29.1822L32.0841 29.8621C32.2512 29.7842 32.4015 29.7502 32.5396 29.7461L32.5174 28.9964L32.4952 28.2468C32.1333 28.2575 31.7836 28.3473 31.4507 28.5024L31.7674 29.1822ZM32.5174 28.9964L32.5396 29.7461C32.8924 29.7357 33.2355 29.6541 33.5647 29.5119L33.2674 28.8234L32.97 28.1349C32.7993 28.2086 32.6423 28.2424 32.4952 28.2468L32.5174 28.9964ZM33.2674 28.8234L33.5647 29.5119C33.7543 29.4301 33.935 29.3813 34.1084 29.3601L34.0174 28.6156L33.9264 27.8712C33.5998 27.9111 33.2805 28.0008 32.97 28.1349L33.2674 28.8234ZM34.0174 28.6156L34.1084 29.3601C34.0968 29.3615 34.0848 29.361 34.0749 29.3593C34.0656 29.3577 34.0639 29.3559 34.0711 29.3593C34.088 29.3673 34.1391 29.3973 34.2193 29.4832L34.7674 28.9712L35.3154 28.4592C34.9802 28.1003 34.509 27.7999 33.9264 27.8712L34.0174 28.6156ZM34.7674 28.9712L34.2193 29.4832C34.5524 29.8397 35.0156 30.1384 35.5897 30.0828L35.5174 29.3363L35.4451 28.5898C35.4722 28.5872 35.4851 28.5958 35.4707 28.5888C35.4498 28.5787 35.3965 28.546 35.3154 28.4592L34.7674 28.9712ZM35.5174 29.3363L35.5897 30.0828C35.8966 30.0531 36.2003 29.9884 36.4999 29.8907L36.2674 29.1777L36.0349 28.4647C35.8345 28.53 35.6381 28.5711 35.4451 28.5898L35.5174 29.3363ZM36.2674 29.1777L36.4999 29.8907C36.8313 29.7827 37.135 29.621 37.3924 29.3935L36.8957 28.8315L36.3991 28.2695C36.3187 28.3406 36.2035 28.4097 36.0349 28.4647L36.2674 29.1777ZM36.8957 28.8315L37.3924 29.3935C37.6869 29.1332 37.8744 28.7986 37.9746 28.4286L37.2506 28.2326L36.5267 28.0366C36.4915 28.1667 36.4424 28.2313 36.3991 28.2695L36.8957 28.8315ZM37.2506 28.2326L37.9746 28.4286C38.0663 28.0899 38.0942 27.7446 38.0546 27.3977L37.3094 27.4826L36.5643 27.5676C36.5817 27.7206 36.5704 27.8753 36.5267 28.0366L37.2506 28.2326ZM37.3094 27.4826L38.0546 27.3977C38.0284 27.1681 38.0118 26.9387 38.0048 26.7095L37.2551 26.7326L36.5055 26.7557C36.5138 27.0265 36.5334 27.2971 36.5643 27.5676L37.3094 27.4826ZM37.2551 26.7326L38.0048 26.7095C37.995 26.39 37.9412 26.0739 37.8463 25.7626L37.1289 25.9813L36.4115 26.2C36.4695 26.3905 36.4999 26.5752 36.5055 26.7557L37.2551 26.7326ZM37.1289 25.9813L37.8463 25.7626C37.7437 25.4261 37.5843 25.1153 37.3716 24.8329L36.7725 25.2841L36.1734 25.7354C36.2829 25.8807 36.3611 26.0347 36.4115 26.2L37.1289 25.9813ZM36.7725 25.2841L37.3716 24.8329C37.2292 24.6439 37.1155 24.4678 37.0271 24.3046L36.3675 24.6616L35.7079 25.0186C35.8373 25.2576 35.9935 25.4965 36.1734 25.7354L36.7725 25.2841ZM36.3675 24.6616L37.0271 24.3046C36.953 24.1677 36.8939 24.0114 36.8529 23.8319L36.1217 23.9991L35.3906 24.1663C35.4596 24.4678 35.5643 24.7532 35.7079 25.0186L36.3675 24.6616ZM36.1217 23.9991L36.8529 23.8319C36.7498 23.3812 36.4775 23.0223 36.0692 22.8032L35.7146 23.4641L35.36 24.125C35.3722 24.1316 35.3784 24.1364 35.3807 24.1382C35.3828 24.14 35.3827 24.1402 35.3819 24.1392C35.3811 24.1381 35.3815 24.1383 35.3828 24.1412C35.3842 24.1442 35.3873 24.152 35.3906 24.1663L36.1217 23.9991ZM35.7146 23.4641L36.0692 22.8032C36.007 22.7699 36.0493 22.7782 36.1033 22.8558C36.135 22.9014 36.1719 22.973 36.1875 23.0682C36.2036 23.1657 36.1922 23.2571 36.1671 23.3316L35.4562 23.0928L34.7452 22.8539C34.6402 23.1665 34.7072 23.4757 34.872 23.7126C35.0122 23.9139 35.2057 24.0422 35.36 24.125L35.7146 23.4641ZM35.4562 23.0928L36.1671 23.3316C36.2787 22.9995 36.193 22.6773 36.0108 22.443C35.8588 22.2477 35.6552 22.1282 35.4961 22.0525L35.1739 22.7298L34.8517 23.4071C34.925 23.4419 34.8845 23.4382 34.8267 23.3639C34.792 23.3193 34.748 23.2448 34.7276 23.1417C34.7066 23.0352 34.718 22.9349 34.7452 22.8539L35.4562 23.0928ZM35.625 27.9246L35.7729 27.1893C35.4115 27.1166 35.0479 27.1267 34.6903 27.2175L34.875 27.9444L35.0597 28.6713C35.2021 28.6351 35.3385 28.632 35.4771 28.6599L35.625 27.9246ZM34.875 27.9444L34.6903 27.2175C34.4096 27.2888 34.1305 27.3786 33.8532 27.4865L34.125 28.1855L34.3968 28.8845C34.6195 28.7979 34.8404 28.727 35.0597 28.6713L34.875 27.9444ZM34.125 28.1855L33.8532 27.4865C33.8549 27.4858 33.8647 27.4824 33.881 27.4812C33.8975 27.4799 33.9125 27.4816 33.9234 27.4842C33.9442 27.4891 33.9245 27.4909 33.8653 27.4398L33.375 28.0073L32.8847 28.5748C33.2869 28.9223 33.8237 29.1073 34.3968 28.8845L34.125 28.1855ZM33.375 28.0073L33.8653 27.4398C33.5073 27.1305 33.0528 26.9207 32.5312 26.9865L32.625 27.7306L32.7188 28.4747C32.7202 28.4745 32.7208 28.4745 32.7221 28.4747C32.7235 28.4749 32.7293 28.4757 32.7404 28.4798C32.7634 28.4883 32.8121 28.5121 32.8847 28.5748L33.375 28.0073ZM32.625 27.7306L32.5312 26.9865C32.2943 27.0163 32.0575 27.0398 31.8207 27.057L31.875 27.8051L31.9293 28.5531C32.1925 28.534 32.4557 28.5079 32.7188 28.4747L32.625 27.7306ZM31.875 27.8051L31.8207 27.057C31.6238 27.0713 31.4267 27.0648 31.2287 27.0371L31.125 27.7799L31.0213 28.5227C31.3233 28.5649 31.6262 28.5751 31.9293 28.5531L31.875 27.8051ZM31.125 27.7799L31.2287 27.0371C30.9838 27.0029 30.7389 26.9662 30.494 26.9268L30.375 27.6673L30.256 28.4078C30.5111 28.4488 30.7662 28.4871 31.0213 28.5227L31.125 27.7799ZM30.375 27.6673L30.494 26.9268C29.9173 26.8341 29.4381 27.1086 29.0917 27.4589L29.625 27.9863L30.1583 28.5136C30.2348 28.4362 30.2813 28.4123 30.2935 28.4071C30.2985 28.405 30.2955 28.4069 30.2859 28.4082C30.2758 28.4095 30.2651 28.4093 30.256 28.4078L30.375 27.6673ZM29.625 27.9863L29.0917 27.4589C29.0577 27.4933 29.0325 27.513 29.0169 27.5236C29.0016 27.5339 28.9982 27.5337 29.0065 27.5309C29.0158 27.5277 29.033 27.5235 29.0555 27.5233C29.0781 27.5231 29.0961 27.527 29.1066 27.5304L28.875 28.2437L28.6434 28.9571C29.2582 29.1567 29.7907 28.8854 30.1583 28.5136L29.625 27.9863ZM28.875 28.2437L29.1066 27.5304C28.9253 27.4715 28.7333 27.3804 28.5305 27.25L28.125 27.8809L27.7195 28.5119C28.0167 28.7029 28.3247 28.8536 28.6434 28.9571L28.875 28.2437ZM28.125 27.8809L28.5305 27.25C28.134 26.9952 27.6714 26.8857 27.1879 27.0102L27.375 27.7365L27.5621 28.4628C27.5786 28.4585 27.616 28.4453 27.7195 28.5119L28.125 27.8809ZM27.375 27.7365L27.1879 27.0102C27.0145 27.0549 26.8461 27.0698 26.6798 27.0576L26.625 27.8056L26.5702 28.5536C26.9039 28.578 27.2355 28.5469 27.5621 28.4628L27.375 27.7365ZM26.625 27.8056L26.6798 27.0576C26.2374 27.0251 25.8271 27.1584 25.4666 27.3925L25.875 28.0215L26.2834 28.6506C26.4229 28.56 26.5126 28.5493 26.5702 28.5536L26.625 27.8056ZM25.875 28.0215L25.4666 27.3925C25.3345 27.4782 25.2565 27.4823 25.2102 27.477L25.125 28.2221L25.0398 28.9673C25.4935 29.0191 25.9155 28.8894 26.2834 28.6506L25.875 28.0215ZM25.125 28.2221L25.2102 27.477C25.0763 27.4617 24.9241 27.4137 24.7501 27.3132L24.375 27.9627L23.9999 28.6122C24.3259 28.8004 24.6737 28.9254 25.0398 28.9673L25.125 28.2221ZM24.375 27.9627L24.7501 27.3132C24.4242 27.125 24.0765 27 23.7105 26.958L23.625 27.7031L23.5395 28.4482C23.6735 28.4636 23.8258 28.5116 23.9999 28.6122L24.375 27.9627ZM23.625 27.7031L23.7105 26.958C23.4007 26.9224 23.0904 26.9242 22.7808 26.9634L22.875 27.7075L22.9692 28.4516C23.1596 28.4275 23.3493 28.4263 23.5395 28.4482L23.625 27.7031ZM22.875 27.7075L22.7808 26.9634C22.5329 26.9948 22.285 27.0251 22.037 27.0544L22.125 27.7993L22.213 28.5441C22.465 28.5143 22.7171 28.4835 22.9692 28.4516L22.875 27.7075ZM22.125 27.7993L22.037 27.0544C21.8938 27.0713 21.7481 27.059 21.5933 27.0119L21.375 27.7294L21.1567 28.447C21.5019 28.552 21.8562 28.5862 22.213 28.5441L22.125 27.7993ZM21.375 27.7294L21.5933 27.0119C21.1553 26.8786 20.7145 26.9209 20.307 27.1117L20.625 27.7909L20.943 28.4701C21.0355 28.4269 21.0947 28.4281 21.1567 28.447L21.375 27.7294ZM20.625 27.7909L20.307 27.1117C20.1076 27.205 19.9155 27.268 19.73 27.3045L19.875 28.0404L20.02 28.7762C20.3345 28.7143 20.6424 28.6109 20.943 28.4701L20.625 27.7909ZM19.875 28.0404L19.73 27.3045C19.4869 27.3524 19.2439 27.3968 19.0009 27.4375L19.125 28.1772L19.2491 28.9169C19.5061 28.8737 19.7631 28.8268 20.02 28.7762L19.875 28.0404ZM19.125 28.1772L19.0009 27.4375C18.8314 27.466 18.6637 27.4665 18.4945 27.4392L18.375 28.1796L18.2555 28.9201C18.5863 28.9734 18.9186 28.9723 19.2491 28.9169L19.125 28.1772ZM18.375 28.1796L18.4945 27.4392C18.1451 27.3829 17.7952 27.397 17.4503 27.4796L17.625 28.209L17.7997 28.9383C17.9548 28.9012 18.1049 28.8958 18.2555 28.9201L18.375 28.1796ZM17.625 28.209L17.4503 27.4796C17.2335 27.5315 17.0179 27.5676 16.8035 27.5881L16.875 28.3347L16.9465 29.0813C17.2321 29.0539 17.5165 29.0061 17.7997 28.9383L17.625 28.209ZM16.875 28.3347L16.8035 27.5881C16.6551 27.6023 16.5036 27.5876 16.3436 27.5389L16.125 28.2563L15.9064 28.9738C16.2464 29.0773 16.5949 29.1149 16.9465 29.0813L16.875 28.3347ZM16.125 28.2563L16.3436 27.5389C16.0827 27.4594 15.8216 27.3863 15.5603 27.3197L15.375 28.0465L15.1897 28.7732C15.4284 28.8341 15.6673 28.9009 15.9064 28.9738L16.125 28.2563ZM15.375 28.0465L15.5603 27.3197C15.241 27.2383 14.9173 27.2038 14.5913 27.2185L14.625 27.9677L14.6587 28.717C14.8327 28.7091 15.009 28.7271 15.1897 28.7732L15.375 28.0465ZM14.625 27.9677L14.5913 27.2185C14.4476 27.2249 14.2971 27.2025 14.1348 27.1425L13.875 27.8461L13.6152 28.5497C13.9529 28.6744 14.3024 28.733 14.6587 28.717L14.625 27.9677ZM13.875 27.8461L14.1348 27.1425C13.8257 27.0285 13.5101 26.9558 13.1893 26.9282L13.125 27.6754L13.0607 28.4227C13.2399 28.4381 13.4243 28.4792 13.6152 28.5497L13.875 27.8461ZM13.125 27.6754L13.1893 26.9282C12.7438 26.8899 12.3303 27.0214 11.9675 27.2562L12.375 27.8858L12.7825 28.5155C12.9197 28.4267 13.0062 28.418 13.0607 28.4227L13.125 27.6754ZM12.375 27.8858L11.9675 27.2562C11.9331 27.2785 11.9537 27.259 12.0158 27.2418C12.0701 27.2268 12.2967 27.1767 12.5332 27.3358C12.7694 27.4947 12.8084 27.7232 12.8149 27.7787C12.8224 27.8425 12.8122 27.8687 12.8199 27.8283L12.0829 27.6893L11.3459 27.5502C11.3259 27.6562 11.3071 27.8005 11.3252 27.9539C11.3422 28.0989 11.4109 28.3886 11.6958 28.5803C11.9809 28.7721 12.2753 28.7264 12.4164 28.6873C12.5654 28.646 12.6919 28.5741 12.7825 28.5155L12.375 27.8858ZM12.0829 27.6893L12.8199 27.8283C12.8903 27.4547 12.897 27.0827 12.8216 26.7217L12.0874 26.875L11.3532 27.0283C11.3823 27.1673 11.3859 27.3382 11.3459 27.5502L12.0829 27.6893ZM12.0874 26.875L12.8216 26.7217C12.7876 26.5591 12.7842 26.4028 12.8088 26.2483L12.0682 26.1299L11.3276 26.0116C11.2735 26.3505 11.2828 26.6909 11.3532 27.0283L12.0874 26.875ZM12.0682 26.1299L12.8088 26.2483C12.8485 25.9999 12.8867 25.7554 12.9235 25.5148L12.182 25.4016L11.4406 25.2885C11.4044 25.5255 11.3668 25.7666 11.3276 26.0116L12.0682 26.1299ZM12.182 25.4016L12.9235 25.5148C12.94 25.4065 12.9799 25.3152 13.049 25.229L12.4637 24.7601L11.8783 24.2912C11.6448 24.5827 11.497 24.9192 11.4406 25.2885L12.182 25.4016ZM12.4637 24.7601L13.049 25.229C13.186 25.058 13.3253 24.9002 13.4668 24.7551L12.9299 24.2315L12.393 23.7078C12.2155 23.8898 12.044 24.0844 11.8783 24.2912L12.4637 24.7601ZM12.9299 24.2315L13.4668 24.7551C13.7229 24.4926 13.8995 24.1673 14.0186 23.814L13.3079 23.5744L12.5973 23.3347C12.5312 23.5305 12.4558 23.6434 12.393 23.7078L12.9299 24.2315ZM13.3079 23.5744L14.0186 23.814C14.0533 23.7113 14.0862 23.6979 14.1077 23.6883L13.801 23.0038L13.4943 22.3194C13.0435 22.5214 12.7478 22.8883 12.5973 23.3347L13.3079 23.5744ZM13.801 23.0038L14.1077 23.6883C14.3628 23.5739 14.611 23.45 14.852 23.3164L14.4884 22.6605L14.1248 22.0045C13.9216 22.1171 13.7115 22.2221 13.4943 22.3194L13.801 23.0038ZM14.4884 22.6605L14.852 23.3164C15.1961 23.1257 15.4699 22.8529 15.6704 22.5155L15.0256 22.1323L14.3809 21.7492C14.3093 21.8697 14.2249 21.949 14.1248 22.0045L14.4884 22.6605ZM15.0256 22.1323L15.6704 22.5155C15.7908 22.3129 15.9199 22.1238 16.0576 21.9478L15.4667 21.4858L14.8759 21.0238C14.6976 21.2519 14.5326 21.4939 14.3809 21.7492L15.0256 22.1323ZM15.4667 21.4858L16.0576 21.9478C16.1559 21.8221 16.2743 21.7186 16.4178 21.6353L16.0411 20.9868L15.6643 20.3383C15.358 20.5162 15.0936 20.7455 14.8759 21.0238L15.4667 21.4858ZM16.0411 20.9868L16.4178 21.6353C16.6336 21.5099 16.8283 21.3281 16.9542 21.0778C17.0797 20.8287 17.1099 20.5656 17.0858 20.3207L16.3394 20.3941L15.593 20.4676C15.5949 20.4871 15.5884 20.455 15.6144 20.4034C15.6264 20.3797 15.6406 20.3614 15.6528 20.349C15.6644 20.3373 15.6703 20.3348 15.6643 20.3383L16.0411 20.9868ZM16.3394 20.3941L17.0858 20.3207C17.0761 20.2224 17.0947 20.1476 17.1452 20.0687L16.5134 19.6645L15.8817 19.2603C15.6481 19.6254 15.5507 20.0371 15.593 20.4676L16.3394 20.3941ZM16.5134 19.6645L17.1452 20.0687C17.4352 19.6155 17.4439 19.1087 17.269 18.6416L16.5666 18.9044L15.8642 19.1673C15.8871 19.2286 15.8851 19.2551 15.8851 19.2557C15.885 19.2563 15.8851 19.255 15.8857 19.2532C15.8863 19.2517 15.8858 19.2539 15.8817 19.2603L16.5134 19.6645ZM16.5666 18.9044L17.269 18.6416C17.2441 18.5748 17.2429 18.5391 17.2434 18.5275C17.2437 18.5192 17.2446 18.5139 17.2508 18.5027L16.5954 18.1382L15.94 17.7736C15.6882 18.2262 15.6955 18.7166 15.8642 19.1673L16.5666 18.9044ZM16.5954 18.1382L17.2508 18.5027C17.3244 18.3705 17.4411 18.2269 17.6204 18.0765L17.1386 17.5018L16.6568 16.927C16.3634 17.173 16.1179 17.4537 15.94 17.7736L16.5954 18.1382ZM17.1386 17.5018L17.6204 18.0765C17.8162 17.9125 17.9868 17.7014 18.0848 17.4361C18.1844 17.1664 18.1907 16.8895 18.1313 16.628L17.4 16.7942L16.6686 16.9604C16.6705 16.9689 16.669 16.9665 16.6695 16.9556C16.6701 16.9441 16.6726 16.9301 16.6777 16.9164C16.6826 16.9031 16.6874 16.8968 16.6866 16.8979C16.6854 16.8995 16.6774 16.9098 16.6568 16.927L17.1386 17.5018ZM17.4 16.7942L18.1313 16.628C18.1026 16.5015 18.1185 16.424 18.1483 16.3616L17.4714 16.0387L16.7944 15.7159C16.6047 16.1137 16.573 16.5399 16.6686 16.9604L17.4 16.7942ZM17.4714 16.0387L18.1483 16.3616C18.349 15.9409 18.3587 15.4926 18.2316 15.0629L17.5124 15.2755L16.7932 15.4882C16.8309 15.6158 16.8133 15.6763 16.7944 15.7159L17.4714 16.0387ZM17.5124 15.2755L18.2316 15.0629C18.2243 15.038 18.2219 15.0213 18.2211 15.0119C18.2207 15.0072 18.2207 15.004 18.2208 15.0023C18.2209 15.0005 18.221 14.9997 18.221 14.9997C18.221 14.9997 18.221 14.9999 18.2209 15.0002C18.2208 15.0004 18.2208 15.0002 18.2212 14.9994C18.2218 14.998 18.2246 14.9919 18.2328 14.9809L17.6318 14.5322L17.0309 14.0834C16.7158 14.5054 16.6495 15.0021 16.7932 15.4882L17.5124 15.2755ZM17.6318 14.5322L18.2328 14.9809C18.3853 14.7766 18.5467 14.574 18.717 14.373L18.1448 13.8881L17.5726 13.4033C17.383 13.6271 17.2024 13.8538 17.0309 14.0834L17.6318 14.5322ZM18.1448 13.8881L18.717 14.373C18.9257 14.1268 19.056 13.7907 18.982 13.4107C18.9164 13.0743 18.7114 12.8199 18.5212 12.6419L18.0087 13.1895L17.4962 13.737C17.5313 13.7698 17.5419 13.7862 17.5407 13.7844C17.5391 13.7819 17.5203 13.7523 17.5096 13.6976C17.4981 13.6385 17.5004 13.5716 17.5197 13.508C17.5378 13.4479 17.5641 13.4134 17.5726 13.4033L18.1448 13.8881ZM18.0087 13.1895L18.5212 12.6419C18.3312 12.464 18.3488 12.3917 18.3491 12.421L17.5991 12.4279L16.8492 12.4347C16.8541 12.9727 17.1448 13.4081 17.4962 13.737L18.0087 13.1895ZM17.5991 12.4279L18.3491 12.421C18.3469 12.1801 18.3511 11.9377 18.3619 11.6938L17.6126 11.6608L16.8633 11.6279C16.8514 11.898 16.8467 12.167 16.8492 12.4347L17.5991 12.4279ZM17.6126 11.6608L18.3619 11.6938C18.3758 11.3774 18.3521 11.0652 18.2899 10.7585L17.5549 10.9078L16.8199 11.0571C16.8571 11.2405 16.872 11.4302 16.8633 11.6279L17.6126 11.6608ZM17.5549 10.9078L18.2899 10.7585C18.2436 10.5306 18.2052 10.3011 18.1748 10.07L17.4312 10.1678L16.6876 10.2656C16.7225 10.5312 16.7666 10.795 16.8199 11.0571L17.5549 10.9078ZM17.4312 10.1678L18.1748 10.07C18.1413 9.81505 18.1044 9.56077 18.0642 9.30714L17.3234 9.4246L16.5827 9.54206C16.6208 9.7826 16.6558 10.0238 16.6876 10.2656L17.4312 10.1678ZM17.3234 9.4246L18.0642 9.30714C18.0321 9.10455 18.0178 8.8972 18.0218 8.68453L17.2719 8.67036L16.522 8.65619C16.5164 8.95501 16.5365 9.25049 16.5827 9.54206L17.3234 9.4246ZM17.2719 8.67036L18.0218 8.68453C18.0279 8.35815 17.9884 8.03744 17.9022 7.72482L17.1792 7.92423L16.4562 8.12364C16.5033 8.29438 16.5255 8.47109 16.522 8.65619L17.2719 8.67036ZM17.1792 7.92423L17.9022 7.72482C17.7967 7.34245 17.5875 7.0082 17.3112 6.72065L16.7703 7.24029L16.2295 7.75992C16.365 7.90094 16.4283 8.02266 16.4562 8.12364L17.1792 7.92423ZM16.7703 7.24029L17.3112 6.72065C17.2963 6.70518 17.2919 6.69735 17.2924 6.6982C17.2927 6.69863 17.2939 6.70087 17.2955 6.70486C17.2972 6.70889 17.2989 6.71402 17.3004 6.72004C17.3018 6.72607 17.3028 6.73209 17.3033 6.73779C17.3038 6.74346 17.3038 6.74795 17.3036 6.75093C17.3033 6.75709 17.3025 6.75427 17.3069 6.74086L16.593 6.5108L15.8792 6.28073C15.799 6.52938 15.7761 6.79998 15.8428 7.07436C15.9091 7.34697 16.0521 7.57524 16.2295 7.75992L16.7703 7.24029ZM16.593 6.5108L17.3069 6.74086C17.3936 6.47179 17.4071 6.17625 17.3062 5.8835C17.2082 5.59891 17.0236 5.37912 16.8198 5.21327L16.3464 5.79494L15.8729 6.37661C15.9213 6.41596 15.9039 6.41808 15.888 6.3721C15.8803 6.34964 15.8767 6.32598 15.877 6.30501C15.8772 6.28504 15.8807 6.27605 15.8792 6.28073L16.593 6.5108ZM16.3464 5.79494L16.8198 5.21327C16.7471 5.15409 16.7196 5.11424 16.7114 5.09996C16.7059 5.09031 16.711 5.09681 16.7113 5.1106L15.9614 5.12467L15.2116 5.13874C15.2215 5.67057 15.5122 6.08296 15.8729 6.37661L16.3464 5.79494ZM15.9614 5.12467L16.7113 5.1106C16.7073 4.89832 16.7156 4.66368 16.7373 4.40576L15.9899 4.34286L15.2426 4.27997C15.2172 4.58116 15.2065 4.86772 15.2116 5.13874L15.9614 5.12467ZM15.9899 4.34286L16.7373 4.40576C16.7426 4.34302 16.7472 4.52654 16.5461 4.67019C16.3271 4.82664 16.1311 4.75052 16.161 4.76057L16.4002 4.04975L16.6395 3.33894C16.4193 3.26484 16.0299 3.19549 15.6742 3.44965C15.3363 3.691 15.2608 4.06315 15.2426 4.27997L15.9899 4.34286ZM16.4002 4.04975L16.161 4.76057C16.5458 4.89009 16.9442 4.90696 17.3383 4.8049L17.1502 4.07885L16.9622 3.35281C16.8562 3.38025 16.7547 3.37771 16.6395 3.33894L16.4002 4.04975ZM17.1502 4.07885L17.3383 4.8049C17.5603 4.74739 17.7813 4.70378 18.0014 4.67382L17.9002 3.93068L17.799 3.18753C17.5191 3.22565 17.2401 3.28083 16.9622 3.35281L17.1502 4.07885ZM17.9002 3.93068L18.0014 4.67382C18.2731 4.63683 18.5443 4.58782 18.8149 4.52688L18.6502 3.7952L18.4855 3.06351C18.2562 3.11514 18.0274 3.15645 17.799 3.18753L17.9002 3.93068ZM18.6502 3.7952L18.8149 4.52688C18.9994 4.48536 19.1805 4.47017 19.3601 4.47979L19.4002 3.73087L19.4403 2.98194C19.12 2.96477 18.8011 2.99246 18.4855 3.06351L18.6502 3.7952ZM19.4002 3.73087L19.3601 4.47979C19.6815 4.49702 20.0014 4.46858 20.3177 4.3961L20.1502 3.66504L19.9827 2.93399C19.7991 2.97606 19.6189 2.99151 19.4403 2.98194L19.4002 3.73087ZM20.1502 3.66504L20.3177 4.3961C20.3138 4.39699 20.3064 4.398 20.2975 4.39752C20.2887 4.39704 20.2844 4.39546 20.286 4.39601C20.2908 4.39761 20.3288 4.41204 20.3978 4.4743L20.9002 3.91741L21.4026 3.36053C21.0337 3.02777 20.5429 2.80563 19.9827 2.93399L20.1502 3.66504ZM20.9002 3.91741L20.3978 4.4743C20.73 4.77398 21.1325 4.99784 21.6002 5.0291L21.6502 4.28076L21.7002 3.53243C21.6679 3.53027 21.5704 3.5119 21.4026 3.36053L20.9002 3.91741ZM21.6502 4.28076L21.6002 5.0291C21.9181 5.05034 22.235 5.02854 22.5493 4.96478L22.4002 4.22976L22.2511 3.49473C22.0654 3.5324 21.8824 3.54461 21.7002 3.53243L21.6502 4.28076ZM22.4002 4.22976L22.5493 4.96478C22.8422 4.90537 23.1323 4.8199 23.4194 4.70952L23.1502 4.00949L22.881 3.30946C22.6681 3.39134 22.4582 3.45272 22.2511 3.49473L22.4002 4.22976ZM23.1502 4.00949L23.4194 4.70952C23.615 4.63431 23.8044 4.58737 23.9888 4.56544L23.9002 3.82069L23.8116 3.07594C23.496 3.11348 23.1855 3.1924 22.881 3.30946L23.1502 4.00949ZM23.9002 3.82069L23.9888 4.56544C24.1491 4.54637 24.3102 4.55553 24.476 4.59513L24.6502 3.86564L24.8244 3.13615C24.4902 3.05635 24.1513 3.03554 23.8116 3.07594L23.9002 3.82069ZM24.6502 3.86564L24.476 4.59513C24.7808 4.6679 25.0884 4.70538 25.3979 4.70632L25.4002 3.95632L25.4025 3.20633C25.212 3.20575 25.0197 3.18278 24.8244 3.13615L24.6502 3.86564ZM25.4002 3.95632L25.3979 4.70632C25.7259 4.70731 26.0501 4.6578 26.3683 4.56112L26.1502 3.84352L25.9322 3.12591C25.7504 3.18116 25.5745 3.20685 25.4025 3.20633L25.4002 3.95632ZM26.1502 3.84352L26.3683 4.56112C26.5867 4.49476 26.8034 4.4446 27.0187 4.41016L26.9002 3.66958L26.7817 2.929C26.497 2.97455 26.2138 3.04035 25.9322 3.12591L26.1502 3.84352ZM26.9002 3.66958L27.0187 4.41016C27.028 4.40867 27.0798 4.39628 27.2068 4.48936L27.6502 3.88446L28.0936 3.27956C27.7206 3.00615 27.2724 2.8505 26.7817 2.929L26.9002 3.66958ZM27.6502 3.88446L27.2068 4.48936C27.4242 4.64867 27.6915 4.76738 27.9998 4.77782C28.3105 4.78835 28.587 4.68638 28.8156 4.53431L28.4002 3.90987L27.9848 3.28542C27.9726 3.29354 27.9734 3.29091 27.9869 3.28663C28.0017 3.28197 28.024 3.27778 28.0506 3.27868C28.077 3.27958 28.0965 3.2851 28.1062 3.28884C28.1149 3.29217 28.1106 3.292 28.0936 3.27956L27.6502 3.88446ZM28.4002 3.90987L28.8156 4.53431C28.8299 4.52481 28.8323 4.52562 28.8228 4.52875C28.8124 4.53219 28.7943 4.53618 28.7715 4.53606C28.7486 4.53595 28.7309 4.5318 28.7212 4.52848C28.7124 4.52549 28.7155 4.52507 28.7305 4.53518L29.1502 3.91363L29.57 3.29209C29.3478 3.14205 29.0806 3.0376 28.779 3.03608C28.4771 3.03457 28.2086 3.13654 27.9848 3.28542L28.4002 3.90987ZM29.1502 3.91363L28.7305 4.53518C28.9595 4.68987 29.2386 4.79445 29.553 4.78278C29.8648 4.7712 30.1335 4.64826 30.35 4.48591L29.9002 3.88579L29.4504 3.28566C29.4331 3.29858 29.4289 3.29863 29.4382 3.29499C29.4486 3.29089 29.4693 3.28485 29.4974 3.28381C29.5257 3.28276 29.5497 3.28724 29.5657 3.29235C29.5805 3.29707 29.5819 3.30018 29.57 3.29209L29.1502 3.91363ZM29.9002 3.88579L30.35 4.48591C30.5084 4.36722 30.6147 4.34275 30.6777 4.34044L30.6502 3.59094L30.6227 2.84145C30.1858 2.85748 29.792 3.02957 29.4504 3.28566L29.9002 3.88579ZM30.6502 3.59094L30.6777 4.34044C30.6626 4.341 30.6633 4.33557 30.6892 4.34855C30.7196 4.36379 30.7777 4.40156 30.8599 4.48689L31.4002 3.96675L31.9406 3.44662C31.6092 3.10243 31.1662 2.82151 30.6227 2.84145L30.6502 3.59094ZM31.4002 3.96675L30.8599 4.48689C31.1094 4.74606 31.2612 4.90356 31.3135 4.95752L31.8518 4.43527L32.3901 3.91301C32.3403 3.86171 32.1911 3.70687 31.9406 3.44662L31.4002 3.96675ZM31.8518 4.43527L31.3135 4.95752C31.2026 4.84315 31.1638 4.72331 31.15 4.66526C31.1359 4.60566 31.1372 4.5662 31.1373 4.56265C31.1375 4.55708 31.1359 4.59309 31.1117 4.69021L31.8395 4.87133L32.5673 5.05244C32.6024 4.91149 32.6325 4.75578 32.6367 4.60486C32.6396 4.50384 32.6435 4.17418 32.3901 3.91301L31.8518 4.43527ZM31.8395 4.87133L31.1117 4.69021C31.0784 4.8242 31.0131 4.96799 30.901 5.12264L31.5081 5.56292L32.1153 6.00321C32.3265 5.71189 32.4822 5.39462 32.5673 5.05244L31.8395 4.87133ZM31.5081 5.56292L30.901 5.12264C30.7341 5.35278 30.6361 5.62645 30.6383 5.92701C30.6404 6.2172 30.7353 6.47943 30.8637 6.7026L31.5137 6.3284L32.1637 5.95419C32.1268 5.89003 32.138 5.88102 32.1382 5.91605C32.1384 5.93389 32.1354 5.95437 32.1288 5.97397C32.1258 5.98312 32.1225 5.99038 32.1198 5.99559C32.1171 6.00073 32.1153 6.00325 32.1153 6.00321L31.5081 5.56292ZM31.5137 6.3284L30.8637 6.7026C30.9739 6.89401 30.9761 6.99764 30.9709 7.03895L31.715 7.13237L32.4592 7.22579C32.5164 6.7698 32.3843 6.33745 32.1637 5.95419L31.5137 6.3284ZM31.715 7.13237L30.9709 7.03895C30.9731 7.02136 30.9798 7.01881 30.9661 7.03725C30.9489 7.06027 30.905 7.10776 30.8083 7.17083L31.2181 7.79899L31.6278 8.42715C32.0305 8.16448 32.3903 7.77461 32.4592 7.22579L31.715 7.13237ZM31.2181 7.79899L30.8083 7.17083C30.3926 7.44203 30.022 7.86418 30.0111 8.45971L30.761 8.47344L31.5108 8.48717C31.5106 8.49788 31.5087 8.51042 31.5048 8.52224C31.501 8.53367 31.4976 8.53813 31.4996 8.53519C31.5051 8.52702 31.5359 8.48709 31.6278 8.42715L31.2181 7.79899ZM30.761 8.47344L30.0111 8.45971C30.0077 8.64744 29.9799 8.82832 29.9283 9.00423L30.6479 9.21557L31.3675 9.42691C31.4573 9.12107 31.505 8.8072 31.5108 8.48717L30.761 8.47344ZM30.6479 9.21557L29.9283 9.00423C29.8155 9.3881 29.8199 9.7812 29.9192 10.1666L30.6455 9.97947L31.3718 9.79238C31.3328 9.64096 31.3387 9.52479 31.3675 9.42691L30.6479 9.21557ZM30.6455 9.97947L29.9192 10.1666C29.9524 10.2954 29.9411 10.3837 29.9112 10.4587L30.6079 10.7364L31.3045 11.0142C31.463 10.6167 31.4769 10.2004 31.3718 9.79238L30.6455 9.97947ZM30.6079 10.7364L29.9112 10.4587C29.7641 10.8276 29.727 11.2156 29.7907 11.6063L30.5309 11.4857L31.2712 11.365C31.249 11.2293 31.2632 11.1178 31.3045 11.0142L30.6079 10.7364ZM30.5309 11.4857L29.7907 11.6063C29.8031 11.6825 29.7925 11.738 29.7461 11.809L30.374 12.2192L31.0019 12.6294C31.2505 12.2488 31.3445 11.8153 31.2712 11.365L30.5309 11.4857ZM30.374 12.2192L29.7461 11.809C29.5147 12.1634 29.4025 12.5625 29.417 12.9858L30.1665 12.9602L30.9161 12.9347C30.9122 12.8215 30.9385 12.7265 31.0019 12.6294L30.374 12.2192ZM30.1665 12.9602L29.417 12.9858C29.4231 13.1649 29.3972 13.3149 29.3488 13.4442L30.0511 13.7073L30.7534 13.9705C30.8772 13.6402 30.9283 13.2921 30.9161 12.9347L30.1665 12.9602ZM30.0511 13.7073L29.3488 13.4442C29.2219 13.7828 29.1766 14.1369 29.209 14.4975L29.956 14.4302L30.703 14.363C30.69 14.2193 30.7081 14.0915 30.7534 13.9705L30.0511 13.7073ZM29.956 14.4302L29.209 14.4975C29.2481 14.9319 29.4345 15.3122 29.7214 15.6276L30.2762 15.1229L30.831 14.6183C30.7364 14.5143 30.7093 14.4328 30.703 14.363L29.956 14.4302ZM30.2762 15.1229L29.7214 15.6276C29.7542 15.6637 29.7613 15.6841 29.7628 15.6888C29.764 15.6923 29.7678 15.7042 29.7636 15.7347L30.5064 15.8384L31.2492 15.942C31.319 15.4416 31.1629 14.9832 30.831 14.6183L30.2762 15.1229ZM30.5064 15.8384L29.7636 15.7347C29.6838 16.3062 29.9317 16.7841 30.3395 17.1161L30.813 16.5345L31.2866 15.9529C31.237 15.9125 31.2349 15.8958 31.2414 15.9105C31.2445 15.9174 31.2471 15.9264 31.2483 15.9355C31.2494 15.9442 31.2485 15.9471 31.2492 15.942L30.5064 15.8384ZM30.813 16.5345L30.3395 17.1161C30.3545 17.1283 30.3533 17.1303 30.3455 17.1191C30.3369 17.1068 30.3248 17.0848 30.3169 17.0545C30.3089 17.0242 30.3083 16.9982 30.3099 16.9817C30.3114 16.9665 30.3139 16.9659 30.3075 16.982L31.0042 17.2597L31.7008 17.5375C31.8033 17.2805 31.8489 16.9818 31.7674 16.6723C31.686 16.3635 31.4998 16.1265 31.2866 15.9529L30.813 16.5345ZM31.0042 17.2597L30.3075 16.982C30.2124 17.2205 30.1624 17.4893 30.2043 17.7715C30.247 18.0583 30.3768 18.305 30.5563 18.5055L31.1151 18.0053L31.6739 17.5051C31.6679 17.4983 31.6705 17.4997 31.6755 17.5099C31.6809 17.5207 31.6857 17.5351 31.688 17.5508C31.6903 17.5661 31.6891 17.5751 31.6891 17.5749C31.6892 17.5739 31.6911 17.5619 31.7008 17.5375L31.0042 17.2597ZM31.1151 18.0053L30.5563 18.5055C30.5643 18.5144 30.5639 18.5161 30.5607 18.5097C30.5591 18.5066 30.5572 18.5023 30.5554 18.4969C30.5535 18.4914 30.552 18.4857 30.551 18.4799C30.55 18.4742 30.5496 18.4694 30.5495 18.4658C30.5494 18.4622 30.5496 18.4605 30.5495 18.461C30.5494 18.4621 30.5481 18.4731 30.5402 18.4954L31.2473 18.7454L31.9544 18.9954C32.0392 18.7557 32.0767 18.4905 32.0277 18.2162C31.9781 17.939 31.8489 17.7005 31.6739 17.5051L31.1151 18.0053ZM31.2473 18.7454L30.5402 18.4954C30.4421 18.773 30.4191 19.092 30.5436 19.4083C30.6635 19.7131 30.8862 19.9281 31.1141 20.077L31.5242 19.449L31.9344 18.8211C31.8776 18.784 31.9117 18.7887 31.9394 18.859C31.9531 18.8939 31.9587 18.9296 31.9582 18.9599C31.9578 18.9885 31.9523 19.0015 31.9544 18.9954L31.2473 18.7454ZM31.5242 19.449L31.1141 20.077C31.3038 20.2008 31.335 20.2849 31.3403 20.3025L32.0588 20.0876L32.7774 19.8728C32.6393 19.4108 32.3141 19.0692 31.9344 18.8211L31.5242 19.449ZM32.0588 20.0876L31.3403 20.3025C31.3946 20.4842 31.4273 20.6725 31.4377 20.8687L32.1866 20.8289L32.9356 20.7891C32.919 20.4764 32.8664 20.1705 32.7774 19.8728L32.0588 20.0876ZM32.1866 20.8289L31.4377 20.8687C31.4539 21.1746 31.5013 21.4738 31.5806 21.7652L32.3043 21.5682L33.0279 21.3712C32.9774 21.1857 32.9464 20.992 32.9356 20.7891L32.1866 20.8289ZM32.3043 21.5682L31.5806 21.7652C31.6999 22.2035 31.9754 22.5468 32.367 22.7663L32.7336 22.112L33.1003 21.4578C33.0493 21.4291 33.0385 21.4099 33.0279 21.3712L32.3043 21.5682ZM32.7336 22.112L32.367 22.7663C32.4974 22.8394 32.6081 22.9352 32.7026 23.0594L33.2993 22.6051L33.8961 22.1509C33.679 21.8656 33.4125 21.6327 33.1003 21.4578L32.7336 22.112ZM33.2993 22.6051L32.7026 23.0594C32.8843 23.2982 33.084 23.5181 33.3016 23.7184L33.8095 23.1666L34.3174 22.6148C34.1664 22.4758 34.026 22.3214 33.8961 22.1509L33.2993 22.6051ZM33.8095 23.1666L33.3016 23.7184C33.6214 24.0128 34.0157 24.168 34.4364 24.2186L34.5261 23.474L34.6157 22.7294C34.4496 22.7094 34.3662 22.6597 34.3174 22.6148L33.8095 23.1666ZM34.5261 23.474L34.4364 24.2186C34.6473 24.244 34.8423 24.3021 35.0256 24.3923L35.357 23.7195L35.6884 23.0467C35.3506 22.8803 34.9917 22.7747 34.6157 22.7294L34.5261 23.474ZM35.357 23.7195L35.0256 24.3923C35.0257 24.3924 35.0087 24.3839 34.986 24.3609C34.9622 24.3366 34.9418 24.3058 34.9284 24.2728C34.9024 24.2088 34.9232 24.1901 34.9072 24.2666L35.6412 24.4204L36.3753 24.5743C36.4303 24.3118 36.4392 24.0069 36.3185 23.7091C36.1915 23.3961 35.957 23.179 35.6884 23.0467L35.357 23.7195ZM35.6412 24.4204L34.9072 24.2666C34.7999 24.7787 34.8737 25.3221 35.2771 25.7466L35.8208 25.2299L36.3644 24.7133C36.3616 24.7103 36.3625 24.7106 36.3642 24.7139C36.366 24.7172 36.3658 24.7183 36.365 24.7146C36.3633 24.7066 36.3563 24.665 36.3753 24.5743L35.6412 24.4204ZM35.8208 25.2299L35.2771 25.7466C35.3114 25.7826 35.3199 25.8038 35.3218 25.809C35.3232 25.8128 35.3265 25.8219 35.3243 25.846L36.071 25.9156L36.8178 25.9852C36.8634 25.4956 36.6917 25.0576 36.3644 24.7133L35.8208 25.2299ZM36.071 25.9156L35.3243 25.846C35.2962 26.1468 35.2953 26.4459 35.322 26.7427L36.069 26.6753L36.816 26.6079C36.7976 26.4046 36.798 26.1973 36.8178 25.9852L36.071 25.9156ZM36.069 26.6753L35.322 26.7427C35.3502 27.0549 35.4171 27.3633 35.5203 27.6667L36.2303 27.4253L36.9404 27.1838C36.8736 26.9873 36.8329 26.7956 36.816 26.6079L36.069 26.6753ZM36.2303 27.4253L35.5203 27.6667C35.5479 27.7479 35.5271 27.7292 35.5356 27.6508C35.5407 27.6038 35.5574 27.5274 35.608 27.444C35.661 27.3567 35.7345 27.2893 35.8134 27.2452L36.1789 27.9001L36.5444 28.5551C36.8537 28.3825 36.9971 28.0872 37.0269 27.8122C37.0525 27.5756 36.9978 27.3527 36.9404 27.1838L36.2303 27.4253ZM36.1789 27.9001L35.8134 27.2452C35.85 27.2248 35.8803 27.2152 35.8982 27.2108C35.9157 27.2065 35.9234 27.2067 35.9179 27.2069C35.9125 27.2071 35.898 27.2073 35.8726 27.2048C35.8474 27.2024 35.8144 27.1977 35.7729 27.1893L35.625 27.9246L35.4771 28.6599C35.7689 28.7185 36.1813 28.7577 36.5444 28.5551L36.1789 27.9001Z" fill="#030302"/>
</svg>
