<svg width="48" height="48" viewBox="0 0 48 48" fill="none" xmlns="http://www.w3.org/2000/svg">
<path d="M33.7183 5.92066L33.5656 5.18638L33.7183 5.92066ZM35.9975 6.082L35.9859 6.83191L35.9975 6.082ZM36.6991 6.37108L37.2071 5.81926L36.6991 6.37108ZM37.3464 6.80891L37.6574 6.12642L37.3464 6.80891ZM39.2069 8.00909L39.9265 7.79791L39.2069 8.00909ZM39.8547 8.4406L39.8507 7.69061L39.8547 8.4406ZM40.5429 8.8036L39.8611 9.11621L40.5429 8.8036ZM41.0565 9.39275L41.4633 8.7627L41.0565 9.39275ZM41.3781 10.0812L42.1271 10.1202L41.3781 10.0812ZM42.5257 12.0876L41.9474 12.5651L42.5257 12.0876ZM42.7113 13.625L43.1021 12.9849L42.7113 13.625ZM43.048 15.0904L43.7348 14.7889V14.7889L43.048 15.0904ZM42.9136 15.8439L42.3146 15.3926L42.9136 15.8439ZM43.0271 16.6109L43.5364 16.0604L43.0271 16.6109ZM43.2909 17.365L43.9919 17.6316L43.2909 17.365ZM43.0463 18.1118L42.3229 17.9139L43.0463 18.1118ZM42.2225 20.2373L42.9591 20.0964L42.2225 20.2373ZM42.1888 21.0107L41.4735 20.7852L42.1888 21.0107ZM41.7045 21.6186L41.2863 20.996L41.7045 21.6186ZM41.3656 23.1129L40.8085 22.6108L41.3656 23.1129ZM40.5045 24.3622L39.7561 24.3121L40.5045 24.3622ZM36.6281 29.8626L35.9264 29.5976L36.6281 29.8626ZM33.3889 34.012L34.0991 34.2532L33.3889 34.012ZM32.811 34.4958L32.9592 35.231L32.811 34.4958ZM32.1446 34.8929L32.7524 35.3323L32.1446 34.8929ZM31.6549 35.4645L31.1279 34.9309L31.6549 35.4645ZM31.1888 36.0653L30.5429 35.6839L31.1888 36.0653ZM30.0708 37.0679L30.504 37.6801L30.0708 37.0679ZM28.9311 38.0487L29.5253 38.5063L28.9311 38.0487ZM28.4566 38.6502L29.0401 39.1215L28.4566 38.6502ZM26.528 39.8479L26.4752 39.0998L26.528 39.8479ZM25.813 40.1497L26.3485 40.6747L25.813 40.1497ZM25.3825 40.8264L24.688 40.5433L25.3825 40.8264ZM24.9134 41.457L24.468 40.8536L24.9134 41.457ZM23.6111 41.3721L24.1459 40.8462L23.6111 41.3721ZM21.2847 39.4903L20.7732 40.0388L21.2847 39.4903ZM20.7816 38.9245L20.178 39.3696L20.7816 38.9245ZM20.1009 38.5736L20.0326 39.3204L20.1009 38.5736ZM19.2776 38.3863L19.0031 39.0843L19.2776 38.3863ZM18.6892 37.9167L19.3117 37.4985L18.6892 37.9167ZM18.209 37.324L18.7455 36.7999L18.209 37.324ZM17.6465 36.8261L17.1912 37.422L17.6465 36.8261ZM16.1536 35.1271L16.3721 34.4096L16.1536 35.1271ZM15.5151 34.7076L16.103 34.2419L15.5151 34.7076ZM15.0068 34.154L14.493 34.7004L15.0068 34.154ZM14.4957 33.6048L15.0775 33.1315L14.4957 33.6048ZM12.9643 31.9577L13.7103 32.0359L12.9643 31.9577ZM12.1238 30.6984L11.8222 31.3851L12.1238 30.6984ZM11.388 30.3347L11.7514 29.6786L11.388 30.3347ZM10.7999 29.843L11.3879 29.3775L10.7999 29.843ZM9.85343 27.7312L10.2775 27.1126L9.85343 27.7312ZM8.468 25.9629L9.15051 25.6519L8.468 25.9629ZM7.90966 25.4237L7.58181 26.0982L7.90966 25.4237ZM7.65203 24.7113L8.37454 24.9125L7.65203 24.7113ZM7.36841 24.0011L7.05968 24.6846L7.36841 24.0011ZM6.86067 23.4271L7.5946 23.2727V23.2727L6.86067 23.4271ZM6.1599 22.0876L5.73175 22.7034L6.1599 22.0876ZM5.76321 19.8555L6.50215 19.9839L5.76321 19.8555ZM5.45394 19.1594L5.91092 18.5647L5.45394 19.1594ZM5.03409 18.4901L5.77985 18.4104V18.4104L5.03409 18.4901ZM5.11253 15.4791L5.82731 15.252L5.11253 15.4791ZM5.42697 13.2745L5.02206 12.6432L5.42697 13.2745ZM5.65591 11.7481L6.26458 12.1863L5.65591 11.7481ZM6.04128 11.0791L5.35572 10.7749L6.04128 11.0791ZM7.94239 8.74047L7.27053 8.40714L7.94239 8.74047ZM8.54355 8.3235L8.66083 9.06428L8.54355 8.3235ZM9.05797 7.74148L8.31836 7.61706L9.05797 7.74148ZM12.3895 6.08767L12.254 6.82532L12.3895 6.08767ZM13.1838 6.3067L12.9228 7.00983L13.1838 6.3067ZM15.3973 6.1556L15.3778 6.90535L15.3973 6.1556ZM16.8602 6.39984L16.4566 7.03197L16.8602 6.39984ZM18.1704 7.12065L17.6897 7.69637L18.1704 7.12065ZM19.5426 7.64488L20.1991 7.28225L19.5426 7.64488ZM20.0766 8.18508L20.4158 7.51617L20.0766 8.18508ZM20.6648 8.60761L20.1388 9.1423L20.6648 8.60761ZM21.3003 9.0015L21.5584 8.29733L21.3003 9.0015ZM22.074 9.28589L21.8147 9.98964L22.074 9.28589ZM23.9292 11.6978L23.2485 12.0126L23.9292 11.6978ZM24.2636 11.7296L24.9481 12.0363L24.2636 11.7296ZM25.3501 9.71031L24.642 9.4632L25.3501 9.71031ZM25.8155 9.10151L26.2327 9.72477L25.8155 9.10151ZM26.5554 8.76853L26.3576 8.04509L26.5554 8.76853ZM27.8451 7.97837L28.2206 8.62756L27.8451 7.97837ZM28.3526 7.35908L27.6632 7.06378L28.3526 7.35908ZM29.0051 7.01183L29.1404 6.27414L29.0051 7.01183ZM30.3335 6.18081L30.6458 6.86273L30.3335 6.18081ZM32.6899 6.43302L32.8163 7.17229L32.6899 6.43302ZM33.1921 6.18596L32.6005 5.72497L33.1921 6.18596ZM31.4445 5.03731L30.9367 4.48537L31.4445 5.03731ZM30.8158 5.62706L31.3346 6.16873L30.8158 5.62706ZM29.4298 6.1455L29.414 5.39567L29.4298 6.1455ZM28.0119 6.59901L28.5903 7.07644L28.0119 6.59901ZM27.3463 6.96641L27.4538 7.70867L27.3463 6.96641ZM26.2301 7.96841L26.1625 7.22146L26.2301 7.96841ZM22.8882 8.79255L22.7275 9.52512L22.8882 8.79255ZM22.1278 8.48353L22.5499 7.8636L22.1278 8.48353ZM21.1897 7.29411L20.9016 7.98656L21.1897 7.29411ZM20.4423 7.06519L20.5929 6.33046L20.4423 7.06519ZM17.2141 5.06668L17.5165 4.38034L17.2141 5.06668ZM14.9068 4.90422L15.3418 4.29332L14.9068 4.90422ZM13.3966 4.87404L13.3754 4.12434L13.3966 4.87404ZM11.9904 5.53129L11.9023 4.78649L11.9904 5.53129ZM7.8167 7.12473L7.14103 6.79922L7.8167 7.12473ZM7.41727 7.81731L6.80052 7.39055L7.41727 7.81731ZM7.00387 8.44773L7.64128 8.84296L7.00387 8.44773ZM6.53594 9.02195L6.0202 8.47742L6.53594 9.02195ZM6.13933 9.63548L6.84681 9.88441L6.13933 9.63548ZM5.86808 10.3274L5.18029 10.0283L5.86808 10.3274ZM4.31624 12.9076L4.93182 13.3361L4.31624 12.9076ZM3.97714 13.6085L3.25752 13.3972L3.97714 13.6085ZM3.94242 16.6539L3.19947 16.5513L3.94242 16.6539ZM3.98204 18.936L3.23874 19.036L3.98204 18.936ZM5.69774 23.1288L4.9598 22.9948L5.69774 23.1288ZM5.90623 23.8569L5.3895 24.4005L5.90623 23.8569ZM6.26507 24.523L7.00382 24.3936L6.26507 24.523ZM7.68379 27.1826L7.31303 27.8345L7.68379 27.1826ZM8.75493 28.272L9.05605 27.5851L8.75493 28.272ZM9.25198 28.8403L9.97966 28.6587L9.25198 28.8403ZM9.43458 29.6452L8.69989 29.7959V29.7959L9.43458 29.6452ZM10.6238 30.6191L9.9655 30.9785L10.6238 30.6191ZM10.9785 31.3L11.6502 30.9662L10.9785 31.3ZM11.8775 32.5103L12.4692 32.0495L11.8775 32.5103ZM13.27 34.3008L12.7667 34.8568L13.27 34.3008ZM14.5378 35.1702L13.8166 35.3757L14.5378 35.1702ZM16.7267 37.2254L17.3849 36.8659L16.7267 37.2254ZM17.2604 37.7528L17.6088 37.0886L17.2604 37.7528ZM17.9192 38.1437L17.5021 38.7671L17.9192 38.1437ZM18.5703 38.5344L18.9244 37.8733L18.5703 38.5344ZM19.7951 39.4035L19.4574 40.0732L19.7951 39.4035ZM20.2144 40.0743L20.9556 39.9598L20.2144 40.0743ZM20.5706 40.8259L20.0666 41.3813L20.5706 40.8259ZM21.1953 41.2501L20.8627 41.9224L21.1953 41.2501ZM22.6423 41.8266L23.0099 41.1728L22.6423 41.8266ZM23.7591 42.7545L24.1393 42.108L23.7591 42.7545ZM26.1399 41.356L26.8482 41.6025L26.1399 41.356ZM27.3099 40.4163L28.0355 40.6062L27.3099 40.4163ZM29.2506 39.2309L28.5876 38.8804L29.2506 39.2309ZM29.7039 38.6039L30.2389 39.1296L29.7039 38.6039ZM31.9246 36.5822L31.8944 37.3316L31.9246 36.5822ZM32.6864 36.2935L32.0791 35.8534L32.6864 36.2935ZM33.6322 35.1094L32.9239 34.8628L33.6322 35.1094ZM35.5876 32.8228L36.2831 33.1034L35.5876 32.8228ZM36.1197 32.289L35.8254 31.5992L36.1197 32.289ZM36.7931 31.8784L36.3072 31.3071L36.7931 31.8784ZM37.1712 31.214L36.437 31.0604L37.1712 31.214ZM37.6137 30.601L37.2516 29.9442L37.6137 30.601ZM37.9815 29.938L37.2318 29.918L37.9815 29.938ZM38.9456 28.7851L39.6868 28.8999V28.8999L38.9456 28.7851ZM39.7794 27.5388L39.0371 27.646L39.7794 27.5388ZM39.8968 26.7139L39.2525 26.3299L39.8968 26.7139ZM40.3468 26.1194L40.8921 26.6344L40.3468 26.1194ZM40.9896 25.6355L41.3488 26.2938L40.9896 25.6355ZM42.3349 23.7969L42.9849 24.1709L42.3349 23.7969ZM42.4674 23.026L43.2111 22.9293L42.4674 23.026ZM43.2808 20.9233L44.0217 20.8073L43.2808 20.9233ZM43.3691 20.1595L44.0537 20.4658L43.3691 20.1595ZM43.5759 19.4446L44.3184 19.5503L43.5759 19.4446ZM43.9098 17.9754L44.386 18.5548L43.9098 17.9754ZM43.9291 17.2498L44.4695 16.7297L43.9291 17.2498ZM43.6623 16.4879L44.378 16.7121L43.6623 16.4879ZM43.7923 14.9987L44.424 15.4029L43.7923 14.9987ZM43.7599 13.4938L44.5057 13.4144L43.7599 13.4938ZM43.4709 12.7968L44.0628 12.3362L43.4709 12.7968ZM42.9989 12.1665L42.3898 12.6041L42.9989 12.1665ZM42.9215 11.393L43.6369 11.6182L42.9215 11.393ZM42.6264 9.8571L43.3562 9.68444L42.6264 9.8571ZM39.1943 6.93941L39.5674 6.28877L39.1943 6.93941ZM38.6145 6.47072L38.061 6.97688L38.6145 6.47072ZM37.4479 5.41802L37.6796 4.70469L37.4479 5.41802ZM35.9563 5.06643L35.7464 4.3464L35.9563 5.06643ZM33.7183 5.92066L33.8711 6.65494C33.89 6.651 33.8986 6.65245 33.906 6.65433C33.9157 6.65683 33.9452 6.66641 33.9948 6.70418L34.4492 6.10751L34.9036 5.51085C34.5224 5.22052 34.0612 5.08327 33.5656 5.18638L33.7183 5.92066ZM34.4492 6.10751L33.9948 6.70418C34.4261 7.03265 34.9454 7.11916 35.4614 6.92819L35.201 6.22481L34.9407 5.52144C34.9245 5.52744 34.9169 5.5283 34.9168 5.52831C34.9166 5.52833 34.9178 5.52819 34.92 5.52823C34.9222 5.52827 34.9248 5.52847 34.9275 5.5289C34.9336 5.52985 34.9361 5.53121 34.9338 5.53016C34.931 5.52892 34.9209 5.52398 34.9036 5.51085L34.4492 6.10751ZM35.201 6.22481L35.4614 6.92819C35.6503 6.85826 35.8238 6.82941 35.9859 6.83191L35.9975 6.082L36.0091 5.33209C35.6457 5.32648 35.2882 5.39284 34.9407 5.52144L35.201 6.22481ZM35.9975 6.082L35.9859 6.83191C36.0528 6.83294 36.1129 6.8508 36.1912 6.92291L36.6991 6.37108L37.2071 5.81926C36.8754 5.51403 36.4677 5.33917 36.0091 5.33209L35.9975 6.082ZM36.6991 6.37108L36.1912 6.92291C36.4476 7.15895 36.7287 7.35166 37.0354 7.49141L37.3464 6.80891L37.6574 6.12642C37.511 6.05973 37.3606 5.96056 37.2071 5.81926L36.6991 6.37108ZM37.3464 6.80891L37.0354 7.49141C37.3435 7.63179 37.6738 7.71637 38.02 7.75172L38.0962 7.0056L38.1724 6.25947C37.9719 6.23901 37.8023 6.19247 37.6574 6.12642L37.3464 6.80891ZM38.0962 7.0056L38.02 7.75172C38.1423 7.7642 38.2203 7.80353 38.285 7.8631L38.7928 7.31112L39.3005 6.75913C38.9831 6.46716 38.5967 6.3028 38.1724 6.25947L38.0962 7.0056ZM38.7928 7.31112L38.285 7.8631C38.3605 7.93255 38.4343 8.03995 38.4872 8.22027L39.2069 8.00909L39.9265 7.79791C39.8095 7.39915 39.6072 7.04123 39.3005 6.75913L38.7928 7.31112ZM39.2069 8.00909L38.4872 8.22027C38.5708 8.50512 38.7388 8.77317 39.0168 8.95834C39.2846 9.13672 39.5853 9.19206 39.8588 9.19059L39.8547 8.4406L39.8507 7.69061C39.7772 7.69101 39.7965 7.67537 39.8483 7.70991C39.8742 7.72714 39.8959 7.74917 39.9112 7.77117C39.9256 7.79191 39.9283 7.80394 39.9265 7.79791L39.2069 8.00909ZM39.8547 8.4406L39.8588 9.19059C39.9489 9.19011 39.962 9.20649 39.937 9.19332C39.9233 9.18609 39.9058 9.17376 39.8892 9.15601C39.8728 9.13848 39.8643 9.12313 39.8611 9.11621L40.5429 8.8036L41.2246 8.49099C41.1023 8.22433 40.9032 8.00704 40.6369 7.86658C40.3825 7.73241 40.1075 7.68923 39.8507 7.69061L39.8547 8.4406ZM40.5429 8.8036L39.8611 9.11621C40.0339 9.49304 40.302 9.79831 40.6496 10.0228L41.0565 9.39275L41.4633 8.7627C41.3498 8.68939 41.2755 8.60189 41.2246 8.49099L40.5429 8.8036ZM41.0565 9.39275L40.6496 10.0228C40.6554 10.0265 40.6529 10.0258 40.6468 10.019C40.6439 10.0158 40.6408 10.0118 40.6377 10.0072C40.6347 10.0026 40.6322 9.99806 40.6303 9.99401C40.6264 9.98547 40.6265 9.98247 40.6276 9.9886C40.6287 9.99526 40.6307 10.0123 40.6292 10.0422L41.3781 10.0812L42.1271 10.1202C42.155 9.58432 41.953 9.07892 41.4633 8.7627L41.0565 9.39275ZM41.3781 10.0812L40.6292 10.0422C40.6057 10.4931 40.7088 10.941 41.0081 11.3127L41.5922 10.8422L42.1764 10.3718C42.1579 10.349 42.1183 10.2895 42.1271 10.1202L41.3781 10.0812ZM41.5922 10.8422L41.0081 11.3127C41.1548 11.4948 41.2953 11.6838 41.4297 11.8798L42.0482 11.4555L42.6667 11.0313C42.5109 10.8041 42.3474 10.5843 42.1764 10.3718L41.5922 10.8422ZM42.0482 11.4555L41.4297 11.8798C41.5881 12.1107 41.7608 12.3391 41.9474 12.5651L42.5257 12.0876L43.1041 11.6102C42.9442 11.4164 42.7985 11.2234 42.6667 11.0313L42.0482 11.4555ZM42.5257 12.0876L41.9474 12.5651C41.9406 12.557 41.9278 12.5385 41.9175 12.5101C41.9071 12.4813 41.9037 12.4544 41.9039 12.4344C41.9041 12.4159 41.9072 12.4111 41.9034 12.4232C41.8995 12.4357 41.8894 12.4621 41.8661 12.5031L42.5184 12.8733L43.1707 13.2435C43.3 13.0156 43.401 12.7459 43.4038 12.4485C43.4068 12.1335 43.2984 11.8456 43.1041 11.6102L42.5257 12.0876ZM42.5184 12.8733L41.8661 12.5031C41.7195 12.7615 41.6098 13.1059 41.7065 13.483C41.8035 13.8609 42.0661 14.1099 42.3204 14.2651L42.7113 13.625L43.1021 12.9849C43.0497 12.9529 43.1268 12.983 43.1595 13.1103C43.1919 13.2368 43.1392 13.299 43.1707 13.2435L42.5184 12.8733ZM42.7113 13.625L42.3204 14.2651C42.3975 14.3122 42.3699 14.3175 42.3398 14.2522C42.3238 14.2175 42.3142 14.1771 42.3132 14.137C42.3123 14.0988 42.3196 14.0757 42.3208 14.0721L43.0299 14.3164L43.739 14.5607C43.8395 14.2689 43.8476 13.9401 43.7021 13.6244C43.5658 13.3286 43.3317 13.1251 43.1021 12.9849L42.7113 13.625ZM43.0299 14.3164L42.3208 14.0721C42.1714 14.5059 42.1717 14.96 42.3613 15.3918L43.048 15.0904L43.7348 14.7889C43.7116 14.7361 43.6999 14.6743 43.739 14.5607L43.0299 14.3164ZM43.048 15.0904L42.3613 15.3918C42.3606 15.3903 42.357 15.3813 42.3552 15.3666C42.3533 15.3516 42.3542 15.3382 42.3558 15.3288C42.359 15.3108 42.3607 15.3314 42.3146 15.3926L42.9136 15.8439L43.5126 16.2952C43.8275 15.8774 43.9768 15.3403 43.7348 14.7889L43.048 15.0904ZM42.9136 15.8439L42.3146 15.3926C42.129 15.639 41.9977 15.9654 42.0531 16.3404C42.1058 16.697 42.3093 16.9686 42.5177 17.1614L43.0271 16.6109L43.5364 16.0604C43.4733 16.002 43.522 16.02 43.537 16.121C43.5445 16.1723 43.539 16.2206 43.5276 16.258C43.5171 16.2922 43.5056 16.3046 43.5126 16.2952L42.9136 15.8439ZM43.0271 16.6109L42.5177 17.1614C42.5553 17.1962 42.576 17.2214 42.5863 17.2357C42.5963 17.2497 42.5937 17.2497 42.5888 17.2356C42.5834 17.2202 42.5779 17.1954 42.5783 17.1649C42.5788 17.1346 42.585 17.1113 42.5899 17.0983L43.2909 17.365L43.9919 17.6316C44.1019 17.3424 44.1076 17.0346 44.0046 16.7401C43.9075 16.4627 43.729 16.2386 43.5364 16.0604L43.0271 16.6109ZM43.2909 17.365L42.5899 17.0983C42.4862 17.3711 42.397 17.643 42.3229 17.9139L43.0463 18.1118L43.7698 18.3097C43.8305 18.0877 43.9044 17.8617 43.9919 17.6316L43.2909 17.365ZM43.0463 18.1118L42.3229 17.9139C42.2451 18.1985 42.1902 18.4872 42.1583 18.7796L42.9039 18.8607L43.6495 18.9418C43.6727 18.7287 43.7127 18.5181 43.7698 18.3097L43.0463 18.1118ZM42.9039 18.8607L42.1583 18.7796C42.1567 18.7949 42.152 18.8503 42.031 18.9482L42.5029 19.5312L42.9748 20.1141C43.3335 19.8237 43.5962 19.4321 43.6495 18.9418L42.9039 18.8607ZM42.5029 19.5312L42.031 18.9482C41.8327 19.1087 41.6595 19.3156 41.5559 19.5765C41.4507 19.8414 41.4357 20.116 41.4858 20.3782L42.2225 20.2373L42.9591 20.0964C42.9573 20.0869 42.9586 20.0878 42.9579 20.0968C42.9576 20.1012 42.9568 20.1066 42.9554 20.1127C42.954 20.1188 42.9521 20.1247 42.95 20.1301C42.9454 20.1415 42.9414 20.1463 42.943 20.1443C42.9449 20.1418 42.9537 20.1312 42.9748 20.1141L42.5029 19.5312ZM42.2225 20.2373L41.4858 20.3782C41.5183 20.5481 41.5071 20.6787 41.4735 20.7852L42.1888 21.0107L42.9041 21.2361C43.0213 20.8646 43.0324 20.4797 42.9591 20.0964L42.2225 20.2373ZM42.1888 21.0107L41.4735 20.7852C41.4586 20.8325 41.4206 20.9058 41.2863 20.996L41.7045 21.6186L42.1227 22.2412C42.4835 21.9988 42.7684 21.6668 42.9041 21.2361L42.1888 21.0107ZM41.7045 21.6186L41.2863 20.996C41.0464 21.1571 40.8426 21.3907 40.7461 21.704C40.6524 22.0083 40.6844 22.3082 40.7645 22.5666L41.4809 22.3445L42.1972 22.1224C42.1789 22.0631 42.1989 22.0832 42.1797 22.1455C42.1703 22.1759 42.1556 22.2024 42.1401 22.222C42.1255 22.2405 42.1162 22.2455 42.1227 22.2412L41.7045 21.6186ZM41.4809 22.3445L40.7645 22.5666C40.7895 22.6473 40.7827 22.6742 40.7843 22.6636C40.7851 22.6576 40.7878 22.6467 40.7938 22.634C40.7998 22.6213 40.8061 22.6135 40.8085 22.6108L41.3656 23.1129L41.9227 23.615C42.324 23.1698 42.3497 22.6142 42.1972 22.1224L41.4809 22.3445ZM41.3656 23.1129L40.8085 22.6108C40.6457 22.7913 40.4761 22.9659 40.2994 23.1345L40.8173 23.677L41.3352 24.2195C41.5389 24.0251 41.7348 23.8236 41.9227 23.615L41.3656 23.1129ZM40.8173 23.677L40.2994 23.1345C39.9664 23.4525 39.7864 23.8598 39.7561 24.3121L40.5045 24.3622L41.2528 24.4124C41.2594 24.3141 41.288 24.2647 41.3352 24.2195L40.8173 23.677ZM40.5045 24.3622L39.7561 24.3121C39.7442 24.4905 39.7013 24.6323 39.6377 24.7499L40.2974 25.1067L40.957 25.4636C41.1327 25.1389 41.2278 24.7845 41.2528 24.4124L40.5045 24.3622ZM40.2974 25.1067L39.6377 24.7499C39.6284 24.767 39.5911 24.8292 39.4166 24.8909L39.6666 25.598L39.9167 26.3051C40.3439 26.154 40.727 25.8887 40.957 25.4636L40.2974 25.1067ZM39.6666 25.598L39.4166 24.8909C39.1279 24.993 38.8404 25.1916 38.6808 25.5328C38.5294 25.8566 38.5488 26.1922 38.6146 26.4648L39.3437 26.2887L40.0727 26.1125C40.053 26.0311 40.0834 26.0745 40.0396 26.1681C40.0173 26.2158 39.9855 26.254 39.9541 26.2798C39.9253 26.3036 39.9075 26.3083 39.9167 26.3051L39.6666 25.598ZM39.3437 26.2887L38.6146 26.4648C38.6328 26.5402 38.5924 26.4554 38.6693 26.3273C38.7513 26.1907 38.8599 26.1804 38.8098 26.1907L38.9616 26.9252L39.1133 27.6597C39.4036 27.5997 39.746 27.4481 39.9554 27.0993C40.1596 26.759 40.14 26.3912 40.0727 26.1125L39.3437 26.2887ZM38.9616 26.9252L38.8098 26.1907C38.3362 26.2886 37.8633 26.5304 37.6118 27.0301L38.2817 27.3673L38.9516 27.7045C38.9439 27.7198 38.9345 27.7242 38.9453 27.7172C38.9614 27.7067 39.0098 27.6811 39.1133 27.6597L38.9616 26.9252ZM38.2817 27.3673L37.6118 27.0301C37.4173 27.4165 37.3725 27.8477 37.4132 28.2766L38.1598 28.2058L38.9065 28.135C38.8837 27.8949 38.9201 27.7671 38.9516 27.7045L38.2817 27.3673ZM38.1598 28.2058L37.4132 28.2766C37.4329 28.4843 37.3854 28.5366 37.385 28.5371L37.9724 29.0035L38.5598 29.4699C38.8727 29.0757 38.9502 28.5963 38.9065 28.135L38.1598 28.2058ZM37.9724 29.0035L37.385 28.5371C37.3689 28.5574 37.3092 28.6203 37.1053 28.6611L37.2524 29.3965L37.3996 30.1319C37.8423 30.0433 38.2626 29.8442 38.5598 29.4699L37.9724 29.0035ZM37.2524 29.3965L37.1053 28.6611C36.6021 28.7617 36.1345 29.0468 35.9264 29.5976L36.6281 29.8626L37.3297 30.1276C37.3292 30.129 37.3262 30.136 37.3194 30.145C37.3125 30.1542 37.3059 30.16 37.3025 30.1625C37.2966 30.1669 37.3186 30.1481 37.3996 30.1319L37.2524 29.3965ZM36.6281 29.8626L35.9264 29.5976C35.8589 29.7765 35.7718 29.931 35.6668 30.0653L36.2578 30.5272L36.8487 30.989C37.0517 30.7293 37.2114 30.4407 37.3297 30.1276L36.6281 29.8626ZM36.2578 30.5272L35.6668 30.0653C35.5446 30.2218 35.4065 30.3655 35.2519 30.4969L35.7374 31.0685L36.223 31.6401C36.4542 31.4437 36.6631 31.2266 36.8487 30.989L36.2578 30.5272ZM35.7374 31.0685L35.2519 30.4969C35.0546 30.6645 34.8598 30.8338 34.6676 31.0048L35.1662 31.5651L35.6648 32.1254C35.8483 31.9621 36.0344 31.8003 36.223 31.6401L35.7374 31.0685ZM35.1662 31.5651L34.6676 31.0048C34.4961 31.1574 34.3172 31.3032 34.1309 31.4421L34.5792 32.0434L35.0275 32.6447C35.2481 32.4802 35.4606 32.3071 35.6648 32.1254L35.1662 31.5651ZM34.5792 32.0434L34.1309 31.4421C33.7131 31.7536 33.5264 32.2111 33.4876 32.684L34.235 32.7454L34.9825 32.8067C34.9895 32.7222 35.0058 32.6795 35.014 32.6628C35.0203 32.6498 35.0239 32.6473 35.0275 32.6447L34.5792 32.0434ZM34.235 32.7454L33.4876 32.684C33.4845 32.7216 33.4792 32.7473 33.4747 32.7635C33.4724 32.7715 33.4704 32.777 33.469 32.7805C33.4676 32.7839 33.4667 32.7855 33.4667 32.7856C33.4666 32.7857 33.4672 32.7847 33.4685 32.783C33.4698 32.7812 33.4714 32.7793 33.4733 32.7774C33.4775 32.7731 33.48 32.7718 33.4779 32.7731L33.8595 33.4188L34.241 34.0644C34.7218 33.7804 34.9416 33.306 34.9825 32.8067L34.235 32.7454ZM33.8595 33.4188L33.4779 32.7731C33.0886 33.0031 32.8216 33.3501 32.6787 33.7709L33.3889 34.012L34.0991 34.2532C34.1348 34.1481 34.1815 34.0996 34.241 34.0644L33.8595 33.4188ZM33.3889 34.012L32.6787 33.7709C32.6754 33.7806 32.6742 33.7806 32.678 33.775C32.6797 33.7723 32.6823 33.7689 32.6856 33.7652C32.6889 33.7614 32.6925 33.758 32.6961 33.755C32.7036 33.7487 32.7078 33.7472 32.7047 33.7486C32.7011 33.7502 32.6883 33.7554 32.6629 33.7606L32.811 34.4958L32.9592 35.231C33.4893 35.1242 33.9151 34.7949 34.0991 34.2532L33.3889 34.012ZM32.811 34.4958L32.6629 33.7606C32.2198 33.8498 31.8164 34.0668 31.5368 34.4535L32.1446 34.8929L32.7524 35.3323C32.7694 35.3088 32.8103 35.261 32.9592 35.231L32.811 34.4958ZM32.1446 34.8929L31.5368 34.4535C31.4125 34.6254 31.2763 34.7843 31.1279 34.9309L31.6549 35.4645L32.1819 35.9982C32.3899 35.7928 32.5801 35.5707 32.7524 35.3323L32.1446 34.8929ZM31.6549 35.4645L31.1279 34.9309C30.9018 35.1541 30.707 35.406 30.5429 35.6839L31.1888 36.0653L31.8346 36.4466C31.9356 36.2754 32.0516 36.1269 32.1819 35.9982L31.6549 35.4645ZM31.1888 36.0653L30.5429 35.6839C30.4602 35.8241 30.3601 35.9338 30.2417 36.0206L30.6851 36.6255L31.1285 37.2304C31.4165 37.0193 31.6522 36.7554 31.8346 36.4466L31.1888 36.0653ZM30.6851 36.6255L30.2417 36.0206C30.0419 36.1671 29.8405 36.3121 29.6377 36.4556L30.0708 37.0679L30.504 37.6801C30.7137 37.5318 30.9219 37.3818 31.1285 37.2304L30.6851 36.6255ZM30.0708 37.0679L29.6377 36.4556C29.4234 36.6072 29.2128 36.7625 29.0059 36.9215L29.463 37.5162L29.92 38.1108C30.1111 37.9639 30.3057 37.8204 30.504 37.6801L30.0708 37.0679ZM29.463 37.5162L29.0059 36.9215C28.7546 37.1147 28.5314 37.3385 28.3368 37.5911L28.9311 38.0487L29.5253 38.5063C29.642 38.3548 29.7734 38.2235 29.92 38.1108L29.463 37.5162ZM28.9311 38.0487L28.3368 37.5911C28.1848 37.7886 28.0302 37.9846 27.8732 38.1789L28.4566 38.6502L29.0401 39.1215C29.2044 38.9181 29.3661 38.7131 29.5253 38.5063L28.9311 38.0487ZM28.4566 38.6502L27.8732 38.1789C27.7497 38.3319 27.6122 38.4656 27.4604 38.5814L27.9154 39.1776L28.3704 39.7738C28.619 39.5842 28.8423 39.3663 29.0401 39.1215L28.4566 38.6502ZM27.9154 39.1776L27.4604 38.5814C27.2763 38.7219 27.0866 38.855 26.8912 38.9806L27.2968 39.6115L27.7024 40.2423C27.9315 40.095 28.1542 39.9388 28.3704 39.7738L27.9154 39.1776ZM27.2968 39.6115L26.8912 38.9806C26.8035 39.037 26.6741 39.0858 26.4752 39.0998L26.528 39.8479L26.5808 40.5961C26.9825 40.5677 27.3655 40.4589 27.7024 40.2423L27.2968 39.6115ZM26.528 39.8479L26.4752 39.0998C26.0296 39.1312 25.6061 39.2893 25.2774 39.6246L25.813 40.1497L26.3485 40.6747C26.3727 40.6501 26.426 40.607 26.5808 40.5961L26.528 39.8479ZM25.813 40.1497L25.2774 39.6246C25.0226 39.8845 24.8294 40.1964 24.688 40.5433L25.3825 40.8264L26.077 41.1095C26.1566 40.9142 26.2504 40.7749 26.3485 40.6747L25.813 40.1497ZM25.3825 40.8264L24.688 40.5433C24.6208 40.7082 24.5421 40.7989 24.468 40.8536L24.9134 41.457L25.3587 42.0605C25.6891 41.8166 25.9232 41.4869 26.077 41.1095L25.3825 40.8264ZM24.9134 41.457L24.468 40.8536C24.4007 40.9033 24.3475 40.9167 24.2822 40.9134L24.2442 41.6624L24.2063 42.4115C24.6287 42.4329 25.0215 42.3094 25.3587 42.0605L24.9134 41.457ZM24.2442 41.6624L24.2822 40.9134C24.2343 40.911 24.1982 40.8994 24.1459 40.8462L23.6111 41.3721L23.0764 41.898C23.3805 42.2072 23.7664 42.3892 24.2063 42.4115L24.2442 41.6624ZM23.6111 41.3721L24.1459 40.8462C23.9575 40.6547 23.7651 40.4702 23.5687 40.2929L23.0661 40.8495L22.5634 41.4061C22.7374 41.5633 22.9084 41.7272 23.0764 41.898L23.6111 41.3721ZM23.0661 40.8495L23.5687 40.2929C23.3877 40.1294 23.2085 39.9638 23.0311 39.7962L22.5159 40.3413L22.0008 40.8864C22.1865 41.0618 22.374 41.2351 22.5634 41.4061L23.0661 40.8495ZM22.5159 40.3413L23.0311 39.7962C22.7941 39.5722 22.5272 39.3875 22.2332 39.2426L21.9016 39.9153L21.5699 40.588C21.732 40.6679 21.8747 40.7672 22.0008 40.8864L22.5159 40.3413ZM21.9016 39.9153L22.2332 39.2426C22.0699 39.1621 21.9251 39.062 21.7963 38.9419L21.2847 39.4903L20.7732 40.0388C21.0107 40.2604 21.2772 40.4436 21.5699 40.588L21.9016 39.9153ZM21.2847 39.4903L21.7963 38.9419C21.6477 38.8032 21.5106 38.6493 21.3852 38.4793L20.7816 38.9245L20.178 39.3696C20.357 39.6123 20.5554 39.8356 20.7732 40.0388L21.2847 39.4903ZM20.7816 38.9245L21.3852 38.4793C21.0827 38.069 20.6418 37.8699 20.1693 37.8267L20.1009 38.5736L20.0326 39.3204C20.1049 39.327 20.1404 39.3418 20.1537 39.3486C20.1641 39.354 20.1701 39.3589 20.178 39.3696L20.7816 38.9245ZM20.1009 38.5736L20.1693 37.8267C19.9287 37.8046 19.7248 37.7562 19.552 37.6883L19.2776 38.3863L19.0031 39.0843C19.3249 39.2108 19.67 39.2872 20.0326 39.3204L20.1009 38.5736ZM19.2776 38.3863L19.552 37.6883C19.4432 37.6455 19.3698 37.5849 19.3117 37.4985L18.6892 37.9167L18.0666 38.3349C18.2985 38.6801 18.6174 38.9326 19.0031 39.0843L19.2776 38.3863ZM18.6892 37.9167L19.3117 37.4985C19.1423 37.2462 18.9536 37.013 18.7455 36.7999L18.209 37.324L17.6725 37.8481C17.8146 37.9936 17.9461 38.1554 18.0666 38.3349L18.6892 37.9167ZM18.209 37.324L18.7455 36.7999C18.545 36.5947 18.3304 36.4047 18.1019 36.2301L17.6465 36.8261L17.1912 37.422C17.3625 37.5529 17.5228 37.6949 17.6725 37.8481L18.209 37.324ZM17.6465 36.8261L18.1019 36.2301C17.9168 36.0887 17.7374 35.9408 17.5638 35.7863L17.0653 36.3466L16.5667 36.9069C16.7683 37.0863 16.9765 37.258 17.1912 37.422L17.6465 36.8261ZM17.0653 36.3466L17.5638 35.7863C17.5026 35.7319 17.439 35.6433 17.3951 35.4791L16.6706 35.6731L15.9461 35.8671C16.0532 36.2671 16.2527 36.6276 16.5667 36.9069L17.0653 36.3466ZM16.6706 35.6731L17.3951 35.4791C17.2556 34.9585 16.9002 34.5704 16.3721 34.4096L16.1536 35.1271L15.9351 35.8445C15.9495 35.8489 15.9541 35.852 15.9524 35.851C15.9503 35.8497 15.9453 35.8462 15.94 35.8407C15.9348 35.8352 15.9332 35.8318 15.9342 35.8336C15.9354 35.8359 15.9404 35.8459 15.9461 35.8671L16.6706 35.6731ZM16.1536 35.1271L16.3721 34.4096C16.2313 34.3667 16.1541 34.3065 16.103 34.2419L15.5151 34.7076L14.9272 35.1733C15.1892 35.5041 15.5377 35.7235 15.9351 35.8445L16.1536 35.1271ZM15.5151 34.7076L16.103 34.2419C15.9239 34.0158 15.7297 33.8043 15.5205 33.6076L15.0068 34.154L14.493 34.7004C14.6485 34.8466 14.7932 35.0041 14.9272 35.1733L15.5151 34.7076ZM15.0068 34.154L15.5205 33.6076C15.3626 33.4591 15.2149 33.3004 15.0775 33.1315L14.4957 33.6048L13.9139 34.0781C14.0933 34.2986 14.2864 34.5061 14.493 34.7004L15.0068 34.154ZM14.4957 33.6048L15.0775 33.1315C14.9728 33.0028 14.8841 32.85 14.8141 32.6674L14.1137 32.9356L13.4133 33.2038C13.536 33.5241 13.7019 33.8174 13.9139 34.0781L14.4957 33.6048ZM14.1137 32.9356L14.8141 32.6674C14.7073 32.3885 14.5173 32.1572 14.2548 32.0017C14.005 31.8537 13.7293 31.7973 13.4706 31.786L13.4378 32.5352L13.405 33.2845C13.4509 33.2865 13.4788 33.2918 13.4927 33.2954C13.5061 33.2988 13.503 33.2998 13.4903 33.2923C13.4766 33.2841 13.4586 33.2702 13.4418 33.2501C13.4251 33.2301 13.4167 33.2126 13.4133 33.2038L14.1137 32.9356ZM13.4378 32.5352L13.4706 31.786C13.4135 31.7835 13.5279 31.7748 13.6337 31.9038C13.7327 32.0246 13.7016 32.1187 13.7103 32.0359L12.9643 31.9577L12.2184 31.8796C12.1884 32.1663 12.2168 32.5414 12.4737 32.8547C12.7372 33.1762 13.1077 33.2715 13.405 33.2845L13.4378 32.5352ZM12.9643 31.9577L13.7103 32.0359C13.7604 31.5571 13.6933 31.019 13.3044 30.6148L12.7639 31.1347L12.2234 31.6547C12.2058 31.6363 12.2082 31.6261 12.2146 31.6523C12.2223 31.6842 12.2315 31.7549 12.2184 31.8796L12.9643 31.9577ZM12.7639 31.1347L13.3044 30.6148C13.0565 30.3571 12.759 30.1582 12.4253 30.0117L12.1238 30.6984L11.8222 31.3851C11.9974 31.462 12.1266 31.554 12.2234 31.6547L12.7639 31.1347ZM12.1238 30.6984L12.4253 30.0117C12.1914 29.909 11.9668 29.7979 11.7514 29.6786L11.388 30.3347L11.0247 30.9908C11.2815 31.133 11.5474 31.2644 11.8222 31.3851L12.1238 30.6984ZM11.388 30.3347L11.7514 29.6786C11.5955 29.5923 11.4779 29.4911 11.3879 29.3775L10.7999 29.843L10.2118 30.3085C10.4338 30.5889 10.7083 30.8156 11.0247 30.9908L11.388 30.3347ZM10.7999 29.843L11.3879 29.3775C11.2236 29.1698 11.0534 28.9663 10.8773 28.767L10.3151 29.2634L9.75295 29.7599C9.91128 29.9392 10.0642 30.122 10.2118 30.3085L10.7999 29.843ZM10.3151 29.2634L10.8773 28.767C10.8773 28.767 10.8774 28.767 10.8775 28.7672C10.8776 28.7673 10.8777 28.7674 10.8777 28.7675C10.8779 28.7678 10.8778 28.7677 10.8774 28.7669C10.8767 28.7656 10.8737 28.7593 10.8704 28.7458C10.8635 28.7172 10.8556 28.6565 10.8675 28.5515L10.1222 28.4673L9.37695 28.3831C9.32351 28.8561 9.40013 29.3603 9.75295 29.7599L10.3151 29.2634ZM10.1222 28.4673L10.8675 28.5515C10.9262 28.0313 10.7946 27.4671 10.2775 27.1126L9.85343 27.7312L9.42933 28.3498C9.42366 28.3459 9.41258 28.3369 9.40099 28.322C9.38936 28.307 9.38262 28.2931 9.37944 28.2844C9.37386 28.2691 9.38715 28.2928 9.37695 28.3831L10.1222 28.4673ZM9.85343 27.7312L10.2775 27.1126C10.1765 27.0433 10.1159 26.9653 10.0769 26.8696L9.38232 27.1525L8.6877 27.4353C8.84133 27.8126 9.09482 28.1204 9.42933 28.3498L9.85343 27.7312ZM9.38232 27.1525L10.0769 26.8696C9.93113 26.5115 9.70164 26.2083 9.40001 25.9668L8.93129 26.5523L8.46256 27.1378C8.5697 27.2235 8.64091 27.3204 8.6877 27.4353L9.38232 27.1525ZM8.93129 26.5523L9.40001 25.9668C9.28374 25.8737 9.20431 25.77 9.15051 25.6519L8.468 25.9629L7.78549 26.2738C7.94064 26.6143 8.17007 26.9036 8.46256 27.1378L8.93129 26.5523ZM8.468 25.9629L9.15051 25.6519C8.96108 25.2361 8.6324 24.941 8.23752 24.7491L7.90966 25.4237L7.58181 26.0982C7.72243 26.1666 7.76598 26.231 7.78549 26.2738L8.468 25.9629ZM7.90966 25.4237L8.23752 24.7491C8.23697 24.7489 8.25711 24.7586 8.28344 24.786C8.31137 24.815 8.33507 24.8524 8.34973 24.8929C8.37779 24.9705 8.35151 24.9952 8.37454 24.9125L7.65203 24.7113L6.92952 24.5102C6.85655 24.7722 6.82522 25.0881 6.93915 25.4031C7.06024 25.7379 7.30601 25.9642 7.58181 26.0982L7.90966 25.4237ZM7.65203 24.7113L8.37454 24.9125C8.44924 24.6443 8.47817 24.3189 8.34965 23.9971C8.21484 23.6595 7.95411 23.4427 7.67715 23.3176L7.36841 24.0011L7.05968 24.6846C7.06704 24.6879 7.05096 24.6819 7.02629 24.6581C6.99966 24.6325 6.9738 24.5964 6.9566 24.5533C6.92262 24.4682 6.95082 24.4337 6.92952 24.5102L7.65203 24.7113ZM7.36841 24.0011L7.67715 23.3176C7.60999 23.2872 7.58989 23.2646 7.58939 23.2641C7.58915 23.2638 7.59111 23.2661 7.59322 23.2703C7.59529 23.2744 7.59529 23.276 7.5946 23.2727L6.86067 23.4271L6.12675 23.5816C6.23983 24.119 6.60721 24.4802 7.05968 24.6846L7.36841 24.0011ZM6.86067 23.4271L7.5946 23.2727C7.53425 22.9859 7.45563 22.7078 7.35828 22.4389L6.65305 22.6941L5.94781 22.9493C6.02046 23.1501 6.08025 23.3607 6.12675 23.5816L6.86067 23.4271ZM6.65305 22.6941L7.35828 22.4389C7.21109 22.0322 6.93461 21.7128 6.58804 21.4718L6.1599 22.0876L5.73175 22.7034C5.87272 22.8014 5.92502 22.8863 5.94781 22.9493L6.65305 22.6941ZM6.1599 22.0876L6.58804 21.4718C6.56977 21.4591 6.56302 21.4516 6.56276 21.4513C6.56264 21.4512 6.56387 21.4525 6.56587 21.4555C6.56789 21.4585 6.57029 21.4626 6.57268 21.4676C6.57507 21.4726 6.57708 21.4777 6.57862 21.4828C6.58017 21.4877 6.58101 21.4918 6.58144 21.4945C6.58234 21.5002 6.58108 21.4977 6.5824 21.4844L5.83604 21.4106L5.08968 21.3368C5.06409 21.5956 5.0989 21.8627 5.21953 22.1149C5.33925 22.3651 5.52314 22.5583 5.73175 22.7034L6.1599 22.0876ZM5.83604 21.4106L6.5824 21.4844C6.61772 21.1272 6.598 20.7765 6.51232 20.4392L5.78541 20.6239L5.05849 20.8085C5.09606 20.9565 5.1101 21.1303 5.08968 21.3368L5.83604 21.4106ZM5.78541 20.6239L6.51232 20.4392C6.47903 20.3082 6.47168 20.1593 6.50215 19.9839L5.76321 19.8555L5.02427 19.7272C4.96108 20.091 4.96853 20.4544 5.05849 20.8085L5.78541 20.6239ZM5.76321 19.8555L6.50215 19.9839C6.54891 19.7146 6.52303 19.4372 6.40641 19.1747C6.29269 18.9188 6.11159 18.7189 5.91092 18.5647L5.45394 19.1594L4.99695 19.7541C5.0493 19.7943 5.04624 19.8077 5.03562 19.7838C5.03041 19.7721 5.02647 19.758 5.02489 19.7439C5.02337 19.7304 5.02484 19.7239 5.02427 19.7272L5.76321 19.8555ZM5.45394 19.1594L5.91092 18.5647C5.84056 18.5107 5.80838 18.4698 5.79457 18.4477C5.78265 18.4287 5.7807 18.4185 5.77985 18.4104L5.03409 18.4901L4.28833 18.5697C4.34235 19.0756 4.62618 19.4692 4.99695 19.7541L5.45394 19.1594ZM5.03409 18.4901L5.77985 18.4104C5.763 18.2526 5.77452 18.088 5.81979 17.9124L5.09352 17.7252L4.36724 17.5381C4.27949 17.8786 4.2514 18.2239 4.28833 18.5697L5.03409 18.4901ZM5.09352 17.7252L5.81979 17.9124C5.89115 17.6354 5.94978 17.3632 5.99528 17.0958L5.25591 16.97L4.51654 16.8442C4.47853 17.0676 4.42889 17.2988 4.36724 17.5381L5.09352 17.7252ZM5.25591 16.97L5.99528 17.0958C6.04881 16.7813 6.05779 16.4647 6.02186 16.1482L5.27665 16.2328L4.53143 16.3174C4.55137 16.493 4.54653 16.6679 4.51654 16.8442L5.25591 16.97ZM5.27665 16.2328L6.02186 16.1482C5.98798 15.8498 5.92228 15.5508 5.82731 15.252L5.11253 15.4791L4.39775 15.7062C4.46573 15.9202 4.50944 16.1237 4.53143 16.3174L5.27665 16.2328ZM5.11253 15.4791L5.82731 15.252C5.76605 15.0592 5.73451 14.8723 5.72951 14.6895L4.97979 14.71L4.23007 14.7306C4.23911 15.0604 4.29607 15.3862 4.39775 15.7062L5.11253 15.4791ZM4.97979 14.71L5.72951 14.6895C5.72292 14.4492 5.72401 14.2077 5.73279 13.9649L4.98328 13.9378L4.23377 13.9107C4.22385 14.1849 4.22261 14.4582 4.23007 14.7306L4.97979 14.71ZM4.98328 13.9378L5.73279 13.9649C5.73265 13.9688 5.73173 13.9762 5.72894 13.9847C5.7262 13.993 5.72354 13.9967 5.72461 13.9951C5.72762 13.9906 5.75215 13.957 5.83189 13.9058L5.42697 13.2745L5.02206 12.6432C4.60088 12.9134 4.25472 13.3317 4.23377 13.9107L4.98328 13.9378ZM5.42697 13.2745L5.83189 13.9058C6.07777 13.7481 6.31531 13.5078 6.41584 13.1596C6.5162 12.8121 6.44382 12.4824 6.32127 12.2182L5.64089 12.5338L4.96051 12.8493C4.98179 12.8952 4.94567 12.8441 4.97473 12.7435C5.00395 12.6423 5.06262 12.6172 5.02206 12.6432L5.42697 13.2745ZM5.64089 12.5338L6.32127 12.2182C6.28321 12.1361 6.28687 12.107 6.28664 12.1191C6.2865 12.1261 6.28507 12.1392 6.2798 12.155C6.27455 12.1707 6.26803 12.1815 6.26458 12.1863L5.65591 11.7481L5.04725 11.3098C4.68721 11.8099 4.74196 12.3781 4.96051 12.8493L5.64089 12.5338ZM5.65591 11.7481L6.26458 12.1863C6.44752 11.9322 6.60208 11.6644 6.72683 11.3832L6.04128 11.0791L5.35572 10.7749C5.27435 10.9583 5.17201 11.1366 5.04725 11.3098L5.65591 11.7481ZM6.04128 11.0791L6.72683 11.3832C6.78714 11.2473 6.87421 11.1245 6.99543 11.012L6.48547 10.4621L5.97552 9.91214C5.7106 10.1578 5.50153 10.4463 5.35572 10.7749L6.04128 11.0791ZM6.48547 10.4621L6.99543 11.012C7.27242 10.7552 7.48104 10.447 7.61353 10.0936L6.91126 9.8303L6.20899 9.56702C6.1599 9.69795 6.08467 9.81093 5.97552 9.91214L6.48547 10.4621ZM6.91126 9.8303L7.61353 10.0936C7.63606 10.0335 7.66998 9.98788 7.75581 9.94299L7.40828 9.27837L7.06075 8.61375C6.66547 8.82044 6.36803 9.1428 6.20899 9.56702L6.91126 9.8303ZM7.40828 9.27837L7.75581 9.94299C8.13009 9.74728 8.42506 9.45511 8.61424 9.07379L7.94239 8.74047L7.27053 8.40714C7.2287 8.49144 7.1676 8.55787 7.06075 8.61375L7.40828 9.27837ZM7.94239 8.74047L8.61424 9.07379C8.61777 9.06669 8.61899 9.06611 8.61649 9.06906C8.61382 9.0722 8.61017 9.07551 8.60675 9.07789C8.60352 9.08013 8.60413 9.07901 8.61142 9.07625C8.61906 9.07335 8.6347 9.06841 8.66083 9.06428L8.54355 8.3235L8.42627 7.58273C7.93212 7.66096 7.50725 7.93 7.27053 8.40714L7.94239 8.74047ZM8.54355 8.3235L8.66083 9.06428C8.9544 9.0178 9.23353 8.88355 9.44807 8.64081C9.65334 8.40856 9.75322 8.12955 9.79757 7.86589L9.05797 7.74148L8.31836 7.61706C8.30504 7.69625 8.29034 7.68568 8.32414 7.64744C8.34153 7.62777 8.364 7.61 8.38824 7.59731C8.4115 7.58513 8.42666 7.58267 8.42627 7.58273L8.54355 8.3235ZM9.05797 7.74148L9.79757 7.86589C9.80796 7.80415 9.80412 7.92273 9.6581 8.01726C9.51394 8.11059 9.40744 8.06603 9.4732 8.08247L9.65513 7.35487L9.83705 6.62727C9.56238 6.55859 9.18614 6.5359 8.84292 6.7581C8.49785 6.9815 8.36565 7.33594 8.31836 7.61706L9.05797 7.74148ZM9.65513 7.35487L9.4732 8.08247C9.91965 8.1941 10.4267 8.20434 10.8694 7.92628L10.4705 7.29117L10.0715 6.65607C10.108 6.63318 10.0715 6.68589 9.83705 6.62727L9.65513 7.35487ZM10.4705 7.29117L10.8694 7.92628C11.2509 7.68665 11.5035 7.30474 11.6777 6.90023L10.9889 6.60354L10.3001 6.30684C10.1893 6.564 10.0963 6.64052 10.0715 6.65607L10.4705 7.29117ZM10.9889 6.60354L11.6777 6.90023C11.7195 6.80328 11.75 6.776 11.7481 6.7777C11.746 6.77955 11.7374 6.78658 11.7223 6.79349C11.7071 6.8005 11.6929 6.80384 11.6833 6.80499L11.594 6.06033L11.5046 5.31567C10.8836 5.39017 10.5042 5.83302 10.3001 6.30684L10.9889 6.60354ZM11.594 6.06033L11.6833 6.80499C11.8662 6.78306 12.0555 6.78884 12.254 6.82532L12.3895 6.08767L12.5251 5.35002C12.1846 5.28745 11.8436 5.27501 11.5046 5.31567L11.594 6.06033ZM12.3895 6.08767L12.254 6.82532C12.4802 6.86689 12.703 6.92826 12.9228 7.00983L13.1838 6.3067L13.4447 5.60357C13.1445 5.49213 12.8378 5.40748 12.5251 5.35002L12.3895 6.08767ZM13.1838 6.3067L12.9228 7.00983C13.3854 7.18155 13.8649 7.14848 14.2984 6.90305L13.9288 6.25041L13.5593 5.59777C13.528 5.61547 13.5128 5.61682 13.5085 5.61714C13.5038 5.61749 13.485 5.6185 13.4447 5.60357L13.1838 6.3067ZM13.9288 6.25041L14.2984 6.90305C14.4075 6.84124 14.4867 6.83217 14.5569 6.84133L14.6539 6.09762L14.7509 5.35392C14.3277 5.29873 13.9235 5.39153 13.5593 5.59777L13.9288 6.25041ZM14.6539 6.09762L14.5569 6.84133C14.8293 6.87685 15.103 6.89819 15.3778 6.90535L15.3973 6.1556L15.4168 5.40586C15.1938 5.40005 14.9719 5.38273 14.7509 5.35392L14.6539 6.09762ZM15.3973 6.1556L15.3778 6.90535C15.6254 6.9118 15.8751 6.91896 16.127 6.92682L16.1504 6.17718L16.1738 5.42755C15.9194 5.41961 15.6671 5.41238 15.4168 5.40586L15.3973 6.1556ZM16.1504 6.17718L16.127 6.92682C16.2408 6.93037 16.3467 6.96175 16.4566 7.03197L16.8602 6.39984L17.2639 5.7677C16.9336 5.55685 16.5663 5.43979 16.1738 5.42755L16.1504 6.17718ZM16.8602 6.39984L16.4566 7.03197C16.7161 7.19767 16.9852 7.33542 17.2637 7.44315L17.5343 6.74366L17.8049 6.04417C17.6249 5.97455 17.4446 5.88309 17.2639 5.7677L16.8602 6.39984ZM17.5343 6.74366L17.2637 7.44315C17.4142 7.50136 17.5556 7.58444 17.6897 7.69637L18.1704 7.12065L18.651 6.54493C18.3955 6.33156 18.1129 6.16332 17.8049 6.04417L17.5343 6.74366ZM18.1704 7.12065L17.6897 7.69637C18.065 8.00973 18.5199 8.11278 18.9794 8.06335L18.8992 7.31765L18.819 6.57196C18.6963 6.58515 18.6653 6.55687 18.651 6.54493L18.1704 7.12065ZM18.8992 7.31765L18.9794 8.06335C18.9967 8.0615 18.9987 8.06325 18.9892 8.06177C18.9786 8.06015 18.9601 8.05552 18.9384 8.04447C18.9165 8.03335 18.9001 8.02016 18.8898 8.00971C18.8803 7.99998 18.8802 7.9969 18.8861 8.00751L19.5426 7.64488L20.1991 7.28225C20.0713 7.05094 19.8825 6.8418 19.6184 6.70748C19.3559 6.57394 19.0775 6.54415 18.819 6.57196L18.8992 7.31765ZM19.5426 7.64488L18.8861 8.00751C19.0842 8.36632 19.3641 8.66468 19.7374 8.85399L20.0766 8.18508L20.4158 7.51617C20.3526 7.48413 20.2765 7.42236 20.1991 7.28225L19.5426 7.64488ZM20.0766 8.18508L19.7374 8.85399C19.8871 8.9299 20.0201 9.02553 20.1388 9.1423L20.6648 8.60761L21.1907 8.07293C20.9617 7.84765 20.7026 7.66159 20.4158 7.51617L20.0766 8.18508ZM20.6648 8.60761L20.1388 9.1423C20.3956 9.39484 20.7012 9.58071 21.0421 9.70568L21.3003 9.0015L21.5584 8.29733C21.3997 8.23915 21.2817 8.16242 21.1907 8.07293L20.6648 8.60761ZM21.3003 9.0015L21.0421 9.70568C21.2915 9.7971 21.549 9.89176 21.8147 9.98964L22.074 9.28589L22.3333 8.58214C22.0669 8.48399 21.8086 8.38905 21.5584 8.29733L21.3003 9.0015ZM22.074 9.28589L21.8147 9.98964C21.9687 10.0464 22.0688 10.1219 22.14 10.2084L22.719 9.73161L23.298 9.25486C23.0412 8.94308 22.7114 8.72145 22.3333 8.58214L22.074 9.28589ZM22.719 9.73161L22.14 10.2084C22.2044 10.2865 22.255 10.3916 22.2755 10.5517L23.0194 10.4567L23.7634 10.3616C23.7112 9.9532 23.5616 9.57499 23.298 9.25486L22.719 9.73161ZM23.0194 10.4567L22.2755 10.5517C22.3378 11.0395 22.5819 11.4589 23.0102 11.7316L23.413 11.0989L23.8158 10.4663C23.7923 10.4513 23.7866 10.4419 23.7845 10.4385C23.7817 10.4339 23.77 10.4133 23.7634 10.3616L23.0194 10.4567ZM23.413 11.0989L23.0102 11.7316C23.109 11.7945 23.1876 11.8809 23.2485 12.0126L23.9292 11.6978L24.61 11.383C24.4347 11.0041 24.1692 10.6913 23.8158 10.4663L23.413 11.0989ZM23.9292 11.6978L23.2485 12.0126C23.292 12.1066 23.3555 12.2254 23.4488 12.3335C23.5346 12.4328 23.7255 12.6148 24.0303 12.6438C24.3643 12.6756 24.6021 12.5054 24.7226 12.381C24.8369 12.2628 24.9062 12.1297 24.9481 12.0363L24.2636 11.7296L23.5792 11.4229C23.5686 11.4466 23.5846 11.3998 23.6449 11.3376C23.7113 11.269 23.8942 11.1241 24.1724 11.1506C24.4215 11.1743 24.5559 11.3204 24.5843 11.3533C24.6202 11.3949 24.6255 11.4166 24.61 11.383L23.9292 11.6978ZM24.2636 11.7296L24.9481 12.0363C25.0325 11.848 25.1323 11.6754 25.247 11.5174L24.6401 11.0767L24.0333 10.636C23.8558 10.8804 23.7046 11.1431 23.5792 11.4229L24.2636 11.7296ZM24.6401 11.0767L25.247 11.5174C25.4148 11.2863 25.5661 11.0421 25.701 10.7853L25.037 10.4366L24.373 10.0878C24.2709 10.2822 24.1576 10.4648 24.0333 10.636L24.6401 11.0767ZM25.037 10.4366L25.701 10.7853C25.8379 10.5246 25.9567 10.2483 26.0582 9.95742L25.3501 9.71031L24.642 9.4632C24.563 9.68942 24.4731 9.89727 24.373 10.0878L25.037 10.4366ZM25.3501 9.71031L26.0582 9.95742C26.0968 9.84685 26.1527 9.77831 26.2327 9.72477L25.8155 9.10151L25.3984 8.47824C25.0382 8.71931 24.7838 9.05664 24.642 9.4632L25.3501 9.71031ZM25.8155 9.10151L26.2327 9.72477C26.381 9.6255 26.5526 9.5468 26.7532 9.49198L26.5554 8.76853L26.3576 8.04509C26.0118 8.13962 25.6902 8.28291 25.3984 8.47824L25.8155 9.10151ZM26.5554 8.76853L26.7532 9.49198C27.1209 9.39144 27.4567 9.22292 27.7399 8.97324L27.244 8.41063L26.748 7.84802C26.6594 7.92619 26.5361 7.99627 26.3576 8.04509L26.5554 8.76853ZM27.244 8.41063L27.7399 8.97324C27.8887 8.8421 28.0487 8.72701 28.2206 8.62756L27.8451 7.97837L27.4695 7.32919C27.2119 7.47822 26.9712 7.6513 26.748 7.84802L27.244 8.41063ZM27.8451 7.97837L28.2206 8.62756C28.6089 8.40296 28.8718 8.05182 29.042 7.65438L28.3526 7.35908L27.6632 7.06378C27.5862 7.24357 27.5108 7.3053 27.4695 7.32919L27.8451 7.97837ZM28.3526 7.35908L29.042 7.65438C29.0554 7.62331 29.0403 7.6756 28.9608 7.71788C28.8822 7.75975 28.8325 7.74269 28.8697 7.74952L29.0051 7.01183L29.1404 6.27414C28.8663 6.22386 28.5522 6.23612 28.2561 6.39374C27.9592 6.55177 27.7735 6.80625 27.6632 7.06378L28.3526 7.35908ZM29.0051 7.01183L28.8697 7.74952C29.1342 7.79804 29.4212 7.78985 29.6999 7.67709C29.9811 7.5633 30.1944 7.36707 30.3479 7.13852L29.7252 6.72049L29.1025 6.30245C29.0937 6.3155 29.0915 6.31543 29.0987 6.30931C29.1066 6.30259 29.1199 6.29362 29.1373 6.28658C29.1545 6.27962 29.1672 6.27799 29.1709 6.27772C29.1738 6.27751 29.1646 6.27858 29.1404 6.27414L29.0051 7.01183ZM29.7252 6.72049L30.3479 7.13852C30.4522 6.98315 30.5541 6.90472 30.6458 6.86273L30.3335 6.18081L30.0213 5.4989C29.6394 5.67377 29.3357 5.95513 29.1025 6.30245L29.7252 6.72049ZM30.3335 6.18081L30.6458 6.86273C30.8006 6.79184 30.9626 6.75023 31.1361 6.73761L31.0817 5.98959L31.0273 5.24156C30.6769 5.26704 30.3401 5.35292 30.0213 5.4989L30.3335 6.18081ZM31.0817 5.98959L31.1361 6.73761C31.2004 6.73293 31.3183 6.74687 31.5078 6.86463L31.9036 6.22756L32.2994 5.5905C31.9169 5.35285 31.4867 5.20815 31.0273 5.24156L31.0817 5.98959ZM31.9036 6.22756L31.5078 6.86463C31.8883 7.10105 32.3372 7.25422 32.8163 7.17229L32.6899 6.43302L32.5635 5.69375C32.5616 5.69408 32.5447 5.69712 32.5043 5.68656C32.4612 5.6753 32.3933 5.64887 32.2994 5.5905L31.9036 6.22756ZM32.6899 6.43302L32.8163 7.17229C33.1432 7.11639 33.5239 6.98034 33.7837 6.64695L33.1921 6.18596L32.6005 5.72497C32.6338 5.6823 32.6638 5.66734 32.663 5.66774C32.6622 5.66815 32.6544 5.67185 32.6375 5.67699C32.6206 5.68212 32.5963 5.68813 32.5635 5.69375L32.6899 6.43302ZM33.1921 6.18596L33.7837 6.64695C33.749 6.69151 33.721 6.70279 33.7337 6.69636C33.7476 6.68937 33.7889 6.67204 33.8711 6.65494L33.7183 5.92066L33.5656 5.18638C33.2426 5.25358 32.858 5.39449 32.6005 5.72497L33.1921 6.18596ZM32.9837 5.213L32.5965 4.5707C32.6057 4.56515 32.6264 4.5549 32.6569 4.54887C32.6878 4.54276 32.7157 4.5436 32.7358 4.54697C32.7543 4.55009 32.7584 4.55401 32.7463 4.54799C32.7338 4.54173 32.7083 4.5269 32.6703 4.49636L32.2009 5.08131L31.7315 5.66626C31.9377 5.83179 32.1906 5.97633 32.4869 6.02618C32.8015 6.07911 33.1063 6.01484 33.3709 5.8553L32.9837 5.213ZM32.2009 5.08131L32.6703 4.49636C32.4583 4.32627 32.1782 4.16887 31.8405 4.14923C31.4766 4.12806 31.1672 4.27326 30.9367 4.48537L31.4445 5.03731L31.9523 5.58925C31.9504 5.59098 31.9303 5.60888 31.89 5.62478C31.8474 5.64163 31.7994 5.64937 31.7534 5.6467C31.6679 5.64172 31.6571 5.60655 31.7315 5.66626L32.2009 5.08131ZM31.4445 5.03731L30.9367 4.48537C30.7153 4.68902 30.5021 4.88903 30.2971 5.0854L30.8158 5.62706L31.3346 6.16873C31.532 5.97969 31.7379 5.78654 31.9523 5.58925L31.4445 5.03731ZM30.8158 5.62706L30.2971 5.0854C30.1655 5.21145 30.0461 5.27848 29.9403 5.31242L30.1692 6.02664L30.398 6.74086C30.752 6.62743 31.0638 6.42808 31.3346 6.16873L30.8158 5.62706ZM30.1692 6.02664L29.9403 5.31242C29.7851 5.36213 29.611 5.3915 29.414 5.39567L29.4298 6.1455L29.4457 6.89533C29.7746 6.88837 30.0933 6.8385 30.398 6.74086L30.1692 6.02664ZM29.4298 6.1455L29.414 5.39567C29.1125 5.40205 28.814 5.43151 28.5189 5.4842L28.6507 6.22253L28.7825 6.96085C29.0003 6.92197 29.2212 6.90008 29.4457 6.89533L29.4298 6.1455ZM28.6507 6.22253L28.5189 5.4842C28.0833 5.56197 27.7135 5.78242 27.4335 6.12158L28.0119 6.59901L28.5903 7.07644C28.6491 7.0052 28.7052 6.97465 28.7825 6.96085L28.6507 6.22253ZM28.0119 6.59901L27.4335 6.12158C27.3881 6.1766 27.3372 6.20991 27.2388 6.22416L27.3463 6.96641L27.4538 7.70867C27.9041 7.64345 28.297 7.43182 28.5903 7.07644L28.0119 6.59901ZM27.3463 6.96641L27.2388 6.22416C26.9677 6.26343 26.7051 6.37527 26.4894 6.58068C26.2788 6.78131 26.1557 7.03022 26.0877 7.27743L26.8107 7.47656L27.5338 7.67569C27.5485 7.62253 27.5561 7.63624 27.524 7.66682C27.5085 7.68156 27.4907 7.69336 27.4738 7.70118C27.4577 7.70865 27.4493 7.70933 27.4538 7.70867L27.3463 6.96641ZM26.8107 7.47656L26.0877 7.27743C26.0821 7.2975 26.0788 7.30041 26.0834 7.29276C26.0885 7.28412 26.0998 7.26858 26.1188 7.25252C26.1378 7.23638 26.1562 7.22685 26.1684 7.22216C26.1795 7.2179 26.1794 7.21994 26.1625 7.22146L26.2301 7.96841L26.2977 8.71536C26.5715 8.69059 26.8513 8.59781 27.0883 8.39708C27.3242 8.19724 27.4616 7.93786 27.5338 7.67569L26.8107 7.47656ZM26.2301 7.96841L26.1625 7.22146C25.7768 7.25636 25.4108 7.35264 25.0755 7.52157L25.413 8.19136L25.7505 8.86115C25.8959 8.7879 26.0747 8.73554 26.2977 8.71536L26.2301 7.96841ZM25.413 8.19136L25.0755 7.52157C24.7264 7.69749 24.4344 7.94815 24.2135 8.27079L24.8324 8.6945L25.4512 9.11822C25.5238 9.01219 25.6189 8.92742 25.7505 8.86115L25.413 8.19136ZM24.8324 8.6945L24.2135 8.27079C23.9841 8.60586 23.8616 8.98886 23.8245 9.39476L24.5714 9.46299L25.3183 9.53121C25.3357 9.34113 25.3871 9.21181 25.4512 9.11822L24.8324 8.6945ZM24.5714 9.46299L23.8245 9.39476C23.8223 9.41932 23.8153 9.496 23.6384 9.6203L24.0697 10.2339L24.501 10.8475C24.9386 10.5399 25.2661 10.1026 25.3183 9.53121L24.5714 9.46299ZM24.0697 10.2339L23.6384 9.6203C23.591 9.65366 23.5747 9.6588 23.5858 9.65438C23.5931 9.65148 23.6709 9.62039 23.7923 9.6349C23.9371 9.6522 24.0724 9.72621 24.1645 9.83556C24.2416 9.92699 24.258 10.0065 24.2593 10.0122L23.5258 10.1689L22.7924 10.3256C22.8213 10.4609 22.8812 10.6404 23.0174 10.802C23.1687 10.9816 23.3789 11.0962 23.6143 11.1243C24.0042 11.1709 24.3309 10.9671 24.501 10.8475L24.0697 10.2339ZM23.5258 10.1689L24.2593 10.0122C24.2094 9.77904 24.1684 9.52527 24.1367 9.2502L23.3916 9.33589L22.6466 9.42158C22.683 9.7386 22.7314 10.0402 22.7924 10.3256L23.5258 10.1689ZM23.3916 9.33589L24.1367 9.2502C24.1053 8.97727 24.0036 8.69842 23.7904 8.46828C23.579 8.24014 23.3116 8.11761 23.049 8.05998L22.8882 8.79255L22.7275 9.52512C22.7664 9.53367 22.7337 9.53478 22.6901 9.48776C22.6701 9.46613 22.6573 9.4441 22.6503 9.42761C22.6438 9.41233 22.645 9.4082 22.6466 9.42158L23.3916 9.33589ZM22.8882 8.79255L23.049 8.05998C22.819 8.00952 22.6595 7.93822 22.5499 7.8636L22.1278 8.48353L21.7057 9.10346C22.0068 9.30852 22.3543 9.44324 22.7275 9.52512L22.8882 8.79255ZM22.1278 8.48353L22.5499 7.8636C22.5042 7.83248 22.4452 7.77303 22.397 7.62567L21.6841 7.85857L20.9712 8.09147C21.1039 8.4977 21.3406 8.85488 21.7057 9.10346L22.1278 8.48353ZM21.6841 7.85857L22.397 7.62567C22.2482 7.16998 21.9453 6.79615 21.4778 6.60167L21.1897 7.29411L20.9016 7.98656C20.9191 7.99384 20.9245 7.99941 20.9285 8.00401C20.9341 8.01047 20.9523 8.03367 20.9712 8.09147L21.6841 7.85857ZM21.1897 7.29411L21.4778 6.60167C21.1934 6.4833 20.8981 6.39301 20.5929 6.33046L20.4423 7.06519L20.2917 7.79992C20.5048 7.84358 20.7078 7.90591 20.9016 7.98656L21.1897 7.29411ZM20.4423 7.06519L20.5929 6.33046C20.5942 6.33074 20.6019 6.33264 20.6126 6.33828C20.6234 6.34398 20.631 6.35024 20.6348 6.35397C20.6417 6.36078 20.6205 6.34358 20.593 6.26659L19.8868 6.51923L19.1806 6.77187C19.3548 7.25878 19.7101 7.68072 20.2917 7.79992L20.4423 7.06519ZM19.8868 6.51923L20.593 6.26659C20.4284 5.80648 20.1149 5.39515 19.5961 5.21838L19.3542 5.9283L19.1123 6.63823C19.1132 6.63853 19.1117 6.63802 19.1095 6.63659C19.1075 6.63523 19.1087 6.63558 19.1131 6.64046C19.1225 6.65087 19.1502 6.6867 19.1806 6.77187L19.8868 6.51923ZM19.3542 5.9283L19.5961 5.21838C19.3494 5.13432 19.1035 5.05221 18.8584 4.97206L18.6253 5.68492L18.3922 6.39777C18.6313 6.47598 18.8714 6.55613 19.1123 6.63823L19.3542 5.9283ZM18.6253 5.68492L18.8584 4.97206C18.6507 4.90416 18.4478 4.82121 18.2494 4.72297L17.9166 5.39508L17.5838 6.06718C17.846 6.19705 18.1156 6.30732 18.3922 6.39777L18.6253 5.68492ZM17.9166 5.39508L18.2494 4.72297C18.009 4.60389 17.7646 4.48968 17.5165 4.38034L17.2141 5.06668L16.9117 5.75301C17.1396 5.85344 17.3636 5.95816 17.5838 6.06718L17.9166 5.39508ZM17.2141 5.06668L17.5165 4.38034C16.9603 4.1353 16.4165 4.30182 15.9952 4.58628L16.4149 5.20786L16.8346 5.82944C16.9209 5.77112 16.9636 5.76233 16.9662 5.76187C16.9662 5.76187 16.9582 5.76316 16.9448 5.76163C16.9311 5.76006 16.9194 5.75642 16.9117 5.75301L17.2141 5.06668ZM16.4149 5.20786L15.9952 4.58628C15.9092 4.64435 15.8706 4.65004 15.8752 4.64929C15.879 4.64866 15.8914 4.64734 15.9093 4.64985C15.9274 4.65241 15.9427 4.65772 15.953 4.66272L15.6249 5.33716L15.2968 6.01159C15.857 6.28411 16.4124 6.11446 16.8346 5.82944L16.4149 5.20786ZM15.6249 5.33716L15.953 4.66272C15.7643 4.57092 15.5606 4.44909 15.3418 4.29332L14.9068 4.90422L14.4717 5.51513C14.7467 5.71099 15.0218 5.87778 15.2968 6.01159L15.6249 5.33716ZM14.9068 4.90422L15.3418 4.29332C14.9395 4.00676 14.4545 3.88288 13.946 4.03229L14.1575 4.75187L14.3689 5.47145C14.3773 5.46897 14.3811 5.46883 14.3814 5.46881C14.3815 5.46881 14.3822 5.46871 14.3848 5.46924C14.3893 5.47015 14.4178 5.47677 14.4717 5.51513L14.9068 4.90422ZM14.1575 4.75187L13.946 4.03229C13.7531 4.08898 13.5633 4.11902 13.3754 4.12434L13.3966 4.87404L13.4178 5.62374C13.739 5.61465 14.0565 5.56324 14.3689 5.47145L14.1575 4.75187ZM13.3966 4.87404L13.3754 4.12434C12.9109 4.13749 12.5076 4.33232 12.1791 4.63378L12.6863 5.18633L13.1934 5.73888C13.3029 5.63837 13.3732 5.625 13.4178 5.62374L13.3966 4.87404ZM12.6863 5.18633L12.1791 4.63378C12.0518 4.75063 11.9609 4.77955 11.9023 4.78649L11.9904 5.53129L12.0786 6.27609C12.5098 6.22507 12.8828 6.02401 13.1934 5.73888L12.6863 5.18633ZM11.9904 5.53129L11.9023 4.78649C11.7535 4.80409 11.5747 4.79628 11.3598 4.7491L11.199 5.48165L11.0381 6.2142C11.3887 6.29117 11.7376 6.31645 12.0786 6.27609L11.9904 5.53129ZM11.199 5.48165L11.3598 4.7491C10.9723 4.66403 10.5816 4.66383 10.2013 4.76873L10.4007 5.49173L10.6001 6.21474C10.7186 6.18205 10.8601 6.17512 11.0381 6.2142L11.199 5.48165ZM10.4007 5.49173L10.2013 4.76873C9.87678 4.85823 9.57227 4.99585 9.29022 5.18022L9.70057 5.808L10.1109 6.43578C10.2635 6.33606 10.4257 6.26283 10.6001 6.21474L10.4007 5.49173ZM9.70057 5.808L9.29022 5.18022C9.05818 5.33189 8.83275 5.4909 8.61398 5.65724L9.06794 6.25425L9.52189 6.85126C9.71202 6.70669 9.90835 6.5682 10.1109 6.43578L9.70057 5.808ZM9.06794 6.25425L8.61398 5.65724C8.47692 5.76146 8.32049 5.8448 8.14009 5.90583L8.38043 6.61627L8.62077 7.32672C8.94816 7.21597 9.25007 7.05795 9.52189 6.85126L9.06794 6.25425ZM8.38043 6.61627L8.14009 5.90583C7.68523 6.0597 7.34574 6.37429 7.14103 6.79922L7.8167 7.12473L8.49238 7.45025C8.53152 7.36901 8.56784 7.34463 8.62077 7.32672L8.38043 6.61627ZM7.8167 7.12473L7.14103 6.79922C7.0343 7.02076 6.92042 7.21728 6.80052 7.39055L7.41727 7.81731L8.03401 8.24407C8.20285 8.00007 8.35526 7.73487 8.49238 7.45025L7.8167 7.12473ZM7.41727 7.81731L6.80052 7.39055C6.64913 7.60933 6.50443 7.82998 6.36646 8.0525L7.00387 8.44773L7.64128 8.84296C7.76576 8.6422 7.89666 8.44257 8.03401 8.24407L7.41727 7.81731ZM7.00387 8.44773L6.36646 8.0525C6.26919 8.20938 6.1541 8.3506 6.0202 8.47742L6.53594 9.02195L7.05169 9.56647C7.27924 9.35095 7.4761 9.10936 7.64128 8.84296L7.00387 8.44773ZM6.53594 9.02195L6.0202 8.47742C5.75184 8.7316 5.55453 9.03786 5.43184 9.38656L6.13933 9.63548L6.84681 9.88441C6.8915 9.7574 6.95861 9.65464 7.05169 9.56647L6.53594 9.02195ZM6.13933 9.63548L5.43184 9.38656C5.35391 9.60805 5.27003 9.82191 5.18029 10.0283L5.86808 10.3274L6.55586 10.6264C6.66041 10.386 6.75737 10.1386 6.84681 9.88441L6.13933 9.63548ZM5.86808 10.3274L5.18029 10.0283C5.11816 10.1711 5.0301 10.3071 4.9105 10.4371L5.46237 10.9449L6.01424 11.4528C6.24129 11.2061 6.4237 10.9303 6.55586 10.6264L5.86808 10.3274ZM5.46237 10.9449L4.9105 10.4371C4.71758 10.6467 4.5371 10.8671 4.36913 11.0982L4.97577 11.5392L5.58241 11.9802C5.71659 11.7956 5.86052 11.6199 6.01424 11.4528L5.46237 10.9449ZM4.97577 11.5392L4.36913 11.0982C4.16674 11.3766 4.01758 11.6822 3.92556 12.0121L4.64798 12.2136L5.37041 12.4151C5.41327 12.2614 5.48263 12.1174 5.58241 11.9802L4.97577 11.5392ZM4.64798 12.2136L3.92556 12.0121C3.88231 12.1672 3.80975 12.3224 3.70067 12.4792L4.31624 12.9076L4.93182 13.3361C5.13017 13.0511 5.27877 12.7437 5.37041 12.4151L4.64798 12.2136ZM4.31624 12.9076L3.70067 12.4792C3.50303 12.7631 3.35371 13.0696 3.25752 13.3972L3.97714 13.6085L4.69675 13.8198C4.74527 13.6546 4.82202 13.4938 4.93182 13.3361L4.31624 12.9076ZM3.97714 13.6085L3.25752 13.3972C3.12655 13.8431 3.18551 14.2877 3.3688 14.6954L4.05286 14.3879L4.73692 14.0804C4.67453 13.9416 4.68301 13.8666 4.69675 13.8198L3.97714 13.6085ZM4.05286 14.3879L3.3688 14.6954C3.39421 14.752 3.39546 14.7805 3.39547 14.7871C3.39549 14.7912 3.3957 14.7988 3.38588 14.8182L4.05482 15.1573L4.72376 15.4965C4.96043 15.0297 4.9406 14.5335 4.73692 14.0804L4.05286 14.3879ZM4.05482 15.1573L3.38588 14.8182C3.19633 15.1921 3.126 15.5983 3.19294 16.0158L3.93348 15.897L4.67402 15.7783C4.65969 15.6889 4.67025 15.602 4.72376 15.4965L4.05482 15.1573ZM3.93348 15.897L3.19294 16.0158C3.22198 16.1969 3.22387 16.3746 3.19947 16.5513L3.94242 16.6539L4.68537 16.7565C4.73032 16.4309 4.72626 16.1041 4.67402 15.7783L3.93348 15.897ZM3.94242 16.6539L3.19947 16.5513C3.15582 16.8674 3.15386 17.1843 3.19379 17.5004L3.93787 17.4064L4.68196 17.3124C4.65859 17.1275 4.65966 16.9427 4.68537 16.7565L3.94242 16.6539ZM3.93787 17.4064L3.19379 17.5004C3.21915 17.7012 3.22479 17.9065 3.21003 18.1171L3.95819 18.1695L4.70636 18.222C4.7278 17.9162 4.7199 17.6127 4.68196 17.3124L3.93787 17.4064ZM3.95819 18.1695L3.21003 18.1171C3.18842 18.4254 3.19784 18.7319 3.23874 19.036L3.98204 18.936L4.72535 18.8361C4.69824 18.6345 4.69177 18.4301 4.70636 18.222L3.95819 18.1695ZM3.98204 18.936L3.23874 19.036C3.29815 19.4777 3.51126 19.854 3.8199 20.1584L4.34655 19.6244L4.87321 19.0905C4.76385 18.9826 4.73395 18.9 4.72535 18.8361L3.98204 18.936ZM4.34655 19.6244L3.8199 20.1584C3.9119 20.2492 3.91977 20.3037 3.92075 20.3399L4.67047 20.3197L5.4202 20.2994C5.40729 19.821 5.19922 19.412 4.87321 19.0905L4.34655 19.6244ZM4.67047 20.3197L3.92075 20.3399C3.92856 20.6294 3.9549 20.9166 3.99986 21.2012L4.74067 21.0841L5.48149 20.9671C5.44673 20.7471 5.42628 20.5246 5.4202 20.2994L4.67047 20.3197ZM4.74067 21.0841L3.99986 21.2012C4.06294 21.6005 4.23619 21.9567 4.50212 22.2587L5.06507 21.7632L5.62801 21.2676C5.54113 21.1689 5.49812 21.0724 5.48149 20.9671L4.74067 21.0841ZM5.06507 21.7632L4.50212 22.2587C4.66465 22.4434 4.81388 22.6285 4.95013 22.8141L5.55472 22.3703L6.15931 21.9265C5.9955 21.7034 5.81829 21.4837 5.62801 21.2676L5.06507 21.7632ZM5.55472 22.3703L4.95013 22.8141C4.9534 22.8186 4.98592 22.8509 4.9598 22.9948L5.69774 23.1288L6.43568 23.2628C6.51893 22.8041 6.45611 22.3308 6.15931 21.9265L5.55472 22.3703ZM5.69774 23.1288L4.9598 22.9948C4.86766 23.5024 4.98344 24.0145 5.3895 24.4005L5.90623 23.8569L6.42297 23.3133C6.41832 23.3089 6.41946 23.309 6.42264 23.3142C6.42596 23.3196 6.4285 23.3256 6.42986 23.3303C6.43284 23.3407 6.42458 23.3239 6.43568 23.2628L5.69774 23.1288ZM5.90623 23.8569L5.3895 24.4005C5.4683 24.4754 5.50888 24.5529 5.52631 24.6524L6.26507 24.523L7.00382 24.3936C6.93019 23.9733 6.73155 23.6067 6.42297 23.3133L5.90623 23.8569ZM6.26507 24.523L5.52631 24.6524C5.6205 25.1901 5.96657 25.569 6.42195 25.7859L6.74452 25.1089L7.0671 24.4318C7.00985 24.4045 6.99661 24.3859 6.99948 24.3894C7.00064 24.3909 7.00271 24.3939 7.00431 24.3975C7.00583 24.4009 7.00501 24.4004 7.00382 24.3936L6.26507 24.523ZM6.74452 25.1089L6.42195 25.7859C6.48759 25.8172 6.51599 25.8434 6.52634 25.8548C6.53457 25.8638 6.53889 25.871 6.54289 25.8848L7.26327 25.6761L7.98364 25.4674C7.84157 24.977 7.49682 24.6365 7.0671 24.4318L6.74452 25.1089ZM7.26327 25.6761L6.54289 25.8848C6.58663 26.0357 6.609 26.2264 6.59487 26.4664L7.34357 26.5105L8.09227 26.5546C8.1145 26.1771 8.08335 25.8115 7.98364 25.4674L7.26327 25.6761ZM7.34357 26.5105L6.59487 26.4664C6.57977 26.7227 6.61681 26.9939 6.74584 27.2488C6.87704 27.508 7.07869 27.7013 7.31303 27.8345L7.68379 27.1826L8.05455 26.5306C8.04701 26.5263 8.05033 26.5271 8.05867 26.5355C8.06749 26.5445 8.07685 26.5569 8.08413 26.5713C8.09124 26.5854 8.09295 26.5944 8.0929 26.5942C8.09273 26.5932 8.09071 26.5811 8.09227 26.5546L7.34357 26.5105ZM7.68379 27.1826L7.31303 27.8345C7.43138 27.9018 7.48468 27.9712 7.51516 28.0418L8.20368 27.7444L8.8922 27.447C8.7195 27.0471 8.4262 26.742 8.05455 26.5306L7.68379 27.1826ZM8.20368 27.7444L7.51516 28.0418C7.70212 28.4746 8.03909 28.7771 8.45381 28.9589L8.75493 28.272L9.05605 27.5851C8.93896 27.5338 8.90843 27.4846 8.8922 27.447L8.20368 27.7444ZM8.75493 28.272L8.45381 28.9589C8.4781 28.9696 8.49319 28.9789 8.50178 28.985C8.51011 28.9909 8.51339 28.9945 8.51409 28.9953C8.51469 28.996 8.51531 28.9967 8.51642 28.9989C8.51764 29.0013 8.52087 29.0082 8.5243 29.0219L9.25198 28.8403L9.97966 28.6587C9.85331 28.1524 9.51655 27.787 9.05605 27.5851L8.75493 28.272ZM9.25198 28.8403L8.5243 29.0219C8.58712 29.2737 8.64566 29.5316 8.69989 29.7959L9.43458 29.6452L10.1693 29.4944C10.111 29.2102 10.0478 28.9316 9.97966 28.6587L9.25198 28.8403ZM9.43458 29.6452L8.69989 29.7959C8.75503 30.0647 8.88099 30.3183 9.09286 30.5224C9.3 30.7219 9.55049 30.8369 9.80002 30.8986L9.98003 30.1705L10.16 29.4424C10.1022 29.4281 10.1081 29.4176 10.1334 29.442C10.1456 29.4537 10.1559 29.4676 10.163 29.4811C10.1699 29.494 10.1704 29.5001 10.1693 29.4944L9.43458 29.6452ZM9.98003 30.1705L9.80002 30.8986C9.88282 30.9191 9.92475 30.9425 9.9427 30.955C9.95758 30.9654 9.9619 30.9719 9.9655 30.9785L10.6238 30.6191L11.282 30.2597C11.0357 29.8086 10.6177 29.5556 10.16 29.4424L9.98003 30.1705ZM10.6238 30.6191L9.9655 30.9785C10.0826 31.193 10.1964 31.4114 10.3069 31.6337L10.9785 31.3L11.6502 30.9662C11.5312 30.7268 11.4085 30.4913 11.282 30.2597L10.6238 30.6191ZM10.9785 31.3L10.3069 31.6337C10.4495 31.9206 10.6249 32.1844 10.8335 32.423L11.3982 31.9295L11.9629 31.4359C11.8414 31.2969 11.7371 31.141 11.6502 30.9662L10.9785 31.3ZM11.3982 31.9295L10.8335 32.423C10.9892 32.6012 11.14 32.7839 11.2858 32.9711L11.8775 32.5103L12.4692 32.0495C12.3061 31.84 12.1373 31.6354 11.9629 31.4359L11.3982 31.9295ZM11.8775 32.5103L11.2858 32.9711C11.4462 33.1771 11.6105 33.3799 11.7786 33.5793L12.3521 33.096L12.9255 32.6126C12.7699 32.428 12.6178 32.2403 12.4692 32.0495L11.8775 32.5103ZM12.3521 33.096L11.7786 33.5793C11.9135 33.7394 12.0367 33.9125 12.1479 34.0993L12.7923 33.7155L13.4367 33.3318C13.2847 33.0765 13.1143 32.8366 12.9255 32.6126L12.3521 33.096ZM12.7923 33.7155L12.1479 34.0993C12.3169 34.3831 12.5234 34.6365 12.7667 34.8568L13.27 34.3008L13.7734 33.7448C13.643 33.6267 13.5309 33.49 13.4367 33.3318L12.7923 33.7155ZM13.27 34.3008L12.7667 34.8568C13.0638 35.1258 13.4236 35.2951 13.8151 35.3863L13.9853 34.6559L14.1555 33.9255C13.9671 33.8816 13.8501 33.8142 13.7734 33.7448L13.27 34.3008ZM13.9853 34.6559L13.8151 35.3863C13.8364 35.3913 13.8452 35.3957 13.8453 35.3958C13.8454 35.3958 13.8436 35.3949 13.8406 35.3929C13.8376 35.3908 13.8339 35.3879 13.8299 35.3842C13.8259 35.3804 13.8222 35.3765 13.8191 35.3725C13.816 35.3686 13.8139 35.3654 13.8126 35.3633C13.8101 35.359 13.8126 35.3617 13.8166 35.3757L14.5378 35.1702L15.2591 34.9646C15.1877 34.7139 15.0572 34.4773 14.8518 34.2861C14.6477 34.0962 14.4044 33.9835 14.1555 33.9255L13.9853 34.6559ZM14.5378 35.1702L13.8166 35.3757C13.8941 35.6479 14.0478 35.9023 14.2968 36.0895C14.5388 36.2714 14.8165 36.3491 15.0787 36.3709L15.1409 35.6234L15.203 34.876C15.1417 34.8709 15.1571 34.8596 15.1981 34.8904C15.2181 34.9055 15.235 34.924 15.2469 34.9422C15.2583 34.9596 15.2605 34.9694 15.2591 34.9646L14.5378 35.1702ZM15.1409 35.6234L15.0787 36.3709C15.1616 36.3778 15.1933 36.394 15.1961 36.3956C15.1972 36.3962 15.1941 36.3945 15.1895 36.3901C15.1849 36.3857 15.1828 36.3823 15.1829 36.3825L15.8259 35.9965L16.469 35.6104C16.18 35.1291 15.6986 34.9172 15.203 34.876L15.1409 35.6234ZM15.8259 35.9965L15.1829 36.3825C15.3421 36.6476 15.5252 36.8923 15.7326 37.115L16.2815 36.6039L16.8304 36.0928C16.6967 35.9492 16.5761 35.7889 16.469 35.6104L15.8259 35.9965ZM16.2815 36.6039L15.7326 37.115C15.8583 37.25 15.9706 37.4057 16.0684 37.5848L16.7267 37.2254L17.3849 36.8659C17.2302 36.5827 17.0457 36.3241 16.8304 36.0928L16.2815 36.6039ZM16.7267 37.2254L16.0684 37.5848C16.2644 37.9437 16.5491 38.2266 16.9121 38.417L17.2604 37.7528L17.6088 37.0886C17.5125 37.0381 17.4414 36.9694 17.3849 36.8659L16.7267 37.2254ZM17.2604 37.7528L16.9121 38.417C17.1187 38.5253 17.3153 38.6421 17.5021 38.7671L17.9192 38.1437L18.3362 37.5203C18.1039 37.3649 17.8613 37.221 17.6088 37.0886L17.2604 37.7528ZM17.9192 38.1437L17.5021 38.7671C17.7322 38.921 17.9703 39.0638 18.2162 39.1955L18.5703 38.5344L18.9244 37.8733C18.7213 37.7644 18.5252 37.6468 18.3362 37.5203L17.9192 38.1437ZM18.5703 38.5344L18.2162 39.1955C18.3831 39.2849 18.5319 39.3922 18.6646 39.5177L19.1799 38.9728L19.6952 38.4279C19.4642 38.2094 19.2066 38.0244 18.9244 37.8733L18.5703 38.5344ZM19.1799 38.9728L18.6646 39.5177C18.9004 39.7408 19.1656 39.926 19.4574 40.0732L19.7951 39.4035L20.1328 38.7338C19.9681 38.6508 19.8232 38.5489 19.6952 38.4279L19.1799 38.9728ZM19.7951 39.4035L19.4574 40.0732C19.4539 40.0714 19.4479 40.0676 19.4418 40.062C19.4357 40.0564 19.4338 40.053 19.4351 40.055C19.4385 40.0604 19.459 40.0967 19.4732 40.1888L20.2144 40.0743L20.9556 39.9598C20.8801 39.4712 20.6426 38.9909 20.1328 38.7338L19.7951 39.4035ZM20.2144 40.0743L19.4732 40.1888C19.5419 40.6334 19.716 41.0632 20.0666 41.3813L20.5706 40.8259L21.0745 40.2704C21.0528 40.2507 20.9895 40.1795 20.9556 39.9598L20.2144 40.0743ZM20.5706 40.8259L20.0666 41.3813C20.3054 41.5979 20.5715 41.7783 20.8627 41.9224L21.1953 41.2501L21.5279 40.5779C21.3584 40.4941 21.2081 40.3916 21.0745 40.2704L20.5706 40.8259ZM21.1953 41.2501L20.8627 41.9224C21.1353 42.0572 21.4219 42.1671 21.7214 42.2528L21.9276 41.5317L22.1338 40.8106C21.9175 40.7487 21.7159 40.6709 21.5279 40.5779L21.1953 41.2501ZM21.9276 41.5317L21.7214 42.2528C21.927 42.3115 22.1106 42.3881 22.2748 42.4804L22.6423 41.8266L23.0099 41.1728C22.7369 41.0194 22.444 40.8993 22.1338 40.8106L21.9276 41.5317ZM22.6423 41.8266L22.2748 42.4804C22.4179 42.5608 22.5455 42.6641 22.6594 42.7941L23.2233 42.2996L23.7873 41.8051C23.5637 41.5502 23.304 41.3382 23.0099 41.1728L22.6423 41.8266ZM23.2233 42.2996L22.6594 42.7941C22.8721 43.0366 23.1109 43.2433 23.3789 43.401L23.7591 42.7545L24.1393 42.108C24.0304 42.044 23.912 41.9474 23.7873 41.8051L23.2233 42.2996ZM23.7591 42.7545L23.3789 43.401C23.6082 43.5359 23.9046 43.6124 24.2245 43.5275C24.5225 43.4484 24.7328 43.2572 24.8722 43.0824L24.286 42.6146L23.6997 42.1468C23.6764 42.1761 23.7174 42.1102 23.8397 42.0777C23.9029 42.0609 23.9684 42.0589 24.0283 42.0695C24.0854 42.0795 24.123 42.0984 24.1393 42.108L23.7591 42.7545ZM24.286 42.6146L24.8722 43.0824C25.0174 42.9004 25.1683 42.7324 25.3248 42.5779L24.7976 42.0443L24.2705 41.5108C24.0704 41.7085 23.8802 41.9207 23.6997 42.1468L24.286 42.6146ZM24.7976 42.0443L25.3248 42.5779C25.3313 42.5714 25.3678 42.5303 25.528 42.5304L25.5285 41.7804L25.5291 41.0304C25.0713 41.0301 24.6206 41.165 24.2705 41.5108L24.7976 42.0443ZM25.5285 41.7804L25.528 42.5304C25.7977 42.5306 26.0854 42.468 26.3409 42.2905C26.5983 42.1118 26.7579 41.8619 26.8482 41.6025L26.1399 41.356L25.4315 41.1095C25.4268 41.123 25.4262 41.1196 25.4352 41.1068C25.445 41.093 25.4617 41.0749 25.4854 41.0584C25.5089 41.0421 25.5297 41.0342 25.5413 41.031C25.5518 41.0281 25.5495 41.0305 25.5291 41.0304L25.5285 41.7804ZM26.1399 41.356L26.8482 41.6025C26.8538 41.5862 26.8564 41.585 26.8512 41.5925C26.8455 41.6009 26.8343 41.6142 26.8172 41.6271C26.8001 41.6401 26.7847 41.6471 26.776 41.65C26.7682 41.6527 26.7712 41.6504 26.7896 41.6492L26.7394 40.9008L26.6891 40.1525C26.4223 40.1705 26.1487 40.2513 25.9102 40.4324C25.6713 40.6138 25.5197 40.856 25.4315 41.1095L26.1399 41.356ZM26.7394 40.9008L26.7896 41.6492C27.0661 41.6306 27.3519 41.5412 27.5933 41.3362C27.8325 41.1331 27.9668 40.8684 28.0355 40.6062L27.3099 40.4163L26.5844 40.2263C26.5789 40.2472 26.5757 40.2496 26.581 40.2404C26.587 40.2302 26.6 40.2118 26.6224 40.1929C26.6449 40.1737 26.6675 40.1619 26.6842 40.1558C26.6996 40.1501 26.7033 40.1516 26.6891 40.1525L26.7394 40.9008ZM27.3099 40.4163L28.0355 40.6062C28.0869 40.4098 28.1557 40.3216 28.203 40.28L27.7077 39.7168L27.2123 39.1537C26.8879 39.4391 26.6915 39.8172 26.5844 40.2263L27.3099 40.4163ZM27.7077 39.7168L28.203 40.28C28.1908 40.2908 28.188 40.2857 28.2179 40.2789C28.2526 40.271 28.3229 40.2631 28.4418 40.2761L28.5237 39.5306L28.6057 38.7851C28.1348 38.7334 27.6172 38.7976 27.2123 39.1537L27.7077 39.7168ZM28.5237 39.5306L28.4418 40.2761C28.7013 40.3047 28.9871 40.2911 29.2599 40.1786C29.5486 40.0596 29.7715 39.8505 29.9137 39.5815L29.2506 39.2309L28.5876 38.8804C28.5927 38.8707 28.6048 38.852 28.6264 38.8321C28.6483 38.812 28.6709 38.799 28.6882 38.7919C28.7042 38.7853 28.7088 38.7865 28.6954 38.7878C28.6815 38.7892 28.6527 38.7903 28.6057 38.7851L28.5237 39.5306ZM29.2506 39.2309L29.9137 39.5815C30.0088 39.4016 30.118 39.2526 30.2389 39.1296L29.7039 38.6039L29.169 38.0782C28.9384 38.3129 28.7454 38.582 28.5876 38.8804L29.2506 39.2309ZM29.7039 38.6039L30.2389 39.1296C30.3181 39.0489 30.4251 38.9805 30.581 38.9333L30.3633 38.2156L30.1456 37.4979C29.7738 37.6106 29.4413 37.8011 29.169 38.0782L29.7039 38.6039ZM30.3633 38.2156L30.581 38.9333C30.8539 38.8505 31.0983 38.6907 31.2779 38.4477C31.4511 38.2132 31.532 37.9452 31.5623 37.689L30.8175 37.601L30.0726 37.513C30.064 37.5865 30.0497 37.5858 30.0715 37.5561C30.0827 37.541 30.0981 37.5259 30.1158 37.5137C30.133 37.5019 30.1449 37.4981 30.1456 37.4979L30.3633 38.2156ZM30.8175 37.601L31.5623 37.689C31.5886 37.4663 31.6491 37.3783 31.679 37.3465L31.1318 36.8335L30.5846 36.3206C30.2733 36.6527 30.1242 37.0764 30.0726 37.513L30.8175 37.601ZM31.1318 36.8335L31.679 37.3465C31.667 37.3592 31.6609 37.3566 31.6846 37.3491C31.7135 37.34 31.7783 37.3269 31.8944 37.3316L31.9246 36.5822L31.9549 35.8328C31.4769 35.8135 30.9601 35.92 30.5846 36.3206L31.1318 36.8335ZM31.9246 36.5822L31.8944 37.3316C32.3935 37.3517 32.9419 37.2191 33.2937 36.7336L32.6864 36.2935L32.0791 35.8534C32.0851 35.8451 32.0939 35.8358 32.1042 35.8281C32.1143 35.8206 32.1202 35.8186 32.1177 35.8195C32.1102 35.8224 32.0635 35.8372 31.9549 35.8328L31.9246 36.5822ZM32.6864 36.2935L33.2937 36.7336C33.4067 36.5777 33.5352 36.4411 33.6798 36.3221L33.2032 35.743L32.7267 35.1638C32.4821 35.3651 32.266 35.5955 32.0791 35.8534L32.6864 36.2935ZM33.2032 35.743L33.6798 36.3221C33.9913 36.0658 34.2086 35.7346 34.3405 35.356L33.6322 35.1094L32.9239 34.8628C32.8731 35.0086 32.8044 35.0999 32.7267 35.1638L33.2032 35.743ZM33.6322 35.1094L34.3405 35.356C34.3853 35.2272 34.4456 35.1558 34.5147 35.1069L34.081 34.495L33.6473 33.883C33.3006 34.1288 33.0617 34.467 32.9239 34.8628L33.6322 35.1094ZM34.081 34.495L34.5147 35.1069C34.8413 34.8754 35.0835 34.5665 35.2396 34.1995L34.5494 33.906L33.8592 33.6125C33.8066 33.736 33.7366 33.8198 33.6473 33.883L34.081 34.495ZM34.5494 33.906L35.2396 34.1995C35.2708 34.126 35.3118 34.0818 35.3914 34.0443L35.072 33.3657L34.7525 32.6872C34.344 32.8795 34.0366 33.1954 33.8592 33.6125L34.5494 33.906ZM35.072 33.3657L35.3914 34.0443C35.8041 33.85 36.1117 33.5282 36.2831 33.1034L35.5876 32.8228L34.8921 32.5422C34.8641 32.6114 34.828 32.6516 34.7525 32.6872L35.072 33.3657ZM35.5876 32.8228L36.2831 33.1034C36.3051 33.0488 36.3332 33.0133 36.4141 32.9788L36.1197 32.289L35.8254 31.5992C35.3961 31.7824 35.0694 32.1028 34.8921 32.5422L35.5876 32.8228ZM36.1197 32.289L36.4141 32.9788C36.7324 32.843 37.0228 32.6677 37.2791 32.4497L36.7931 31.8784L36.3072 31.3071C36.1758 31.4189 36.0172 31.5173 35.8254 31.5992L36.1197 32.289ZM36.7931 31.8784L37.2791 32.4497C37.6144 32.1645 37.8172 31.7886 37.9053 31.3676L37.1712 31.214L36.437 31.0604C36.4088 31.1956 36.3595 31.2626 36.3072 31.3071L36.7931 31.8784ZM37.1712 31.214L37.9053 31.3676C37.9156 31.3184 37.9287 31.2979 37.9335 31.2912C37.9377 31.2854 37.9473 31.2736 37.9759 31.2578L37.6137 30.601L37.2516 29.9442C36.8126 30.1863 36.5374 30.5807 36.437 31.0604L37.1712 31.214ZM37.6137 30.601L37.9759 31.2578C38.485 30.977 38.7171 30.4873 38.7313 29.958L37.9815 29.938L37.2318 29.918C37.231 29.9493 37.2275 29.9676 37.2256 29.9755C37.2237 29.983 37.2233 29.981 37.2275 29.9735C37.2319 29.9656 37.2383 29.957 37.2455 29.9499C37.2525 29.9431 37.256 29.9418 37.2516 29.9442L37.6137 30.601ZM37.9815 29.938L38.7313 29.958C38.7318 29.9385 38.7341 29.9376 38.7304 29.9495C38.7263 29.9627 38.7169 29.9843 38.6991 30.0078C38.6813 30.0313 38.6624 30.0467 38.6496 30.055C38.6378 30.0626 38.6366 30.0608 38.6535 30.0557L38.4374 29.3375L38.2213 28.6193C37.9569 28.6988 37.6963 28.8479 37.5043 29.1008C37.3128 29.3532 37.2391 29.6435 37.2318 29.918L37.9815 29.938ZM38.4374 29.3375L38.6535 30.0557C38.9001 29.9815 39.1432 29.8523 39.338 29.6405C39.5361 29.4253 39.6455 29.1668 39.6868 28.8999L38.9456 28.7851L38.2045 28.6703C38.2031 28.679 38.2026 28.6753 38.2079 28.6639C38.2134 28.6518 38.2224 28.6377 38.2342 28.6248C38.2458 28.6123 38.2548 28.6067 38.2556 28.6062C38.2558 28.6061 38.246 28.6118 38.2213 28.6193L38.4374 29.3375ZM38.9456 28.7851L39.6868 28.8999C39.6887 28.8873 39.6905 28.8854 39.6883 28.8904C39.6872 28.8928 39.6855 28.8963 39.683 28.9004C39.6805 28.9045 39.6776 28.9085 39.6745 28.9122C39.6714 28.9159 39.6686 28.9187 39.6666 28.9205C39.6646 28.9223 39.6638 28.9228 39.6647 28.9221C39.6667 28.9208 39.6768 28.9143 39.6994 28.9056L39.4315 28.2051L39.1635 27.5046C38.6509 27.7007 38.292 28.1051 38.2045 28.6703L38.9456 28.7851ZM39.4315 28.2051L39.6994 28.9056C39.9749 28.8002 40.2348 28.6095 40.3937 28.3051C40.5466 28.0123 40.5606 27.7009 40.5216 27.4315L39.7794 27.5388L39.0371 27.646C39.0468 27.7135 39.0271 27.6816 39.064 27.6109C39.0824 27.5758 39.1071 27.5467 39.1318 27.5262C39.1549 27.507 39.1693 27.5024 39.1635 27.5046L39.4315 28.2051ZM39.7794 27.5388L40.5216 27.4315C40.4885 27.2018 40.5299 27.1166 40.541 27.0979L39.8968 26.7139L39.2525 26.3299C39.0097 26.7373 38.9729 27.2019 39.0371 27.646L39.7794 27.5388ZM39.8968 26.7139L40.541 27.0979C40.6394 26.9328 40.7561 26.7784 40.8921 26.6344L40.3468 26.1194L39.8016 25.6045C39.5914 25.827 39.408 26.069 39.2525 26.3299L39.8968 26.7139ZM40.3468 26.1194L40.8921 26.6344C41.0035 26.5164 41.1521 26.4012 41.3488 26.2938L40.9896 25.6355L40.6303 24.9771C40.3162 25.1485 40.0363 25.3559 39.8016 25.6045L40.3468 26.1194ZM40.9896 25.6355L41.3488 26.2938C41.7414 26.0796 42.051 25.7567 42.2078 25.3192L41.5018 25.0662L40.7957 24.8132C40.7804 24.8559 40.7486 24.9126 40.6303 24.9771L40.9896 25.6355ZM41.5018 25.0662L42.2078 25.3192C42.2612 25.1703 42.3402 25.0366 42.4489 24.9142L41.888 24.4163L41.3271 23.9184C41.0929 24.1823 40.9145 24.4818 40.7957 24.8132L41.5018 25.0662ZM41.888 24.4163L42.4489 24.9142C42.6535 24.6837 42.8325 24.4358 42.9849 24.1709L42.3349 23.7969L41.6848 23.4228C41.5842 23.5977 41.4652 23.7628 41.3271 23.9184L41.888 24.4163ZM42.3349 23.7969L42.9849 24.1709C43.2067 23.7855 43.2668 23.3577 43.2111 22.9293L42.4674 23.026L41.7236 23.1227C41.7444 23.2823 41.7161 23.3684 41.6848 23.4228L42.3349 23.7969ZM42.4674 23.026L43.2111 22.9293C43.1772 22.6687 43.1639 22.4277 43.169 22.2055L42.4192 22.1882L41.6694 22.1709C41.6623 22.4778 41.6811 22.7954 41.7236 23.1227L42.4674 23.026ZM42.4192 22.1882L43.169 22.2055C43.1688 22.2118 43.1674 22.226 43.1611 22.2445C43.1547 22.263 43.1462 22.2773 43.1397 22.286C43.1278 22.3017 43.1377 22.2796 43.2165 22.241L42.8874 21.5671L42.5582 20.8932C42.0854 21.1242 41.6839 21.5425 41.6694 22.1709L42.4192 22.1882ZM42.8874 21.5671L43.2165 22.241C43.4539 22.1251 43.6931 21.9504 43.8552 21.6851C44.0252 21.4069 44.0674 21.0993 44.0217 20.8073L43.2808 20.9233L42.5398 21.0392C42.5395 21.0378 42.537 21.0197 42.5422 20.9904C42.5476 20.9598 42.5593 20.9291 42.5752 20.903C42.6062 20.8523 42.6269 20.8597 42.5582 20.8932L42.8874 21.5671ZM43.2808 20.9233L44.0217 20.8073C43.9975 20.6521 44.0175 20.5466 44.0537 20.4658L43.3691 20.1595L42.6846 19.8531C42.5154 20.2311 42.4765 20.6348 42.5398 21.0392L43.2808 20.9233ZM43.3691 20.1595L44.0537 20.4658C44.1848 20.173 44.2733 19.8672 44.3184 19.5503L43.5759 19.4446L42.8334 19.3389C42.8082 19.5163 42.7589 19.687 42.6846 19.8531L43.3691 20.1595ZM43.5759 19.4446L44.3184 19.5503C44.3645 19.227 44.3608 18.9007 44.31 18.5741L43.5689 18.6893L42.8278 18.8045C42.8568 18.9907 42.8578 19.168 42.8334 19.3389L43.5759 19.4446ZM43.5689 18.6893L44.31 18.5741C44.3112 18.5819 44.3119 18.5952 44.3096 18.6111C44.3072 18.6269 44.3029 18.6377 44.301 18.6417C44.2982 18.6476 44.312 18.6156 44.386 18.5548L43.9098 17.9754L43.4336 17.3959C43.0388 17.7204 42.7338 18.2003 42.8278 18.8045L43.5689 18.6893ZM43.9098 17.9754L44.386 18.5548C44.6133 18.3681 44.8536 18.0681 44.8647 17.6493C44.8755 17.2444 44.6651 16.9329 44.4695 16.7297L43.9291 17.2498L43.3887 17.7698C43.4474 17.8308 43.3609 17.7724 43.3653 17.6094C43.37 17.4324 43.4735 17.3631 43.4336 17.3959L43.9098 17.9754ZM43.9291 17.2498L44.4695 16.7297C44.4319 16.6906 44.4086 16.6603 44.3947 16.6394C44.3809 16.6186 44.3784 16.6099 44.3795 16.6132C44.381 16.6174 44.3852 16.6317 44.3857 16.6536C44.3863 16.6759 44.3829 16.6965 44.378 16.7121L43.6623 16.4879L42.9466 16.2637C42.7549 16.8754 43.037 17.4043 43.3887 17.7698L43.9291 17.2498ZM43.6623 16.4879L44.378 16.7121C44.5012 16.3187 44.4982 15.9147 44.3671 15.5232L43.6559 15.7615L42.9448 15.9997C42.9748 16.0893 42.976 16.1696 42.9466 16.2637L43.6623 16.4879ZM43.6559 15.7615L44.3671 15.5232C44.3665 15.5216 44.367 15.5228 44.3672 15.5254C44.3674 15.5279 44.367 15.5274 44.3679 15.5224C44.3698 15.5117 44.3794 15.4727 44.424 15.4029L43.7923 14.9987L43.1606 14.5944C42.9008 15.0004 42.7742 15.4906 42.9448 15.9997L43.6559 15.7615ZM43.7923 14.9987L44.424 15.4029C44.6858 14.9938 44.8096 14.5006 44.6341 13.9901L43.9248 14.2339L43.2155 14.4776C43.2163 14.4799 43.2158 14.479 43.2156 14.4763C43.2154 14.4737 43.2158 14.4739 43.215 14.4784C43.2134 14.4878 43.2045 14.5257 43.1606 14.5944L43.7923 14.9987ZM43.9248 14.2339L44.6341 13.9901C44.5691 13.8009 44.5265 13.6093 44.5057 13.4144L43.7599 13.4938L43.0142 13.5732C43.047 13.8813 43.1143 14.1831 43.2155 14.4776L43.9248 14.2339ZM43.7599 13.4938L44.5057 13.4144C44.4631 13.0144 44.3084 12.6518 44.0628 12.3362L43.4709 12.7968L42.8791 13.2574C42.9652 13.3681 43.0032 13.4701 43.0142 13.5732L43.7599 13.4938ZM43.4709 12.7968L44.0628 12.3362C43.9025 12.1301 43.7509 11.9277 43.608 11.7288L42.9989 12.1665L42.3898 12.6041C42.5445 12.8194 42.7076 13.0372 42.8791 13.2574L43.4709 12.7968ZM42.9989 12.1665L43.608 11.7288C43.608 11.7288 43.6086 11.7297 43.6096 11.7315C43.6106 11.7334 43.6116 11.7355 43.6125 11.7379C43.6145 11.7432 43.6145 11.7457 43.6142 11.743C43.6136 11.7369 43.6114 11.6989 43.6369 11.6182L42.9215 11.393L42.2061 11.1677C42.059 11.6348 42.0669 12.1546 42.3898 12.6041L42.9989 12.1665ZM42.9215 11.393L43.6369 11.6182C43.7765 11.1749 43.7891 10.6945 43.561 10.2484L42.8932 10.5897L42.2254 10.9311C42.2293 10.9388 42.2608 10.994 42.2061 11.1677L42.9215 11.393ZM42.8932 10.5897L43.561 10.2484C43.4738 10.0777 43.405 9.89052 43.3562 9.68444L42.6264 9.8571L41.8965 10.0298C41.9715 10.3466 42.0805 10.6478 42.2254 10.9311L42.8932 10.5897ZM42.6264 9.8571L43.3562 9.68444C43.2702 9.32064 43.1125 8.98769 42.8825 8.69451L42.2924 9.15743L41.7023 9.62036C41.7939 9.73718 41.8589 9.87067 41.8965 10.0298L42.6264 9.8571ZM42.2924 9.15743L42.8825 8.69451C42.7167 8.48318 42.5479 8.27505 42.3761 8.07012L41.8013 8.55187L41.2265 9.03362C41.3878 9.22611 41.5464 9.42168 41.7023 9.62036L42.2924 9.15743ZM41.8013 8.55187L42.3761 8.07012C42.0732 7.70865 41.6611 7.51148 41.216 7.43167L41.0836 8.16989L40.9512 8.90811C41.13 8.94018 41.1964 8.99767 41.2265 9.03362L41.8013 8.55187ZM41.0836 8.16989L41.216 7.43167C41.048 7.40154 41.0216 7.35218 41.0197 7.34939L40.4014 7.774L39.7832 8.19862C40.067 8.61178 40.4953 8.82634 40.9512 8.90811L41.0836 8.16989ZM40.4014 7.774L41.0197 7.34939C40.8055 7.03758 40.5252 6.79251 40.1874 6.62219L39.8497 7.29187L39.512 7.96154C39.6242 8.01812 39.7117 8.09448 39.7832 8.19862L40.4014 7.774ZM39.8497 7.29187L40.1874 6.62219C39.974 6.51458 39.7673 6.40343 39.5674 6.28877L39.1943 6.93941L38.8213 7.59004C39.0452 7.71843 39.2754 7.84225 39.512 7.96154L39.8497 7.29187ZM39.1943 6.93941L39.5674 6.28877C39.4265 6.20802 39.2933 6.1017 39.1679 5.96456L38.6145 6.47072L38.061 6.97688C38.2848 7.22161 38.5382 7.42775 38.8213 7.59004L39.1943 6.93941ZM38.6145 6.47072L39.1679 5.96456C39.0021 5.78324 38.8333 5.58915 38.6615 5.38211L38.0843 5.86095L37.5071 6.33979C37.693 6.56391 37.8776 6.77634 38.061 6.97688L38.6145 6.47072ZM38.0843 5.86095L38.6615 5.38211C38.4001 5.06694 38.0716 4.83201 37.6796 4.70469L37.4479 5.41802L37.2163 6.13135C37.3151 6.16344 37.4108 6.2238 37.5071 6.33979L38.0843 5.86095ZM37.4479 5.41802L37.6796 4.70469C37.4708 4.63691 37.2657 4.55256 37.0639 4.45121L36.7273 5.12145L36.3907 5.79168C36.6589 5.92636 36.9341 6.03972 37.2163 6.13135L37.4479 5.41802ZM36.7273 5.12145L37.0639 4.45121C36.6412 4.23894 36.1866 4.21809 35.7464 4.3464L35.9563 5.06643L36.1662 5.78646C36.284 5.7521 36.3434 5.76793 36.3907 5.79168L36.7273 5.12145ZM35.9563 5.06643L35.7464 4.3464C35.4478 4.43345 35.1564 4.53162 34.8725 4.64102L35.1421 5.34088L35.4117 6.04074C35.6554 5.94687 35.9068 5.86207 36.1662 5.78646L35.9563 5.06643ZM35.1421 5.34088L34.8725 4.64102C34.7598 4.68444 34.7015 4.6738 34.6578 4.65716L34.3911 5.35814L34.1244 6.05912C34.5544 6.22272 34.9969 6.20057 35.4117 6.04074L35.1421 5.34088ZM34.3911 5.35814L34.6578 4.65716C34.4845 4.59122 34.3035 4.49548 34.1149 4.3642L33.6864 4.97976L33.2579 5.59531C33.5352 5.78831 33.824 5.94482 34.1244 6.05912L34.3911 5.35814ZM33.6864 4.97976L34.1149 4.3642C33.9965 4.28178 33.8282 4.17188 33.6523 4.11578C33.5892 4.09562 33.3383 4.01689 33.0597 4.13809C32.6657 4.30946 32.587 4.68306 32.587 4.86828H33.337H34.087C34.087 4.93373 34.0771 5.05278 34.0093 5.18442C33.934 5.33084 33.8097 5.44763 33.658 5.51361C33.5215 5.57297 33.4013 5.57496 33.3355 5.57049C33.2676 5.5659 33.2185 5.55186 33.1964 5.5448C33.137 5.52585 33.1434 5.5156 33.2579 5.59531L33.6864 4.97976ZM33.337 4.86828H32.587C32.587 4.72078 32.6362 4.61452 32.6664 4.56248C32.6965 4.51074 32.7237 4.48473 32.7249 4.48352C32.7257 4.48278 32.693 4.51247 32.5965 4.5707L32.9837 5.213L33.3709 5.8553C33.5099 5.77153 33.6539 5.67276 33.7725 5.55712C33.8623 5.46942 34.087 5.23132 34.087 4.86828H33.337Z" fill="#030302"/>
</svg>
