<svg width="48" height="48" viewBox="0 0 48 48" fill="none" xmlns="http://www.w3.org/2000/svg">
<path d="M39.4748 8.5392L39.673 7.81588L39.4748 8.5392ZM38.7307 8.22264L39.1247 7.58451L38.7307 8.22264ZM38.2586 7.63406L37.556 7.89646L38.2586 7.63406ZM37.8349 6.99524L37.3319 7.55152L37.8349 6.99524ZM37.1628 6.69371L37.0703 7.43798L37.1628 6.69371ZM35.8104 5.96809L36.3264 5.4238L35.8104 5.96809ZM33.0152 6.79767L32.9653 7.54601L33.0152 6.79767ZM32.3369 7.07767L31.7348 6.63059L32.3369 7.07767ZM31.5082 8.3799L30.8284 8.06317L31.5082 8.3799ZM29.8631 9.91676L30.0705 10.6375L29.8631 9.91676ZM29.2701 10.3845L28.6044 10.0391L29.2701 10.3845ZM28.1368 11.3725L27.3875 11.4043L28.1368 11.3725ZM26.631 13.0487L27.2104 13.525L26.631 13.0487ZM25.3518 13.8907L24.6338 13.674L25.3518 13.8907ZM24.281 14.9412L24.4292 15.6764L24.281 14.9412ZM23.4356 16.2172L23.7987 16.8734L23.4356 16.2172ZM22.2468 17.1497L22.9532 17.4017L22.2468 17.1497ZM20.6621 18.747L19.9124 18.7693L20.6621 18.747ZM20.157 19.3026L20.1699 20.0524L20.157 19.3026ZM19.1574 20.4243L19.9063 20.4658L19.1574 20.4243ZM18.8589 21.1864L18.3397 20.6452L18.8589 21.1864ZM17.4257 21.8746L16.7558 21.5374V21.5374L17.4257 21.8746ZM16.4269 22.9971L15.987 22.3897L16.4269 22.9971ZM15.2061 23.8976L14.789 23.2743L15.2061 23.8976ZM13.9508 25.8243L14.6573 26.0758L13.9508 25.8243ZM10.6919 28.9294L10.2291 28.3392L10.6919 28.9294ZM10.1111 29.4092L10.6034 29.975L10.1111 29.4092ZM9.61633 29.9751L8.99084 29.5613L9.61633 29.9751ZM9.19092 30.6103L8.57011 30.1895L9.19092 30.6103ZM8.70108 31.1811L9.21016 31.7319L8.70108 31.1811ZM8.13155 31.6723L8.60156 32.2567L8.13155 31.6723ZM8.99183 42.0328L9.33662 42.6988L8.99183 42.0328ZM10.4918 41.9108L10.4608 41.1615L10.4918 41.9108ZM11.9918 42.108L12.2737 41.413L11.9918 42.108ZM14.3444 42.2141L14.5214 42.9429L14.3444 42.2141ZM15.2526 40.9379L15.9414 41.2346L15.2526 40.9379ZM15.6785 40.3031L16.2068 40.8354L15.6785 40.3031ZM16.1924 39.7563L15.6285 39.2619L16.1924 39.7563ZM17.6407 39.0833L18.3182 39.4048L17.6407 39.0833ZM18.6418 37.9631L19.3074 38.3088L18.6418 37.9631ZM19.1259 37.3865L19.5765 37.9861L19.1259 37.3865ZM20.1537 36.293L20.1619 35.543L20.1537 36.293ZM21.1561 35.1741L21.53 35.8243L21.1561 35.1741ZM21.7826 34.7399L22.2617 35.317L21.7826 34.7399ZM22.1713 34.0679L22.9023 34.2354L22.1713 34.0679ZM22.671 33.507L22.9015 34.2207L22.671 33.507ZM23.3584 33.1337L23.8445 33.7049L23.3584 33.1337ZM27.0842 29.4349L27.7758 29.7251L27.0842 29.4349ZM27.4615 28.7516L26.8505 28.3166L27.4615 28.7516ZM27.9039 28.1333L28.5128 28.5711L27.9039 28.1333ZM28.636 27.8047L28.6654 28.5542L28.636 27.8047ZM29.5139 26.5613L29.8981 27.2054L29.5139 26.5613ZM30.1023 26.089L30.6502 26.6011L30.1023 26.089ZM31.2531 25.1186L30.6108 24.7314L31.2531 25.1186ZM32.3938 24.1379L33.0581 24.4859L32.3938 24.1379ZM35.2701 20.6503L34.8365 20.0384L35.2701 20.6503ZM35.9551 20.2746L35.6671 19.5821L35.9551 20.2746ZM36.7324 19.9912L36.5058 19.2763L36.7324 19.9912ZM37.7059 18.8434L37.2333 18.2611L37.7059 18.8434ZM38.703 17.7192L39.3101 18.1596L38.703 17.7192ZM39.2756 17.2311L38.9312 16.5649L39.2756 17.2311ZM39.9009 16.7958L40.4097 17.3469L39.9009 16.7958ZM40.9483 15.7271L41.6852 15.8664L40.9483 15.7271ZM41.4236 15.0754L41.0691 14.4144L41.4236 15.0754ZM41.9228 14.4721L41.1993 14.2745L41.9228 14.4721ZM42.1222 12.9088L42.8268 12.6518L42.1222 12.9088ZM41.2424 10.8048L41.9922 10.7879L41.2424 10.8048ZM40.6696 9.99598L40.1393 9.46566L40.6696 9.99598ZM12.1962 41.0792L11.9138 41.774L12.1962 41.0792ZM11.4462 40.8701L11.5584 40.1285L11.4462 40.8701ZM10.6962 40.9735L10.9908 41.6632L10.6962 40.9735ZM8.4462 40.8203L8.8715 41.438L8.4462 40.8203ZM7.40256 40.1437L6.65276 40.1263L7.40256 40.1437ZM7.32499 39.3937L6.59407 39.5618L7.32499 39.3937ZM7.16254 36.3937L7.89762 36.5426L7.16254 36.3937ZM7.03382 34.8937L6.52265 34.3449L7.03382 34.8937ZM7.18846 33.3822L6.47185 33.1609L7.18846 33.3822ZM7.58487 32.7179L8.10283 33.2603L7.58487 32.7179ZM8.93453 31.9463L8.57456 31.2883L8.93453 31.9463ZM10.0026 30.893L10.2528 31.6001L10.0026 30.893ZM10.4595 30.2892L9.7167 30.1853L10.4595 30.2892ZM10.9797 29.7488L10.8573 29.0088L10.9797 29.7488ZM12.6942 28.2813L13.4278 28.4374L12.6942 28.2813ZM13.5126 26.9784L13.8001 27.6712L13.5126 26.9784ZM15.1252 25.409L15.7367 25.8432V25.8432L15.1252 25.409ZM17.4125 23.4537L17.3579 22.7056L17.4125 23.4537ZM18.1385 23.119L18.731 23.5788L18.1385 23.119ZM19.1642 22.0234L19.6162 22.622L19.1642 22.0234ZM19.7742 21.5727L19.3347 20.965L19.7742 21.5727ZM20.4273 20.1045L20.7679 20.7727L20.4273 20.1045ZM22.3281 18.8233L21.838 18.2556L22.3281 18.8233ZM22.7057 18.1403L21.9721 17.9843L22.7057 18.1403ZM23.0942 17.4681L22.6275 16.881L23.0942 17.4681ZM23.808 17.1212L23.6139 16.3968L23.808 17.1212ZM24.5219 16.7745L24.0555 16.1871L24.5219 16.7745ZM25.0491 16.241L24.4564 15.7815L25.0491 16.241ZM25.5145 15.6458L26.1034 16.1103L25.5145 15.6458ZM26.0942 15.1648L25.7412 14.5031L26.0942 15.1648ZM26.5811 14.591L27.2863 14.8465L26.5811 14.591ZM27.3686 13.2572L27.9794 13.6925L27.3686 13.2572ZM28.7023 13.0612L29.0945 12.422L28.7023 13.0612ZM29.3215 13.5027L29.7989 12.9242L29.3215 13.5027ZM29.7965 14.0884L30.4583 13.7356L29.7965 14.0884ZM30.1784 14.7671L30.8233 14.3842L30.1784 14.7671ZM30.653 15.3531L30.1471 15.9067L30.653 15.3531ZM31.0974 15.9694L31.7786 15.6556L31.0974 15.9694ZM31.507 16.6205L32.0809 16.1375L31.507 16.6205ZM32.1861 17.002L32.3433 16.2686L32.1861 17.002ZM33.2657 18.0438L33.6765 17.4162L33.2657 18.0438ZM34.3193 19.1115L34.8201 18.5532L34.3193 19.1115ZM34.8066 19.5172L35.255 18.916L34.8066 19.5172ZM34.3505 20.5993L35.0799 20.7739L34.3505 20.5993ZM33.9121 21.2215L33.5366 20.5723L33.9121 21.2215ZM33.2637 21.6338L32.8345 21.0187L33.2637 21.6338ZM32.7836 22.2144L33.4644 22.5291L32.7836 22.2144ZM32.4115 22.9029L31.7762 22.5042L32.4115 22.9029ZM31.7538 23.3058L31.8796 24.0452L31.7538 23.3058ZM30.6074 24.2808L30.2721 23.61L30.6074 24.2808ZM30.1722 24.9063L29.4343 24.772L30.1722 24.9063ZM27.9266 26.9033L28.3424 27.5275L27.9266 26.9033ZM27.5002 27.5376L26.7737 27.3516L27.5002 27.5376ZM27.0167 28.1147L26.7307 27.4214L27.0167 28.1147ZM26.2461 28.4048L26.489 29.1144L26.2461 28.4048ZM25.7912 29.0105L25.0472 28.9159L25.7912 29.0105ZM25.4165 29.6965L24.9929 29.0777L25.4165 29.6965ZM24.1791 30.5804L23.6455 30.0534L24.1791 30.5804ZM23.6336 31.0956L23.1379 30.5327L23.6336 31.0956ZM22.4791 32.0623L22.0729 31.4318L22.4791 32.0623ZM21.9112 32.5552L22.4797 33.0444L21.9112 32.5552ZM21.5712 33.2758L20.8383 33.1164L21.5712 33.2758ZM21.0643 33.8296L20.8575 33.1087L21.0643 33.8296ZM20.6074 34.4333L21.3542 34.5023L20.6074 34.4333ZM18.9702 35.9781L18.6367 35.3063L18.9702 35.9781ZM17.5592 37.7491L18.1931 38.15L17.5592 37.7491ZM17.0744 38.3249L17.5756 38.8829L17.0744 38.3249ZM15.0945 39.5271L15.5883 40.0916L15.0945 39.5271ZM14.6003 40.0935L15.2255 40.5078L14.6003 40.0935ZM14.1188 40.9951L14.6492 40.4648L14.1188 40.9951ZM39.6466 15.1038L39.4125 14.3912L39.6466 15.1038ZM39.1049 15.6227L39.8088 15.8814L39.1049 15.6227ZM38.7828 16.3613L38.1152 16.0195L38.7828 16.3613ZM38.3177 16.9569L37.8295 16.3876L38.3177 16.9569ZM37.0198 17.7802L36.8479 17.0502L37.0198 17.7802ZM35.6885 18.6278L35.2903 19.2634L35.6885 18.6278ZM34.9524 18.3033L34.7414 19.023L34.9524 18.3033ZM34.46 17.7351L35.1976 17.5995L34.46 17.7351ZM33.4431 16.6306L32.7793 16.9796L33.4431 16.6306ZM32.8617 16.1513L33.097 15.4392L32.8617 16.1513ZM32.1376 15.8148L32.5371 15.18L32.1376 15.8148ZM30.3085 13.4012L30.6169 12.7175L30.3085 13.4012ZM29.6514 12.9977L29.1763 13.578L29.6514 12.9977ZM29.2865 12.3019L28.546 12.4208L29.2865 12.3019ZM29.3896 11.8862L29.2189 12.6165L29.3896 11.8862ZM29.5416 11.3728L28.7924 11.4057L29.5416 11.3728ZM29.8759 10.6463L30.1998 11.3227L29.8759 10.6463ZM30.4346 10.1445L29.7934 9.75556L30.4346 10.1445ZM30.9231 9.57222L31.4055 10.1465L30.9231 9.57222ZM31.7012 9.28971L31.7629 10.0372L31.7012 9.28971ZM32.67 8.13716L32.506 7.40531V7.40531L32.67 8.13716ZM33.3644 7.79797L33.8743 8.34796L33.3644 7.79797ZM35.3992 7.00205L35.9 7.56038L35.3992 7.00205ZM36.7473 7.46257L36.1859 7.95988L36.7473 7.46257ZM37.2793 8.00542L36.7725 8.55822L37.2793 8.00542ZM37.9192 8.41744L38.2224 7.73143L37.9192 8.41744ZM38.3707 9.02657L37.6336 9.16477L38.3707 9.02657ZM38.7611 9.69685L38.3192 10.3028L38.7611 9.69685ZM39.8734 10.7004L40.2585 10.0568L39.8734 10.7004ZM40.3235 11.2407L41.0305 10.9904L40.3235 11.2407ZM40.9374 12.5497L40.225 12.3154L40.9374 12.5497ZM41.0245 13.3725L40.3518 13.7041L41.0245 13.3725ZM40.1335 14.5696L40.8661 14.7305L40.1335 14.5696ZM40.0479 14.9612L40.7853 15.0982L40.0479 14.9612ZM40.4234 9.71188L40.8135 9.07134C40.7899 9.05691 40.7509 9.03065 40.7223 8.90965L39.9924 9.08222L39.2625 9.25478C39.3691 9.70568 39.6175 10.0992 40.0333 10.3524L40.4234 9.71188ZM39.9924 9.08222L40.7223 8.90965C40.6633 8.66001 40.5482 8.41704 40.3552 8.21451C40.1614 8.01127 39.9231 7.88442 39.673 7.81588L39.4748 8.5392L39.2765 9.26252C39.2918 9.2667 39.2952 9.26947 39.2912 9.26717C39.2893 9.26606 39.286 9.264 39.2819 9.26083C39.2778 9.25764 39.2736 9.25383 39.2694 9.2495C39.2653 9.24518 39.262 9.24101 39.2594 9.23736C39.2568 9.23375 39.2555 9.23127 39.2551 9.23045C39.2542 9.22879 39.258 9.23554 39.2625 9.25478L39.9924 9.08222ZM39.4748 8.5392L39.673 7.81588C39.4564 7.7565 39.2756 7.6777 39.1247 7.58451L38.7307 8.22264L38.3366 8.86078C38.6228 9.03754 38.9382 9.16978 39.2765 9.26252L39.4748 8.5392ZM38.7307 8.22264L39.1247 7.58451C39.0581 7.54334 39.0034 7.48464 38.9612 7.37165L38.2586 7.63406L37.556 7.89646C37.7061 8.2983 37.9661 8.632 38.3366 8.86078L38.7307 8.22264ZM38.2586 7.63406L38.9612 7.37165C38.827 7.0125 38.6215 6.69537 38.338 6.43895L37.8349 6.99524L37.3319 7.55152C37.4209 7.63204 37.4979 7.74079 37.556 7.89646L38.2586 7.63406ZM37.8349 6.99524L38.338 6.43895C38.0315 6.16179 37.6619 6 37.2554 5.94944L37.1628 6.69371L37.0703 7.43798C37.1873 7.45253 37.2658 7.49176 37.3319 7.55152L37.8349 6.99524ZM37.1628 6.69371L37.2554 5.94944C37.0826 5.92796 36.945 5.88038 36.8318 5.81542L36.4584 6.46581L36.0849 7.11621C36.3876 7.29001 36.7195 7.39436 37.0703 7.43798L37.1628 6.69371ZM36.4584 6.46581L36.8318 5.81542C36.6878 5.7327 36.519 5.60641 36.3264 5.4238L35.8104 5.96809L35.2944 6.51237C35.55 6.75464 35.8132 6.96017 36.0849 7.11621L36.4584 6.46581ZM35.8104 5.96809L36.3264 5.4238C36.1123 5.22081 35.8019 5.04601 35.4149 5.07263C35.0484 5.09785 34.7682 5.29457 34.5767 5.4858L35.1067 6.0165L35.6366 6.5472C35.6902 6.49371 35.6499 6.56001 35.5179 6.56909C35.4508 6.57371 35.3903 6.56041 35.3453 6.54112C35.3041 6.52351 35.2881 6.50636 35.2944 6.51237L35.8104 5.96809ZM35.1067 6.0165L34.5767 5.4858C34.5015 5.56091 34.4535 5.58734 34.4363 5.59491C34.4287 5.59827 34.4285 5.59738 34.4346 5.59638C34.4412 5.59532 34.4493 5.59504 34.4571 5.59594L34.3709 6.34097L34.2847 7.086C34.8389 7.15012 35.2982 6.88519 35.6366 6.5472L35.1067 6.0165ZM34.3709 6.34097L34.4571 5.59594C33.9816 5.54093 33.5456 5.69611 33.2077 6.02765L33.733 6.56296L34.2584 7.09827C34.2692 7.08766 34.2757 7.08322 34.2775 7.08209C34.279 7.08112 34.2776 7.08218 34.2738 7.08349C34.2722 7.08408 34.2705 7.08453 34.2692 7.08483C34.2678 7.08513 34.2671 7.0852 34.2672 7.08518C34.2673 7.08517 34.2727 7.08462 34.2847 7.086L34.3709 6.34097ZM33.733 6.56296L33.2077 6.02765C33.2003 6.03499 33.1955 6.03786 33.1857 6.04107C33.1728 6.0453 33.1366 6.0541 33.0651 6.04933L33.0152 6.79767L32.9653 7.54601C33.4333 7.57721 33.8971 7.45282 34.2584 7.09827L33.733 6.56296ZM33.0152 6.79767L33.0651 6.04933C32.5606 6.01569 32.0671 6.18294 31.7348 6.63059L32.3369 7.07767L32.9391 7.52475C32.9407 7.52266 32.9381 7.52646 32.9307 7.53237C32.923 7.53844 32.9147 7.54312 32.9077 7.54598C32.8933 7.55195 32.9054 7.54201 32.9653 7.54601L33.0152 6.79767ZM32.3369 7.07767L31.7348 6.63059C31.5755 6.84513 31.4213 7.06167 31.2722 7.28022L31.8918 7.70284L32.5114 8.12545C32.6491 7.92363 32.7916 7.7234 32.9391 7.52475L32.3369 7.07767ZM31.8918 7.70284L31.2722 7.28022C31.1049 7.5255 30.9571 7.78679 30.8284 8.06317L31.5082 8.3799L32.1881 8.69663C32.284 8.49063 32.392 8.30054 32.5114 8.12545L31.8918 7.70284ZM31.5082 8.3799L30.8284 8.06317C30.8335 8.05217 30.8444 8.03387 30.8631 8.01464C30.8818 7.99534 30.9006 7.98325 30.9133 7.97694C30.9249 7.97117 30.9258 7.97302 30.9095 7.97604C30.8928 7.97914 30.8619 7.98274 30.8132 7.98185L30.7994 8.73172L30.7856 9.48159C31.3175 9.49139 31.9051 9.30398 32.1881 8.69663L31.5082 8.3799ZM30.7994 8.73172L30.8132 7.98185C30.5206 7.97646 30.1539 8.04263 29.8679 8.32645C29.5813 8.61084 29.5128 8.97761 29.5171 9.27104L30.267 9.26001L31.0169 9.24898C31.016 9.18358 31.0336 9.28289 30.9244 9.39118C30.8159 9.4989 30.718 9.48035 30.7856 9.48159L30.7994 8.73172ZM30.267 9.26001L29.5171 9.27104C29.5184 9.36217 29.4998 9.35142 29.5311 9.30042C29.5479 9.27314 29.5721 9.24621 29.6013 9.22496C29.6294 9.2045 29.651 9.19737 29.6557 9.19601L29.8631 9.91676L30.0705 10.6375C30.3658 10.5525 30.6324 10.3731 30.8088 10.0862C30.9748 9.8163 31.0209 9.51668 31.0169 9.24898L30.267 9.26001ZM29.8631 9.91676L29.6557 9.19601C29.203 9.32629 28.829 9.60619 28.6044 10.0391L29.2701 10.3845L29.9359 10.7298C29.9528 10.6971 29.9741 10.6652 30.0705 10.6375L29.8631 9.91676ZM29.2701 10.3845L28.6044 10.0391C28.6048 10.0383 28.6082 10.0322 28.6156 10.0244C28.623 10.0166 28.63 10.0117 28.6334 10.0097C28.6397 10.0061 28.6163 10.022 28.5361 10.0289L28.6011 10.7761L28.6662 11.5233C29.1755 11.479 29.6671 11.2479 29.9359 10.7298L29.2701 10.3845ZM28.6011 10.7761L28.5361 10.0289C28.2306 10.0555 27.89 10.1765 27.6493 10.4857C27.4216 10.7782 27.3755 11.1228 27.3875 11.4043L28.1368 11.3725L28.8861 11.3406C28.8824 11.2528 28.9059 11.3134 28.8329 11.4072C28.7956 11.4551 28.7501 11.4882 28.7099 11.5073C28.6733 11.5246 28.6539 11.5244 28.6662 11.5233L28.6011 10.7761ZM28.1368 11.3725L27.3875 11.4043C27.3898 11.4576 27.387 11.4936 27.3837 11.5154C27.3805 11.537 27.3774 11.541 27.3808 11.5332C27.3847 11.5243 27.3941 11.507 27.4117 11.4878C27.4296 11.4684 27.4482 11.4553 27.4623 11.4478L27.814 12.1103L28.1656 12.7727C28.7544 12.4601 28.9083 11.8609 28.8861 11.3406L28.1368 11.3725ZM27.814 12.1103L27.4623 11.4478C27.1948 11.5898 26.9434 11.7516 26.7091 11.9334L27.1689 12.5259L27.6287 13.1184C27.7926 12.9912 27.9712 12.8759 28.1656 12.7727L27.814 12.1103ZM27.1689 12.5259L26.7091 11.9334C26.4661 12.1219 26.2467 12.3351 26.0517 12.5724L26.631 13.0487L27.2104 13.525C27.3344 13.3741 27.4736 13.2388 27.6287 13.1184L27.1689 12.5259ZM26.631 13.0487L26.0517 12.5724C26.0344 12.5934 25.9851 12.6443 25.8172 12.6706L25.9333 13.4115L26.0494 14.1525C26.4928 14.083 26.9087 13.8919 27.2104 13.525L26.631 13.0487ZM25.9333 13.4115L25.8172 12.6706C25.5623 12.7105 25.3037 12.8055 25.0817 12.9885C24.856 13.1744 24.7119 13.4153 24.6338 13.674L25.3518 13.8907L26.0698 14.1075C26.0725 14.0987 26.0726 14.1019 26.0661 14.1121C26.0592 14.1229 26.0488 14.1352 26.0356 14.1461C26.0295 14.1511 26.024 14.1548 26.0197 14.1574C26.0176 14.1586 26.0159 14.1595 26.0147 14.1601C26.0135 14.1607 26.0129 14.161 26.0129 14.161C26.0129 14.161 26.0237 14.1565 26.0494 14.1525L25.9333 13.4115ZM25.3518 13.8907L24.6338 13.674C24.5799 13.8524 24.5055 13.9777 24.422 14.0691L24.9755 14.5751L25.5291 15.0812C25.7833 14.8031 25.9597 14.4722 26.0698 14.1075L25.3518 13.8907ZM24.9755 14.5751L24.422 14.0691C24.3805 14.1144 24.3028 14.1717 24.1327 14.206L24.281 14.9412L24.4292 15.6764C24.8475 15.592 25.2329 15.4053 25.5291 15.0812L24.9755 14.5751ZM24.281 14.9412L24.1327 14.206C23.8483 14.2634 23.5666 14.4028 23.3576 14.6629C23.1547 14.9152 23.0768 15.2111 23.0598 15.4822L23.8083 15.5292L24.5568 15.5762C24.5607 15.5147 24.572 15.5462 24.5267 15.6026C24.5046 15.6301 24.4786 15.6509 24.455 15.6643C24.4328 15.6768 24.4213 15.678 24.4292 15.6764L24.281 14.9412ZM23.8083 15.5292L23.0598 15.4822C23.0543 15.5691 23.038 15.5972 23.04 15.5934C23.0414 15.5909 23.0458 15.5838 23.054 15.5756C23.0622 15.5673 23.0695 15.5626 23.0724 15.5609L23.4356 16.2172L23.7987 16.8734C24.3135 16.5885 24.525 16.083 24.5568 15.5762L23.8083 15.5292ZM23.4356 16.2172L23.0724 15.5609C22.8544 15.6816 22.6322 15.7983 22.4057 15.9112L22.7402 16.5825L23.0747 17.2537C23.3202 17.1314 23.5616 17.0046 23.7987 16.8734L23.4356 16.2172ZM22.7402 16.5825L22.4057 15.9112C21.987 16.1198 21.695 16.4646 21.5404 16.8977L22.2468 17.1497L22.9532 17.4017C22.9846 17.3137 23.0215 17.2803 23.0747 17.2537L22.7402 16.5825ZM22.2468 17.1497L21.5404 16.8977C21.4778 17.0732 21.396 17.2054 21.3018 17.3074L21.8527 17.8163L22.4037 18.3252C22.649 18.0596 22.8299 17.7474 22.9532 17.4017L22.2468 17.1497ZM21.8527 17.8163L21.3018 17.3074C21.2848 17.3259 21.2267 17.3794 21.0371 17.401L21.122 18.1462L21.2068 18.8914C21.6521 18.8407 22.0812 18.6743 22.4037 18.3252L21.8527 17.8163ZM21.122 18.1462L21.0371 17.401C20.7331 17.4356 20.4049 17.565 20.1734 17.8676C19.954 18.1542 19.9041 18.4895 19.9124 18.7693L20.6621 18.747L21.4117 18.7246C21.4092 18.64 21.4305 18.693 21.3645 18.7793C21.3307 18.8234 21.2892 18.8552 21.2512 18.8743C21.2164 18.8918 21.197 18.8925 21.2068 18.8914L21.122 18.1462ZM20.6621 18.747L19.9124 18.7693C19.9147 18.8455 19.8932 18.76 19.989 18.6547C20.0912 18.5423 20.1937 18.5518 20.1441 18.5527L20.157 19.3026L20.1699 20.0524C20.4679 20.0473 20.8284 19.9613 21.0989 19.6637C21.363 19.3731 21.4203 19.0129 21.4117 18.7246L20.6621 18.747ZM20.157 19.3026L20.1441 18.5527C19.6566 18.5611 19.1433 18.7157 18.807 19.1713L19.4105 19.6167L20.0139 20.062C20.0103 20.0669 20.0053 20.0721 20 20.0762C19.995 20.0801 19.994 20.0797 20.0006 20.0769C20.0156 20.0706 20.0655 20.0542 20.1699 20.0524L20.157 19.3026ZM19.4105 19.6167L18.807 19.1713C18.546 19.5251 18.4326 19.9487 18.4086 20.3828L19.1574 20.4243L19.9063 20.4658C19.9194 20.2299 19.9747 20.1151 20.0139 20.062L19.4105 19.6167ZM19.1574 20.4243L18.4086 20.3828C18.3969 20.5942 18.3418 20.6432 18.3397 20.6452L18.8589 21.1864L19.3781 21.7277C19.7369 21.3835 19.8809 20.9243 19.9063 20.4658L19.1574 20.4243ZM18.8589 21.1864L18.3397 20.6452C18.3195 20.6645 18.2487 20.72 18.0382 20.7361L18.0957 21.4839L18.1533 22.2317C18.5994 22.1974 19.0373 22.0545 19.3781 21.7277L18.8589 21.1864ZM18.0957 21.4839L18.0382 20.7361C17.5238 20.7757 17.0229 21.0068 16.7558 21.5374L17.4257 21.8746L18.0957 22.2117C18.0948 22.2135 18.0907 22.2209 18.082 22.2301C18.0733 22.2395 18.0648 22.2455 18.0598 22.2484C18.0506 22.2538 18.0721 22.238 18.1533 22.2317L18.0957 21.4839ZM17.4257 21.8746L16.7558 21.5374C16.6681 21.7116 16.564 21.8603 16.4447 21.9874L16.9913 22.5008L17.538 23.0143C17.7611 22.7768 17.9466 22.5079 18.0957 22.2117L17.4257 21.8746ZM16.9913 22.5008L16.4447 21.9874C16.3063 22.1346 16.154 22.2687 15.987 22.3897L16.4269 22.9971L16.8669 23.6045C17.1099 23.4284 17.3339 23.2317 17.538 23.0143L16.9913 22.5008ZM16.4269 22.9971L15.987 22.3897C15.7746 22.5435 15.5656 22.7007 15.36 22.8614L15.8216 23.4524L16.2833 24.0435C16.4746 23.8941 16.6692 23.7477 16.8669 23.6045L16.4269 22.9971ZM15.8216 23.4524L15.36 22.8614C15.1761 23.005 14.9858 23.1426 14.789 23.2743L15.2061 23.8976L15.6232 24.5209C15.8501 24.3691 16.0701 24.21 16.2833 24.0435L15.8216 23.4524ZM15.2061 23.8976L14.789 23.2743C14.3526 23.5663 14.1441 24.0178 14.0862 24.4919L14.8307 24.5828L15.5751 24.6738C15.5853 24.5907 15.6031 24.5502 15.6111 24.5356C15.6171 24.5247 15.6197 24.5233 15.6232 24.5209L15.2061 23.8976ZM14.8307 24.5828L14.0862 24.4919C14.0769 24.5682 14.0606 24.5957 14.0599 24.597C14.0596 24.5975 14.0612 24.5948 14.065 24.5912C14.0687 24.5876 14.0707 24.5868 14.0684 24.588L14.4315 25.2443L14.7945 25.9006C15.2798 25.6321 15.5147 25.1684 15.5751 24.6738L14.8307 24.5828ZM14.4315 25.2443L14.0684 24.588C13.67 24.8084 13.3942 25.1517 13.2443 25.5727L13.9508 25.8243L14.6573 26.0758C14.6931 25.9754 14.7377 25.932 14.7945 25.9006L14.4315 25.2443ZM13.9508 25.8243L13.2443 25.5727C13.2408 25.5824 13.2395 25.5826 13.2431 25.5774C13.2447 25.5749 13.2471 25.5718 13.2503 25.5684C13.2534 25.5649 13.2568 25.5618 13.2601 25.5591C13.2671 25.5533 13.2707 25.5522 13.2671 25.5538C13.263 25.5556 13.2498 25.5608 13.2242 25.5658L13.3678 26.3019L13.5114 27.038C14.0393 26.935 14.4664 26.612 14.6573 26.0758L13.9508 25.8243ZM13.3678 26.3019L13.2242 25.5658C12.778 25.6528 12.3721 25.8709 12.0927 26.2621L12.7031 26.6979L13.3135 27.1337C13.3287 27.1124 13.3659 27.0664 13.5114 27.038L13.3678 26.3019ZM12.7031 26.6979L12.0927 26.2621C11.9676 26.4374 11.8313 26.6002 11.6838 26.7509L12.2199 27.2754L12.756 27.7999C12.9583 27.5932 13.1441 27.371 13.3135 27.1337L12.7031 26.6979ZM12.2199 27.2754L11.6838 26.7509C11.4599 26.9798 11.2696 27.238 11.1125 27.5224L11.769 27.8851L12.4255 28.2477C12.5199 28.0767 12.6303 27.9284 12.756 27.7999L12.2199 27.2754ZM11.769 27.8851L11.1125 27.5224C11.0329 27.6665 10.935 27.7814 10.8182 27.8742L11.2847 28.4615L11.7512 29.0487C12.0284 28.8285 12.2534 28.5591 12.4255 28.2477L11.769 27.8851ZM11.2847 28.4615L10.8182 27.8742C10.6224 28.0298 10.426 28.1848 10.2291 28.3392L10.6919 28.9294L11.1548 29.5195C11.3542 29.3632 11.553 29.2062 11.7512 29.0487L11.2847 28.4615ZM10.6919 28.9294L10.2291 28.3392C10.021 28.5024 9.81756 28.6705 9.61884 28.8433L10.1111 29.4092L10.6034 29.975C10.7828 29.8189 10.9666 29.6671 11.1548 29.5195L10.6919 28.9294ZM10.1111 29.4092L9.61884 28.8433C9.37778 29.0531 9.16828 29.293 8.99084 29.5613L9.61633 29.9751L10.2418 30.3889C10.3459 30.2316 10.4663 30.0943 10.6034 29.975L10.1111 29.4092ZM9.61633 29.9751L8.99084 29.5613C8.85161 29.7717 8.71136 29.9811 8.57011 30.1895L9.19092 30.6103L9.81173 31.0311C9.95615 30.8181 10.0995 30.604 10.2418 30.3889L9.61633 29.9751ZM9.19092 30.6103L8.57011 30.1895C8.45886 30.3536 8.3329 30.5001 8.19199 30.6304L8.70108 31.1811L9.21016 31.7319C9.43671 31.5225 9.63731 31.2885 9.81173 31.0311L9.19092 30.6103ZM8.70108 31.1811L8.19199 30.6304C8.02096 30.7885 7.84415 30.941 7.66153 31.0878L8.13155 31.6723L8.60156 32.2567C8.81086 32.0884 9.01374 31.9135 9.21016 31.7319L8.70108 31.1811ZM8.13155 31.6723L7.66153 31.0878C7.57811 31.1549 7.45107 31.2195 7.25089 31.2581L7.39312 31.9945L7.53536 32.7309C7.92782 32.6551 8.29306 32.5048 8.60156 32.2567L8.13155 31.6723ZM7.39312 31.9945L7.25089 31.2581C6.80956 31.3434 6.40598 31.554 6.12151 31.9327L6.72114 32.3832L7.32077 32.8337C7.33964 32.8086 7.38404 32.7601 7.53536 32.7309L7.39312 31.9945ZM6.72114 32.3832L6.12151 31.9327C5.90024 32.2272 5.7508 32.566 5.6607 32.9328L6.38904 33.1117L7.11738 33.2907C7.16673 33.0898 7.2387 32.9429 7.32077 32.8337L6.72114 32.3832ZM6.38904 33.1117L5.6607 32.9328C5.58581 33.2376 5.53442 33.5219 5.5238 33.7686L6.2731 33.8009L7.02241 33.8332C7.02691 33.7287 7.05281 33.5535 7.11738 33.2907L6.38904 33.1117ZM6.2731 33.8009L5.5238 33.7686C5.52149 33.8222 5.49974 33.9435 5.41331 34.1514L6.10584 34.4393L6.79836 34.7273C6.91983 34.4351 7.00959 34.1309 7.02241 33.8332L6.2731 33.8009ZM6.10584 34.4393L5.41331 34.1514C5.28976 34.4485 5.19943 34.7511 5.14492 35.0583L5.88339 35.1893L6.62185 35.3203C6.65605 35.1276 6.71402 34.9301 6.79836 34.7273L6.10584 34.4393ZM5.88339 35.1893L5.14492 35.0583C5.09732 35.3266 5.05994 35.5952 5.03282 35.8641L5.77903 35.9393L6.52525 36.0146C6.54856 35.7835 6.58074 35.5521 6.62185 35.3203L5.88339 35.1893ZM5.77903 35.9393L5.03282 35.8641C5.00782 36.1119 4.98174 36.3598 4.95458 36.6076L5.70011 36.6893L6.44565 36.771C6.47328 36.5189 6.49982 36.2667 6.52525 36.0146L5.77903 35.9393ZM5.70011 36.6893L4.95458 36.6076C4.91857 36.9361 4.9344 37.2644 5.00085 37.5895L5.73566 37.4393L6.47047 37.2891C6.43473 37.1143 6.42686 36.9425 6.44565 36.771L5.70011 36.6893ZM5.73566 37.4393L5.00085 37.5895C5.0382 37.7722 5.04933 37.9521 5.03541 38.1312L5.78316 38.1893L6.5309 38.2475C6.55585 37.9265 6.53532 37.6064 6.47047 37.2891L5.73566 37.4393ZM5.78316 38.1893L5.03541 38.1312C5.01939 38.3373 4.9851 38.545 4.93183 38.7547L5.65874 38.9393L6.38565 39.124C6.4594 38.8337 6.50805 38.5414 6.5309 38.2475L5.78316 38.1893ZM5.65874 38.9393L4.93183 38.7547C4.80546 39.2521 4.93332 39.7216 5.20454 40.115L5.82201 39.6893L6.43948 39.2636C6.39856 39.2043 6.38771 39.1684 6.38476 39.1548C6.3825 39.1444 6.38229 39.1372 6.38565 39.124L5.65874 38.9393ZM5.82201 39.6893L5.20454 40.115C5.34419 40.3176 5.44074 40.5078 5.50261 40.6857L6.21098 40.4393L6.91936 40.193C6.80733 39.8708 6.64457 39.5611 6.43948 39.2636L5.82201 39.6893ZM6.21098 40.4393L5.50261 40.6857C5.54143 40.7973 5.54371 40.894 5.51656 40.9955L6.24108 41.1893L6.9656 41.3832C7.07222 40.9846 7.05444 40.5813 6.91936 40.193L6.21098 40.4393ZM6.24108 41.1893L5.51656 40.9955C5.47272 41.1594 5.43983 41.3413 5.44432 41.5254C5.44878 41.7084 5.49219 41.9516 5.66021 42.1691L6.25379 41.7107L6.84737 41.2523C6.94004 41.3722 6.94365 41.4797 6.94387 41.4889C6.94406 41.4967 6.94324 41.4922 6.94619 41.4722C6.94907 41.4527 6.95482 41.4235 6.9656 41.3832L6.24108 41.1893ZM6.25379 41.7107L5.66021 42.1691C5.83591 42.3966 6.07285 42.4987 6.26317 42.5428C6.45013 42.5861 6.63997 42.5857 6.80833 42.5707L6.74183 41.8237L6.67532 41.0766C6.59368 41.0839 6.57718 41.0758 6.60146 41.0814C6.62911 41.0878 6.74703 41.1223 6.84737 41.2523L6.25379 41.7107ZM6.74183 41.8237L6.80833 42.5707C7.04247 42.5499 7.27651 42.5365 7.51048 42.5307L7.49183 41.781L7.47318 41.0312C7.20714 41.0378 6.94118 41.053 6.67532 41.0766L6.74183 41.8237ZM7.49183 41.781L7.51048 42.5307C7.59402 42.5286 7.7042 42.5503 7.85266 42.6404L8.24183 41.9993L8.631 41.3581C8.27945 41.1447 7.88964 41.0208 7.47318 41.0312L7.49183 41.781ZM8.24183 41.9993L7.85266 42.6404C8.31564 42.9214 8.84356 42.954 9.33662 42.6988L8.99183 42.0328L8.64704 41.3667C8.63394 41.3735 8.62902 41.3742 8.63171 41.3736C8.63295 41.3733 8.63544 41.3728 8.63897 41.3725C8.64251 41.3721 8.64638 41.372 8.6503 41.3722C8.65421 41.3724 8.65742 41.3728 8.65969 41.3732C8.66194 41.3736 8.66266 41.3739 8.66168 41.3736C8.65978 41.373 8.64961 41.3694 8.631 41.3581L8.24183 41.9993ZM8.99183 42.0328L9.33662 42.6988C9.47008 42.6297 9.57061 42.6176 9.65472 42.6274L9.74183 41.8825L9.82893 41.1376C9.41305 41.0889 9.01358 41.177 8.64704 41.3667L8.99183 42.0328ZM9.74183 41.8825L9.65472 42.6274C9.94367 42.6612 10.2332 42.6722 10.5228 42.6602L10.4918 41.9108L10.4608 41.1615C10.2505 41.1702 10.04 41.1622 9.82893 41.1376L9.74183 41.8825ZM10.4918 41.9108L10.5228 42.6602C10.7423 42.6511 10.9618 42.6554 11.1814 42.6732L11.2418 41.9256L11.3022 41.178C11.0219 41.1554 10.7414 41.1499 10.4608 41.1615L10.4918 41.9108ZM11.2418 41.9256L11.1814 42.6732C11.3498 42.6868 11.5254 42.7281 11.71 42.803L11.9918 42.108L12.2737 41.413C11.9583 41.2851 11.6338 41.2048 11.3022 41.178L11.2418 41.9256ZM11.9918 42.108L11.71 42.803C11.9875 42.9155 12.2878 42.9345 12.5822 42.8462C12.8619 42.7624 13.0906 42.596 13.2735 42.4121L12.7418 41.8831L12.2101 41.3542C12.178 41.3865 12.1558 41.4031 12.1445 41.4104C12.1337 41.4175 12.1361 41.414 12.1515 41.4094C12.168 41.4044 12.1917 41.4006 12.2189 41.402C12.2458 41.4034 12.265 41.4094 12.2737 41.413L11.9918 42.108ZM12.7418 41.8831L13.2735 42.4121C13.313 42.3724 13.2444 42.4602 13.0818 42.4526C12.9295 42.4455 12.8818 42.3622 12.9372 42.423L13.4918 41.9182L14.0465 41.4133C13.8518 41.1995 13.5541 40.9731 13.1518 40.9543C12.7393 40.935 12.4207 41.1426 12.2101 41.3542L12.7418 41.8831ZM13.4918 41.9182L12.9372 42.423C13.3419 42.8676 13.8959 43.0949 14.5214 42.9429L14.3444 42.2141L14.1673 41.4853C14.1486 41.4899 14.1397 41.4897 14.1385 41.4896C14.1378 41.4896 14.1386 41.4897 14.1384 41.4896C14.1378 41.4894 14.1302 41.4868 14.1153 41.4764C14.1 41.4657 14.0766 41.4464 14.0465 41.4133L13.4918 41.9182ZM14.3444 42.2141L14.5214 42.9429C15.037 42.8177 15.4776 42.4981 15.6668 41.9468L14.9574 41.7033L14.248 41.4598C14.2458 41.4664 14.2451 41.4659 14.248 41.4616C14.2511 41.4572 14.2545 41.4537 14.2563 41.4522C14.2602 41.449 14.2404 41.4676 14.1673 41.4853L14.3444 42.2141ZM14.9574 41.7033L15.6668 41.9468C15.7512 41.701 15.8427 41.4637 15.9414 41.2346L15.2526 40.9379L14.5638 40.6411C14.4496 40.9063 14.3444 41.1792 14.248 41.4598L14.9574 41.7033ZM15.2526 40.9379L15.9414 41.2346C16.0128 41.0689 16.1025 40.939 16.2068 40.8354L15.6785 40.3031L15.1502 39.7707C14.8996 40.0194 14.7053 40.3127 14.5638 40.6411L15.2526 40.9379ZM15.6785 40.3031L16.2068 40.8354C16.3966 40.6471 16.5798 40.4522 16.7564 40.2508L16.1924 39.7563L15.6285 39.2619C15.4747 39.4373 15.3153 39.6069 15.1502 39.7707L15.6785 40.3031ZM16.1924 39.7563L16.7564 40.2508C16.7528 40.2549 16.7545 40.249 16.7799 40.2391C16.8094 40.2276 16.8705 40.2112 16.9775 40.208L16.9551 39.4583L16.9326 38.7087C16.461 38.7228 15.9759 38.8656 15.6285 39.2619L16.1924 39.7563ZM16.9551 39.4583L16.9775 40.208C17.5048 40.1922 18.047 39.9764 18.3182 39.4048L17.6407 39.0833L16.9631 38.7617C16.9659 38.7557 16.9733 38.7429 16.9869 38.7284C17.0006 38.7138 17.0144 38.7041 17.024 38.6989C17.041 38.6895 17.0222 38.706 16.9326 38.7087L16.9551 39.4583ZM17.6407 39.0833L18.3182 39.4048C18.3736 39.2882 18.4451 39.2099 18.5374 39.1513L18.1359 38.5179L17.7344 37.8844C17.394 38.1002 17.1353 38.3988 16.9631 38.7617L17.6407 39.0833ZM18.1359 38.5179L18.5374 39.1513C18.8684 38.9415 19.1269 38.6562 19.3074 38.3088L18.6418 37.9631L17.9763 37.6174C17.915 37.7354 17.8362 37.8199 17.7344 37.8844L18.1359 38.5179ZM18.6418 37.9631L19.3074 38.3088C19.3785 38.1719 19.4679 38.0677 19.5765 37.9861L19.1259 37.3865L18.6754 36.787C18.3803 37.0087 18.1469 37.289 17.9763 37.6174L18.6418 37.9631ZM19.1259 37.3865L19.5765 37.9861C19.9473 37.7075 20.1622 37.3156 20.2561 36.8818L19.5231 36.7231L18.7901 36.5644C18.7582 36.7118 18.7083 36.7622 18.6754 36.787L19.1259 37.3865ZM19.5231 36.7231L20.2561 36.8818C20.2563 36.8811 20.2518 36.9017 20.2327 36.9322C20.2124 36.9644 20.1838 36.9945 20.1505 37.0172C20.0868 37.0607 20.0602 37.042 20.1455 37.0429L20.1537 36.293L20.1619 35.543C19.8897 35.5401 19.5793 35.5912 19.3054 35.778C19.0151 35.976 18.8549 36.2652 18.7901 36.5644L19.5231 36.7231ZM20.1537 36.293L20.1455 37.0429C20.4235 37.046 20.7489 36.99 21.0277 36.7767C21.3207 36.5526 21.4557 36.2373 21.4975 35.9366L20.7547 35.8333L20.0118 35.7299C20.0107 35.7382 20.012 35.72 20.0288 35.6879C20.0471 35.6531 20.0766 35.6157 20.1163 35.5853C20.1949 35.5252 20.2414 35.5439 20.1619 35.543L20.1537 36.293ZM20.7547 35.8333L21.4975 35.9366C21.508 35.8614 21.5247 35.8312 21.5279 35.8259C21.5296 35.8232 21.5296 35.8237 21.5279 35.8253C21.5263 35.8269 21.5262 35.8265 21.53 35.8243L21.1561 35.1741L20.7823 34.5239C20.3142 34.7931 20.0794 35.2438 20.0118 35.7299L20.7547 35.8333ZM21.1561 35.1741L21.53 35.8243C21.7904 35.6746 22.0346 35.5056 22.2617 35.317L21.7826 34.7399L21.3036 34.1629C21.1443 34.2951 20.9708 34.4155 20.7823 34.5239L21.1561 35.1741ZM21.7826 34.7399L22.2617 35.317C22.6028 35.0338 22.8063 34.6543 22.9023 34.2354L22.1713 34.0679L21.4402 33.9004C21.4044 34.0568 21.3488 34.1253 21.3036 34.1629L21.7826 34.7399ZM22.1713 34.0679L22.9023 34.2354C22.9074 34.2132 22.9121 34.203 22.9131 34.201C22.9136 34.2 22.9133 34.2008 22.9119 34.2028C22.9106 34.2048 22.9085 34.2077 22.9056 34.2109C22.9027 34.2141 22.8996 34.2171 22.8965 34.2198C22.8933 34.2224 22.8908 34.2242 22.8892 34.2252C22.8857 34.2274 22.8885 34.2249 22.9015 34.2207L22.671 33.507L22.4405 32.7933C21.9067 32.9657 21.5615 33.3712 21.4402 33.9004L22.1713 34.0679ZM22.671 33.507L22.9015 34.2207C23.2512 34.1078 23.57 33.9385 23.8445 33.7049L23.3584 33.1337L22.8723 32.5626C22.7648 32.6541 22.6253 32.7336 22.4405 32.7933L22.671 33.507ZM23.3584 33.1337L23.8445 33.7049C23.958 33.6083 24.1014 33.5248 24.2854 33.4605L24.0378 32.7525L23.7902 32.0445C23.4503 32.1634 23.1408 32.3341 22.8723 32.5626L23.3584 33.1337ZM24.0378 32.7525L24.2854 33.4605C24.5468 33.369 24.7812 33.2076 24.9537 32.9684C25.1217 32.7354 25.2005 32.4714 25.2279 32.2164L24.4822 32.1362L23.7365 32.0561C23.7296 32.1203 23.7172 32.1186 23.737 32.0911C23.7468 32.0776 23.7595 32.0649 23.773 32.0551C23.786 32.0456 23.7936 32.0434 23.7902 32.0445L24.0378 32.7525ZM24.4822 32.1362L25.2279 32.2164C25.2479 32.0304 25.2999 31.9849 25.3095 31.9766L24.8173 31.4107L24.3251 30.8448C23.9565 31.1654 23.7851 31.6035 23.7365 32.0561L24.4822 32.1362ZM24.8173 31.4107L25.3095 31.9766C25.4398 31.8632 25.5933 31.7647 25.7747 31.6829L25.4665 30.9992L25.1583 30.3154C24.8523 30.4534 24.573 30.6292 24.3251 30.8448L24.8173 31.4107ZM25.4665 30.9992L25.7747 31.6829C26.0532 31.5574 26.3169 31.413 26.5648 31.2492L26.1514 30.6234L25.738 29.9976C25.5601 30.1152 25.3671 30.2213 25.1583 30.3154L25.4665 30.9992ZM26.1514 30.6234L26.5648 31.2492C26.8479 31.0622 27.0932 30.8328 27.2974 30.5628L26.6991 30.1105L26.1009 29.6582C26.0006 29.7908 25.8807 29.9034 25.738 29.9976L26.1514 30.6234ZM26.6991 30.1105L27.2974 30.5628C27.4899 30.3082 27.6488 30.0279 27.7758 29.7251L27.0842 29.4349L26.3926 29.1447C26.3107 29.3401 26.2128 29.5101 26.1009 29.6582L26.6991 30.1105ZM27.0842 29.4349L27.7758 29.7251C27.8603 29.5238 27.9596 29.3451 28.0725 29.1865L27.4615 28.7516L26.8505 28.3166C26.6693 28.5711 26.5172 28.8479 26.3926 29.1447L27.0842 29.4349ZM27.4615 28.7516L28.0725 29.1865C28.2188 28.9809 28.3656 28.7758 28.5128 28.5711L27.9039 28.1333L27.2949 27.6954C27.1463 27.902 26.9982 28.1091 26.8505 28.3166L27.4615 28.7516ZM27.9039 28.1333L28.5128 28.5711C28.5105 28.5742 28.5069 28.5782 28.5028 28.5815C28.4989 28.5847 28.4985 28.584 28.5048 28.5812C28.519 28.5748 28.5661 28.5581 28.6654 28.5542L28.636 27.8047L28.6066 27.0553C28.1208 27.0744 27.6207 27.2423 27.2949 27.6954L27.9039 28.1333ZM28.636 27.8047L28.6654 28.5542C28.9556 28.5428 29.292 28.4557 29.5558 28.1896C29.8191 27.924 29.9036 27.5874 29.9136 27.298L29.164 27.2721L28.4145 27.2462C28.4127 27.2986 28.4033 27.2216 28.4905 27.1336C28.5783 27.045 28.6567 27.0534 28.6066 27.0553L28.636 27.8047ZM29.164 27.2721L29.9136 27.298C29.9169 27.2032 29.9335 27.1689 29.9332 27.1693C29.9327 27.1704 29.9289 27.1775 29.9205 27.1867C29.912 27.196 29.9035 27.2022 29.8981 27.2054L29.5139 26.5613L29.1297 25.9172C28.6199 26.2213 28.4319 26.7426 28.4145 27.2462L29.164 27.2721ZM29.5139 26.5613L29.8981 27.2054C30.1782 27.0383 30.4298 26.8369 30.6502 26.6011L30.1023 26.089L29.5543 25.5769C29.4331 25.7066 29.2925 25.8201 29.1297 25.9172L29.5139 26.5613ZM30.1023 26.089L30.6502 26.6011C30.761 26.4826 30.8942 26.3806 31.055 26.2961L30.7061 25.6322L30.3571 24.9683C30.0545 25.1274 29.7851 25.33 29.5543 25.5769L30.1023 26.089ZM30.7061 25.6322L31.055 26.2961C31.4059 26.1116 31.6906 25.8456 31.8955 25.5057L31.2531 25.1186L30.6108 24.7314C30.5497 24.8327 30.4698 24.9091 30.3571 24.9683L30.7061 25.6322ZM31.2531 25.1186L31.8955 25.5057C31.9388 25.4338 31.9992 25.3774 32.1092 25.3337L31.832 24.6368L31.5549 23.9399C31.1589 24.0974 30.8334 24.3621 30.6108 24.7314L31.2531 25.1186ZM31.832 24.6368L32.1092 25.3337C32.5216 25.1697 32.8499 24.8834 33.0581 24.4859L32.3938 24.1379L31.7294 23.7899C31.6946 23.8563 31.6483 23.9027 31.5549 23.9399L31.832 24.6368ZM32.3938 24.1379L33.0581 24.4859C33.0681 24.4669 33.0757 24.4601 33.0825 24.4551C33.0913 24.4486 33.1177 24.4318 33.1781 24.4174L33.0044 23.6878L32.8306 22.9582C32.3625 23.0697 31.9644 23.3412 31.7294 23.7899L32.3938 24.1379ZM33.0044 23.6878L33.1781 24.4174C33.4705 24.3478 33.749 24.1877 33.943 23.9088C34.1276 23.6434 34.186 23.342 34.1895 23.0722L33.4395 23.0623L32.6896 23.0525C32.6886 23.1317 32.6721 23.109 32.7117 23.0521C32.732 23.0229 32.7586 22.9976 32.7869 22.9794C32.8138 22.9622 32.8317 22.958 32.8306 22.9582L33.0044 23.6878ZM33.4395 23.0623L34.1895 23.0722C34.1902 23.0161 34.2023 23.1062 34.1022 23.2045C34.0033 23.3016 33.9163 23.2872 33.9775 23.2869L33.9748 22.5369L33.9721 21.7869C33.681 21.788 33.3287 21.8618 33.0514 22.134C32.7729 22.4075 32.6934 22.7597 32.6896 23.0525L33.4395 23.0623ZM33.9748 22.5369L33.9775 23.2869C34.4603 23.2852 34.9729 23.1468 35.3234 22.7138L34.7405 22.2419L34.1575 21.77C34.1683 21.7567 34.1769 21.7562 34.1608 21.7624C34.1389 21.7708 34.082 21.7865 33.9721 21.7869L33.9748 22.5369ZM34.7405 22.2419L35.3234 22.7138C35.6315 22.3332 35.7263 21.8583 35.7186 21.3971L34.9687 21.4096L34.2188 21.422C34.2231 21.6799 34.1657 21.7599 34.1575 21.77L34.7405 22.2419ZM34.9687 21.4096L35.7186 21.3971C35.7168 21.2862 35.7326 21.237 35.7367 21.2268C35.7382 21.223 35.7367 21.2281 35.7295 21.2374C35.722 21.2471 35.7128 21.2559 35.7038 21.2622L35.2701 20.6503L34.8365 20.0384C34.351 20.3825 34.2106 20.9264 34.2188 21.422L34.9687 21.4096ZM35.2701 20.6503L35.7038 21.2622C35.8624 21.1498 36.0413 21.051 36.243 20.9671L35.9551 20.2746L35.6671 19.5821C35.3694 19.7059 35.0917 19.8575 34.8365 20.0384L35.2701 20.6503ZM35.9551 20.2746L36.243 20.9671C36.4718 20.872 36.7104 20.7849 36.959 20.7062L36.7324 19.9912L36.5058 19.2763C36.2174 19.3677 35.9378 19.4695 35.6671 19.5821L35.9551 20.2746ZM36.7324 19.9912L36.959 20.7062C37.4467 20.5516 37.8079 20.21 37.9808 19.7234L37.2741 19.4723L36.5674 19.2212C36.5613 19.2385 36.556 19.2478 36.5535 19.2517C36.5523 19.2538 36.5514 19.2549 36.551 19.2553C36.5506 19.2558 36.5505 19.256 36.5504 19.256C36.5503 19.2561 36.5499 19.2565 36.5491 19.2571C36.5482 19.2578 36.5465 19.259 36.5436 19.2606C36.5379 19.2639 36.5261 19.2698 36.5058 19.2763L36.7324 19.9912ZM37.2741 19.4723L37.9808 19.7234C38.0322 19.5788 38.101 19.4887 38.1785 19.4258L37.7059 18.8434L37.2333 18.2611C36.9205 18.5149 36.7014 18.8441 36.5674 19.2212L37.2741 19.4723ZM37.7059 18.8434L38.1785 19.4258C38.4117 19.2366 38.6244 19.0263 38.8162 18.7955L38.2393 18.3162L37.6625 17.8369C37.5334 17.9923 37.3905 18.1335 37.2333 18.2611L37.7059 18.8434ZM38.2393 18.3162L38.8162 18.7955C38.9872 18.5897 39.1518 18.3777 39.3101 18.1596L38.703 17.7192L38.0959 17.2788C37.9568 17.4705 37.8123 17.6565 37.6625 17.8369L38.2393 18.3162ZM38.703 17.7192L39.3101 18.1596C39.3874 18.053 39.487 17.9661 39.62 17.8974L39.2756 17.2311L38.9312 16.5649C38.5981 16.7371 38.3159 16.9756 38.0959 17.2788L38.703 17.7192ZM39.2756 17.2311L39.62 17.8974C39.9099 17.7475 40.1741 17.5644 40.4097 17.3469L39.9009 16.7958L39.3922 16.2448C39.2601 16.3667 39.1075 16.4738 38.9312 16.5649L39.2756 17.2311ZM39.9009 16.7958L40.4097 17.3469C40.5458 17.2212 40.701 17.1102 40.8778 17.0145L40.5207 16.355L40.1637 15.6954C39.8817 15.848 39.6238 16.0309 39.3922 16.2448L39.9009 16.7958ZM40.5207 16.355L40.8778 17.0145C41.3366 16.7661 41.5947 16.3455 41.6852 15.8664L40.9483 15.7271L40.2113 15.5878C40.1992 15.652 40.1833 15.6775 40.1797 15.6827C40.1777 15.6857 40.1765 15.6868 40.1758 15.6875C40.1749 15.6882 40.1716 15.6911 40.1637 15.6954L40.5207 16.355ZM40.9483 15.7271L41.6852 15.8664C41.6948 15.8159 41.7083 15.7942 41.7148 15.7853C41.7211 15.7766 41.7363 15.7587 41.778 15.7364L41.4236 15.0754L41.0691 14.4144C40.6056 14.6629 40.3085 15.0734 40.2113 15.5878L40.9483 15.7271ZM41.4236 15.0754L41.778 15.7364C42.2023 15.5088 42.5152 15.1495 42.6463 14.6697L41.9228 14.4721L41.1993 14.2745C41.1871 14.3189 41.1672 14.3618 41.0691 14.4144L41.4236 15.0754ZM41.9228 14.4721L42.6463 14.6697C42.7159 14.4147 42.7891 14.1617 42.8657 13.9108L42.1484 13.6917L41.4311 13.4726C41.3501 13.7379 41.2728 14.0052 41.1993 14.2745L41.9228 14.4721ZM42.1484 13.6917L42.8657 13.9108C42.9942 13.4902 42.9765 13.062 42.8268 12.6518L42.1222 12.9088L41.4177 13.1659C41.4605 13.2833 41.4603 13.3771 41.4311 13.4726L42.1484 13.6917ZM42.1222 12.9088L42.8268 12.6518C42.7061 12.3207 42.5413 12.0145 42.3319 11.7363L41.7327 12.1874L41.1335 12.6385C41.251 12.7945 41.3459 12.9692 41.4177 13.1659L42.1222 12.9088ZM41.7327 12.1874L42.3319 11.7363C42.2047 11.5674 42.1229 11.4158 42.0739 11.2819L41.3696 11.5397L40.6654 11.7976C40.7736 12.0931 40.9339 12.3733 41.1335 12.6385L41.7327 12.1874ZM41.3696 11.5397L42.0739 11.2819C42.0287 11.1584 41.9969 10.9972 41.9922 10.7879L41.2424 10.8048L40.4926 10.8218C40.5003 11.163 40.5534 11.4917 40.6654 11.7976L41.3696 11.5397ZM41.2424 10.8048L41.9922 10.7879C41.9869 10.5547 41.936 10.3068 41.8021 10.0776C41.6647 9.84263 41.4655 9.6713 41.2361 9.56043L40.9097 10.2357L40.5833 10.9109C40.5791 10.9089 40.5662 10.9019 40.5499 10.8872C40.5332 10.8722 40.5184 10.8539 40.5071 10.8346C40.484 10.7952 40.4916 10.7798 40.4926 10.8218L41.2424 10.8048ZM40.9097 10.2357L41.2361 9.56043C41.1387 9.51335 41.1631 9.51208 41.2179 9.56686C41.243 9.59191 41.3549 9.70642 41.3915 9.90903C41.4117 10.0213 41.4054 10.1453 41.3627 10.2667C41.3214 10.3842 41.2566 10.4697 41.2 10.5263L40.6696 9.99598L40.1393 9.46566C39.9802 9.62479 39.8619 9.87946 39.9153 10.1754C39.958 10.4119 40.0929 10.5633 40.158 10.6283C40.2929 10.763 40.465 10.8538 40.5833 10.9109L40.9097 10.2357ZM40.6696 9.99598L41.2 10.5263C41.3807 10.3455 41.4714 10.0849 41.4241 9.81666C41.3866 9.60402 41.2748 9.45929 41.2165 9.39205C41.0952 9.25208 40.9352 9.14542 40.8135 9.07134L40.4234 9.71188L40.0333 10.3524C40.1314 10.4122 40.1223 10.4198 40.083 10.3745C40.0658 10.3546 39.9778 10.2523 39.9469 10.0773C39.9297 9.97958 39.9314 9.86318 39.9705 9.74231C40.0093 9.62234 40.0745 9.53045 40.1393 9.46566L40.6696 9.99598ZM13.6962 40.7772L14.0064 40.0943C13.7523 39.9789 13.4707 39.9359 13.1816 39.9906C12.9011 40.0438 12.6625 40.1794 12.4662 40.3429L12.9462 40.9192L13.4262 41.4955C13.4799 41.4507 13.4913 41.4587 13.4608 41.4644C13.4455 41.4673 13.4277 41.468 13.4103 41.4657C13.3934 41.4635 13.3848 41.4595 13.386 41.46L13.6962 40.7772ZM12.9462 40.9192L12.4662 40.3429C12.4098 40.3899 12.3927 40.3866 12.4148 40.3819C12.426 40.3795 12.4405 40.3783 12.4558 40.3798C12.4707 40.3812 12.4788 40.3845 12.4786 40.3844L12.1962 41.0792L11.9138 41.774C12.4779 42.0032 13.0158 41.8373 13.4262 41.4955L12.9462 40.9192ZM12.1962 41.0792L12.4786 40.3844C12.1775 40.262 11.8705 40.1757 11.5584 40.1285L11.4462 40.8701L11.334 41.6116C11.5219 41.64 11.7149 41.6931 11.9138 41.774L12.1962 41.0792ZM11.4462 40.8701L11.5584 40.1285C11.1602 40.0683 10.7697 40.1265 10.4016 40.2838L10.6962 40.9735L10.9908 41.6632C11.1227 41.6069 11.2322 41.5962 11.334 41.6116L11.4462 40.8701ZM10.6962 40.9735L10.4016 40.2838C10.2653 40.342 10.1506 40.3546 10.0444 40.3406L9.9462 41.0841L9.84799 41.8277C10.2418 41.8797 10.6271 41.8186 10.9908 41.6632L10.6962 40.9735ZM9.9462 41.0841L10.0444 40.3406C9.91848 40.324 9.77007 40.2735 9.59598 40.1638L9.1962 40.7984L8.79642 41.4329C9.12234 41.6382 9.47392 41.7783 9.84799 41.8277L9.9462 41.0841ZM9.1962 40.7984L9.59598 40.1638C9.36829 40.0203 9.09853 39.9273 8.79929 39.936C8.50171 39.9447 8.23925 40.0522 8.0209 40.2025L8.4462 40.8203L8.8715 41.438C8.88814 41.4266 8.89335 41.4257 8.88702 41.428C8.87979 41.4306 8.86433 41.4348 8.84311 41.4354C8.82175 41.436 8.80407 41.4328 8.79293 41.4294C8.78272 41.4264 8.78379 41.425 8.79642 41.4329L9.1962 40.7984ZM8.4462 40.8203L8.0209 40.2025C7.87824 40.3007 7.79011 40.3109 7.73956 40.308L7.6962 41.0567L7.65284 41.8055C8.10229 41.8315 8.51416 41.684 8.8715 41.438L8.4462 40.8203ZM7.6962 41.0567L7.73956 40.308C7.67232 40.3041 7.77502 40.293 7.9018 40.3978C7.97646 40.4595 8.04091 40.5472 8.07643 40.6535C8.10996 40.7539 8.1065 40.8367 8.10022 40.8814L7.35754 40.7769L6.61486 40.6723C6.57436 40.96 6.64853 41.308 6.94627 41.554C7.18593 41.7521 7.47008 41.7949 7.65284 41.8055L7.6962 41.0567ZM7.35754 40.7769L8.10022 40.8814C8.12984 40.6709 8.14616 40.4288 8.15235 40.1611L7.40256 40.1437L6.65276 40.1263C6.64738 40.3586 6.63368 40.5386 6.61486 40.6723L7.35754 40.7769ZM7.40256 40.1437L8.15235 40.1611C8.15963 39.8471 8.12703 39.5348 8.05591 39.2256L7.32499 39.3937L6.59407 39.5618C6.63795 39.7526 6.65706 39.9403 6.65276 40.1263L7.40256 40.1437ZM7.32499 39.3937L8.05591 39.2256C8.01784 39.0601 8.00997 38.899 8.03039 38.7382L7.28636 38.6437L6.54233 38.5492C6.49926 38.8884 6.51714 39.2273 6.59407 39.5618L7.32499 39.3937ZM7.28636 38.6437L8.03039 38.7382C8.07736 38.3682 8.03544 38.0023 7.91346 37.649L7.20452 37.8937L6.49557 38.1384C6.5462 38.2851 6.55885 38.4192 6.54233 38.5492L7.28636 38.6437ZM7.20452 37.8937L7.91346 37.649C7.85395 37.4766 7.82831 37.3131 7.83074 37.1552L7.08083 37.1437L6.33092 37.1322C6.32566 37.4743 6.38248 37.8109 6.49557 38.1384L7.20452 37.8937ZM7.08083 37.1437L7.83074 37.1552C7.83386 36.9523 7.85596 36.7483 7.89762 36.5426L7.16254 36.3937L6.42747 36.2448C6.36786 36.5391 6.33548 36.8351 6.33092 37.1322L7.08083 37.1437ZM7.16254 36.3937L7.89762 36.5426C8.0039 36.0178 7.821 35.5463 7.51773 35.1717L6.93485 35.6437L6.35197 36.1157C6.40594 36.1823 6.42178 36.2229 6.42594 36.2366C6.4287 36.2457 6.4275 36.2447 6.42747 36.2448L7.16254 36.3937ZM6.93485 35.6437L7.51773 35.1717C7.51113 35.1636 7.52474 35.1779 7.53749 35.2155C7.55144 35.2567 7.55883 35.31 7.55133 35.3668C7.53667 35.4779 7.48185 35.5013 7.545 35.4425L7.03382 34.8937L6.52265 34.3449C6.31739 34.5361 6.11187 34.8095 6.06422 35.1706C6.01385 35.5523 6.15902 35.8774 6.35197 36.1157L6.93485 35.6437ZM7.03382 34.8937L7.545 35.4425C7.73818 35.2626 7.92251 35.028 8.00914 34.7311C8.10234 34.4116 8.06091 34.0924 7.91797 33.8122L7.24989 34.153L6.58181 34.4939C6.5758 34.4821 6.56476 34.4552 6.56057 34.416C6.5563 34.3759 6.56095 34.3392 6.56916 34.311C6.58377 34.2609 6.59788 34.2748 6.52265 34.3449L7.03382 34.8937ZM7.24989 34.153L7.91797 33.8122C7.88555 33.7487 7.87714 33.6939 7.90508 33.6035L7.18846 33.3822L6.47185 33.1609C6.33295 33.6107 6.3655 34.0699 6.58181 34.4939L7.24989 34.153ZM7.18846 33.3822L7.90508 33.6035C7.95576 33.4393 8.02605 33.3337 8.10283 33.2603L7.58487 32.7179L7.06691 32.1755C6.78198 32.4476 6.588 32.7848 6.47185 33.1609L7.18846 33.3822ZM7.58487 32.7179L8.10283 33.2603C8.21655 33.1518 8.35554 33.0582 8.5271 32.9823L8.22394 32.2963L7.92078 31.6103C7.60196 31.7512 7.3149 31.9387 7.06691 32.1755L7.58487 32.7179ZM8.22394 32.2963L8.5271 32.9823C8.79106 32.8657 9.04691 32.7397 9.29449 32.6042L8.93453 31.9463L8.57456 31.2883C8.36509 31.4029 8.14721 31.5103 7.92078 31.6103L8.22394 32.2963ZM8.93453 31.9463L9.29449 32.6042C9.66816 32.3998 9.949 32.0933 10.1258 31.708L9.44412 31.3952L8.76244 31.0824C8.71684 31.1818 8.65795 31.2427 8.57456 31.2883L8.93453 31.9463ZM9.44412 31.3952L10.1258 31.708C10.1488 31.6579 10.1746 31.6278 10.2528 31.6001L10.0026 30.893L9.75243 30.186C9.3084 30.3431 8.96185 30.6478 8.76244 31.0824L9.44412 31.3952ZM10.0026 30.893L10.2528 31.6001C10.5077 31.5099 10.7375 31.3543 10.9108 31.1253C11.0805 30.9009 11.167 30.6448 11.2022 30.3932L10.4595 30.2892L9.7167 30.1853C9.7126 30.2145 9.70758 30.2293 9.70601 30.2334C9.70468 30.2369 9.70656 30.2309 9.71458 30.2203C9.72289 30.2093 9.73332 30.1993 9.74372 30.1919C9.75367 30.1848 9.7582 30.184 9.75243 30.186L10.0026 30.893ZM10.4595 30.2892L11.2022 30.3932C11.205 30.3732 11.2075 30.3725 11.2023 30.3843C11.1965 30.3974 11.1841 30.419 11.1624 30.4416C11.1406 30.4643 11.1184 30.4785 11.1027 30.4861C11.0884 30.493 11.0857 30.4914 11.102 30.4887L10.9797 29.7488L10.8573 29.0088C10.5836 29.0541 10.3041 29.1703 10.0817 29.4014C9.86037 29.6313 9.75473 29.9135 9.7167 30.1853L10.4595 30.2892ZM10.9797 29.7488L11.102 30.4887C11.4677 30.4283 11.8113 30.3237 12.1244 30.1665L11.7878 29.4962L11.4512 28.826C11.2936 28.9052 11.0984 28.969 10.8573 29.0088L10.9797 29.7488ZM11.7878 29.4962L12.1244 30.1665C12.4564 29.9998 12.7407 29.7692 12.9662 29.4752L12.371 29.0188L11.7759 28.5624C11.6944 28.6686 11.59 28.7563 11.4512 28.826L11.7878 29.4962ZM12.371 29.0188L12.9662 29.4752C13.1988 29.1718 13.3468 28.8184 13.4278 28.4374L12.6942 28.2813L11.9606 28.1253C11.9177 28.3273 11.8501 28.4656 11.7759 28.5624L12.371 29.0188ZM12.6942 28.2813L13.4278 28.4374C13.4785 28.1991 13.5491 27.9952 13.635 27.8211L12.9626 27.489L12.2901 27.157C12.1423 27.4562 12.034 27.7805 11.9606 28.1253L12.6942 28.2813ZM12.9626 27.489L13.635 27.8211C13.6693 27.7516 13.7135 27.7071 13.8001 27.6712L13.5126 26.9784L13.2252 26.2857C12.8121 26.4571 12.4895 26.753 12.2901 27.157L12.9626 27.489ZM13.5126 26.9784L13.8001 27.6712C14.0066 27.5855 14.2343 27.5137 14.4848 27.4575L14.3206 26.7257L14.1563 25.9939C13.8293 26.0673 13.5184 26.164 13.2252 26.2857L13.5126 26.9784ZM14.3206 26.7257L14.4848 27.4575C14.7501 27.3979 15.0098 27.2708 15.2157 27.0474C15.42 26.8259 15.5255 26.5594 15.5691 26.2969L14.8293 26.1738L14.0895 26.0507C14.086 26.0718 14.0828 26.0764 14.0856 26.07C14.0889 26.0627 14.0972 26.0477 14.1128 26.0308C14.1286 26.0137 14.1449 26.0021 14.157 25.9956C14.1681 25.9896 14.1698 25.9909 14.1563 25.9939L14.3206 26.7257ZM14.8293 26.1738L15.5691 26.2969C15.6048 26.0825 15.6681 25.9397 15.7367 25.8432L15.1252 25.409L14.5136 24.9748C14.2886 25.2917 14.1547 25.6589 14.0895 26.0507L14.8293 26.1738ZM15.1252 25.409L15.7367 25.8432C15.763 25.8061 15.8116 25.7573 15.9492 25.7238L15.7719 24.9951L15.5946 24.2663C15.1635 24.3712 14.7809 24.5983 14.5136 24.9748L15.1252 25.409ZM15.7719 24.9951L15.9492 25.7238C16.4006 25.614 16.7917 25.361 17.0409 24.9422L16.3963 24.5588L15.7517 24.1753C15.7371 24.1999 15.712 24.2378 15.5946 24.2663L15.7719 24.9951ZM16.3963 24.5588L17.0409 24.9422C17.1889 24.6933 17.3228 24.4324 17.4426 24.1601L16.7562 23.858L16.0697 23.5559C15.9734 23.7746 15.8674 23.9809 15.7517 24.1753L16.3963 24.5588ZM16.7562 23.858L17.4426 24.1601C17.4419 24.1617 17.4374 24.1711 17.4268 24.1835C17.4159 24.196 17.4041 24.2055 17.3947 24.2113C17.3765 24.2225 17.3891 24.2074 17.4671 24.2017L17.4125 23.4537L17.3579 22.7056C16.8278 22.7443 16.3174 22.9931 16.0697 23.5559L16.7562 23.858ZM17.4125 23.4537L17.4671 24.2017C17.9389 24.1672 18.4086 23.9941 18.731 23.5788L18.1385 23.119L17.546 22.6591C17.5451 22.6602 17.5447 22.6607 17.5437 22.6615C17.5425 22.6624 17.5378 22.6659 17.5271 22.6708C17.5048 22.6811 17.4536 22.6987 17.3579 22.7056L17.4125 23.4537ZM18.1385 23.119L18.731 23.5788C18.8774 23.3902 19.0282 23.2061 19.1835 23.0266L18.6161 22.536L18.0488 22.0454C17.8762 22.2451 17.7086 22.4497 17.546 22.6591L18.1385 23.119ZM18.6161 22.536L19.1835 23.0266C19.3126 22.8772 19.4566 22.7425 19.6162 22.622L19.1642 22.0234L18.7123 21.4249C18.469 21.6086 18.2476 21.8156 18.0488 22.0454L18.6161 22.536ZM19.1642 22.0234L19.6162 22.622C19.8135 22.473 20.0127 22.3259 20.2137 22.1805L19.7742 21.5727L19.3347 20.965C19.1254 21.1164 18.9179 21.2697 18.7123 21.4249L19.1642 22.0234ZM19.7742 21.5727L20.2137 22.1805C20.687 21.8382 20.8317 21.3053 20.829 20.8127L20.079 20.8169L19.329 20.8211C19.3296 20.9299 19.3137 20.9797 19.3087 20.992C19.3067 20.997 19.3075 20.9936 19.3134 20.9858C19.3195 20.9778 19.3273 20.9704 19.3347 20.965L19.7742 21.5727ZM20.079 20.8169L20.829 20.8127C20.8287 20.7644 20.8326 20.7325 20.8361 20.7141C20.8396 20.6959 20.8422 20.6936 20.8384 20.7015C20.8341 20.7103 20.8248 20.7255 20.809 20.7415C20.7932 20.7576 20.7778 20.7676 20.7679 20.7727L20.4273 20.1045L20.0866 19.4363C19.5108 19.7299 19.3261 20.2982 19.329 20.8211L20.079 20.8169ZM20.4273 20.1045L20.7679 20.7727C20.9378 20.6861 21.138 20.6148 21.3735 20.5636L21.2141 19.8307L21.0548 19.0978C20.7095 19.1729 20.3851 19.2841 20.0866 19.4363L20.4273 20.1045ZM21.2141 19.8307L21.3735 20.5636C21.8341 20.4634 22.2386 20.2137 22.4924 19.7838L21.8466 19.4025L21.2008 19.0212C21.1921 19.0359 21.175 19.0717 21.0548 19.0978L21.2141 19.8307ZM21.8466 19.4025L22.4924 19.7838C22.5835 19.6295 22.692 19.5 22.8182 19.391L22.3281 18.8233L21.838 18.2556C21.5847 18.4743 21.3722 18.7308 21.2008 19.0212L21.8466 19.4025ZM22.3281 18.8233L22.8182 19.391C23.154 19.1011 23.3499 18.7167 23.4393 18.2963L22.7057 18.1403L21.9721 17.9843C21.9375 18.1469 21.8816 18.2179 21.838 18.2556L22.3281 18.8233ZM22.7057 18.1403L23.4393 18.2963C23.4721 18.1422 23.5244 18.0842 23.5609 18.0552L23.0942 17.4681L22.6275 16.881C22.2701 17.1651 22.0634 17.5552 21.9721 17.9843L22.7057 18.1403ZM23.0942 17.4681L23.5609 18.0552C23.6663 17.9714 23.8079 17.8977 24.002 17.8457L23.808 17.1212L23.6139 16.3968C23.2503 16.4942 22.916 16.6517 22.6275 16.881L23.0942 17.4681ZM23.808 17.1212L24.002 17.8457C24.3656 17.7483 24.6998 17.5909 24.9883 17.3618L24.5219 16.7745L24.0555 16.1871C23.9499 16.271 23.8081 16.3448 23.6139 16.3968L23.808 17.1212ZM24.5219 16.7745L24.9883 17.3618C25.2325 17.1679 25.4506 16.9472 25.6418 16.7005L25.0491 16.241L24.4564 15.7815C24.3387 15.9332 24.2054 16.0681 24.0555 16.1871L24.5219 16.7745ZM25.0491 16.241L25.6418 16.7005C25.7949 16.503 25.9488 16.3063 26.1034 16.1103L25.5145 15.6458L24.9257 15.1813C24.7685 15.3806 24.612 15.5807 24.4564 15.7815L25.0491 16.241ZM25.5145 15.6458L26.1034 16.1103C26.1927 15.9971 26.3045 15.9027 26.4472 15.8266L26.0942 15.1648L25.7412 14.5031C25.4228 14.6729 25.1482 14.8992 24.9257 15.1813L25.5145 15.6458ZM26.0942 15.1648L26.4472 15.8266C26.8512 15.6111 27.133 15.2696 27.2863 14.8465L26.5811 14.591L25.8759 14.3356C25.8412 14.4316 25.7984 14.4726 25.7412 14.5031L26.0942 15.1648ZM26.5811 14.591L27.2863 14.8465C27.3612 14.6395 27.4525 14.4591 27.5579 14.3021L26.935 13.8843L26.3122 13.4665C26.1336 13.7327 25.989 14.0235 25.8759 14.3356L26.5811 14.591ZM26.935 13.8843L27.5579 14.3021C27.6959 14.0963 27.8364 13.8931 27.9794 13.6925L27.3686 13.2572L26.7578 12.822C26.6066 13.0342 26.458 13.2491 26.3122 13.4665L26.935 13.8843ZM27.3686 13.2572L27.9794 13.6925C27.9953 13.6701 28.0048 13.6649 28.007 13.6636C28.0099 13.6619 28.0251 13.6534 28.0651 13.6489L27.9814 12.9036L27.8978 12.1582C27.4337 12.2103 27.0338 12.4346 26.7578 12.822L27.3686 13.2572ZM27.9814 12.9036L28.0651 13.6489C28.1647 13.6377 28.2369 13.6556 28.3101 13.7005L28.7023 13.0612L29.0945 12.422C28.7295 12.198 28.3211 12.1108 27.8978 12.1582L27.9814 12.9036ZM28.7023 13.0612L28.3101 13.7005C28.5001 13.8171 28.678 13.944 28.8442 14.0811L29.3215 13.5027L29.7989 12.9242C29.5776 12.7416 29.3427 12.5742 29.0945 12.422L28.7023 13.0612ZM29.3215 13.5027L28.8442 14.0811C28.9591 14.176 29.0559 14.2935 29.1346 14.4411L29.7965 14.0884L30.4583 13.7356C30.2912 13.422 30.0713 13.149 29.7989 12.9242L29.3215 13.5027ZM29.7965 14.0884L29.1346 14.4411C29.2629 14.6818 29.3958 14.9181 29.5335 15.15L30.1784 14.7671L30.8233 14.3842C30.6976 14.1724 30.5759 13.9562 30.4583 13.7356L29.7965 14.0884ZM30.1784 14.7671L29.5335 15.15C29.7017 15.4333 29.9062 15.6866 30.1471 15.9067L30.653 15.3531L31.159 14.7995C31.0304 14.682 30.9185 14.5446 30.8233 14.3842L30.1784 14.7671ZM30.653 15.3531L30.1471 15.9067C30.2533 16.0038 30.3438 16.126 30.4162 16.2833L31.0974 15.9694L31.7786 15.6556C31.628 15.3287 31.4223 15.0401 31.159 14.7995L30.653 15.3531ZM31.0974 15.9694L30.4162 16.2833C30.5541 16.5824 30.7258 16.857 30.9332 17.1034L31.507 16.6205L32.0809 16.1375C31.9651 15.9999 31.8638 15.8405 31.7786 15.6556L31.0974 15.9694ZM31.507 16.6205L30.9332 17.1034C31.2211 17.4454 31.6065 17.6448 32.029 17.7354L32.1861 17.002L32.3433 16.2686C32.1834 16.2344 32.1161 16.1794 32.0809 16.1375L31.507 16.6205ZM32.1861 17.002L32.029 17.7354C32.0845 17.7473 32.0989 17.7606 32.0949 17.7576C32.0936 17.7565 32.0919 17.7548 32.0909 17.7535C32.09 17.7524 32.0925 17.7552 32.0967 17.7648L32.784 17.4648L33.4714 17.1647C33.2558 16.6706 32.8408 16.3752 32.3433 16.2686L32.1861 17.002ZM32.784 17.4648L32.0967 17.7648C32.2593 18.1374 32.5127 18.4473 32.855 18.6713L33.2657 18.0438L33.6765 17.4162C33.5913 17.3605 33.5236 17.2844 33.4714 17.1647L32.784 17.4648ZM33.2657 18.0438L32.855 18.6713C32.9961 18.7637 33.114 18.8746 33.2121 19.0059L33.813 18.5571L34.4139 18.1083C34.2097 17.8349 33.9627 17.6036 33.6765 17.4162L33.2657 18.0438ZM33.813 18.5571L33.2121 19.0059C33.3927 19.2477 33.5949 19.4692 33.8185 19.6698L34.3193 19.1115L34.8201 18.5532C34.6709 18.4194 34.5356 18.2714 34.4139 18.1083L33.813 18.5571ZM34.3193 19.1115L33.8185 19.6698C34.015 19.846 34.1956 19.9971 34.3582 20.1184L34.8066 19.5172L35.255 18.916C35.1407 18.8307 34.9964 18.7113 34.8201 18.5532L34.3193 19.1115ZM34.8066 19.5172L34.3582 20.1184C34.3246 20.0933 34.2555 20.0329 34.2037 19.9248C34.1471 19.8068 34.1334 19.6779 34.1542 19.5627C34.1728 19.4593 34.2139 19.3945 34.2296 19.372C34.246 19.3486 34.2531 19.3455 34.2353 19.3613L34.7337 19.9218L35.2321 20.4822C35.36 20.3685 35.5723 20.1511 35.6304 19.8289C35.707 19.4039 35.4813 19.0847 35.255 18.916L34.8066 19.5172ZM34.7337 19.9218L34.2353 19.3613C33.9149 19.6463 33.7189 20.0164 33.6211 20.4246L34.3505 20.5993L35.0799 20.7739C35.1188 20.6116 35.1782 20.5301 35.2321 20.4822L34.7337 19.9218ZM34.3505 20.5993L33.6211 20.4246C33.5937 20.5392 33.558 20.5599 33.5366 20.5723L33.9121 21.2215L34.2876 21.8707C34.7141 21.624 34.9707 21.2299 35.0799 20.7739L34.3505 20.5993ZM33.9121 21.2215L33.5366 20.5723C33.2945 20.7122 33.0605 20.861 32.8345 21.0187L33.2637 21.6338L33.6929 22.2488C33.8834 22.1159 34.0816 21.9898 34.2876 21.8707L33.9121 21.2215ZM33.2637 21.6338L32.8345 21.0187C32.5119 21.2438 32.2676 21.5434 32.1029 21.8996L32.7836 22.2144L33.4644 22.5291C33.5232 22.4019 33.599 22.3143 33.6929 22.2488L33.2637 21.6338ZM32.7836 22.2144L32.1029 21.8996C32.0039 22.1136 31.895 22.315 31.7762 22.5042L32.4115 22.9029L33.0467 23.3015C33.2006 23.0563 33.3397 22.7987 33.4644 22.5291L32.7836 22.2144ZM32.4115 22.9029L31.7762 22.5042C31.7697 22.5146 31.7642 22.5201 31.753 22.527C31.7389 22.5357 31.7025 22.5538 31.6279 22.5665L31.7538 23.3058L31.8796 24.0452C32.3475 23.9656 32.7747 23.7349 33.0467 23.3015L32.4115 22.9029ZM31.7538 23.3058L31.6279 22.5665C31.1268 22.6517 30.6871 22.9251 30.4522 23.4241L31.1308 23.7435L31.8094 24.063C31.8122 24.0569 31.813 24.057 31.8103 24.0602C31.8076 24.0635 31.8044 24.0662 31.8026 24.0675C31.7983 24.0705 31.8159 24.056 31.8796 24.0452L31.7538 23.3058ZM31.1308 23.7435L30.4522 23.4241C30.4102 23.5135 30.3559 23.5681 30.2721 23.61L30.6074 24.2808L30.9428 24.9517C31.3304 24.7579 31.6251 24.4544 31.8094 24.063L31.1308 23.7435ZM30.6074 24.2808L30.2721 23.61C29.7909 23.8505 29.5236 24.2812 29.4343 24.772L30.1722 24.9063L30.9101 25.0405C30.9218 24.9761 30.9371 24.9544 30.9375 24.954C30.9378 24.9534 30.937 24.9545 30.9357 24.9557C30.9344 24.9568 30.9359 24.9551 30.9428 24.9517L30.6074 24.2808ZM30.1722 24.9063L29.4343 24.772C29.4216 24.8421 29.4042 24.8734 29.3979 24.8831C29.3934 24.8901 29.3899 24.8941 29.3788 24.9005L29.7548 25.5495L30.1308 26.1985C30.5789 25.9388 30.8239 25.5141 30.9101 25.0405L30.1722 24.9063ZM29.7548 25.5495L29.3788 24.9005C29.2479 24.9764 29.0741 25.0399 28.843 25.0771L28.9622 25.8176L29.0813 26.558C29.4594 26.4972 29.814 26.382 30.1308 26.1985L29.7548 25.5495ZM28.9622 25.8176L28.843 25.0771C28.5909 25.1177 28.3362 25.2114 28.1161 25.389C27.8923 25.5695 27.745 25.804 27.662 26.0591L28.3751 26.2912L29.0883 26.5233C29.091 26.515 29.0911 26.5179 29.0851 26.527C29.0787 26.5366 29.0693 26.5473 29.058 26.5564C29.0469 26.5654 29.0396 26.5683 29.0408 26.5678C29.0427 26.567 29.0549 26.5623 29.0813 26.558L28.9622 25.8176ZM28.3751 26.2912L27.662 26.0591C27.6218 26.1825 27.5684 26.2408 27.5108 26.2791L27.9266 26.9033L28.3424 27.5275C28.7093 27.2831 28.9549 26.9334 29.0883 26.5233L28.3751 26.2912ZM27.9266 26.9033L27.5108 26.2791C27.1229 26.5376 26.8848 26.9175 26.7737 27.3516L27.5002 27.5376L28.2268 27.7236C28.2598 27.5947 28.306 27.5518 28.3424 27.5275L27.9266 26.9033ZM27.5002 27.5376L26.7737 27.3516C26.7672 27.3768 26.7607 27.3923 26.7566 27.4008C26.7545 27.405 26.7529 27.4077 26.7519 27.4092C26.751 27.4107 26.7504 27.4113 26.7504 27.4113C26.7504 27.4113 26.7506 27.4112 26.7508 27.411C26.751 27.4108 26.7508 27.4109 26.7501 27.4115C26.7489 27.4123 26.7433 27.4162 26.7307 27.4214L27.0167 28.1147L27.3027 28.808C27.7896 28.6072 28.1011 28.2147 28.2268 27.7236L27.5002 27.5376ZM27.0167 28.1147L26.7307 27.4214C26.495 27.5186 26.2526 27.6099 26.0033 27.6952L26.2461 28.4048L26.489 29.1144C26.7665 29.0194 27.0378 28.9173 27.3027 28.808L27.0167 28.1147ZM26.2461 28.4048L26.0033 27.6952C25.7446 27.7838 25.5105 27.94 25.3352 28.1734C25.1638 28.4016 25.0795 28.6621 25.0472 28.9159L25.7912 29.0105L26.5352 29.1051C26.539 29.0753 26.5439 29.0608 26.5451 29.0574C26.5461 29.0547 26.5437 29.0621 26.5345 29.0743C26.5251 29.0869 26.5131 29.0983 26.5011 29.1068C26.4896 29.1148 26.4838 29.1162 26.489 29.1144L26.2461 28.4048ZM25.7912 29.0105L25.0472 28.9159C25.0366 28.9992 25.0185 29.0411 25.0094 29.0578C25.0022 29.071 24.9979 29.0743 24.9929 29.0777L25.4165 29.6965L25.8402 30.3154C26.2684 30.0223 26.4754 29.5756 26.5352 29.1051L25.7912 29.0105ZM25.4165 29.6965L24.9929 29.0777C24.7941 29.2138 24.5904 29.3453 24.3819 29.4724L24.7722 30.1128L25.1624 30.7533C25.3933 30.6126 25.6193 30.4667 25.8402 30.3154L25.4165 29.6965ZM24.7722 30.1128L24.3819 29.4724C24.1115 29.6371 23.8654 29.8308 23.6455 30.0534L24.1791 30.5804L24.7127 31.1075C24.8442 30.9744 24.9935 30.8563 25.1624 30.7533L24.7722 30.1128ZM24.1791 30.5804L23.6455 30.0534C23.4821 30.2188 23.3129 30.3786 23.1379 30.5327L23.6336 31.0956L24.1292 31.6584C24.3303 31.4814 24.5248 31.2978 24.7127 31.1075L24.1791 30.5804ZM23.6336 31.0956L23.1379 30.5327C22.945 30.7026 22.7544 30.8749 22.5662 31.0496L23.0766 31.5992L23.5869 32.1488C23.7654 31.9831 23.9462 31.8196 24.1292 31.6584L23.6336 31.0956ZM23.0766 31.5992L22.5662 31.0496C22.4159 31.1892 22.2517 31.3167 22.0729 31.4318L22.4791 32.0623L22.8852 32.6929C23.1365 32.531 23.3706 32.3497 23.5869 32.1488L23.0766 31.5992ZM22.4791 32.0623L22.0729 31.4318C21.7985 31.6086 21.5542 31.8202 21.3427 32.066L21.9112 32.5552L22.4797 33.0444C22.5953 32.9101 22.7296 32.7931 22.8852 32.6929L22.4791 32.0623ZM21.9112 32.5552L21.3427 32.066C21.084 32.3667 20.9231 32.7267 20.8383 33.1164L21.5712 33.2758L22.3041 33.4352C22.3456 33.2442 22.4114 33.1238 22.4797 33.0444L21.9112 32.5552ZM21.5712 33.2758L20.8383 33.1164C20.8338 33.1373 20.8297 33.1453 20.8301 33.1445C20.8304 33.144 20.8315 33.1417 20.8339 33.1382C20.8364 33.1345 20.8397 33.1302 20.8438 33.1257C20.848 33.1211 20.8525 33.1169 20.8569 33.1133C20.8614 33.1098 20.8651 33.1073 20.8677 33.1058C20.873 33.1026 20.8711 33.1048 20.8575 33.1087L21.0643 33.8296L21.2712 34.5505C21.5223 34.4785 21.7597 34.3467 21.9504 34.1384C22.1398 33.9315 22.2496 33.6855 22.3041 33.4352L21.5712 33.2758ZM21.0643 33.8296L20.8575 33.1087C20.5858 33.1866 20.3329 33.3402 20.146 33.5871C19.9644 33.8271 19.8847 34.1028 19.8606 34.3644L20.6074 34.4333L21.3542 34.5023C21.36 34.4402 21.3714 34.4535 21.3421 34.4923C21.3278 34.5112 21.3101 34.5273 21.2925 34.5388C21.2758 34.5498 21.2664 34.5519 21.2712 34.5505L21.0643 33.8296ZM20.6074 34.4333L19.8606 34.3644C19.853 34.447 19.8365 34.4773 19.8357 34.4787C19.8355 34.479 19.8377 34.4752 19.8427 34.4701C19.845 34.4678 19.8473 34.4659 19.8492 34.4644C19.851 34.463 19.8521 34.4624 19.8519 34.4625L20.226 35.1126L20.6 35.7626C21.0898 35.4808 21.3084 34.9993 21.3542 34.5023L20.6074 34.4333ZM20.226 35.1126L19.8519 34.4625C19.5859 34.6156 19.3389 34.7915 19.1121 34.9907L19.607 35.5542L20.1018 36.1178C20.2516 35.9863 20.4172 35.8678 20.6 35.7626L20.226 35.1126ZM19.607 35.5542L19.1121 34.9907C18.9753 35.1108 18.8178 35.2164 18.6367 35.3063L18.9702 35.9781L19.3036 36.6499C19.5951 36.5052 19.8622 36.3282 20.1018 36.1178L19.607 35.5542ZM18.9702 35.9781L18.6367 35.3063C18.2731 35.4868 17.9794 35.7566 17.7729 36.1074L18.4193 36.4879L19.0656 36.8683C19.1211 36.774 19.1948 36.7039 19.3036 36.6499L18.9702 35.9781ZM18.4193 36.4879L17.7729 36.1074C17.6566 36.3051 17.5311 36.4922 17.3967 36.669L17.9937 37.123L18.5908 37.5769C18.7618 37.352 18.92 37.1157 19.0656 36.8683L18.4193 36.4879ZM17.9937 37.123L17.3967 36.669C17.2308 36.8873 17.0736 37.1137 16.9253 37.3482L17.5592 37.7491L18.1931 38.15C18.3187 37.9513 18.4513 37.7603 18.5908 37.5769L17.9937 37.123ZM17.5592 37.7491L16.9253 37.3482C16.8243 37.508 16.707 37.6468 16.5732 37.767L17.0744 38.3249L17.5756 38.8829C17.8142 38.6685 18.0202 38.4234 18.1931 38.15L17.5592 37.7491ZM17.0744 38.3249L16.5732 37.767C16.3337 37.9821 16.1276 38.2283 15.9552 38.5033L16.5906 38.9018L17.226 39.3003C17.3261 39.1407 17.4425 39.0024 17.5756 38.8829L17.0744 38.3249ZM16.5906 38.9018L15.9552 38.5033C15.9573 38.4999 15.9618 38.494 15.9685 38.488C15.975 38.4821 15.9792 38.4802 15.9777 38.481C15.9732 38.4832 15.9361 38.4999 15.8432 38.5047L15.8818 39.2537L15.9204 40.0027C16.4165 39.9771 16.9206 39.7872 17.226 39.3003L16.5906 38.9018ZM15.8818 39.2537L15.8432 38.5047C15.3964 38.5277 14.9536 38.654 14.6008 38.9626L15.0945 39.5271L15.5883 40.0916C15.6127 40.0703 15.6947 40.0143 15.9204 40.0027L15.8818 39.2537ZM15.0945 39.5271L14.6008 38.9626C14.361 39.1723 14.1523 39.4119 13.9751 39.6792L14.6003 40.0935L15.2255 40.5078C15.3301 40.3498 15.4509 40.2118 15.5883 40.0916L15.0945 39.5271ZM14.6003 40.0935L13.9751 39.6792C13.805 39.9359 13.6678 40.2022 13.5704 40.478L14.2777 40.7276L14.9849 40.9772C15.0359 40.8328 15.1138 40.6764 15.2255 40.5078L14.6003 40.0935ZM14.2777 40.7276L13.5704 40.478C13.5355 40.5769 13.5238 40.5922 13.5375 40.5691C13.5431 40.5597 13.557 40.537 13.5802 40.5083C13.6007 40.4831 13.6481 40.4282 13.7257 40.3755C13.8039 40.3225 13.9558 40.2435 14.1624 40.252C14.384 40.2611 14.5496 40.3652 14.6492 40.4648L14.1188 40.9951L13.5885 41.5255C13.696 41.633 13.8702 41.7413 14.101 41.7507C14.3169 41.7596 14.4787 41.6772 14.5675 41.617C14.7225 41.512 14.8039 41.3743 14.8272 41.335C14.8939 41.2227 14.9457 41.0884 14.9849 40.9772L14.2777 40.7276ZM14.1188 40.9951L14.6492 40.4648C14.5717 40.3873 14.4882 40.3373 14.4627 40.3219C14.4209 40.2966 14.376 40.2723 14.3331 40.2502C14.2465 40.2056 14.1358 40.1531 14.0064 40.0943L13.6962 40.7772L13.386 41.46C13.5066 41.5148 13.5914 41.5554 13.6456 41.5834C13.6586 41.5901 13.6685 41.5954 13.6759 41.5994C13.6834 41.6036 13.6866 41.6055 13.6864 41.6054C13.6862 41.6053 13.6845 41.6043 13.6816 41.6024C13.6788 41.6005 13.6738 41.5972 13.6672 41.5925C13.6584 41.5863 13.6264 41.5634 13.5885 41.5255L14.1188 40.9951ZM39.6466 15.1038L39.4125 14.3912C38.933 14.5488 38.5766 14.8861 38.4009 15.364L39.1049 15.6227L39.8088 15.8814C39.8153 15.8638 39.8211 15.8536 39.8243 15.8485C39.8274 15.8437 39.8294 15.8416 39.8304 15.8407C39.8305 15.8406 39.8412 15.8293 39.8807 15.8163L39.6466 15.1038ZM39.1049 15.6227L38.4009 15.364C38.3158 15.5955 38.2205 15.8138 38.1152 16.0195L38.7828 16.3613L39.4504 16.703C39.5845 16.441 39.7039 16.167 39.8088 15.8814L39.1049 15.6227ZM38.7828 16.3613L38.1152 16.0195C38.0377 16.1708 37.9423 16.2908 37.8295 16.3876L38.3177 16.9569L38.806 17.5262C39.0738 17.2964 39.2884 17.0194 39.4504 16.703L38.7828 16.3613ZM38.3177 16.9569L37.8295 16.3876C37.6435 16.5471 37.4556 16.7046 37.2656 16.8601L37.7407 17.4404L38.2157 18.0208C38.4146 17.858 38.6113 17.6932 38.806 17.5262L38.3177 16.9569ZM37.7407 17.4404L37.2656 16.8601C37.1734 16.9356 37.0418 17.0045 36.8479 17.0502L37.0198 17.7802L37.1916 18.5103C37.5701 18.4211 37.9191 18.2636 38.2157 18.0208L37.7407 17.4404ZM37.0198 17.7802L36.8479 17.0502C36.5703 17.1155 36.3022 17.2589 36.1018 17.5092C35.9065 17.7531 35.8241 18.0376 35.8009 18.3044L36.5481 18.3692L37.2953 18.4341C37.3004 18.3756 37.3107 18.3993 37.2727 18.4468C37.2543 18.4697 37.2326 18.4877 37.2127 18.4995C37.1939 18.5107 37.1843 18.512 37.1916 18.5103L37.0198 17.7802ZM36.5481 18.3692L35.8009 18.3044C35.7964 18.3564 35.7905 18.3848 35.7878 18.3954C35.7846 18.4078 35.7888 18.3842 35.8135 18.3435C35.8396 18.3003 35.8953 18.2279 35.995 18.1703C36.0995 18.1099 36.2088 18.0911 36.2984 18.0956L36.2602 18.8447L36.2219 19.5937C36.3934 19.6024 36.5762 19.5669 36.7456 19.469C36.9102 19.3739 37.0223 19.2431 37.0965 19.1206C37.2335 18.8944 37.2777 18.6366 37.2953 18.4341L36.5481 18.3692ZM36.2602 18.8447L36.2984 18.0956C36.3108 18.0963 36.2998 18.0978 36.2605 18.0829C36.2213 18.0681 36.1638 18.0406 36.0867 17.9923L35.6885 18.6278L35.2903 19.2634C35.5605 19.4327 35.878 19.5761 36.2219 19.5937L36.2602 18.8447ZM35.6885 18.6278L36.0867 17.9923C35.8051 17.8158 35.4956 17.681 35.1634 17.5836L34.9524 18.3033L34.7414 19.023C34.956 19.0859 35.1372 19.1675 35.2903 19.2634L35.6885 18.6278ZM34.9524 18.3033L35.1634 17.5836C35.1523 17.5804 35.1532 17.5792 35.1613 17.5842C35.1699 17.5895 35.1809 17.5982 35.191 17.61C35.2011 17.6215 35.2053 17.6302 35.2059 17.6315C35.2062 17.6321 35.2019 17.6229 35.1976 17.5995L34.46 17.7351L33.7223 17.8706C33.7689 18.1238 33.8709 18.377 34.0575 18.5923C34.2462 18.8101 34.486 18.9481 34.7414 19.023L34.9524 18.3033ZM34.46 17.7351L35.1976 17.5995C35.1032 17.0857 34.8052 16.6519 34.2868 16.4389L34.0018 17.1326L33.7167 17.8264C33.7245 17.8296 33.7245 17.8305 33.7202 17.8273C33.7156 17.8239 33.7108 17.8192 33.7073 17.8145C33.704 17.8101 33.7048 17.8099 33.7079 17.8173C33.7112 17.8251 33.7171 17.8419 33.7223 17.8706L34.46 17.7351ZM34.0018 17.1326L34.2868 16.4389C34.1928 16.4003 34.1438 16.3517 34.107 16.2816L33.4431 16.6306L32.7793 16.9796C32.9861 17.3729 33.3095 17.6591 33.7167 17.8264L34.0018 17.1326ZM33.4431 16.6306L34.107 16.2816C33.8881 15.8652 33.5332 15.5833 33.097 15.4392L32.8617 16.1513L32.6265 16.8635C32.7218 16.8949 32.7545 16.9325 32.7793 16.9796L33.4431 16.6306ZM32.8617 16.1513L33.097 15.4392C32.8837 15.3687 32.6982 15.2814 32.5371 15.18L32.1376 15.8148L31.7381 16.4496C32.011 16.6213 32.3083 16.7584 32.6265 16.8635L32.8617 16.1513ZM32.1376 15.8148L32.5371 15.18C32.5337 15.1779 32.5331 15.178 32.5291 15.171C32.5229 15.1602 32.5054 15.124 32.4951 15.0441L31.7513 15.1404L31.0075 15.2368C31.0695 15.7155 31.2886 16.1667 31.7381 16.4496L32.1376 15.8148ZM31.7513 15.1404L32.4951 15.0441C32.4619 14.7877 32.3744 14.5238 32.1955 14.295C32.0127 14.0612 31.7709 13.9105 31.5087 13.8289L31.286 14.5451L31.0633 15.2613C31.0698 15.2633 31.064 15.2624 31.0516 15.2541C31.0387 15.2455 31.025 15.2332 31.0137 15.2187C30.9899 15.1883 31.0002 15.1802 31.0075 15.2368L31.7513 15.1404ZM31.286 14.5451L31.5087 13.8289C31.4945 13.8245 31.4906 13.8216 31.4932 13.8232C31.4945 13.824 31.4968 13.8255 31.4997 13.8279C31.5027 13.8304 31.5057 13.8332 31.5086 13.8363C31.5115 13.8394 31.5136 13.8423 31.5151 13.8444C31.5166 13.8466 31.5171 13.8476 31.5168 13.8469C31.5161 13.8457 31.5116 13.8364 31.5065 13.8155L30.7777 13.9927L30.049 14.1698C30.1776 14.699 30.5309 15.0957 31.0633 15.2613L31.286 14.5451ZM30.7777 13.9927L31.5065 13.8155C31.3887 13.331 31.0932 12.9324 30.6169 12.7175L30.3085 13.4012L30.0002 14.0849C30.0116 14.09 30.0168 14.0938 30.0183 14.095C30.0196 14.096 30.0202 14.0966 30.021 14.0976C30.0217 14.0985 30.0359 14.1159 30.049 14.1698L30.7777 13.9927ZM30.3085 13.4012L30.6169 12.7175C30.4293 12.6329 30.267 12.5323 30.1266 12.4173L29.6514 12.9977L29.1763 13.578C29.4247 13.7813 29.7005 13.9497 30.0002 14.0849L30.3085 13.4012ZM29.6514 12.9977L30.1266 12.4173C30.1046 12.3993 30.0538 12.3497 30.027 12.1831L29.2865 12.3019L28.546 12.4208C28.617 12.8635 28.8095 13.2777 29.1763 13.578L29.6514 12.9977ZM29.2865 12.3019L30.027 12.1831C30.018 12.127 30.0155 12.0943 30.015 12.08C30.0144 12.06 30.0181 12.0913 30.0035 12.15C29.9908 12.2014 29.9399 12.3704 29.7596 12.5022C29.5547 12.652 29.3376 12.6443 29.2189 12.6165L29.3896 11.8862L29.5603 11.1559C29.3827 11.1144 29.1172 11.1137 28.8744 11.2912C28.656 11.4508 28.5776 11.6683 28.5476 11.7891C28.4912 12.0167 28.5198 12.2579 28.546 12.4208L29.2865 12.3019ZM29.3896 11.8862L29.2189 12.6165C29.4557 12.6719 29.7313 12.6285 29.9521 12.44C30.1321 12.2864 30.204 12.0958 30.2349 11.9914C30.2978 11.7793 30.2996 11.5383 30.2909 11.3399L29.5416 11.3728L28.7924 11.4057C28.7999 11.577 28.7845 11.6065 28.7967 11.5655C28.8022 11.5467 28.8404 11.4168 28.9783 11.2991C29.0546 11.234 29.1534 11.1802 29.2696 11.1547C29.3833 11.1297 29.4843 11.1381 29.5603 11.1559L29.3896 11.8862ZM29.5416 11.3728L30.2909 11.3399C30.2886 11.2877 30.2915 11.2537 30.2945 11.2346C30.2974 11.2158 30.2997 11.2156 30.2944 11.2273C30.2884 11.2402 30.2762 11.2607 30.2554 11.2818C30.2346 11.303 30.2138 11.316 30.1998 11.3227L29.8759 10.6463L29.5519 9.96991C28.9339 10.2659 28.7691 10.8765 28.7924 11.4057L29.5416 11.3728ZM29.8759 10.6463L30.1998 11.3227C30.5662 11.1473 30.8645 10.882 31.0759 10.5333L30.4346 10.1445L29.7934 9.75556C29.7378 9.84713 29.6636 9.9164 29.5519 9.96991L29.8759 10.6463ZM30.4346 10.1445L31.0759 10.5333C31.168 10.3815 31.2777 10.2538 31.4055 10.1465L30.9231 9.57222L30.4407 8.99793C30.1842 9.21339 29.9682 9.46724 29.7934 9.75556L30.4346 10.1445ZM30.9231 9.57222L31.4055 10.1465C31.447 10.1116 31.544 10.0552 31.7629 10.0372L31.7012 9.28971L31.6396 8.54224C31.2052 8.57807 30.7834 8.71003 30.4407 8.99793L30.9231 9.57222ZM31.7012 9.28971L31.7629 10.0372C32.0528 10.0133 32.374 9.91 32.622 9.64497C32.8669 9.38326 32.9504 9.05966 32.9632 8.77544L32.214 8.74178L31.4647 8.70811C31.4623 8.76224 31.4528 8.69914 31.5267 8.62007C31.6038 8.53769 31.6763 8.53922 31.6396 8.54224L31.7012 9.28971ZM32.214 8.74178L32.9632 8.77544C32.9663 8.70687 32.9798 8.73331 32.9381 8.7885C32.9174 8.81599 32.8918 8.83823 32.8668 8.85335C32.8432 8.86762 32.8291 8.8701 32.834 8.86901L32.67 8.13716L32.506 7.40531C32.2195 7.46951 31.9417 7.61863 31.7406 7.88522C31.547 8.14194 31.4768 8.43833 31.4647 8.70811L32.214 8.74178ZM32.67 8.13716L32.834 8.86901C33.2206 8.78238 33.5817 8.61921 33.8743 8.34796L33.3644 7.79797L32.8545 7.24799C32.7989 7.29954 32.6971 7.3625 32.506 7.40531L32.67 8.13716ZM33.3644 7.79797L33.8743 8.34796C33.9025 8.32181 33.9283 8.30639 33.9967 8.30651L33.998 7.55651L33.9993 6.80651C33.571 6.80577 33.1744 6.95132 32.8545 7.24799L33.3644 7.79797ZM33.998 7.55651L33.9967 8.30651C34.3107 8.30705 34.6157 8.26633 34.906 8.17627L34.6838 7.45995L34.4615 6.74363C34.3341 6.78317 34.1819 6.80682 33.9993 6.80651L33.998 7.55651ZM34.6838 7.45995L34.906 8.17627C35.2638 8.06527 35.5971 7.83205 35.9 7.56038L35.3992 7.00205L34.8985 6.44373C34.6652 6.65297 34.5215 6.72502 34.4615 6.74363L34.6838 7.45995ZM35.3992 7.00205L35.9 7.56038C35.9684 7.499 35.962 7.53104 35.8832 7.54127C35.8409 7.54676 35.7952 7.54322 35.7529 7.5305C35.7127 7.5184 35.6909 7.50261 35.6871 7.49973L36.1444 6.90529L36.6017 6.31085C36.3558 6.12163 36.0416 6.00811 35.69 6.05376C35.3628 6.09625 35.0981 6.26465 34.8985 6.44373L35.3992 7.00205ZM36.1444 6.90529L35.6871 7.49973C35.882 7.64964 36.0473 7.80338 36.1859 7.95988L36.7473 7.46257L37.3088 6.96526C37.1009 6.73061 36.8643 6.51283 36.6017 6.31085L36.1444 6.90529ZM36.7473 7.46257L36.1859 7.95988C36.3753 8.1737 36.5708 8.37332 36.7725 8.55822L37.2793 8.00542L37.7862 7.45261C37.625 7.30486 37.4658 7.14258 37.3088 6.96526L36.7473 7.46257ZM37.2793 8.00542L36.7725 8.55822C37.0192 8.78445 37.3028 8.96501 37.6161 9.10344L37.9192 8.41744L38.2224 7.73143C38.0452 7.65315 37.9022 7.55903 37.7862 7.45261L37.2793 8.00542ZM37.9192 8.41744L37.6161 9.10344C37.6237 9.1068 37.6245 9.10814 37.6215 9.10584C37.6184 9.10339 37.6154 9.10017 37.6135 9.09761C37.6089 9.09149 37.6225 9.10567 37.6336 9.16477L38.3707 9.02657L39.1079 8.88838C39.0134 8.38445 38.7259 7.95394 38.2224 7.73143L37.9192 8.41744ZM38.3707 9.02657L37.6336 9.16477C37.7172 9.61104 37.9308 10.0195 38.3192 10.3028L38.7611 9.69685L39.2031 9.09091C39.1826 9.07595 39.1359 9.03758 39.1079 8.88838L38.3707 9.02657ZM38.7611 9.69685L38.3192 10.3028C38.4724 10.4146 38.6075 10.5424 38.7259 10.6871L39.3064 10.2122L39.8869 9.73732C39.6871 9.4931 39.4587 9.27736 39.2031 9.09091L38.7611 9.69685ZM39.3064 10.2122L38.7259 10.6871C38.9408 10.9497 39.1962 11.1692 39.4883 11.344L39.8734 10.7004L40.2585 10.0568C40.1128 9.96966 39.9903 9.86364 39.8869 9.73732L39.3064 10.2122ZM39.8734 10.7004L39.4883 11.344C39.5654 11.3901 39.5967 11.435 39.6165 11.491L40.3235 11.2407L41.0305 10.9904C40.8881 10.5881 40.6193 10.2727 40.2585 10.0568L39.8734 10.7004ZM40.3235 11.2407L39.6165 11.491C39.744 11.851 39.9631 12.1604 40.2436 12.4219L40.7551 11.8733L41.2665 11.3248C41.1339 11.2011 41.0654 11.0888 41.0305 10.9904L40.3235 11.2407ZM40.7551 11.8733L40.2436 12.4219C40.2554 12.4329 40.2556 12.4355 40.2508 12.428C40.2455 12.4198 40.2374 12.4041 40.2314 12.3821C40.2254 12.3599 40.224 12.3396 40.2248 12.3247C40.2255 12.3105 40.2278 12.3068 40.225 12.3154L40.9374 12.5497L41.6499 12.7841C41.7304 12.5393 41.7541 12.2677 41.6797 11.9917C41.6058 11.7177 41.4507 11.4966 41.2665 11.3248L40.7551 11.8733ZM40.9374 12.5497L40.225 12.3154C40.0672 12.795 40.1395 13.2735 40.3518 13.7041L41.0245 13.3725L41.6972 13.0409C41.6234 12.8912 41.6377 12.8212 41.6499 12.7841L40.9374 12.5497ZM41.0245 13.3725L40.3518 13.7041C40.3579 13.7167 40.344 13.6936 40.3393 13.6411C40.3341 13.5822 40.3426 13.5043 40.3798 13.4257C40.451 13.2754 40.5545 13.2628 40.4657 13.296L40.7281 13.9986L40.9904 14.7012C41.2422 14.6072 41.5655 14.4267 41.7355 14.0676C41.9179 13.6824 41.8271 13.3045 41.6972 13.0409L41.0245 13.3725ZM40.7281 13.9986L40.4657 13.296C39.9912 13.4732 39.5316 13.8142 39.401 14.4087L40.1335 14.5696L40.8661 14.7305C40.864 14.7402 40.8596 14.7522 40.8531 14.7637C40.8467 14.7749 40.8417 14.7793 40.8435 14.7777C40.849 14.7723 40.8865 14.74 40.9904 14.7012L40.7281 13.9986ZM40.1335 14.5696L39.401 14.4087C39.3484 14.6481 39.3149 14.8007 39.3105 14.8243L40.0479 14.9612L40.7853 15.0982C40.7831 15.1098 40.781 15.1195 40.7831 15.1094C40.7839 15.1057 40.7852 15.0998 40.787 15.0915C40.7906 15.0748 40.796 15.0504 40.8031 15.0179C40.8173 14.953 40.8383 14.8572 40.8661 14.7305L40.1335 14.5696ZM40.0479 14.9612L39.3105 14.8243C39.3327 14.705 39.379 14.6163 39.4126 14.5628C39.4471 14.5078 39.4824 14.4677 39.5065 14.4425C39.5533 14.3938 39.5963 14.3625 39.6159 14.3488C39.6572 14.3199 39.6916 14.3023 39.7009 14.2976C39.715 14.2904 39.7256 14.2857 39.73 14.2837C39.7352 14.2814 39.7384 14.2801 39.739 14.2799C39.74 14.2795 39.737 14.2807 39.7286 14.2838C39.7205 14.2868 39.7097 14.2908 39.6955 14.2958C39.6373 14.3165 39.5442 14.348 39.4125 14.3912L39.6466 15.1038L39.8807 15.8163C40.0151 15.7721 40.122 15.7362 40.1975 15.7093C40.2337 15.6965 40.2719 15.6825 40.3051 15.669C40.3192 15.6632 40.3487 15.651 40.3814 15.6343C40.3951 15.6274 40.4328 15.608 40.4763 15.5775C40.497 15.563 40.5409 15.531 40.5883 15.4817C40.6188 15.4499 40.7445 15.3181 40.7853 15.0982L40.0479 14.9612Z" fill="#030302"/>
</svg>
