<svg width="48" height="48" viewBox="0 0 48 48" fill="none" xmlns="http://www.w3.org/2000/svg">
<path d="M24.0297 14.375L23.2898 14.2526L24.0297 14.375ZM23.9488 8.375L24.6535 8.11824L23.9488 8.375ZM24.1542 3.14413L23.6163 2.62147L24.1542 3.14413ZM25.3452 3.31641L24.6126 3.47723L25.3452 3.31641ZM25.2036 9.375L25.8812 9.05368L25.2036 9.375ZM25.2711 16.875L24.5215 16.8985L25.2711 16.875ZM24.875 19.0911L24.6979 18.3623C24.6822 18.3661 24.7063 18.3579 24.7576 18.361C24.8122 18.3644 24.9162 18.3822 25.0258 18.4584C25.1413 18.5387 25.2079 18.6457 25.2395 18.7353C25.2675 18.8149 25.2649 18.87 25.2647 18.8751L24.5155 18.8411L23.7662 18.8071C23.7563 19.0266 23.7979 19.4316 24.1694 19.6899C24.5014 19.9207 24.8679 19.8647 25.0521 19.8199L24.875 19.0911ZM24.5155 18.8411L25.2647 18.8751C25.2829 18.4731 25.1632 18.0946 24.969 17.7537L24.3173 18.125L23.6656 18.4963C23.7563 18.6554 23.7686 18.7543 23.7662 18.8071L24.5155 18.8411ZM24.3173 18.125L24.969 17.7537C24.8578 17.5585 24.7857 17.375 24.7449 17.2024L24.015 17.375L23.2851 17.5476C23.3625 17.875 23.492 18.1915 23.6656 18.4963L24.3173 18.125ZM24.015 17.375L24.7449 17.2024C24.7268 17.1262 24.7297 17.046 24.7797 16.9363L24.0974 16.625L23.415 16.3137C23.237 16.704 23.1849 17.1238 23.2851 17.5476L24.015 17.375ZM24.0974 16.625L24.7797 16.9363C24.932 16.6025 25.0185 16.2522 25.0259 15.8902L24.276 15.875L23.5262 15.8598C23.5234 15.9978 23.4908 16.1475 23.415 16.3137L24.0974 16.625ZM24.276 15.875L25.0259 15.8902C25.0333 15.5264 24.9595 15.1724 24.8168 14.8338L24.1257 15.125L23.4345 15.4162C23.5025 15.5776 23.5289 15.7236 23.5262 15.8598L24.276 15.875ZM24.1257 15.125L24.8168 14.8338C24.7624 14.7047 24.7531 14.5977 24.7697 14.4974L24.0297 14.375L23.2898 14.2526C23.2237 14.6523 23.2783 15.0453 23.4345 15.4162L24.1257 15.125ZM24.0297 14.375L24.7697 14.4974C24.7896 14.3769 24.8454 14.2294 24.9681 14.0527L24.352 13.625L23.7359 13.1973C23.5115 13.5206 23.3525 13.8731 23.2898 14.2526L24.0297 14.375ZM24.352 13.625L24.9681 14.0527C25.1385 13.8072 25.247 13.4972 25.2002 13.1497C25.1552 12.8168 24.9812 12.552 24.7908 12.3545L24.2508 12.875L23.7109 13.3955C23.7615 13.448 23.7248 13.4332 23.7136 13.3503C23.708 13.3087 23.7118 13.2684 23.721 13.2355C23.7296 13.2049 23.7396 13.192 23.7359 13.1973L24.352 13.625ZM24.2508 12.875L24.7908 12.3545C24.7248 12.286 24.718 12.2556 24.7218 12.2671C24.724 12.2741 24.7273 12.288 24.7274 12.3065C24.7276 12.325 24.7246 12.3395 24.7221 12.3475L24.0058 12.125L23.2896 11.9025C23.1043 12.4991 23.3514 13.0226 23.7109 13.3955L24.2508 12.875ZM24.0058 12.125L24.7221 12.3475C24.8509 11.9327 24.8335 11.5097 24.6787 11.1063L23.9785 11.375L23.2782 11.6437C23.3153 11.7403 23.3161 11.8173 23.2896 11.9025L24.0058 12.125ZM23.9785 11.375L24.6787 11.1063C24.6764 11.1003 24.6773 11.1007 24.6779 11.1064C24.6785 11.1124 24.6783 11.1185 24.6775 11.1229C24.6759 11.1326 24.6761 11.1129 24.7129 11.0616L24.1031 10.625L23.4933 10.1884C23.1929 10.6079 23.0774 11.1203 23.2782 11.6437L23.9785 11.375ZM24.1031 10.625L24.7129 11.0616C24.9848 10.6818 25.1308 10.2264 25.0359 9.73327L24.2994 9.875L23.5629 10.0167C23.5642 10.0236 23.5793 10.0682 23.4933 10.1884L24.1031 10.625ZM24.2994 9.875L25.0359 9.73327C24.9879 9.48409 24.9404 9.2349 24.8933 8.98572L24.1564 9.125L23.4194 9.26428C23.4668 9.5151 23.5146 9.76591 23.5629 10.0167L24.2994 9.875ZM24.1564 9.125L24.8933 8.98572C24.8382 8.69397 24.7579 8.40472 24.6535 8.11824L23.9488 8.375L23.2442 8.63176C23.322 8.84528 23.38 9.05603 23.4194 9.26428L24.1564 9.125ZM23.9488 8.375L24.6535 8.11824C24.6577 8.12965 24.6629 8.15026 24.6633 8.17709C24.6637 8.20401 24.659 8.22581 24.6545 8.23926C24.6503 8.25155 24.6484 8.25086 24.6578 8.23722C24.6674 8.22323 24.6867 8.19879 24.7218 8.16501L24.2013 7.625L23.6808 7.08499C23.2978 7.45419 23.0148 8.00221 23.2442 8.63176L23.9488 8.375ZM24.2013 7.625L24.7218 8.16501C24.9325 7.9619 25.145 7.65582 25.1466 7.25289C25.1481 6.84914 24.9372 6.54137 24.7267 6.33693L24.2042 6.875L23.6817 7.41307C23.7286 7.45863 23.646 7.40086 23.6466 7.24711C23.6472 7.09418 23.7295 7.0381 23.6808 7.08499L24.2013 7.625ZM24.2042 6.875L24.7267 6.33693C24.6613 6.27344 24.6821 6.26784 24.6959 6.32609C24.7034 6.35724 24.7053 6.39341 24.6997 6.42908C24.6943 6.46341 24.6841 6.48369 24.6817 6.48799L24.0254 6.125L23.3691 5.76201C23.2204 6.03087 23.1587 6.34627 23.2368 6.67391C23.3103 6.98216 23.4896 7.22656 23.6817 7.41307L24.2042 6.875ZM24.0254 6.125L24.6817 6.48799C24.9097 6.07574 24.9763 5.61335 24.8289 5.14844L24.114 5.375L23.399 5.60156C23.4101 5.63665 23.4176 5.67426 23.3691 5.76201L24.0254 6.125ZM24.114 5.375L24.8289 5.14844C24.8292 5.14934 24.8311 5.15603 24.8314 5.16674C24.8317 5.17753 24.8302 5.18587 24.8292 5.18974C24.8274 5.19675 24.8326 5.16899 24.8844 5.10735L24.3101 4.625L23.7358 4.14265C23.407 4.53411 23.2227 5.04517 23.399 5.60156L24.114 5.375ZM24.3101 4.625L24.8844 5.10735C25.0816 4.87255 25.2369 4.54615 25.1885 4.15736C25.1427 3.78946 24.9316 3.5132 24.7241 3.32261L24.2167 3.875L23.7094 4.42739C23.7741 4.4868 23.7147 4.46054 23.7 4.34264C23.6925 4.28238 23.7012 4.22679 23.7162 4.1849C23.7298 4.14683 23.7437 4.13319 23.7358 4.14265L24.3101 4.625ZM24.2167 3.875L24.7241 3.32261C24.6574 3.26143 24.7321 3.29962 24.7442 3.44085C24.7504 3.51325 24.7359 3.57733 24.7159 3.62304C24.698 3.66405 24.6816 3.6776 24.6921 3.66678L24.1542 3.14413L23.6163 2.62147C23.4058 2.83816 23.2148 3.16107 23.2497 3.56871C23.2826 3.95357 23.5038 4.23857 23.7094 4.42739L24.2167 3.875ZM24.1542 3.14413L24.6921 3.66678C24.7559 3.60108 24.7942 3.58206 24.8025 3.57852C24.806 3.57701 24.8039 3.57832 24.7973 3.57928C24.7906 3.58026 24.7846 3.58008 24.7812 3.57965L24.875 2.83554L24.9688 2.09143C24.4156 2.02168 23.955 2.27289 23.6163 2.62147L24.1542 3.14413ZM24.875 2.83554L24.7812 3.57965C24.7747 3.57883 24.7537 3.57518 24.7251 3.56168C24.6955 3.54771 24.6672 3.52766 24.6438 3.50374C24.5972 3.45613 24.6016 3.42697 24.6126 3.47723L25.3452 3.31641L26.0777 3.1556C26.0253 2.9168 25.9196 2.66297 25.7163 2.45506C25.5049 2.23883 25.2399 2.12561 24.9688 2.09143L24.875 2.83554ZM25.3452 3.31641L24.6126 3.47723C24.6277 3.54596 24.6232 3.59771 24.5609 3.68316L25.167 4.125L25.773 4.56684C26.0752 4.15229 26.1896 3.66498 26.0777 3.1556L25.3452 3.31641ZM25.167 4.125L24.5609 3.68316C24.4089 3.89162 24.2933 4.14159 24.2656 4.42801C24.2376 4.71905 24.306 4.99133 24.4337 5.22942L25.0946 4.875L25.7556 4.52058C25.7512 4.51243 25.7537 4.51465 25.7563 4.52643C25.759 4.53892 25.7604 4.55505 25.7587 4.57199C25.758 4.57989 25.7567 4.58642 25.7555 4.59129C25.7548 4.59367 25.7543 4.5955 25.7539 4.59676C25.7534 4.59802 25.7532 4.59865 25.7532 4.59865C25.7532 4.59857 25.7577 4.58787 25.773 4.56684L25.167 4.125ZM25.0946 4.875L24.4337 5.22942C24.5218 5.39371 24.5577 5.53494 24.5633 5.65861L25.3125 5.625L26.0618 5.59139C26.0449 5.21506 25.9356 4.85629 25.7556 4.52058L25.0946 4.875ZM25.3125 5.625L24.5633 5.65861C24.566 5.71997 24.5516 5.81544 24.4555 5.95999L25.0802 6.375L25.705 6.79001C25.9411 6.43456 26.0815 6.03003 26.0618 5.59139L25.3125 5.625ZM25.0802 6.375L24.4555 5.95999C24.295 6.20161 24.1944 6.49942 24.2305 6.8311C24.2655 7.15303 24.4196 7.41729 24.5993 7.62106L25.1618 7.125L25.7243 6.62894C25.6836 6.58271 25.7139 6.59697 25.7217 6.6689C25.7255 6.70396 25.7218 6.73706 25.7146 6.76323C25.7078 6.78773 25.7005 6.79679 25.705 6.79001L25.0802 6.375ZM25.1618 7.125L24.5993 7.62106C24.6568 7.6863 24.6652 7.71781 24.664 7.71364C24.6632 7.71092 24.6613 7.70277 24.6612 7.69112C24.6612 7.67946 24.663 7.67101 24.6639 7.66776L25.3847 7.875L26.1055 8.08224C26.2681 7.5168 26.0602 7.00975 25.7243 6.62894L25.1618 7.125ZM25.3847 7.875L24.6639 7.66776C24.595 7.90725 24.5205 8.14695 24.4401 8.38686L25.1513 8.625L25.8625 8.86314C25.9496 8.60305 26.0306 8.34275 26.1055 8.08224L25.3847 7.875ZM25.1513 8.625L24.4401 8.38686C24.2916 8.83049 24.3288 9.28075 24.5259 9.69632L25.2036 9.375L25.8812 9.05368C25.8412 8.96925 25.8436 8.91951 25.8625 8.86314L25.1513 8.625ZM25.2036 9.375L24.5259 9.69632C24.6057 9.86466 24.6413 10.016 24.6468 10.1547L25.3962 10.125L26.1456 10.0953C26.1313 9.73403 26.0385 9.38534 25.8812 9.05368L25.2036 9.375ZM25.3962 10.125L24.6468 10.1547C24.6478 10.1798 24.6446 10.2588 24.5258 10.408L25.1127 10.875L25.6996 11.342C25.9787 10.9912 26.1645 10.5702 26.1456 10.0953L25.3962 10.125ZM25.1127 10.875L24.5258 10.408C24.3353 10.6475 24.1948 10.9711 24.245 11.3488C24.2925 11.7065 24.4943 11.9789 24.6981 12.1709L25.2124 11.625L25.7267 11.0791C25.6651 11.0211 25.7176 11.0435 25.7319 11.1512C25.7392 11.2063 25.7324 11.2581 25.719 11.2984C25.7067 11.3354 25.6935 11.3497 25.6996 11.342L25.1127 10.875ZM25.2124 11.625L24.6981 12.1709C24.7535 12.2231 24.6779 12.1779 24.6712 12.0357C24.6639 11.884 24.7432 11.8182 24.7087 11.8539L25.2481 12.375L25.7875 12.8961C25.9945 12.6818 26.1886 12.366 26.1695 11.9643C26.1508 11.5721 25.9366 11.2769 25.7267 11.0791L25.2124 11.625ZM25.2481 12.375L24.7087 11.8539C24.3699 12.2046 24.1163 12.6768 24.2007 13.2368L24.9423 13.125L25.684 13.0132C25.6849 13.0192 25.685 13.0265 25.6841 13.0331C25.6833 13.0394 25.6823 13.0398 25.685 13.0331C25.6912 13.018 25.7149 12.9713 25.7875 12.8961L25.2481 12.375ZM24.9423 13.125L24.2007 13.2368C24.2662 13.6715 24.4856 14.0512 24.7756 14.3752L25.3345 13.875L25.8933 13.3748C25.7358 13.1988 25.6938 13.0785 25.684 13.0132L24.9423 13.125ZM25.3345 13.875L24.7756 14.3752C24.9168 14.533 24.9125 14.6065 24.9124 14.6094L25.6623 14.625L26.4121 14.6406C26.4225 14.1435 26.1996 13.717 25.8933 13.3748L25.3345 13.875ZM25.6623 14.625L24.9124 14.6094C24.9119 14.6373 24.901 14.7266 24.7636 14.8869L25.333 15.375L25.9025 15.8631C26.1937 15.5234 26.4023 15.1127 26.4121 14.6406L25.6623 14.625ZM25.333 15.375L24.7636 14.8869C24.4278 15.2787 24.237 15.7962 24.4234 16.3603L25.1355 16.125L25.8476 15.8897C25.8482 15.8915 25.8505 15.8997 25.8509 15.9124C25.8514 15.9251 25.8497 15.9354 25.8482 15.941C25.8455 15.9513 25.8495 15.9249 25.9025 15.8631L25.333 15.375ZM25.1355 16.125L24.4234 16.3603C24.4845 16.5455 24.5161 16.7242 24.5215 16.8985L25.2711 16.875L26.0208 16.8515C26.0106 16.5258 25.9517 16.2045 25.8476 15.8897L25.1355 16.125ZM25.2711 16.875L24.5215 16.8985C24.5278 17.1004 24.5149 17.3029 24.4824 17.5066L25.223 17.625L25.9635 17.7434C26.0109 17.4471 26.0301 17.1496 26.0208 16.8515L25.2711 16.875ZM25.223 17.625L24.4824 17.5066C24.441 17.7655 24.4044 18.0245 24.3725 18.2835L25.1169 18.375L25.8613 18.4665C25.8909 18.2255 25.925 17.9845 25.9635 17.7434L25.223 17.625ZM25.1169 18.375L24.3725 18.2835C24.3536 18.4372 24.3441 18.598 24.3576 18.7525C24.3699 18.8939 24.4076 19.1122 24.5508 19.3119L25.1604 18.875L25.77 18.4381C25.8149 18.5007 25.8347 18.5553 25.8431 18.5834C25.8515 18.6119 25.8523 18.6272 25.8519 18.6225C25.8516 18.6187 25.8507 18.604 25.8518 18.5761C25.8528 18.5486 25.8557 18.5124 25.8613 18.4665L25.1169 18.375ZM25.1604 18.875L24.5508 19.3119C24.4789 19.2116 24.3888 19.0151 24.4449 18.7687C24.4951 18.5485 24.6317 18.431 24.6811 18.3936C24.7353 18.3526 24.7735 18.3399 24.7642 18.3434C24.7602 18.345 24.7402 18.352 24.6979 18.3623L24.875 19.0911L25.0521 19.8199C25.1879 19.7869 25.4066 19.7258 25.5866 19.5895C25.6835 19.5161 25.8484 19.3611 25.9074 19.102C25.9724 18.8168 25.8717 18.58 25.77 18.4381L25.1604 18.875Z" fill="#030302"/>
<path d="M23.8295 42.4336L23.1138 42.6577L23.8295 42.4336ZM23.7796 40.1814L23.111 40.5211L23.7796 40.1814ZM23.4464 37.1976L22.7161 37.0267L23.4464 37.1976ZM23.3656 36.4514L24.0449 36.1336L23.3656 36.4514ZM23.4365 35.6944L22.7971 35.3024L23.4365 35.6944ZM23.5789 34.9324L24.3034 34.7385L23.5789 34.9324ZM23.3828 34.1945L24.1079 34.003L23.3828 34.1945ZM23.1223 33.4612L22.4377 33.7675L23.1223 33.4612ZM23.3207 32.6951L22.7631 32.1935L23.3207 32.6951ZM23.1609 31.3016L23.6877 31.8355L23.1609 31.3016ZM24.0604 31.2084L23.3367 31.0116L24.0604 31.2084ZM24.4575 35.0492L25.0935 35.4467L24.4575 35.0492ZM24.4388 35.8024L25.0729 35.4018L24.4388 35.8024ZM24.5313 37.2996L25.184 37.6691L24.5313 37.2996ZM24.6661 38.0419L25.1919 37.507L24.6661 38.0419ZM24.9419 38.7741L25.6756 38.9295L24.9419 38.7741ZM24.8681 40.2832L25.5211 39.9144L24.8681 40.2832ZM25.1137 41.0176L25.8591 40.9346L25.1137 41.0176ZM24.8843 41.7859L25.503 42.2099L24.8843 41.7859ZM25.0372 42.5269L24.563 43.108L25.0372 42.5269ZM24.1334 44.6676L24.8477 44.4391C24.8393 44.4127 24.827 44.3673 24.8846 44.2571L24.2201 43.9095L23.5555 43.5619C23.3407 43.9724 23.2707 44.4325 23.419 44.8961L24.1334 44.6676ZM24.2201 43.9095L24.8846 44.2571C25.0035 44.0298 25.0757 43.7709 25.0625 43.4913C25.0492 43.2109 24.9521 42.9589 24.8081 42.7434L24.1845 43.1601L23.561 43.5769C23.5698 43.59 23.5706 43.5944 23.569 43.59C23.5683 43.5879 23.5672 43.5842 23.5662 43.5792C23.5652 43.5741 23.5644 43.5684 23.5642 43.5624C23.5639 43.5565 23.5641 43.5511 23.5645 43.5467C23.565 43.5423 23.5656 43.5395 23.5658 43.5386C23.5662 43.5368 23.5647 43.5444 23.5555 43.5619L24.2201 43.9095ZM24.1845 43.1601L24.8081 42.7434C24.6832 42.5566 24.5983 42.3787 24.5453 42.2094L23.8295 42.4336L23.1138 42.6577C23.2144 42.9788 23.366 43.2852 23.561 43.5769L24.1845 43.1601ZM23.8295 42.4336L24.5453 42.2094C24.5218 42.1346 24.519 42.0545 24.5611 41.9415L23.8583 41.6796L23.1555 41.4178C23.0057 41.8197 22.9837 42.2422 23.1138 42.6577L23.8295 42.4336ZM23.8583 41.6796L24.5611 41.9415C24.6892 41.5977 24.7505 41.2421 24.7321 40.8805L23.983 40.9188L23.234 40.957C23.2411 41.0949 23.2193 41.2466 23.1555 41.4178L23.8583 41.6796ZM23.983 40.9188L24.7321 40.8805C24.7135 40.5172 24.6147 40.1693 24.4483 39.8417L23.7796 40.1814L23.111 40.5211C23.1903 40.6773 23.2271 40.821 23.234 40.957L23.983 40.9188ZM23.7796 40.1814L24.4483 39.8417C24.3848 39.7168 24.3679 39.6108 24.3773 39.5095L23.6305 39.4401L22.8837 39.3708C22.8463 39.7741 22.9287 40.1623 23.111 40.5211L23.7796 40.1814ZM23.6305 39.4401L24.3773 39.5095C24.3886 39.3879 24.4338 39.2368 24.5436 39.0518L23.8985 38.6691L23.2535 38.2864C23.0528 38.6248 22.9193 38.9878 22.8837 39.3708L23.6305 39.4401ZM23.8985 38.6691L24.5436 39.0518C24.696 38.7948 24.7822 38.4778 24.7107 38.1346C24.6421 37.8057 24.4497 37.554 24.2457 37.3705L23.7442 37.9282L23.2427 38.4859C23.2969 38.5346 23.2593 38.5224 23.2422 38.4405C23.2336 38.3995 23.2346 38.359 23.2414 38.3256C23.2478 38.2944 23.2568 38.2808 23.2535 38.2864L23.8985 38.6691ZM23.7442 37.9282L24.2457 37.3705C24.175 37.307 24.1661 37.2771 24.1706 37.2883C24.1734 37.2951 24.1776 37.3087 24.1791 37.3272C24.1805 37.3457 24.1785 37.3603 24.1766 37.3685L23.4464 37.1976L22.7161 37.0267C22.5737 37.635 22.8575 38.1395 23.2427 38.4859L23.7442 37.9282ZM23.4464 37.1976L24.1766 37.3685C24.2756 36.9455 24.228 36.5249 24.0449 36.1336L23.3656 36.4514L22.6863 36.7693C22.7302 36.863 22.7364 36.9398 22.7161 37.0267L23.4464 37.1976ZM23.3656 36.4514L24.0449 36.1336C24.0422 36.1277 24.0431 36.128 24.0441 36.1337C24.0452 36.1396 24.0454 36.1457 24.045 36.1502C24.044 36.16 24.0428 36.1403 24.0759 36.0865L23.4365 35.6944L22.7971 35.3024C22.5274 35.7422 22.4487 36.2616 22.6863 36.7693L23.3656 36.4514ZM23.4365 35.6944L24.0759 36.0865C24.32 35.6883 24.4332 35.2236 24.3034 34.7385L23.5789 34.9324L22.8543 35.1262C22.8562 35.133 22.8744 35.1764 22.7971 35.3024L23.4365 35.6944ZM23.5789 34.9324L24.3034 34.7385C24.2378 34.4934 24.1726 34.2482 24.1079 34.003L23.3828 34.1945L22.6576 34.3859C22.7228 34.6327 22.7883 34.8795 22.8543 35.1262L23.5789 34.9324ZM23.3828 34.1945L24.1079 34.003C24.0321 33.716 23.9315 33.4332 23.8069 33.1548L23.1223 33.4612L22.4377 33.7675C22.5306 33.9749 22.6035 34.181 22.6576 34.3859L23.3828 34.1945ZM23.1223 33.4612L23.8069 33.1548C23.8119 33.1659 23.8186 33.1861 23.8209 33.2128C23.8232 33.2397 23.82 33.2617 23.8165 33.2755C23.8132 33.288 23.8113 33.2875 23.8196 33.2732C23.8282 33.2586 23.8458 33.2328 23.8783 33.1966L23.3207 32.6951L22.7631 32.1935C22.4073 32.5891 22.1641 33.1559 22.4377 33.7675L23.1223 33.4612ZM23.3207 32.6951L23.8783 33.1966C24.0741 32.979 24.2642 32.6586 24.2371 32.2566C24.2098 31.8537 23.9775 31.5618 23.753 31.3728L23.2702 31.9468L22.7873 32.5207C22.8374 32.5628 22.7508 32.5111 22.7405 32.3577C22.7302 32.2051 22.8083 32.1433 22.7631 32.1935L23.3207 32.6951ZM23.2702 31.9468L23.753 31.3728C23.7196 31.3448 23.7156 31.3354 23.7241 31.3475C23.7333 31.3608 23.763 31.4081 23.7763 31.487C23.7908 31.5722 23.78 31.6588 23.7508 31.732C23.7242 31.7986 23.6916 31.8316 23.6877 31.8355L23.1609 31.3016L22.6341 30.7677C22.4169 30.9821 22.2264 31.3184 22.2974 31.7374C22.3592 32.1025 22.5956 32.3594 22.7873 32.5207L23.2702 31.9468ZM23.1609 31.3016L23.6877 31.8355C23.8236 31.7013 23.9627 31.6119 24.1055 31.5553L23.8293 30.858L23.553 30.1608C23.2082 30.2974 22.9017 30.5037 22.6341 30.7677L23.1609 31.3016ZM23.8293 30.858L24.1055 31.5553C24.121 31.5492 24.0522 31.5816 23.9338 31.5741C23.7788 31.5644 23.5748 31.4846 23.4439 31.2862C23.3412 31.1306 23.3464 30.9929 23.3467 30.9794C23.3475 30.9535 23.3508 30.9595 23.3367 31.0116L24.0604 31.2084L24.7841 31.4051C24.8148 31.2921 24.8422 31.1597 24.8461 31.0221C24.8497 30.8969 24.8371 30.6741 24.696 30.4602C24.5265 30.2034 24.2631 30.0919 24.028 30.0771C23.8294 30.0646 23.6595 30.1186 23.553 30.1608L23.8293 30.858ZM24.0604 31.2084L23.3367 31.0116C23.2579 31.3014 23.2527 31.6126 23.3614 31.9177C23.4686 32.2185 23.6653 32.4546 23.8931 32.6356L24.3598 32.0485L24.8264 31.4614C24.7954 31.4367 24.7805 31.4194 24.7746 31.4117C24.7693 31.4047 24.7714 31.4057 24.7744 31.4143C24.7776 31.4232 24.7785 31.431 24.7785 31.4342C24.7786 31.4365 24.778 31.4276 24.7841 31.4051L24.0604 31.2084ZM24.3598 32.0485L23.8931 32.6356C23.9348 32.6688 23.9602 32.6945 23.9746 32.7113C23.9888 32.7279 23.9897 32.7328 23.9861 32.7251C23.9819 32.7164 23.975 32.6979 23.972 32.672C23.969 32.6458 23.9714 32.6231 23.9749 32.6076L24.7059 32.7757L25.4368 32.9438C25.5862 32.2942 25.2341 31.7854 24.8264 31.4614L24.3598 32.0485ZM24.7059 32.7757L23.9749 32.6076C23.9071 32.9028 23.8647 33.1986 23.8486 33.4948L24.5975 33.5354L25.3464 33.5759C25.3576 33.3688 25.3875 33.1583 25.4368 32.9438L24.7059 32.7757ZM24.5975 33.5354L23.8486 33.4948C23.832 33.8019 23.8494 34.1073 23.9009 34.4101L24.6403 34.2842L25.3797 34.1584C25.3469 33.9659 25.3358 33.7721 25.3464 33.5759L24.5975 33.5354ZM24.6403 34.2842L23.9009 34.4101C23.9055 34.437 23.9116 34.5075 23.8215 34.6516L24.4575 35.0492L25.0935 35.4467C25.3314 35.0662 25.4594 34.6267 25.3797 34.1584L24.6403 34.2842ZM24.4575 35.0492L23.8215 34.6516C23.6848 34.8704 23.5872 35.128 23.5801 35.4156C23.5728 35.7079 23.6605 35.9746 23.8048 36.203L24.4388 35.8024L25.0729 35.4018C25.0679 35.394 25.0705 35.396 25.0739 35.4076C25.0775 35.4199 25.08 35.4359 25.0796 35.4529C25.0794 35.4608 25.0786 35.4674 25.0777 35.4724C25.0773 35.4748 25.0769 35.4766 25.0765 35.4779C25.0762 35.4792 25.076 35.4799 25.076 35.4799C25.076 35.4798 25.0797 35.4688 25.0935 35.4467L24.4575 35.0492ZM24.4388 35.8024L23.8048 36.203C23.9043 36.3606 23.9503 36.4989 23.9646 36.6219L24.7096 36.535L25.4545 36.4481C25.4109 36.0739 25.2763 35.7238 25.0729 35.4018L24.4388 35.8024ZM24.7096 36.535L23.9646 36.6219C23.9718 36.6829 23.9641 36.7792 23.8786 36.9302L24.5313 37.2996L25.184 37.6691C25.3942 37.2977 25.5054 36.8842 25.4545 36.4481L24.7096 36.535ZM24.5313 37.2996L23.8786 36.9302C23.7357 37.1826 23.6566 37.4869 23.7162 37.8151C23.7741 38.1337 23.9466 38.3864 24.1404 38.5768L24.6661 38.0419L25.1919 37.507C25.1479 37.4638 25.1791 37.4759 25.1921 37.5471C25.1984 37.5818 25.1971 37.6151 25.1917 37.6417C25.1866 37.6666 25.18 37.6762 25.184 37.6691L24.5313 37.2996ZM24.6661 38.0419L24.1404 38.5768C24.2024 38.6378 24.213 38.6686 24.2115 38.6645C24.2105 38.6619 24.208 38.6539 24.2071 38.6423C24.2062 38.6306 24.2074 38.6221 24.2081 38.6188L24.9419 38.7741L25.6756 38.9295C25.7975 38.3539 25.554 37.863 25.1919 37.507L24.6661 38.0419ZM24.9419 38.7741L24.2081 38.6188C24.1565 38.8626 24.0992 39.107 24.0362 39.352L24.7625 39.5389L25.4889 39.7257C25.5572 39.4601 25.6195 39.1947 25.6756 38.9295L24.9419 38.7741ZM24.7625 39.5389L24.0362 39.352C23.9196 39.8051 23.9888 40.2515 24.215 40.652L24.8681 40.2832L25.5211 39.9144C25.4752 39.8331 25.4741 39.7833 25.4889 39.7257L24.7625 39.5389ZM24.8681 40.2832L24.215 40.652C24.3066 40.8142 24.3529 40.9626 24.3683 41.1006L25.1137 41.0176L25.8591 40.9346C25.819 40.5752 25.7016 40.2341 25.5211 39.9144L24.8681 40.2832ZM25.1137 41.0176L24.3683 41.1006C24.3711 41.1256 24.3735 41.2046 24.2657 41.3619L24.8843 41.7859L25.503 42.2099C25.7564 41.8401 25.9117 41.4069 25.8591 40.9346L25.1137 41.0176ZM24.8843 41.7859L24.2657 41.3619C24.0927 41.6144 23.9756 41.9471 24.0526 42.3203C24.1255 42.6737 24.3462 42.9311 24.563 43.108L25.0372 42.5269L25.5113 41.9458C25.4457 41.8922 25.4997 41.9108 25.5216 42.0173C25.5329 42.0717 25.5297 42.1239 25.5192 42.1651C25.5096 42.2028 25.4974 42.218 25.503 42.2099L24.8843 41.7859ZM25.0372 42.5269L24.563 43.108C24.6221 43.1562 24.5435 43.1164 24.5266 42.9751C24.5086 42.8243 24.5829 42.753 24.5511 42.7911L25.1262 43.2724L25.7014 43.7538C25.8926 43.5253 26.0637 43.1965 26.016 42.7971C25.9694 42.4073 25.7347 42.128 25.5113 41.9458L25.0372 42.5269ZM25.1262 43.2724L24.5511 42.7911C24.2381 43.165 24.0188 43.6541 24.1429 44.2066L24.8747 44.0423L25.6065 43.878C25.6078 43.8839 25.6084 43.8911 25.608 43.8978C25.6077 43.9041 25.6067 43.9046 25.6089 43.8978C25.614 43.8823 25.6343 43.8339 25.7014 43.7538L25.1262 43.2724ZM24.8747 44.0423L24.1429 44.2066C24.1931 44.43 24.2414 44.6977 24.2871 45.0123L25.0293 44.9044L25.7715 44.7965C25.7219 44.455 25.6671 44.148 25.6065 43.878L24.8747 44.0423ZM25.0293 44.9044L24.2871 45.0123C24.2927 45.0508 24.2897 45.0575 24.2915 45.041C24.2933 45.0237 24.3021 44.9664 24.3444 44.8952C24.3903 44.8178 24.4592 44.7526 24.5394 44.7108C24.6132 44.6724 24.6713 44.6668 24.6891 44.6659L24.7262 45.415L24.7633 46.1641C25.0646 46.1491 25.4213 46.0196 25.6342 45.6609C25.8145 45.3573 25.8048 45.0253 25.7715 44.7965L25.0293 44.9044ZM24.7262 45.415L24.6891 44.6659C24.6149 44.6696 24.6472 44.6553 24.7261 44.6889C24.7726 44.7086 24.8391 44.7469 24.9021 44.8163C24.9671 44.8879 25.0083 44.9709 25.0285 45.0507L24.3013 45.2343L23.5741 45.418C23.656 45.7422 23.8832 45.9605 24.1393 46.0693C24.3598 46.1631 24.5878 46.1728 24.7633 46.1641L24.7262 45.415ZM24.3013 45.2343L25.0285 45.0507C24.9891 44.895 24.9275 44.6885 24.8477 44.4391L24.1334 44.6676L23.419 44.8961C23.496 45.1368 23.5464 45.3081 23.5741 45.418L24.3013 45.2343Z" fill="#030302"/>
<path d="M29.1781 23.521L29.0975 24.2666L29.1781 23.521ZM29.9052 23.3678L29.5753 22.6943V22.6943L29.9052 23.3678ZM30.6726 23.1129L30.7993 23.8521L30.6726 23.1129ZM32.9113 23.3637L32.6639 22.6557L32.9113 23.3637ZM35.913 23.4313L36.1797 22.7303L35.913 23.4313ZM41.1404 23.9567L40.6359 23.4017L41.1404 23.9567ZM41.9001 23.825L41.4968 24.4574L41.9001 23.825ZM44.8836 24.125L45.4159 23.5966L44.8836 24.125ZM44.6685 25.3048L44.815 26.0403L44.6685 25.3048ZM40.8933 24.9008L40.4333 24.3084L40.8933 24.9008ZM40.1309 25.0764L39.8791 25.7829L40.1309 25.0764ZM35.6482 24.6594L35.0944 25.1652L35.6482 24.6594ZM34.9187 24.3074L34.984 25.0546L34.9187 24.3074ZM33.3767 24.9324L33.3143 25.6798L33.3767 24.9324ZM29.1351 24.1645L29.467 24.8371L29.1351 24.1645ZM28.9061 23.8642L29.6446 23.733C29.6418 23.7171 29.6485 23.7416 29.6421 23.7927C29.6354 23.8469 29.6111 23.9496 29.5282 24.0542C29.4408 24.1645 29.3299 24.2242 29.2385 24.2502C29.1573 24.2732 29.1026 24.2672 29.0975 24.2666L29.1781 23.521L29.2588 22.7753C29.0403 22.7517 28.6336 22.768 28.3526 23.1226C28.1015 23.4394 28.1345 23.8087 28.1677 23.9953L28.9061 23.8642ZM29.1781 23.521L29.0975 24.2666C29.4976 24.3099 29.8828 24.214 30.2351 24.0414L29.9052 23.3678L29.5753 22.6943C29.4109 22.7748 29.3114 22.781 29.2588 22.7753L29.1781 23.521ZM29.9052 23.3678L30.2351 24.0414C30.4369 23.9426 30.6245 23.8821 30.7993 23.8521L30.6726 23.1129L30.5459 22.3737C30.2143 22.4305 29.8904 22.54 29.5753 22.6943L29.9052 23.3678ZM30.6726 23.1129L30.7993 23.8521C30.8766 23.8389 30.9564 23.8467 31.0628 23.9035L31.416 23.2419L31.7692 22.5803C31.3908 22.3783 30.9751 22.3001 30.5459 22.3737L30.6726 23.1129ZM31.416 23.2419L31.0628 23.9035C31.3864 24.0763 31.7307 24.1845 32.0915 24.2144L32.1534 23.467L32.2154 22.7196C32.0778 22.7082 31.9304 22.6663 31.7692 22.5803L31.416 23.2419ZM32.1534 23.467L32.0915 24.2144C32.4541 24.2445 32.812 24.1929 33.1588 24.0717L32.9113 23.3637L32.6639 22.6557C32.4985 22.7135 32.3512 22.7308 32.2154 22.7196L32.1534 23.467ZM32.9113 23.3637L33.1588 24.0717C33.2911 24.0255 33.3984 24.0228 33.4976 24.0456L33.6659 23.3147L33.8341 22.5839C33.4394 22.493 33.0438 22.5229 32.6639 22.6557L32.9113 23.3637ZM33.6659 23.3147L33.4976 24.0456C33.6166 24.073 33.7603 24.138 33.929 24.2714L34.3943 23.6832L34.8596 23.095C34.551 22.8509 34.209 22.6702 33.8341 22.5839L33.6659 23.3147ZM34.3943 23.6832L33.929 24.2714C34.1634 24.4568 34.466 24.5844 34.8157 24.5593C35.1508 24.5353 35.426 24.3781 35.635 24.2004L35.1492 23.629L34.6633 23.0576C34.6078 23.1048 34.6249 23.0692 34.7083 23.0632C34.7502 23.0602 34.7902 23.0665 34.8224 23.0777C34.8525 23.0882 34.8646 23.099 34.8596 23.095L34.3943 23.6832ZM35.1492 23.629L35.635 24.2004C35.7074 24.1388 35.7382 24.1339 35.7265 24.1369C35.7194 24.1388 35.7053 24.1411 35.6868 24.1401C35.6683 24.1391 35.654 24.1352 35.6462 24.1322L35.913 23.4313L36.1797 22.7303C35.5958 22.5081 35.058 22.7221 34.6633 23.0576L35.1492 23.629ZM35.913 23.4313L35.6462 24.1322C36.0522 24.2867 36.4754 24.2956 36.8877 24.1663L36.6632 23.4507L36.4388 22.7351C36.34 22.7661 36.2631 22.762 36.1797 22.7303L35.913 23.4313ZM36.6632 23.4507L36.8877 24.1663C36.8939 24.1644 36.8934 24.1653 36.8877 24.1655C36.8817 24.1658 36.8755 24.1652 36.8712 24.1642C36.8616 24.1619 36.8812 24.1634 36.9302 24.2033L37.404 23.6219L37.8778 23.0405C37.4778 22.7146 36.9736 22.5673 36.4388 22.7351L36.6632 23.4507ZM37.404 23.6219L36.9302 24.2033C37.2923 24.4984 37.7377 24.6724 38.2358 24.6085L38.1403 23.8646L38.0448 23.1207C38.0378 23.1216 37.9923 23.1338 37.8778 23.0405L37.404 23.6219ZM38.1403 23.8646L38.2358 24.6085C38.4875 24.5762 38.7391 24.5443 38.9908 24.5128L38.8977 23.7686L38.8047 23.0244C38.5514 23.0561 38.2981 23.0882 38.0448 23.1207L38.1403 23.8646ZM38.8977 23.7686L38.9908 24.5128C39.2854 24.476 39.5791 24.4139 39.8715 24.3276L39.6592 23.6083L39.4469 22.889C39.229 22.9533 39.015 22.9981 38.8047 23.0244L38.8977 23.7686ZM39.6592 23.6083L39.8715 24.3276C39.8599 24.3311 39.839 24.335 39.8122 24.3337C39.7853 24.3324 39.7638 24.3264 39.7507 24.321C39.7387 24.3161 39.7395 24.3142 39.7525 24.3244C39.7659 24.3349 39.7891 24.3557 39.8206 24.3928L40.392 23.907L40.9634 23.4213C40.6189 23.0159 40.0896 22.6993 39.4469 22.889L39.6592 23.6083ZM40.392 23.907L39.8206 24.3928C40.0102 24.6158 40.3024 24.847 40.7044 24.8737C41.1073 24.9004 41.4276 24.7091 41.6448 24.5117L41.1404 23.9567L40.6359 23.4017C40.5875 23.4457 40.6504 23.3668 40.8038 23.377C40.9564 23.3871 41.0072 23.4727 40.9634 23.4213L40.392 23.907ZM41.1404 23.9567L41.6448 24.5117C41.7123 24.4504 41.7165 24.4715 41.6575 24.4817C41.626 24.4872 41.5898 24.4869 41.5545 24.479C41.5206 24.4715 41.501 24.4601 41.4968 24.4574L41.9001 23.825L42.3033 23.1927C42.0442 23.0275 41.7333 22.9463 41.4014 23.0038C41.0892 23.0579 40.8341 23.2216 40.6359 23.4017L41.1404 23.9567ZM41.9001 23.825L41.4968 24.4574C41.8941 24.7107 42.3514 24.806 42.8246 24.6879L42.6431 23.9602L42.4616 23.2325C42.4258 23.2414 42.3878 23.2466 42.3033 23.1927L41.9001 23.825ZM42.6431 23.9602L42.8246 24.6879C42.8237 24.6882 42.8169 24.6896 42.8062 24.6892C42.7954 24.6889 42.7872 24.6869 42.7834 24.6856C42.7765 24.6833 42.8039 24.6904 42.8621 24.7459L43.3794 24.2028L43.8966 23.6597C43.5264 23.3071 43.0279 23.0913 42.4616 23.2325L42.6431 23.9602ZM43.3794 24.2028L42.8621 24.7459C43.0842 24.9573 43.4003 25.1327 43.7913 25.1086C44.1614 25.0859 44.4503 24.8924 44.6534 24.6972L44.1338 24.1564L43.6141 23.6156C43.5508 23.6764 43.5807 23.6187 43.6993 23.6114C43.7599 23.6077 43.8148 23.6199 43.8557 23.6375C43.8928 23.6534 43.9056 23.6682 43.8966 23.6597L43.3794 24.2028ZM44.1338 24.1564L44.6534 24.6972C44.7162 24.6368 44.6805 24.7004 44.5525 24.7058C44.4875 24.7085 44.4303 24.6938 44.3893 24.6748C44.3524 24.6576 44.3409 24.6428 44.3514 24.6533L44.8836 24.125L45.4159 23.5966C45.2013 23.3804 44.8877 23.1904 44.4897 23.2071C44.1118 23.2229 43.8178 23.4199 43.6141 23.6156L44.1338 24.1564ZM44.8836 24.125L44.3514 24.6533C44.4147 24.7172 44.4286 24.7516 44.4289 24.7524C44.429 24.7525 44.4283 24.7509 44.4275 24.7476C44.4268 24.7443 44.426 24.74 44.4255 24.7349C44.4244 24.7239 44.4253 24.7145 44.4264 24.7088L45.1632 24.849L45.8999 24.9891C46.0073 24.4247 45.7628 23.946 45.4159 23.5966L44.8836 24.125ZM45.1632 24.849L44.4264 24.7088C44.427 24.7053 44.4308 24.6887 44.4433 24.6652C44.4562 24.6408 44.4743 24.617 44.496 24.597C44.54 24.5565 44.5661 24.5605 44.5219 24.5693L44.6685 25.3048L44.815 26.0403C45.0536 25.9928 45.3034 25.8927 45.5124 25.7002C45.7277 25.5018 45.8502 25.2505 45.8999 24.9891L45.1632 24.849ZM44.6685 25.3048L44.5219 24.5693C44.4788 24.5779 44.4447 24.5811 44.366 24.5158L43.8872 25.093L43.4084 25.6703C43.8059 26 44.2927 26.1444 44.815 26.0403L44.6685 25.3048ZM43.8872 25.093L44.366 24.5158C44.1674 24.3511 43.9251 24.22 43.641 24.1746C43.3522 24.1284 43.0762 24.1797 42.8306 24.2923L43.1431 24.9741L43.4556 25.6559C43.464 25.652 43.4617 25.6543 43.4498 25.6561C43.4371 25.6581 43.4209 25.6584 43.4041 25.6558C43.3963 25.6545 43.3899 25.6528 43.3851 25.6513C43.3827 25.6505 43.3809 25.6499 43.3797 25.6494C43.3785 25.6489 43.3779 25.6486 43.3779 25.6486C43.3779 25.6486 43.3884 25.6537 43.4084 25.6703L43.8872 25.093ZM43.1431 24.9741L42.8306 24.2923C42.6612 24.37 42.518 24.3971 42.3942 24.3949L42.381 25.1448L42.3678 25.8946C42.7445 25.9013 43.1094 25.8146 43.4556 25.6559L43.1431 24.9741ZM42.381 25.1448L42.3942 24.3949C42.3328 24.3938 42.2384 24.3734 42.1001 24.2685L41.647 24.8661L41.1938 25.4637C41.5338 25.7216 41.9288 25.8869 42.3678 25.8946L42.381 25.1448ZM41.647 24.8661L42.1001 24.2685C41.869 24.0933 41.578 23.9743 41.2448 23.9896C40.9213 24.0044 40.6479 24.1418 40.4333 24.3084L40.8933 24.9008L41.3533 25.4931C41.402 25.4553 41.3859 25.4847 41.3136 25.488C41.2784 25.4896 41.2456 25.4839 41.2199 25.475C41.1959 25.4667 41.1873 25.4588 41.1938 25.4637L41.647 24.8661ZM40.8933 24.9008L40.4333 24.3084C40.3646 24.3618 40.3327 24.3681 40.3369 24.3672C40.3397 24.3665 40.3479 24.3652 40.3595 24.3658C40.3712 24.3665 40.3795 24.3688 40.3827 24.37L40.1309 25.0764L39.8791 25.7829C40.4333 25.9804 40.9523 25.8046 41.3533 25.4931L40.8933 24.9008ZM40.1309 25.0764L40.3827 24.37C40.148 24.2863 39.9134 24.1969 39.6789 24.1018L39.3969 24.7967L39.1149 25.4917C39.369 25.5948 39.6238 25.6919 39.8791 25.7829L40.1309 25.0764ZM39.3969 24.7967L39.6789 24.1018C39.2454 23.9258 38.7937 23.9349 38.3667 24.1057L38.6451 24.8021L38.9235 25.4985C39.0103 25.4638 39.0598 25.4693 39.1149 25.4917L39.3969 24.7967ZM38.6451 24.8021L38.3667 24.1057C38.1937 24.1748 38.0405 24.2009 37.9016 24.1978L37.8845 24.9476L37.8675 25.6974C38.2289 25.7056 38.5827 25.6347 38.9235 25.4985L38.6451 24.8021ZM37.8845 24.9476L37.9016 24.1978C37.8765 24.1972 37.7979 24.1891 37.6564 24.0612L37.1537 24.6179L36.651 25.1745C36.9837 25.4749 37.3923 25.6866 37.8675 25.6974L37.8845 24.9476ZM37.1537 24.6179L37.6564 24.0612C37.4292 23.8561 37.1151 23.6957 36.735 23.7223C36.375 23.7474 36.0905 23.9318 35.8862 24.1232L36.3989 24.6705L36.9117 25.2179C36.9735 25.16 36.9478 25.211 36.8394 25.2186C36.784 25.2225 36.7327 25.2124 36.6933 25.1965C36.6571 25.182 36.6437 25.1679 36.651 25.1745L37.1537 24.6179ZM36.3989 24.6705L35.8862 24.1232C35.8306 24.1753 35.8805 24.1026 36.0228 24.1047C36.1747 24.107 36.2354 24.1902 36.2019 24.1536L35.6482 24.6594L35.0944 25.1652C35.2954 25.3852 35.5984 25.5986 36.0006 25.6046C36.3932 25.6104 36.7012 25.415 36.9117 25.2179L36.3989 24.6705ZM35.6482 24.6594L36.2019 24.1536C35.873 23.7936 35.4175 23.511 34.8534 23.5603L34.9187 24.3074L34.984 25.0546C34.978 25.0551 34.9707 25.0548 34.9642 25.0535C34.9579 25.0523 34.9576 25.0513 34.9641 25.0544C34.9787 25.0615 35.024 25.0881 35.0944 25.1652L35.6482 24.6594ZM34.9187 24.3074L34.8534 23.5603C34.4154 23.5986 34.0228 23.7939 33.6814 24.0631L34.1457 24.652L34.61 25.241C34.7955 25.0948 34.9183 25.0603 34.984 25.0546L34.9187 24.3074ZM34.1457 24.652L33.6814 24.0631C33.5151 24.1942 33.442 24.1853 33.4391 24.185L33.3767 24.9324L33.3143 25.6798C33.8099 25.7212 34.2494 25.5253 34.61 25.241L34.1457 24.652ZM33.3767 24.9324L33.4391 24.185C33.4112 24.1827 33.3228 24.1663 33.1714 24.0191L32.6487 24.557L32.126 25.0949C32.4469 25.4067 32.8439 25.6406 33.3143 25.6798L33.3767 24.9324ZM32.6487 24.557L33.1714 24.0191C32.8013 23.6595 32.2967 23.4368 31.7221 23.5877L31.9125 24.3131L32.1029 25.0385C32.1011 25.039 32.0927 25.0408 32.0801 25.0404C32.0673 25.04 32.0572 25.0377 32.0517 25.0359C32.0416 25.0325 32.0677 25.0382 32.126 25.0949L32.6487 24.557ZM31.9125 24.3131L31.7221 23.5877C31.5334 23.6372 31.3531 23.6575 31.1788 23.6521L31.1555 24.4017L31.1322 25.1513C31.4579 25.1615 31.7822 25.1227 32.1029 25.0385L31.9125 24.3131ZM31.1555 24.4017L31.1788 23.6521C30.9769 23.6458 30.7756 23.6202 30.5743 23.575L30.41 24.3068L30.2456 25.0386C30.5384 25.1043 30.8341 25.1421 31.1322 25.1513L31.1555 24.4017ZM30.41 24.3068L30.5743 23.575C30.3185 23.5176 30.0623 23.4649 29.8058 23.417L29.668 24.1542L29.5303 24.8914C29.7689 24.936 30.0074 24.9851 30.2456 25.0386L30.41 24.3068ZM29.668 24.1542L29.8058 23.417C29.5417 23.3676 29.1477 23.322 28.8033 23.4919L29.1351 24.1645L29.467 24.8371C29.424 24.8582 29.3906 24.8665 29.3748 24.8696C29.3589 24.8728 29.354 24.8721 29.3636 24.8719C29.3728 24.8717 29.3912 24.8721 29.4203 24.875C29.4491 24.8779 29.4856 24.8831 29.5303 24.8914L29.668 24.1542ZM29.1351 24.1645L28.8033 23.4919C28.8932 23.4475 29.0535 23.3998 29.2458 23.4489C29.4329 23.4966 29.5436 23.609 29.5935 23.6744C29.6188 23.7075 29.634 23.7354 29.6422 23.7518C29.6505 23.7687 29.6543 23.7796 29.6551 23.7819C29.6562 23.7851 29.6514 23.7713 29.6446 23.733L28.9061 23.8642L28.1677 23.9953C28.1936 24.1413 28.2473 24.3828 28.4008 24.584C28.4889 24.6995 28.6417 24.8428 28.8747 24.9023C29.1131 24.9631 29.3232 24.908 29.467 24.8371L29.1351 24.1645Z" fill="#030302"/>
<path d="M4.90642 23.3714L5.23352 24.0463L4.90642 23.3714ZM5.67487 23.1197L5.79852 23.8594L5.67487 23.1197ZM6.41773 23.2518L6.77369 22.5916L6.41773 23.2518ZM7.15418 23.4799L7.21923 22.7327V22.7327L7.15418 23.4799ZM7.91252 23.3798L8.15706 24.0888L7.91252 23.3798ZM8.66724 23.3339L8.83856 22.6038L8.66724 23.3339ZM10.1492 23.6543L10.6327 24.2277L10.1492 23.6543ZM10.9138 23.4598L11.1835 22.7599L10.9138 23.4598ZM11.664 23.4823L11.8855 24.1989L11.664 23.4823ZM13.1393 23.9023L13.2318 24.6466L13.1393 23.9023ZM13.8972 23.8095L13.8072 23.0649L13.8972 23.8095ZM16.139 24.0069L16.6411 24.564L16.139 24.0069ZM18.377 24.2622L18.8965 23.7213L18.377 24.2622ZM19.089 24.6711L19.232 23.9349L19.089 24.6711ZM17.6232 25.3084L17.6463 26.058L17.6232 25.3084ZM13.8976 24.8175L14.3552 25.4118L13.8976 24.8175ZM12.4016 24.7072L12.6866 24.0135L12.4016 24.7072ZM9.40423 24.5686L9.91469 25.1181L9.40423 24.5686ZM4.25319 24.2841L4.27207 23.5343L4.25319 24.2841ZM3.90567 23.8639L4.64461 23.7356C4.64185 23.7197 4.64844 23.7442 4.64192 23.7952C4.63499 23.8493 4.61035 23.9519 4.52712 24.0561C4.43936 24.1661 4.3283 24.2254 4.23668 24.2511C4.15538 24.2738 4.10055 24.2676 4.09538 24.267L4.17885 23.5217L4.26231 22.7763C4.04383 22.7519 3.63706 22.7667 3.35479 23.1204C3.10267 23.4362 3.13431 23.8055 3.16672 23.9922L3.90567 23.8639ZM4.17885 23.5217L4.09538 24.267C4.49514 24.3118 4.88059 24.2174 5.23352 24.0463L4.90642 23.3714L4.57932 22.6965C4.4144 22.7765 4.31481 22.7822 4.26231 22.7763L4.17885 23.5217ZM4.90642 23.3714L5.23352 24.0463C5.43567 23.9484 5.62358 23.8887 5.79852 23.8594L5.67487 23.1197L5.55122 22.3799C5.21939 22.4354 4.89501 22.5435 4.57932 22.6965L4.90642 23.3714ZM5.67487 23.1197L5.79852 23.8594C5.87581 23.8465 5.9556 23.8547 6.06176 23.9119L6.41773 23.2518L6.77369 22.5916C6.39613 22.388 5.98068 22.3082 5.55122 22.3799L5.67487 23.1197ZM6.41773 23.2518L6.06176 23.9119C6.38469 24.086 6.72846 24.1957 7.08913 24.2271L7.15418 23.4799L7.21923 22.7327C7.08168 22.7208 6.93448 22.6783 6.77369 22.5916L6.41773 23.2518ZM7.15418 23.4799L7.08913 24.2271C7.4516 24.2587 7.80976 24.2086 8.15706 24.0888L7.91252 23.3798L7.66798 22.6708C7.50238 22.7279 7.35497 22.7446 7.21923 22.7327L7.15418 23.4799ZM7.91252 23.3798L8.15706 24.0888C8.28952 24.0431 8.39688 24.0409 8.49593 24.0641L8.66724 23.3339L8.83856 22.6038C8.44422 22.5112 8.04842 22.5396 7.66798 22.6708L7.91252 23.3798ZM8.66724 23.3339L8.49593 24.0641C8.61481 24.092 8.75822 24.1575 8.92643 24.2917L9.39414 23.7054L9.86185 23.1191C9.55426 22.8737 9.21307 22.6916 8.83856 22.6038L8.66724 23.3339ZM9.39414 23.7054L8.92643 24.2917C9.15999 24.478 9.46212 24.6069 9.81195 24.5833C10.1471 24.5606 10.4229 24.4046 10.6327 24.2277L10.1492 23.6543L9.66576 23.081C9.61004 23.1279 9.62727 23.0923 9.71072 23.0867C9.75259 23.0839 9.79255 23.0904 9.82472 23.1017C9.85476 23.1123 9.8669 23.1232 9.86185 23.1191L9.39414 23.7054ZM10.1492 23.6543L10.6327 24.2277C10.7053 24.1665 10.7361 24.1617 10.7244 24.1647C10.7173 24.1665 10.7032 24.1688 10.6848 24.1677C10.6662 24.1666 10.652 24.1626 10.6442 24.1596L10.9138 23.4598L11.1835 22.7599C10.6005 22.5353 10.0618 22.747 9.66576 23.081L10.1492 23.6543ZM10.9138 23.4598L10.6442 24.1596C11.0495 24.3158 11.4727 24.3265 11.8855 24.1989L11.664 23.4823L11.4425 22.7658C11.3437 22.7964 11.2667 22.792 11.1835 22.7599L10.9138 23.4598ZM11.664 23.4823L11.8855 24.1989C11.8917 24.197 11.8912 24.1979 11.8855 24.1981C11.8795 24.1984 11.8734 24.1977 11.869 24.1966C11.8594 24.1944 11.8791 24.1959 11.9279 24.236L12.4041 23.6566L12.8803 23.0771C12.4817 22.7496 11.9781 22.6003 11.4425 22.7658L11.664 23.4823ZM12.4041 23.6566L11.9279 24.236C12.2888 24.5326 12.7334 24.7085 13.2318 24.6466L13.1393 23.9023L13.0469 23.1581C13.04 23.1589 12.9944 23.171 12.8803 23.0771L12.4041 23.6566ZM13.1393 23.9023L13.2318 24.6466C13.4836 24.6154 13.7354 24.5845 13.9871 24.5541L13.8972 23.8095L13.8072 23.0649C13.5538 23.0955 13.3004 23.1266 13.0469 23.1581L13.1393 23.9023ZM13.8972 23.8095L13.9871 24.5541C14.2819 24.5185 14.5759 24.4576 14.8686 24.3726L14.6593 23.6524L14.45 22.9322C14.2318 22.9956 14.0177 23.0395 13.8072 23.0649L13.8972 23.8095ZM14.6593 23.6524L14.8686 24.3726C14.857 24.3759 14.8361 24.3798 14.8093 24.3784C14.7824 24.377 14.761 24.3708 14.7478 24.3654C14.7358 24.3605 14.7367 24.3586 14.7497 24.3689C14.763 24.3794 14.7861 24.4003 14.8174 24.4375L15.3909 23.9541L15.9643 23.4707C15.6214 23.064 15.0934 22.7452 14.45 22.9322L14.6593 23.6524ZM15.3909 23.9541L14.8174 24.4375C15.0061 24.6613 15.2974 24.8937 15.6993 24.922C16.102 24.9505 16.4232 24.7605 16.6411 24.564L16.139 24.0069L15.6369 23.4498C15.5883 23.4936 15.6515 23.4149 15.8048 23.4258C15.9574 23.4365 16.0079 23.5224 15.9643 23.4707L15.3909 23.9541ZM16.139 24.0069L16.6411 24.564C16.7088 24.503 16.7131 24.5241 16.654 24.5341C16.6224 24.5394 16.5862 24.5389 16.551 24.531C16.5171 24.5233 16.4975 24.5118 16.4934 24.5091L16.8993 23.8784L17.3051 23.2477C17.0467 23.0814 16.7361 22.9989 16.404 23.0551C16.0916 23.1079 15.8358 23.2705 15.6369 23.4498L16.139 24.0069ZM16.8993 23.8784L16.4934 24.5091C16.8896 24.764 17.3465 24.8612 17.8202 24.7451L17.6417 24.0167L17.4632 23.2882C17.4275 23.297 17.3894 23.302 17.3051 23.2477L16.8993 23.8784ZM17.6417 24.0167L17.8202 24.7451C17.8193 24.7453 17.8125 24.7468 17.8018 24.7463C17.791 24.7459 17.7828 24.7439 17.779 24.7426C17.7721 24.7403 17.7995 24.7475 17.8575 24.8032L18.377 24.2622L18.8965 23.7213C18.5278 23.3672 18.0301 23.1493 17.4632 23.2882L17.6417 24.0167ZM18.377 24.2622L17.8575 24.8032C18.1626 25.0962 18.5245 25.3255 18.946 25.4074L19.089 24.6711L19.232 23.9349C19.1751 23.9239 19.0624 23.8806 18.8965 23.7213L18.377 24.2622ZM19.089 24.6711L18.946 25.4074C18.9429 25.4068 18.9244 25.4031 18.8961 25.3921C18.8684 25.3813 18.8199 25.3592 18.7652 25.3169C18.6329 25.2146 18.5229 25.0372 18.5199 24.8213C18.5175 24.6516 18.5837 24.5472 18.5908 24.5359C18.6035 24.5156 18.6028 24.5226 18.5666 24.5585L19.0948 25.0909L19.623 25.6234C19.7044 25.5426 19.7918 25.4445 19.8628 25.3309C19.9282 25.2263 20.0231 25.0402 20.0197 24.8005C20.0158 24.5147 19.8751 24.279 19.6826 24.1301C19.5205 24.0048 19.3452 23.9569 19.232 23.9349L19.089 24.6711ZM19.0948 25.0909L18.5666 24.5585C18.5028 24.6218 18.4687 24.6352 18.4685 24.6353C18.4685 24.6353 18.469 24.6351 18.4699 24.6349C18.4708 24.6346 18.4721 24.6342 18.4738 24.6338C18.4773 24.633 18.4818 24.6322 18.4871 24.6317C18.4985 24.6306 18.5081 24.6316 18.514 24.6327L18.3709 25.3689L18.2277 26.1051C18.7932 26.215 19.2731 25.9705 19.623 25.6234L19.0948 25.0909ZM18.3709 25.3689L18.514 24.6327C18.2121 24.574 17.9071 24.5493 17.6002 24.5587L17.6232 25.3084L17.6463 26.058C17.8414 26.052 18.0349 26.0676 18.2277 26.1051L18.3709 25.3689ZM17.6232 25.3084L17.6002 24.5587C17.5729 24.5595 17.5022 24.5559 17.3718 24.4469L16.8906 25.0222L16.4095 25.5975C16.7537 25.8854 17.1714 26.0726 17.6463 26.058L17.6232 25.3084ZM16.8906 25.0222L17.3718 24.4469C17.1739 24.2814 16.9322 24.1493 16.6483 24.1027C16.3597 24.0553 16.0835 24.1055 15.8374 24.217L16.1471 24.9001L16.4568 25.5832C16.4652 25.5794 16.4628 25.5817 16.4509 25.5835C16.4382 25.5854 16.4221 25.5857 16.4053 25.5829C16.3974 25.5816 16.391 25.5799 16.3862 25.5784C16.3839 25.5776 16.3821 25.5769 16.3809 25.5764C16.3797 25.5759 16.379 25.5756 16.379 25.5756C16.3791 25.5756 16.3895 25.5808 16.4095 25.5975L16.8906 25.0222ZM16.1471 24.9001L15.8374 24.217C15.6677 24.294 15.5244 24.3205 15.4006 24.3178L15.3843 25.0677L15.368 25.8175C15.7446 25.8257 16.1098 25.7405 16.4568 25.5832L16.1471 24.9001ZM15.3843 25.0677L15.4006 24.3178C15.3392 24.3165 15.2449 24.2957 15.107 24.1903L14.6514 24.786L14.1957 25.3817C14.5347 25.641 14.929 25.8079 15.368 25.8175L15.3843 25.0677ZM14.6514 24.786L15.107 24.1903C14.8766 24.014 14.5862 23.8938 14.2528 23.9078C13.9293 23.9213 13.6554 24.0575 13.4401 24.2232L13.8976 24.8175L14.3552 25.4118C14.404 25.3742 14.3878 25.4034 14.3155 25.4065C14.2802 25.4079 14.2475 25.4021 14.2218 25.3931C14.1978 25.3847 14.1893 25.3768 14.1957 25.3817L14.6514 24.786ZM13.8976 24.8175L13.4401 24.2232C13.3712 24.2763 13.3392 24.2825 13.3434 24.2816C13.3462 24.281 13.3544 24.2796 13.3661 24.2803C13.3777 24.2811 13.386 24.2834 13.3892 24.2846L13.1345 24.99L12.8797 25.6954C13.4331 25.8952 13.9529 25.7215 14.3552 25.4118L13.8976 24.8175ZM13.1345 24.99L13.3892 24.2846C13.1548 24.1999 12.9206 24.1096 12.6866 24.0135L12.4016 24.7072L12.1167 25.401C12.3704 25.5052 12.6248 25.6033 12.8797 25.6954L13.1345 24.99ZM12.4016 24.7072L12.6866 24.0135C12.2538 23.8357 11.8021 23.843 11.3743 24.0119L11.6498 24.7095L11.9254 25.407C12.0123 25.3727 12.0617 25.3784 12.1167 25.401L12.4016 24.7072ZM11.6498 24.7095L11.3743 24.0119C11.201 24.0804 11.0477 24.1058 10.9089 24.1021L10.8887 24.8518L10.8685 25.6016C11.2299 25.6113 11.584 25.5419 11.9254 25.407L11.6498 24.7095ZM10.8887 24.8518L10.9089 24.1021C10.8838 24.1014 10.8052 24.093 10.6642 23.9645L10.1592 24.5191L9.65423 25.0736C9.98562 25.3754 10.3934 25.5888 10.8685 25.6016L10.8887 24.8518ZM10.1592 24.5191L10.6642 23.9645C10.4379 23.7585 10.1244 23.5968 9.74419 23.6217C9.38407 23.6454 9.09884 23.8286 8.89377 24.0191L9.40423 24.5686L9.91469 25.1181C9.97671 25.0605 9.95086 25.1114 9.84239 25.1185C9.787 25.1222 9.73573 25.1118 9.69637 25.0958C9.66029 25.0811 9.64694 25.067 9.65423 25.0736L10.1592 24.5191ZM9.40423 24.5686L8.89377 24.0191C8.83794 24.071 8.88812 23.9986 9.03045 24.0013C9.18232 24.0042 9.24268 24.0876 9.20935 24.0508L8.65351 24.5544L8.09768 25.0579C8.29773 25.2787 8.5999 25.4934 9.002 25.501C9.39458 25.5084 9.70342 25.3143 9.91469 25.1181L9.40423 24.5686ZM8.65351 24.5544L9.20935 24.0508C8.88198 23.6895 8.42764 23.405 7.86332 23.452L7.92552 24.1994L7.98771 24.9468C7.9817 24.9473 7.97442 24.9469 7.96789 24.9457C7.96166 24.9444 7.96133 24.9434 7.96777 24.9465C7.98243 24.9537 8.02753 24.9805 8.09768 25.0579L8.65351 24.5544ZM7.92552 24.1994L7.86332 23.452C7.42518 23.4884 7.03176 23.6821 6.6892 23.9499L7.15109 24.5408L7.61298 25.1317C7.79908 24.9862 7.92195 24.9523 7.98771 24.9468L7.92552 24.1994ZM7.15109 24.5408L6.6892 23.9499C6.52235 24.0803 6.44928 24.0711 6.44642 24.0708L6.38095 24.818L6.31548 25.5651C6.81081 25.6085 7.25117 25.4145 7.61298 25.1317L7.15109 24.5408ZM6.38095 24.818L6.44642 24.0708C6.41855 24.0684 6.33021 24.0516 6.17941 23.9038L5.65451 24.4395L5.1296 24.9752C5.44919 25.2884 5.84515 25.5239 6.31548 25.5651L6.38095 24.818ZM5.65451 24.4395L6.17941 23.9038C5.81086 23.5427 5.30712 23.3179 4.73189 23.4663L4.91931 24.1926L5.10673 24.9188C5.10486 24.9192 5.09654 24.921 5.08388 24.9206C5.07111 24.9201 5.06097 24.9178 5.05548 24.9159C5.04541 24.9125 5.07146 24.9183 5.1296 24.9752L5.65451 24.4395ZM4.91931 24.1926L4.73189 23.4663C4.52009 23.521 4.37048 23.5368 4.27207 23.5343L4.25319 24.2841L4.23432 25.0339C4.51418 25.0409 4.80865 24.9957 5.10673 24.9188L4.91931 24.1926ZM4.25319 24.2841L4.27207 23.5343C4.18071 23.532 4.1276 23.5293 4.10298 23.5272C4.08606 23.5258 4.1035 23.5264 4.13566 23.5329C4.14477 23.5347 4.20471 23.5461 4.27798 23.5785C4.31149 23.5933 4.3988 23.6342 4.48745 23.7182C4.58109 23.8069 4.73899 24.0094 4.71892 24.3104L3.97059 24.2605L3.22225 24.2107C3.20209 24.513 3.36064 24.7169 3.45567 24.8069C3.54572 24.8923 3.63516 24.9344 3.67155 24.9505C3.75056 24.9854 3.81922 24.9993 3.84002 25.0035C3.89554 25.0146 3.94822 25.0195 3.9784 25.0221C4.04798 25.0279 4.13655 25.0314 4.23432 25.0339L4.25319 24.2841ZM3.97059 24.2605L4.71892 24.3104C4.72298 24.2497 4.71828 24.1998 4.71812 24.1979C4.71693 24.1829 4.71551 24.1703 4.71466 24.163C4.71286 24.1477 4.71076 24.1328 4.70906 24.1212C4.70551 24.0969 4.70068 24.0664 4.69506 24.032C4.68364 23.9623 4.66673 23.863 4.64461 23.7356L3.90567 23.8639L3.16672 23.9922C3.18861 24.1183 3.20453 24.2119 3.21475 24.2743C3.21994 24.3061 3.22314 24.3265 3.22481 24.338C3.22573 24.3443 3.22555 24.3435 3.22497 24.3386C3.22472 24.3364 3.22373 24.328 3.2228 24.3163C3.22233 24.3104 3.22156 24.2997 3.22108 24.2862C3.22071 24.276 3.2198 24.2474 3.22225 24.2107L3.97059 24.2605Z" fill="#030302"/>
<path d="M34.187 13.4995L33.7503 12.8897L34.187 13.4995ZM37.5597 10.5082L36.9387 10.0876L37.5597 10.5082ZM37.9889 9.87672L38.6085 10.2993L37.9889 9.87672ZM38.3725 9.19966L39.0523 9.5164L38.3725 9.19966ZM37.0486 12.8256L36.697 12.1631L37.0486 12.8256ZM34.2102 15.2905L34.7638 15.7965V15.7965L34.2102 15.2905ZM31.4499 17.432L31.84 16.7914C31.8262 16.783 31.8491 16.7942 31.8832 16.8328C31.9194 16.8737 31.9803 16.9598 32.0039 17.0912C32.0288 17.2297 32.0003 17.3524 31.9592 17.4382C31.9228 17.5142 31.882 17.5513 31.8782 17.5548L31.3725 17.001L30.8667 16.4472C30.7045 16.5953 30.4476 16.9111 30.5276 17.3565C30.5991 17.7544 30.8979 17.9739 31.0598 18.0725L31.4499 17.432ZM31.3725 17.001L31.8782 17.5548C32.1754 17.2834 32.3583 16.9311 32.462 16.5528L31.7387 16.3545L31.0154 16.1562C30.967 16.3328 30.9058 16.4115 30.8667 16.4472L31.3725 17.001ZM31.7387 16.3545L32.462 16.5528C32.5214 16.3361 32.6002 16.1554 32.6934 16.0045L32.0553 15.6104L31.4171 15.2163C31.2404 15.5026 31.1081 15.8179 31.0154 16.1562L31.7387 16.3545ZM32.0553 15.6104L32.6934 16.0045C32.7346 15.9378 32.7933 15.8831 32.9063 15.8409L32.6439 15.1383L32.3814 14.4357C31.9796 14.5858 31.6459 14.8458 31.4171 15.2163L32.0553 15.6104ZM32.6439 15.1383L32.9063 15.8409C33.2499 15.7126 33.5588 15.526 33.82 15.2753L33.3005 14.7343L32.781 14.1933C32.6815 14.289 32.5526 14.3718 32.3814 14.4357L32.6439 15.1383ZM33.3005 14.7343L33.82 15.2753C34.0824 15.0233 34.2806 14.7208 34.4191 14.3805L33.7245 14.0977L33.0299 13.8148C32.9638 13.9771 32.8793 14.099 32.781 14.1933L33.3005 14.7343ZM33.7245 14.0977L34.4191 14.3805C34.472 14.2507 34.541 14.1685 34.6237 14.1092L34.187 13.4995L33.7503 12.8897C33.421 13.1256 33.1817 13.4421 33.0299 13.8148L33.7245 14.0977ZM34.187 13.4995L34.6237 14.1092C34.723 14.0381 34.8667 13.9734 35.0785 13.9351L34.9452 13.1971L34.812 12.459C34.4248 12.5289 34.063 12.6657 33.7503 12.8897L34.187 13.4995ZM34.9452 13.1971L35.0785 13.9351C35.3725 13.8821 35.6685 13.7396 35.881 13.4607C36.0847 13.1936 36.1489 12.8833 36.1539 12.6089L35.404 12.5952L34.6541 12.5814C34.6528 12.6543 34.6374 12.6179 34.6881 12.5514C34.7135 12.518 34.7447 12.4922 34.7744 12.4755C34.8022 12.4599 34.8184 12.4579 34.812 12.459L34.9452 13.1971ZM35.404 12.5952L36.1539 12.6089C36.1556 12.5139 36.1723 12.4876 36.1669 12.4983C36.1636 12.5049 36.156 12.517 36.143 12.5302C36.13 12.5434 36.1176 12.5515 36.1102 12.5554L35.7611 11.8916L35.412 11.2278C34.8591 11.5187 34.6636 12.0635 34.6541 12.5814L35.404 12.5952ZM35.7611 11.8916L36.1102 12.5554C36.4947 12.3532 36.7814 12.0418 36.9572 11.6471L36.2721 11.3419L35.587 11.0368C35.5449 11.1313 35.4909 11.1863 35.412 11.2278L35.7611 11.8916ZM36.2721 11.3419L36.9572 11.6471C36.9598 11.6411 36.9602 11.6421 36.9566 11.6466C36.9528 11.6513 36.9483 11.6554 36.9446 11.658C36.9366 11.6637 36.9507 11.6499 37.013 11.6396L36.8905 10.8997L36.768 10.1598C36.259 10.244 35.8151 10.5247 35.587 11.0368L36.2721 11.3419ZM36.8905 10.8997L37.013 11.6396C37.4739 11.5633 37.8991 11.3445 38.1807 10.9288L37.5597 10.5082L36.9387 10.0876C36.9348 10.0934 36.9138 10.1356 36.768 10.1598L36.8905 10.8997ZM37.5597 10.5082L38.1807 10.9288C38.323 10.7186 38.4656 10.5088 38.6085 10.2993L37.9889 9.87672L37.3693 9.45411C37.2254 9.66498 37.0819 9.87615 36.9387 10.0876L37.5597 10.5082ZM37.9889 9.87672L38.6085 10.2993C38.7758 10.0541 38.9235 9.79278 39.0523 9.5164L38.3725 9.19966L37.6926 8.88293C37.5967 9.08893 37.4887 9.27902 37.3693 9.45411L37.9889 9.87672ZM38.3725 9.19966L39.0523 9.5164C39.0507 9.51989 39.0408 9.54084 39.0188 9.57047C38.9971 9.59971 38.9548 9.64926 38.8853 9.69625C38.812 9.74585 38.7144 9.78826 38.5978 9.80085C38.4822 9.81334 38.3817 9.79285 38.3066 9.76419C38.235 9.73688 38.1874 9.70288 38.1635 9.68359C38.139 9.66382 38.1271 9.64967 38.1269 9.64939C38.1261 9.64847 38.1315 9.65476 38.1425 9.6714C38.1533 9.6877 38.1674 9.71074 38.1847 9.74189L38.8406 9.37817L39.4965 9.01445C39.4332 8.90032 39.3589 8.78302 39.2711 8.67942C39.1918 8.58591 39.0513 8.44282 38.841 8.36262C38.5818 8.26378 38.2878 8.28937 38.0445 8.45406C37.8479 8.58714 37.7451 8.77029 37.6926 8.88293L38.3725 9.19966ZM38.8406 9.37817L38.1847 9.74189C38.3867 10.1061 38.555 10.3977 38.6877 10.6115L39.3249 10.216L39.9621 9.8205C39.8486 9.63755 39.694 9.37066 39.4965 9.01445L38.8406 9.37817ZM39.3249 10.216L38.6877 10.6115C38.6827 10.6035 38.6502 10.5501 38.6373 10.4581C38.6226 10.3536 38.6378 10.2275 38.7022 10.1095C38.7614 10.001 38.8369 9.94552 38.8705 9.92465C38.9031 9.90441 38.9161 9.90392 38.8904 9.91134L39.0978 10.6321L39.3052 11.3528C39.493 11.2988 39.8319 11.1706 40.0188 10.8282C40.242 10.4193 40.0915 10.0289 39.9621 9.8205L39.3249 10.216ZM39.0978 10.6321L38.8904 9.91134C38.4376 10.0416 38.0636 10.3215 37.8391 10.7544L38.5048 11.0998L39.1706 11.4451C39.1875 11.4125 39.2088 11.3806 39.3052 11.3528L39.0978 10.6321ZM38.5048 11.0998L37.8391 10.7544C37.8395 10.7536 37.8429 10.7475 37.8503 10.7398C37.8577 10.7319 37.8646 10.7271 37.8681 10.7251C37.8743 10.7214 37.851 10.7373 37.7708 10.7443L37.8358 11.4914L37.9008 12.2386C38.4101 12.1943 38.9018 11.9632 39.1706 11.4451L38.5048 11.0998ZM37.8358 11.4914L37.7708 10.7443C37.4653 10.7708 37.1247 10.8919 36.884 11.201C36.6563 11.4935 36.6102 11.8381 36.6222 12.1197L37.3715 12.0878L38.1208 12.0559C38.1171 11.9682 38.1406 12.0288 38.0676 12.1225C38.0303 12.1704 37.9848 12.2036 37.9446 12.2226C37.908 12.2399 37.8885 12.2397 37.9008 12.2386L37.8358 11.4914ZM37.3715 12.0878L36.6222 12.1197C36.6244 12.1729 36.6216 12.2089 36.6184 12.2308C36.6152 12.2523 36.612 12.2563 36.6155 12.2485C36.6193 12.2396 36.6287 12.2223 36.6464 12.2031C36.6642 12.1837 36.6829 12.1706 36.697 12.1631L37.0486 12.8256L37.4003 13.488C37.9891 13.1755 38.1429 12.5762 38.1208 12.0559L37.3715 12.0878ZM37.0486 12.8256L36.697 12.1631C36.4294 12.3051 36.1781 12.4669 35.9438 12.6487L36.4036 13.2412L36.8634 13.8337C37.0273 13.7066 37.2059 13.5912 37.4003 13.488L37.0486 12.8256ZM36.4036 13.2412L35.9438 12.6487C35.7008 12.8373 35.4814 13.0505 35.2864 13.2877L35.8657 13.764L36.445 14.2403C36.5691 14.0895 36.7082 13.9541 36.8634 13.8337L36.4036 13.2412ZM35.8657 13.764L35.2864 13.2877C35.269 13.3088 35.2198 13.3596 35.0518 13.3859L35.1679 14.1269L35.284 14.8678C35.7274 14.7984 36.1433 14.6073 36.445 14.2403L35.8657 13.764ZM35.1679 14.1269L35.0518 13.3859C34.797 13.4258 34.5384 13.5208 34.3163 13.7038C34.0907 13.8897 33.9466 14.1307 33.8685 14.3893L34.5865 14.6061L35.3045 14.8228C35.3071 14.814 35.3073 14.8173 35.3008 14.8274C35.2939 14.8382 35.2834 14.8505 35.2703 14.8614C35.2642 14.8664 35.2587 14.8701 35.2543 14.8727C35.2522 14.874 35.2505 14.8749 35.2494 14.8755C35.2482 14.876 35.2475 14.8763 35.2475 14.8763C35.2476 14.8763 35.2583 14.8719 35.284 14.8678L35.1679 14.1269ZM34.5865 14.6061L33.8685 14.3893C33.8146 14.5678 33.7402 14.6931 33.6567 14.7844L34.2102 15.2905L34.7638 15.7965C35.0179 15.5185 35.1944 15.1875 35.3045 14.8228L34.5865 14.6061ZM34.2102 15.2905L33.6567 14.7844C33.6152 14.8298 33.5375 14.887 33.3673 14.9213L33.5156 15.6565L33.6639 16.3917C34.0822 16.3074 34.4675 16.1206 34.7638 15.7965L34.2102 15.2905ZM33.5156 15.6565L33.3673 14.9213C33.083 14.9787 32.8013 15.1181 32.5922 15.3782C32.3894 15.6306 32.3115 15.9264 32.2945 16.1976L33.043 16.2446L33.7915 16.2915C33.7954 16.23 33.8067 16.2615 33.7614 16.3179C33.7393 16.3454 33.7133 16.3662 33.6896 16.3796C33.6675 16.3921 33.6559 16.3933 33.6639 16.3917L33.5156 15.6565ZM33.043 16.2446L32.2945 16.1976C32.289 16.2844 32.2726 16.3126 32.2747 16.3087C32.2761 16.3062 32.2805 16.2991 32.2887 16.2909C32.2969 16.2826 32.3041 16.2779 32.3071 16.2763L32.6702 16.9325L33.0334 17.5887C33.5482 17.3038 33.7597 16.7983 33.7915 16.2915L33.043 16.2446ZM32.6702 16.9325L32.3071 16.2763C32.0891 16.3969 31.8668 16.5137 31.6404 16.6265L31.9749 17.2978L32.3094 17.9691C32.5549 17.8467 32.7962 17.7199 33.0334 17.5887L32.6702 16.9325ZM31.9749 17.2978L31.6404 16.6265C31.5129 16.69 31.348 16.7801 31.2182 16.9009C31.1601 16.955 31.0259 17.0896 30.9655 17.3053C30.8837 17.597 30.9751 17.889 31.1699 18.0838L31.7002 17.5534L32.2305 17.0231C32.299 17.0916 32.3722 17.1944 32.4103 17.3333C32.449 17.474 32.4391 17.6056 32.4098 17.7101C32.359 17.8914 32.2526 17.9873 32.2402 17.9989C32.2021 18.0344 32.2009 18.0231 32.3094 17.9691L31.9749 17.2978ZM31.7002 17.5534L31.1699 18.0838C31.165 18.0789 31.1551 18.0688 31.1426 18.0544C31.1323 18.0426 31.1076 18.0134 31.0809 17.9715C31.068 17.9512 30.987 17.8284 30.9691 17.6464C30.9587 17.5395 30.9668 17.3754 31.0619 17.2066C31.1606 17.0315 31.3079 16.9309 31.433 16.8803C31.636 16.7982 31.8116 16.8322 31.8352 16.8362C31.891 16.8457 31.9323 16.8595 31.9483 16.8651C31.9682 16.872 31.9829 16.8782 31.9899 16.8812C31.9977 16.8846 32.0029 16.8871 32.0047 16.888C32.0078 16.8895 31.9965 16.8839 31.963 16.8647C31.9325 16.8471 31.8918 16.823 31.84 16.7914L31.4499 17.432L31.0598 18.0725C31.1663 18.1374 31.2713 18.1993 31.3499 18.2375C31.3699 18.2472 31.4088 18.2656 31.456 18.282C31.4783 18.2897 31.5247 18.305 31.5844 18.3151C31.6121 18.3198 31.7907 18.3537 31.9956 18.2708C32.1217 18.2198 32.2697 18.1187 32.3688 17.9428C32.4643 17.7733 32.4726 17.6082 32.462 17.5003C32.444 17.316 32.3617 17.1902 32.3464 17.1663C32.2971 17.0888 32.2425 17.035 32.2305 17.0231L31.7002 17.5534Z" fill="#030302"/>
<path d="M12.2661 35.4197L11.8294 34.8099L12.2661 35.4197ZM15.6388 32.4284L15.0178 32.0078L15.6388 32.4284ZM16.068 31.7969L16.6876 32.2195L16.068 31.7969ZM16.4516 31.1198L17.1314 31.4366L16.4516 31.1198ZM15.1277 34.7457L14.7761 34.0833L15.1277 34.7457ZM12.2893 37.2106L12.8429 37.7167V37.7167L12.2893 37.2106ZM9.52902 39.3522L9.91915 38.7116C9.90534 38.7032 9.92816 38.7144 9.96226 38.7529C9.99846 38.7938 10.0594 38.88 10.083 39.0114C10.1079 39.1499 10.0794 39.2726 10.0383 39.3583C10.0019 39.4344 9.96112 39.4715 9.95732 39.475L9.45157 38.9212L8.94582 38.3673C8.78356 38.5155 8.52666 38.8313 8.60668 39.2767C8.67819 39.6746 8.97702 39.8941 9.13888 39.9927L9.52902 39.3522ZM9.45157 38.9212L9.95732 39.475C10.2545 39.2036 10.4374 38.8513 10.5411 38.4729L9.81781 38.2747L9.09449 38.0764C9.04608 38.253 8.98485 38.3317 8.94582 38.3673L9.45157 38.9212ZM9.81781 38.2747L10.5411 38.4729C10.6005 38.2563 10.6793 38.0755 10.7725 37.9246L10.1344 37.5306L9.49623 37.1365C9.31947 37.4227 9.18723 37.7381 9.09449 38.0764L9.81781 38.2747ZM10.1344 37.5306L10.7725 37.9246C10.8137 37.8579 10.8724 37.8033 10.9854 37.7611L10.723 37.0585L10.4605 36.3559C10.0587 36.506 9.72501 36.766 9.49623 37.1365L10.1344 37.5306ZM10.723 37.0585L10.9854 37.7611C11.329 37.6327 11.6379 37.4462 11.8991 37.1955L11.3796 36.6545L10.8601 36.1135C10.7606 36.2091 10.6317 36.292 10.4605 36.3559L10.723 37.0585ZM11.3796 36.6545L11.8991 37.1955C12.1615 36.9434 12.3597 36.6409 12.4982 36.3007L11.8036 36.0178L11.109 35.735C11.0429 35.8972 10.9584 36.0191 10.8601 36.1135L11.3796 36.6545ZM11.8036 36.0178L12.4982 36.3007C12.5511 36.1709 12.6201 36.0886 12.7028 36.0294L12.2661 35.4197L11.8294 34.8099C11.5001 35.0457 11.2608 35.3623 11.109 35.735L11.8036 36.0178ZM12.2661 35.4197L12.7028 36.0294C12.8021 35.9583 12.9458 35.8935 13.1576 35.8553L13.0243 35.1172L12.8911 34.3792C12.5039 34.4491 12.1422 34.5859 11.8294 34.8099L12.2661 35.4197ZM13.0243 35.1172L13.1576 35.8553C13.4516 35.8022 13.7476 35.6597 13.9601 35.3809C14.1638 35.1137 14.228 34.8034 14.233 34.5291L13.4831 34.5154L12.7333 34.5016C12.7319 34.5745 12.7165 34.5381 12.7672 34.4716C12.7926 34.4382 12.8238 34.4124 12.8536 34.3957C12.8813 34.38 12.8975 34.378 12.8911 34.3792L13.0243 35.1172ZM13.4831 34.5154L14.233 34.5291C14.2347 34.4341 14.2514 34.4077 14.246 34.4185C14.2427 34.425 14.2351 34.4372 14.2221 34.4504C14.2091 34.4636 14.1967 34.4717 14.1893 34.4756L13.8402 33.8118L13.4911 33.148C12.9382 33.4388 12.7427 33.9837 12.7333 34.5016L13.4831 34.5154ZM13.8402 33.8118L14.1893 34.4756C14.5738 34.2734 14.8605 33.9619 15.0363 33.5673L14.3512 33.2621L13.6661 32.9569C13.624 33.0515 13.57 33.1065 13.4911 33.148L13.8402 33.8118ZM14.3512 33.2621L15.0363 33.5673C15.0389 33.5613 15.0393 33.5622 15.0357 33.5667C15.0319 33.5714 15.0274 33.5756 15.0237 33.5782C15.0157 33.5839 15.0298 33.5701 15.0921 33.5598L14.9696 32.8199L14.8471 32.0799C14.3381 32.1642 13.8942 32.4449 13.6661 32.9569L14.3512 33.2621ZM14.9696 32.8199L15.0921 33.5598C15.553 33.4835 15.9782 33.2647 16.2598 32.8489L15.6388 32.4284L15.0178 32.0078C15.0139 32.0136 14.993 32.0558 14.8471 32.0799L14.9696 32.8199ZM15.6388 32.4284L16.2598 32.8489C16.4021 32.6388 16.5447 32.429 16.6876 32.2195L16.068 31.7969L15.4484 31.3743C15.3045 31.5851 15.161 31.7963 15.0178 32.0078L15.6388 32.4284ZM16.068 31.7969L16.6876 32.2195C16.8549 31.9742 17.0026 31.7129 17.1314 31.4366L16.4516 31.1198L15.7717 30.8031C15.6758 31.0091 15.5678 31.1992 15.4484 31.3743L16.068 31.7969ZM16.4516 31.1198L17.1314 31.4366C17.1298 31.4401 17.1199 31.461 17.0979 31.4906C17.0762 31.5199 17.0339 31.5694 16.9644 31.6164C16.8912 31.666 16.7935 31.7084 16.6769 31.721C16.5613 31.7335 16.4608 31.713 16.3857 31.6844C16.3141 31.657 16.2665 31.623 16.2426 31.6038C16.2181 31.584 16.2062 31.5698 16.206 31.5696C16.2052 31.5686 16.2106 31.5749 16.2216 31.5916C16.2324 31.6079 16.2465 31.6309 16.2638 31.6621L16.9197 31.2983L17.5756 30.9346C17.5123 30.8205 17.438 30.7032 17.3502 30.5996C17.2709 30.5061 17.1304 30.363 16.9201 30.2828C16.6609 30.1839 16.3669 30.2095 16.1236 30.3742C15.927 30.5073 15.8242 30.6905 15.7717 30.8031L16.4516 31.1198ZM16.9197 31.2983L16.2638 31.6621C16.4658 32.0262 16.6341 32.3179 16.7668 32.5317L17.404 32.1362L18.0412 31.7407C17.9277 31.5577 17.7731 31.2908 17.5756 30.9346L16.9197 31.2983ZM17.404 32.1362L16.7668 32.5317C16.7618 32.5236 16.7293 32.4702 16.7164 32.3783C16.7017 32.2738 16.7169 32.1476 16.7813 32.0296C16.8405 31.9211 16.916 31.8657 16.9496 31.8448C16.9822 31.8246 16.9952 31.8241 16.9695 31.8315L17.1769 32.5523L17.3843 33.273C17.5721 33.219 17.911 33.0907 18.0979 32.7484C18.3211 32.3394 18.1706 31.949 18.0412 31.7407L17.404 32.1362ZM17.1769 32.5523L16.9695 31.8315C16.5167 31.9618 16.1427 32.2417 15.9182 32.6746L16.5839 33.02L17.2497 33.3653C17.2666 33.3326 17.2879 33.3007 17.3843 33.273L17.1769 32.5523ZM16.5839 33.02L15.9182 32.6746C15.9186 32.6738 15.922 32.6677 15.9294 32.6599C15.9368 32.6521 15.9437 32.6472 15.9472 32.6452C15.9534 32.6416 15.9301 32.6575 15.8499 32.6644L15.9149 33.4116L15.9799 34.1588C16.4892 34.1145 16.9809 33.8834 17.2497 33.3653L16.5839 33.02ZM15.9149 33.4116L15.8499 32.6644C15.5444 32.691 15.2038 32.812 14.9631 33.1212C14.7354 33.4137 14.6893 33.7583 14.7013 34.0398L15.4506 34.0079L16.1999 33.9761C16.1962 33.8883 16.2197 33.9489 16.1467 34.0427C16.1094 34.0906 16.0639 34.1237 16.0237 34.1428C15.9871 34.16 15.9676 34.1599 15.9799 34.1588L15.9149 33.4116ZM15.4506 34.0079L14.7013 34.0398C14.7035 34.0931 14.7007 34.1291 14.6975 34.1509C14.6943 34.1725 14.6912 34.1765 14.6946 34.1687C14.6984 34.1598 14.7078 34.1425 14.7255 34.1233C14.7433 34.1039 14.762 34.0908 14.7761 34.0833L15.1277 34.7457L15.4794 35.4082C16.0682 35.0956 16.222 34.4963 16.1999 33.9761L15.4506 34.0079ZM15.1277 34.7457L14.7761 34.0833C14.5085 34.2253 14.2572 34.387 14.0229 34.5689L14.4827 35.1614L14.9425 35.7539C15.1064 35.6267 15.285 35.5114 15.4794 35.4082L15.1277 34.7457ZM14.4827 35.1614L14.0229 34.5689C13.7799 34.7574 13.5605 34.9706 13.3655 35.2078L13.9448 35.6842L14.5242 36.1605C14.6482 36.0096 14.7873 35.8743 14.9425 35.7539L14.4827 35.1614ZM13.9448 35.6842L13.3655 35.2078C13.3481 35.2289 13.2989 35.2798 13.1309 35.3061L13.247 36.047L13.3631 36.788C13.8065 36.7185 14.2224 36.5274 14.5242 36.1605L13.9448 35.6842ZM13.247 36.047L13.1309 35.3061C12.8761 35.346 12.6175 35.441 12.3954 35.624C12.1698 35.8099 12.0257 36.0508 11.9476 36.3095L12.6656 36.5262L13.3836 36.743C13.3862 36.7341 13.3864 36.7374 13.3799 36.7476C13.373 36.7584 13.3625 36.7707 13.3494 36.7815C13.3433 36.7866 13.3378 36.7903 13.3334 36.7929C13.3313 36.7941 13.3296 36.795 13.3285 36.7956C13.3273 36.7962 13.3266 36.7965 13.3266 36.7965C13.3267 36.7964 13.3374 36.792 13.3631 36.788L13.247 36.047ZM12.6656 36.5262L11.9476 36.3095C11.8937 36.4879 11.8193 36.6132 11.7358 36.7046L12.2893 37.2106L12.8429 37.7167C13.097 37.4386 13.2735 37.1077 13.3836 36.743L12.6656 36.5262ZM12.2893 37.2106L11.7358 36.7046C11.6943 36.7499 11.6166 36.8072 11.4464 36.8415L11.5947 37.5767L11.743 38.3119C12.1613 38.2275 12.5466 38.0407 12.8429 37.7167L12.2893 37.2106ZM11.5947 37.5767L11.4464 36.8415C11.1621 36.8989 10.8804 37.0383 10.6713 37.2983C10.4685 37.5507 10.3906 37.8466 10.3736 38.1177L11.1221 38.1647L11.8706 38.2117C11.8745 38.1502 11.8858 38.1817 11.8405 38.2381C11.8184 38.2656 11.7924 38.2864 11.7687 38.2998C11.7466 38.3123 11.735 38.3135 11.743 38.3119L11.5947 37.5767ZM11.1221 38.1647L10.3736 38.1177C10.3681 38.2045 10.3517 38.2327 10.3538 38.2289C10.3552 38.2264 10.3596 38.2193 10.3678 38.211C10.376 38.2028 10.3832 38.1981 10.3862 38.1964L10.7493 38.8526L11.1125 39.5089C11.6273 39.224 11.8388 38.7184 11.8706 38.2117L11.1221 38.1647ZM10.7493 38.8526L10.3862 38.1964C10.1682 38.3171 9.94594 38.4338 9.71949 38.5467L10.054 39.2179L10.3885 39.8892C10.634 39.7669 10.8753 39.6401 11.1125 39.5089L10.7493 38.8526ZM10.054 39.2179L9.71949 38.5467C9.59197 38.6102 9.42709 38.7003 9.29735 38.8211C9.23918 38.8752 9.10505 39.0098 9.04458 39.2255C8.96283 39.5172 9.05422 39.8092 9.24899 40.0039L9.77932 39.4736L10.3096 38.9433C10.3781 39.0117 10.4513 39.1146 10.4894 39.2535C10.5281 39.3941 10.5182 39.5258 10.4889 39.6303C10.4381 39.8115 10.3317 39.9075 10.3193 39.919C10.2812 39.9546 10.28 39.9433 10.3885 39.8892L10.054 39.2179ZM9.77932 39.4736L9.24899 40.0039C9.24413 39.9991 9.23417 39.9889 9.2217 39.9746C9.2114 39.9627 9.18667 39.9336 9.15998 39.8917C9.14709 39.8714 9.06606 39.7486 9.04824 39.5666C9.03778 39.4597 9.04592 39.2956 9.14098 39.1268C9.23965 38.9516 9.38701 38.8511 9.51211 38.8005C9.71509 38.7184 9.89073 38.7524 9.91434 38.7564C9.97008 38.7658 10.0114 38.7797 10.0274 38.7852C10.0473 38.7922 10.062 38.7983 10.069 38.8014C10.0768 38.8048 10.082 38.8073 10.0838 38.8081C10.0869 38.8096 10.0756 38.8041 10.0421 38.7848C10.0116 38.7673 9.97094 38.7432 9.91915 38.7116L9.52902 39.3522L9.13888 39.9927C9.24543 40.0576 9.35038 40.1195 9.42897 40.1576C9.44896 40.1673 9.48789 40.1857 9.53515 40.2022C9.55738 40.2099 9.60376 40.2251 9.66354 40.2353C9.6912 40.2399 9.86981 40.2739 10.0747 40.191C10.2008 40.14 10.3488 40.0389 10.4479 39.863C10.5434 39.6935 10.5517 39.5284 10.5411 39.4204C10.5231 39.2362 10.4408 39.1104 10.4255 39.0864C10.3762 39.0089 10.3216 38.9552 10.3096 38.9433L9.77932 39.4736Z" fill="#030302"/>
<path d="M34.5054 34.1824L35.1151 33.7457L34.5054 34.1824ZM37.4967 37.555L37.9172 36.934L37.4967 37.555ZM38.1282 37.9842L37.7055 38.6038L38.1282 37.9842ZM38.8052 38.3678L38.4885 39.0477L38.8052 38.3678ZM35.1793 37.044L35.8417 36.6923L35.1793 37.044ZM32.7144 34.2056L32.2084 34.7591V34.7591L32.7144 34.2056ZM30.5729 31.4453L31.2134 31.8354C31.2219 31.8216 31.2107 31.8444 31.1721 31.8785C31.1312 31.9147 31.045 31.9757 30.9137 31.9993C30.7751 32.0242 30.6525 31.9956 30.5667 31.9546C30.4906 31.9181 30.4535 31.8774 30.4501 31.8736L31.0039 31.3678L31.5577 30.8621C31.4095 30.6998 31.0937 30.4429 30.6484 30.5229C30.2504 30.5944 30.0309 30.8933 29.9324 31.0551L30.5729 31.4453ZM31.0039 31.3678L30.4501 31.8736C30.7214 32.1707 31.0738 32.3537 31.4521 32.4574L31.6504 31.7341L31.8487 31.0107C31.672 30.9623 31.5934 30.9011 31.5577 30.8621L31.0039 31.3678ZM31.6504 31.7341L31.4521 32.4574C31.6688 32.5168 31.8495 32.5956 32.0004 32.6888L32.3945 32.0506L32.7886 31.4125C32.5023 31.2357 32.187 31.1035 31.8487 31.0107L31.6504 31.7341ZM32.3945 32.0506L32.0004 32.6888C32.0671 32.7299 32.1218 32.7886 32.164 32.9016L32.8666 32.6392L33.5692 32.3768C33.4191 31.975 33.159 31.6413 32.7886 31.4125L32.3945 32.0506ZM32.8666 32.6392L32.164 32.9016C32.2923 33.2453 32.4788 33.5542 32.7296 33.8153L33.2706 33.2959L33.8115 32.7764C33.7159 32.6768 33.6331 32.5479 33.5692 32.3768L32.8666 32.6392ZM33.2706 33.2959L32.7296 33.8153C32.9816 34.0778 33.2841 34.2759 33.6244 34.4145L33.9072 33.7199L34.1901 33.0253C34.0278 32.9592 33.9059 32.8747 33.8115 32.7764L33.2706 33.2959ZM33.9072 33.7199L33.6244 34.4145C33.7541 34.4673 33.8364 34.5363 33.8956 34.6191L34.5054 34.1824L35.1151 33.7457C34.8793 33.4164 34.5628 33.177 34.1901 33.0253L33.9072 33.7199ZM34.5054 34.1824L33.8956 34.6191C33.9667 34.7183 34.0315 34.8621 34.0697 35.0739L34.8078 34.9406L35.5459 34.8074C35.476 34.4201 35.3391 34.0584 35.1151 33.7457L34.5054 34.1824ZM34.8078 34.9406L34.0697 35.0739C34.1228 35.3679 34.2653 35.6638 34.5442 35.8764C34.8113 36.08 35.1216 36.1442 35.3959 36.1493L35.4097 35.3994L35.4234 34.6495C35.3506 34.6482 35.387 34.6327 35.4535 34.6834C35.4869 34.7089 35.5127 34.7401 35.5294 34.7698C35.545 34.7976 35.547 34.8137 35.5459 34.8074L34.8078 34.9406ZM35.4097 35.3994L35.3959 36.1493C35.491 36.151 35.5173 36.1677 35.5065 36.1622C35.5 36.1589 35.4879 36.1514 35.4747 36.1384C35.4615 36.1254 35.4534 36.113 35.4495 36.1056L36.1133 35.7565L36.7771 35.4073C36.4862 34.8544 35.9414 34.659 35.4234 34.6495L35.4097 35.3994ZM36.1133 35.7565L35.4495 36.1056C35.6517 36.49 35.9631 36.7768 36.3578 36.9525L36.663 36.2674L36.9681 35.5823C36.8736 35.5402 36.8186 35.4863 36.7771 35.4073L36.1133 35.7565ZM36.663 36.2674L36.3578 36.9525C36.3637 36.9552 36.3628 36.9556 36.3583 36.9519C36.3536 36.9482 36.3495 36.9436 36.3469 36.94C36.3412 36.932 36.3549 36.9461 36.3652 37.0084L37.1052 36.8859L37.8451 36.7634C37.7609 36.2544 37.4802 35.8104 36.9681 35.5823L36.663 36.2674ZM37.1052 36.8859L36.3652 37.0084C36.4415 37.4692 36.6603 37.8944 37.0761 38.176L37.4967 37.555L37.9172 36.934C37.9114 36.9301 37.8692 36.9092 37.8451 36.7634L37.1052 36.8859ZM37.4967 37.555L37.0761 38.176C37.2862 38.3183 37.496 38.4609 37.7055 38.6038L38.1282 37.9842L38.5508 37.3646C38.3399 37.2208 38.1287 37.0773 37.9172 36.934L37.4967 37.555ZM38.1282 37.9842L37.7055 38.6038C37.9508 38.7711 38.2121 38.9189 38.4885 39.0477L38.8052 38.3678L39.122 37.688C38.916 37.592 38.7259 37.4841 38.5508 37.3646L38.1282 37.9842ZM38.8052 38.3678L38.4885 39.0477C38.485 39.046 38.464 39.0361 38.4344 39.0141C38.4052 38.9924 38.3556 38.9501 38.3086 38.8807C38.259 38.8074 38.2166 38.7098 38.204 38.5932C38.1915 38.4775 38.212 38.3771 38.2407 38.3019C38.268 38.2303 38.302 38.1828 38.3213 38.1588C38.3411 38.1343 38.3552 38.1225 38.3555 38.1223C38.3564 38.1215 38.3501 38.1269 38.3335 38.1379C38.3172 38.1487 38.2941 38.1628 38.263 38.1801L38.6267 38.836L38.9904 39.4919C39.1046 39.4286 39.2219 39.3543 39.3255 39.2665C39.419 39.1872 39.5621 39.0467 39.6423 38.8363C39.7411 38.5771 39.7155 38.2832 39.5508 38.0399C39.4177 37.8433 39.2346 37.7405 39.122 37.688L38.8052 38.3678ZM38.6267 38.836L38.263 38.1801C37.8988 38.382 37.6071 38.5503 37.3933 38.683L37.7889 39.3203L38.1844 39.9575C38.3673 39.844 38.6342 39.6894 38.9904 39.4919L38.6267 38.836ZM37.7889 39.3203L37.3933 38.683C37.4014 38.678 37.4548 38.6456 37.5468 38.6326C37.6513 38.618 37.7774 38.6331 37.8954 38.6975C38.0039 38.7568 38.0594 38.8323 38.0802 38.8659C38.1005 38.8984 38.101 38.9115 38.0935 38.8857L37.3728 39.0931L36.652 39.3005C36.7061 39.4883 36.8343 39.8272 37.1767 40.0141C37.5856 40.2374 37.976 40.0868 38.1844 39.9575L37.7889 39.3203ZM37.3728 39.0931L38.0935 38.8857C37.9633 38.433 37.6834 38.059 37.2504 37.8344L36.9051 38.5002L36.5597 39.1659C36.5924 39.1829 36.6243 39.2042 36.652 39.3005L37.3728 39.0931ZM36.9051 38.5002L37.2504 37.8344C37.2513 37.8349 37.2573 37.8383 37.2651 37.8456C37.273 37.853 37.2778 37.86 37.2798 37.8634C37.2835 37.8697 37.2676 37.8463 37.2606 37.7661L36.5134 37.8312L35.7663 37.8962C35.8106 38.4055 36.0416 38.8972 36.5597 39.1659L36.9051 38.5002ZM36.5134 37.8312L37.2606 37.7661C37.234 37.4607 37.113 37.1201 36.8039 36.8794C36.5114 36.6516 36.1667 36.6056 35.8852 36.6175L35.9171 37.3669L35.949 38.1162C36.0367 38.1124 35.9761 38.1359 35.8824 38.0629C35.8345 38.0256 35.8013 37.9801 35.7823 37.9399C35.765 37.9034 35.7652 37.8839 35.7663 37.8962L36.5134 37.8312ZM35.9171 37.3669L35.8852 36.6175C35.832 36.6198 35.796 36.617 35.7741 36.6137C35.7525 36.6105 35.7486 36.6074 35.7564 36.6108C35.7652 36.6147 35.7826 36.6241 35.8018 36.6418C35.8212 36.6596 35.8343 36.6783 35.8417 36.6923L35.1793 37.044L34.5169 37.3957C34.8294 37.9844 35.4287 38.1383 35.949 38.1162L35.9171 37.3669ZM35.1793 37.044L35.8417 36.6923C35.6997 36.4248 35.538 36.1734 35.3562 35.9391L34.7637 36.399L34.1712 36.8588C34.2983 37.0226 34.4137 37.2013 34.5169 37.3957L35.1793 37.044ZM34.7637 36.399L35.3562 35.9391C35.1676 35.6962 34.9544 35.4768 34.7172 35.2817L34.2409 35.8611L33.7646 36.4404C33.9154 36.5644 34.0507 36.7036 34.1712 36.8588L34.7637 36.399ZM34.2409 35.8611L34.7172 35.2817C34.6961 35.2644 34.6453 35.2151 34.619 35.0472L33.878 35.1633L33.1371 35.2794C33.2065 35.7228 33.3976 36.1387 33.7646 36.4404L34.2409 35.8611ZM33.878 35.1633L34.619 35.0472C34.579 34.7923 34.4841 34.5338 34.3011 34.3117C34.1151 34.0861 33.8742 33.9419 33.6156 33.8638L33.3988 34.5818L33.1821 35.2998C33.1909 35.3025 33.1876 35.3026 33.1775 35.2961C33.1667 35.2892 33.1543 35.2788 33.1435 35.2657C33.1385 35.2595 33.1347 35.254 33.1322 35.2497C33.1309 35.2476 33.13 35.2459 33.1294 35.2447C33.1288 35.2435 33.1286 35.2429 33.1286 35.2429C33.1286 35.243 33.133 35.2537 33.1371 35.2794L33.878 35.1633ZM33.3988 34.5818L33.6156 33.8638C33.4371 33.81 33.3118 33.7355 33.2205 33.652L32.7144 34.2056L32.2084 34.7591C32.4864 35.0133 32.8174 35.1897 33.1821 35.2998L33.3988 34.5818ZM32.7144 34.2056L33.2205 33.652C33.1751 33.6106 33.1179 33.5328 33.0835 33.3627L32.3483 33.511L31.6132 33.6593C31.6975 34.0776 31.8843 34.4629 32.2084 34.7591L32.7144 34.2056ZM32.3483 33.511L33.0835 33.3627C33.0262 33.0784 32.8868 32.7966 32.6267 32.5876C32.3743 32.3847 32.0785 32.3068 31.8073 32.2898L31.7603 33.0383L31.7133 33.7869C31.7749 33.7907 31.7434 33.8021 31.687 33.7567C31.6595 33.7346 31.6387 33.7086 31.6253 33.685C31.6128 33.6629 31.6115 33.6513 31.6132 33.6593L32.3483 33.511ZM31.7603 33.0383L31.8073 32.2898C31.7205 32.2844 31.6923 32.268 31.6961 32.2701C31.6986 32.2714 31.7057 32.2758 31.714 32.284C31.7223 32.2923 31.727 32.2995 31.7286 32.3025L31.0724 32.6656L30.4162 33.0287C30.701 33.5435 31.2066 33.7551 31.7133 33.7869L31.7603 33.0383ZM31.0724 32.6656L31.7286 32.3025C31.608 32.0844 31.4912 31.8622 31.3784 31.6357L30.7071 31.9702L30.0358 32.3047C30.1582 32.5502 30.2849 32.7916 30.4162 33.0287L31.0724 32.6656ZM30.7071 31.9702L31.3784 31.6357C31.3148 31.5082 31.2247 31.3433 31.104 31.2136C31.0498 31.1554 30.9153 31.0213 30.6996 30.9608C30.4079 30.8791 30.1159 30.9705 29.9211 31.1652L30.4514 31.6956L30.9818 32.2259C30.9133 32.2944 30.8105 32.3675 30.6716 32.4057C30.5309 32.4444 30.3993 32.4345 30.2947 32.4052C30.1135 32.3544 30.0175 32.248 30.006 32.2356C29.9705 32.1974 29.9818 32.1963 30.0358 32.3047L30.7071 31.9702ZM30.4514 31.6956L29.9211 31.1652C29.926 31.1604 29.9361 31.1504 29.9505 31.138C29.9623 31.1277 29.9914 31.1029 30.0334 31.0762C30.0536 31.0633 30.1764 30.9823 30.3585 30.9645C30.4653 30.954 30.6295 30.9622 30.7982 31.0572C30.9734 31.1559 31.0739 31.3033 31.1246 31.4284C31.2067 31.6313 31.1727 31.807 31.1687 31.8306C31.1592 31.8863 31.1454 31.9276 31.1398 31.9437C31.1329 31.9636 31.1267 31.9782 31.1237 31.9853C31.1203 31.9931 31.1178 31.9983 31.1169 32.0001C31.1154 32.0032 31.121 31.9918 31.1402 31.9584C31.1578 31.9278 31.1819 31.8872 31.2134 31.8354L30.5729 31.4453L29.9324 31.0551C29.8675 31.1617 29.8055 31.2666 29.7674 31.3452C29.7577 31.3652 29.7393 31.4042 29.7229 31.4514C29.7152 31.4736 29.6999 31.52 29.6898 31.5798C29.6851 31.6075 29.6512 31.7861 29.7341 31.991C29.7851 32.117 29.8861 32.2651 30.0621 32.3642C30.2316 32.4596 30.3967 32.4679 30.5046 32.4574C30.6889 32.4393 30.8147 32.357 30.8386 32.3418C30.9161 32.2925 30.9699 32.2378 30.9818 32.2259L30.4514 31.6956Z" fill="#030302"/>
<path d="M12.5845 12.2619L13.1942 11.8253L12.5845 12.2619ZM15.5758 15.6346L15.9963 15.0136L15.5758 15.6346ZM16.2073 16.0638L15.7846 16.6834L16.2073 16.0638ZM16.8843 16.4474L16.5676 17.1272L16.8843 16.4474ZM13.2584 15.1236L13.9209 14.7719L13.2584 15.1236ZM10.7935 12.2852L10.2875 12.8387V12.8387L10.7935 12.2852ZM8.652 9.52486L9.29254 9.915C9.30095 9.90119 9.28975 9.92401 9.25122 9.95811C9.21031 9.99431 9.12414 10.0553 8.99276 10.0789C8.85425 10.1038 8.73159 10.0752 8.64583 10.0342C8.56974 9.99773 8.53265 9.95697 8.52918 9.95317L9.083 9.44742L9.63682 8.94167C9.48864 8.77941 9.17284 8.5225 8.72748 8.60253C8.32954 8.67404 8.11004 8.97287 8.01145 9.13473L8.652 9.52486ZM9.083 9.44742L8.52918 9.95317C8.80054 10.2503 9.15285 10.4333 9.53123 10.537L9.72949 9.81366L9.92776 9.09034C9.75115 9.04193 9.67246 8.9807 9.63682 8.94167L9.083 9.44742ZM9.72949 9.81366L9.53123 10.537C9.74788 10.5964 9.92862 10.6752 10.0795 10.7683L10.4736 10.1302L10.8677 9.49208C10.5814 9.31532 10.2661 9.18308 9.92776 9.09034L9.72949 9.81366ZM10.4736 10.1302L10.0795 10.7683C10.1462 10.8095 10.2009 10.8682 10.2431 10.9812L10.9457 10.7188L11.6483 10.4564C11.4982 10.0546 11.2381 9.72086 10.8677 9.49208L10.4736 10.1302ZM10.9457 10.7188L10.2431 10.9812C10.3714 11.3249 10.5579 11.6338 10.8087 11.8949L11.3497 11.3755L11.8906 10.856C11.795 10.7564 11.7122 10.6275 11.6483 10.4564L10.9457 10.7188ZM11.3497 11.3755L10.8087 11.8949C11.0607 12.1574 11.3632 12.3555 11.7035 12.4941L11.9863 11.7995L12.2692 11.1049C12.1069 11.0388 11.985 10.9543 11.8906 10.856L11.3497 11.3755ZM11.9863 11.7995L11.7035 12.4941C11.8332 12.5469 11.9155 12.6159 11.9747 12.6986L12.5845 12.2619L13.1942 11.8253C12.9584 11.4959 12.6419 11.2566 12.2692 11.1049L11.9863 11.7995ZM12.5845 12.2619L11.9747 12.6986C12.0458 12.7979 12.1106 12.9417 12.1488 13.1534L12.8869 13.0202L13.625 12.8869C13.5551 12.4997 13.4182 12.138 13.1942 11.8253L12.5845 12.2619ZM12.8869 13.0202L12.1488 13.1534C12.2019 13.4475 12.3444 13.7434 12.6233 13.956C12.8904 14.1596 13.2007 14.2238 13.475 14.2288L13.4888 13.479L13.5025 12.7291C13.4297 12.7278 13.4661 12.7123 13.5326 12.763C13.566 12.7885 13.5918 12.8197 13.6085 12.8494C13.6241 12.8772 13.6261 12.8933 13.625 12.8869L12.8869 13.0202ZM13.4888 13.479L13.475 14.2288C13.5701 14.2306 13.5964 14.2473 13.5856 14.2418C13.5791 14.2385 13.567 14.231 13.5538 14.218C13.5406 14.205 13.5325 14.1926 13.5286 14.1852L14.1924 13.8361L14.8562 13.4869C14.5653 12.934 14.0205 12.7386 13.5025 12.7291L13.4888 13.479ZM14.1924 13.8361L13.5286 14.1852C13.7308 14.5696 14.0422 14.8563 14.4369 15.0321L14.7421 14.347L15.0472 13.6619C14.9527 13.6198 14.8977 13.5659 14.8562 13.4869L14.1924 13.8361ZM14.7421 14.347L14.4369 15.0321C14.4428 15.0348 14.4419 15.0351 14.4374 15.0315C14.4327 15.0278 14.4286 15.0232 14.426 15.0196C14.4203 15.0116 14.434 15.0256 14.4443 15.088L15.1843 14.9655L15.9242 14.843C15.84 14.334 15.5593 13.89 15.0472 13.6619L14.7421 14.347ZM15.1843 14.9655L14.4443 15.088C14.5206 15.5488 14.7394 15.974 15.1552 16.2556L15.5758 15.6346L15.9963 15.0136C15.9905 15.0097 15.9483 14.9888 15.9242 14.843L15.1843 14.9655ZM15.5758 15.6346L15.1552 16.2556C15.3653 16.3979 15.5751 16.5405 15.7846 16.6834L16.2073 16.0638L16.6299 15.4442C16.419 15.3004 16.2078 15.1569 15.9963 15.0136L15.5758 15.6346ZM16.2073 16.0638L15.7846 16.6834C16.0299 16.8507 16.2912 16.9985 16.5676 17.1272L16.8843 16.4474L17.2011 15.7676C16.9951 15.6716 16.805 15.5636 16.6299 15.4442L16.2073 16.0638ZM16.8843 16.4474L16.5676 17.1272C16.5641 17.1256 16.5431 17.1157 16.5135 17.0937C16.4843 17.072 16.4347 17.0297 16.3877 16.9603C16.3381 16.887 16.2957 16.7893 16.2831 16.6728C16.2706 16.5571 16.2911 16.4567 16.3198 16.3815C16.3471 16.3099 16.3811 16.2624 16.4004 16.2384C16.4202 16.2139 16.4343 16.2021 16.4346 16.2019C16.4355 16.2011 16.4292 16.2064 16.4126 16.2175C16.3963 16.2283 16.3732 16.2424 16.3421 16.2597L16.7058 16.9156L17.0695 17.5715C17.1837 17.5082 17.301 17.4339 17.4046 17.346C17.4981 17.2668 17.6412 17.1263 17.7214 16.9159C17.8202 16.6567 17.7946 16.3628 17.6299 16.1195C17.4968 15.9229 17.3137 15.8201 17.2011 15.7676L16.8843 16.4474ZM16.7058 16.9156L16.3421 16.2597C15.9779 16.4616 15.6862 16.6299 15.4724 16.7626L15.868 17.3999L16.2635 18.0371C16.4464 17.9235 16.7133 17.769 17.0695 17.5715L16.7058 16.9156ZM15.868 17.3999L15.4724 16.7626C15.4805 16.7576 15.5339 16.7252 15.6259 16.7122C15.7304 16.6975 15.8565 16.7127 15.9745 16.7771C16.083 16.8363 16.1385 16.9119 16.1593 16.9455C16.1796 16.978 16.1801 16.9911 16.1726 16.9653L15.4519 17.1727L14.7311 17.3801C14.7852 17.5679 14.9134 17.9068 15.2558 18.0937C15.6647 18.3169 16.0551 18.1664 16.2635 18.0371L15.868 17.3999ZM15.4519 17.1727L16.1726 16.9653C16.0424 16.5126 15.7625 16.1386 15.3295 15.914L14.9842 16.5798L14.6388 17.2455C14.6715 17.2625 14.7034 17.2838 14.7311 17.3801L15.4519 17.1727ZM14.9842 16.5798L15.3295 15.914C15.3304 15.9144 15.3364 15.9179 15.3442 15.9252C15.3521 15.9326 15.3569 15.9396 15.3589 15.943C15.3626 15.9493 15.3467 15.9259 15.3397 15.8457L14.5925 15.9108L13.8454 15.9758C13.8897 16.4851 14.1207 16.9768 14.6388 17.2455L14.9842 16.5798ZM14.5925 15.9108L15.3397 15.8457C15.3131 15.5403 15.1921 15.1997 14.883 14.959C14.5905 14.7312 14.2458 14.6851 13.9643 14.6971L13.9962 15.4464L14.0281 16.1958C14.1158 16.192 14.0552 16.2155 13.9615 16.1425C13.9136 16.1052 13.8804 16.0597 13.8614 16.0195C13.8441 15.983 13.8443 15.9635 13.8454 15.9758L14.5925 15.9108ZM13.9962 15.4464L13.9643 14.6971C13.9111 14.6994 13.8751 14.6966 13.8532 14.6933C13.8316 14.6901 13.8277 14.687 13.8355 14.6904C13.8443 14.6943 13.8617 14.7037 13.8809 14.7214C13.9003 14.7392 13.9134 14.7579 13.9209 14.7719L13.2584 15.1236L12.596 15.4752C12.9085 16.064 13.5078 16.2179 14.0281 16.1958L13.9962 15.4464ZM13.2584 15.1236L13.9209 14.7719C13.7788 14.5044 13.6171 14.253 13.4353 14.0187L12.8428 14.4785L12.2503 14.9384C12.3774 15.1022 12.4928 15.2809 12.596 15.4752L13.2584 15.1236ZM12.8428 14.4785L13.4353 14.0187C13.2467 13.7758 13.0335 13.5564 12.7963 13.3613L12.32 13.9407L11.8437 14.52C11.9945 14.644 12.1298 14.7832 12.2503 14.9384L12.8428 14.4785ZM12.32 13.9407L12.7963 13.3613C12.7752 13.344 12.7244 13.2947 12.6981 13.1268L11.9571 13.2429L11.2162 13.359C11.2856 13.8024 11.4767 14.2183 11.8437 14.52L12.32 13.9407ZM11.9571 13.2429L12.6981 13.1268C12.6581 12.8719 12.5632 12.6134 12.3802 12.3913C12.1942 12.1657 11.9533 12.0215 11.6947 11.9434L11.4779 12.6614L11.2612 13.3794C11.27 13.3821 11.2667 13.3822 11.2566 13.3757C11.2458 13.3688 11.2334 13.3584 11.2226 13.3453C11.2176 13.3391 11.2138 13.3336 11.2113 13.3293C11.21 13.3272 11.2091 13.3255 11.2085 13.3243C11.2079 13.3231 11.2077 13.3225 11.2077 13.3225C11.2077 13.3226 11.2121 13.3333 11.2162 13.359L11.9571 13.2429ZM11.4779 12.6614L11.6947 11.9434C11.5162 11.8895 11.3909 11.8151 11.2996 11.7316L10.7935 12.2852L10.2875 12.8387C10.5655 13.0929 10.8965 13.2693 11.2612 13.3794L11.4779 12.6614ZM10.7935 12.2852L11.2996 11.7316C11.2542 11.6902 11.197 11.6124 11.1626 11.4423L10.4274 11.5906L9.69225 11.7389C9.77662 12.1572 9.96341 12.5425 10.2875 12.8387L10.7935 12.2852ZM10.4274 11.5906L11.1626 11.4423C11.1053 11.1579 10.9659 10.8762 10.7058 10.6672C10.4534 10.4643 10.1576 10.3864 9.88642 10.3694L9.83943 11.1179L9.79244 11.8665C9.85396 11.8703 9.82246 11.8816 9.76607 11.8363C9.73857 11.8142 9.71776 11.7882 9.7044 11.7646C9.69188 11.7424 9.69064 11.7309 9.69225 11.7389L10.4274 11.5906ZM9.83943 11.1179L9.88642 10.3694C9.79961 10.364 9.77142 10.3476 9.77524 10.3497C9.77774 10.351 9.78484 10.3554 9.79311 10.3636C9.8014 10.3718 9.80609 10.3791 9.80773 10.3821L9.15151 10.7452L8.49528 11.1083C8.78015 11.6231 9.2857 11.8346 9.79244 11.8665L9.83943 11.1179ZM9.15151 10.7452L9.80773 10.3821C9.68707 10.164 9.57032 9.94179 9.45748 9.71534L8.7862 10.0498L8.11493 10.3843C8.23726 10.6298 8.36404 10.8712 8.49528 11.1083L9.15151 10.7452ZM8.7862 10.0498L9.45748 9.71534C9.39394 9.58782 9.30385 9.42294 9.18309 9.2932C9.12895 9.23503 8.9944 9.1009 8.77866 9.04043C8.48698 8.95868 8.19498 9.05007 8.00021 9.24484L8.53054 9.77517L9.06087 10.3055C8.99241 10.374 8.88956 10.4471 8.75067 10.4853C8.61002 10.524 8.47837 10.5141 8.37385 10.4848C8.19263 10.434 8.09665 10.3276 8.08512 10.3152C8.04958 10.277 8.06089 10.2759 8.11493 10.3843L8.7862 10.0498ZM8.53054 9.77517L8.00021 9.24484C8.00508 9.23998 8.01523 9.23002 8.02956 9.21755C8.04142 9.20724 8.07054 9.18251 8.11248 9.15583C8.13274 9.14294 8.25555 9.06191 8.43759 9.04409C8.54444 9.03363 8.70858 9.04177 8.87735 9.13683C9.05252 9.2355 9.15304 9.38286 9.20365 9.50796C9.28578 9.71094 9.25178 9.88658 9.24778 9.91019C9.23833 9.96593 9.2245 10.0072 9.21892 10.0233C9.212 10.0432 9.20583 10.0578 9.20276 10.0649C9.19938 10.0727 9.1969 10.0778 9.19602 10.0797C9.19452 10.0827 9.20007 10.0714 9.21931 10.038C9.23687 10.0074 9.261 9.96679 9.29254 9.915L8.652 9.52486L8.01145 9.13473C7.94656 9.24128 7.88464 9.34622 7.84651 9.42482C7.83681 9.44481 7.81841 9.48374 7.802 9.531C7.79427 9.55323 7.77903 9.59961 7.76889 9.65939C7.7642 9.68705 7.73025 9.86566 7.81315 10.0706C7.86415 10.1966 7.96524 10.3447 8.14117 10.4438C8.31068 10.5392 8.47575 10.5475 8.58372 10.537C8.768 10.5189 8.89376 10.4366 8.91772 10.4214C8.99522 10.3721 9.04896 10.3174 9.06087 10.3055L8.53054 9.77517Z" fill="#030302"/>
</svg>
