<svg width="48" height="48" viewBox="0 0 48 48" fill="none" xmlns="http://www.w3.org/2000/svg">
<path d="M21.4153 4.40823L21.6838 5.10854L21.4153 4.40823ZM19.8994 4.40189L20.0381 5.13895L19.8994 4.40189ZM18.5098 5.00113L18.4233 4.25614L18.5098 5.00113ZM17.6968 4.91546L17.4855 5.63508L17.6968 4.91546ZM17.032 5.25594L17.7081 5.58052L17.032 5.25594ZM15.7572 6.07985L15.218 5.55848L15.7572 6.07985ZM14.2808 6.46789L13.8 5.89227L14.2808 6.46789ZM13.7043 6.967L13.2034 6.40881L13.7043 6.967ZM12.4238 7.75481L12.5627 7.01778L12.4238 7.75481ZM11.3542 8.80091L11.4912 9.53828L11.3542 8.80091ZM10.7386 9.2157L11.3855 9.59532L10.7386 9.2157ZM10.0515 9.588L9.99777 8.83992L10.0515 9.588ZM8.22839 11.9588L8.86621 12.3534L8.22839 11.9588ZM6.31992 14.3L6.67046 14.963L6.31992 14.3ZM6.04648 14.9964L6.77205 14.8066L6.04648 14.9964ZM5.92097 15.7757L6.49035 16.2638L5.92097 15.7757ZM4.53962 19.2398L3.91008 19.6475L4.53962 19.2398ZM4.40698 19.9939L3.98304 19.3752L4.40698 19.9939ZM4.49415 22.2492L3.74875 22.1663L4.49415 22.2492ZM4.01314 25.2113L4.75956 25.2845L4.01314 25.2113ZM3.96707 25.9699L3.21727 25.9523L3.96707 25.9699ZM6.05218 32.3515L5.34032 32.5877L6.05218 32.3515ZM6.58893 33.7506L7.2672 33.4306L6.58893 33.7506ZM7.00865 34.3687L7.55754 33.8576L7.00865 34.3687ZM7.53302 34.9166L6.99846 35.4426L7.53302 34.9166ZM8.00131 35.4942L8.62738 35.0812L8.00131 35.4942ZM8.4 36.1203L7.76103 36.513L8.4 36.1203ZM8.98414 37.5856L9.465 37.0101L8.98414 37.5856ZM10.8447 38.919L10.17 39.2467L10.8447 38.919ZM11.2712 39.5729L11.8395 39.0835L11.2712 39.5729ZM12.3684 40.6327L11.8751 41.1977L12.3684 40.6327ZM13.0176 41.0261L12.7437 41.7243L13.0176 41.0261ZM13.6896 41.386L14.1205 40.7721L13.6896 41.386ZM14.2903 41.8702L13.7832 42.4228L14.2903 41.8702ZM15.8794 42.0423L15.9429 41.295L15.8794 42.0423ZM16.5768 42.3078L16.1231 42.905L16.5768 42.3078ZM17.2243 42.6907L16.9218 43.377L17.2243 42.6907ZM17.9313 42.9234L17.7669 43.6552L17.9313 42.9234ZM20.05 43.6895L19.8442 42.9683L20.05 43.6895ZM21.5548 43.8095L21.6157 43.062L21.5548 43.8095ZM22.2988 43.9021L22.4227 43.1624V43.1624L22.2988 43.9021ZM23.0397 44.1341L23.3525 43.4524L23.0397 44.1341ZM23.7876 43.931L24.3147 44.4647L23.7876 43.931ZM24.5508 43.9596L24.0097 44.479L24.5508 43.9596ZM25.316 44.3174L25.4019 45.0625L25.316 44.3174ZM28.9928 43.349L28.6309 44.0059L28.9928 43.349ZM29.7687 43.3611L29.3276 42.7546L29.7687 43.3611ZM30.4785 43.083L30.3973 42.3374L30.4785 43.083ZM31.8505 42.4522L31.6565 41.7277L31.8505 42.4522ZM34.4531 40.9616L34.666 41.6808L34.4531 40.9616ZM35.1562 40.6715L34.7983 40.0124L35.1562 40.6715ZM37.652 38.9551L37.4334 38.2377L37.652 38.9551ZM38.1114 38.3525L38.8561 38.4412L38.1114 38.3525ZM38.443 37.6195L38.9513 38.171L38.443 37.6195ZM39.0714 37.1774L38.7179 36.5159L39.0714 37.1774ZM39.7239 36.7417L40.2015 37.3199L39.7239 36.7417ZM40.2087 36.1599L40.8643 36.5243L40.2087 36.1599ZM41.0004 33.9869L41.7005 34.2559L41.0004 33.9869ZM41.9518 32.8141L42.6695 32.5962L41.9518 32.8141ZM42.0399 32.0235L41.4516 31.5583L42.0399 32.0235ZM42.7657 30.7115L43.3645 31.1629L42.7657 30.7115ZM43.0254 30.0141L42.2769 29.9671L43.0254 30.0141ZM43.8431 23.3733L44.5444 23.6392L43.8431 23.3733ZM44.1043 21.8556L44.7452 21.4661L44.1043 21.8556ZM43.3927 18.9129L44.1417 18.9512L43.3927 18.9129ZM43.2038 17.3894L42.4546 17.4242L43.2038 17.3894ZM42.5148 16.027L41.7695 15.9435L42.5148 16.027ZM42 14.5955L41.3053 14.8782L42 14.5955ZM40.2876 13.0016L39.6686 13.425L40.2876 13.0016ZM40.0221 12.2783L39.279 12.3803L40.0221 12.2783ZM39.1623 11.0572L39.8851 10.8571L39.1623 11.0572ZM38.7346 10.4417L38.3102 11.0601L38.7346 10.4417ZM38.1538 9.95808L38.6866 9.43024L38.1538 9.95808ZM33.9902 6.8367L34.0767 7.58169L33.9902 6.8367ZM32.6935 6.09936L32.5882 5.35678L32.6935 6.09936ZM31.8948 6.05228L31.6714 6.76823L31.8948 6.05228ZM31.2253 5.74055L30.8224 6.37309L31.2253 5.74055ZM28.4747 4.59914L28.9608 4.02796L28.4747 4.59914ZM24.7727 4.40306L24.7093 3.65574L24.7727 4.40306ZM23.6289 42.8964L23.8305 42.174L23.6289 42.8964ZM22.8649 43.0529L22.4509 42.4275L22.8649 43.0529ZM18.3813 42.4313L18.8546 41.8496L18.3813 42.4313ZM17.789 41.8252L17.2002 42.2897L17.789 41.8252ZM17.07 41.5909L16.8861 40.8638L17.07 41.5909ZM15.6398 41.1439L15.0092 41.5499L15.6398 41.1439ZM13.2427 39.3291L13.5922 38.6655L13.2427 39.3291ZM12.0374 38.4722L12.5914 37.9667L12.0374 38.4722ZM10.0767 37.2785L9.40181 37.6057L10.0767 37.2785ZM9.83728 36.4807L10.5791 36.3701L9.83728 36.4807ZM9.46364 35.8158L9.90715 35.211L9.46364 35.8158ZM8.34079 34.792L8.62722 34.0988L8.34079 34.792ZM7.45971 32.7228L8.15917 32.4522L7.45971 32.7228ZM7.12361 32.0636L6.49365 32.4706L7.12361 32.0636ZM6.73428 31.4276L6.08531 31.8035L6.73428 31.4276ZM6.52086 30.7183L7.26916 30.6677L6.52086 30.7183ZM5.74633 29.4035L5.08177 29.7512L5.74633 29.4035ZM5.41475 28.7128L4.72786 29.014L5.41475 28.7128ZM5.0696 27.2372L5.7598 26.9438L5.0696 27.2372ZM5.1648 23.4769L5.86013 23.758L5.1648 23.4769ZM5.37053 22.7434L6.11158 22.859L5.37053 22.7434ZM5.22604 21.9814L5.89465 21.6416L5.22604 21.9814ZM5.22468 21.2358L4.57399 20.8628L5.22468 21.2358ZM5.41684 20.5053L6.16668 20.4896L5.41684 20.5053ZM5.5453 19.7718L6.24465 20.0427L5.5453 19.7718ZM6.02423 18.3576L6.67767 18.7258L6.02423 18.3576ZM6.35616 17.6856L7.04606 17.9797L6.35616 17.6856ZM7.07226 15.5698L6.47027 15.1224L7.07226 15.5698ZM8.08882 13.5693L7.81467 12.8712L8.08882 13.5693ZM8.62405 13.0192L7.90182 12.817L8.62405 13.0192ZM9.05842 12.419L9.47445 13.043L9.05842 12.419ZM9.80117 11.0783L9.39349 10.4488L9.80117 11.0783ZM10.584 10.7907L10.4624 10.0506L10.584 10.7907ZM11.1773 10.3238L11.884 10.5748V10.5748L11.1773 10.3238ZM11.6473 9.74439L11.278 9.09162L11.6473 9.74439ZM13.4872 8.49079L13.3867 7.74755L13.4872 8.49079ZM14.0592 7.99253L13.3552 7.73395L14.0592 7.99253ZM14.5837 7.42481L14.3392 6.71579L14.5837 7.42481ZM16.0275 6.9596L16.3495 7.63693L16.0275 6.9596ZM16.714 6.67827L16.4682 5.96972L16.714 6.67827ZM18.1434 6.28398L18.22 7.03006L18.1434 6.28398ZM20.2254 5.47241L20.4521 4.75751L20.2254 5.47241ZM20.9529 5.23379L20.3874 4.74116L20.9529 5.23379ZM23.1856 5.07094L22.9765 5.7912L23.1856 5.07094ZM23.9378 5.08263L24.129 5.80785L23.9378 5.08263ZM27.6712 5.27765L28.2705 4.82671L27.6712 5.27765ZM28.3291 5.79196L28.1067 6.5082L28.3291 5.79196ZM29.06 5.92841L29.0072 6.67655L29.06 5.92841ZM29.8382 5.93303L29.8793 6.6819L29.8382 5.93303ZM30.6098 5.99963L30.7842 5.27018L30.6098 5.99963ZM31.9515 6.69985L31.6362 7.38037L31.9515 6.69985ZM33.4321 7.1312L33.1722 7.83474L33.4321 7.1312ZM33.9726 7.69635L33.2795 7.98285L33.9726 7.69635ZM36.6071 9.24787L37.0736 8.66058L36.6071 9.24787ZM36.9185 10.0273L36.1686 10.0428L36.9185 10.0273ZM37.9411 11.1369L38.4513 10.5872L37.9411 11.1369ZM38.3254 11.7877L37.6024 11.9871L38.3254 11.7877ZM38.9227 12.2756L38.7829 13.0125L38.9227 12.2756ZM39.788 13.4808L40.5212 13.6385L39.788 13.4808ZM39.9237 14.2855L39.3633 14.7839L39.9237 14.2855ZM40.3219 14.904L39.6357 15.2067L40.3219 14.904ZM40.7995 15.4935L41.2547 14.8974L40.7995 15.4935ZM41.2193 16.1131L41.9471 15.9321L41.2193 16.1131ZM41.5826 16.7763L41.0315 17.2851L41.5826 16.7763ZM41.8404 17.4747L41.0908 17.4493L41.8404 17.4747ZM42.0721 18.1936L41.4808 18.6549L42.0721 18.1936ZM42.1999 19.6977L41.4519 19.7518L42.1999 19.6977ZM42.4947 20.3974L43.0747 19.9218L42.4947 20.3974ZM42.6689 21.1158L43.3984 21.2903L42.6689 21.1158ZM42.8953 21.8489L43.4424 21.3359L42.8953 21.8489ZM42.9724 22.5849L42.3337 22.1918L42.9724 22.5849ZM42.8968 24.0852L42.2757 23.6648L42.8968 24.0852ZM42.9736 24.8471L43.5475 24.3642L42.9736 24.8471ZM43.1493 26.3703L42.4363 26.1377L43.1493 26.3703ZM42.7491 27.0732L43.324 27.5549L42.7491 27.0732ZM42.4579 27.7846L41.7082 27.7619L42.4579 27.7846ZM42.269 28.5009L41.6046 28.1529L42.269 28.5009ZM41.9478 29.9651L41.2199 30.1455L41.9478 29.9651ZM41.5884 31.4206L41.2808 30.7366L41.5884 31.4206ZM40.9342 32.7845L41.545 33.2197L40.9342 32.7845ZM40.5563 33.438L39.8743 33.1261L40.5563 33.438ZM40.3065 34.1711L41.0361 34.3449L40.3065 34.1711ZM39.0722 36.0869L39.4939 36.7071L39.0722 36.0869ZM38.5678 36.6649L37.8952 36.3331L38.5678 36.6649ZM37.9173 37.0884L37.8082 36.3464L37.9173 37.0884ZM37.2212 37.4664L36.611 37.0304L37.2212 37.4664ZM36.6974 37.995L36.2567 37.3881L36.6974 37.995ZM35.7828 39.2547L35.1768 38.8128L35.7828 39.2547ZM34.2674 39.7125L34.6885 40.3331L34.2674 39.7125ZM32.9011 40.3014L32.4921 39.6727L32.9011 40.3014ZM31.1193 41.7495L30.9918 41.0104L31.1193 41.7495ZM30.4093 42.0156L30.7993 42.6562L30.4093 42.0156ZM27.4164 42.3673L27.2403 41.6383L27.4164 42.3673ZM25.9631 42.6723L25.5264 42.0625L25.9631 42.6723ZM25.2526 43.1553L24.8459 42.5252L25.2526 43.1553ZM18.6641 22.9777L18.4927 23.7079L18.6641 22.9777ZM18.2097 22.3715L17.4606 22.4084L18.2097 22.3715ZM17.7665 21.8025L17.6538 22.544L17.7665 21.8025ZM17.2956 21.9502L18.0234 22.1316L17.2956 21.9502ZM18.1319 23.9242L17.5886 24.4412L18.1319 23.9242ZM19.6797 24.4977L20.2261 23.9839L19.6797 24.4977ZM20.0646 25.1735L20.7794 24.9463L20.0646 25.1735ZM22.1118 27.3689L21.5125 27.8198L22.1118 27.3689ZM22.7175 28.0635L23.2574 27.5428L22.7175 28.0635ZM23.114 27.9435L22.3645 27.9164L23.114 27.9435ZM23.4351 27.204L22.9842 26.6046L23.4351 27.204ZM26.3904 24.856L26.954 25.3507L26.3904 24.856ZM26.9834 24.3883L27.338 25.0492L26.9834 24.3883ZM27.4235 23.7677L28.1562 23.9275L27.4235 23.7677ZM28.1984 22.4213L28.8523 22.7887L28.1984 22.4213ZM30.3568 20.3371L29.8979 19.7439L30.3568 20.3371ZM31.0629 19.9826L31.2801 20.7004L31.0629 19.9826ZM30.6911 19.3919L30.7432 20.1401L30.6911 19.3919ZM30.2458 19.5258L30.0127 18.813L30.2458 19.5258ZM29.6663 20.0069L28.9992 19.6642L29.6663 20.0069ZM28.7271 21.189L29.2543 21.7225L28.7271 21.189ZM27.6756 22.2588L27.2981 21.6107L27.6756 22.2588ZM27.1486 22.7926L26.4961 22.4229L27.1486 22.7926ZM26.5736 23.2782L26.8423 23.9784L26.5736 23.2782ZM24.3106 25.2578L23.5836 25.0739L24.3106 25.2578ZM23.786 25.7938L23.5906 25.0697L23.786 25.7938ZM22.8352 26.638L23.5636 26.8165L22.8352 26.638ZM23.6285 4.09807L23.4371 3.37292C23.4014 3.38234 23.3435 3.39023 23.2255 3.32642L22.8687 3.9861L22.5118 4.64578C22.9116 4.86203 23.3603 4.94457 23.8199 4.82323L23.6285 4.09807ZM22.8687 3.9861L23.2255 3.32642C22.9979 3.20332 22.7356 3.12699 22.4506 3.14151C22.1646 3.15608 21.9104 3.2594 21.696 3.40926L22.1257 4.02395L22.5554 4.63864C22.5678 4.63001 22.5706 4.6301 22.5638 4.63259C22.5564 4.63534 22.5433 4.63873 22.5269 4.63957C22.5106 4.6404 22.4987 4.63831 22.4936 4.63704C22.4893 4.63595 22.4952 4.63678 22.5118 4.64578L22.8687 3.9861ZM22.1257 4.02395L21.696 3.40926C21.503 3.54415 21.3199 3.64158 21.1469 3.70793L21.4153 4.40823L21.6838 5.10854C21.9851 4.99303 22.2756 4.83426 22.5554 4.63864L22.1257 4.02395ZM21.4153 4.40823L21.1469 3.70793C21.0688 3.73785 20.9812 3.74709 20.8583 3.71413L20.664 4.43853L20.4697 5.16292C20.8742 5.27142 21.2875 5.26047 21.6838 5.10854L21.4153 4.40823ZM20.664 4.43853L20.8583 3.71413C20.4959 3.61694 20.127 3.59589 19.7607 3.66483L19.8994 4.40189L20.0381 5.13895C20.1638 5.11528 20.3047 5.11866 20.4697 5.16292L20.664 4.43853ZM19.8994 4.40189L19.7607 3.66483C19.3928 3.73406 19.0565 3.88921 18.7561 4.11507L19.2068 4.71455L19.6575 5.31404C19.7884 5.21561 19.9139 5.16233 20.0381 5.13895L19.8994 4.40189ZM19.2068 4.71455L18.7561 4.11507C18.6384 4.20359 18.53 4.24374 18.4233 4.25614L18.5098 5.00113L18.5963 5.74613C18.9875 5.7007 19.3439 5.54981 19.6575 5.31404L19.2068 4.71455ZM18.5098 5.00113L18.4233 4.25614C18.2935 4.27121 18.1251 4.25955 17.9081 4.19584L17.6968 4.91546L17.4855 5.63508C17.8545 5.74343 18.2281 5.78888 18.5963 5.74613L18.5098 5.00113ZM17.6968 4.91546L17.9081 4.19584C17.6214 4.11164 17.2876 4.10536 16.969 4.2685C16.6645 4.42443 16.4745 4.68413 16.3558 4.93136L17.032 5.25594L17.7081 5.58052C17.7397 5.51474 17.7356 5.56118 17.6527 5.60362C17.6111 5.62496 17.5676 5.6353 17.5304 5.63729C17.4959 5.63913 17.4791 5.63319 17.4855 5.63508L17.6968 4.91546ZM17.032 5.25594L16.3558 4.93136C16.3137 5.01906 16.2853 5.04118 16.2895 5.03775C16.2925 5.03525 16.3016 5.02861 16.3164 5.0225C16.3313 5.01633 16.3447 5.01374 16.3531 5.01298L16.4198 5.76001L16.4865 6.50703C17.0956 6.45263 17.4875 6.04002 17.7081 5.58052L17.032 5.25594ZM16.4198 5.76001L16.3531 5.01298C15.9115 5.05243 15.5242 5.2419 15.218 5.55848L15.7572 6.07985L16.2963 6.60122C16.358 6.5374 16.4125 6.51365 16.4865 6.50703L16.4198 5.76001ZM15.7572 6.07985L15.218 5.55848C15.2135 5.56314 15.2129 5.56279 15.2164 5.56063C15.2201 5.55837 15.2238 5.5569 15.2258 5.55633C15.2303 5.55499 15.2085 5.56301 15.1445 5.55294L15.0279 6.29383L14.9114 7.03471C15.4115 7.11339 15.9142 6.99637 16.2963 6.60122L15.7572 6.07985ZM15.0279 6.29383L15.1445 5.55294C14.6751 5.4791 14.1949 5.56248 13.8 5.89227L14.2808 6.46789L14.7616 7.0435C14.7694 7.03705 14.7741 7.03457 14.7847 7.03212C14.7987 7.02886 14.8373 7.02306 14.9114 7.03471L15.0279 6.29383ZM14.2808 6.46789L13.8 5.89227C13.5974 6.06151 13.3985 6.23368 13.2034 6.40881L13.7043 6.967L14.2053 7.52518C14.3871 7.362 14.5726 7.20144 14.7616 7.0435L14.2808 6.46789ZM13.7043 6.967L13.2034 6.40881C12.9755 6.6133 12.7692 6.84173 12.5842 7.09266L13.1879 7.53773L13.7915 7.9828C13.9182 7.81106 14.0562 7.659 14.2053 7.52518L13.7043 6.967ZM13.1879 7.53773L12.5842 7.09266C12.5919 7.0823 12.6057 7.06726 12.6261 7.05318C12.6464 7.03914 12.6645 7.03203 12.675 7.02905C12.6845 7.02637 12.6822 7.02857 12.6634 7.02875C12.6442 7.02893 12.6114 7.02696 12.5627 7.01778L12.4238 7.75481L12.2849 8.49184C12.7994 8.58877 13.4017 8.51155 13.7915 7.9828L13.1879 7.53773ZM12.4238 7.75481L12.5627 7.01778C12.2786 6.96425 11.8986 6.96529 11.5668 7.20898C11.2344 7.45319 11.1203 7.81621 11.0875 8.10424L11.8326 8.18908L12.5778 8.27391C12.5856 8.20581 12.5903 8.3184 12.4549 8.41785C12.3202 8.51678 12.2155 8.47876 12.2849 8.49184L12.4238 7.75481ZM11.8326 8.18908L11.0875 8.10424C11.0771 8.19546 11.0595 8.18842 11.0918 8.14711C11.1092 8.12492 11.1335 8.10281 11.1625 8.08588C11.1906 8.0695 11.2116 8.06456 11.2171 8.06354L11.3542 8.80091L11.4912 9.53828C11.792 9.48237 12.0701 9.3311 12.2734 9.07115C12.4652 8.82589 12.5477 8.53882 12.5778 8.27391L11.8326 8.18908ZM11.3542 8.80091L11.2171 8.06354C10.7458 8.15115 10.3441 8.40622 10.0918 8.83609L10.7386 9.2157L11.3855 9.59532C11.3977 9.57444 11.406 9.56846 11.4106 9.56539C11.4166 9.56134 11.4384 9.5481 11.4912 9.53828L11.3542 8.80091ZM10.7386 9.2157L10.0918 8.83609C10.0917 8.83624 10.0924 8.83509 10.094 8.83306C10.0956 8.83101 10.0977 8.8286 10.1003 8.82611C10.1029 8.82362 10.1053 8.82158 10.1075 8.82003C10.1096 8.8185 10.1108 8.81785 10.1106 8.81792C10.1106 8.81796 10.0808 8.83396 9.99777 8.83992L10.0515 9.588L10.1053 10.3361C10.6071 10.3 11.0966 10.0876 11.3855 9.59532L10.7386 9.2157ZM10.0515 9.588L9.99777 8.83992C9.69382 8.86176 9.34436 8.97733 9.09971 9.2943C8.86897 9.59326 8.83135 9.94473 8.84929 10.224L9.59775 10.1759L10.3462 10.1278C10.3405 10.0386 10.3666 10.1078 10.2872 10.2108C10.2463 10.2637 10.1964 10.2994 10.1528 10.3194C10.1135 10.3375 10.0923 10.337 10.1053 10.3361L10.0515 9.588ZM9.59775 10.1759L8.84929 10.224C8.85277 10.2782 8.85093 10.3161 8.84801 10.3402C8.84512 10.3641 8.84162 10.371 8.84359 10.366C8.84593 10.36 8.85312 10.3447 8.86839 10.3264C8.88391 10.3077 8.90113 10.2939 8.91549 10.2853L9.30225 10.9279L9.689 11.5705C10.2483 11.2338 10.379 10.639 10.3462 10.1278L9.59775 10.1759ZM9.30225 10.9279L8.91549 10.2853C8.65054 10.4448 8.40634 10.6288 8.1843 10.8377L8.69817 11.384L9.21204 11.9303C9.35409 11.7967 9.51261 11.6766 9.689 11.5705L9.30225 10.9279ZM8.69817 11.384L8.1843 10.8377C7.95461 11.0537 7.75631 11.2963 7.59058 11.5642L8.22839 11.9588L8.86621 12.3534C8.96275 12.1973 9.07763 12.0567 9.21204 11.9303L8.69817 11.384ZM8.22839 11.9588L7.59058 11.5642C7.57152 11.595 7.51985 11.6588 7.3494 11.7169L7.59124 12.4268L7.83308 13.1367C8.24989 12.9948 8.623 12.7465 8.86621 12.3534L8.22839 11.9588ZM7.59124 12.4268L7.3494 11.7169C7.10323 11.8007 6.8614 11.9415 6.67422 12.1671C6.48389 12.3966 6.39 12.6659 6.36603 12.9372L7.11312 13.0032L7.86021 13.0692C7.86101 13.0602 7.86168 13.0648 7.85652 13.0781C7.85105 13.0923 7.84177 13.109 7.82875 13.1247C7.816 13.1401 7.80527 13.1477 7.80269 13.1494C7.80084 13.1506 7.80909 13.1449 7.83308 13.1367L7.59124 12.4268ZM7.11312 13.0032L6.36603 12.9372C6.34861 13.1345 6.30125 13.2852 6.23772 13.403L6.89784 13.759L7.55797 14.115C7.73126 13.7936 7.82741 13.4405 7.86021 13.0692L7.11312 13.0032ZM6.89784 13.759L6.23772 13.403C6.20346 13.4665 6.13287 13.5505 5.96937 13.6369L6.31992 14.3L6.67046 14.963C7.04072 14.7672 7.35541 14.4906 7.55797 14.115L6.89784 13.759ZM6.31992 14.3L5.96937 13.6369C5.71211 13.7729 5.47753 13.9893 5.35328 14.3058C5.23282 14.6126 5.2519 14.9226 5.32091 15.1863L6.04648 14.9964L6.77205 14.8066C6.75647 14.7471 6.77884 14.7793 6.74953 14.854C6.73521 14.8905 6.71446 14.9207 6.69397 14.942C6.67485 14.962 6.66301 14.9669 6.67046 14.963L6.31992 14.3ZM6.04648 14.9964L5.32091 15.1863C5.34367 15.2733 5.33858 15.3113 5.33808 15.3144C5.33793 15.3153 5.3387 15.3105 5.34228 15.3027C5.3459 15.2949 5.34986 15.2895 5.3516 15.2875L5.92097 15.7757L6.49035 16.2638C6.86456 15.8274 6.89863 15.2903 6.77205 14.8066L6.04648 14.9964ZM5.92097 15.7757L5.3516 15.2875C5.18373 15.4833 5.01357 15.6813 4.84111 15.8815L5.40934 16.371L5.97757 16.8605C6.15078 16.6594 6.32171 16.4605 6.49035 16.2638L5.92097 15.7757ZM5.40934 16.371L4.84111 15.8815C4.52905 16.2437 4.39828 16.6856 4.44037 17.1533L5.18735 17.086L5.93433 17.0188C5.92673 16.9343 5.94395 16.8995 5.97757 16.8605L5.40934 16.371ZM5.18735 17.086L4.44037 17.1533C4.45798 17.3489 4.44157 17.5138 4.4017 17.6553L5.1236 17.8587L5.8455 18.0621C5.94033 17.7255 5.96642 17.3753 5.93433 17.0188L5.18735 17.086ZM5.1236 17.8587L4.4017 17.6553C4.39221 17.689 4.3568 17.7728 4.19351 17.8907L4.63237 18.4989L5.07124 19.1071C5.42822 18.8495 5.7203 18.5065 5.8455 18.0621L5.1236 17.8587ZM4.63237 18.4989L4.19351 17.8907C3.94615 18.0692 3.71818 18.346 3.66989 18.7317C3.62427 19.0962 3.75844 19.4133 3.91008 19.6475L4.53962 19.2398L5.16917 18.8322C5.1225 18.7601 5.17298 18.8006 5.15828 18.918C5.15075 18.9782 5.12871 19.0303 5.10346 19.068C5.08042 19.1024 5.06269 19.1132 5.07124 19.1071L4.63237 18.4989ZM4.53962 19.2398L3.91008 19.6475C3.95033 19.7096 3.89406 19.6558 3.91653 19.5281C3.94052 19.3917 4.02199 19.3485 3.98304 19.3752L4.40698 19.9939L4.83091 20.6126C5.0787 20.4428 5.32565 20.1757 5.39385 19.7879C5.46053 19.4089 5.32723 19.0763 5.16917 18.8322L4.53962 19.2398ZM4.40698 19.9939L3.98304 19.3752C3.57332 19.6559 3.23034 20.0806 3.22037 20.6606L3.97026 20.6735L4.72015 20.6863C4.72005 20.6922 4.71895 20.7005 4.71631 20.709C4.71375 20.7173 4.71152 20.72 4.7137 20.7166C4.71914 20.7081 4.74712 20.67 4.83091 20.6126L4.40698 19.9939ZM3.97026 20.6735L3.22037 20.6606C3.21256 21.1156 3.3798 21.5326 3.63236 21.8978L4.24921 21.4712L4.86606 21.0446C4.73788 20.8593 4.71915 20.7445 4.72015 20.6863L3.97026 20.6735ZM4.24921 21.4712L3.63236 21.8978C3.75769 22.079 3.74953 22.1593 3.74875 22.1663L4.49415 22.2492L5.23955 22.3321C5.29293 21.8523 5.12148 21.4139 4.86606 21.0446L4.24921 21.4712ZM4.49415 22.2492L3.74875 22.1663C3.74518 22.1984 3.72273 22.2935 3.57092 22.4523L4.11316 22.9705L4.6554 23.4886C4.95742 23.1726 5.18897 22.7868 5.23955 22.3321L4.49415 22.2492ZM4.11316 22.9705L3.57092 22.4523C3.209 22.8311 2.99426 23.3498 3.17532 23.9293L3.89119 23.7056L4.60705 23.4819C4.60781 23.4843 4.61047 23.4944 4.61062 23.5101C4.61078 23.526 4.60828 23.5398 4.60546 23.5492C4.60011 23.5669 4.60103 23.5455 4.6554 23.4886L4.11316 22.9705ZM3.89119 23.7056L3.17532 23.9293C3.23679 24.126 3.27104 24.3156 3.28103 24.4994L4.02993 24.4587L4.77882 24.418C4.76169 24.1028 4.70344 23.7903 4.60705 23.4819L3.89119 23.7056ZM4.02993 24.4587L3.28103 24.4994C3.2925 24.7103 3.28782 24.9231 3.26672 25.1381L4.01314 25.2113L4.75956 25.2845C4.78797 24.9949 4.79448 24.706 4.77882 24.418L4.02993 24.4587ZM4.01314 25.2113L3.26672 25.1381C3.24016 25.4088 3.22367 25.6803 3.21727 25.9523L3.96707 25.9699L4.71686 25.9875C4.72238 25.7527 4.73662 25.5183 4.75956 25.2845L4.01314 25.2113ZM3.96707 25.9699L3.21727 25.9523C3.21152 26.197 3.20144 26.4439 3.18703 26.6931L3.93577 26.7364L4.68452 26.7797C4.69991 26.5138 4.71069 26.2497 4.71686 25.9875L3.96707 25.9699ZM3.93577 26.7364L3.18703 26.6931C3.15599 27.2296 3.40283 27.6721 3.76413 27.9986L4.267 27.4422L4.76987 26.8858C4.70992 26.8316 4.69096 26.7972 4.68636 26.7874C4.68413 26.7826 4.68414 26.7813 4.68439 26.7826C4.68465 26.784 4.6843 26.7835 4.68452 26.7797L3.93577 26.7364ZM4.267 27.4422L3.76413 27.9986C3.82339 28.0522 3.84081 28.0853 3.84428 28.0928C3.84596 28.0964 3.84556 28.0965 3.84512 28.0941C3.84468 28.0917 3.84502 28.0913 3.84478 28.0946L4.59286 28.1483L5.34094 28.2019C5.37972 27.6611 5.13329 27.2142 4.76987 26.8858L4.267 27.4422ZM4.59286 28.1483L3.84478 28.0946C3.81151 28.5587 3.96127 28.9817 4.25298 29.3312L4.82875 28.8506L5.40452 28.37C5.34477 28.2984 5.33727 28.2531 5.34094 28.2019L4.59286 28.1483ZM4.82875 28.8506L4.25298 29.3312C4.25969 29.3392 4.25994 29.3413 4.25801 29.3372C4.25591 29.3328 4.25376 29.3264 4.25263 29.3198C4.25156 29.3135 4.25232 29.3122 4.25177 29.3181C4.25118 29.3245 4.24896 29.3399 4.24077 29.3654L4.95488 29.5946L5.669 29.8239C5.83042 29.3209 5.7625 28.7988 5.40452 28.37L4.82875 28.8506ZM4.95488 29.5946L4.24077 29.3654C4.09936 29.806 4.10258 30.2759 4.33356 30.711L4.99602 30.3594L5.65849 30.0078C5.65132 29.9943 5.62712 29.9543 5.669 29.8239L4.95488 29.5946ZM4.99602 30.3594L4.33356 30.711C4.4392 30.9101 4.53184 31.1121 4.61171 31.3171L5.31057 31.0449L6.00943 30.7727C5.90805 30.5124 5.79099 30.2574 5.65849 30.0078L4.99602 30.3594ZM5.31057 31.0449L4.61171 31.3171C4.73143 31.6245 4.89793 31.9083 5.10757 32.1673L5.69052 31.6954L6.27347 31.2235C6.15777 31.0806 6.07098 30.9307 6.00943 30.7727L5.31057 31.0449ZM5.69052 31.6954L5.10757 32.1673C5.21561 32.3007 5.29138 32.4401 5.34032 32.5877L6.05218 32.3515L6.76404 32.1154C6.6561 31.79 6.49077 31.492 6.27347 31.2235L5.69052 31.6954ZM6.05218 32.3515L5.34032 32.5877C5.42127 32.8317 5.50627 33.0749 5.59532 33.3174L6.29934 33.0588L7.00336 32.8002C6.91974 32.5726 6.83997 32.3443 6.76404 32.1154L6.05218 32.3515ZM6.29934 33.0588L5.59532 33.3174C5.68931 33.5733 5.79443 33.8244 5.91066 34.0707L6.58893 33.7506L7.2672 33.4306C7.16998 33.2245 7.08204 33.0144 7.00336 32.8002L6.29934 33.0588ZM6.58893 33.7506L5.91066 34.0707C6.05092 34.3679 6.23479 34.6382 6.45977 34.8798L7.00865 34.3687L7.55754 33.8576C7.43634 33.7274 7.34039 33.5857 7.2672 33.4306L6.58893 33.7506ZM7.00865 34.3687L6.45977 34.8798C6.63752 35.0707 6.81708 35.2583 6.99846 35.4426L7.53302 34.9166L8.06758 34.3905C7.89599 34.2161 7.72597 34.0385 7.55754 33.8576L7.00865 34.3687ZM7.53302 34.9166L6.99846 35.4426C7.14155 35.588 7.26684 35.7428 7.37523 35.9071L8.00131 35.4942L8.62738 35.0812C8.46435 34.8341 8.27745 34.6038 8.06758 34.3905L7.53302 34.9166ZM8.00131 35.4942L7.37523 35.9071C7.5065 36.1061 7.6351 36.3081 7.76103 36.513L8.4 36.1203L9.03898 35.7276C8.90473 35.5092 8.76753 35.2937 8.62738 35.0812L8.00131 35.4942ZM8.4 36.1203L7.76103 36.513C7.82111 36.6108 7.87425 36.7542 7.89661 36.9671L8.64251 36.8888L9.38841 36.8105C9.34761 36.4221 9.23908 36.0532 9.03898 35.7276L8.4 36.1203ZM8.64251 36.8888L7.89661 36.9671C7.94458 37.4238 8.1306 37.8498 8.50327 38.1612L8.98414 37.5856L9.465 37.0101C9.44533 36.9936 9.4036 36.9551 9.38841 36.8105L8.64251 36.8888ZM8.98414 37.5856L8.50327 38.1612C8.79618 38.4059 9.13974 38.5703 9.51481 38.6672L9.70243 37.941L9.89005 37.2149C9.69973 37.1657 9.56443 37.0932 9.465 37.0101L8.98414 37.5856ZM9.70243 37.941L9.51481 38.6672C9.69867 38.7147 9.81222 38.783 9.88591 38.8516L10.3973 38.303L10.9086 37.7543C10.6213 37.4865 10.2716 37.3135 9.89005 37.2149L9.70243 37.941ZM10.3973 38.303L9.88591 38.8516C9.99288 38.9513 10.0889 39.0796 10.17 39.2467L10.8447 38.919L11.5193 38.5914C11.3649 38.2735 11.1627 37.9911 10.9086 37.7543L10.3973 38.303ZM10.8447 38.919L10.17 39.2467C10.3145 39.5441 10.4917 39.817 10.7028 40.0623L11.2712 39.5729L11.8395 39.0835C11.7174 38.9417 11.6103 38.7788 11.5193 38.5914L10.8447 38.919ZM11.2712 39.5729L10.7028 40.0623C10.8877 40.277 11.0838 40.4803 11.2909 40.6722L11.8006 40.122L12.3103 39.5718C12.1447 39.4185 11.9878 39.2557 11.8395 39.0835L11.2712 39.5729ZM11.8006 40.122L11.2909 40.6722C11.4826 40.8498 11.6774 41.025 11.8751 41.1977L12.3684 40.6327L12.8617 40.0678C12.675 39.9048 12.4912 39.7394 12.3103 39.5718L11.8006 40.122ZM12.3684 40.6327L11.8751 41.1977C12.1331 41.423 12.4239 41.5989 12.7437 41.7243L13.0176 41.0261L13.2914 40.3278C13.1301 40.2646 12.9882 40.1783 12.8617 40.0678L12.3684 40.6327ZM13.0176 41.0261L12.7437 41.7243C12.9299 41.7973 13.101 41.8892 13.2587 41.9999L13.6896 41.386L14.1205 40.7721C13.8633 40.5916 13.5864 40.4435 13.2914 40.3278L13.0176 41.0261ZM13.6896 41.386L13.2587 41.9999C13.4385 42.1261 13.6134 42.2669 13.7832 42.4228L14.2903 41.8702L14.7975 41.3177C14.5812 41.1191 14.3555 40.9371 14.1205 40.7721L13.6896 41.386ZM14.2903 41.8702L13.7832 42.4228C14.1696 42.7774 14.6543 42.8829 15.1377 42.8152L15.0337 42.0725L14.9297 41.3297C14.8603 41.3395 14.8271 41.3325 14.8179 41.33C14.812 41.3284 14.8076 41.327 14.7975 41.3177L14.2903 41.8702ZM15.0337 42.0725L15.1377 42.8152C15.3936 42.7794 15.6187 42.7728 15.8158 42.7896L15.8794 42.0423L15.9429 41.295C15.6176 41.2673 15.2789 41.2808 14.9297 41.3297L15.0337 42.0725ZM15.8794 42.0423L15.8158 42.7896C15.9391 42.8001 16.0355 42.8384 16.1231 42.905L16.5768 42.3078L17.0305 41.7106C16.7107 41.4676 16.3421 41.3289 15.9429 41.295L15.8794 42.0423ZM16.5768 42.3078L16.1231 42.905C16.3723 43.0943 16.6387 43.2522 16.9218 43.377L17.2243 42.6907L17.5268 42.0044C17.3541 41.9283 17.1888 41.8309 17.0305 41.7106L16.5768 42.3078ZM17.2243 42.6907L16.9218 43.377C17.1943 43.4971 17.4762 43.5899 17.7669 43.6552L17.9313 42.9234L18.0957 42.1917C17.8997 42.1476 17.7103 42.0853 17.5268 42.0044L17.2243 42.6907ZM17.9313 42.9234L17.7669 43.6552C18.0038 43.7084 18.2392 43.7646 18.4731 43.8238L18.657 43.0967L18.8409 42.3696C18.5939 42.3071 18.3455 42.2478 18.0957 42.1917L17.9313 42.9234ZM18.657 43.0967L18.4731 43.8238C18.562 43.8462 18.6722 43.9011 18.8028 44.0302L19.3301 43.4968L19.8574 42.9635C19.5713 42.6806 19.2328 42.4687 18.8409 42.3696L18.657 43.0967ZM19.3301 43.4968L18.8028 44.0302C19.1949 44.4178 19.7121 44.5659 20.2559 44.4107L20.05 43.6895L19.8442 42.9683C19.8307 42.9722 19.8275 42.9715 19.8328 42.9713C19.8353 42.9713 19.8393 42.9713 19.8444 42.9719C19.8494 42.9725 19.8549 42.9735 19.8603 42.975C19.8657 42.9764 19.8702 42.9781 19.8738 42.9796C19.8773 42.9811 19.8792 42.9823 19.8795 42.9824C19.8799 42.9827 19.8722 42.9781 19.8574 42.9635L19.3301 43.4968ZM20.05 43.6895L20.2559 44.4107C20.4106 44.3666 20.5237 44.3718 20.6143 44.3975L20.8194 43.6761L21.0246 42.9548C20.6325 42.8433 20.2327 42.8574 19.8442 42.9683L20.05 43.6895ZM20.8194 43.6761L20.6143 44.3975C20.9025 44.4795 21.1959 44.5328 21.4938 44.5571L21.5548 43.8095L21.6157 43.062C21.4158 43.0457 21.219 43.01 21.0246 42.9548L20.8194 43.6761ZM21.5548 43.8095L21.4938 44.5571C21.7216 44.5756 21.9486 44.6039 22.1749 44.6418L22.2988 43.9021L22.4227 43.1624C22.1548 43.1175 21.8858 43.084 21.6157 43.062L21.5548 43.8095ZM22.2988 43.9021L22.1749 44.6418C22.3515 44.6714 22.5351 44.7278 22.7269 44.8158L23.0397 44.1341L23.3525 43.4524C23.0505 43.3139 22.7403 43.2156 22.4227 43.1624L22.2988 43.9021ZM23.0397 44.1341L22.7269 44.8158C23.001 44.9416 23.305 44.9745 23.6083 44.8921C23.8954 44.8142 24.1293 44.6477 24.3147 44.4647L23.7876 43.931L23.2606 43.3974C23.1942 43.463 23.1776 43.4548 23.2153 43.4445C23.2361 43.4389 23.2636 43.4355 23.2939 43.4383C23.3237 43.441 23.3441 43.4486 23.3525 43.4524L23.0397 44.1341ZM23.7876 43.931L24.3147 44.4647C24.3523 44.4275 24.2893 44.5068 24.1392 44.5012C23.9986 44.4959 23.9546 44.4216 24.0097 44.479L24.5508 43.9596L25.0918 43.4402C24.8899 43.2299 24.5902 43.017 24.1953 43.0022C23.7908 42.9871 23.4747 43.1859 23.2606 43.3974L23.7876 43.931ZM24.5508 43.9596L24.0097 44.479C24.3515 44.8351 24.8237 45.1291 25.4019 45.0625L25.316 44.3174L25.2302 43.5723C25.2558 43.5694 25.2678 43.5776 25.2525 43.5704C25.2306 43.5602 25.1756 43.5275 25.0918 43.4402L24.5508 43.9596ZM25.316 44.3174L25.4019 45.0625C25.775 45.0195 26.1249 44.8901 26.4475 44.6907L26.0531 44.0528L25.6587 43.4148C25.5049 43.51 25.3634 43.557 25.2302 43.5723L25.316 44.3174ZM26.0531 44.0528L26.4475 44.6907C26.6791 44.5475 26.9071 44.4115 27.1313 44.2828L26.7578 43.6324L26.3844 42.982C26.1454 43.1192 25.9035 43.2635 25.6587 43.4148L26.0531 44.0528ZM26.7578 43.6324L27.1313 44.2828C27.2937 44.1895 27.4486 44.1342 27.598 44.1081L27.4687 43.3693L27.3393 42.6306C27.0041 42.6892 26.6851 42.8093 26.3844 42.982L26.7578 43.6324ZM27.4687 43.3693L27.598 44.1081C27.867 44.061 28.1328 43.9995 28.3953 43.9236L28.187 43.2031L27.9787 42.4826C27.7681 42.5435 27.555 42.5928 27.3393 42.6306L27.4687 43.3693ZM28.187 43.2031L28.3953 43.9236C28.376 43.9292 28.4347 43.8977 28.6309 44.0059L28.9928 43.349L29.3547 42.692C28.9497 42.4689 28.4711 42.3402 27.9787 42.4826L28.187 43.2031ZM28.9928 43.349L28.6309 44.0059C28.8548 44.1292 29.1152 44.2216 29.4005 44.2261C29.6984 44.2308 29.9751 44.1384 30.2098 43.9677L29.7687 43.3611L29.3276 42.7546C29.3329 42.7507 29.3466 42.7421 29.3679 42.7353C29.3895 42.7283 29.4095 42.7261 29.4241 42.7263C29.4508 42.7267 29.4315 42.7343 29.3547 42.692L28.9928 43.349ZM29.7687 43.3611L30.2098 43.9677C30.3247 43.8841 30.4381 43.8418 30.5596 43.8286L30.4785 43.083L30.3973 42.3374C30.0057 42.38 29.6458 42.5232 29.3276 42.7546L29.7687 43.3611ZM30.4785 43.083L30.5596 43.8286C30.9596 43.785 31.3238 43.6331 31.6388 43.384L31.1735 42.7958L30.7082 42.2076C30.6096 42.2855 30.5104 42.3251 30.3973 42.3374L30.4785 43.083ZM31.1735 42.7958L31.6388 43.384C31.7687 43.2812 31.9028 43.2146 32.0446 43.1766L31.8505 42.4522L31.6565 41.7277C31.3091 41.8207 30.9918 41.9832 30.7082 42.2076L31.1735 42.7958ZM31.8505 42.4522L32.0446 43.1766C32.5039 43.0536 32.8501 42.7567 33.0888 42.3727L32.4517 41.9768L31.8147 41.581C31.7409 41.6997 31.6864 41.7197 31.6565 41.7277L31.8505 42.4522ZM32.4517 41.9768L33.0888 42.3727C33.089 42.3723 33.0786 42.3889 33.0526 42.4096C33.0253 42.4313 32.9919 42.4485 32.9577 42.4581C32.892 42.4766 32.8789 42.4533 32.9602 42.4801L33.1953 41.7679L33.4304 41.0557C33.1721 40.9704 32.8654 40.9259 32.5518 41.014C32.2206 41.1071 31.9759 41.3216 31.8147 41.581L32.4517 41.9768ZM33.1953 41.7679L32.9602 42.4801C33.2235 42.567 33.5556 42.6138 33.8899 42.4873C34.242 42.3541 34.4594 42.0814 34.5806 41.8038L33.8932 41.5037L33.2059 41.2037C33.2024 41.2118 33.209 41.1931 33.2359 41.165C33.2651 41.1343 33.3073 41.104 33.3589 41.0844C33.4606 41.046 33.5065 41.0808 33.4304 41.0557L33.1953 41.7679ZM33.8932 41.5037L34.5806 41.8038C34.6124 41.731 34.6393 41.7005 34.6493 41.6909C34.6563 41.6841 34.659 41.6828 34.666 41.6808L34.4531 40.9616L34.2402 40.2425C33.7345 40.3922 33.3991 40.7612 33.2059 41.2037L33.8932 41.5037ZM34.4531 40.9616L34.666 41.6808C34.9625 41.593 35.2456 41.4764 35.5142 41.3306L35.1562 40.6715L34.7983 40.0124C34.6243 40.1069 34.4386 40.1838 34.2402 40.2425L34.4531 40.9616ZM35.1562 40.6715L35.5142 41.3306C35.9141 41.1134 36.1855 40.7675 36.3481 40.3607L35.6518 40.0823L34.9554 39.8038C34.9 39.9423 34.841 39.9892 34.7983 40.0124L35.1562 40.6715ZM35.6518 40.0823L36.3481 40.3607C36.3568 40.339 36.3637 40.3282 36.3661 40.3247C36.3682 40.3216 36.3671 40.3238 36.3622 40.328C36.3572 40.3323 36.3524 40.335 36.3501 40.336C36.3482 40.3369 36.3526 40.3345 36.3663 40.3319L36.2261 39.5951L36.086 38.8584C35.5449 38.9613 35.1533 39.3087 34.9554 39.8038L35.6518 40.0823ZM36.2261 39.5951L36.3663 40.3319C36.7354 40.2617 37.0784 40.1234 37.3804 39.9068L36.9434 39.2973L36.5063 38.6878C36.3999 38.7641 36.2647 38.8244 36.086 38.8584L36.2261 39.5951ZM36.9434 39.2973L37.3804 39.9068C37.511 39.8132 37.6716 39.7332 37.8705 39.6726L37.652 38.9551L37.4334 38.2377C37.096 38.3405 36.7842 38.4885 36.5063 38.6878L36.9434 39.2973ZM37.652 38.9551L37.8705 39.6726C38.1377 39.5912 38.3821 39.437 38.5644 39.1979C38.7417 38.9653 38.8255 38.6982 38.8561 38.4412L38.1114 38.3525L37.3667 38.2638C37.3592 38.3269 37.3473 38.3202 37.3715 38.2885C37.3834 38.2729 37.3984 38.259 37.4138 38.2486C37.4286 38.2387 37.4372 38.2365 37.4334 38.2377L37.652 38.9551ZM38.1114 38.3525L38.8561 38.4412C38.8795 38.2451 38.9346 38.1863 38.9513 38.171L38.443 37.6195L37.9347 37.068C37.5855 37.3899 37.4196 37.8198 37.3667 38.2638L38.1114 38.3525ZM38.443 37.6195L38.9513 38.171C39.0841 38.0485 39.2407 37.9373 39.4249 37.8389L39.0714 37.1774L38.7179 36.5159C38.4301 36.6697 38.1677 36.8532 37.9347 37.068L38.443 37.6195ZM39.0714 37.1774L39.4249 37.8389C39.7033 37.6901 39.9626 37.5173 40.2015 37.3199L39.7239 36.7417L39.2462 36.1634C39.0871 36.2949 38.9115 36.4125 38.7179 36.5159L39.0714 37.1774ZM39.7239 36.7417L40.2015 37.3199C40.4719 37.0965 40.6941 36.8303 40.8643 36.5243L40.2087 36.1599L39.5532 35.7955C39.4749 35.9364 39.3738 36.058 39.2462 36.1634L39.7239 36.7417ZM40.2087 36.1599L40.8643 36.5243C41.0256 36.2341 41.1418 35.9219 41.2155 35.5912L40.4834 35.4282L39.7513 35.2652C39.7072 35.4632 39.6404 35.6387 39.5532 35.7955L40.2087 36.1599ZM40.4834 35.4282L41.2155 35.5912C41.2652 35.3679 41.3303 35.1635 41.4095 34.9767L40.7188 34.6842L40.0282 34.3918C39.9111 34.6683 39.8193 34.9599 39.7513 35.2652L40.4834 35.4282ZM40.7188 34.6842L41.4095 34.9767C41.5108 34.7373 41.6078 34.497 41.7005 34.2559L41.0004 33.9869L40.3003 33.7178C40.2137 33.9432 40.123 34.1678 40.0282 34.3918L40.7188 34.6842ZM41.0004 33.9869L41.7005 34.2559C41.6962 34.2671 41.6905 34.2688 41.7029 34.2585C41.7195 34.2446 41.7649 34.2135 41.8617 34.1802L41.6178 33.4709L41.3739 32.7617C40.9225 32.9169 40.4956 33.2097 40.3003 33.7178L41.0004 33.9869ZM41.6178 33.4709L41.8617 34.1802C42.1348 34.0863 42.4381 33.9044 42.6113 33.5636C42.7843 33.2235 42.7531 32.8717 42.6695 32.5962L41.9518 32.8141L41.2342 33.0319C41.2499 33.0836 41.2127 33.0049 41.2743 32.8837C41.3362 32.7619 41.4229 32.7449 41.3739 32.7617L41.6178 33.4709ZM41.9518 32.8141L42.6695 32.5962C42.6412 32.503 42.6441 32.46 42.6448 32.4541C42.645 32.4521 42.6446 32.4572 42.6408 32.4665C42.637 32.476 42.6321 32.4838 42.6282 32.4887L42.0399 32.0235L41.4516 31.5583C41.0917 32.0134 41.0903 32.5578 41.2342 33.0319L41.9518 32.8141ZM42.0399 32.0235L42.6282 32.4887C42.8349 32.2273 42.9962 31.9401 43.1088 31.629L42.4035 31.3739L41.6982 31.1188C41.642 31.2741 41.561 31.42 41.4516 31.5583L42.0399 32.0235ZM42.4035 31.3739L43.1088 31.629C43.1663 31.4698 43.2501 31.3147 43.3645 31.1629L42.7657 30.7115L42.1668 30.26C41.9669 30.525 41.8093 30.8116 41.6982 31.1188L42.4035 31.3739ZM42.7657 30.7115L43.3645 31.1629C43.6086 30.8392 43.7485 30.4665 43.774 30.061L43.0254 30.0141L42.2769 29.9671C42.2702 30.0747 42.2369 30.1669 42.1668 30.26L42.7657 30.7115ZM43.0254 30.0141L43.774 30.061C43.7798 29.968 43.8105 29.8788 43.8905 29.7788L43.305 29.3101L42.7194 28.8415C42.4589 29.167 42.3032 29.5471 42.2769 29.9671L43.0254 30.0141ZM43.305 29.3101L43.8905 29.7788C44.1738 29.4248 44.3131 29.0027 44.2807 28.5449L43.5325 28.5979L42.7844 28.6509C42.7891 28.7173 42.7767 28.77 42.7194 28.8415L43.305 29.3101ZM43.5325 28.5979L44.2807 28.5449C44.2785 28.5146 44.2776 28.4711 44.3572 28.3841L43.8039 27.8778L43.2505 27.3715C42.9312 27.7205 42.7494 28.157 42.7844 28.6509L43.5325 28.5979ZM43.8039 27.8778L44.3572 28.3841C44.5606 28.1618 44.7041 27.869 44.7027 27.5224C44.7013 27.1934 44.5694 26.9111 44.4133 26.6901L43.8007 27.1227L43.1881 27.5554C43.2336 27.6198 43.203 27.606 43.2027 27.5287C43.2025 27.489 43.2109 27.4496 43.225 27.4162C43.2383 27.3846 43.2517 27.3703 43.2505 27.3715L43.8039 27.8778ZM43.8007 27.1227L44.4133 26.6901C44.382 26.6457 44.4379 26.7032 44.4194 26.8288C44.4011 26.9527 44.3328 26.9893 44.3793 26.9523L43.9124 26.3653L43.4455 25.7783C43.216 25.9609 42.991 26.2335 42.9355 26.6099C42.8797 26.9879 43.0178 27.3143 43.1881 27.5554L43.8007 27.1227ZM43.9124 26.3653L44.3793 26.9523C44.7648 26.6456 45.0804 26.2063 45.0679 25.6354L44.3181 25.6517L43.5683 25.6681C43.5682 25.6626 43.5689 25.6559 43.5705 25.65C43.5719 25.6444 43.5728 25.6447 43.5689 25.6515C43.5601 25.667 43.5293 25.7117 43.4455 25.7783L43.9124 26.3653ZM44.3181 25.6517L45.0679 25.6354C45.0569 25.1294 44.8068 24.7018 44.4827 24.3604L43.9388 24.8767L43.3948 25.3931C43.5653 25.5727 43.5681 25.6618 43.5683 25.6681L44.3181 25.6517ZM43.9388 24.8767L44.4827 24.3604C44.4046 24.2781 44.3793 24.2277 44.373 24.2121C44.3704 24.2055 44.3722 24.2078 44.3733 24.2174C44.3745 24.2276 44.3742 24.2395 44.3721 24.2509L43.634 24.1181L42.8958 23.9854C42.793 24.557 43.0599 25.0402 43.3948 25.3931L43.9388 24.8767ZM43.634 24.1181L44.3721 24.2509C44.4075 24.0545 44.4642 23.8507 44.5444 23.6392L43.8431 23.3733L43.1418 23.1074C43.0314 23.3985 42.9487 23.6913 42.8958 23.9854L43.634 24.1181ZM43.8431 23.3733L44.5444 23.6392C44.6356 23.3985 44.7352 23.1523 44.8432 22.9008L44.1539 22.605L43.4647 22.3093C43.3488 22.5795 43.2411 22.8455 43.1418 23.1074L43.8431 23.3733ZM44.1539 22.605L44.8432 22.9008C45.0489 22.4214 45.0186 21.916 44.7452 21.4661L44.1043 21.8556L43.4633 22.2451C43.4727 22.2605 43.476 22.2695 43.4769 22.2723C43.4778 22.2748 43.4773 22.2742 43.4771 22.2716C43.477 22.2691 43.4774 22.2693 43.4766 22.2737C43.4757 22.2785 43.4729 22.2901 43.4647 22.3093L44.1539 22.605ZM44.1043 21.8556L44.7452 21.4661C44.6589 21.3241 44.6252 21.2009 44.6207 21.0888L43.8713 21.1194L43.1219 21.1499C43.1379 21.5421 43.2595 21.9097 43.4633 22.2451L44.1043 21.8556ZM43.8713 21.1194L44.6207 21.0888C44.608 20.7786 44.5598 20.4735 44.476 20.1746L43.7538 20.3769L43.0316 20.5793C43.084 20.766 43.114 20.9558 43.1219 21.1499L43.8713 21.1194ZM43.7538 20.3769L44.476 20.1746C44.401 19.9068 44.3122 19.6432 44.2096 19.3839L43.5122 19.6598L42.8148 19.9357C42.8984 20.147 42.9706 20.3615 43.0316 20.5793L43.7538 20.3769ZM43.5122 19.6598L44.2096 19.3839C44.1576 19.2524 44.1336 19.111 44.1417 18.9512L43.3927 18.9129L42.6437 18.8746C42.625 19.2402 42.6806 19.5967 42.8148 19.9357L43.5122 19.6598ZM43.3927 18.9129L44.1417 18.9512C44.1589 18.6154 44.127 18.2851 44.0434 17.9637L43.3175 18.1524L42.5917 18.3412C42.6352 18.5085 42.6534 18.6852 42.6437 18.8746L43.3927 18.9129ZM43.3175 18.1524L44.0434 17.9637C43.9935 17.772 43.9629 17.5693 43.9529 17.3546L43.2038 17.3894L42.4546 17.4242C42.4692 17.738 42.5144 18.0441 42.5917 18.3412L43.3175 18.1524ZM43.2038 17.3894L43.9529 17.3546C43.9288 16.8348 43.6671 16.4166 43.2728 16.1239L42.8258 16.7262L42.3789 17.3285C42.4295 17.366 42.445 17.3908 42.4484 17.3967C42.4504 17.4001 42.4513 17.4025 42.4519 17.4048C42.4526 17.4072 42.4541 17.4131 42.4546 17.4242L43.2038 17.3894ZM42.8258 16.7262L43.2728 16.1239C43.255 16.1107 43.2481 16.1027 43.2471 16.1016C43.2467 16.101 43.2474 16.1018 43.2488 16.104C43.2502 16.1063 43.2519 16.1094 43.2536 16.1132C43.2553 16.117 43.2567 16.1208 43.2576 16.1243C43.2586 16.1278 43.259 16.1302 43.2592 16.1311C43.2595 16.1333 43.2583 16.1272 43.2602 16.1105L42.5148 16.027L41.7695 15.9435C41.7064 16.5065 41.9324 16.9971 42.3789 17.3285L42.8258 16.7262ZM42.5148 16.027L43.2602 16.1105C43.3091 15.6737 43.2294 15.2431 42.9826 14.8635L42.3538 15.2722L41.7249 15.681C41.7575 15.7311 41.7852 15.8037 41.7695 15.9435L42.5148 16.027ZM42.3538 15.2722L42.9826 14.8635C42.8687 14.6882 42.7728 14.5048 42.6947 14.3128L42 14.5955L41.3053 14.8782C41.4195 15.1587 41.5595 15.4264 41.7249 15.681L42.3538 15.2722ZM42 14.5955L42.6947 14.3128C42.546 13.9474 42.3069 13.6418 41.9971 13.3988L41.5342 13.9888L41.0713 14.5789C41.1903 14.6723 41.2618 14.7712 41.3053 14.8782L42 14.5955ZM41.5342 13.9888L41.9971 13.3988C41.7577 13.2109 41.5053 13.0375 41.2403 12.8783L40.8541 13.5212L40.4679 14.1641C40.6808 14.292 40.8818 14.4303 41.0713 14.5789L41.5342 13.9888ZM40.8541 13.5212L41.2403 12.8783C41.0814 12.7828 40.9768 12.6807 40.9067 12.5783L40.2876 13.0016L39.6686 13.425C39.8759 13.7282 40.1489 13.9725 40.4679 14.1641L40.8541 13.5212ZM40.2876 13.0016L40.9067 12.5783C40.8428 12.4848 40.79 12.3575 40.7651 12.1763L40.0221 12.2783L39.279 12.3803C39.3309 12.7579 39.4551 13.1128 39.6686 13.425L40.2876 13.0016ZM40.0221 12.2783L40.7651 12.1763C40.6974 11.6833 40.4388 11.2677 39.9968 11.0094L39.6184 11.6569L39.2401 12.3045C39.2527 12.3119 39.2588 12.3172 39.2609 12.3192C39.2629 12.321 39.2633 12.3217 39.2635 12.322C39.2637 12.3223 39.2657 12.3255 39.2686 12.3334C39.2715 12.3417 39.2758 12.3566 39.279 12.3803L40.0221 12.2783ZM39.6184 11.6569L39.9968 11.0094C39.9401 10.9763 39.908 10.9398 39.8851 10.8571L39.1623 11.0572L38.4394 11.2573C38.5633 11.7045 38.8352 12.068 39.2401 12.3045L39.6184 11.6569ZM39.1623 11.0572L39.8851 10.8571C39.7682 10.4348 39.5271 10.0759 39.159 9.82328L38.7346 10.4417L38.3102 11.0601C38.3656 11.0981 38.4096 11.1495 38.4394 11.2573L39.1623 11.0572ZM38.7346 10.4417L39.159 9.82328C38.9849 9.70386 38.8278 9.57279 38.6866 9.43024L38.1538 9.95808L37.621 10.4859C37.8306 10.6975 38.0607 10.8888 38.3102 11.0601L38.7346 10.4417ZM38.1538 9.95808L38.6866 9.43024C38.4802 9.22183 38.2564 9.03258 38.0159 8.86269L37.5832 9.4753L37.1505 10.0879C37.32 10.2076 37.4766 10.3402 37.621 10.4859L38.1538 9.95808ZM37.5832 9.4753L38.0159 8.86269C37.7535 8.67736 37.4669 8.52969 37.1592 8.41823L36.9038 9.12339L36.6483 9.82856C36.8366 9.89674 37.0029 9.98367 37.1505 10.0879L37.5832 9.4753ZM36.9038 9.12339L37.1592 8.41823C37.0382 8.37442 36.9561 8.312 36.8923 8.22978L36.2997 8.68954L35.7072 9.1493C35.9528 9.46591 36.2733 9.69273 36.6483 9.82856L36.9038 9.12339ZM36.2997 8.68954L36.8923 8.22978C36.7729 8.07597 36.6612 7.89528 36.559 7.68437L35.884 8.01129L35.209 8.33821C35.3517 8.6328 35.517 8.90428 35.7072 9.1493L36.2997 8.68954ZM35.884 8.01129L36.559 7.68437C36.3819 7.31865 36.1225 7.01132 35.7732 6.79575L35.3793 7.43398L34.9854 8.0722C35.0642 8.12087 35.1413 8.19841 35.209 8.33821L35.884 8.01129ZM35.3793 7.43398L35.7732 6.79575C35.5781 6.67531 35.3884 6.54627 35.2041 6.4086L34.7552 7.00942L34.3063 7.61023C34.526 7.7744 34.7524 7.9284 34.9854 8.0722L35.3793 7.43398ZM34.7552 7.00942L35.2041 6.4086C34.8151 6.11795 34.356 6.03918 33.9037 6.09171L33.9902 6.8367L34.0767 7.58169C34.2405 7.56268 34.2913 7.59905 34.3063 7.61023L34.7552 7.00942ZM33.9902 6.8367L33.9037 6.09171C33.8859 6.09377 33.8864 6.09153 33.9004 6.09389C33.9158 6.09648 33.9396 6.10334 33.9658 6.11822C33.9918 6.13305 34.0093 6.14962 34.0184 6.16037C34.0267 6.17007 34.0242 6.17021 34.016 6.15227L33.3335 6.46329L32.6511 6.7743C32.7653 7.02499 32.9474 7.26468 33.2243 7.42214C33.5018 7.57995 33.8016 7.61364 34.0767 7.58169L33.9902 6.8367ZM33.3335 6.46329L34.016 6.15227C33.9037 5.90593 33.7244 5.66454 33.4469 5.50679C33.1662 5.34719 32.8636 5.31775 32.5882 5.35678L32.6935 6.09936L32.7987 6.84194C32.8114 6.84014 32.8053 6.84263 32.7855 6.83955C32.7641 6.83623 32.7353 6.82771 32.7055 6.81075C32.6414 6.77431 32.6336 6.73593 32.6511 6.7743L33.3335 6.46329ZM32.6935 6.09936L32.5882 5.35678C32.378 5.38657 32.227 5.37028 32.1183 5.33633L31.8948 6.05228L31.6714 6.76823C32.0335 6.88124 32.415 6.89634 32.7987 6.84194L32.6935 6.09936ZM31.8948 6.05228L32.1183 5.33633C31.9469 5.28287 31.784 5.20722 31.6283 5.10801L31.2253 5.74055L30.8224 6.37309C31.0883 6.54255 31.3718 6.67473 31.6714 6.76823L31.8948 6.05228ZM31.2253 5.74055L31.6283 5.10801C31.5566 5.0623 31.4483 4.95941 31.3278 4.73623L30.6679 5.0927L30.008 5.44918C30.209 5.82112 30.4724 6.15013 30.8224 6.37309L31.2253 5.74055ZM30.6679 5.0927L31.3278 4.73623C31.1015 4.31739 30.7517 3.95516 30.2412 3.82517L30.0561 4.55199L29.8711 5.2788C29.8714 5.27888 29.8789 5.27968 29.8977 5.29632C29.9198 5.31584 29.9598 5.35985 30.008 5.44918L30.6679 5.0927ZM30.0561 4.55199L30.2412 3.82517C29.7839 3.70875 29.3323 3.7947 28.924 3.98458L29.2402 4.66465L29.5565 5.34472C29.7418 5.25855 29.8341 5.26939 29.8711 5.2788L30.0561 4.55199ZM29.2402 4.66465L28.924 3.98458C28.8619 4.01345 28.8559 4.00158 28.8902 4.00452C28.9072 4.00597 28.9253 4.0105 28.9414 4.0175C28.9569 4.02425 28.9633 4.03007 28.9608 4.02796L28.4747 4.59914L27.9887 5.17032C28.2025 5.35231 28.4643 5.47356 28.7623 5.49906C29.0518 5.52383 29.3217 5.45387 29.5565 5.34472L29.2402 4.66465ZM28.4747 4.59914L28.9608 4.02796C28.7116 3.81588 28.4479 3.63165 28.1697 3.47705L27.8054 4.13262L27.4411 4.7882C27.6283 4.89224 27.8109 5.01902 27.9887 5.17032L28.4747 4.59914ZM27.8054 4.13262L28.1697 3.47705C27.7543 3.24619 27.2976 3.20388 26.8482 3.33337L27.0559 4.05405L27.2636 4.77472C27.3481 4.75035 27.3911 4.76042 27.4411 4.7882L27.8054 4.13262ZM27.0559 4.05405L26.8482 3.33337C26.6595 3.38776 26.4935 3.40299 26.3452 3.39039L26.2817 4.1377L26.2182 4.885C26.5682 4.91474 26.9183 4.8742 27.2636 4.77472L27.0559 4.05405ZM26.2817 4.1377L26.3452 3.39039C25.9831 3.35963 25.6256 3.41006 25.2791 3.53028L25.525 4.23884L25.7708 4.9474C25.935 4.89042 26.082 4.87343 26.2182 4.885L26.2817 4.1377ZM25.525 4.23884L25.2791 3.53028C25.0773 3.60031 24.8878 3.6406 24.7093 3.65574L24.7727 4.40306L24.8361 5.15037C25.15 5.12374 25.462 5.05456 25.7708 4.9474L25.525 4.23884ZM24.7727 4.40306L24.7093 3.65574C24.7188 3.65493 24.7409 3.65454 24.771 3.66165C24.8018 3.66894 24.8308 3.68171 24.8548 3.69736C24.9017 3.72793 24.8989 3.74835 24.8725 3.69556L24.2017 4.03089L23.5308 4.36623C23.6389 4.58243 23.7985 4.79937 24.0357 4.95399C24.2834 5.11541 24.562 5.17362 24.8361 5.15037L24.7727 4.40306ZM24.2017 4.03089L24.8725 3.69556C24.8143 3.57907 24.7193 3.39299 24.6 3.26451C24.5688 3.23086 24.4817 3.14005 24.3424 3.07583C24.1739 2.99816 23.8497 2.93609 23.5548 3.16332C23.3369 3.33124 23.2841 3.55538 23.2713 3.61244C23.2521 3.69815 23.25 3.77228 23.25 3.8137H24H24.75C24.75 3.82408 24.75 3.8733 24.735 3.94025C24.7264 3.97855 24.6799 4.19007 24.4704 4.35151C24.1839 4.57227 23.8702 4.50987 23.7143 4.43801C23.5877 4.3796 23.5153 4.30075 23.5008 4.2852C23.4605 4.24178 23.4483 4.21463 23.4677 4.2475C23.4807 4.26952 23.5015 4.30755 23.5308 4.36623L24.2017 4.03089ZM24 3.8137H23.25C23.25 3.71365 23.2766 3.61589 23.3239 3.53216C23.3686 3.4532 23.4206 3.40583 23.4513 3.38239C23.5026 3.34305 23.5188 3.35133 23.4371 3.37292L23.6285 4.09807L23.8199 4.82323C23.9858 4.77943 24.1878 4.70763 24.363 4.5735C24.558 4.42422 24.75 4.16809 24.75 3.8137H24ZM23.6289 42.8964L23.8305 42.174C23.3275 42.0336 22.8502 42.1632 22.4509 42.4275L22.8649 43.0529L23.2789 43.6783C23.3461 43.6338 23.3869 43.6217 23.4028 43.6185C23.4149 43.616 23.4197 43.6167 23.4272 43.6188L23.6289 42.8964ZM22.8649 43.0529L22.4509 42.4275C22.4187 42.4488 22.4501 42.4185 22.5278 42.4232C22.5634 42.4253 22.5921 42.4342 22.6104 42.4425C22.6272 42.4501 22.6288 42.4542 22.6165 42.4435L22.1233 43.0086L21.6301 43.5736C21.84 43.7568 22.1118 43.901 22.4383 43.9205C22.7633 43.9399 23.0492 43.8303 23.2789 43.6783L22.8649 43.0529ZM22.1233 43.0086L22.6165 42.4435C22.3446 42.2062 22.0597 42.0083 21.7607 41.8591L21.4259 42.5302L21.0911 43.2014C21.2569 43.2841 21.437 43.405 21.6301 43.5736L22.1233 43.0086ZM21.4259 42.5302L21.7607 41.8591C21.439 41.6986 21.0968 41.6064 20.7394 41.5907L20.7065 42.34L20.6735 43.0893C20.8105 43.0953 20.9479 43.1299 21.0911 43.2014L21.4259 42.5302ZM20.7065 42.34L20.7394 41.5907C20.3727 41.5746 20.0084 41.6456 19.6541 41.779L19.9185 42.4809L20.1829 43.1827C20.3849 43.1066 20.5459 43.0837 20.6735 43.0893L20.7065 42.34ZM19.9185 42.4809L19.6541 41.779C19.4375 41.8606 19.2373 41.9038 19.0515 41.9159L19.1005 42.6643L19.1495 43.4127C19.498 43.3899 19.8431 43.3107 20.1829 43.1827L19.9185 42.4809ZM19.1005 42.6643L19.0515 41.9159C18.9781 41.9207 18.9239 41.9059 18.8546 41.8496L18.3813 42.4313L17.9079 43.0131C18.2634 43.3024 18.6888 43.4429 19.1495 43.4127L19.1005 42.6643ZM18.3813 42.4313L18.8546 41.8496C18.688 41.714 18.5288 41.552 18.3779 41.3607L17.789 41.8252L17.2002 42.2897C17.4141 42.5609 17.6497 42.803 17.9079 43.0131L18.3813 42.4313ZM17.789 41.8252L18.3779 41.3607C18.2108 41.1488 17.9878 40.9723 17.7048 40.8801C17.4239 40.7885 17.1422 40.7991 16.8861 40.8638L17.07 41.5909L17.2539 42.318C17.2751 42.3127 17.2823 42.3133 17.2778 42.3133C17.2723 42.3133 17.2585 42.3123 17.2401 42.3063C17.2216 42.3002 17.2071 42.2919 17.1981 42.2854C17.1899 42.2794 17.1913 42.2785 17.2002 42.2897L17.789 41.8252ZM17.07 41.5909L16.8861 40.8638C16.6867 40.9142 16.5425 40.909 16.4359 40.8819L16.2513 41.6088L16.0668 42.3358C16.4578 42.435 16.8593 42.4178 17.2539 42.318L17.07 41.5909ZM16.2513 41.6088L16.4359 40.8819C16.3975 40.8722 16.3424 40.8498 16.2704 40.7379L15.6398 41.1439L15.0092 41.5499C15.255 41.9317 15.6075 42.2192 16.0668 42.3358L16.2513 41.6088ZM15.6398 41.1439L16.2704 40.7379C16.0239 40.355 15.6696 40.0676 15.2083 39.9527L15.0271 40.6805L14.8459 41.4083C14.8839 41.4178 14.938 41.4393 15.0092 41.5499L15.6398 41.1439ZM15.0271 40.6805L15.2083 39.9527C14.9387 39.8856 14.6612 39.8284 14.376 39.7808L14.2525 40.5205L14.129 41.2603C14.3774 41.3017 14.6163 41.3512 14.8459 41.4083L15.0271 40.6805ZM14.2525 40.5205L14.376 39.7808C14.3778 39.7811 14.3895 39.7834 14.4063 39.7919C14.4236 39.8006 14.4383 39.8117 14.4488 39.8223C14.4692 39.8427 14.4534 39.8395 14.4319 39.7665L13.7124 39.9782L12.9929 40.19C13.0647 40.4339 13.1856 40.6796 13.386 40.8808C13.5935 41.0892 13.8509 41.2139 14.129 41.2603L14.2525 40.5205ZM13.7124 39.9782L14.4319 39.7665C14.301 39.3217 14.0447 38.9038 13.5922 38.6655L13.2427 39.3291L12.8933 39.9927C12.8935 39.9928 12.9016 39.996 12.9174 40.0179C12.9354 40.0428 12.9648 40.0946 12.9929 40.19L13.7124 39.9782ZM13.2427 39.3291L13.5922 38.6655C13.393 38.5606 13.1994 38.4468 13.0112 38.324L12.6013 38.9521L12.1915 39.5802C12.4188 39.7286 12.6528 39.8661 12.8933 39.9927L13.2427 39.3291ZM12.6013 38.9521L13.0112 38.324C12.8568 38.2232 12.7172 38.1045 12.5914 37.9667L12.0374 38.4722L11.4834 38.9778C11.694 39.2086 11.9304 39.4098 12.1915 39.5802L12.6013 38.9521ZM12.0374 38.4722L12.5914 37.9667C12.4335 37.7937 12.2813 37.6162 12.1347 37.4344L11.5508 37.9051L10.9669 38.3758C11.1327 38.5815 11.3049 38.7822 11.4834 38.9778L12.0374 38.4722ZM11.5508 37.9051L12.1347 37.4344C11.7776 36.9913 11.2506 36.8657 10.7675 36.8761L10.7836 37.6259L10.7998 38.3758C10.9115 38.3734 10.967 38.3881 10.9854 38.3948C10.9935 38.3977 10.9925 38.3984 10.9864 38.3941C10.98 38.3897 10.9729 38.3832 10.9669 38.3758L11.5508 37.9051ZM10.7836 37.6259L10.7675 36.8761C10.7204 36.8771 10.6905 36.8737 10.6746 36.8708C10.6591 36.8679 10.66 36.8662 10.6712 36.8717C10.6834 36.8777 10.7012 36.8891 10.719 36.9071C10.7367 36.925 10.7469 36.9418 10.7516 36.9514L10.0767 37.2785L9.40181 37.6057C9.68997 38.2001 10.2685 38.3872 10.7998 38.3758L10.7836 37.6259ZM10.0767 37.2785L10.7516 36.9514C10.6722 36.7877 10.6127 36.596 10.5791 36.3701L9.83728 36.4807L9.09548 36.5914C9.14907 36.9507 9.24918 37.2908 9.40181 37.6057L10.0767 37.2785ZM9.83728 36.4807L10.5791 36.3701C10.5111 35.9141 10.3001 35.4992 9.90715 35.211L9.46364 35.8158L9.02012 36.4206C9.03806 36.4338 9.07621 36.4621 9.09548 36.5914L9.83728 36.4807ZM9.46364 35.8158L9.90715 35.211C9.77422 35.1135 9.66914 35.0011 9.58661 34.8721L8.95486 35.2763L8.32312 35.6806C8.50803 35.9696 8.74213 36.2168 9.02012 36.4206L9.46364 35.8158ZM8.95486 35.2763L9.58661 34.8721C9.35452 34.5094 9.01559 34.2593 8.62722 34.0988L8.34079 34.792L8.05435 35.4851C8.21731 35.5525 8.28776 35.6253 8.32312 35.6806L8.95486 35.2763ZM8.34079 34.792L8.62722 34.0988C8.49051 34.0424 8.45277 33.986 8.43542 33.9503L7.76064 34.2776L7.08587 34.605C7.29071 35.0272 7.63974 35.3138 8.05435 35.4851L8.34079 34.792ZM7.76064 34.2776L8.43542 33.9503C8.37999 33.836 8.34394 33.6916 8.3439 33.5016L7.5939 33.5018L6.8439 33.5019C6.84398 33.8885 6.91909 34.2613 7.08587 34.605L7.76064 34.2776ZM7.5939 33.5018L8.3439 33.5016C8.34382 33.1358 8.28693 32.7824 8.15917 32.4522L7.45971 32.7228L6.76024 32.9935C6.81128 33.1254 6.84385 33.2913 6.8439 33.5019L7.5939 33.5018ZM7.45971 32.7228L8.15917 32.4522C8.05129 32.1733 7.91595 31.9079 7.75356 31.6566L7.12361 32.0636L6.49365 32.4706C6.6006 32.6361 6.68933 32.8102 6.76024 32.9935L7.45971 32.7228ZM7.12361 32.0636L7.75356 31.6566C7.62551 31.4584 7.50207 31.2567 7.38324 31.0516L6.73428 31.4276L6.08531 31.8035C6.21626 32.0296 6.35237 32.2519 6.49365 32.4706L7.12361 32.0636ZM6.73428 31.4276L7.38324 31.0516C7.31801 30.939 7.27908 30.8145 7.26916 30.6677L6.52086 30.7183L5.77257 30.7688C5.79743 31.1366 5.90078 31.485 6.08531 31.8035L6.73428 31.4276ZM6.52086 30.7183L7.26916 30.6677C7.23905 30.2222 7.05361 29.8313 6.74803 29.5158L6.20931 30.0376L5.6706 30.5594C5.74564 30.6369 5.7679 30.6997 5.77257 30.7688L6.52086 30.7183ZM6.20931 30.0376L6.74803 29.5158C6.60424 29.3673 6.49356 29.2139 6.41088 29.0559L5.74633 29.4035L5.08177 29.7512C5.23579 30.0456 5.43377 30.3149 5.6706 30.5594L6.20931 30.0376ZM5.74633 29.4035L6.41088 29.0559C6.30052 28.8449 6.19744 28.6302 6.10164 28.4117L5.41475 28.7128L4.72786 29.014C4.83746 29.264 4.95543 29.5097 5.08177 29.7512L5.74633 29.4035ZM5.41475 28.7128L6.10164 28.4117C6.03542 28.2606 5.99872 28.1051 5.99042 27.9408L5.24137 27.9786L4.49233 28.0164C4.50981 28.3626 4.58869 28.6965 4.72786 29.014L5.41475 28.7128ZM5.24137 27.9786L5.99042 27.9408C5.97301 27.5961 5.89533 27.2625 5.7598 26.9438L5.0696 27.2372L4.37939 27.5307C4.44712 27.69 4.48396 27.8507 4.49233 28.0164L5.24137 27.9786ZM5.0696 27.2372L5.7598 26.9438C5.67533 26.7451 5.61004 26.5435 5.56339 26.3386L4.83209 26.505L4.1008 26.6714C4.16756 26.9648 4.26061 27.2513 4.37939 27.5307L5.0696 27.2372ZM4.83209 26.505L5.56339 26.3386C5.53121 26.1972 5.52892 26.051 5.56128 25.8926L4.82644 25.7425L4.09161 25.5924C4.0181 25.9524 4.01956 26.3145 4.1008 26.6714L4.83209 26.505ZM4.82644 25.7425L5.56128 25.8926C5.61438 25.6325 5.66646 25.3753 5.71749 25.1209L4.98214 24.9734L4.24679 24.8259C4.19611 25.0785 4.14438 25.334 4.09161 25.5924L4.82644 25.7425ZM4.98214 24.9734L5.71749 25.1209C5.78044 24.8071 5.80389 24.4918 5.78604 24.1766L5.03724 24.219L4.28844 24.2614C4.29884 24.445 4.28556 24.6326 4.24679 24.8259L4.98214 24.9734ZM5.03724 24.219L5.78604 24.1766C5.77854 24.0441 5.79993 23.9069 5.86013 23.758L5.1648 23.4769L4.46946 23.1958C4.33134 23.5375 4.26769 23.895 4.28844 24.2614L5.03724 24.219ZM5.1648 23.4769L5.86013 23.758C5.97927 23.4633 6.06412 23.1634 6.11158 22.859L5.37053 22.7434L4.62948 22.6279C4.60095 22.8109 4.54865 23 4.46946 23.1958L5.1648 23.4769ZM5.37053 22.7434L6.11158 22.859C6.17841 22.4303 6.08558 22.0173 5.89465 21.6416L5.22604 21.9814L4.55743 22.3212C4.63515 22.4741 4.63864 22.5691 4.62948 22.6279L5.37053 22.7434ZM5.22604 21.9814L5.89465 21.6416C5.88244 21.6176 5.87756 21.6023 5.87576 21.5955C5.87407 21.5891 5.87494 21.5895 5.87495 21.5954C5.87496 21.6015 5.87402 21.608 5.87263 21.613C5.87133 21.6177 5.87093 21.6165 5.87537 21.6087L5.22468 21.2358L4.57399 20.8628C4.29997 21.3409 4.32277 21.8594 4.55743 22.3212L5.22604 21.9814ZM5.22468 21.2358L5.87537 21.6087C6.07262 21.2646 6.175 20.8876 6.16668 20.4896L5.41684 20.5053L4.667 20.5209C4.66931 20.6314 4.64359 20.7414 4.57399 20.8628L5.22468 21.2358ZM5.41684 20.5053L6.16668 20.4896C6.16339 20.3323 6.18944 20.1852 6.24465 20.0427L5.5453 19.7718L4.84595 19.5008C4.71925 19.8278 4.65966 20.1698 4.667 20.5209L5.41684 20.5053ZM5.5453 19.7718L6.24465 20.0427C6.34985 19.7712 6.4328 19.4937 6.49318 19.2107L5.75969 19.0542L5.02619 18.8977C4.98263 19.1019 4.92266 19.3028 4.84595 19.5008L5.5453 19.7718ZM5.75969 19.0542L6.49318 19.2107C6.52904 19.0426 6.58985 18.8817 6.67767 18.7258L6.02423 18.3576L5.37078 17.9895C5.20982 18.2753 5.09427 18.5787 5.02619 18.8977L5.75969 19.0542ZM6.02423 18.3576L6.67767 18.7258C6.81521 18.4816 6.9381 18.2329 7.04606 17.9797L6.35616 17.6856L5.66626 17.3914C5.58042 17.5927 5.48202 17.7921 5.37078 17.9895L6.02423 18.3576ZM6.35616 17.6856L7.04606 17.9797C7.20909 17.5974 7.23597 17.19 7.16739 16.7862L6.42798 16.9118L5.68857 17.0374C5.71803 17.2108 5.69702 17.3192 5.66626 17.3914L6.35616 17.6856ZM6.42798 16.9118L7.16739 16.7862C7.15692 16.7245 7.162 16.6933 7.16451 16.6826C7.16646 16.6743 7.16957 16.6652 7.18221 16.6496L6.60026 16.1765L6.01831 15.7034C5.70004 16.0949 5.6085 16.5659 5.68857 17.0374L6.42798 16.9118ZM6.60026 16.1765L7.18221 16.6496C7.35276 16.4398 7.51679 16.229 7.67424 16.0171L7.07226 15.5698L6.47027 15.1224C6.32615 15.3164 6.17551 15.51 6.01831 15.7034L6.60026 16.1765ZM7.07226 15.5698L7.67424 16.0171C7.90236 15.7101 8.0426 15.3603 8.09943 14.982L7.35775 14.8706L6.61607 14.7592C6.59382 14.9073 6.54373 15.0236 6.47027 15.1224L7.07226 15.5698ZM7.35775 14.8706L8.09943 14.982C8.13284 14.7596 8.18354 14.5463 8.25106 14.3415L7.53878 14.1066L6.82651 13.8718C6.73174 14.1592 6.66174 14.4552 6.61607 14.7592L7.35775 14.8706ZM7.53878 14.1066L8.25106 14.3415C8.25442 14.3313 8.25656 14.3288 8.26126 14.3242C8.2686 14.317 8.29547 14.2939 8.36296 14.2674L8.08882 13.5693L7.81467 12.8712C7.36378 13.0483 6.99062 13.3741 6.82651 13.8718L7.53878 14.1066ZM8.08882 13.5693L8.36296 14.2674C8.82755 14.085 9.20091 13.7406 9.34628 13.2214L8.62405 13.0192L7.90182 12.817C7.89974 12.8244 7.89831 12.8264 7.89894 12.8253C7.89964 12.8241 7.90023 12.8236 7.89923 12.8247C7.89767 12.8263 7.87762 12.8465 7.81467 12.8712L8.08882 13.5693ZM8.62405 13.0192L9.34628 13.2214C9.36963 13.138 9.40664 13.0882 9.47445 13.043L9.05842 12.419L8.6424 11.7949C8.27361 12.0408 8.02104 12.3911 7.90182 12.817L8.62405 13.0192ZM9.05842 12.419L9.47445 13.043C9.91191 12.7514 10.1294 12.3044 10.1757 11.8169L9.42905 11.746L8.68241 11.6751C8.67591 11.7435 8.66172 11.7727 8.65785 11.7798C8.65576 11.7835 8.65441 11.7851 8.65361 11.786C8.65274 11.7869 8.64974 11.79 8.6424 11.7949L9.05842 12.419ZM9.42905 11.746L10.1757 11.8169C10.1821 11.7489 10.1962 11.7216 10.1988 11.7169C10.1996 11.7154 10.2002 11.7147 10.2003 11.7145C10.2004 11.7143 10.2005 11.7142 10.2005 11.7141C10.2006 11.7141 10.2011 11.7136 10.2022 11.7126C10.2034 11.7117 10.2055 11.7101 10.2088 11.7079L9.80117 11.0783L9.39349 10.4488C8.94865 10.7369 8.72884 11.1862 8.68241 11.6751L9.42905 11.746ZM9.80117 11.0783L10.2088 11.7079C10.3277 11.6309 10.4875 11.5666 10.7057 11.5308L10.584 10.7907L10.4624 10.0506C10.0753 10.1143 9.71324 10.2418 9.39349 10.4488L9.80117 11.0783ZM10.584 10.7907L10.7057 11.5308C11.2433 11.4424 11.6885 11.1251 11.884 10.5748L11.1773 10.3238L10.4706 10.0727C10.4677 10.0808 10.4673 10.0788 10.4726 10.0713C10.4751 10.0677 10.4784 10.0635 10.4826 10.0591C10.4868 10.0547 10.4911 10.0507 10.4954 10.0473C10.5045 10.0402 10.5096 10.0385 10.5065 10.0397C10.5029 10.0412 10.4894 10.0462 10.4624 10.0506L10.584 10.7907ZM11.1773 10.3238L11.884 10.5748C11.9227 10.4658 11.9689 10.4242 12.0166 10.3972L11.6473 9.74439L11.278 9.09162C10.8849 9.31402 10.6177 9.6586 10.4706 10.0727L11.1773 10.3238ZM11.6473 9.74439L12.0166 10.3972C12.4118 10.1736 12.6784 9.82528 12.8337 9.41513L12.1323 9.14956L11.4309 8.88399C11.3803 9.01757 11.3236 9.06582 11.278 9.09162L11.6473 9.74439ZM12.1323 9.14956L12.8337 9.41513C12.8424 9.39209 12.8497 9.37937 12.8534 9.37381C12.8568 9.36858 12.8574 9.36878 12.8545 9.37143C12.8515 9.37419 12.8484 9.37615 12.8471 9.37688C12.8459 9.37746 12.8501 9.37505 12.8623 9.37202L12.6823 8.64395L12.5023 7.91587C11.9802 8.04495 11.6139 8.40068 11.4309 8.88399L12.1323 9.14956ZM12.6823 8.64395L12.8623 9.37202C13.0995 9.31338 13.3413 9.26734 13.5877 9.23402L13.4872 8.49079L13.3867 7.74755C13.0875 7.78801 12.7926 7.84409 12.5023 7.91587L12.6823 8.64395ZM13.4872 8.49079L13.5877 9.23402C13.856 9.19775 14.1118 9.09196 14.3275 8.90406C14.5385 8.72024 14.6759 8.48872 14.7632 8.25111L14.0592 7.99253L13.3552 7.73395C13.3446 7.7627 13.3361 7.77712 13.3331 7.78178C13.3304 7.78592 13.3328 7.78123 13.3422 7.77305C13.352 7.76454 13.3638 7.75703 13.3756 7.75189C13.3869 7.74695 13.3919 7.74685 13.3867 7.74755L13.4872 8.49079ZM14.0592 7.99253L14.7632 8.25111C14.7907 8.17627 14.8152 8.14605 14.8225 8.13812C14.8261 8.13426 14.8272 8.13381 14.8261 8.13457C14.8249 8.13534 14.825 8.13496 14.8282 8.13383L14.5837 7.42481L14.3392 6.71579C13.8359 6.88938 13.5215 7.28115 13.3552 7.73395L14.0592 7.99253ZM14.5837 7.42481L14.8282 8.13383C15.0471 8.05835 15.2695 7.99321 15.4955 7.93843L15.3189 7.20954L15.1422 6.48065C14.8705 6.5465 14.6028 6.62488 14.3392 6.71579L14.5837 7.42481ZM15.3189 7.20954L15.4955 7.93843C15.7928 7.86639 16.0778 7.76612 16.3495 7.63693L16.0275 6.9596L15.7054 6.28226C15.53 6.3657 15.3426 6.43206 15.1422 6.48065L15.3189 7.20954ZM16.0275 6.9596L16.3495 7.63693C16.5483 7.54242 16.7517 7.45907 16.9599 7.38683L16.714 6.67827L16.4682 5.96972C16.2081 6.05995 15.9539 6.16414 15.7054 6.28226L16.0275 6.9596ZM16.714 6.67827L16.9599 7.38683C17.191 7.30664 17.4222 7.22807 17.6535 7.15111L17.4167 6.43947L17.1799 5.72783C16.9425 5.80681 16.7053 5.88744 16.4682 5.96972L16.714 6.67827ZM17.4167 6.43947L17.6535 7.15111C17.8349 7.09074 18.0234 7.05025 18.22 7.03006L18.1434 6.28398L18.0668 5.53791C17.7632 5.56909 17.4672 5.63225 17.1799 5.72783L17.4167 6.43947ZM18.1434 6.28398L18.22 7.03006C18.5318 6.99804 18.8342 6.92826 19.1253 6.81997L18.8638 6.11703L18.6023 5.41409C18.4331 5.47703 18.2552 5.51856 18.0668 5.53791L18.1434 6.28398ZM18.8638 6.11703L19.1253 6.81997C19.4831 6.68686 19.793 6.4626 20.059 6.18073L19.5136 5.66593L18.9682 5.15113C18.8281 5.29949 18.7048 5.37597 18.6023 5.41409L18.8638 6.11703ZM19.5136 5.66593L20.059 6.18073C20.0727 6.16624 20.0783 6.16345 20.0744 6.16595C20.0697 6.16887 20.0581 6.17517 20.0406 6.17994C20.0228 6.18476 20.0071 6.18585 19.9964 6.1854C19.9864 6.18498 19.9865 6.18349 19.9986 6.18732L20.2254 5.47241L20.4521 4.75751C20.2012 4.67794 19.9257 4.65673 19.647 4.73249C19.3704 4.80771 19.1451 4.96367 18.9682 5.15113L19.5136 5.66593ZM20.2254 5.47241L19.9986 6.18732C20.2661 6.27216 20.5567 6.2844 20.8446 6.18999C21.125 6.09804 21.3469 5.92342 21.5185 5.72642L20.9529 5.23379L20.3874 4.74116C20.3454 4.78935 20.3393 4.77709 20.3771 4.76469C20.3956 4.75864 20.4154 4.75577 20.4331 4.756C20.4501 4.75621 20.4572 4.75913 20.4521 4.75751L20.2254 5.47241ZM20.9529 5.23379L21.5185 5.72642C21.5711 5.66596 21.5985 5.65535 21.5937 5.65745C21.591 5.65864 21.5842 5.66112 21.5746 5.66244C21.5702 5.66304 21.5663 5.66325 21.5632 5.66324C21.5602 5.66323 21.5586 5.663 21.5587 5.66302L21.6622 4.9202L21.7657 4.17737C21.1933 4.09762 20.7215 4.35769 20.3874 4.74116L20.9529 5.23379ZM21.6622 4.9202L21.5587 5.66302C21.8552 5.70433 22.1499 5.72273 22.4422 5.71751L22.4289 4.96763L22.4155 4.21775C22.2042 4.22152 21.9878 4.20831 21.7657 4.17737L21.6622 4.9202ZM22.4289 4.96763L22.4422 5.71751C22.6155 5.71442 22.7928 5.73786 22.9765 5.7912L23.1856 5.07094L23.3947 4.35068C23.073 4.25728 22.7458 4.21185 22.4155 4.21775L22.4289 4.96763ZM23.1856 5.07094L22.9765 5.7912C23.3566 5.90155 23.7457 5.9089 24.129 5.80785L23.9378 5.08263L23.7466 4.35741C23.6324 4.38751 23.5201 4.38707 23.3947 4.35068L23.1856 5.07094ZM23.9378 5.08263L24.129 5.80785C24.3398 5.75226 24.551 5.71415 24.7627 5.69318L24.6888 4.94683L24.6149 4.20048C24.3227 4.22943 24.0331 4.28186 23.7466 4.35741L23.9378 5.08263ZM24.6888 4.94683L24.7627 5.69318C25.0261 5.66709 25.2913 5.63473 25.5584 5.59612L25.451 4.85384L25.3437 4.11155C25.0984 4.14702 24.8554 4.17666 24.6149 4.20048L24.6888 4.94683ZM25.451 4.85384L25.5584 5.59612C25.7389 5.57002 25.9137 5.57223 26.0856 5.60135L26.2108 4.86189L26.3361 4.12242C26.0074 4.06673 25.6756 4.06358 25.3437 4.11155L25.451 4.85384ZM26.2108 4.86189L26.0856 5.60135C26.3954 5.65383 26.7095 5.66892 27.0267 5.64765L26.9766 4.89933L26.9264 4.15101C26.7233 4.16463 26.5269 4.15475 26.3361 4.12242L26.2108 4.86189ZM26.9766 4.89933L27.0267 5.64765C27.0233 5.64789 27.015 5.64783 27.0045 5.6455C26.994 5.64318 26.9877 5.64004 26.9866 5.63948C26.9858 5.63905 27.0175 5.65629 27.0719 5.72859L27.6712 5.27765L28.2705 4.82671C27.9656 4.42156 27.513 4.11169 26.9264 4.15101L26.9766 4.89933ZM27.6712 5.27765L27.0719 5.72859C27.3354 6.07879 27.6743 6.3739 28.1067 6.5082L28.3291 5.79196L28.5516 5.07572C28.5125 5.06356 28.4128 5.0158 28.2705 4.82671L27.6712 5.27765ZM28.3291 5.79196L28.1067 6.5082C28.3987 6.59892 28.6993 6.65483 29.0072 6.67655L29.06 5.92841L29.1128 5.18027C28.9176 5.16651 28.731 5.13145 28.5516 5.07572L28.3291 5.79196ZM29.06 5.92841L29.0072 6.67655C29.2918 6.69663 29.5826 6.69817 29.8793 6.6819L29.8382 5.93303L29.7971 5.18415C29.5591 5.19721 29.3312 5.19568 29.1128 5.18027L29.06 5.92841ZM29.8382 5.93303L29.8793 6.6819C30.0781 6.67099 30.2625 6.68775 30.4355 6.72908L30.6098 5.99963L30.7842 5.27018C30.4629 5.19338 30.1329 5.16573 29.7971 5.18415L29.8382 5.93303ZM30.6098 5.99963L30.4355 6.72908C30.5858 6.76502 30.725 6.82846 30.8572 6.92365L31.2955 6.31505L31.7338 5.70644C31.446 5.49922 31.1281 5.35238 30.7842 5.27018L30.6098 5.99963ZM31.2955 6.31505L30.8572 6.92365C31.1045 7.10177 31.3643 7.25439 31.6362 7.38037L31.9515 6.69985L32.2667 6.01933C32.084 5.93465 31.9064 5.83073 31.7338 5.70644L31.2955 6.31505ZM31.9515 6.69985L31.6362 7.38037C31.9246 7.51399 32.2296 7.60854 32.5486 7.66581L32.6812 6.92761L32.8137 6.18942C32.6145 6.15366 32.433 6.09637 32.2667 6.01933L31.9515 6.69985ZM32.6812 6.92761L32.5486 7.66581C32.7653 7.70471 32.973 7.76114 33.1722 7.83474L33.4321 7.1312L33.6919 6.42765C33.4082 6.32284 33.1152 6.24354 32.8137 6.18942L32.6812 6.92761ZM33.4321 7.1312L33.1722 7.83474C33.1772 7.83657 33.2225 7.84503 33.2795 7.98285L33.9726 7.69635L34.6658 7.40985C34.485 6.97255 34.17 6.60424 33.6919 6.42765L33.4321 7.1312ZM33.9726 7.69635L33.2795 7.98285C33.3821 8.23097 33.5457 8.46741 33.7945 8.63838C34.0449 8.81052 34.3265 8.8784 34.5998 8.87948L34.6028 8.12948L34.6057 7.37949C34.5899 7.37943 34.5893 7.37756 34.5993 7.38041C34.6103 7.38354 34.6268 7.39028 34.6442 7.40224C34.6614 7.41409 34.6716 7.42559 34.6756 7.43081C34.679 7.43525 34.6743 7.4304 34.6658 7.40985L33.9726 7.69635ZM34.6028 8.12948L34.5998 8.87948C34.6165 8.87954 34.6163 8.88152 34.6043 8.87808C34.5911 8.87431 34.5707 8.86603 34.5488 8.85059C34.5269 8.83517 34.5125 8.81901 34.5049 8.80845C34.498 8.79884 34.5002 8.79871 34.5062 8.81522L35.2106 8.55749L35.9149 8.29975C35.8222 8.04634 35.664 7.8013 35.4124 7.62416C35.1606 7.44682 34.8763 7.38055 34.6057 7.37949L34.6028 8.12948ZM35.2106 8.55749L34.5062 8.81522C34.6008 9.07373 34.7626 9.3178 35.0145 9.49445C35.2644 9.66971 35.5465 9.73892 35.8162 9.74631L35.8368 8.99659L35.8573 8.24687C35.8346 8.24625 35.8286 8.24352 35.8346 8.2453C35.8417 8.24738 35.8572 8.25334 35.8757 8.2663C35.8944 8.27939 35.9075 8.29365 35.915 8.30399C35.9219 8.31347 35.9202 8.31433 35.9149 8.29975L35.2106 8.55749ZM35.8368 8.99659L35.8162 9.74631C36.0051 9.75148 36.0944 9.79837 36.1407 9.83515L36.6071 9.24787L37.0736 8.66058C36.7197 8.3795 36.2954 8.25887 35.8573 8.24687L35.8368 8.99659ZM36.6071 9.24787L36.1407 9.83515C36.1289 9.82582 36.1304 9.81971 36.1386 9.84013C36.1489 9.86607 36.1663 9.9277 36.1686 10.0428L36.9185 10.0273L37.6683 10.0118C37.6582 9.52372 37.5119 9.0087 37.0736 8.66058L36.6071 9.24787ZM36.9185 10.0273L36.1686 10.0428C36.1796 10.575 36.3894 11.1535 37.0042 11.415L37.2978 10.7248L37.5913 10.0347C37.6021 10.0393 37.6203 10.0492 37.6396 10.0668C37.659 10.0843 37.6713 10.102 37.6778 10.1139C37.6837 10.1247 37.6817 10.1251 37.678 10.1086C37.6741 10.0917 37.6693 10.0606 37.6683 10.0118L36.9185 10.0273ZM37.2978 10.7248L37.0042 11.415C37.175 11.4877 37.315 11.579 37.4309 11.6866L37.9411 11.1369L38.4513 10.5872C38.2002 10.3542 37.9113 10.1708 37.5913 10.0347L37.2978 10.7248ZM37.9411 11.1369L37.4309 11.6866C37.5031 11.7536 37.5632 11.8451 37.6024 11.9871L38.3254 11.7877L39.0484 11.5882C38.9422 11.2032 38.7462 10.8609 38.4513 10.5872L37.9411 11.1369ZM38.3254 11.7877L37.6024 11.9871C37.6773 12.2587 37.8271 12.5021 38.0548 12.6882C38.2752 12.8681 38.5319 12.9648 38.7829 13.0125L38.9227 12.2756L39.0625 11.5388C38.9881 11.5246 38.9825 11.5091 39.0037 11.5265C39.0146 11.5353 39.0264 11.548 39.036 11.5631C39.0405 11.5701 39.0436 11.5763 39.0457 11.5811C39.0477 11.5857 39.0484 11.5883 39.0484 11.5882L38.3254 11.7877ZM38.9227 12.2756L38.7829 13.0125C38.9895 13.0517 39.0576 13.1155 39.0799 13.1423L39.6559 12.662L40.232 12.1817C39.9278 11.8168 39.507 11.6231 39.0625 11.5388L38.9227 12.2756ZM39.6559 12.662L39.0799 13.1423C39.0681 13.1282 39.0685 13.1178 39.071 13.133C39.0745 13.1547 39.0783 13.2137 39.0547 13.3232L39.788 13.4808L40.5212 13.6385C40.6243 13.1592 40.5962 12.6186 40.232 12.1817L39.6559 12.662ZM39.788 13.4808L39.0547 13.3232C38.9524 13.7992 38.9774 14.35 39.3633 14.7839L39.9237 14.2855L40.4842 13.7871C40.4916 13.7954 40.498 13.8053 40.5023 13.8145C40.5064 13.8234 40.5061 13.8263 40.505 13.8197C40.5023 13.8038 40.4976 13.7484 40.5212 13.6385L39.788 13.4808ZM39.9237 14.2855L39.3633 14.7839C39.4778 14.9126 39.5679 15.0529 39.6357 15.2067L40.3219 14.904L41.0081 14.6013C40.8766 14.3033 40.7013 14.0312 40.4842 13.7871L39.9237 14.2855ZM40.3219 14.904L39.6357 15.2067C39.7921 15.5611 40.0368 15.8547 40.3443 16.0895L40.7995 15.4935L41.2547 14.8974C41.1248 14.7982 41.0511 14.6988 41.0081 14.6013L40.3219 14.904ZM40.7995 15.4935L40.3443 16.0895C40.4399 16.1625 40.4749 16.2277 40.4914 16.2941L41.2193 16.1131L41.9471 15.9321C41.8412 15.5063 41.5964 15.1584 41.2547 14.8974L40.7995 15.4935ZM41.2193 16.1131L40.4914 16.2941C40.5847 16.669 40.7696 17.0014 41.0315 17.2851L41.5826 16.7763L42.1336 16.2676C42.0336 16.1592 41.9763 16.0494 41.9471 15.9321L41.2193 16.1131ZM41.5826 16.7763L41.0315 17.2851C41.0771 17.3344 41.0933 17.3747 41.0908 17.4493L41.8404 17.4747L42.5899 17.5001C42.6057 17.0357 42.4501 16.6104 42.1336 16.2676L41.5826 16.7763ZM41.8404 17.4747L41.0908 17.4493C41.0758 17.8919 41.2074 18.3044 41.4808 18.6549L42.0721 18.1936L42.6635 17.7323C42.6096 17.6633 42.5867 17.5965 42.5899 17.5001L41.8404 17.4747ZM42.0721 18.1936L41.4808 18.6549C41.508 18.6899 41.5195 18.7136 41.5068 18.7857L42.2453 18.9165L42.9838 19.0474C43.0674 18.5751 42.9635 18.117 42.6635 17.7323L42.0721 18.1936ZM42.2453 18.9165L41.5068 18.7857C41.4489 19.1123 41.429 19.4351 41.4519 19.7518L42.1999 19.6977L42.9479 19.6436C42.9349 19.4631 42.9452 19.265 42.9838 19.0474L42.2453 18.9165ZM42.1999 19.6977L41.4519 19.7518C41.4824 20.1745 41.6512 20.5515 41.9148 20.8729L42.4947 20.3974L43.0747 19.9218C42.9811 19.8076 42.9533 19.7182 42.9479 19.6436L42.1999 19.6977ZM42.4947 20.3974L41.9148 20.8729C41.9428 20.9072 41.9444 20.9215 41.9433 20.9171C41.9431 20.916 41.9432 20.9156 41.9432 20.9175C41.9432 20.9196 41.9429 20.9272 41.9395 20.9414L42.6689 21.1158L43.3984 21.2903C43.5184 20.7883 43.3935 20.3107 43.0747 19.9218L42.4947 20.3974ZM42.6689 21.1158L41.9395 20.9414C41.8082 21.4906 41.9948 21.985 42.3482 22.3619L42.8953 21.8489L43.4424 21.3359C43.3968 21.2873 43.3929 21.2658 43.3953 21.2737C43.3964 21.2774 43.3976 21.2832 43.3977 21.2893C43.3979 21.2952 43.397 21.2961 43.3984 21.2903L42.6689 21.1158ZM42.8953 21.8489L42.3482 22.3619C42.3729 22.3883 42.3369 22.3606 42.3287 22.2817C42.3249 22.2458 42.3291 22.2159 42.3342 22.1968C42.3389 22.1793 42.3426 22.1774 42.3337 22.1918L42.9724 22.5849L43.6112 22.978C43.7566 22.7417 43.8546 22.4505 43.8205 22.1254C43.7865 21.8012 43.631 21.5371 43.4424 21.3359L42.8953 21.8489ZM42.9724 22.5849L42.3337 22.1918C42.2002 22.4087 42.1056 22.6604 42.0933 22.9396C42.0809 23.223 42.1554 23.4867 42.2875 23.7182L42.9389 23.3465L43.5904 22.9749C43.5854 22.9662 43.5867 22.9662 43.5888 22.9742C43.5898 22.978 43.5908 22.983 43.5914 22.9887C43.592 22.9945 43.5921 23.0002 43.5919 23.0056C43.5914 23.0168 43.5894 23.0217 43.5905 23.0186C43.5917 23.0148 43.5968 23.0014 43.6112 22.978L42.9724 22.5849ZM42.9389 23.3465L42.2875 23.7182C42.2928 23.7275 42.2909 23.7266 42.2882 23.7161C42.2853 23.705 42.2833 23.6894 42.2843 23.672C42.2853 23.6548 42.2887 23.6438 42.2899 23.6407C42.2907 23.6384 42.2881 23.6464 42.2757 23.6648L42.8968 24.0852L43.5179 24.5056C43.6614 24.2935 43.7656 24.0418 43.7819 23.7574C43.7983 23.4699 43.7215 23.2047 43.5904 22.9749L42.9389 23.3465ZM42.8968 24.0852L42.2757 23.6648C42.1112 23.9079 42.0106 24.2059 42.044 24.5368C42.0763 24.8564 42.2249 25.1221 42.3998 25.33L42.9736 24.8471L43.5475 24.3642C43.5035 24.3119 43.5298 24.3206 43.5364 24.3862C43.5397 24.4187 43.5363 24.4504 43.5289 24.4765C43.5219 24.5011 43.5143 24.5109 43.5179 24.5056L42.8968 24.0852ZM42.9736 24.8471L42.3998 25.33C42.539 25.4955 42.537 25.5757 42.5365 25.5877L43.2858 25.6194L44.0352 25.6511C44.0562 25.1537 43.8461 24.7191 43.5475 24.3642L42.9736 24.8471ZM43.2858 25.6194L42.5365 25.5877C42.5287 25.7731 42.4957 25.9558 42.4363 26.1377L43.1493 26.3703L43.8623 26.603C43.9635 26.293 44.0215 25.9752 44.0352 25.6511L43.2858 25.6194ZM43.1493 26.3703L42.4363 26.1377C42.3892 26.282 42.3068 26.4333 42.1742 26.5915L42.7491 27.0732L43.324 27.5549C43.5645 27.2678 43.7489 26.9505 43.8623 26.603L43.1493 26.3703ZM42.7491 27.0732L42.1742 26.5915C41.897 26.9224 41.7217 27.3168 41.7082 27.7619L42.4579 27.7846L43.2075 27.8073C43.2093 27.7492 43.2281 27.6693 43.324 27.5549L42.7491 27.0732ZM42.4579 27.7846L41.7082 27.7619C41.7041 27.8985 41.6709 28.0262 41.6046 28.1529L42.269 28.5009L42.9333 28.8488C43.1036 28.5237 43.1964 28.1739 43.2075 27.8073L42.4579 27.7846ZM42.269 28.5009L41.6046 28.1529C41.4708 28.4083 41.356 28.6689 41.2606 28.9345L41.9665 29.1879L42.6724 29.4412C42.7437 29.2426 42.8305 29.0452 42.9333 28.8488L42.269 28.5009ZM41.9665 29.1879L41.2606 28.9345C41.1183 29.3311 41.1204 29.7443 41.2199 30.1455L41.9478 29.9651L42.6758 29.7847C42.6335 29.6139 42.6481 29.509 42.6724 29.4412L41.9665 29.1879ZM41.9478 29.9651L41.2199 30.1455C41.2775 30.3783 41.3049 30.5976 41.3058 30.8049L42.0558 30.8019L42.8057 30.799C42.8044 30.4625 42.7599 30.124 42.6758 29.7847L41.9478 29.9651ZM42.0558 30.8019L41.3058 30.8049C41.3057 30.7999 41.3065 30.7843 41.3136 30.7626C41.3207 30.7405 41.3312 30.7217 41.3413 30.7084C41.3601 30.6836 41.3584 30.7017 41.2808 30.7366L41.5884 31.4206L41.896 32.1046C42.1311 31.9989 42.3636 31.8437 42.5382 31.6125C42.7204 31.3713 42.8069 31.0899 42.8057 30.799L42.0558 30.8019ZM41.5884 31.4206L41.2808 30.7366C41.0413 30.8443 40.804 31.0055 40.6306 31.2486C40.4499 31.5019 40.3756 31.7926 40.3879 32.0846L41.1372 32.0531L41.8865 32.0215C41.8866 32.0226 41.8869 32.0367 41.8806 32.0589C41.8742 32.0818 41.8636 32.1031 41.8517 32.1198C41.8286 32.1521 41.8229 32.1375 41.896 32.1046L41.5884 31.4206ZM41.1372 32.0531L40.3879 32.0846C40.3935 32.2182 40.3632 32.2935 40.3234 32.3493L40.9342 32.7845L41.545 33.2197C41.7996 32.8624 41.9046 32.45 41.8865 32.0215L41.1372 32.0531ZM40.9342 32.7845L40.3234 32.3493C40.1488 32.5944 39.9989 32.8535 39.8743 33.1261L40.5563 33.438L41.2384 33.7498C41.3233 33.5643 41.4253 33.3877 41.545 33.2197L40.9342 32.7845ZM40.5563 33.438L39.8743 33.1261C39.7481 33.4022 39.6493 33.693 39.5769 33.9973L40.3065 34.1711L41.0361 34.3449C41.0873 34.1299 41.1551 33.932 41.2384 33.7498L40.5563 33.438ZM40.3065 34.1711L39.5769 33.9973C39.5786 33.9902 39.5836 33.9745 39.5953 33.9555C39.6071 33.9362 39.6206 33.9221 39.6309 33.9134C39.6405 33.9055 39.6426 33.9063 39.6303 33.9117C39.6176 33.9174 39.5921 33.9268 39.5495 33.9359L39.7068 34.6692L39.8641 35.4026C40.3852 35.2908 40.8865 34.9728 41.0361 34.3449L40.3065 34.1711ZM39.7068 34.6692L39.5495 33.9359C39.2541 33.9993 38.9242 34.1546 38.7154 34.4896C38.5125 34.8151 38.5106 35.1727 38.5637 35.4577L39.301 35.3202L40.0383 35.1827C40.024 35.1062 40.056 35.1746 39.9884 35.2831C39.9554 35.336 39.9145 35.3711 39.8827 35.3905C39.8544 35.4078 39.8428 35.4071 39.8641 35.4026L39.7068 34.6692ZM39.301 35.3202L38.5637 35.4577C38.5731 35.5082 38.575 35.5417 38.5747 35.5608C38.5745 35.5794 38.5722 35.5802 38.5757 35.5685C38.5796 35.5556 38.5883 35.5348 38.6048 35.5121C38.6214 35.4895 38.6388 35.4746 38.6504 35.4667L39.0722 36.0869L39.4939 36.7071C40.0551 36.3255 40.1357 35.7047 40.0383 35.1827L39.301 35.3202ZM39.0722 36.0869L38.6504 35.4667C38.3247 35.6882 38.0695 35.9797 37.8952 36.3331L38.5678 36.6649L39.2404 36.9967C39.2986 36.8786 39.3797 36.7848 39.4939 36.7071L39.0722 36.0869ZM38.5678 36.6649L37.8952 36.3331C37.8942 36.3351 37.8954 36.3321 37.8998 36.3273C37.9041 36.3223 37.9079 36.3195 37.9087 36.319C37.91 36.3182 37.8848 36.3351 37.8082 36.3464L37.9173 37.0884L38.0264 37.8304C38.5266 37.7569 38.9904 37.5035 39.2404 36.9967L38.5678 36.6649ZM37.9173 37.0884L37.8082 36.3464C37.3469 36.4142 36.9063 36.617 36.611 37.0304L37.2212 37.4664L37.8315 37.9024C37.8356 37.8966 37.8423 37.8883 37.8632 37.877C37.8871 37.864 37.9368 37.8436 38.0264 37.8304L37.9173 37.0884ZM37.2212 37.4664L36.611 37.0304C36.5108 37.1706 36.3933 37.2889 36.2567 37.3881L36.6974 37.995L37.138 38.6019C37.4065 38.407 37.6382 38.1729 37.8315 37.9024L37.2212 37.4664ZM36.6974 37.995L36.2567 37.3881C35.9534 37.6083 35.7158 37.8932 35.5408 38.2265L36.2049 38.575L36.869 38.9235C36.9456 38.7776 37.0363 38.6758 37.138 38.6019L36.6974 37.995ZM36.2049 38.575L35.5408 38.2265C35.4317 38.4344 35.3103 38.6297 35.1768 38.8128L35.7828 39.2547L36.3888 39.6966C36.5666 39.4527 36.7266 39.1949 36.869 38.9235L36.2049 38.575ZM35.7828 39.2547L35.1768 38.8128C35.1766 38.813 35.1776 38.8117 35.1799 38.8093C35.1822 38.8069 35.1853 38.804 35.1893 38.8009C35.1978 38.7943 35.2057 38.7903 35.2101 38.7886C35.2183 38.7853 35.1945 38.7973 35.1159 38.7916L35.0617 39.5397L35.0076 40.2877C35.5213 40.3249 36.0437 40.1699 36.3888 39.6966L35.7828 39.2547ZM35.0617 39.5397L35.1159 38.7916C34.6764 38.7598 34.2294 38.832 33.8464 39.0918L34.2674 39.7125L34.6885 40.3331C34.7146 40.3155 34.797 40.2725 35.0076 40.2877L35.0617 39.5397ZM34.2674 39.7125L33.8464 39.0918C33.7198 39.1777 33.5763 39.2415 33.4101 39.2814L33.5851 40.0107L33.76 40.74C34.0946 40.6597 34.406 40.5247 34.6885 40.3331L34.2674 39.7125ZM33.5851 40.0107L33.4101 39.2814C33.0807 39.3604 32.7729 39.4901 32.4921 39.6727L32.9011 40.3014L33.31 40.9301C33.4404 40.8453 33.5886 40.7811 33.76 40.74L33.5851 40.0107ZM32.9011 40.3014L32.4921 39.6727C32.3038 39.7952 32.1108 39.9097 31.9131 40.0163L32.269 40.6765L32.6248 41.3367C32.8588 41.2106 33.0872 41.075 33.31 40.9301L32.9011 40.3014ZM32.269 40.6765L31.9131 40.0163C31.5353 40.22 31.2596 40.5428 31.0612 40.9137L31.7225 41.2674L32.3839 41.6211C32.4824 41.4369 32.571 41.3657 32.6248 41.3367L32.269 40.6765ZM31.7225 41.2674L31.0612 40.9137C31.0245 40.9823 30.9976 41.0058 30.9922 41.0102C30.9895 41.0123 30.9897 41.0117 30.9922 41.0106C30.9946 41.0095 30.9952 41.0098 30.9918 41.0104L31.1193 41.7495L31.2467 42.4885C31.7792 42.3967 32.1533 42.0522 32.3839 41.6211L31.7225 41.2674ZM31.1193 41.7495L30.9918 41.0104C30.6453 41.0701 30.3195 41.1922 30.0193 41.375L30.4093 42.0156L30.7993 42.6562C30.9382 42.5717 31.0858 42.5163 31.2467 42.4885L31.1193 41.7495ZM30.4093 42.0156L30.0193 41.375C29.8357 41.4868 29.6461 41.5812 29.4502 41.6586L29.7259 42.3561L30.0016 43.0536C30.2778 42.9444 30.5438 42.8118 30.7993 42.6562L30.4093 42.0156ZM29.7259 42.3561L29.4502 41.6586C29.3158 41.7117 29.1709 41.7369 29.0074 41.7301L28.976 42.4794L28.9446 43.2288C29.309 43.244 29.664 43.187 30.0016 43.0536L29.7259 42.3561ZM28.976 42.4794L29.0074 41.7301C28.7905 41.721 28.5694 41.6914 28.3435 41.6402L28.1778 42.3717L28.0121 43.1031C28.3226 43.1735 28.6337 43.2157 28.9446 43.2288L28.976 42.4794ZM28.1778 42.3717L28.3435 41.6402C27.976 41.5569 27.6044 41.5503 27.2403 41.6383L27.4164 42.3673L27.5926 43.0963C27.7071 43.0686 27.8432 43.0649 28.0121 43.1031L28.1778 42.3717ZM27.4164 42.3673L27.2403 41.6383C27.0692 41.6796 26.8942 41.697 26.7132 41.6897L26.6834 42.4392L26.6536 43.1886C26.9713 43.2012 27.285 43.1706 27.5926 43.0963L27.4164 42.3673ZM26.6834 42.4392L26.7132 41.6897C26.2745 41.6723 25.8733 41.8141 25.5264 42.0625L25.9631 42.6723L26.3997 43.2821C26.5146 43.1998 26.5936 43.1862 26.6536 43.1886L26.6834 42.4392ZM25.9631 42.6723L25.5264 42.0625C25.3055 42.2207 25.0787 42.3749 24.8459 42.5252L25.2526 43.1553L25.6593 43.7855C25.912 43.6224 26.1588 43.4546 26.3997 43.2821L25.9631 42.6723ZM25.2526 43.1553L24.8459 42.5252C24.7574 42.5822 24.7176 42.5767 24.6824 42.5681L24.5047 43.2968L24.327 44.0254C24.8035 44.1416 25.2622 44.0418 25.6593 43.7855L25.2526 43.1553ZM24.5047 43.2968L24.6824 42.5681C24.6309 42.5556 24.5902 42.5441 24.5588 42.5342C24.5267 42.5241 24.5095 42.5172 24.5035 42.5145C24.4955 42.511 24.513 42.5177 24.543 42.5388C24.5589 42.55 24.5829 42.5685 24.6102 42.5957C24.6373 42.6228 24.6722 42.6629 24.7049 42.7178L24.0605 43.1016L23.4161 43.4854C23.565 43.7353 23.8066 43.8467 23.9001 43.8878C24.0311 43.9454 24.1795 43.9894 24.327 44.0254L24.5047 43.2968ZM24.0605 43.1016L24.7049 42.7178C24.5633 42.4801 24.3378 42.3666 24.2443 42.3221C24.1175 42.2618 23.9738 42.214 23.8305 42.174L23.6289 42.8964L23.4272 43.6188C23.4768 43.6326 23.5161 43.645 23.5465 43.6557C23.5774 43.6665 23.5942 43.6739 23.6004 43.6769C23.6083 43.6806 23.5926 43.6741 23.5651 43.6539C23.5506 43.6431 23.5286 43.6255 23.5036 43.5998C23.4787 43.5743 23.4467 43.5366 23.4161 43.4854L24.0605 43.1016ZM22.4856 26.5808L22.9216 25.9705C22.7114 25.8204 22.4994 25.6721 22.2856 25.5255L21.8616 26.1442L21.4376 26.7629C21.6434 26.9039 21.8474 27.0467 22.0497 27.1911L22.4856 26.5808ZM21.8616 26.1442L22.2856 25.5255C22.1244 25.4151 21.9813 25.2895 21.8549 25.1484L21.2963 25.6489L20.7377 26.1493C20.9454 26.3811 21.1792 26.5858 21.4376 26.7629L21.8616 26.1442ZM21.2963 25.6489L21.8549 25.1484C21.6443 24.9133 21.4055 24.7079 21.1404 24.5325L20.7265 25.158L20.3126 25.7834C20.4731 25.8896 20.6141 26.0114 20.7377 26.1493L21.2963 25.6489ZM20.7265 25.158L21.1404 24.5325C21.0894 24.4987 21.0388 24.4456 21.0011 24.3218L20.2836 24.5402L19.5661 24.7587C19.6935 25.1769 19.9382 25.5356 20.3126 25.7834L20.7265 25.158ZM20.2836 24.5402L21.0011 24.3218C20.8584 23.8532 20.5487 23.4848 20.088 23.2852L19.7898 23.9734L19.4917 24.6615C19.52 24.6738 19.5292 24.6837 19.5328 24.6879C19.5371 24.6929 19.5516 24.711 19.5661 24.7587L20.2836 24.5402ZM19.7898 23.9734L20.088 23.2852C20.0133 23.2528 19.9742 23.2135 19.9421 23.1414L19.2567 23.4458L18.5713 23.7503C18.7567 24.1677 19.073 24.4802 19.4917 24.6615L19.7898 23.9734ZM19.2567 23.4458L19.9421 23.1414C19.7278 22.6589 19.3246 22.3624 18.8355 22.2476L18.6641 22.9777L18.4927 23.7079C18.5201 23.7143 18.5378 23.7211 18.548 23.7258C18.5579 23.7304 18.5618 23.7335 18.5621 23.7337C18.5623 23.7339 18.5621 23.7337 18.5625 23.7342C18.5631 23.7349 18.5664 23.7394 18.5713 23.7503L19.2567 23.4458ZM18.6641 22.9777L18.8355 22.2476C18.8311 22.2466 18.8448 22.2492 18.8676 22.2632C18.8918 22.2781 18.9162 22.2997 18.9359 22.3259C18.9755 22.3787 18.9622 22.4028 18.9588 22.3346L18.2097 22.3715L17.4606 22.4084C17.4739 22.6771 17.5446 22.9707 17.7356 23.2256C17.9339 23.4901 18.2078 23.641 18.4927 23.7079L18.6641 22.9777ZM18.2097 22.3715L18.9588 22.3346C18.9459 22.0721 18.8781 21.7724 18.6782 21.5157C18.4663 21.2436 18.1733 21.1057 17.8793 21.061L17.7665 21.8025L17.6538 22.544C17.6511 22.5436 17.6271 22.5394 17.5927 22.5207C17.5564 22.501 17.5218 22.4721 17.4947 22.4374C17.4425 22.3703 17.4569 22.3339 17.4606 22.4084L18.2097 22.3715ZM17.7665 21.8025L17.8793 21.061C17.6968 21.0333 17.4544 21.017 17.2152 21.092C16.9269 21.1825 16.6581 21.407 16.5679 21.7688L17.2956 21.9502L18.0234 22.1316C18.0015 22.2194 17.9533 22.3147 17.8724 22.3948C17.7948 22.4716 17.7146 22.5074 17.6642 22.5233C17.582 22.549 17.5575 22.5293 17.6538 22.544L17.7665 21.8025ZM17.2956 21.9502L16.5679 21.7688C16.5051 22.0209 16.4989 22.3561 16.5101 22.6995L17.2597 22.6751L18.0093 22.6507C18.0041 22.4923 18.0048 22.3681 18.0094 22.2742C18.0117 22.2276 18.0148 22.1922 18.018 22.1664C18.0213 22.1397 18.0239 22.1295 18.0234 22.1316L17.2956 21.9502ZM17.2597 22.6751L16.5101 22.6995C16.5258 23.18 16.6822 23.6767 17.1148 24.0128L17.5749 23.4206L18.035 22.8283C18.044 22.8352 18.0439 22.8409 18.0377 22.8262C18.0292 22.8062 18.0127 22.7536 18.0093 22.6507L17.2597 22.6751ZM17.5749 23.4206L17.1148 24.0128C17.2844 24.1446 17.4422 24.2873 17.5886 24.4412L18.1319 23.9242L18.6753 23.4072C18.4769 23.1987 18.2634 23.0057 18.035 22.8283L17.5749 23.4206ZM18.1319 23.9242L17.5886 24.4412C17.9424 24.813 18.4198 24.947 18.8859 24.9599L18.9066 24.2102L18.9273 23.4605C18.8173 23.4574 18.7507 23.4413 18.7146 23.428C18.6972 23.4216 18.6873 23.416 18.6826 23.4129C18.678 23.41 18.6761 23.4081 18.6753 23.4072L18.1319 23.9242ZM18.9066 24.2102L18.8859 24.9599C18.9955 24.9629 19.0614 24.9791 19.0965 24.9922C19.1134 24.9984 19.1228 25.0039 19.1271 25.0067C19.1312 25.0093 19.1328 25.0109 19.1333 25.0115L19.6797 24.4977L20.2261 23.9839C19.873 23.6085 19.3942 23.4734 18.9273 23.4605L18.9066 24.2102ZM19.6797 24.4977L19.1333 25.0115C19.2187 25.1023 19.2943 25.2258 19.3498 25.4006L20.0646 25.1735L20.7794 24.9463C20.6644 24.5846 20.4834 24.2576 20.2261 23.9839L19.6797 24.4977ZM20.0646 25.1735L19.3498 25.4006C19.452 25.7221 19.5868 26.0224 19.7572 26.2981L20.3951 25.9036L21.033 25.5092C20.9333 25.3479 20.8478 25.1615 20.7794 24.9463L20.0646 25.1735ZM20.3951 25.9036L19.7572 26.2981C19.9862 26.6685 20.3201 26.9283 20.7221 27.0781L20.9841 26.3754L21.246 25.6726C21.1329 25.6304 21.0742 25.5758 21.033 25.5092L20.3951 25.9036ZM20.9841 26.3754L20.7221 27.0781C20.8823 27.1378 20.996 27.2162 21.0806 27.3063L21.6272 26.7928L22.1739 26.2793C21.916 26.0048 21.6009 25.8049 21.246 25.6726L20.9841 26.3754ZM21.6272 26.7928L21.0806 27.3063C21.233 27.4686 21.377 27.6397 21.5125 27.8198L22.1118 27.3689L22.7111 26.918C22.5431 26.6946 22.364 26.4817 22.1739 26.2793L21.6272 26.7928ZM22.1118 27.3689L21.5125 27.8198C21.6887 28.054 21.9128 28.3094 22.1776 28.5841L22.7175 28.0635L23.2574 27.5428C23.0183 27.2949 22.8385 27.0873 22.7111 26.918L22.1118 27.3689ZM22.7175 28.0635L22.1776 28.5841C22.2626 28.6722 22.3744 28.7749 22.5096 28.8528C22.6316 28.9231 22.8994 29.0451 23.2228 28.9473C23.5695 28.8424 23.7238 28.5664 23.7836 28.4088C23.8436 28.2504 23.8592 28.0903 23.8635 27.9706L23.114 27.9435L22.3645 27.9164C22.3626 27.9674 22.357 27.9403 22.3809 27.8771C22.4046 27.8148 22.5078 27.5965 22.7884 27.5116C23.0457 27.4337 23.2324 27.5381 23.2584 27.5531C23.2976 27.5757 23.2984 27.5854 23.2574 27.5428L22.7175 28.0635ZM23.114 27.9435L23.8635 27.9706C23.8671 27.8693 23.8838 27.819 23.8915 27.8014C23.8967 27.7893 23.8955 27.7962 23.886 27.8033L23.4351 27.204L22.9842 26.6046C22.5434 26.9363 22.3819 27.4339 22.3645 27.9164L23.114 27.9435ZM23.4351 27.204L23.886 27.8033C23.9389 27.7635 24.052 27.7078 24.284 27.6929L24.2362 26.9445L24.1885 26.196C23.7558 26.2236 23.3349 26.3409 22.9842 26.6046L23.4351 27.204ZM24.2362 26.9445L24.284 27.6929C24.5761 27.6743 24.9069 27.5758 25.1613 27.3041C25.4122 27.036 25.4908 26.7034 25.4987 26.4174L24.749 26.3966L23.9993 26.3758C23.9977 26.4338 23.9861 26.3646 24.0661 26.2791C24.1495 26.19 24.2287 26.1934 24.1885 26.196L24.2362 26.9445ZM24.749 26.3966L25.4987 26.4174C25.5003 26.3608 25.5115 26.4337 25.428 26.5211C25.342 26.6111 25.262 26.6055 25.3064 26.6032L25.2673 25.8542L25.2282 25.1052C24.9366 25.1204 24.6022 25.214 24.3435 25.4848C24.0872 25.753 24.0073 26.0883 23.9993 26.3758L24.749 26.3966ZM25.2673 25.8542L25.3064 26.6032C25.8177 26.5765 26.3333 26.3662 26.6173 25.8386L25.9569 25.4831L25.2965 25.1277C25.2986 25.1237 25.3042 25.115 25.3139 25.1053C25.3236 25.0956 25.3323 25.09 25.3363 25.0878C25.3429 25.0843 25.3163 25.1006 25.2282 25.1052L25.2673 25.8542ZM25.9569 25.4831L26.6173 25.8386C26.7152 25.6566 26.8277 25.4946 26.954 25.3507L26.3904 24.856L25.8267 24.3612C25.6225 24.5938 25.4459 24.85 25.2965 25.1277L25.9569 25.4831ZM26.3904 24.856L26.954 25.3507C27.0576 25.2327 27.1836 25.1321 27.338 25.0492L26.9834 24.3883L26.6288 23.7275C26.323 23.8915 26.0536 24.1026 25.8267 24.3612L26.3904 24.856ZM26.9834 24.3883L27.338 25.0492C27.7892 24.8071 28.0534 24.3991 28.1562 23.9275L27.4235 23.7677L26.6907 23.608C26.6769 23.6712 26.66 23.6985 26.6542 23.7068C26.6499 23.7128 26.6448 23.7189 26.6288 23.7275L26.9834 24.3883ZM27.4235 23.7677L28.1562 23.9275C28.198 23.736 28.264 23.6147 28.3327 23.5344L27.763 23.0466L27.1933 22.5588C26.9359 22.8594 26.7755 23.2189 26.6907 23.608L27.4235 23.7677ZM27.763 23.0466L28.3327 23.5344C28.5289 23.3053 28.7019 23.0564 28.8523 22.7887L28.1984 22.4213L27.5446 22.054C27.4406 22.2391 27.3234 22.4069 27.1933 22.5588L27.763 23.0466ZM28.1984 22.4213L28.8523 22.7887C28.9515 22.6121 29.0656 22.4557 29.194 22.3176L28.6447 21.8069L28.0954 21.2963C27.8832 21.5246 27.6997 21.7778 27.5446 22.054L28.1984 22.4213ZM28.6447 21.8069L29.194 22.3176C29.1792 22.3335 29.1714 22.3308 29.1978 22.3226C29.2295 22.3127 29.299 22.2992 29.4224 22.3043L29.4533 21.5549L29.4843 20.8056C29.0027 20.7857 28.4747 20.8883 28.0954 21.2963L28.6447 21.8069ZM29.4533 21.5549L29.4224 22.3043C29.7068 22.316 30.0605 22.267 30.3544 22.0223C30.6615 21.7667 30.7657 21.4139 30.7812 21.1112L30.0321 21.0731L29.2831 21.035C29.2822 21.0526 29.2804 21.0362 29.2955 21.0005C29.3123 20.9608 29.3441 20.9116 29.3947 20.8695C29.4957 20.7854 29.5685 20.8091 29.4843 20.8056L29.4533 21.5549ZM30.0321 21.0731L30.7812 21.1112C30.7862 21.0118 30.8032 20.9601 30.8123 20.9395C30.8194 20.9235 30.8212 20.9261 30.8158 20.9303L30.3568 20.3371L29.8979 19.7439C29.4722 20.0733 29.3074 20.5579 29.2831 21.035L30.0321 21.0731ZM30.3568 20.3371L30.8158 20.9303C30.9343 20.8386 31.0853 20.7594 31.2801 20.7004L31.0629 19.9826L30.8458 19.2647C30.4977 19.37 30.178 19.5272 29.8979 19.7439L30.3568 20.3371ZM31.0629 19.9826L31.2801 20.7004C31.3833 20.6692 31.5218 20.6179 31.6514 20.5262C31.7813 20.4343 31.9854 20.2391 32.0219 19.9155C32.0576 19.5993 31.909 19.3677 31.8139 19.2538C31.7156 19.1362 31.5996 19.0513 31.5085 18.9929L31.1034 19.6241L30.6983 20.2552C30.7295 20.2753 30.7034 20.2642 30.6628 20.2156C30.6254 20.1709 30.5024 20.0037 30.5313 19.7473C30.5611 19.4834 30.7262 19.3433 30.7849 19.3018C30.8433 19.2604 30.8783 19.2549 30.8458 19.2647L31.0629 19.9826ZM31.1034 19.6241L31.5085 18.9929C31.3824 18.9119 31.2726 18.8442 31.185 18.7948C31.1426 18.771 31.0922 18.7439 31.0408 18.7209C31.0157 18.7096 30.9767 18.6931 30.9299 18.6786C30.9027 18.6701 30.7871 18.6334 30.6389 18.6437L30.6911 19.3919L30.7432 20.1401C30.7008 20.1431 30.6645 20.1419 30.6369 20.1397C30.6088 20.1376 30.5849 20.1341 30.5663 20.1308C30.53 20.1243 30.5018 20.1163 30.4851 20.1111C30.4526 20.101 30.4312 20.0914 30.4271 20.0896C30.4177 20.0854 30.4227 20.0871 30.449 20.1019C30.4988 20.1299 30.5799 20.1793 30.6983 20.2552L31.1034 19.6241ZM30.6911 19.3919L30.6389 18.6437C30.5497 18.6499 30.4667 18.6732 30.4564 18.6759C30.4214 18.685 30.3818 18.6965 30.341 18.7088C30.2582 18.7336 30.1478 18.7688 30.0127 18.813L30.2458 19.5258L30.479 20.2386C30.6103 20.1957 30.7073 20.1649 30.7729 20.1452C30.8063 20.1352 30.8262 20.1296 30.8358 20.1271C30.8408 20.1258 30.8381 20.1266 30.8302 20.1283C30.8261 20.1292 30.8175 20.1309 30.8058 20.1329C30.7957 20.1345 30.7731 20.138 30.7432 20.1401L30.6911 19.3919ZM30.2458 19.5258L30.0127 18.813C29.5725 18.957 29.2159 19.2422 28.9992 19.6642L29.6663 20.0069L30.3334 20.3496C30.3566 20.3044 30.3864 20.2689 30.479 20.2386L30.2458 19.5258ZM29.6663 20.0069L28.9992 19.6642C28.9053 19.847 28.7964 20.0081 28.6733 20.1501L29.24 20.6413L29.8068 21.1326C30.0121 20.8958 30.1873 20.634 30.3334 20.3496L29.6663 20.0069ZM29.24 20.6413L28.6733 20.1501C28.5218 20.3249 28.3639 20.4934 28.1999 20.6556L28.7271 21.189L29.2543 21.7225C29.4458 21.5331 29.63 21.3365 29.8068 21.1326L29.24 20.6413ZM28.7271 21.189L28.1999 20.6556C27.9938 20.8592 27.8043 21.0787 27.6315 21.3136L28.2355 21.7581L28.8396 22.2027C28.9665 22.0302 29.1047 21.8703 29.2543 21.7225L28.7271 21.189ZM28.2355 21.7581L27.6315 21.3136C27.5438 21.4328 27.4349 21.5311 27.2981 21.6107L27.6756 22.2588L28.053 22.9069C28.3631 22.7264 28.6275 22.4909 28.8396 22.2027L28.2355 21.7581ZM27.6756 22.2588L27.2981 21.6107C26.9595 21.8079 26.6891 22.0821 26.4961 22.4229L27.1486 22.7926L27.8012 23.1622C27.8639 23.0517 27.9447 22.97 28.053 22.9069L27.6756 22.2588ZM27.1486 22.7926L26.4961 22.4229C26.4589 22.4885 26.4076 22.5386 26.3049 22.578L26.5736 23.2782L26.8423 23.9784C27.2506 23.8218 27.5827 23.5481 27.8012 23.1622L27.1486 22.7926ZM26.5736 23.2782L26.3049 22.578C26.0439 22.6782 25.7853 22.781 25.5292 22.8864L25.8147 23.5799L26.1003 24.2735C26.3451 24.1727 26.5924 24.0743 26.8423 23.9784L26.5736 23.2782ZM25.8147 23.5799L25.5292 22.8864C25.0806 23.0711 24.7585 23.4123 24.5926 23.8644L25.2968 24.1226L26.0009 24.3809C26.0248 24.3156 26.048 24.295 26.1003 24.2735L25.8147 23.5799ZM25.2968 24.1226L24.5926 23.8644C24.5659 23.9374 24.5374 23.9627 24.4842 23.986L24.7861 24.6726L25.0879 25.3592C25.5259 25.1666 25.8379 24.8253 26.0009 24.3809L25.2968 24.1226ZM24.7861 24.6726L24.4842 23.986C24.0071 24.1958 23.7061 24.5895 23.5836 25.0739L24.3106 25.2578L25.0377 25.4418C25.0509 25.3898 25.0647 25.3733 25.0652 25.3728C25.0659 25.3719 25.0666 25.3712 25.0682 25.3699C25.0701 25.3685 25.0758 25.3645 25.0879 25.3592L24.7861 24.6726ZM24.3106 25.2578L23.5836 25.0739C23.579 25.0921 23.5753 25.0983 23.5762 25.0966C23.5767 25.0957 23.578 25.0934 23.5805 25.09C23.583 25.0866 23.5862 25.0827 23.59 25.0788C23.5938 25.0749 23.5977 25.0715 23.6013 25.0688C23.6049 25.066 23.6076 25.0644 23.609 25.0636C23.6118 25.0621 23.607 25.0653 23.5906 25.0697L23.786 25.7938L23.9813 26.5179C24.2297 26.4509 24.4672 26.327 24.6619 26.1281C24.8563 25.9295 24.9749 25.69 25.0377 25.4418L24.3106 25.2578ZM23.786 25.7938L23.5906 25.0697C23.1905 25.1777 22.8319 25.3804 22.5556 25.6985L23.1218 26.1903L23.688 26.6821C23.7405 26.6218 23.8246 26.5602 23.9813 26.5179L23.786 25.7938ZM23.1218 26.1903L22.5556 25.6985C22.3867 25.893 22.1801 26.1601 22.1067 26.4594L22.8352 26.638L23.5636 26.8165C23.5556 26.8493 23.5468 26.8677 23.546 26.8694C23.5449 26.8718 23.5479 26.8651 23.5585 26.8486C23.5804 26.8143 23.6208 26.7595 23.688 26.6821L23.1218 26.1903ZM22.8352 26.638L22.1067 26.4594C22.1307 26.3617 22.2036 26.1839 22.3987 26.0611C22.5874 25.9424 22.7684 25.9523 22.8487 25.9654C22.8912 25.9724 22.9221 25.9824 22.9387 25.9886C22.9559 25.9949 22.9657 25.9999 22.9671 26.0006C22.9686 26.0014 22.9543 25.9939 22.9216 25.9705L22.4856 26.5808L22.0497 27.1911C22.1628 27.2719 22.3647 27.4062 22.6067 27.4458C22.7453 27.4684 22.9733 27.4718 23.1978 27.3306C23.4287 27.1852 23.5263 26.9689 23.5636 26.8165L22.8352 26.638Z" fill="#030302"/>
</svg>
