<svg width="48" height="48" viewBox="0 0 48 48" fill="none" xmlns="http://www.w3.org/2000/svg">
<path d="M10.168 24.2743L9.79669 23.6226L10.168 24.2743ZM10.918 23.972L10.7454 23.2421L10.918 23.972ZM11.668 24.0544L11.9792 23.372L11.668 24.0544ZM13.168 24.0827L12.8768 23.3915L13.168 24.0827ZM13.918 23.9867L14.0403 23.2468L13.918 23.9867ZM14.668 24.309L14.2403 24.9251L14.668 24.309ZM15.418 24.2078L14.8974 23.6679L15.418 24.2078ZM16.918 23.9355L16.6493 23.2352L16.918 23.9355ZM17.668 24.0601L18.1046 23.4503L17.668 24.0601ZM19.168 24.1134L19.0287 23.3764L19.168 24.1134ZM20.668 24.1583L20.1279 24.6788L20.668 24.1583ZM22.168 23.9824L22.531 23.3261L22.168 23.9824ZM22.918 24.071L23.1445 24.7859L22.918 24.071ZM24.418 24.1737L24.9703 24.6811L24.418 24.1737ZM26.668 24.0532L26.7408 24.7997L26.668 24.0532ZM27.418 24.29L27.8598 23.684L27.418 24.29ZM28.918 24.1445L28.9516 24.8937L28.918 24.1445ZM29.668 24.3768L30.083 23.752L29.668 24.3768ZM30.418 24.2952L29.9219 23.7327L30.418 24.2952ZM31.918 24.3057L31.6798 25.0169L31.918 24.3057ZM34.918 24.2446L35.4638 24.7589L34.918 24.2446ZM35.668 24.2089L35.1469 24.7483L35.668 24.2089ZM36.9264 24.6427L37.5341 24.203L36.9264 24.6427ZM36.7892 25.0868L37.3084 25.6281L36.7892 25.0868ZM36.0261 25.3843L36.0836 26.1321L36.0261 25.3843ZM35.3561 25.775L34.6861 25.4378L35.3561 25.775ZM34.9217 26.4012L35.4684 26.9147L34.9217 26.4012ZM34.3573 26.8975L34.7972 27.5049L34.3573 26.8975ZM33.752 27.3528L33.2903 26.7618L33.752 27.3528ZM33.1365 27.798L33.5536 28.4213L33.1365 27.798ZM32.3618 29.1447L32.7249 29.801L32.3618 29.1447ZM31.8811 29.7246L31.1746 29.473L31.8811 29.7246ZM31.2981 30.2023L31.4417 30.9384L31.2981 30.2023ZM31.0353 31.1323L30.5016 31.6592L31.0353 31.1323ZM31.957 30.4661L32.4235 31.0534L31.957 30.4661ZM32.5497 29.9983L32.0869 29.4081L32.5497 29.9983ZM33.1306 29.5184L32.6383 28.9526L33.1306 29.5184ZM34.0507 28.3173L34.6716 28.7381L34.0507 28.3173ZM35.1101 27.2554L35.5801 27.8398L35.1101 27.2554ZM35.8485 26.9331L35.7063 26.1967L35.8485 26.9331ZM36.8526 25.8159L36.1243 25.6369L36.8526 25.8159ZM38.1331 22.4662L38.5465 21.8404L38.1331 22.4662ZM35.124 20.172L34.4746 20.5472L35.124 20.172ZM34.6824 19.5529L35.2471 19.0593L34.6824 19.5529ZM34.1463 19.0284L33.6651 19.6037L34.1463 19.0284ZM33.5857 18.5283L34.1027 17.9849L33.5857 18.5283ZM33.2098 17.8436L33.9383 17.6654L33.2098 17.8436ZM32.0665 16.8655L31.4782 17.3306L32.0665 16.8655ZM31.0304 16.2806L30.535 15.7176L31.0304 16.2806ZM31.2263 17.2563L31.2244 16.5063L31.2263 17.2563ZM34.9029 21.0044L35.6525 20.9819L34.9029 21.0044ZM36.4372 23.339L36.0311 22.7084L36.4372 23.339ZM33.4372 23.1435L33.3679 23.8903L33.4372 23.1435ZM31.1872 23.165L31.2474 22.4175L31.1872 23.165ZM29.6872 23.0757L30.1578 23.6597L29.6872 23.0757ZM28.9372 23.3518L28.8851 24.1L28.9372 23.3518ZM28.1872 23.1837L28.4527 22.4823L28.1872 23.1837ZM25.1872 23.3624L25.0627 22.6228L25.1872 23.3624ZM24.4372 23.4868L24.3163 22.7466L24.4372 23.4868ZM22.1872 23.4598L22.0035 24.1869L22.1872 23.4598ZM17.6872 23.0235L17.2942 23.6623L17.6872 23.0235ZM16.9372 23.1581L17.4605 23.6953L16.9372 23.1581ZM13.1872 23.3505L12.9011 24.0438L13.1872 23.3505ZM11.6872 22.9851L11.3651 22.3078L11.6872 22.9851ZM10.1872 23.1201L10.1182 22.3733L10.1872 23.1201ZM9.38407 23.582L8.65527 23.7591C8.7296 24.065 8.83769 24.3523 8.99053 24.6076L9.63407 24.2225L10.2776 23.8373C10.2186 23.7387 10.16 23.599 10.1129 23.4049L9.38407 23.582ZM9.63407 24.2225L8.99053 24.6076C9.1443 24.8646 9.40996 25.0793 9.77452 25.1147C10.0858 25.1449 10.3549 25.031 10.5392 24.926L10.168 24.2743L9.79669 23.6226C9.73104 23.66 9.78611 23.6087 9.91945 23.6217C9.99569 23.6291 10.0774 23.6563 10.1506 23.7063C10.2204 23.7541 10.2594 23.8069 10.2776 23.8373L9.63407 24.2225ZM10.168 24.2743L10.5392 24.926C10.7344 24.8148 10.9179 24.7427 11.0905 24.7019L10.918 23.972L10.7454 23.2421C10.418 23.3195 10.1015 23.449 9.79669 23.6226L10.168 24.2743ZM10.918 23.972L11.0905 24.7019C11.1668 24.6838 11.247 24.6867 11.3567 24.7367L11.668 24.0544L11.9792 23.372C11.589 23.194 11.1691 23.1419 10.7454 23.2421L10.918 23.972ZM11.668 24.0544L11.3567 24.7367C11.6905 24.889 12.0408 24.9755 12.4028 24.9829L12.418 24.233L12.4332 23.4832C12.2951 23.4804 12.1454 23.4478 11.9792 23.372L11.668 24.0544ZM12.418 24.233L12.4028 24.9829C12.7665 24.9903 13.1206 24.9165 13.4591 24.7738L13.168 24.0827L12.8768 23.3915C12.7154 23.4595 12.5694 23.4859 12.4332 23.4832L12.418 24.233ZM13.168 24.0827L13.4591 24.7738C13.5882 24.7194 13.6952 24.7101 13.7956 24.7267L13.918 23.9867L14.0403 23.2468C13.6407 23.1807 13.2477 23.2353 12.8768 23.3915L13.168 24.0827ZM13.918 23.9867L13.7956 24.7267C13.9161 24.7466 14.0635 24.8024 14.2403 24.9251L14.668 24.309L15.0956 23.6929C14.7724 23.4685 14.4199 23.3095 14.0403 23.2468L13.918 23.9867ZM14.668 24.309L14.2403 24.9251C14.4857 25.0955 14.7958 25.204 15.1432 25.1572C15.4761 25.1122 15.741 24.9382 15.9385 24.7478L15.418 24.2078L14.8974 23.6679C14.845 23.7185 14.8598 23.6818 14.9427 23.6706C14.9843 23.665 15.0246 23.6688 15.0574 23.678C15.0881 23.6866 15.1009 23.6966 15.0956 23.6929L14.668 24.309ZM15.418 24.2078L15.9385 24.7478C16.0069 24.6818 16.0373 24.675 16.0258 24.6788C16.0189 24.681 16.005 24.6843 15.9865 24.6844C15.9679 24.6846 15.9534 24.6816 15.9455 24.6791L16.168 23.9628L16.3905 23.2466C15.7938 23.0613 15.2704 23.3084 14.8974 23.6679L15.418 24.2078ZM16.168 23.9628L15.9455 24.6791C16.3603 24.8079 16.7832 24.7905 17.1866 24.6357L16.918 23.9355L16.6493 23.2352C16.5527 23.2723 16.4756 23.2731 16.3905 23.2466L16.168 23.9628ZM16.918 23.9355L17.1866 24.6357C17.1927 24.6334 17.1923 24.6343 17.1866 24.6349C17.1806 24.6355 17.1744 24.6353 17.17 24.6345C17.1603 24.6329 17.18 24.6331 17.2314 24.6699L17.668 24.0601L18.1046 23.4503C17.6851 23.1499 17.1727 23.0344 16.6493 23.2352L16.918 23.9355ZM17.668 24.0601L17.2314 24.6699C17.6112 24.9418 18.0666 25.0878 18.5597 24.9929L18.418 24.2564L18.2762 23.5199C18.2694 23.5212 18.2247 23.5363 18.1046 23.4503L17.668 24.0601ZM18.418 24.2564L18.5597 24.9929C18.8089 24.9449 19.0581 24.8974 19.3072 24.8503L19.168 24.1134L19.0287 23.3764C18.7779 23.4238 18.527 23.4716 18.2762 23.5199L18.418 24.2564ZM19.168 24.1134L19.3072 24.8503C19.599 24.7952 19.8882 24.7149 20.1747 24.6105L19.918 23.9058L19.6612 23.2012C19.4477 23.279 19.2369 23.337 19.0287 23.3764L19.168 24.1134ZM19.918 23.9058L20.1747 24.6105C20.1633 24.6147 20.1427 24.6199 20.1159 24.6203C20.089 24.6207 20.0672 24.616 20.0537 24.6115C20.0414 24.6073 20.0421 24.6054 20.0557 24.6148C20.0697 24.6244 20.0942 24.6437 20.1279 24.6788L20.668 24.1583L21.208 23.6378C20.8388 23.2548 20.2908 22.9718 19.6612 23.2012L19.918 23.9058ZM20.668 24.1583L20.1279 24.6788C20.3311 24.8895 20.6371 25.102 21.0401 25.1036C21.4438 25.1051 21.7516 24.8942 21.956 24.6837L21.418 24.1612L20.8799 23.6387C20.8343 23.6856 20.8921 23.603 21.0458 23.6036C21.1988 23.6042 21.2549 23.6865 21.208 23.6378L20.668 24.1583ZM21.418 24.1612L21.956 24.6837C22.0195 24.6183 22.0251 24.6391 21.9669 24.6529C21.9357 24.6604 21.8995 24.6623 21.8639 24.6567C21.8296 24.6513 21.8093 24.6411 21.805 24.6387L22.168 23.9824L22.531 23.3261C22.2621 23.1774 21.9467 23.1157 21.619 23.1938C21.3108 23.2673 21.0664 23.4466 20.8799 23.6387L21.418 24.1612ZM22.168 23.9824L21.805 24.6387C22.2172 24.8667 22.6796 24.9333 23.1445 24.7859L22.918 24.071L22.6914 23.356C22.6563 23.3671 22.6187 23.3746 22.531 23.3261L22.168 23.9824ZM22.918 24.071L23.1445 24.7859C23.1436 24.7862 23.1369 24.7881 23.1262 24.7884C23.1154 24.7887 23.1071 24.7872 23.1032 24.7862C23.0962 24.7844 23.124 24.7896 23.1856 24.8414L23.668 24.2671L24.1503 23.6928C23.7588 23.364 23.2478 23.1797 22.6914 23.356L22.918 24.071ZM23.668 24.2671L23.1856 24.8414C23.4204 25.0386 23.7468 25.1939 24.1356 25.1455C24.5035 25.0997 24.7798 24.8886 24.9703 24.6811L24.418 24.1737L23.8656 23.6664C23.8062 23.7311 23.8324 23.6717 23.9503 23.657C24.0106 23.6495 24.0662 23.6582 24.1081 23.6732C24.1461 23.6868 24.1598 23.7007 24.1503 23.6928L23.668 24.2671ZM24.418 24.1737L24.9703 24.6811C25.0064 24.6418 25.0338 24.6183 25.0516 24.6052C25.0691 24.5922 25.0741 24.5916 25.0662 24.5947C25.0572 24.5982 25.0383 24.6038 25.0122 24.6049C24.9859 24.606 24.9634 24.6021 24.9482 24.5974L25.168 23.8803L25.3877 23.1633C24.7504 22.9679 24.2178 23.2829 23.8656 23.6664L24.418 24.1737ZM25.168 23.8803L24.9482 24.5974C25.2378 24.6862 25.5299 24.7495 25.8241 24.7867L25.918 24.0425L26.0118 23.2984C25.806 23.2725 25.5981 23.2277 25.3877 23.1633L25.168 23.8803ZM25.918 24.0425L25.8241 24.7867C26.1293 24.8251 26.4352 24.8295 26.7408 24.7997L26.668 24.0532L26.5951 23.3068C26.4008 23.3257 26.2067 23.323 26.0118 23.2984L25.918 24.0425ZM26.668 24.0532L26.7408 24.7997C26.768 24.797 26.8388 24.7959 26.9761 24.8961L27.418 24.29L27.8598 23.684C27.4971 23.4196 27.0679 23.2606 26.5951 23.3068L26.668 24.0532ZM27.418 24.29L26.9761 24.8961C27.1846 25.0481 27.4346 25.1637 27.721 25.1914C28.012 25.2194 28.2843 25.151 28.5224 25.0233L28.168 24.3624L27.8135 23.7014C27.8054 23.7058 27.8076 23.7033 27.8194 23.7007C27.8319 23.698 27.848 23.6966 27.8649 23.6983C27.8728 23.699 27.8794 23.7003 27.8842 23.7015C27.8866 23.7022 27.8885 23.7027 27.8897 23.7031C27.891 23.7036 27.8916 23.7038 27.8916 23.7038C27.8915 23.7038 27.8808 23.6993 27.8598 23.684L27.418 24.29ZM28.168 24.3624L28.5224 25.0233C28.6867 24.9352 28.8279 24.8993 28.9516 24.8937L28.918 24.1445L28.8844 23.3952C28.508 23.4121 28.1492 23.5214 27.8135 23.7014L28.168 24.3624ZM28.918 24.1445L28.9516 24.8937C29.0129 24.891 29.1084 24.9054 29.253 25.0015L29.668 24.3768L30.083 23.752C29.7275 23.5159 29.323 23.3755 28.8844 23.3952L28.918 24.1445ZM29.668 24.3768L29.253 25.0015C29.4946 25.162 29.7924 25.2626 30.1241 25.2265C30.446 25.1915 30.7103 25.0374 30.914 24.8577L30.418 24.2952L29.9219 23.7327C29.8757 23.7734 29.8899 23.7431 29.9619 23.7353C29.9969 23.7315 30.03 23.7352 30.0562 23.7424C30.0807 23.7492 30.0897 23.7565 30.083 23.752L29.668 24.3768ZM30.418 24.2952L30.914 24.8577C30.9793 24.8002 31.0108 24.7918 31.0066 24.793C31.0039 24.7938 30.9957 24.7957 30.9841 24.7958C30.9724 24.7958 30.964 24.794 30.9607 24.7931L31.168 24.0723L31.3752 23.3515C30.8098 23.1889 30.3027 23.3968 29.9219 23.7327L30.418 24.2952ZM31.168 24.0723L30.9607 24.7931C31.2002 24.862 31.4399 24.9365 31.6798 25.0169L31.918 24.3057L32.1561 23.5945C31.896 23.5074 31.6357 23.4264 31.3752 23.3515L31.168 24.0723ZM31.918 24.3057L31.6798 25.0169C32.1234 25.1654 32.5737 25.1282 32.9893 24.9311L32.668 24.2534L32.3466 23.5758C32.2622 23.6158 32.2125 23.6134 32.1561 23.5945L31.918 24.3057ZM32.668 24.2534L32.9893 24.9311C33.1576 24.8513 33.3089 24.8157 33.4477 24.8102L33.418 24.0608L33.3882 23.3114C33.027 23.3257 32.6783 23.4185 32.3466 23.5758L32.668 24.2534ZM33.418 24.0608L33.4477 24.8102C33.4728 24.8092 33.5517 24.8124 33.701 24.9312L34.168 24.3443L34.6349 23.7574C34.2842 23.4783 33.8631 23.2925 33.3882 23.3114L33.418 24.0608ZM34.168 24.3443L33.701 24.9312C33.9405 25.1217 34.264 25.2622 34.6417 25.212C34.9995 25.1645 35.2719 24.9627 35.4638 24.7589L34.918 24.2446L34.3721 23.7303C34.314 23.7919 34.3364 23.7394 34.4442 23.7251C34.4992 23.7178 34.5511 23.7246 34.5914 23.738C34.6284 23.7503 34.6426 23.7635 34.6349 23.7574L34.168 24.3443ZM34.918 24.2446L35.4638 24.7589C35.5161 24.7035 35.4708 24.7791 35.3286 24.7858C35.1769 24.7931 35.1111 24.7138 35.1469 24.7483L35.668 24.2089L36.1891 23.6695C35.9748 23.4625 35.659 23.2684 35.2573 23.2875C34.8651 23.3062 34.5698 23.5204 34.3721 23.7303L34.918 24.2446ZM35.668 24.2089L35.1469 24.7483C35.4975 25.0871 35.9698 25.3407 36.5297 25.2563L36.418 24.5147L36.3062 23.773C36.3122 23.7721 36.3194 23.772 36.326 23.7729C36.3323 23.7737 36.3327 23.7747 36.3261 23.772C36.311 23.7658 36.2642 23.7421 36.1891 23.6695L35.668 24.2089ZM36.418 24.5147L36.5297 25.2563C36.5968 25.2462 36.594 25.2569 36.5495 25.2457C36.524 25.2393 36.4845 25.2255 36.4399 25.1969C36.3941 25.1675 36.3522 25.1285 36.3188 25.0823L36.9264 24.6427L37.5341 24.203C37.1903 23.7279 36.638 23.723 36.3062 23.773L36.418 24.5147ZM36.9264 24.6427L36.3188 25.0823C36.2796 25.0281 36.2423 24.9519 36.2273 24.8578C36.2124 24.7643 36.2242 24.6832 36.2423 24.6246C36.2733 24.5241 36.3189 24.4987 36.2701 24.5456L36.7892 25.0868L37.3084 25.6281C37.44 25.5019 37.5987 25.3159 37.6755 25.0673C37.7662 24.7735 37.7201 24.4601 37.5341 24.203L36.9264 24.6427ZM36.7892 25.0868L36.2701 24.5456C36.2499 24.5649 36.1791 24.6203 35.9686 24.6365L36.0261 25.3843L36.0836 26.1321C36.5297 26.0978 36.9677 25.9549 37.3084 25.6281L36.7892 25.0868ZM36.0261 25.3843L35.9686 24.6365C35.4541 24.6761 34.9532 24.9071 34.6861 25.4378L35.3561 25.775L36.026 26.1121C36.0252 26.1139 36.021 26.1213 36.0123 26.1305C36.0036 26.1399 35.9951 26.1459 35.9901 26.1488C35.981 26.1542 36.0024 26.1384 36.0836 26.1321L36.0261 25.3843ZM35.3561 25.775L34.6861 25.4378C34.5985 25.612 34.4944 25.7607 34.375 25.8878L34.9217 26.4012L35.4684 26.9147C35.6915 26.6771 35.877 26.4083 36.026 26.1121L35.3561 25.775ZM34.9217 26.4012L34.375 25.8878C34.2367 26.035 34.0843 26.1691 33.9173 26.2901L34.3573 26.8975L34.7972 27.5049C35.0403 27.3288 35.2642 27.132 35.4684 26.9147L34.9217 26.4012ZM34.3573 26.8975L33.9173 26.2901C33.705 26.4439 33.496 26.6011 33.2903 26.7618L33.752 27.3528L34.2136 27.9439C34.405 27.7945 34.5995 27.6481 34.7972 27.5049L34.3573 26.8975ZM33.752 27.3528L33.2903 26.7618C33.1064 26.9054 32.9161 27.043 32.7194 27.1747L33.1365 27.798L33.5536 28.4213C33.7804 28.2695 34.0005 28.1104 34.2136 27.9439L33.752 27.3528ZM33.1365 27.798L32.7194 27.1747C32.2829 27.4667 32.0745 27.9182 32.0165 28.3923L32.761 28.4832L33.5055 28.5741C33.5156 28.491 33.5335 28.4506 33.5415 28.436C33.5474 28.4251 33.5501 28.4237 33.5536 28.4213L33.1365 27.798ZM32.761 28.4832L32.0165 28.3923C32.0072 28.4686 31.991 28.4961 31.9902 28.4974C31.9899 28.4979 31.9916 28.4952 31.9953 28.4916C31.999 28.488 32.001 28.4872 31.9988 28.4884L32.3618 29.1447L32.7249 29.801C33.2101 29.5325 33.445 29.0688 33.5055 28.5741L32.761 28.4832ZM32.3618 29.1447L31.9988 28.4884C31.6004 28.7088 31.3245 29.0521 31.1746 29.473L31.8811 29.7246L32.5877 29.9762C32.6234 29.8758 32.668 29.8324 32.7249 29.801L32.3618 29.1447ZM31.8811 29.7246L31.1746 29.473C31.1711 29.4827 31.1698 29.483 31.1734 29.4778C31.1751 29.4753 31.1775 29.4722 31.1806 29.4687C31.1838 29.4653 31.1871 29.4621 31.1904 29.4594C31.1975 29.4537 31.2011 29.4525 31.1974 29.4541C31.1933 29.456 31.1801 29.4612 31.1545 29.4662L31.2981 30.2023L31.4417 30.9384C31.9696 30.8354 32.3968 30.5123 32.5877 29.9762L31.8811 29.7246ZM31.2981 30.2023L31.1545 29.4662C30.9402 29.508 30.6967 29.5887 30.4881 29.7557C30.2587 29.9394 30.1099 30.1982 30.0754 30.4994L30.8205 30.5847L31.5657 30.6699C31.5608 30.7127 31.5465 30.7643 31.5175 30.8162C31.4887 30.8677 31.4539 30.904 31.4256 30.9266C31.3762 30.9662 31.3603 30.9543 31.4417 30.9384L31.2981 30.2023ZM30.8205 30.5847L30.0754 30.4994C30.0221 30.9656 30.2099 31.3637 30.5016 31.6592L31.0353 31.1323L31.5691 30.6054C31.5434 30.5794 31.5475 30.5751 31.5555 30.5956C31.5595 30.6058 31.5632 30.6188 31.5651 30.6337C31.567 30.6486 31.5667 30.6612 31.5657 30.6699L30.8205 30.5847ZM31.0353 31.1323L30.5016 31.6592C30.6544 31.814 30.9777 32.0612 31.4198 31.9705C31.8236 31.8876 32.0355 31.5748 32.1292 31.4052L31.4727 31.0426L30.8162 30.6799C30.7841 30.7381 30.8602 30.5541 31.1182 30.5011C31.2561 30.4728 31.3773 30.4989 31.4596 30.5354C31.5328 30.5678 31.5681 30.6044 31.5691 30.6054L31.0353 31.1323ZM31.4727 31.0426L32.1292 31.4052C32.2088 31.2611 32.3066 31.1462 32.4235 31.0534L31.957 30.4661L31.4904 29.8789C31.2132 30.0991 30.9882 30.3685 30.8162 30.6799L31.4727 31.0426ZM31.957 30.4661L32.4235 31.0534C32.6193 30.8978 32.8156 30.7429 33.0126 30.5884L32.5497 29.9983L32.0869 29.4081C31.8875 29.5645 31.6887 29.7214 31.4904 29.8789L31.957 30.4661ZM32.5497 29.9983L33.0126 30.5884C33.2207 30.4252 33.4241 30.2572 33.6228 30.0843L33.1306 29.5184L32.6383 28.9526C32.4589 29.1087 32.2751 29.2605 32.0869 29.4081L32.5497 29.9983ZM33.1306 29.5184L33.6228 30.0843C33.8639 29.8746 34.0734 29.6346 34.2508 29.3664L33.6253 28.9525L32.9998 28.5387C32.8957 28.6961 32.7754 28.8333 32.6383 28.9526L33.1306 29.5184ZM33.6253 28.9525L34.2508 29.3664C34.3901 29.1559 34.5303 28.9465 34.6716 28.7381L34.0507 28.3173L33.4299 27.8965C33.2855 28.1095 33.1422 28.3236 32.9998 28.5387L33.6253 28.9525ZM34.0507 28.3173L34.6716 28.7381C34.7828 28.574 34.9088 28.4275 35.0497 28.2972L34.5406 27.7465L34.0315 27.1957C33.805 27.4051 33.6044 27.6392 33.4299 27.8965L34.0507 28.3173ZM34.5406 27.7465L35.0497 28.2972C35.2207 28.1391 35.3975 27.9867 35.5801 27.8398L35.1101 27.2554L34.6401 26.6709C34.4308 26.8392 34.2279 27.0142 34.0315 27.1957L34.5406 27.7465ZM35.1101 27.2554L35.5801 27.8398C35.6636 27.7727 35.7906 27.7082 35.9908 27.6695L35.8485 26.9331L35.7063 26.1967C35.3139 26.2725 34.9486 26.4228 34.6401 26.6709L35.1101 27.2554ZM35.8485 26.9331L35.9908 27.6695C36.4321 27.5843 36.8357 27.3736 37.1202 26.9949L36.5205 26.5444L35.9209 26.094C35.902 26.1191 35.8576 26.1675 35.7063 26.1967L35.8485 26.9331ZM36.5205 26.5444L37.1202 26.9949C37.3414 26.7004 37.4909 26.3616 37.581 25.9948L36.8526 25.8159L36.1243 25.6369C36.0749 25.8378 36.003 25.9847 35.9209 26.094L36.5205 26.5444ZM36.8526 25.8159L37.581 25.9948C37.6241 25.8192 37.6893 25.7147 37.7553 25.6474L37.2198 25.1223L36.6842 24.5973C36.4002 24.887 36.2206 25.2449 36.1243 25.6369L36.8526 25.8159ZM37.2198 25.1223L37.7553 25.6474C37.8537 25.547 37.9793 25.4608 38.1438 25.3929L37.8577 24.6996L37.5716 24.0063C37.2355 24.145 36.9358 24.3406 36.6842 24.5973L37.2198 25.1223ZM37.8577 24.6996L38.1438 25.3929C38.4413 25.2702 38.719 25.1201 38.9749 24.9414L38.5453 24.3266L38.1158 23.7118C37.9553 23.8239 37.7747 23.9225 37.5716 24.0063L37.8577 24.6996ZM38.5453 24.3266L38.9749 24.9414C39.3883 24.6525 39.6008 24.223 39.6387 23.7466L38.8911 23.6871L38.1434 23.6275C38.1392 23.6807 38.1286 23.7 38.1281 23.701C38.1276 23.702 38.1274 23.7022 38.1271 23.7025C38.1266 23.703 38.1236 23.7063 38.1158 23.7118L38.5453 24.3266ZM38.8911 23.6871L39.6387 23.7466C39.6743 23.2999 39.5653 22.8657 39.2735 22.502L38.6885 22.9714L38.1036 23.4408C38.1265 23.4695 38.1526 23.5123 38.1434 23.6275L38.8911 23.6871ZM38.6885 22.9714L39.2735 22.502C39.0666 22.2443 38.8234 22.0234 38.5465 21.8404L38.1331 22.4662L37.7197 23.092C37.8686 23.1904 37.9956 23.3063 38.1036 23.4408L38.6885 22.9714ZM38.1331 22.4662L38.5465 21.8404C38.3908 21.7376 38.2558 21.6183 38.139 21.4818L37.5691 21.9695L36.9993 22.4571C37.2086 22.7017 37.4495 22.9135 37.7197 23.092L38.1331 22.4662ZM37.5691 21.9695L38.139 21.4818C38.0046 21.3248 37.882 21.1537 37.7714 20.9678L37.1268 21.3512L36.4822 21.7346C36.6353 21.992 36.8076 22.2331 36.9993 22.4571L37.5691 21.9695ZM37.1268 21.3512L37.7714 20.9678C37.509 20.5267 37.0866 20.285 36.6166 20.1987L36.481 20.9363L36.3454 21.6739C36.4163 21.687 36.4494 21.7047 36.4611 21.7122C36.47 21.7179 36.4752 21.7229 36.4822 21.7346L37.1268 21.3512ZM36.481 20.9363L36.6166 20.1987C36.3746 20.1542 36.1718 20.0879 36.0023 20.0059L35.6756 20.681L35.349 21.3561C35.6559 21.5047 35.9901 21.6086 36.3454 21.6739L36.481 20.9363ZM35.6756 20.681L36.0023 20.0059C35.8959 19.9544 35.826 19.8877 35.7734 19.7967L35.124 20.172L34.4746 20.5472C34.6811 20.9044 34.9788 21.177 35.349 21.3561L35.6756 20.681ZM35.124 20.172L35.7734 19.7967C35.6204 19.5319 35.445 19.2857 35.2471 19.0593L34.6824 19.5529L34.1178 20.0466C34.2497 20.1974 34.3687 20.3639 34.4746 20.5472L35.124 20.172ZM34.6824 19.5529L35.2471 19.0593C35.0564 18.8412 34.8498 18.6391 34.6275 18.4531L34.1463 19.0284L33.6651 19.6037C33.8277 19.7398 33.9786 19.8873 34.1178 20.0466L34.6824 19.5529ZM34.1463 19.0284L34.6275 18.4531C34.4472 18.3023 34.2723 18.1462 34.1027 17.9849L33.5857 18.5283L33.0688 19.0716C33.2616 19.2551 33.4603 19.4324 33.6651 19.6037L34.1463 19.0284ZM33.5857 18.5283L34.1027 17.9849C34.0422 17.9273 33.9796 17.8341 33.9383 17.6654L33.2098 17.8436L32.4812 18.0217C32.5789 18.4212 32.767 18.7845 33.0688 19.0716L33.5857 18.5283ZM33.2098 17.8436L33.9383 17.6654C33.8096 17.1393 33.4594 16.743 32.9303 16.5748L32.7031 17.2896L32.476 18.0043C32.49 18.0088 32.494 18.0117 32.4917 18.0103C32.4906 18.0096 32.4885 18.0082 32.4857 18.006C32.483 18.0037 32.4802 18.001 32.4775 17.9981C32.4749 17.9953 32.4729 17.9927 32.4716 17.9908C32.4703 17.9889 32.47 17.9882 32.4705 17.9891C32.4714 17.9909 32.4761 18.0006 32.4812 18.0217L33.2098 17.8436ZM32.7031 17.2896L32.9303 16.5748C32.7871 16.5293 32.7074 16.4668 32.6549 16.4003L32.0665 16.8655L31.4782 17.3306C31.7379 17.6591 32.0826 17.8793 32.476 18.0043L32.7031 17.2896ZM32.0665 16.8655L32.6549 16.4003C32.4744 16.1721 32.2775 15.9597 32.0642 15.7633L31.5562 16.3151L31.0483 16.8669C31.2032 17.0095 31.3464 17.164 31.4782 17.3306L32.0665 16.8655ZM31.5562 16.3151L32.0642 15.7633C31.8985 15.6108 31.6539 15.4519 31.3358 15.431C31.0003 15.409 30.7265 15.5491 30.535 15.7176L31.0304 16.2806L31.5259 16.8437C31.5008 16.8657 31.3979 16.9383 31.2377 16.9278C31.0948 16.9184 31.0299 16.85 31.0483 16.8669L31.5562 16.3151ZM31.0304 16.2806L30.535 15.7176C30.2085 16.0049 30.0389 16.3858 29.9925 16.7943L30.7377 16.879L31.4829 16.9637C31.4938 16.8674 31.5195 16.8493 31.5259 16.8437L31.0304 16.2806ZM30.7377 16.879L29.9925 16.7943C29.9566 17.1103 30.04 17.4938 30.38 17.7563C30.6589 17.9717 30.9928 18.0069 31.2282 18.0063L31.2263 17.2563L31.2244 16.5063C31.1772 16.5064 31.1632 16.5019 31.1724 16.5042C31.1815 16.5064 31.2332 16.52 31.2967 16.569C31.3669 16.6232 31.4262 16.7017 31.4589 16.7938C31.489 16.8787 31.4853 16.9428 31.4829 16.9637L30.7377 16.879ZM31.2263 17.2563L31.2282 18.0063C31.2842 18.0061 31.1736 18.0197 31.064 17.8994C30.9614 17.7867 30.9866 17.694 30.9827 17.7762L31.7319 17.8114L32.481 17.8466C32.4946 17.5578 32.4442 17.1872 32.1731 16.8894C31.895 16.584 31.5229 16.5055 31.2244 16.5063L31.2263 17.2563ZM31.7319 17.8114L30.9827 17.7762C30.96 18.2603 31.0614 18.7966 31.4817 19.1762L31.9844 18.6195L32.4871 18.0629C32.5059 18.08 32.5051 18.0913 32.4978 18.068C32.4887 18.0387 32.4752 17.9706 32.481 17.8466L31.7319 17.8114ZM31.9844 18.6195L31.4817 19.1762C31.7507 19.419 32.0661 19.5965 32.4144 19.7161L32.6579 19.0067L32.9014 18.2973C32.7233 18.2362 32.5897 18.1556 32.4871 18.0629L31.9844 18.6195ZM32.6579 19.0067L32.4144 19.7161C32.6602 19.8005 32.8975 19.892 33.1265 19.9907L33.4233 19.3019L33.7201 18.6131C33.4549 18.4989 33.182 18.3937 32.9014 18.2973L32.6579 19.0067ZM33.4233 19.3019L33.1265 19.9907C33.2923 20.0622 33.4222 20.1518 33.5258 20.2561L34.0581 19.7278L34.5905 19.1995C34.3418 18.9489 34.0485 18.7546 33.7201 18.6131L33.4233 19.3019ZM34.0581 19.7278L33.5258 20.2561C33.7141 20.4459 33.909 20.6291 34.1104 20.8057L34.6048 20.2417L35.0993 19.6778C34.9239 19.524 34.7543 19.3646 34.5905 19.1995L34.0581 19.7278ZM34.6048 20.2417L34.1104 20.8057C34.1063 20.8021 34.1122 20.8039 34.1221 20.8292C34.1336 20.8587 34.15 20.9198 34.1532 21.0268L34.9029 21.0044L35.6525 20.9819C35.6384 20.5104 35.4956 20.0252 35.0993 19.6778L34.6048 20.2417ZM34.9029 21.0044L34.1532 21.0268C34.169 21.5541 34.3848 22.0963 34.9564 22.3675L35.2779 21.69L35.5995 21.0124C35.6055 21.0153 35.6183 21.0226 35.6328 21.0362C35.6474 21.0499 35.6571 21.0637 35.6623 21.0733C35.6717 21.0904 35.6552 21.0716 35.6525 20.9819L34.9029 21.0044ZM35.2779 21.69L34.9564 22.3675C35.073 22.4229 35.1513 22.4944 35.2098 22.5868L35.8433 22.1852L36.4768 21.7837C36.261 21.4433 35.9624 21.1846 35.5995 21.0124L35.2779 21.69ZM35.8433 22.1852L35.2098 22.5868C35.4196 22.9177 35.705 23.1763 36.0523 23.3567L36.3981 22.6911L36.7438 22.0256C36.6258 21.9643 36.5413 21.8855 36.4768 21.7837L35.8433 22.1852ZM36.3981 22.6911L36.0523 23.3567C36.099 23.381 36.1355 23.4015 36.1632 23.4183C36.1914 23.4355 36.2059 23.446 36.2104 23.4495C36.2167 23.4544 36.2002 23.4428 36.1752 23.4137C36.1619 23.3983 36.1425 23.3736 36.1221 23.3395C36.1018 23.3054 36.0774 23.2564 36.0592 23.1934L36.7796 22.985L37.5001 22.7765C37.4177 22.4917 37.2057 22.3227 37.1256 22.261C37.0119 22.1735 36.8782 22.0954 36.7438 22.0256L36.3981 22.6911ZM36.7796 22.985L36.0592 23.1934C35.9971 22.979 36.0557 22.8054 36.094 22.7253C36.1307 22.6487 36.1703 22.6092 36.1712 22.6083C36.1741 22.6053 36.14 22.6383 36.0311 22.7084L36.4372 23.339L36.8433 23.9695C36.9844 23.8787 37.1324 23.7721 37.2494 23.6512C37.3074 23.5912 37.3871 23.4982 37.4469 23.3733C37.5083 23.2449 37.573 23.0285 37.5001 22.7765L36.7796 22.985ZM36.4372 23.339L36.0311 22.7084C36.0305 22.7088 36.0483 22.6974 36.0833 22.6894C36.1205 22.6809 36.162 22.6799 36.2015 22.6874C36.2773 22.7017 36.2829 22.7337 36.2233 22.6727L35.6872 23.1972L35.1511 23.7217C35.3415 23.9163 35.5971 24.0997 35.9229 24.1612C36.2681 24.2265 36.586 24.1353 36.8433 23.9695L36.4372 23.339ZM35.6872 23.1972L36.2233 22.6727C36.0289 22.474 35.7592 22.2835 35.4112 22.2372C35.0456 22.1885 34.7272 22.316 34.485 22.499L34.9372 23.0973L35.3894 23.6957C35.396 23.6906 35.3822 23.7026 35.3476 23.7134C35.3101 23.7251 35.2629 23.7306 35.2132 23.724C35.1152 23.711 35.0955 23.6649 35.1511 23.7217L35.6872 23.1972ZM34.9372 23.0973L34.485 22.499C34.4244 22.5448 34.3913 22.5543 34.3851 22.5558C34.3821 22.5565 34.3825 22.5561 34.3848 22.5562C34.3871 22.5562 34.3868 22.5566 34.3826 22.5554L34.1872 23.2795L33.9918 24.0036C34.5131 24.1443 34.9978 23.9916 35.3894 23.6957L34.9372 23.0973ZM34.1872 23.2795L34.3826 22.5554C34.0926 22.4772 33.8004 22.424 33.5065 22.3967L33.4372 23.1435L33.3679 23.8903C33.574 23.9095 33.7818 23.947 33.9918 24.0036L34.1872 23.2795ZM33.4372 23.1435L33.5065 22.3967C33.0651 22.3558 32.6528 22.4802 32.2887 22.7086L32.6872 23.3439L33.0857 23.9793C33.2216 23.8941 33.3094 23.8849 33.3679 23.8903L33.4372 23.1435ZM32.6872 23.3439L32.2887 22.7086C32.2694 22.7206 32.2588 22.7246 32.2567 22.7253C32.2557 22.7256 32.2564 22.7253 32.2588 22.7248C32.2613 22.7243 32.2647 22.7238 32.269 22.7236C32.2733 22.7233 32.2777 22.7234 32.2818 22.7237C32.2858 22.7241 32.2889 22.7247 32.2908 22.7251C32.2948 22.726 32.291 22.7257 32.2789 22.7196L31.9372 23.3872L31.5955 24.0548C32.0949 24.3104 32.6257 24.2678 33.0857 23.9793L32.6872 23.3439ZM31.9372 23.3872L32.2789 22.7196C31.9517 22.5521 31.6067 22.4464 31.2474 22.4175L31.1872 23.165L31.127 23.9126C31.2677 23.924 31.4227 23.9664 31.5955 24.0548L31.9372 23.3872ZM31.1872 23.165L31.2474 22.4175C31.0988 22.4055 30.9383 22.3631 30.7627 22.2785L30.4372 22.9542L30.1117 23.6299C30.4361 23.7862 30.7756 23.8843 31.127 23.9126L31.1872 23.165ZM30.4372 22.9542L30.7627 22.2785C30.5132 22.1583 30.2334 22.1067 29.9422 22.1539C29.6587 22.1998 29.4163 22.3308 29.2166 22.4918L29.6872 23.0757L30.1578 23.6597C30.2081 23.6191 30.2157 23.6292 30.1822 23.6346C30.1658 23.6372 30.1478 23.6373 30.1313 23.6346C30.1154 23.6321 30.1085 23.6283 30.1117 23.6299L30.4372 22.9542ZM29.6872 23.0757L29.2166 22.4918C29.071 22.6091 29.002 22.6045 28.9893 22.6036L28.9372 23.3518L28.8851 24.1C29.3724 24.1339 29.8034 23.9453 30.1578 23.6597L29.6872 23.0757ZM28.9372 23.3518L28.9893 22.6036C28.8171 22.5916 28.6388 22.5528 28.4527 22.4823L28.1872 23.1837L27.9217 23.8852C28.2356 24.004 28.5573 24.0772 28.8851 24.1L28.9372 23.3518ZM28.1872 23.1837L28.4527 22.4823C28.167 22.3742 27.8785 22.2898 27.5874 22.2303L27.4372 22.9651L27.287 23.6999C27.4959 23.7426 27.7074 23.804 27.9217 23.8852L28.1872 23.1837ZM27.4372 22.9651L27.5874 22.2303C27.255 22.1624 26.9193 22.1511 26.5841 22.1977L26.6872 22.9405L26.7904 23.6834C26.9551 23.6605 27.1194 23.6657 27.287 23.6999L27.4372 22.9651ZM26.6872 22.9405L26.5841 22.1977C26.2679 22.2416 25.9573 22.3274 25.6534 22.4517L25.9372 23.1459L26.221 23.8401C26.4171 23.76 26.6065 23.7089 26.7904 23.6834L26.6872 22.9405ZM25.9372 23.1459L25.6534 22.4517C25.4513 22.5343 25.2546 22.5904 25.0627 22.6228L25.1872 23.3624L25.3117 24.1019C25.6198 24.0501 25.9231 23.9619 26.221 23.8401L25.9372 23.1459ZM25.1872 23.3624L25.0627 22.6228C24.8139 22.6647 24.5651 22.7059 24.3163 22.7466L24.4372 23.4868L24.5582 24.227C24.8093 24.1859 25.0605 24.1442 25.3117 24.1019L25.1872 23.3624ZM24.4372 23.4868L24.3163 22.7466C24.32 22.746 24.3254 22.7457 24.3307 22.7463C24.3357 22.7468 24.3355 22.7476 24.329 22.7451C24.3144 22.7396 24.2693 22.7181 24.1964 22.6506L23.6872 23.2013L23.1781 23.752C23.535 24.0821 24.0074 24.3169 24.5582 24.227L24.4372 23.4868ZM23.6872 23.2013L24.1964 22.6506C23.9831 22.4535 23.6836 22.2772 23.3089 22.2788C22.935 22.2804 22.6372 22.4587 22.4255 22.6563L22.9372 23.2046L23.4489 23.7529C23.4872 23.7171 23.4394 23.7783 23.3155 23.7788C23.1908 23.7793 23.1413 23.718 23.1781 23.752L23.6872 23.2013ZM22.9372 23.2046L22.4255 22.6563C22.3561 22.721 22.3202 22.7335 22.3206 22.7334C22.3218 22.733 22.3295 22.7306 22.3419 22.7301C22.3545 22.7296 22.3649 22.7311 22.371 22.7327L22.1872 23.4598L22.0035 24.1869C22.5789 24.3324 23.0805 24.0968 23.4489 23.7529L22.9372 23.2046ZM22.1872 23.4598L22.371 22.7327C22.0548 22.6528 21.7344 22.6172 21.4119 22.6281L21.4372 23.3777L21.4625 24.1273C21.64 24.1213 21.8196 24.1405 22.0035 24.1869L22.1872 23.4598ZM21.4372 23.3777L21.4119 22.6281C21.2497 22.6336 21.0835 22.6116 20.9099 22.5576L20.6872 23.2738L20.4645 23.99C20.791 24.0915 21.1247 24.1387 21.4625 24.1273L21.4372 23.3777ZM20.6872 23.2738L20.9099 22.5576C20.5314 22.4399 20.142 22.4267 19.7567 22.5222L19.9372 23.2501L20.1177 23.9781C20.2324 23.9496 20.343 23.9522 20.4645 23.99L20.6872 23.2738ZM19.9372 23.2501L19.7567 22.5222C19.6753 22.5424 19.5927 22.5395 19.484 22.4927L19.1872 23.1815L18.8904 23.8702C19.2818 24.0389 19.6991 24.0819 20.1177 23.9781L19.9372 23.2501ZM19.1872 23.1815L19.484 22.4927C19.0764 22.3171 18.6419 22.2873 18.2135 22.4212L18.4372 23.1371L18.6609 23.8529C18.7325 23.8305 18.798 23.8304 18.8904 23.8702L19.1872 23.1815ZM18.4372 23.1371L18.2135 22.4212C18.1931 22.4276 18.1829 22.427 18.1745 22.4257C18.1637 22.4241 18.1331 22.4173 18.0802 22.3847L17.6872 23.0235L17.2942 23.6623C17.704 23.9144 18.1775 24.004 18.6609 23.8529L18.4372 23.1371ZM17.6872 23.0235L18.0802 22.3847C17.8243 22.2272 17.5142 22.1436 17.1798 22.2036C16.8616 22.2607 16.6072 22.4325 16.4139 22.6208L16.9372 23.1581L17.4605 23.6953C17.5172 23.6401 17.5128 23.6678 17.4447 23.68C17.4096 23.6863 17.3729 23.6853 17.34 23.6782C17.3088 23.6714 17.2932 23.6617 17.2942 23.6623L17.6872 23.0235ZM16.9372 23.1581L16.4139 22.6208C16.3737 22.66 16.4289 22.5877 16.5692 22.589C16.7078 22.5903 16.7591 22.662 16.7156 22.6188L16.1872 23.1511L15.6588 23.6834C15.8653 23.8884 16.1666 24.0853 16.5552 24.0889C16.9456 24.0926 17.2507 23.8997 17.4605 23.6953L16.9372 23.1581ZM16.1872 23.1511L16.7156 22.6188C16.373 22.2787 15.9126 22.0141 15.3587 22.0724L15.4372 22.8183L15.5157 23.5642C15.4987 23.566 15.4922 23.5603 15.508 23.5673C15.5294 23.5768 15.5808 23.6059 15.6588 23.6834L16.1872 23.1511ZM15.4372 22.8183L15.3587 22.0724C14.8716 22.1237 14.4688 22.3925 14.1481 22.724L14.6872 23.2454L15.2263 23.7669C15.4056 23.5815 15.5028 23.5655 15.5157 23.5642L15.4372 22.8183ZM14.6872 23.2454L14.1481 22.724C14.071 22.8037 14.0251 22.8273 14.015 22.8316C14.0112 22.8333 14.0159 22.8308 14.0276 22.8293C14.0397 22.8277 14.0524 22.828 14.0632 22.8299L13.9372 23.5692L13.8112 24.3085C14.3977 24.4085 14.8817 24.1232 15.2263 23.7669L14.6872 23.2454ZM13.9372 23.5692L14.0632 22.8299C13.8716 22.7972 13.6752 22.7406 13.4733 22.6572L13.1872 23.3505L12.9011 24.0438C13.1992 24.1668 13.5028 24.256 13.8112 24.3085L13.9372 23.5692ZM13.1872 23.3505L13.4733 22.6572C13.2442 22.5627 13.014 22.4556 12.7825 22.3355L12.4372 23.0013L12.0919 23.667C12.3604 23.8063 12.6302 23.932 12.9011 24.0438L13.1872 23.3505ZM12.4372 23.0013L12.7825 22.3355C12.3284 22.0999 11.8314 22.086 11.3651 22.3078L11.6872 22.9851L12.0093 23.6624C12.0259 23.6545 12.0362 23.6517 12.0408 23.6506C12.0431 23.6501 12.0445 23.6499 12.0451 23.6499C12.0457 23.6498 12.0459 23.6498 12.046 23.6498C12.0462 23.6498 12.0467 23.6498 12.0477 23.65C12.0488 23.6501 12.0509 23.6505 12.0541 23.6514C12.0605 23.6531 12.0729 23.6572 12.0919 23.667L12.4372 23.0013ZM11.6872 22.9851L11.3651 22.3078C11.2265 22.3737 11.1141 22.3888 11.0148 22.3785L10.9372 23.1245L10.8596 23.8704C11.2603 23.9121 11.6479 23.8343 12.0093 23.6624L11.6872 22.9851ZM10.9372 23.1245L11.0148 22.3785C10.7161 22.3474 10.417 22.3457 10.1182 22.3733L10.1872 23.1201L10.2562 23.8669C10.4574 23.8483 10.6583 23.8495 10.8596 23.8704L10.9372 23.1245ZM10.1872 23.1201L10.1182 22.3733C9.84734 22.3983 9.60056 22.4338 9.38464 22.4834L9.55258 23.2144L9.72053 23.9453C9.85077 23.9154 10.0271 23.8881 10.2562 23.8669L10.1872 23.1201ZM9.55258 23.2144L9.38464 22.4834C9.30408 22.5019 9.27701 22.5051 9.28276 22.5045C9.28662 22.5041 9.29944 22.5029 9.31855 22.5026C9.33487 22.5024 9.37424 22.5025 9.42594 22.5106C9.46481 22.5167 9.58635 22.538 9.71622 22.6255C9.78801 22.6739 9.87388 22.7505 9.9411 22.8652C10.0108 22.9843 10.043 23.1148 10.043 23.2405L9.29296 23.2405L8.54296 23.2405C8.54296 23.5375 8.70836 23.7551 8.87781 23.8694C9.01309 23.9605 9.14274 23.9845 9.19243 23.9923C9.3021 24.0096 9.39715 24.0006 9.43297 23.997C9.52525 23.9877 9.628 23.9666 9.72053 23.9453L9.55258 23.2144ZM9.29296 23.2405L10.043 23.2405C10.043 23.2563 10.0426 23.2936 10.0361 23.3408C10.0343 23.3535 10.0179 23.5136 9.90405 23.6732C9.83441 23.7709 9.69265 23.9166 9.45857 23.9694C9.22414 24.0223 9.03314 23.9514 8.92765 23.8924C8.7557 23.7962 8.67226 23.6576 8.66531 23.6469C8.62211 23.5803 8.60001 23.5214 8.59899 23.5188C8.59239 23.5022 8.58821 23.4897 8.58685 23.4856C8.58281 23.4734 8.58343 23.4738 8.59109 23.5025C8.60395 23.5507 8.62506 23.6347 8.65527 23.7591L9.38407 23.582L10.1129 23.4049C10.0823 23.2793 10.0579 23.1814 10.0404 23.1158C10.0329 23.0875 10.0221 23.048 10.0105 23.013C10.0072 23.0032 10.0014 22.986 9.99334 22.9658C9.99089 22.9596 9.96761 22.8982 9.92346 22.8302C9.91603 22.8187 9.83218 22.6796 9.65987 22.5833C9.5542 22.5242 9.36304 22.4532 9.12846 22.5062C8.89423 22.559 8.75234 22.7047 8.68258 22.8026C8.56854 22.9626 8.55187 23.1233 8.55001 23.1369C8.54341 23.1849 8.54296 23.2233 8.54296 23.2405L9.29296 23.2405Z" fill="#030302"/>
</svg>
