<svg width="48" height="48" viewBox="0 0 48 48" fill="none" xmlns="http://www.w3.org/2000/svg">
<path d="M40.2418 31.732L39.5115 31.9025L40.2418 31.732ZM39.7257 31.1875L39.9261 30.4647L39.7257 31.1875ZM38.9792 30.8576L38.5708 31.4867L38.9792 30.8576ZM37.844 28.8464L38.4032 28.3465L37.844 28.8464ZM37.5545 28.1411L38.3041 28.1167L37.5545 28.1411ZM37.7853 27.3618L37.1524 26.9594L37.7853 27.3618ZM37.6676 26.6034L37.1276 27.1239L37.6676 26.6034ZM37.3952 25.1034L38.0954 24.8347L37.3952 25.1034ZM37.7161 23.6034L36.9797 23.7451L37.7161 23.6034ZM37.5731 22.8534L38.3101 22.7141L37.5731 22.8534ZM37.3656 22.1034L36.6609 22.3602L37.3656 22.1034ZM37.5294 19.106L36.8156 19.3363V19.3363L37.5294 19.106ZM37.7054 18.3421L37.1073 17.8895L37.7054 18.3421ZM37.5566 17.6213L37.1104 18.2242L37.5566 17.6213ZM37.1663 16.9126L37.9086 17.0197L37.1663 16.9126ZM37.0194 14.6501L37.7366 14.8697L37.0194 14.6501ZM35.7425 11.9411L35.5232 12.6583L35.7425 11.9411ZM35.138 11.4285L35.848 11.1866L35.138 11.4285ZM34.8782 10.6883L34.1728 10.943L34.8782 10.6883ZM32.095 8.16269L31.3572 8.29738L32.095 8.16269ZM31.6473 7.49183L31.3417 8.17672L31.6473 7.49183ZM30.8043 7.44484L30.9704 8.17622L30.8043 7.44484ZM28.0722 6.2291L28.2602 5.50306L28.0722 6.2291ZM26.6396 5.7379L26.4228 6.45586L26.6396 5.7379ZM25.1399 5.66181L24.7147 5.04395L25.1399 5.66181ZM22.8925 5.89751L22.5404 6.55971L22.8925 5.89751ZM22.1357 5.81046L21.8926 5.10093L22.1357 5.81046ZM20.7191 6.3122L21.1182 6.94719L20.7191 6.3122ZM20.0289 6.59842L20.1913 7.33063L20.0289 6.59842ZM19.3048 6.77844L19.5041 7.50148L19.3048 6.77844ZM18.5953 7.01585L18.3193 6.31847L18.5953 7.01585ZM17.9574 7.40005L18.4433 7.9713L17.9574 7.40005ZM17.3938 7.90266L16.8815 7.35492L17.3938 7.90266ZM16.8119 8.3585L17.2198 8.98787L16.8119 8.3585ZM15.4273 9.01362L15.3262 8.27046L15.4273 9.01362ZM13.5544 11.3421L13.9503 11.9792L13.5544 11.3421ZM12.9541 11.8396L12.3982 11.3363L12.9541 11.8396ZM12.4787 12.4395L11.8616 12.0133L12.4787 12.4395ZM11.7783 13.7923L11.0426 13.6467L11.7783 13.7923ZM11.5492 14.5249L10.8623 14.2238L11.5492 14.5249ZM11.1978 15.218L11.8474 15.5928L11.1978 15.218ZM11.1673 15.9891L10.4688 16.2624L11.1673 15.9891ZM11.1412 18.2674L10.3969 18.1754L11.1412 18.2674ZM11.1264 19.0109L10.379 19.0727L11.1264 19.0109ZM10.9483 20.5097L10.3072 20.1205L10.9483 20.5097ZM10.9148 21.2597L11.5809 20.9149L10.9148 21.2597ZM11.0651 22.0097L10.3202 21.9226L11.0651 22.0097ZM11.0644 25.0097L10.5355 25.5414L11.0644 25.0097ZM10.8277 27.2604L10.1459 27.5727L10.8277 27.2604ZM11.0807 28.0433L10.3451 28.1894L11.0807 28.0433ZM11.0343 28.8283L10.3235 28.5889L11.0343 28.8283ZM10.7467 29.5739L10.0592 29.2743L10.7467 29.5739ZM10.0812 30.0413L9.93624 29.3054L10.0812 30.0413ZM7.55707 34.3457L6.95871 34.7979L7.55707 34.3457ZM7.73927 35.0957L7.01517 34.9003L7.73927 35.0957ZM7.80368 36.5957L8.43906 36.1972L7.80368 36.5957ZM9.1791 37.5862L9.50463 36.9105L9.1791 37.5862ZM11.4291 37.3566L11.1636 38.058L11.4291 37.3566ZM13.6791 37.3944L13.3953 36.7002L13.6791 37.3944ZM14.4291 37.178L14.3046 36.4384L14.4291 37.178ZM15.9291 37.339L16.4382 36.7883L15.9291 37.339ZM16.6791 37.3358L17.1908 37.8841L16.6791 37.3358ZM21.6467 40.8892L22.3604 40.6587L21.6467 40.8892ZM22.1985 41.495L22.3874 40.7691L22.1985 41.495ZM23.8286 41.1031L24.0312 40.381L23.8286 41.1031ZM24.5431 41.3409L24.8103 40.6402V40.6402L24.5431 41.3409ZM25.3284 41.6101L25.5493 40.8934L25.3284 41.6101ZM27.415 40.701L26.965 40.1011L27.415 40.701ZM27.9735 40.1896L27.4149 39.689L27.9735 40.1896ZM29.6866 38.6217L30.2224 39.1465L29.6866 38.6217ZM29.8914 37.8815L30.629 37.7457L29.8914 37.8815ZM30.1661 37.5728L29.8954 38.2722L30.1661 37.5728ZM30.8981 37.6601L30.7974 36.9169L30.8981 37.6601ZM31.6481 37.6456L31.5759 38.3921L31.6481 37.6456ZM32.3981 37.5277L32.6833 38.2214L32.3981 37.5277ZM33.1481 37.1829L33.488 37.8514L33.1481 37.1829ZM34.6481 37.1889L35.0024 36.5278L34.6481 37.1889ZM35.3981 37.2437L35.6704 37.9425L35.3981 37.2437ZM36.8981 37.3602L36.7302 36.6292L36.8981 37.3602ZM37.6481 37.2744L37.6476 38.0244L37.6481 37.2744ZM38.3981 37.2233L38.2963 36.4802L38.3981 37.2233ZM39.1481 37.0299L38.8826 36.3285L39.1481 37.0299ZM40.6965 37.187L40.9062 36.4669L40.6965 37.187ZM41.1122 36.1853L40.3644 36.1271L41.1122 36.1853ZM40.8694 34.6853L40.2727 34.231L40.8694 34.6853ZM40.9036 33.9353L40.2806 34.3529L40.9036 33.9353ZM40.7848 32.6874L40.4129 32.0361L40.7848 32.6874ZM23.9657 40.5998L23.8316 41.3377L23.9657 40.5998ZM22.5747 40.1485L22.1594 40.773L22.5747 40.1485ZM21.7858 40.0121L21.6798 39.2696L21.7858 40.0121ZM21.2695 39.5345L20.5211 39.5833L21.2695 39.5345ZM20.0346 38.546L20.4046 37.8936L20.0346 38.546ZM21.4095 37.3071L21.6704 38.0102L21.4095 37.3071ZM22.9095 37.243L22.4578 36.6443L22.9095 37.243ZM25.1595 37.6963L25.2576 38.4399L25.1595 37.6963ZM25.9095 37.4034L26.3179 38.0325L25.9095 37.4034ZM28.8061 37.6742L28.7602 36.9257L28.8061 37.6742ZM28.9575 38.0369L28.2426 37.8103L28.9575 38.0369ZM28.4314 38.5947L28.7331 39.2813L28.4314 38.5947ZM27.4264 39.7891L26.7914 39.39L27.4264 39.7891ZM26.7213 40.0373L26.5651 40.7708L26.7213 40.0373ZM25.2563 40.3639L25.0527 39.6421L25.2563 40.3639ZM39.7917 36.5333L39.8581 37.2804L39.7917 36.5333ZM38.2917 36.3118L38.4082 35.5709L38.2917 36.3118ZM36.0417 36.5148L35.6138 35.8989L36.0417 36.5148ZM35.2917 36.424L34.7789 36.9712L35.2917 36.424ZM34.5417 36.0723L34.5414 36.8223L34.5417 36.0723ZM33.7917 36.328L33.3691 35.7084L33.7917 36.328ZM32.2917 36.11L32.2883 35.36L32.2917 36.11ZM29.2917 36.6174L29.7147 37.2368L29.2917 36.6174ZM28.5417 36.6366L28.9422 36.0025L28.5417 36.6366ZM27.7917 36.6098L27.4253 35.9554L27.7917 36.6098ZM27.0417 36.7281L27.2198 35.9996L27.0417 36.7281ZM26.2917 36.7225L26.4594 37.4535L26.2917 36.7225ZM24.0417 36.7085L23.7329 37.3919L24.0417 36.7085ZM21.7917 36.5632L22.2029 37.1904L21.7917 36.5632ZM21.0417 36.4993L21.5193 35.9211L21.0417 36.4993ZM20.2917 36.4621L20.7326 37.0689L20.2917 36.4621ZM18.7917 36.4484L18.6496 37.1848L18.7917 36.4484ZM17.2917 36.5658L17.0222 35.8659L17.2917 36.5658ZM16.5417 36.7447L16.473 35.9979L16.5417 36.7447ZM15.7917 36.5566L16.1747 35.9117L15.7917 36.5566ZM14.2917 36.2776L14.6779 36.9205L14.2917 36.2776ZM12.0417 36.5485L11.6545 35.9062L12.0417 36.5485ZM9.79175 36.7728L9.60112 37.4982L9.79175 36.7728ZM9.04175 36.5603L9.25994 35.8427L9.04175 36.5603ZM8.63491 36.1815L9.37955 36.0919L8.63491 36.1815ZM8.79698 34.0417L9.52531 34.2207L8.79698 34.0417ZM9.07752 32.8012L9.39178 33.4822L9.07752 32.8012ZM10.7063 30.4115L9.95641 30.399L10.7063 30.4115ZM10.8819 29.6583L10.2224 29.301L10.8819 29.6583ZM11.5662 28.3767L10.8798 28.0744L11.5662 28.3767ZM11.5835 27.6605L10.8771 27.9126L11.5835 27.6605ZM11.4211 26.916L10.6734 26.9744L11.4211 26.916ZM11.7028 26.1703L11.1252 25.6919L11.7028 26.1703ZM11.8846 25.4203L12.594 25.1767L11.8846 25.4203ZM11.7839 23.9203L12.3222 23.398L11.7839 23.9203ZM12.0559 22.4203L12.7485 22.1326L12.0559 22.4203ZM11.7971 20.9203L11.2128 20.4501L11.7971 20.9203ZM12.1674 19.4203L11.4499 19.6389L12.1674 19.4203ZM12.1469 18.6814L11.4206 18.4943L12.1469 18.6814ZM11.8707 17.1696L12.4458 17.6509L11.8707 17.1696ZM12.3524 16.4955L12.9983 16.8766L12.3524 16.4955ZM12.4157 14.9622L13.1656 14.9744L12.4157 14.9622ZM12.9591 13.5575L13.6005 13.9462L12.9591 13.5575ZM15.1075 10.4589L14.3807 10.2741L15.1075 10.4589ZM15.6634 9.96932L15.5425 9.22913L15.6634 9.96932ZM16.8475 9.04321L16.5958 8.3367L16.8475 9.04321ZM17.9253 7.91601L18.4325 8.46846L17.9253 7.91601ZM18.6826 7.73878L18.8228 7.002L18.6826 7.73878ZM20.8612 7.10652L21.3144 7.70412L20.8612 7.10652ZM23.0765 7.0044L23.1485 7.75094L23.0765 7.0044ZM23.7924 6.5442L24.3679 7.02518L23.7924 6.5442ZM24.5284 6.25677L24.7842 5.55173L24.5284 6.25677ZM25.296 6.33199L25.1759 5.59167L25.296 6.33199ZM26.0582 6.35329L25.8942 7.08513L26.0582 6.35329ZM27.4884 6.96844L27.1374 6.30561L27.4884 6.96844ZM31.7016 8.57542L31.0767 8.99024L31.7016 8.57542ZM32.652 9.80961L32.159 10.3748L32.652 9.80961ZM33.2996 10.2217L32.9883 10.904L33.2996 10.2217ZM35.3093 13.3506L34.5848 13.5447L35.3093 13.3506ZM36.5271 16.0665L37.1571 16.4733L36.5271 16.0665ZM36.4603 16.8591L35.8411 17.2824L36.4603 16.8591ZM36.521 17.584L35.8323 17.2871L36.521 17.584ZM37.0277 22.0607L37.7716 21.9647L37.0277 22.0607ZM36.4294 23.5607L35.6829 23.6327L36.4294 23.5607ZM37.0976 26.5607L37.8234 26.3716L37.0976 26.5607ZM37.181 27.2964L36.4315 27.2666L37.181 27.2964ZM37.551 29.3996L36.8083 29.5043V29.5043L37.551 29.3996ZM37.7862 30.0869L38.4359 29.7121L37.7862 30.0869ZM38.0008 30.8705L37.2525 30.9209L38.0008 30.8705ZM38.3869 31.5258L38.0339 32.1875L38.3869 31.5258ZM39.1484 31.8395L38.9288 32.5567L39.1484 31.8395ZM39.6773 32.3712L38.9591 32.587L39.6773 32.3712ZM40.0181 33.6823L40.7495 33.8486L40.0181 33.6823ZM40.2787 36.4037L40.7679 36.9721L40.2787 36.4037ZM40.6711 32.3628L41.063 31.7234C41.0394 31.7089 41.0005 31.6826 40.9722 31.5615L40.2418 31.732L39.5115 31.9025C39.6168 32.3537 39.8641 32.7479 40.2791 33.0023L40.6711 32.3628ZM40.2418 31.732L40.9722 31.5615C40.9139 31.3117 40.7995 31.0684 40.607 30.8653C40.4139 30.6615 40.1759 30.534 39.9261 30.4647L39.7257 31.1875L39.5254 31.9102C39.5407 31.9145 39.5442 31.9172 39.5401 31.9149C39.5382 31.9138 39.5349 31.9118 39.5309 31.9086C39.5268 31.9054 39.5225 31.9015 39.5184 31.8972C39.5143 31.8929 39.511 31.8887 39.5084 31.885C39.5058 31.8814 39.5045 31.8789 39.5041 31.8781C39.5032 31.8764 39.507 31.8832 39.5115 31.9025L40.2418 31.732ZM39.7257 31.1875L39.9261 30.4647C39.7156 30.4064 39.538 30.3262 39.3875 30.2285L38.9792 30.8576L38.5708 31.4867C38.8612 31.6752 39.1814 31.8149 39.5254 31.9102L39.7257 31.1875ZM38.9792 30.8576L39.3875 30.2285C39.3426 30.1993 39.3075 30.1626 39.2846 30.0632L38.5537 30.2316L37.8229 30.3999C37.9263 30.849 38.1749 31.2297 38.5708 31.4867L38.9792 30.8576ZM38.5537 30.2316L39.2846 30.0632C39.2094 29.737 39.1021 29.4303 38.9581 29.1477L38.2898 29.488L37.6215 29.8284C37.7031 29.9886 37.7717 30.1776 37.8229 30.3999L38.5537 30.2316ZM38.2898 29.488L38.9581 29.1477C38.8129 28.8625 38.6259 28.5957 38.4032 28.3465L37.844 28.8464L37.2849 29.3463C37.431 29.5097 37.5412 29.6707 37.6215 29.8284L38.2898 29.488ZM37.844 28.8464L38.4032 28.3465C38.33 28.2647 38.3067 28.1957 38.3041 28.1167L37.5545 28.1411L36.8049 28.1655C36.8195 28.6143 36.9892 29.0156 37.2849 29.3463L37.844 28.8464ZM37.5545 28.1411L38.3041 28.1167C38.3011 28.0248 38.3244 27.9118 38.4182 27.7642L37.7853 27.3618L37.1524 26.9594C36.9213 27.323 36.7907 27.7294 36.8049 28.1655L37.5545 28.1411ZM37.7853 27.3618L38.4182 27.7642C38.5782 27.5125 38.6714 27.2038 38.6189 26.8654C38.5684 26.5405 38.3977 26.2802 38.2076 26.0829L37.6676 26.6034L37.1276 27.1239C37.1784 27.1766 37.1479 27.1677 37.1367 27.0956C37.131 27.0594 37.1333 27.0237 37.1405 26.9939C37.1473 26.966 37.1557 26.9542 37.1524 26.9594L37.7853 27.3618ZM37.6676 26.6034L38.2076 26.0829C38.1416 26.0145 38.1348 25.984 38.1385 25.9955C38.1408 26.0025 38.144 26.0164 38.1442 26.0349C38.1443 26.0534 38.1413 26.0679 38.1388 26.0759L37.4226 25.8534L36.7064 25.6309C36.521 26.2275 36.7681 26.751 37.1276 27.1239L37.6676 26.6034ZM37.4226 25.8534L38.1388 26.0759C38.2677 25.6611 38.2502 25.2381 38.0954 24.8347L37.3952 25.1034L36.695 25.3721C36.732 25.4687 36.7328 25.5457 36.7064 25.6309L37.4226 25.8534ZM37.3952 25.1034L38.0954 24.8347C38.0931 24.8287 38.094 24.8291 38.0946 24.8348C38.0953 24.8408 38.095 24.8469 38.0943 24.8513C38.0927 24.861 38.0929 24.8414 38.1296 24.79L37.5198 24.3534L36.91 23.9168C36.6097 24.3363 36.4942 24.8487 36.695 25.3721L37.3952 25.1034ZM37.5198 24.3534L38.1296 24.79C38.4016 24.4102 38.5475 23.9548 38.4526 23.4617L37.7161 23.6034L36.9797 23.7451C36.981 23.752 36.996 23.7966 36.91 23.9168L37.5198 24.3534ZM37.7161 23.6034L38.4526 23.4617C38.4047 23.2125 38.3572 22.9633 38.3101 22.7141L37.5731 22.8534L36.8361 22.9927C36.8836 23.2435 36.9314 23.4943 36.9797 23.7451L37.7161 23.6034ZM37.5731 22.8534L38.3101 22.7141C38.2549 22.4224 38.1747 22.1331 38.0703 21.8466L37.3656 22.1034L36.6609 22.3602C36.7387 22.5737 36.7968 22.7844 36.8361 22.9927L37.5731 22.8534ZM37.3656 22.1034L38.0703 21.8466C38.0744 21.858 38.0797 21.8787 38.0801 21.9055C38.0804 21.9324 38.0757 21.9542 38.0712 21.9677C38.0671 21.98 38.0651 21.9793 38.0745 21.9656C38.0841 21.9516 38.1035 21.9272 38.1385 21.8934L37.618 21.3534L37.0976 20.8134C36.7145 21.1826 36.4315 21.7306 36.6609 22.3602L37.3656 22.1034ZM37.618 21.3534L38.1385 21.8934C38.3492 21.6903 38.5617 21.3842 38.5633 20.9813C38.5649 20.5775 38.3539 20.2698 38.1434 20.0653L37.6209 20.6034L37.0985 21.1415C37.1454 21.187 37.0627 21.1293 37.0633 20.9755C37.0639 20.8226 37.1462 20.7665 37.0976 20.8134L37.618 21.3534ZM37.6209 20.6034L38.1434 20.0653C38.078 20.0018 38.0988 19.9962 38.1127 20.0545C38.1201 20.0856 38.122 20.1218 38.1164 20.1575C38.111 20.1918 38.1008 20.2121 38.0984 20.2164L37.4421 19.8534L36.7858 19.4904C36.6371 19.7593 36.5755 20.0747 36.6536 20.4023C36.7271 20.7106 36.9064 20.955 37.0985 21.1415L37.6209 20.6034ZM37.4421 19.8534L38.0984 20.2164C38.3264 19.8042 38.3933 19.3411 38.2431 18.8756L37.5294 19.106L36.8156 19.3363C36.8257 19.3675 36.8344 19.4026 36.7858 19.4904L37.4421 19.8534ZM37.5294 19.106L38.2431 18.8756C38.243 18.8754 38.2443 18.8796 38.2446 18.8866C38.2449 18.8936 38.244 18.8977 38.2441 18.8972C38.2445 18.8954 38.2529 18.8615 38.3035 18.7947L37.7054 18.3421L37.1073 17.8895C36.8043 18.2899 36.6412 18.7958 36.8156 19.3363L37.5294 19.106ZM37.7054 18.3421L38.3035 18.7947C38.4866 18.5526 38.6326 18.211 38.5508 17.8145C38.4737 17.4413 38.2267 17.1842 38.0027 17.0185L37.5566 17.6213L37.1104 18.2242C37.1831 18.278 37.1092 18.2508 37.0818 18.1178C37.0676 18.0494 37.0738 17.9857 37.0878 17.938C37.1005 17.8951 37.1153 17.8789 37.1073 17.8895L37.7054 18.3421ZM37.5566 17.6213L38.0027 17.0185C37.9586 16.9858 37.9302 16.9595 37.9128 16.9409C37.8956 16.9225 37.8917 16.9144 37.8935 16.9177C37.8958 16.9219 37.9025 16.9359 37.9068 16.9582C37.9112 16.981 37.9111 17.0027 37.9086 17.0197L37.1663 16.9126L36.424 16.8054C36.3318 17.4447 36.7021 17.922 37.1104 18.2242L37.5566 17.6213ZM37.1663 16.9126L37.9086 17.0197C37.9533 16.7104 37.9622 16.4013 37.9343 16.0937L37.1874 16.1613L36.4405 16.229C36.4575 16.417 36.4524 16.6088 36.424 16.8054L37.1663 16.9126ZM37.1874 16.1613L37.9343 16.0937C37.9055 15.7757 37.833 15.4672 37.7171 15.17L37.0184 15.4425L36.3197 15.7151C36.3842 15.8806 36.4243 16.0512 36.4405 16.229L37.1874 16.1613ZM37.0184 15.4425L37.7171 15.17C37.7023 15.132 37.6824 15.0466 37.7366 14.8697L37.0194 14.6501L36.3023 14.4305C36.1746 14.8476 36.154 15.2904 36.3197 15.7151L37.0184 15.4425ZM37.0194 14.6501L37.7366 14.8697C37.813 14.6201 37.8404 14.3394 37.764 14.0535C37.6864 13.7627 37.5181 13.5297 37.3085 13.3541L36.8268 13.9289L36.345 14.5037C36.3519 14.5095 36.3472 14.507 36.3387 14.4942C36.3296 14.4806 36.3206 14.462 36.3149 14.4406C36.3027 14.3951 36.3168 14.3831 36.3023 14.4305L37.0194 14.6501ZM36.8268 13.9289L37.3085 13.3541C37.1524 13.2232 37.0506 13.0947 36.9856 12.9719L36.3228 13.3231L35.6601 13.6742C35.8283 13.9916 36.0625 14.2669 36.345 14.5037L36.8268 13.9289ZM36.3228 13.3231L36.9856 12.9719C36.9492 12.9034 36.917 12.7917 36.9326 12.6018L36.1851 12.5404L35.4376 12.479C35.4037 12.8925 35.4632 13.3026 35.6601 13.6742L36.3228 13.3231ZM36.1851 12.5404L36.9326 12.6018C36.9565 12.3114 36.9003 11.9948 36.6963 11.7187C36.4988 11.4512 36.2228 11.3037 35.9618 11.2239L35.7425 11.9411L35.5232 12.6583C35.582 12.6763 35.5398 12.6776 35.4898 12.6099C35.4653 12.5767 35.4502 12.5415 35.4429 12.5116C35.4361 12.4837 35.4383 12.4704 35.4376 12.479L36.1851 12.5404ZM35.7425 11.9411L35.9618 11.2239C35.8744 11.1972 35.8418 11.172 35.8366 11.1676C35.8344 11.1658 35.837 11.1676 35.841 11.1734C35.845 11.1793 35.8472 11.1845 35.848 11.1866L35.138 11.4285L34.4281 11.6704C34.6114 12.2082 35.0486 12.5132 35.5232 12.6583L35.7425 11.9411ZM35.138 11.4285L35.848 11.1866C35.7634 10.9383 35.6753 10.6873 35.5837 10.4336L34.8782 10.6883L34.1728 10.943C34.2614 11.1884 34.3465 11.4309 34.4281 11.6704L35.138 11.4285ZM34.8782 10.6883L35.5837 10.4336C35.4196 9.9791 35.0927 9.64785 34.657 9.46055L34.3608 10.1496L34.0646 10.8386C34.1386 10.8704 34.1567 10.8983 34.1728 10.943L34.8782 10.6883ZM34.3608 10.1496L34.657 9.46055C34.472 9.38104 34.3294 9.28687 34.2189 9.1837L33.7071 9.73196L33.1954 10.2802C33.4466 10.5148 33.7398 10.699 34.0646 10.8386L34.3608 10.1496ZM33.7071 9.73196L34.2189 9.1837C34.1896 9.15634 34.1287 9.08081 34.094 8.87722L33.3547 9.00339L32.6153 9.12957C32.6887 9.55967 32.8629 9.96985 33.1954 10.2802L33.7071 9.73196ZM33.3547 9.00339L34.094 8.87722C34.0428 8.57718 33.8944 8.24739 33.5643 8.0348C33.2528 7.8342 32.906 7.82117 32.6301 7.85865L32.7311 8.60182L32.8321 9.345C32.9178 9.33334 32.8558 9.36267 32.7521 9.29592C32.699 9.26168 32.6603 9.21739 32.6368 9.17692C32.6154 9.14009 32.6135 9.11879 32.6153 9.12957L33.3547 9.00339ZM32.7311 8.60182L32.6301 7.85865C32.5576 7.8685 32.6254 7.84156 32.727 7.9117C32.7758 7.94544 32.807 7.98533 32.8237 8.01497C32.8385 8.04139 32.837 8.05066 32.8328 8.028L32.095 8.16269L31.3572 8.29738C31.4113 8.59385 31.5542 8.92481 31.8747 9.1461C32.1884 9.36261 32.5429 9.38429 32.8321 9.345L32.7311 8.60182ZM32.095 8.16269L32.8328 8.028C32.7428 7.53485 32.4889 7.04613 31.953 6.80694L31.6473 7.49183L31.3417 8.17672C31.3364 8.17437 31.3287 8.16988 31.3211 8.16339C31.3136 8.15703 31.3111 8.15286 31.3124 8.15487C31.3162 8.16058 31.3392 8.19889 31.3572 8.29738L32.095 8.16269ZM31.6473 7.49183L31.953 6.80694C31.5305 6.6184 31.0758 6.61409 30.6382 6.71346L30.8043 7.44484L30.9704 8.17622C31.1847 8.12755 31.292 8.15456 31.3417 8.17672L31.6473 7.49183ZM30.8043 7.44484L30.6382 6.71346C30.4193 6.76318 30.3433 6.72687 30.3352 6.72269L29.9922 7.38966L29.6492 8.05663C30.072 8.27407 30.5374 8.27455 30.9704 8.17622L30.8043 7.44484ZM29.9922 7.38966L30.3352 6.72269C30.3044 6.70688 30.2209 6.64918 30.1211 6.44873L29.4497 6.78298L28.7783 7.11724C28.9709 7.50407 29.249 7.85082 29.6492 8.05663L29.9922 7.38966ZM29.4497 6.78298L30.1211 6.44873C29.8858 5.97621 29.4643 5.59803 28.851 5.58299L28.8326 6.33277L28.8142 7.08254C28.8114 7.08247 28.8 7.08168 28.7837 7.07626C28.7671 7.07074 28.7532 7.06303 28.7437 7.05609C28.7255 7.04281 28.7438 7.04795 28.7783 7.11724L29.4497 6.78298ZM28.8326 6.33277L28.851 5.58299C28.6395 5.57781 28.4431 5.55044 28.2602 5.50306L28.0722 6.2291L27.8841 6.95514C28.1846 7.03298 28.4953 7.07472 28.8142 7.08254L28.8326 6.33277ZM28.0722 6.2291L28.2602 5.50306C28.0513 5.44894 27.8446 5.38037 27.6401 5.29708L27.3572 5.9917L27.0744 6.68632C27.3397 6.79435 27.6096 6.88404 27.8841 6.95514L28.0722 6.2291ZM27.3572 5.9917L27.6401 5.29708C27.3835 5.1926 27.1223 5.10022 26.8565 5.01994L26.6396 5.7379L26.4228 6.45586C26.644 6.52267 26.8611 6.59949 27.0744 6.68632L27.3572 5.9917ZM26.6396 5.7379L26.8565 5.01994C26.6167 4.94748 26.3748 4.87246 26.131 4.79487L25.9036 5.50956L25.6761 6.22425C25.9268 6.30403 26.1757 6.38123 26.4228 6.45586L26.6396 5.7379ZM25.9036 5.50956L26.131 4.79487C25.6131 4.63008 25.1198 4.76521 24.7147 5.04395L25.1399 5.66181L25.565 6.27966C25.6304 6.23467 25.6661 6.22566 25.6738 6.22414C25.6775 6.22339 25.6775 6.22379 25.675 6.22366C25.6726 6.22352 25.6726 6.22312 25.6761 6.22425L25.9036 5.50956ZM25.1399 5.66181L24.7147 5.04395C24.6477 5.09008 24.6091 5.101 24.5978 5.1034C24.5922 5.10457 24.5907 5.10429 24.5918 5.10434C24.5929 5.10438 24.5923 5.10459 24.5887 5.10352L24.3767 5.82294L24.1648 6.54236C24.6788 6.69384 25.165 6.55494 25.565 6.27966L25.1399 5.66181ZM24.3767 5.82294L24.5887 5.10352C24.1376 4.9706 23.689 5.03245 23.2863 5.25365L23.6475 5.91098L24.0086 6.56831C24.0845 6.52661 24.122 6.52977 24.1648 6.54236L24.3767 5.82294ZM23.6475 5.91098L23.2863 5.25365C23.2771 5.25875 23.2744 5.25887 23.2779 5.25796C23.2817 5.25698 23.2873 5.25622 23.2927 5.25632C23.2978 5.25641 23.2978 5.25718 23.2911 5.25531C23.284 5.25331 23.2686 5.24807 23.2446 5.23532L22.8925 5.89751L22.5404 6.55971C23.0025 6.80545 23.5236 6.83475 24.0086 6.56831L23.6475 5.91098ZM22.8925 5.89751L23.2446 5.23532C22.8325 5.01615 22.3643 4.93935 21.8926 5.10093L22.1357 5.81046L22.3787 6.51998C22.388 6.51679 22.4244 6.49803 22.5404 6.55971L22.8925 5.89751ZM22.1357 5.81046L21.8926 5.10093C21.6748 5.17556 21.4566 5.23867 21.2379 5.29043L21.4107 6.02026L21.5834 6.75009C21.8505 6.68688 22.1156 6.61013 22.3787 6.51998L22.1357 5.81046ZM21.4107 6.02026L21.2379 5.29043C20.9123 5.36751 20.6056 5.4977 20.32 5.67722L20.7191 6.3122L21.1182 6.94719C21.269 6.85242 21.4234 6.78798 21.5834 6.75009L21.4107 6.02026ZM20.7191 6.3122L20.32 5.67722C20.1717 5.77047 20.0213 5.83188 19.8665 5.86621L20.0289 6.59842L20.1913 7.33063C20.5205 7.25762 20.8302 7.12822 21.1182 6.94719L20.7191 6.3122ZM20.0289 6.59842L19.8665 5.86621C19.612 5.92265 19.3584 5.98571 19.1055 6.0554L19.3048 6.77844L19.5041 7.50148C19.7327 7.43848 19.9617 7.38153 20.1913 7.33063L20.0289 6.59842ZM19.3048 6.77844L19.1055 6.0554C18.8388 6.12892 18.5767 6.21662 18.3193 6.31847L18.5953 7.01585L18.8713 7.71322C19.0785 7.63122 19.2894 7.56066 19.5041 7.50148L19.3048 6.77844ZM18.5953 7.01585L18.3193 6.31847C18.0095 6.44109 17.7261 6.61211 17.4714 6.82881L17.9574 7.40005L18.4433 7.9713C18.5747 7.85957 18.7166 7.77445 18.8713 7.71322L18.5953 7.01585ZM17.9574 7.40005L17.4714 6.82881C17.2695 7.00054 17.0729 7.17591 16.8815 7.35492L17.3938 7.90266L17.9061 8.45041C18.0801 8.28769 18.2592 8.12798 18.4433 7.9713L17.9574 7.40005ZM17.3938 7.90266L16.8815 7.35492C16.7304 7.49623 16.5713 7.62072 16.404 7.72913L16.8119 8.3585L17.2198 8.98787C17.4631 8.83023 17.6919 8.65082 17.9061 8.45041L17.3938 7.90266ZM16.8119 8.3585L16.404 7.72913C16.2016 7.8603 15.9974 7.99072 15.7912 8.1204L16.1905 8.75525L16.5899 9.39011C16.8017 9.25684 17.0117 9.12276 17.2198 8.98787L16.8119 8.3585ZM16.1905 8.75525L15.7912 8.1204C15.6908 8.18358 15.5434 8.24093 15.3262 8.27046L15.4273 9.01362L15.5284 9.75678C15.9108 9.70477 16.2723 9.58987 16.5899 9.39011L16.1905 8.75525ZM15.4273 9.01362L15.3262 8.27046C14.8664 8.33299 14.4436 8.53758 14.1468 8.92938L14.7446 9.38229L15.3424 9.8352C15.3562 9.81698 15.3886 9.77579 15.5284 9.75678L15.4273 9.01362ZM14.7446 9.38229L14.1468 8.92938C13.9123 9.23885 13.7661 9.59617 13.6938 9.98178L14.431 10.12L15.1681 10.2582C15.2034 10.0702 15.2662 9.93575 15.3424 9.8352L14.7446 9.38229ZM14.431 10.12L13.6938 9.98178C13.658 10.1727 13.5972 10.2955 13.5331 10.3774L14.1237 10.8397L14.7142 11.302C14.9524 10.9978 15.0964 10.6408 15.1681 10.2582L14.431 10.12ZM14.1237 10.8397L13.5331 10.3774C13.4412 10.4949 13.3196 10.6051 13.1586 10.7051L13.5544 11.3421L13.9503 11.9792C14.2461 11.7954 14.504 11.5707 14.7142 11.302L14.1237 10.8397ZM13.5544 11.3421L13.1586 10.7051C12.8739 10.882 12.6192 11.0921 12.3982 11.3363L12.9541 11.8396L13.5101 12.343C13.6327 12.2076 13.7783 12.086 13.9503 11.9792L13.5544 11.3421ZM12.9541 11.8396L12.3982 11.3363C12.2043 11.5503 12.0254 11.7761 11.8616 12.0133L12.4787 12.4395L13.0958 12.8657C13.2222 12.6827 13.3603 12.5085 13.5101 12.343L12.9541 11.8396ZM12.4787 12.4395L11.8616 12.0133C11.7095 12.2335 11.5625 12.4578 11.4205 12.6864L12.0575 13.0822L12.6946 13.4781C12.8239 13.2699 12.9577 13.0658 13.0958 12.8657L12.4787 12.4395ZM12.0575 13.0822L11.4205 12.6864C11.2365 12.9824 11.1104 13.304 11.0426 13.6467L11.7783 13.7923L12.5141 13.9378C12.5472 13.7704 12.6072 13.6187 12.6946 13.4781L12.0575 13.0822ZM11.7783 13.7923L11.0426 13.6467C11.0025 13.8494 10.9423 14.0414 10.8623 14.2238L11.5492 14.5249L12.2361 14.826C12.3608 14.5417 12.4533 14.2452 12.5141 13.9378L11.7783 13.7923ZM11.5492 14.5249L10.8623 14.2238C10.7715 14.431 10.6669 14.6374 10.5482 14.8432L11.1978 15.218L11.8474 15.5928C11.9927 15.3411 12.1224 15.0854 12.2361 14.826L11.5492 14.5249ZM11.1978 15.218L10.5482 14.8432C10.2833 15.3023 10.2891 15.803 10.4688 16.2624L11.1673 15.9891L11.8657 15.7158C11.8405 15.6515 11.8403 15.6193 11.8406 15.612C11.8408 15.6081 11.8412 15.6064 11.8415 15.6056C11.8418 15.6046 11.843 15.6006 11.8474 15.5928L11.1978 15.218ZM11.1673 15.9891L10.4688 16.2624C10.5652 16.5087 10.628 16.731 10.6626 16.9307L11.4016 16.8027L12.1405 16.6746C12.0861 16.3602 11.9926 16.0402 11.8657 15.7158L11.1673 15.9891ZM11.4016 16.8027L10.6626 16.9307C10.6842 17.0553 10.672 17.1618 10.6305 17.2664L11.3277 17.543L12.0248 17.8195C12.1709 17.4512 12.2081 17.0642 12.1405 16.6746L11.4016 16.8027ZM11.3277 17.543L10.6305 17.2664C10.5138 17.5606 10.4354 17.8641 10.3969 18.1754L11.1412 18.2674L11.8856 18.3594C11.908 18.1777 11.9539 17.9982 12.0248 17.8195L11.3277 17.543ZM11.1412 18.2674L10.3969 18.1754C10.3601 18.4732 10.3541 18.7726 10.379 19.0727L11.1264 19.0109L11.8738 18.9491C11.8575 18.7509 11.8614 18.5546 11.8856 18.3594L11.1412 18.2674ZM11.1264 19.0109L10.379 19.0727C10.3984 19.3075 10.411 19.5427 10.4169 19.7783L11.1666 19.7597L11.9164 19.741C11.9098 19.4766 11.8956 19.2127 11.8738 18.9491L11.1264 19.0109ZM11.1666 19.7597L10.4169 19.7783C10.4189 19.8619 10.3973 19.9721 10.3072 20.1205L10.9483 20.5097L11.5895 20.8989C11.8028 20.5473 11.9268 20.1575 11.9164 19.741L11.1666 19.7597ZM10.9483 20.5097L10.3072 20.1205C10.0262 20.5835 9.99354 21.1114 10.2488 21.6045L10.9148 21.2597L11.5809 20.9149C11.5741 20.9018 11.5734 20.8969 11.574 20.8996C11.5743 20.9008 11.5748 20.9033 11.5751 20.9068C11.5755 20.9104 11.5756 20.9142 11.5754 20.9182C11.5752 20.9221 11.5748 20.9253 11.5744 20.9276C11.574 20.9298 11.5737 20.9305 11.574 20.9295C11.5746 20.9276 11.5782 20.9175 11.5895 20.8989L10.9483 20.5097ZM10.9148 21.2597L10.2488 21.6045C10.3179 21.7379 10.33 21.8385 10.3202 21.9226L11.0651 22.0097L11.81 22.0968C11.8587 21.6809 11.7706 21.2814 11.5809 20.9149L10.9148 21.2597ZM11.0651 22.0097L10.3202 21.9226C10.2864 22.2115 10.2754 22.501 10.2874 22.7907L11.0368 22.7597L11.7861 22.7287C11.7774 22.5184 11.7853 22.3078 11.81 22.0968L11.0651 22.0097ZM11.0368 22.7597L10.2874 22.7907C10.2965 23.0101 10.2922 23.2296 10.2744 23.4493L11.022 23.5097L11.7695 23.5701C11.7922 23.2898 11.7977 23.0092 11.7861 22.7287L11.0368 22.7597ZM11.022 23.5097L10.2744 23.4493C10.2608 23.6177 10.2194 23.7932 10.1446 23.9778L10.8396 24.2597L11.5346 24.5415C11.6625 24.2262 11.7427 23.9017 11.7695 23.5701L11.022 23.5097ZM10.8396 24.2597L10.1446 23.9778C10.0321 24.2553 10.0131 24.5556 10.1014 24.8501C10.1852 25.1298 10.3516 25.3585 10.5355 25.5414L11.0644 25.0097L11.5934 24.478C11.5611 24.4459 11.5445 24.4236 11.5372 24.4124C11.5301 24.4016 11.5336 24.404 11.5382 24.4193C11.5432 24.4359 11.547 24.4595 11.5456 24.4868C11.5442 24.5137 11.5382 24.5328 11.5346 24.5415L10.8396 24.2597ZM11.0644 25.0097L10.5355 25.5414C10.5751 25.5808 10.4874 25.5123 10.495 25.3497C10.5021 25.1974 10.5854 25.1497 10.5245 25.2051L11.0294 25.7597L11.5343 26.3143C11.7481 26.1197 11.9745 25.822 11.9933 25.4197C12.0126 25.0071 11.805 24.6885 11.5934 24.478L11.0644 25.0097ZM11.0294 25.7597L10.5245 25.2051C10.1662 25.5313 9.8587 25.9822 9.88751 26.5478L10.6365 26.5097L11.3856 26.4715C11.3869 26.4969 11.3782 26.5043 11.3896 26.4827C11.4038 26.4556 11.4424 26.3979 11.5343 26.3143L11.0294 25.7597ZM10.6365 26.5097L9.88751 26.5478C9.90554 26.9018 9.99559 27.2446 10.1459 27.5727L10.8277 27.2604L11.5096 26.948C11.4304 26.7752 11.393 26.6176 11.3856 26.4715L10.6365 26.5097ZM10.8277 27.2604L10.1459 27.5727C10.2362 27.7698 10.3025 27.975 10.3451 28.1894L11.0807 28.0433L11.8164 27.8972C11.7511 27.5687 11.6488 27.2519 11.5096 26.948L10.8277 27.2604ZM11.0807 28.0433L10.3451 28.1894C10.3746 28.3378 10.3648 28.4663 10.3235 28.5889L11.0343 28.8283L11.745 29.0677C11.8735 28.6865 11.8947 28.2916 11.8164 27.8972L11.0807 28.0433ZM11.0343 28.8283L10.3235 28.5889C10.2456 28.8202 10.1575 29.0487 10.0592 29.2743L10.7467 29.5739L11.4343 29.8736C11.5497 29.6088 11.6533 29.3401 11.745 29.0677L11.0343 28.8283ZM10.7467 29.5739L10.0592 29.2743C10.0592 29.2744 10.0609 29.2705 10.065 29.2656C10.069 29.2607 10.0715 29.2593 10.0692 29.2609C10.0637 29.2648 10.0283 29.2873 9.93624 29.3054L10.0812 30.0413L10.2262 30.7771C10.7281 30.6782 11.2016 30.4074 11.4343 29.8736L10.7467 29.5739ZM10.0812 30.0413L9.93624 29.3054C9.44515 29.4022 8.96515 29.6636 8.73382 30.1988L9.42226 30.4964L10.1107 30.794C10.1088 30.7984 10.1047 30.8057 10.0986 30.8131C10.0926 30.8204 10.0885 30.823 10.0901 30.8219C10.0948 30.8187 10.131 30.7959 10.2262 30.7771L10.0812 30.0413ZM9.42226 30.4964L8.73382 30.1988C8.69034 30.2994 8.62989 30.3697 8.54135 30.4261L8.94451 31.0585L9.34768 31.691C9.69122 31.472 9.94927 31.1675 10.1107 30.794L9.42226 30.4964ZM8.94451 31.0585L8.54135 30.4261C8.21091 30.6368 7.95313 30.9228 7.77361 31.2706L8.44006 31.6146L9.10652 31.9586C9.16752 31.8404 9.24605 31.7558 9.34768 31.691L8.94451 31.0585ZM8.44006 31.6146L7.77361 31.2706C7.70281 31.4078 7.61375 31.5121 7.50534 31.5941L7.95747 32.1924L8.4096 32.7908C8.70412 32.5683 8.93679 32.2875 9.10652 31.9586L8.44006 31.6146ZM7.95747 32.1924L7.50534 31.5941C7.28328 31.7618 7.09707 32.0086 7.04013 32.3347C6.98619 32.6436 7.06576 32.9253 7.17195 33.146L7.84776 32.8207L8.52357 32.4955C8.50144 32.4495 8.53514 32.4932 8.51777 32.5927C8.50892 32.6434 8.4894 32.6907 8.46377 32.7297C8.43934 32.7668 8.4164 32.7857 8.4096 32.7908L7.95747 32.1924ZM7.84776 32.8207L7.17195 33.146C7.17279 33.1477 7.16667 33.1354 7.16365 33.1109C7.16051 33.0854 7.16226 33.0587 7.16805 33.0352C7.17925 32.9897 7.19371 32.9997 7.13246 33.0596L7.65696 33.5957L8.18147 34.1318C8.37574 33.9417 8.54976 33.6975 8.62456 33.3938C8.70273 33.0763 8.65425 32.767 8.52357 32.4955L7.84776 32.8207ZM7.65696 33.5957L7.13246 33.0596C6.93375 33.254 6.74326 33.5237 6.69691 33.8717C6.64821 34.2373 6.77572 34.5557 6.95871 34.7979L7.55707 34.3457L8.15542 33.8935C8.15039 33.8869 8.16238 33.9007 8.17315 33.9353C8.18482 33.9728 8.1904 34.0201 8.18378 34.0697C8.17073 34.1677 8.12465 34.1874 8.18147 34.1318L7.65696 33.5957ZM7.55707 34.3457L6.95871 34.7979C7.0045 34.8585 7.01403 34.8916 7.01551 34.8978C7.01625 34.9008 7.01587 34.9004 7.0159 34.8981C7.01593 34.8958 7.01631 34.8961 7.01517 34.9003L7.73927 35.0957L8.46337 35.2911C8.60404 34.7698 8.45134 34.2851 8.15542 33.8935L7.55707 34.3457ZM7.73927 35.0957L7.01517 34.9003C6.93691 35.1903 6.88377 35.4825 6.85649 35.7764L7.60329 35.8457L8.35008 35.915C8.3692 35.7089 8.40671 35.5011 8.46337 35.2911L7.73927 35.0957ZM7.60329 35.8457L6.85649 35.7764C6.81553 36.2179 6.93995 36.6301 7.1683 36.9942L7.80368 36.5957L8.43906 36.1972C8.35382 36.0613 8.34464 35.9736 8.35008 35.915L7.60329 35.8457ZM7.80368 36.5957L7.1683 36.9942C7.23453 37.0998 7.27313 37.1741 7.29344 37.2211C7.30328 37.2439 7.30587 37.2535 7.30539 37.2518C7.30518 37.251 7.29872 37.2282 7.2971 37.1884L8.04648 37.1579L8.79586 37.1274C8.78796 36.9332 8.72729 36.7579 8.67051 36.6264C8.60989 36.486 8.52962 36.3416 8.43906 36.1972L7.80368 36.5957ZM8.04648 37.1579L7.2971 37.1884C7.31215 37.5583 7.53253 37.8199 7.77544 37.958C7.97932 38.0738 8.20169 38.1094 8.36892 38.1229L8.4291 37.3753L8.48927 36.6277C8.40651 36.6211 8.44011 36.6104 8.51645 36.6538C8.56231 36.6798 8.6341 36.7317 8.69568 36.8233C8.7605 36.9197 8.7918 37.0275 8.79586 37.1274L8.04648 37.1579ZM8.4291 37.3753L8.36892 38.1229C8.51749 38.1348 8.67798 38.1772 8.85357 38.2618L9.1791 37.5862L9.50463 36.9105C9.18021 36.7542 8.84071 36.656 8.48927 36.6277L8.4291 37.3753ZM9.1791 37.5862L8.85357 38.2618C9.10307 38.382 9.38292 38.4336 9.67407 38.3865C9.95756 38.3405 10.2 38.2095 10.3997 38.0486L9.9291 37.4646L9.45848 36.8807C9.40816 36.9212 9.40063 36.9112 9.43413 36.9058C9.45053 36.9031 9.46851 36.9031 9.485 36.9057C9.50086 36.9083 9.50784 36.912 9.50463 36.9105L9.1791 37.5862ZM9.9291 37.4646L10.3997 38.0486C10.5453 37.9313 10.6143 37.9358 10.627 37.9367L10.6791 37.1885L10.7312 36.4403C10.2439 36.4064 9.81288 36.5951 9.45848 36.8807L9.9291 37.4646ZM10.6791 37.1885L10.627 37.9367C10.7992 37.9487 10.9775 37.9876 11.1636 38.058L11.4291 37.3566L11.6946 36.6552C11.3807 36.5364 11.059 36.4632 10.7312 36.4403L10.6791 37.1885ZM11.4291 37.3566L11.1636 38.058C11.4493 38.1662 11.7378 38.2505 12.0289 38.31L12.1791 37.5752L12.3293 36.8404C12.1204 36.7977 11.9089 36.7363 11.6946 36.6552L11.4291 37.3566ZM12.1791 37.5752L12.0289 38.31C12.3613 38.378 12.697 38.3893 13.0323 38.3427L12.9291 37.5998L12.8259 36.857C12.6612 36.8798 12.4969 36.8747 12.3293 36.8404L12.1791 37.5752ZM12.9291 37.5998L13.0323 38.3427C13.3484 38.2988 13.659 38.2129 13.9629 38.0887L13.6791 37.3944L13.3953 36.7002C13.1992 36.7804 13.0098 36.8314 12.8259 36.857L12.9291 37.5998ZM13.6791 37.3944L13.9629 38.0887C14.165 38.0061 14.3617 37.9499 14.5536 37.9176L14.4291 37.178L14.3046 36.4384C13.9965 36.4903 13.6932 36.5784 13.3953 36.7002L13.6791 37.3944ZM14.4291 37.178L14.5536 37.9176C14.8024 37.8757 15.0512 37.8344 15.3001 37.7938L15.1791 37.0536L15.0581 36.3134C14.807 36.3545 14.5558 36.3961 14.3046 36.4384L14.4291 37.178ZM15.1791 37.0536L15.3001 37.7938C15.2963 37.7944 15.2909 37.7946 15.2856 37.7941C15.2806 37.7935 15.2808 37.7928 15.2873 37.7953C15.3019 37.8008 15.347 37.8222 15.4199 37.8897L15.9291 37.339L16.4382 36.7883C16.0813 36.4583 15.6089 36.2234 15.0581 36.3134L15.1791 37.0536ZM15.9291 37.339L15.4199 37.8897C15.6332 38.0869 15.9327 38.2632 16.3074 38.2616C16.6813 38.2599 16.9791 38.0816 17.1908 37.8841L16.6791 37.3358L16.1674 36.7874C16.1291 36.8232 16.1769 36.7621 16.3008 36.7616C16.4255 36.761 16.475 36.8223 16.4382 36.7883L15.9291 37.339ZM16.6791 37.3358L17.1908 37.8841C17.2602 37.8193 17.2961 37.8068 17.2957 37.807C17.2945 37.8074 17.2868 37.8097 17.2744 37.8102C17.2618 37.8108 17.2514 37.8092 17.2453 37.8077L17.4291 37.0806L17.6129 36.3534C17.0374 36.208 16.5358 36.4436 16.1674 36.7874L16.6791 37.3358ZM17.4291 37.0806L17.2453 37.8077C17.5615 37.8876 17.8819 37.9231 18.2044 37.9122L18.1791 37.1626L18.1538 36.4131C17.9763 36.4191 17.7967 36.3999 17.6129 36.3534L17.4291 37.0806ZM18.1791 37.1626L18.2044 37.9122C18.2072 37.9121 18.1967 37.9128 18.177 37.908C18.1563 37.903 18.1318 37.8935 18.1072 37.8782C18.0546 37.8455 18.0427 37.8127 18.0517 37.8313L18.726 37.5028L19.4002 37.1743C19.2947 36.9577 19.1343 36.7506 18.8994 36.6045C18.6623 36.457 18.4022 36.4047 18.1538 36.4131L18.1791 37.1626ZM18.726 37.5028L18.0517 37.8313C18.1912 38.1176 18.3607 38.3835 18.5604 38.6274L19.1407 38.1523L19.721 37.6772C19.5969 37.5256 19.4899 37.3585 19.4002 37.1743L18.726 37.5028ZM19.1407 38.1523L18.5604 38.6274C18.6338 38.7171 18.6865 38.8274 18.7116 38.9768L19.4513 38.8527L20.1909 38.7287C20.1257 38.3396 19.9714 37.983 19.721 37.6772L19.1407 38.1523ZM19.4513 38.8527L18.7116 38.9768C18.7905 39.447 19.0406 39.8406 19.4473 40.1021L19.8528 39.4712L20.2584 38.8403C20.22 38.8156 20.2024 38.7969 20.1909 38.7287L19.4513 38.8527ZM19.8528 39.4712L19.4473 40.1021C19.4995 40.1357 19.556 40.1924 19.5984 40.333L20.3165 40.1167L21.0346 39.9003C20.9039 39.4665 20.6513 39.0929 20.2584 38.8403L19.8528 39.4712ZM20.3165 40.1167L19.5984 40.333C19.6854 40.6219 19.8676 40.9072 20.1878 41.0797C20.4902 41.2426 20.8134 41.2491 21.0813 41.207L20.965 40.4661L20.8487 39.7251C20.7708 39.7374 20.813 39.7127 20.8992 39.7592C20.9436 39.7831 20.9802 39.8161 21.0057 39.8501C21.0296 39.8819 21.0356 39.9035 21.0346 39.9003L20.3165 40.1167ZM20.965 40.4661L21.0813 41.207C21.1073 41.2029 21.1079 41.2062 21.0899 41.2035C21.0695 41.2004 21.0358 41.191 20.9993 41.1683C20.9628 41.1457 20.9403 41.1203 20.9296 41.105C20.9202 41.0917 20.9243 41.0927 20.933 41.1197L21.6467 40.8892L22.3604 40.6587C22.2693 40.3765 22.0975 40.0846 21.7903 39.8939C21.482 39.7025 21.1433 39.6789 20.8487 39.7251L20.965 40.4661ZM21.6467 40.8892L20.933 41.1197C21.0922 41.6125 21.4248 42.0686 22.0096 42.2208L22.1985 41.495L22.3874 40.7691C22.3909 40.7701 22.3987 40.7728 22.4078 40.7783C22.4167 40.7837 22.4209 40.7883 22.4206 40.7879C22.4186 40.7857 22.3911 40.7538 22.3604 40.6587L21.6467 40.8892ZM22.1985 41.495L22.0096 42.2208C22.5367 42.358 23.034 42.2001 23.4479 41.9282L23.0361 41.3014L22.6243 40.6745C22.5311 40.7357 22.468 40.7584 22.4334 40.7664C22.4033 40.7734 22.3918 40.7703 22.3874 40.7691L22.1985 41.495ZM23.0361 41.3014L23.4479 41.9282C23.5479 41.8625 23.6113 41.8393 23.6406 41.832C23.6646 41.826 23.654 41.8331 23.6259 41.8252L23.8286 41.1031L24.0312 40.381C23.5062 40.2336 23.0126 40.4194 22.6243 40.6745L23.0361 41.3014ZM23.8286 41.1031L23.6259 41.8252C23.831 41.8827 24.0475 41.9547 24.2758 42.0417L24.5431 41.3409L24.8103 40.6402C24.5443 40.5387 24.2845 40.452 24.0312 40.381L23.8286 41.1031ZM24.5431 41.3409L24.2758 42.0417C24.5395 42.1423 24.8169 42.2373 25.1075 42.3269L25.3284 41.6101L25.5493 40.8934C25.2871 40.8126 25.0409 40.7281 24.8103 40.6402L24.5431 41.3409ZM25.3284 41.6101L25.1075 42.3269C25.6293 42.4877 26.1471 42.3817 26.5601 42.0171L26.0638 41.4548L25.5674 40.8925C25.5546 40.9039 25.5484 40.9069 25.5494 40.9064C25.5498 40.9062 25.5515 40.9053 25.5544 40.9043C25.5573 40.9032 25.5608 40.9022 25.5646 40.9014C25.5683 40.9006 25.5717 40.9002 25.5743 40.9C25.5769 40.8998 25.5782 40.8999 25.5778 40.8999C25.5772 40.8999 25.5682 40.8992 25.5493 40.8934L25.3284 41.6101ZM26.0638 41.4548L26.5601 42.0171C26.7075 41.887 26.8488 41.8075 26.984 41.7625L26.747 41.0509L26.51 40.3394C26.162 40.4553 25.8478 40.6451 25.5674 40.8925L26.0638 41.4548ZM26.747 41.0509L26.984 41.7625C27.3022 41.6565 27.5969 41.5022 27.8651 41.3009L27.415 40.701L26.965 40.1011C26.8259 40.2054 26.6752 40.2844 26.51 40.3394L26.747 41.0509ZM27.415 40.701L27.8651 41.3009C28.1078 41.1189 28.3304 40.9151 28.532 40.6901L27.9735 40.1896L27.4149 39.689C27.2794 39.8403 27.1296 39.9775 26.965 40.1011L27.415 40.701ZM27.9735 40.1896L28.532 40.6901C28.6423 40.567 28.7755 40.4604 28.9369 40.3708L28.5731 39.715L28.2092 39.0591C27.9084 39.226 27.6419 39.4358 27.4149 39.689L27.9735 40.1896ZM28.5731 39.715L28.9369 40.3708C29.2528 40.1956 29.5254 39.9659 29.7483 39.6834L29.1596 39.2188L28.5709 38.7541C28.4741 38.8768 28.3556 38.9779 28.2092 39.0591L28.5731 39.715ZM29.1596 39.2188L29.7483 39.6834C29.8907 39.503 30.0486 39.324 30.2224 39.1465L29.6866 38.6217L29.1507 38.097C28.9417 38.3104 28.7483 38.5294 28.5709 38.7541L29.1596 39.2188ZM29.6866 38.6217L30.2224 39.1465C30.6048 38.756 30.7225 38.2536 30.629 37.7457L29.8914 37.8815L29.1538 38.0174C29.1644 38.075 29.1573 38.0943 29.1585 38.09C29.1589 38.0886 29.1597 38.0867 29.1603 38.0857C29.1608 38.0849 29.1587 38.0888 29.1507 38.097L29.6866 38.6217ZM29.8914 37.8815L30.629 37.7457C30.6221 37.7083 30.6285 37.7199 30.6246 37.763C30.621 37.802 30.602 37.9415 30.4793 38.0794C30.339 38.2371 30.1603 38.2859 30.0397 38.2898C29.9402 38.2931 29.8838 38.2677 29.8954 38.2722L30.1661 37.5728L30.4368 36.8733C30.2905 36.8167 29.7523 36.6398 29.3586 37.0824C29.1901 37.2717 29.1436 37.4871 29.1308 37.6263C29.1177 37.7696 29.1333 37.9058 29.1538 38.0174L29.8914 37.8815ZM30.1661 37.5728L29.8954 38.2722C30.2501 38.4095 30.6218 38.4544 30.9988 38.4034L30.8981 37.6601L30.7974 36.9169C30.6745 36.9336 30.5581 36.9203 30.4368 36.8733L30.1661 37.5728ZM30.8981 37.6601L30.9988 38.4034C31.1917 38.3772 31.3837 38.3736 31.5759 38.3921L31.6481 37.6456L31.7203 36.8991C31.4125 36.8693 31.1045 36.8753 30.7974 36.9169L30.8981 37.6601ZM31.6481 37.6456L31.5759 38.3921C31.9567 38.429 32.3291 38.367 32.6833 38.2214L32.3981 37.5277L32.1129 36.8341C31.9671 36.894 31.8395 36.9106 31.7203 36.8991L31.6481 37.6456ZM32.3981 37.5277L32.6833 38.2214C32.9525 38.1107 33.2208 37.9873 33.488 37.8514L33.1481 37.1829L32.8082 36.5143C32.5754 36.6327 32.3437 36.7392 32.1129 36.8341L32.3981 37.5277ZM33.1481 37.1829L33.488 37.8514C33.6468 37.7707 33.7827 37.7407 33.9024 37.74L33.8981 36.99L33.8938 36.24C33.5135 36.2422 33.1494 36.3408 32.8082 36.5143L33.1481 37.1829ZM33.8981 36.99L33.9024 37.74C34.0113 37.7394 34.139 37.7669 34.2938 37.8499L34.6481 37.1889L35.0024 36.5278C34.6572 36.3428 34.2849 36.2378 33.8938 36.24L33.8981 36.99ZM34.6481 37.1889L34.2938 37.8499C34.7245 38.0807 35.2031 38.1246 35.6704 37.9425L35.3981 37.2437L35.1258 36.5449C35.0973 36.556 35.0838 36.5555 35.0778 36.5551C35.0707 36.5546 35.047 36.5517 35.0024 36.5278L34.6481 37.1889ZM35.3981 37.2437L35.6704 37.9425C35.7241 37.9216 35.7615 37.9193 35.8319 37.952L36.1481 37.272L36.4643 36.5919C36.0347 36.3921 35.5722 36.371 35.1258 36.5449L35.3981 37.2437ZM36.1481 37.272L35.8319 37.952C36.221 38.133 36.6409 38.1888 37.066 38.0912L36.8981 37.3602L36.7302 36.6292C36.6553 36.6465 36.5752 36.6434 36.4643 36.5919L36.1481 37.272ZM36.8981 37.3602L37.066 38.0912C37.2622 38.0461 37.4557 38.0242 37.6476 38.0244L37.6481 37.2744L37.6486 36.5244C37.3405 36.5241 37.034 36.5595 36.7302 36.6292L36.8981 37.3602ZM37.6481 37.2744L37.6476 38.0244C37.9321 38.0246 38.2163 38.0052 38.4999 37.9663L38.3981 37.2233L38.2963 36.4802C38.0799 36.5098 37.8641 36.5245 37.6486 36.5244L37.6481 37.2744ZM38.3981 37.2233L38.4999 37.9663C38.8091 37.9239 39.1139 37.8448 39.4136 37.7314L39.1481 37.0299L38.8826 36.3285C38.6823 36.4043 38.4871 36.454 38.2963 36.4802L38.3981 37.2233ZM39.1481 37.0299L39.4136 37.7314C39.5302 37.6872 39.6284 37.683 39.7271 37.7061L39.8981 36.9759L40.0691 36.2456C39.6678 36.1516 39.266 36.1834 38.8826 36.3285L39.1481 37.0299ZM39.8981 36.9759L39.7271 37.7061C39.9624 37.7612 40.2155 37.8281 40.4867 37.9071L40.6965 37.187L40.9062 36.4669C40.613 36.3815 40.3338 36.3076 40.0691 36.2456L39.8981 36.9759ZM40.6965 37.187L40.4867 37.9071C40.6731 37.9614 41.0524 38.0421 41.4053 37.8227C41.8183 37.5661 41.8618 37.1278 41.8505 36.8985L41.1014 36.9353L40.3523 36.9722C40.3523 36.9722 40.3486 36.9159 40.379 36.833C40.4141 36.7376 40.4884 36.6265 40.6135 36.5488C40.7292 36.4768 40.8332 36.4677 40.8775 36.4675C40.9201 36.4674 40.9335 36.4749 40.9062 36.4669L40.6965 37.187ZM41.1014 36.9353L41.8505 36.8985C41.8398 36.6803 41.8429 36.462 41.8599 36.2436L41.1122 36.1853L40.3644 36.1271C40.3425 36.4086 40.3384 36.6904 40.3523 36.9722L41.1014 36.9353ZM41.1122 36.1853L41.8599 36.2436C41.8966 35.7722 41.7313 35.3468 41.4646 34.9879L40.8626 35.4353L40.2607 35.8828C40.3656 36.0239 40.3667 36.0984 40.3644 36.1271L41.1122 36.1853ZM40.8626 35.4353L41.4646 34.9879C41.4539 34.9736 41.4569 34.974 41.4626 34.9893C41.4688 35.0062 41.4752 35.0334 41.4749 35.0671C41.4746 35.1008 41.4677 35.1271 41.4618 35.1424C41.4564 35.1563 41.4543 35.1552 41.4661 35.1397L40.8694 34.6853L40.2727 34.231C40.105 34.4513 39.9779 34.7292 39.975 35.0536C39.9721 35.3787 40.0947 35.6594 40.2607 35.8828L40.8626 35.4353ZM40.8694 34.6853L41.4661 35.1397C41.63 34.9245 41.7557 34.6567 41.7699 34.3445C41.7843 34.0289 41.6811 33.7483 41.5266 33.5178L40.9036 33.9353L40.2806 34.3529C40.2882 34.3643 40.2847 34.3621 40.2798 34.3464C40.2745 34.3295 40.2702 34.3049 40.2715 34.2762C40.2743 34.214 40.2992 34.1962 40.2727 34.231L40.8694 34.6853ZM40.9036 33.9353L41.5266 33.5178C41.4131 33.3485 41.3684 33.2117 41.3564 33.1032L40.6109 33.1853L39.8654 33.2675C39.9085 33.6589 40.0589 34.0222 40.2806 34.3529L40.9036 33.9353ZM40.6109 33.1853L41.3564 33.1032C41.35 33.0449 41.3621 33.0626 41.3418 33.1207C41.3305 33.1529 41.3101 33.1948 41.2753 33.2376C41.24 33.281 41.1985 33.3149 41.1567 33.3387L40.7848 32.6874L40.4129 32.0361C39.8845 32.3379 39.8246 32.897 39.8654 33.2675L40.6109 33.1853ZM40.7848 32.6874L41.1567 33.3387C41.2545 33.2829 41.4084 33.1756 41.5142 32.9851C41.6376 32.7629 41.6478 32.5135 41.5718 32.2967C41.5069 32.1115 41.3926 31.9853 41.3161 31.9131C41.2337 31.8354 41.1439 31.773 41.063 31.7234L40.6711 32.3628L40.2791 33.0023C40.3079 33.0199 40.3051 33.0215 40.287 33.0044C40.2748 32.9929 40.2022 32.9241 40.1562 32.7929C40.0992 32.6303 40.1057 32.4317 40.2027 32.257C40.2821 32.114 40.387 32.051 40.4129 32.0361L40.7848 32.6874ZM23.9657 40.5998L24.0999 39.8619C23.8708 39.8203 23.6452 39.7716 23.4231 39.7158L23.2405 40.4433L23.058 41.1707C23.3126 41.2346 23.5704 41.2903 23.8316 41.3377L23.9657 40.5998ZM23.2405 40.4433L23.4231 39.7158C23.268 39.6769 23.1247 39.6136 22.9901 39.524L22.5747 40.1485L22.1594 40.773C22.4357 40.9568 22.7364 41.09 23.058 41.1707L23.2405 40.4433ZM22.5747 40.1485L22.9901 39.524C22.5885 39.257 22.1246 39.2061 21.6798 39.2696L21.7858 40.0121L21.8918 40.7546C22.0878 40.7266 22.1499 40.7667 22.1594 40.773L22.5747 40.1485ZM21.7858 40.0121L21.6798 39.2696C21.6666 39.2715 21.6919 39.2657 21.7416 39.2771C21.7972 39.2899 21.8653 39.3206 21.9257 39.3764C22.0416 39.4837 22.024 39.5791 22.0179 39.4856L21.2695 39.5345L20.5211 39.5833C20.5387 39.854 20.6191 40.2111 20.9071 40.4775C21.2156 40.763 21.5978 40.7965 21.8918 40.7546L21.7858 40.0121ZM21.2695 39.5345L22.0179 39.4856C22.0005 39.2187 21.9335 38.931 21.7622 38.6771C21.581 38.4085 21.3206 38.2341 21.0245 38.1522L20.8247 38.8751L20.6248 39.598C20.6188 39.5963 20.5996 39.5898 20.5754 39.5729C20.5505 39.5555 20.5313 39.5346 20.5187 39.516C20.4957 39.4819 20.5147 39.486 20.5211 39.5833L21.2695 39.5345ZM20.8247 38.8751L21.0245 38.1522C20.813 38.0938 20.6066 38.0082 20.4046 37.8936L20.0346 38.546L19.6645 39.1983C19.9704 39.3718 20.2908 39.5057 20.6248 39.598L20.8247 38.8751ZM20.0346 38.546L20.4046 37.8936C20.2789 37.8223 20.215 37.744 20.1764 37.6565L19.4901 37.959L18.8038 38.2615C18.9832 38.6685 19.2823 38.9815 19.6645 39.1983L20.0346 38.546ZM19.4901 37.959L20.1764 37.6565C20.1802 37.6652 20.1979 37.7085 20.1985 37.7789C20.1992 37.8554 20.1792 37.9365 20.1383 38.008C20.0653 38.1357 19.9808 38.1429 20.0705 38.1091L19.8056 37.4074L19.5407 36.7057C19.3111 36.7924 19.0144 36.9518 18.8362 37.2634C18.6336 37.6176 18.6826 37.9864 18.8038 38.2615L19.4901 37.959ZM19.8056 37.4074L20.0705 38.1091C20.2846 38.0282 20.3974 38.0412 20.4488 38.0562L20.6595 37.3364L20.8702 36.6166C20.4216 36.4853 19.9651 36.5455 19.5407 36.7057L19.8056 37.4074ZM20.6595 37.3364L20.4488 38.0562C20.8576 38.1759 21.2729 38.1577 21.6704 38.0102L21.4095 37.3071L21.1487 36.6039C21.0461 36.6419 20.9615 36.6433 20.8702 36.6166L20.6595 37.3364ZM21.4095 37.3071L21.6704 38.0102C21.7221 37.9911 21.7616 37.988 21.8365 38.0238L22.1595 37.3469L22.4825 36.6701C22.0575 36.4672 21.597 36.4376 21.1487 36.6039L21.4095 37.3071ZM22.1595 37.3469L21.8365 38.0238C22.0805 38.1402 22.353 38.1927 22.6375 38.1533C22.9162 38.1147 23.1584 37.9947 23.3612 37.8417L22.9095 37.243L22.4578 36.6443C22.4342 36.6621 22.4202 36.669 22.4162 36.6707C22.4128 36.6723 22.4184 36.6693 22.4316 36.6675C22.4452 36.6656 22.4596 36.6659 22.4722 36.6681C22.4843 36.6701 22.4881 36.6727 22.4825 36.6701L22.1595 37.3469ZM22.9095 37.243L23.3612 37.8417C23.3774 37.8295 23.3796 37.8308 23.3676 37.8355C23.3542 37.8407 23.3302 37.8472 23.2988 37.8478C23.2674 37.8484 23.2416 37.8428 23.2251 37.837C23.2101 37.8318 23.2094 37.8288 23.2228 37.8384L23.6595 37.2287L24.0962 36.6189C23.8707 36.4574 23.5909 36.342 23.2702 36.3481C22.9511 36.3542 22.6768 36.479 22.4578 36.6443L22.9095 37.243ZM23.6595 37.2287L23.2228 37.8384C23.5242 38.0543 23.841 38.2233 24.1736 38.3335L24.4095 37.6215L24.6455 36.9096C24.478 36.8541 24.2949 36.7612 24.0962 36.6189L23.6595 37.2287ZM24.4095 37.6215L24.1736 38.3335C24.5262 38.4503 24.8903 38.4884 25.2576 38.4399L25.1595 37.6963L25.0614 36.9528C24.9287 36.9703 24.7928 36.9585 24.6455 36.9096L24.4095 37.6215ZM25.1595 37.6963L25.2576 38.4399C25.6366 38.3899 25.9912 38.2446 26.3179 38.0325L25.9095 37.4034L25.5011 36.7744C25.3279 36.8868 25.1824 36.9368 25.0614 36.9528L25.1595 37.6963ZM25.9095 37.4034L26.3179 38.0325C26.5222 37.8999 26.7163 37.8056 26.9003 37.7432L26.6595 37.0329L26.4188 36.3226C26.1027 36.4297 25.7968 36.5824 25.5011 36.7744L25.9095 37.4034ZM26.6595 37.0329L26.9003 37.7432C26.9736 37.7184 27.0363 37.7181 27.1229 37.7539L27.4095 37.0609L27.6961 36.3678C27.2828 36.1969 26.8455 36.178 26.4188 36.3226L26.6595 37.0329ZM27.4095 37.0609L27.1229 37.7539C27.3295 37.8394 27.5413 37.9496 27.7582 38.087L28.1595 37.4534L28.5608 36.8198C28.2777 36.6405 27.9895 36.4891 27.6961 36.3678L27.4095 37.0609ZM28.1595 37.4534L27.7582 38.087C28.0646 38.281 28.4421 38.448 28.852 38.4228L28.8061 37.6742L28.7602 36.9257C28.7889 36.9239 28.789 36.9306 28.7511 36.9176C28.7128 36.9045 28.65 36.8763 28.5608 36.8198L28.1595 37.4534ZM28.8061 37.6742L28.852 38.4228C28.8205 38.4248 28.7194 38.4268 28.5961 38.3683C28.4536 38.3008 28.3446 38.1819 28.2877 38.0455C28.2389 37.9286 28.2436 37.8369 28.2455 37.8126C28.2477 37.7845 28.2519 37.7809 28.2426 37.8103L28.9575 38.0369L29.6724 38.2636C29.7198 38.1142 29.8075 37.7926 29.6719 37.4677C29.5897 37.2708 29.4392 37.108 29.2388 37.013C29.0576 36.9271 28.8824 36.9182 28.7602 36.9257L28.8061 37.6742ZM28.9575 38.0369L28.2426 37.8103C28.2355 37.8327 28.2279 37.8648 28.1296 37.908L28.4314 38.5947L28.7331 39.2813C29.176 39.0867 29.5192 38.7469 29.6724 38.2636L28.9575 38.0369ZM28.4314 38.5947L28.1296 37.908C27.7358 38.0811 27.4026 38.3512 27.1845 38.7345L27.8363 39.1054L28.4882 39.4763C28.5223 39.4164 28.5857 39.3461 28.7331 39.2813L28.4314 38.5947ZM27.8363 39.1054L27.1845 38.7345C27.0642 38.9458 26.9333 39.1643 26.7914 39.39L27.4264 39.7891L28.0614 40.1882C28.2139 39.9455 28.3562 39.7082 28.4882 39.4763L27.8363 39.1054ZM27.4264 39.7891L26.7914 39.39C26.7921 39.3889 26.8008 39.3756 26.8208 39.359C26.8416 39.3418 26.8661 39.328 26.8907 39.3194C26.9391 39.3023 26.9468 39.3185 26.8776 39.3037L26.7213 40.0373L26.5651 40.7708C26.8187 40.8249 27.1053 40.834 27.3887 40.7343C27.6838 40.6304 27.9082 40.432 28.0614 40.1882L27.4264 39.7891ZM26.7213 40.0373L26.8776 39.3037C26.449 39.2125 25.9887 39.2176 25.5724 39.4356L25.9204 40.1L26.2684 40.7644C26.2743 40.7613 26.348 40.7246 26.5651 40.7708L26.7213 40.0373ZM25.9204 40.1L25.5724 39.4356C25.4077 39.5219 25.2348 39.5907 25.0527 39.6421L25.2563 40.3639L25.4599 41.0857C25.741 41.0064 26.0108 40.8993 26.2684 40.7644L25.9204 40.1ZM25.2563 40.3639L25.0527 39.6421C24.8933 39.687 24.7819 39.6919 24.7079 39.6832L24.6206 40.4281L24.5332 41.173C24.8436 41.2094 25.156 41.1714 25.4599 41.0857L25.2563 40.3639ZM24.6206 40.4281L24.7079 39.6832C24.5826 39.6685 24.3686 39.6535 24.153 39.7302C24.0321 39.7732 23.8774 39.8572 23.7548 40.0175C23.6271 40.1846 23.5822 40.372 23.5828 40.5336L24.3328 40.5305L25.0828 40.5273C25.0833 40.6436 25.0503 40.7927 24.9464 40.9285C24.8477 41.0576 24.7289 41.1174 24.656 41.1434C24.5363 41.1859 24.4663 41.1651 24.5332 41.173L24.6206 40.4281ZM24.3328 40.5305L23.5828 40.5336C23.5821 40.368 23.6464 40.1795 23.7982 40.0378C23.926 39.9184 24.0574 39.8874 24.1021 39.879C24.1826 39.8638 24.2041 39.8809 24.0999 39.8619L23.9657 40.5998L23.8316 41.3377C23.9725 41.3634 24.1777 41.3912 24.3806 41.3529C24.4865 41.3329 24.6637 41.2819 24.822 41.134C25.0043 40.9638 25.0837 40.7384 25.0828 40.5273L24.3328 40.5305ZM39.7917 36.5333L39.7254 35.7863C39.5638 35.8006 39.4004 35.7872 39.2313 35.7431L39.0417 36.4687L38.8522 37.1943C39.1831 37.2808 39.5197 37.3105 39.8581 37.2804L39.7917 36.5333ZM39.0417 36.4687L39.2313 35.7431C38.9577 35.6716 38.6833 35.6141 38.4082 35.5709L38.2917 36.3118L38.1753 37.0527C38.4002 37.088 38.6258 37.1352 38.8522 37.1943L39.0417 36.4687ZM38.2917 36.3118L38.4082 35.5709C37.8818 35.4881 37.4191 35.6915 37.0555 36.0011L37.5417 36.5721L38.028 37.1432C38.0986 37.083 38.144 37.0624 38.1627 37.0559C38.1673 37.0543 38.1705 37.0535 38.1724 37.0531C38.1742 37.0527 38.1751 37.0526 38.1752 37.0526C38.1752 37.0526 38.175 37.0526 38.1747 37.0526C38.1744 37.0526 38.1745 37.0525 38.1753 37.0527L38.2917 36.3118ZM37.5417 36.5721L37.0555 36.0011C37.0229 36.0289 37.0637 35.9821 37.166 35.982C37.2685 35.9819 37.3096 36.0287 37.2773 36.0013L36.7917 36.5729L36.3062 37.1445C36.5239 37.3295 36.815 37.4823 37.1675 37.482C37.5198 37.4816 37.8106 37.3283 38.028 37.1432L37.5417 36.5721ZM36.7917 36.5729L37.2773 36.0013C37.0688 35.8242 36.7995 35.6764 36.4746 35.6513C36.1426 35.6256 35.8492 35.7353 35.6138 35.8989L36.0417 36.5148L36.4697 37.1308C36.479 37.1243 36.4726 37.1306 36.4505 37.1374C36.4267 37.1447 36.3946 37.1496 36.3589 37.1468C36.284 37.141 36.2647 37.1092 36.3062 37.1445L36.7917 36.5729ZM36.0417 36.5148L35.6138 35.8989C35.6075 35.9033 35.6188 35.8942 35.6475 35.8859C35.6782 35.8771 35.7166 35.873 35.757 35.8778C35.8384 35.8877 35.8545 35.9235 35.8046 35.8767L35.2917 36.424L34.7789 36.9712C34.979 37.1587 35.2451 37.3268 35.5765 37.367C35.9206 37.4087 36.2267 37.2996 36.4697 37.1308L36.0417 36.5148ZM35.2917 36.424L35.8046 35.8767C35.4678 35.5611 35.0436 35.3226 34.5421 35.3223L34.5417 36.0723L34.5414 36.8223C34.5454 36.8223 34.5624 36.8225 34.5984 36.8394C34.6372 36.8576 34.6981 36.8955 34.7789 36.9712L35.2917 36.424ZM34.5417 36.0723L34.5421 35.3223C34.1119 35.3221 33.7171 35.471 33.3691 35.7084L33.7917 36.328L34.2144 36.9475C34.3664 36.8439 34.4716 36.8223 34.5414 36.8223L34.5417 36.0723ZM33.7917 36.328L33.3691 35.7084C33.3528 35.7195 33.3479 35.7202 33.3545 35.7178C33.362 35.7152 33.3776 35.7111 33.3987 35.7106C33.4199 35.7101 33.4373 35.7134 33.448 35.7167C33.4578 35.7197 33.4564 35.7209 33.4434 35.7126L33.0417 36.346L32.6401 36.9794C32.867 37.1233 33.1359 37.2174 33.4348 37.2102C33.7323 37.203 33.9953 37.097 34.2144 36.9475L33.7917 36.328ZM33.0417 36.346L33.4434 35.7126C33.0949 35.4917 32.7063 35.3581 32.2883 35.36L32.2917 36.11L32.2952 36.86C32.3772 36.8596 32.4886 36.8834 32.6401 36.9794L33.0417 36.346ZM32.2917 36.11L32.2883 35.36C31.7413 35.3625 31.3061 35.6689 30.9848 36.0252L31.5417 36.5275L32.0987 37.0298C32.2774 36.8317 32.3422 36.8597 32.2952 36.86L32.2917 36.11ZM31.5417 36.5275L30.9848 36.0252C30.9197 36.0974 30.9279 36.0562 31.0188 36.0379C31.0673 36.0281 31.1181 36.0298 31.1629 36.0412C31.2047 36.0517 31.2254 36.0665 31.2244 36.0658L30.7917 36.6784L30.3591 37.291C30.6161 37.4726 30.9476 37.5823 31.3147 37.5084C31.6556 37.4398 31.9138 37.2348 32.0987 37.0298L31.5417 36.5275ZM30.7917 36.6784L31.2244 36.0658C30.8872 35.8276 30.5081 35.6681 30.0938 35.6393L30.0417 36.3875L29.9897 37.1356C30.0754 37.1416 30.1963 37.1761 30.3591 37.291L30.7917 36.6784ZM30.0417 36.3875L30.0938 35.6393C29.6426 35.6079 29.2282 35.7526 28.8688 35.998L29.2917 36.6174L29.7147 37.2368C29.8553 37.1408 29.9409 37.1322 29.9897 37.1356L30.0417 36.3875ZM29.2917 36.6174L28.8688 35.998C28.8524 36.0092 28.8474 36.01 28.8538 36.0077C28.8611 36.0051 28.8765 36.001 28.8975 36.0005C28.9186 35.9999 28.936 36.0032 28.9467 36.0065C28.9565 36.0094 28.9551 36.0107 28.9422 36.0025L28.5417 36.6366L28.1413 37.2708C28.3684 37.4142 28.6374 37.5077 28.936 37.5C29.2331 37.4924 29.4958 37.3863 29.7147 37.2368L29.2917 36.6174ZM28.5417 36.6366L28.9422 36.0025C28.7256 35.8657 28.4735 35.772 28.1936 35.762C27.9122 35.7519 27.6524 35.8282 27.4253 35.9554L27.7917 36.6098L28.1582 37.2642C28.1711 37.257 28.1747 37.2569 28.1694 37.2582C28.1668 37.2589 28.1627 37.2598 28.1573 37.2604C28.1519 37.261 28.146 37.2613 28.1399 37.261C28.1339 37.2608 28.1286 37.2602 28.1243 37.2594C28.12 37.2586 28.1175 37.2578 28.1169 37.2576C28.1156 37.2572 28.1237 37.2597 28.1413 37.2708L28.5417 36.6366ZM27.7917 36.6098L27.4253 35.9554C27.3206 36.0141 27.264 36.0104 27.2198 35.9996L27.0417 36.7281L26.8637 37.4567C27.3195 37.5681 27.7629 37.4855 28.1582 37.2642L27.7917 36.6098ZM27.0417 36.7281L27.2198 35.9996C26.8567 35.9109 26.4883 35.9079 26.1241 35.9915L26.2917 36.7225L26.4594 37.4535C26.5952 37.4224 26.7268 37.4232 26.8637 37.4567L27.0417 36.7281ZM26.2917 36.7225L26.1241 35.9915C26.124 35.9915 26.1272 35.9909 26.1321 35.991C26.1369 35.9912 26.1382 35.992 26.1347 35.9909C26.1268 35.9886 26.0892 35.9749 26.023 35.9195L25.5417 36.4948L25.0605 37.07C25.4368 37.3849 25.9201 37.5772 26.4594 37.4535L26.2917 36.7225ZM25.5417 36.4948L26.023 35.9195C25.7987 35.7319 25.496 35.5805 25.1321 35.5974C24.7745 35.6139 24.4889 35.7871 24.2812 35.9801L24.7917 36.5295L25.3023 37.0789C25.3446 37.0396 25.309 37.0908 25.2014 37.0958C25.1503 37.0981 25.1073 37.0881 25.0786 37.0768C25.0525 37.0665 25.0469 37.0586 25.0605 37.07L25.5417 36.4948ZM24.7917 36.5295L24.2812 35.9801C24.2209 36.0361 24.2072 36.0274 24.2426 36.019C24.2613 36.0145 24.2845 36.0125 24.3088 36.0151C24.3325 36.0176 24.3471 36.0234 24.3506 36.025L24.0417 36.7085L23.7329 37.3919C23.9984 37.5119 24.2929 37.5491 24.5909 37.478C24.8763 37.4099 25.1126 37.2552 25.3023 37.0789L24.7917 36.5295ZM24.0417 36.7085L24.3506 36.025C24.0447 35.8868 23.7306 35.7898 23.4092 35.7388L23.2917 36.4795L23.1743 37.2203C23.3529 37.2486 23.5388 37.3042 23.7329 37.3919L24.0417 36.7085ZM23.2917 36.4795L23.4092 35.7388C23.154 35.6983 22.8988 35.6606 22.6435 35.6257L22.5417 36.3687L22.44 37.1118C22.6847 37.1453 22.9295 37.1815 23.1743 37.2203L23.2917 36.4795ZM22.5417 36.3687L22.6435 35.6257C22.1821 35.5625 21.7525 35.6921 21.3806 35.936L21.7917 36.5632L22.2029 37.1904C22.331 37.1065 22.4014 37.1065 22.44 37.1118L22.5417 36.3687ZM21.7917 36.5632L21.3806 35.936C21.3721 35.9415 21.3782 35.936 21.3985 35.9302C21.4203 35.924 21.449 35.9202 21.4804 35.9229C21.5462 35.9285 21.5609 35.9554 21.5193 35.9211L21.0417 36.4993L20.5642 37.0776C20.7726 37.2497 21.0373 37.3906 21.3531 37.4174C21.6758 37.4449 21.9654 37.3461 22.2029 37.1904L21.7917 36.5632ZM21.0417 36.4993L21.5193 35.9211C21.3066 35.7454 21.0323 35.6024 20.7039 35.5861C20.3709 35.5696 20.0809 35.6882 19.8509 35.8554L20.2917 36.4621L20.7326 37.0689C20.7441 37.0605 20.7399 37.0659 20.7197 37.0727C20.6979 37.0801 20.6663 37.0861 20.6296 37.0843C20.5512 37.0804 20.5269 37.0468 20.5642 37.0776L21.0417 36.4993ZM20.2917 36.4621L19.8509 35.8554C19.7924 35.8979 19.7608 35.9061 19.7551 35.9074C19.7521 35.9081 19.752 35.9078 19.7534 35.9078C19.7547 35.9079 19.7531 35.9081 19.7474 35.9064L19.5417 36.6277L19.3361 37.3489C19.8507 37.4957 20.3355 37.3574 20.7326 37.0689L20.2917 36.4621ZM19.5417 36.6277L19.7474 35.9064C19.4769 35.8293 19.2057 35.7644 18.9339 35.712L18.7917 36.4484L18.6496 37.1848C18.8778 37.2288 19.1066 37.2835 19.3361 37.3489L19.5417 36.6277ZM18.7917 36.4484L18.9339 35.712C18.6232 35.652 18.3102 35.631 17.9964 35.65L18.0417 36.3987L18.0871 37.1473C18.2733 37.136 18.4603 37.1482 18.6496 37.1848L18.7917 36.4484ZM18.0417 36.3987L17.9964 35.65C17.6644 35.6701 17.339 35.7439 17.0222 35.8659L17.2917 36.5658L17.5613 37.2657C17.7445 37.1951 17.9191 37.1575 18.0871 37.1473L18.0417 36.3987ZM17.2917 36.5658L17.0222 35.8659C16.8323 35.9391 16.6498 35.9816 16.473 35.9979L16.5417 36.7447L16.6104 37.4916C16.9337 37.4619 17.2512 37.3852 17.5613 37.2657L17.2917 36.5658ZM16.5417 36.7447L16.473 35.9979C16.4045 36.0042 16.3109 35.9926 16.1747 35.9117L15.7917 36.5566L15.4088 37.2015C15.7726 37.4174 16.179 37.5313 16.6104 37.4916L16.5417 36.7447ZM15.7917 36.5566L16.1747 35.9117C15.89 35.7427 15.6002 35.6017 15.3054 35.491L15.0417 36.1931L14.7781 36.8953C14.9833 36.9723 15.1935 37.0736 15.4088 37.2015L15.7917 36.5566ZM15.0417 36.1931L15.3054 35.491C14.8195 35.3086 14.3311 35.379 13.9056 35.6346L14.2917 36.2776L14.6779 36.9205C14.7253 36.8921 14.7483 36.8894 14.7507 36.8891C14.7526 36.8889 14.7541 36.8889 14.7565 36.8892C14.7591 36.8895 14.766 36.8907 14.7781 36.8953L15.0417 36.1931ZM14.2917 36.2776L13.9056 35.6346C13.8873 35.6456 13.8775 35.649 13.8758 35.6495C13.875 35.6497 13.8758 35.6494 13.8781 35.649C13.8805 35.6486 13.8837 35.6482 13.8876 35.648C13.8915 35.6479 13.8953 35.648 13.8988 35.6484C13.9022 35.6487 13.9046 35.6492 13.9057 35.6495C13.908 35.65 13.9028 35.6491 13.8893 35.6421L13.5417 36.3067L13.1942 36.9713C13.6852 37.2281 14.2131 37.1997 14.6779 36.9205L14.2917 36.2776ZM13.5417 36.3067L13.8893 35.6421C13.4855 35.4309 13.0389 35.3674 12.5879 35.4948L12.7917 36.2165L12.9956 36.9383C13.0446 36.9245 13.098 36.921 13.1942 36.9713L13.5417 36.3067ZM12.7917 36.2165L12.5879 35.4948C12.2661 35.5857 11.9549 35.7252 11.6545 35.9062L12.0417 36.5485L12.429 37.1909C12.6286 37.0705 12.8174 36.9887 12.9956 36.9383L12.7917 36.2165ZM12.0417 36.5485L11.6545 35.9062C11.6407 35.9146 11.637 35.9146 11.6433 35.9128C11.6503 35.9108 11.663 35.9083 11.6792 35.9086C11.6954 35.9088 11.707 35.9117 11.7119 35.9133C11.7162 35.9147 11.7103 35.9135 11.6943 35.9033L11.2917 36.5361L10.8892 37.1689C11.1091 37.3088 11.3672 37.4036 11.6543 37.4084C11.9421 37.4131 12.204 37.3265 12.429 37.1909L12.0417 36.5485ZM11.2917 36.5361L11.6943 35.9033C11.4603 35.7544 11.1797 35.6604 10.8685 35.6805C10.5617 35.7002 10.2985 35.8262 10.086 35.9888L10.5417 36.5845L10.9975 37.1801C11.035 37.1514 11.0218 37.1737 10.965 37.1773C10.9386 37.179 10.9151 37.1756 10.8981 37.1708C10.8824 37.1663 10.8793 37.1626 10.8892 37.1689L11.2917 36.5361ZM10.5417 36.5845L10.086 35.9888C10.0246 36.0358 9.99067 36.0459 9.98405 36.0476C9.9808 36.0484 9.98112 36.048 9.98361 36.048C9.98609 36.048 9.98613 36.0484 9.98237 36.0475L9.79175 36.7728L9.60112 37.4982C10.1242 37.6357 10.6081 37.478 10.9975 37.1801L10.5417 36.5845ZM9.79175 36.7728L9.98237 36.0475C9.74171 35.9842 9.5009 35.916 9.25994 35.8427L9.04175 36.5603L8.82356 37.2778C9.0826 37.3566 9.34178 37.43 9.60112 37.4982L9.79175 36.7728ZM9.04175 36.5603L9.25994 35.8427C9.20222 35.8251 9.22086 35.8198 9.26361 35.8596C9.28719 35.8816 9.31499 35.9146 9.33824 35.9595C9.36169 36.0047 9.3746 36.0507 9.37955 36.0919L8.63491 36.1815L7.89028 36.271C7.96288 36.8748 8.44308 37.1621 8.82356 37.2778L9.04175 36.5603ZM8.63491 36.1815L9.37955 36.0919C9.36903 36.0044 9.36984 35.8633 9.4016 35.6545L8.66014 35.5417L7.91867 35.4289C7.87435 35.7201 7.85835 36.0055 7.89028 36.271L8.63491 36.1815ZM8.66014 35.5417L9.4016 35.6545C9.44587 35.3636 9.46573 35.0717 9.4609 34.7793L8.711 34.7917L7.96111 34.8041C7.96453 35.0117 7.95048 35.2198 7.91867 35.4289L8.66014 35.5417ZM8.711 34.7917L9.4609 34.7793C9.45787 34.5957 9.47879 34.41 9.52531 34.2207L8.79698 34.0417L8.06866 33.8627C7.99228 34.1734 7.95588 34.4877 7.96111 34.8041L8.711 34.7917ZM8.79698 34.0417L9.52531 34.2207C9.60557 33.8941 9.63312 33.5628 9.60563 33.23L8.85818 33.2917L8.11072 33.3534C8.12452 33.5205 8.11128 33.6893 8.06866 33.8627L8.79698 34.0417ZM8.85818 33.2917L9.60563 33.23C9.60177 33.1832 9.61378 33.2171 9.58219 33.2877C9.56529 33.3255 9.53872 33.3669 9.50086 33.4049C9.46321 33.4426 9.42405 33.4673 9.39178 33.4822L9.07752 32.8012L8.76326 32.1202C8.5198 32.2325 8.32558 32.4233 8.21287 32.6754C8.10817 32.9095 8.09394 33.1502 8.11072 33.3534L8.85818 33.2917ZM9.07752 32.8012L9.39178 33.4822C9.73121 33.3255 9.98123 33.0559 10.1667 32.7643L9.53393 32.3617L8.90114 31.9591C8.81183 32.0995 8.75758 32.1228 8.76326 32.1202L9.07752 32.8012ZM9.53393 32.3617L10.1667 32.7643C10.2602 32.6174 10.3717 32.4937 10.5024 32.3897L10.0355 31.8027L9.56853 31.2158C9.30533 31.4252 9.08244 31.6742 8.90114 31.9591L9.53393 32.3617ZM10.0355 31.8027L10.5024 32.3897C10.7875 32.1628 11.0133 31.8808 11.1815 31.5548L10.5149 31.2109L9.84839 30.8671C9.77118 31.0168 9.67734 31.1293 9.56853 31.2158L10.0355 31.8027ZM10.5149 31.2109L11.1815 31.5548C11.3623 31.2041 11.4496 30.8224 11.4562 30.4239L10.7063 30.4115L9.95641 30.399C9.95323 30.5908 9.9129 30.7421 9.84839 30.8671L10.5149 31.2109ZM10.7063 30.4115L11.4562 30.4239C11.4596 30.2193 11.4993 30.093 11.5413 30.0156L10.8819 29.6583L10.2224 29.301C10.0401 29.6375 9.9628 30.0133 9.95641 30.399L10.7063 30.4115ZM10.8819 29.6583L11.5413 30.0156C11.6498 29.8153 11.7631 29.6135 11.8812 29.4102L11.2327 29.0334L10.5842 28.6566C10.4588 28.8725 10.3382 29.0873 10.2224 29.301L10.8819 29.6583ZM11.2327 29.0334L11.8812 29.4102C12.0174 29.1758 12.1411 28.9319 12.2526 28.6789L11.5662 28.3767L10.8798 28.0744C10.7902 28.2778 10.6916 28.4718 10.5842 28.6566L11.2327 29.0334ZM11.5662 28.3767L12.2526 28.6789C12.4354 28.2638 12.4389 27.826 12.2898 27.4084L11.5835 27.6605L10.8771 27.9126C10.906 27.9934 10.8979 28.0331 10.8798 28.0744L11.5662 28.3767ZM11.5835 27.6605L12.2898 27.4084C12.2217 27.2174 12.1826 27.0343 12.1688 26.8576L11.4211 26.916L10.6734 26.9744C10.6982 27.2919 10.7674 27.6051 10.8771 27.9126L11.5835 27.6605ZM11.4211 26.916L12.1688 26.8576C12.1684 26.8517 12.1678 26.838 12.1786 26.8093C12.1906 26.7775 12.2183 26.7236 12.2803 26.6488L11.7028 26.1703L11.1252 25.6919C10.8337 26.0438 10.6346 26.4786 10.6734 26.9744L11.4211 26.916ZM11.7028 26.1703L12.2803 26.6488C12.6101 26.2507 12.785 25.7329 12.594 25.1767L11.8846 25.4203L11.1753 25.664C11.1754 25.6642 11.1748 25.6625 11.1741 25.659C11.1734 25.6556 11.1728 25.651 11.1725 25.6457C11.172 25.6341 11.1733 25.6243 11.1747 25.6186C11.1773 25.6077 11.1746 25.6323 11.1252 25.6919L11.7028 26.1703ZM11.8846 25.4203L12.594 25.1767C12.5799 25.1356 12.5741 25.0989 12.6165 25.0177L11.9518 24.6703L11.2871 24.3229C11.0682 24.7418 11.0177 25.205 11.1753 25.664L11.8846 25.4203ZM11.9518 24.6703L12.6165 25.0177C12.7551 24.7526 12.8104 24.4473 12.7397 24.1315C12.6725 23.8312 12.5064 23.5879 12.3222 23.398L11.7839 23.9203L11.2457 24.4426C11.3041 24.5028 11.2872 24.5095 11.276 24.4592C11.27 24.4327 11.2685 24.4021 11.2731 24.372C11.2774 24.3429 11.2855 24.3259 11.2871 24.3229L11.9518 24.6703ZM11.7839 23.9203L12.3222 23.398C12.2867 23.3614 12.3657 23.4261 12.3593 23.5772C12.3532 23.7199 12.2774 23.7662 12.3317 23.7148L11.8159 23.1703L11.3 22.6259C11.0904 22.8245 10.8774 23.1208 10.8607 23.5134C10.8436 23.9146 11.0386 24.2292 11.2457 24.4426L11.7839 23.9203ZM11.8159 23.1703L12.3317 23.7148C12.5218 23.5346 12.6976 23.3067 12.7881 23.0239C12.8841 22.724 12.8663 22.4161 12.7485 22.1326L12.0559 22.4203L11.3633 22.708C11.3587 22.697 11.3516 22.6745 11.3501 22.6436C11.3487 22.6123 11.3535 22.5853 11.3595 22.5667C11.365 22.5495 11.3691 22.5465 11.3613 22.5578C11.3533 22.5695 11.3351 22.5927 11.3 22.6259L11.8159 23.1703ZM12.0559 22.4203L12.7485 22.1326C12.6345 21.8581 12.5041 21.5853 12.3577 21.3141L11.6977 21.6703L11.0377 22.0266C11.1612 22.2554 11.2696 22.4825 11.3633 22.708L12.0559 22.4203ZM11.6977 21.6703L12.3577 21.3141C12.355 21.3091 12.3594 21.3158 12.3629 21.3332C12.3666 21.3514 12.3676 21.3728 12.3648 21.3939C12.359 21.4375 12.3437 21.4374 12.3814 21.3906L11.7971 20.9203L11.2128 20.4501C11.0493 20.6533 10.9167 20.9032 10.8778 21.1968C10.8379 21.4979 10.9051 21.7809 11.0377 22.0266L11.6977 21.6703ZM11.7971 20.9203L12.3814 21.3906C12.635 21.0754 12.8264 20.7279 12.919 20.3479L12.1903 20.1703L11.4616 19.9928C11.4324 20.1127 11.3616 20.2652 11.2128 20.4501L11.7971 20.9203ZM12.1903 20.1703L12.919 20.3479C13.0122 19.9651 12.9995 19.5782 12.8848 19.2017L12.1674 19.4203L11.4499 19.6389C11.4876 19.7624 11.4901 19.8756 11.4616 19.9928L12.1903 20.1703ZM12.1674 19.4203L12.8848 19.2017C12.847 19.0776 12.8466 18.9717 12.8731 18.8685L12.1469 18.6814L11.4206 18.4943C11.3222 18.8763 11.3354 19.263 11.4499 19.6389L12.1674 19.4203ZM12.1469 18.6814L12.8731 18.8685C13.0157 18.3153 12.8023 17.8194 12.496 17.4414L11.9133 17.9136L11.3306 18.3858C11.396 18.4664 11.414 18.5132 11.4178 18.5257C11.4194 18.5309 11.418 18.5285 11.4178 18.52C11.4175 18.5112 11.4186 18.5019 11.4206 18.4943L12.1469 18.6814ZM11.9133 17.9136L12.496 17.4414C12.4479 17.382 12.483 17.3986 12.4878 17.4827C12.4902 17.5258 12.4832 17.5682 12.47 17.6038C12.4577 17.6372 12.4444 17.6526 12.4458 17.6509L11.8707 17.1696L11.2955 16.6882C11.1029 16.9183 10.9702 17.2188 10.9902 17.5686C11.0093 17.9007 11.1606 18.176 11.3306 18.3858L11.9133 17.9136ZM11.8707 17.1696L12.4458 17.6509C12.6582 17.3972 12.8434 17.1392 12.9983 16.8766L12.3524 16.4955L11.7065 16.1143C11.5986 16.2971 11.4626 16.4885 11.2955 16.6882L11.8707 17.1696ZM12.3524 16.4955L12.9983 16.8766C13.2253 16.4921 13.294 16.0646 13.2182 15.6309L12.4794 15.76L11.7406 15.8892C11.7583 15.9907 11.7424 16.0535 11.7065 16.1143L12.3524 16.4955ZM12.4794 15.76L13.2182 15.6309C13.1793 15.4087 13.1621 15.1901 13.1656 14.9744L12.4157 14.9622L11.6658 14.9499C11.6607 15.2629 11.6859 15.5762 11.7406 15.8892L12.4794 15.76ZM12.4157 14.9622L13.1656 14.9744C13.1682 14.8173 13.2021 14.6819 13.2636 14.5583L12.5921 14.2242L11.9206 13.8901C11.7555 14.2218 11.6719 14.5784 11.6658 14.9499L12.4157 14.9622ZM12.5921 14.2242L13.2636 14.5583C13.3676 14.3492 13.4799 14.1452 13.6005 13.9462L12.9591 13.5575L12.3177 13.1687C12.1755 13.4034 12.0431 13.6438 11.9206 13.8901L12.5921 14.2242ZM12.9591 13.5575L13.6005 13.9462C13.6544 13.8573 13.7438 13.7645 13.9014 13.6774L13.5387 13.021L13.1759 12.3645C12.8236 12.5592 12.5266 12.8241 12.3177 13.1687L12.9591 13.5575ZM13.5387 13.021L13.9014 13.6774C14.1486 13.5408 14.3626 13.3355 14.4915 13.0526C14.6174 12.7765 14.6343 12.4879 14.5986 12.225L13.8554 12.326L13.1122 12.4271C13.1203 12.4865 13.1064 12.4749 13.1266 12.4305C13.1364 12.4091 13.1496 12.3904 13.163 12.3767C13.1756 12.3637 13.1825 12.3609 13.1759 12.3645L13.5387 13.021ZM13.8554 12.326L14.5986 12.225C14.5918 12.1753 14.6101 12.2272 14.5605 12.3107C14.5368 12.3504 14.5079 12.3791 14.4837 12.3968C14.4614 12.4132 14.4504 12.4149 14.4626 12.4109L14.2287 11.6983L13.9948 10.9857C13.7234 11.0748 13.4486 11.2457 13.2712 11.5439C13.0971 11.8367 13.0752 12.1544 13.1122 12.4271L13.8554 12.326ZM14.2287 11.6983L14.4626 12.4109C14.9018 12.2668 15.2883 11.9918 15.5078 11.5456L14.8347 11.2146L14.1617 10.8836C14.1585 10.8903 14.141 10.9378 13.9948 10.9857L14.2287 11.6983ZM14.8347 11.2146L15.5078 11.5456C15.6449 11.2667 15.7527 10.9649 15.8344 10.6437L15.1075 10.4589L14.3807 10.2741C14.3213 10.5076 14.2473 10.7097 14.1617 10.8836L14.8347 11.2146ZM15.1075 10.4589L15.8344 10.6437C15.837 10.6334 15.8374 10.6371 15.8305 10.6489C15.8232 10.6615 15.8114 10.677 15.7951 10.6913C15.7791 10.7054 15.7656 10.7124 15.7603 10.7147C15.7559 10.7166 15.7622 10.7131 15.7843 10.7095L15.6634 9.96932L15.5425 9.22913C15.2856 9.27109 15.0242 9.37144 14.8037 9.56565C14.5804 9.76228 14.447 10.013 14.3807 10.2741L15.1075 10.4589ZM15.6634 9.96932L15.7843 10.7095C16.2858 10.6276 16.7202 10.3578 16.9652 9.874L16.2961 9.5352L15.627 9.19641C15.6225 9.20529 15.6199 9.20799 15.6205 9.20733C15.6206 9.20715 15.621 9.2067 15.6216 9.20618C15.6222 9.20566 15.6225 9.20547 15.6223 9.20562C15.6221 9.20573 15.6176 9.20888 15.6058 9.21333C15.5938 9.2179 15.5735 9.22407 15.5425 9.22913L15.6634 9.96932ZM16.2961 9.5352L16.9652 9.874C17.0032 9.799 17.0408 9.77051 17.0992 9.74971L16.8475 9.04321L16.5958 8.3367C16.1624 8.4911 15.8324 8.7906 15.627 9.19641L16.2961 9.5352ZM16.8475 9.04321L17.0992 9.74971C17.5265 9.5975 17.8547 9.30621 18.0762 8.92052L17.4259 8.547L16.7755 8.17348C16.7176 8.27421 16.6603 8.31372 16.5958 8.3367L16.8475 9.04321ZM17.4259 8.547L18.0762 8.92052C18.1803 8.73934 18.2996 8.59048 18.4325 8.46846L17.9253 7.91601L17.418 7.36357C17.1644 7.59645 16.9508 7.86825 16.7755 8.17348L17.4259 8.547ZM17.9253 7.91601L18.4325 8.46846C18.4357 8.46552 18.4357 8.46609 18.4329 8.46761C18.43 8.46915 18.4285 8.46935 18.4304 8.46889C18.4344 8.46796 18.4671 8.46124 18.5424 8.47556L18.6826 7.73878L18.8228 7.002C18.333 6.9088 17.8231 6.9916 17.418 7.36357L17.9253 7.91601ZM18.6826 7.73878L18.5424 8.47556C18.7941 8.52346 19.0652 8.5236 19.3327 8.43629C19.6053 8.34734 19.8283 8.18244 19.9993 7.97231L19.4176 7.49893L18.8359 7.02555C18.8305 7.03215 18.8309 7.03007 18.8385 7.0247C18.8421 7.02214 18.8467 7.01933 18.852 7.01666C18.8573 7.01398 18.8626 7.01186 18.8674 7.0103C18.8775 7.00699 18.8815 7.00746 18.876 7.00766C18.8699 7.00789 18.8528 7.00772 18.8228 7.002L18.6826 7.73878ZM19.4176 7.49893L19.9993 7.97231C20.0076 7.96207 20.0095 7.96213 20.0032 7.96672C19.9964 7.97172 19.9849 7.97837 19.9701 7.98346C19.9555 7.98851 19.9446 7.98963 19.9406 7.98979C19.9373 7.98993 19.9442 7.98919 19.9634 7.99315L20.1146 7.25855L20.2659 6.52396C20.016 6.47252 19.7468 6.47381 19.4811 6.56541C19.2139 6.65756 18.9998 6.82409 18.8359 7.02555L19.4176 7.49893ZM20.1146 7.25855L19.9634 7.99315C20.4373 8.09071 20.9119 8.00932 21.3144 7.70412L20.8612 7.10652L20.408 6.50892C20.3877 6.52432 20.3646 6.54429 20.2659 6.52396L20.1146 7.25855ZM20.8612 7.10652L21.3144 7.70412C21.464 7.59064 21.6174 7.50994 21.7759 7.45688L21.5377 6.7457L21.2995 6.03452C20.9788 6.14194 20.6811 6.30179 20.408 6.50892L20.8612 7.10652ZM21.5377 6.7457L21.7759 7.45688C21.7866 7.45328 21.834 7.43373 21.9685 7.50166L22.3067 6.83224L22.6449 6.16282C22.2333 5.95487 21.768 5.87763 21.2995 6.03452L21.5377 6.7457ZM22.3067 6.83224L21.9685 7.50166C22.3346 7.68661 22.7337 7.79094 23.1485 7.75094L23.0765 7.0044L23.0045 6.25786C22.9389 6.26419 22.8248 6.25374 22.6449 6.16282L22.3067 6.83224ZM23.0765 7.0044L23.1485 7.75094C23.6676 7.70088 24.0702 7.38141 24.3679 7.02518L23.7924 6.5442L23.217 6.06323C23.0406 6.27426 22.9659 6.26159 23.0045 6.25786L23.0765 7.0044ZM23.7924 6.5442L24.3679 7.02518C24.4003 6.9864 24.4234 6.96568 24.4355 6.95619C24.4472 6.94698 24.4446 6.95139 24.4271 6.95824C24.408 6.96567 24.3796 6.9727 24.3455 6.97296C24.3117 6.97322 24.2862 6.96672 24.2727 6.96181L24.5284 6.25677L24.7842 5.55173C24.4908 5.4453 24.1781 5.44513 23.8814 5.56101C23.6032 5.66964 23.3856 5.8615 23.217 6.06323L23.7924 6.5442ZM24.5284 6.25677L24.2727 6.96181C24.6425 7.09598 25.0276 7.13532 25.416 7.07232L25.296 6.33199L25.1759 5.59167C25.0482 5.61238 24.9216 5.60157 24.7842 5.55173L24.5284 6.25677ZM25.296 6.33199L25.416 7.07232C25.5817 7.04546 25.7393 7.05042 25.8942 7.08513L26.0582 6.35329L26.2222 5.62145C25.877 5.54406 25.5264 5.53482 25.1759 5.59167L25.296 6.33199ZM26.0582 6.35329L25.8942 7.08513C25.9349 7.09427 26.0231 7.12786 26.1486 7.28659L26.737 6.82144L27.3253 6.3563C27.0459 6.00294 26.6816 5.72442 26.2222 5.62145L26.0582 6.35329ZM26.737 6.82144L26.1486 7.28659C26.3291 7.51491 26.5873 7.71871 26.9326 7.78627C27.274 7.85306 27.5876 7.76452 27.8393 7.63127L27.4884 6.96844L27.1374 6.30561C27.0906 6.33041 27.1297 6.2964 27.2206 6.31418C27.2631 6.32248 27.2961 6.33869 27.3168 6.3526C27.3355 6.36521 27.337 6.37108 27.3253 6.3563L26.737 6.82144ZM27.4884 6.96844L27.8393 7.63127C27.8991 7.5996 27.8722 7.63076 27.7881 7.61862C27.746 7.61255 27.7078 7.59773 27.6781 7.57966C27.6502 7.56272 27.6397 7.54898 27.6428 7.55269L28.2202 7.07408L28.7976 6.59546C28.6098 6.36883 28.3444 6.18338 28.0024 6.13401C27.6743 6.08666 27.3761 6.17924 27.1374 6.30561L27.4884 6.96844ZM28.2202 7.07408L27.6428 7.55269C27.9068 7.87123 28.2374 8.11945 28.64 8.2426L28.8593 7.5254L29.0787 6.8082C29.0079 6.78653 28.9124 6.73387 28.7976 6.59546L28.2202 7.07408ZM28.8593 7.5254L28.64 8.2426C28.7383 8.27267 28.832 8.32879 28.926 8.43237L29.4815 7.92851L30.0371 7.42466C29.7749 7.13557 29.4538 6.92295 29.0787 6.8082L28.8593 7.5254ZM29.4815 7.92851L28.926 8.43237C29.173 8.70469 29.4662 8.91781 29.8054 9.05527L30.0871 8.36019L30.3688 7.66511C30.2567 7.61966 30.1462 7.54499 30.0371 7.42466L29.4815 7.92851ZM30.0871 8.36019L29.8054 9.05527C30.2343 9.22911 30.6998 9.20172 31.1331 9.09259L30.95 8.3653L30.7668 7.638C30.5009 7.70497 30.3912 7.67417 30.3688 7.66511L30.0871 8.36019ZM30.95 8.3653L31.1331 9.09259C31.2279 9.06872 31.2379 9.08522 31.1982 9.07409C31.1761 9.06792 31.1489 9.05582 31.1226 9.03634C31.0968 9.01722 31.0824 8.99875 31.0767 8.99024L31.7016 8.57542L32.3264 8.1606C32.1569 7.90521 31.9102 7.71566 31.602 7.62949C31.3117 7.54832 31.0217 7.57382 30.7668 7.638L30.95 8.3653ZM31.7016 8.57542L31.0767 8.99024C31.23 9.22111 31.3815 9.44595 31.5311 9.66475L32.1502 9.24133L32.7692 8.81792C32.6236 8.60509 32.476 8.38599 32.3264 8.1606L31.7016 8.57542ZM32.1502 9.24133L31.5311 9.66475C31.7126 9.93014 31.9217 10.1678 32.159 10.3748L32.652 9.80961L33.145 9.2444C33.0084 9.1253 32.8829 8.98415 32.7692 8.81792L32.1502 9.24133ZM32.652 9.80961L32.159 10.3748C32.4049 10.5893 32.6831 10.7648 32.9883 10.904L33.2996 10.2217L33.6108 9.53931C33.4264 9.45518 33.2729 9.35597 33.145 9.2444L32.652 9.80961ZM33.2996 10.2217L32.9883 10.904C32.9944 10.9068 32.9922 10.9066 32.9857 10.9013C32.9826 10.8987 32.9792 10.8955 32.9757 10.8916C32.9722 10.8878 32.9692 10.884 32.9668 10.8804C32.9618 10.873 32.9614 10.87 32.9631 10.8751C32.9651 10.8808 32.9695 10.896 32.9726 10.9237L33.7179 10.8391L34.4631 10.7545C34.4036 10.2311 34.1282 9.77529 33.6108 9.53931L33.2996 10.2217ZM33.7179 10.8391L32.9726 10.9237C33.0222 11.3597 33.1889 11.7728 33.524 12.0896L34.0392 11.5445L34.5545 10.9995C34.5292 10.9756 34.4817 10.9184 34.4631 10.7545L33.7179 10.8391ZM34.0392 11.5445L33.524 12.0896C33.6463 12.2052 33.7457 12.3349 33.8243 12.481L34.4847 12.1257L35.1452 11.7704C34.9902 11.4823 34.7926 11.2246 34.5545 10.9995L34.0392 11.5445ZM34.4847 12.1257L33.8243 12.481C33.979 12.7687 34.1769 13.0276 34.4142 13.2571L34.9356 12.7179L35.4569 12.1788C35.3267 12.0528 35.2241 11.9169 35.1452 11.7704L34.4847 12.1257ZM34.9356 12.7179L34.4142 13.2571C34.5014 13.3414 34.555 13.4335 34.5848 13.5447L35.3093 13.3506L36.0337 13.1565C35.9327 12.7795 35.7372 12.4498 35.4569 12.1788L34.9356 12.7179ZM35.3093 13.3506L34.5848 13.5447C34.6984 13.9686 34.9507 14.3117 35.2908 14.5718L35.7465 13.9762L36.2022 13.3805C36.0901 13.2947 36.0509 13.2207 36.0337 13.1565L35.3093 13.3506ZM35.7465 13.9762L35.2908 14.5718C35.3086 14.5855 35.3174 14.595 35.3209 14.5991C35.3241 14.6029 35.3235 14.603 35.3218 14.5995C35.3211 14.598 35.3204 14.5963 35.3199 14.5948C35.3194 14.5933 35.3192 14.5924 35.3192 14.5925C35.3192 14.5926 35.3195 14.594 35.3197 14.5971C35.32 14.6002 35.3202 14.6052 35.3199 14.6123L36.0693 14.6424L36.8187 14.6726C36.8399 14.1437 36.611 13.6933 36.2022 13.3805L35.7465 13.9762ZM36.0693 14.6424L35.3199 14.6123C35.297 15.1793 35.5771 15.6306 35.9969 15.9356L36.4378 15.3289L36.8787 14.7222C36.8219 14.6809 36.8115 14.658 36.814 14.6627C36.8151 14.6647 36.8169 14.669 36.818 14.674C36.8191 14.6788 36.8184 14.6791 36.8187 14.6726L36.0693 14.6424ZM36.4378 15.3289L35.9969 15.9356C36.0043 15.941 35.9858 15.9293 35.9625 15.894C35.9369 15.8555 35.9153 15.8031 35.908 15.7432C35.8939 15.6269 35.9436 15.5874 35.897 15.6596L36.5271 16.0665L37.1571 16.4733C37.3076 16.2403 37.441 15.9252 37.3971 15.563C37.3506 15.1787 37.1254 14.9014 36.8787 14.7222L36.4378 15.3289ZM36.5271 16.0665L35.897 15.6596C35.7553 15.8791 35.6397 16.139 35.6152 16.4306C35.5892 16.7383 35.6695 17.0313 35.8411 17.2824L36.4603 16.8591L37.0794 16.4358C37.0857 16.445 37.096 16.4636 37.1032 16.4903C37.1104 16.5172 37.1112 16.5408 37.1099 16.5565C37.1087 16.571 37.1062 16.572 37.1119 16.5573C37.1177 16.5422 37.1306 16.5143 37.1571 16.4733L36.5271 16.0665ZM36.4603 16.8591L35.8411 17.2824C35.8479 17.2923 35.8484 17.2953 35.8469 17.2913C35.8462 17.2895 35.8453 17.2865 35.8444 17.2826C35.8435 17.2787 35.8429 17.2745 35.8425 17.2704C35.8418 17.2614 35.8427 17.2565 35.8425 17.2574C35.8423 17.2587 35.8403 17.2684 35.8323 17.2871L36.521 17.584L37.2098 17.8808C37.4178 17.3982 37.3852 16.8831 37.0794 16.4358L36.4603 16.8591ZM36.521 17.584L35.8323 17.2871C35.6705 17.6625 35.6068 18.0652 35.6851 18.475L36.4218 18.3342L37.1584 18.1933C37.145 18.123 37.1474 18.0255 37.2098 17.8808L36.521 17.584ZM36.4218 18.3342L35.6851 18.475C35.7644 18.8896 35.9847 19.2533 36.267 19.5668L36.8244 19.065L37.3818 18.5631C37.219 18.3823 37.1709 18.2588 37.1584 18.1933L36.4218 18.3342ZM36.8244 19.065L36.267 19.5668C36.3241 19.6302 36.3303 19.6588 36.3278 19.6505C36.3264 19.6458 36.3243 19.6356 36.3243 19.6223C36.3243 19.609 36.3265 19.5995 36.3275 19.596L37.0461 19.8107L37.7647 20.0255C37.9352 19.455 37.7243 18.9436 37.3818 18.5631L36.8244 19.065ZM37.0461 19.8107L36.3275 19.596C36.239 19.8923 36.1805 20.1919 36.1535 20.494L36.9006 20.5607L37.6476 20.6274C37.6653 20.4295 37.7039 20.2291 37.7647 20.0255L37.0461 19.8107ZM36.9006 20.5607L36.1535 20.494C36.1259 20.8037 36.1353 21.1133 36.1815 21.4218L36.9232 21.3107L37.665 21.1997C37.6363 21.0081 37.6306 20.8178 37.6476 20.6274L36.9006 20.5607ZM36.9232 21.3107L36.1815 21.4218C36.2182 21.6668 36.2523 21.9117 36.2839 22.1567L37.0277 22.0607L37.7716 21.9647C37.7387 21.7097 37.7031 21.4547 37.665 21.1997L36.9232 21.3107ZM37.0277 22.0607L36.2839 22.1567C36.2829 22.1488 36.2862 22.1472 36.2801 22.1628C36.2721 22.1833 36.2476 22.2318 36.1801 22.3058L36.7347 22.8107L37.2893 23.3156C37.6116 22.9617 37.8408 22.5013 37.7716 21.9647L37.0277 22.0607ZM36.7347 22.8107L36.1801 22.3058C35.8616 22.6557 35.6321 23.1061 35.6829 23.6327L36.4294 23.5607L37.176 23.4888C37.1759 23.4887 37.176 23.4888 37.176 23.4891C37.176 23.4893 37.1759 23.4892 37.1761 23.4884C37.1763 23.487 37.1774 23.4807 37.1823 23.4685C37.1927 23.4429 37.2205 23.3912 37.2893 23.3156L36.7347 22.8107ZM36.4294 23.5607L35.6829 23.6327C35.7258 24.0778 35.9339 24.4679 36.2178 24.799L36.7872 24.3107L37.3565 23.8225C37.2116 23.6535 37.1812 23.5436 37.176 23.4888L36.4294 23.5607ZM36.7872 24.3107L36.2178 24.799C36.2606 24.8488 36.242 24.8477 36.2344 24.797C36.2306 24.772 36.2316 24.7462 36.2362 24.7235C36.2406 24.702 36.2465 24.6922 36.2446 24.6955L36.8997 25.0607L37.5548 25.4259C37.694 25.1761 37.7644 24.8849 37.7178 24.5744C37.6727 24.2737 37.5281 24.0226 37.3565 23.8225L36.7872 24.3107ZM36.8997 25.0607L36.2446 24.6955C36.0014 25.1319 35.9559 25.6212 36.1519 26.0966L36.8453 25.8107L37.5387 25.5248C37.5327 25.5105 37.5308 25.5016 37.5301 25.4976C37.5295 25.4938 37.5295 25.4917 37.5296 25.49C37.5297 25.4887 37.5309 25.4689 37.5548 25.4259L36.8997 25.0607ZM36.8453 25.8107L36.1519 26.0966C36.2426 26.3166 36.3157 26.5343 36.3718 26.7498L37.0976 26.5607L37.8234 26.3716C37.7493 26.0872 37.6541 25.8049 37.5387 25.5248L36.8453 25.8107ZM37.0976 26.5607L36.3718 26.7498C36.4197 26.9336 36.438 27.1051 36.4315 27.2666L37.181 27.2964L37.9304 27.3262C37.9431 27.0068 37.9058 26.6878 37.8234 26.3716L37.0976 26.5607ZM37.181 27.2964L36.4315 27.2666C36.421 27.5326 36.424 27.7978 36.4408 28.0621L37.1893 28.0146L37.9378 27.9671C37.9243 27.7547 37.9218 27.5411 37.9304 27.3262L37.181 27.2964ZM37.1893 28.0146L36.4408 28.0621C36.4614 28.3876 36.5375 28.7018 36.668 29.0009L37.3554 28.701L38.0428 28.4011C37.982 28.2617 37.9474 28.1183 37.9378 27.9671L37.1893 28.0146ZM37.3554 28.701L36.668 29.0009C36.7353 29.1553 36.7827 29.3223 36.8083 29.5043L37.551 29.3996L38.2936 29.2949C38.2498 28.9839 38.1667 28.6851 38.0428 28.4011L37.3554 28.701ZM37.551 29.3996L36.8083 29.5043C36.8562 29.8441 36.9655 30.1651 37.1366 30.4616L37.7862 30.0869L38.4359 29.7121C38.3627 29.5853 38.3152 29.4481 38.2936 29.2949L37.551 29.3996ZM37.7862 30.0869L37.1366 30.4616C37.188 30.5508 37.2372 30.694 37.2525 30.9209L38.0008 30.8705L38.7491 30.82C38.7225 30.4255 38.6287 30.0464 38.4359 29.7121L37.7862 30.0869ZM38.0008 30.8705L37.2525 30.9209C37.2875 31.4408 37.5287 31.9179 38.0339 32.1875L38.3869 31.5258L38.74 30.864C38.7357 30.8618 38.7385 30.8627 38.7445 30.8683C38.7507 30.8742 38.7559 30.8809 38.7592 30.8865C38.7662 30.8984 38.7535 30.885 38.7491 30.82L38.0008 30.8705ZM38.3869 31.5258L38.0339 32.1875C38.3154 32.3376 38.6142 32.4603 38.9288 32.5567L39.1484 31.8395L39.3679 31.1224C39.1403 31.0527 38.9315 30.9662 38.74 30.864L38.3869 31.5258ZM39.1484 31.8395L38.9288 32.5567C38.9468 32.5622 38.9551 32.5667 38.9569 32.5678C38.9583 32.5686 38.9559 32.5673 38.9523 32.5637C38.9486 32.56 38.9474 32.5576 38.9482 32.559C38.9492 32.5607 38.9537 32.569 38.9591 32.587L39.6773 32.3712L40.3956 32.1554C40.242 31.6439 39.8785 31.2787 39.3679 31.1224L39.1484 31.8395ZM39.6773 32.3712L38.9591 32.587C39.0512 32.8936 39.1626 33.175 39.3011 33.4163L39.9515 33.0428L40.6019 32.6694C40.538 32.558 40.4666 32.3916 40.3956 32.1554L39.6773 32.3712ZM39.9515 33.0428L39.3011 33.4163C39.2968 33.4087 39.2973 33.4045 39.2981 33.4126C39.2992 33.4234 39.3005 33.4558 39.2868 33.516L40.0181 33.6823L40.7495 33.8486C40.8367 33.4648 40.8196 33.0486 40.6019 32.6694L39.9515 33.0428ZM40.0181 33.6823L39.2868 33.516C39.1893 33.9446 39.2495 34.3667 39.4358 34.756L40.1123 34.4323L40.7888 34.1086C40.7359 33.9979 40.7332 33.92 40.7495 33.8486L40.0181 33.6823ZM40.1123 34.4323L39.4358 34.756C39.5296 34.9522 39.5909 35.1399 39.6245 35.32L40.3618 35.1823L41.099 35.0446C41.0393 34.7248 40.9342 34.4124 40.7888 34.1086L40.1123 34.4323ZM40.3618 35.1823L39.6245 35.32C39.6604 35.512 39.6727 35.702 39.6624 35.8912L40.4112 35.9323L41.1601 35.9734C41.1772 35.6626 41.1565 35.3526 41.099 35.0446L40.3618 35.1823ZM40.4112 35.9323L39.6624 35.8912C39.6599 35.9366 39.6563 35.9713 39.6527 35.9968C39.6509 36.0094 39.6492 36.0188 39.6479 36.0254C39.6466 36.032 39.6457 36.0349 39.6458 36.0347C39.6459 36.0345 39.6472 36.0298 39.6503 36.0217C39.6535 36.0136 39.6591 36.0003 39.6682 35.9834C39.6854 35.9512 39.722 35.8933 39.7895 35.8352L40.2787 36.4037L40.7679 36.9721C40.9688 36.7993 41.0514 36.5772 41.0898 36.4406C41.1324 36.2892 41.1517 36.1274 41.1601 35.9734L40.4112 35.9323ZM40.2787 36.4037L39.7895 35.8352C39.839 35.7926 39.8807 35.772 39.8965 35.7649C39.9136 35.7571 39.9194 35.7565 39.908 35.7595C39.8974 35.7624 39.8772 35.7669 39.8452 35.772C39.8137 35.777 39.774 35.782 39.7254 35.7863L39.7917 36.5333L39.8581 37.2804C40.0072 37.2672 40.1564 37.2456 40.294 37.209C40.4176 37.1761 40.6046 37.1127 40.7679 36.9721L40.2787 36.4037Z" fill="#030302"/>
</svg>
