<svg width="48" height="48" viewBox="0 0 48 48" fill="none" xmlns="http://www.w3.org/2000/svg">
<path d="M25.0081 5.88161L24.6522 6.54177L25.0081 5.88161ZM24.5446 5.27547L25.2644 5.06478L24.5446 5.27547ZM24.097 5.06158L23.6901 4.43156L24.097 5.06158ZM22.274 6.40003L22.7765 6.95676L22.274 6.40003ZM21.8383 7.02521L22.5301 7.31495L21.8383 7.02521ZM21.3726 7.62098L21.811 8.22956L21.3726 7.62098ZM20.6148 7.9325L20.7602 8.66827L20.6148 7.9325ZM20.1723 8.54148L20.9222 8.53311L20.1723 8.54148ZM19.8394 9.25785L20.215 9.907L19.8394 9.25785ZM19.3582 9.82811L18.6573 9.56126L19.3582 9.82811ZM18.1297 10.7459L18.7823 11.1155L18.1297 10.7459ZM17.7576 11.4112L17.101 11.0485L17.7576 11.4112ZM16.7812 12.551L16.7045 11.8049L16.7812 12.551ZM16.0158 13.8492L16.328 14.5311L16.0158 13.8492ZM15.5074 14.4001L14.7934 14.1708L15.5074 14.4001ZM13.881 16.9101L14.4671 17.378L13.881 16.9101ZM12.912 18.083L12.5951 17.4032L12.912 18.083ZM12.3457 19.4767L13.0323 19.7785L12.3457 19.4767ZM11.4998 21.5554L10.9059 21.0973L11.4998 21.5554ZM11.0172 22.1755L10.4273 21.7123L11.0172 22.1755ZM10.8267 22.8999L11.5701 22.8011L10.8267 22.8999ZM10.7954 23.674L10.0657 23.5006L10.7954 23.674ZM10.1793 25.8416L10.6373 26.4355L10.1793 25.8416ZM9.78573 26.5461L10.5348 26.5088L9.78573 26.5461ZM10.1234 27.3198L10.7029 26.8436L10.1234 27.3198ZM9.99792 29.5802L10.6801 29.2685L9.99792 29.5802ZM10.4136 31.8131L9.67215 31.9263L10.4136 31.8131ZM10.9868 33.2012L10.6086 33.8489L10.9868 33.2012ZM11.8444 34.4482L12.2888 33.8441L11.8444 34.4482ZM12.3859 35.8637L12.93 35.3475L12.3859 35.8637ZM12.8775 36.4363L13.4706 35.9771L12.8775 36.4363ZM16.2332 39.3441L15.9354 40.0324L16.2332 39.3441ZM16.8835 39.6968L17.2993 39.0727L16.8835 39.6968ZM17.4943 40.111L17.0684 40.7284L17.4943 40.111ZM19.4394 41.1983L19.5973 41.9315L19.4394 41.1983ZM20.2221 41.2041L20.4217 40.4812L20.2221 41.2041ZM21.5934 41.903L21.8481 41.1975L21.5934 41.903ZM22.3282 42.116L22.4902 41.3837L22.3282 42.116ZM23.8439 42.2583L23.7049 41.5212L23.8439 42.2583ZM25.3815 42.2703L25.2714 43.0122L25.3815 42.2703ZM28.9407 40.9645L29.2692 41.6387L28.9407 40.9645ZM29.6111 40.6424L29.9323 41.3201L29.6111 40.6424ZM30.3846 40.5156L30.4392 39.7676L30.3846 40.5156ZM31.0526 40.1907L31.6836 40.5962L31.0526 40.1907ZM32.2475 39.2659L31.7799 38.6796L32.2475 39.2659ZM32.8492 38.819L33.2755 39.436L32.8492 38.819ZM35.2478 36.931L34.638 36.4945L35.2478 36.931ZM35.5422 36.2025L34.8026 36.0777L35.5422 36.2025ZM35.9361 34.6826L36.5892 35.0514L35.9361 34.6826ZM36.2554 34.0244L35.5615 33.7398L36.2554 34.0244ZM36.8662 33.479L36.5658 32.7918L36.8662 33.479ZM37.7364 29.8786L38.4145 29.5581L37.7364 29.8786ZM38.099 28.4068L37.4867 28.8399L38.099 28.4068ZM36.7073 21.0141L35.9713 21.1581L36.7073 21.0141ZM35.9272 19.7138L36.4304 19.1577L35.9272 19.7138ZM34.827 17.7412L34.0964 17.5718L34.827 17.7412ZM32.7749 14.6105L33.2673 14.0447L32.7749 14.6105ZM32.3932 13.9576L33.1248 13.7926L32.3932 13.9576ZM31.618 12.6602L30.8723 12.7406L31.618 12.6602ZM31.051 12.1557L31.1459 11.4117L31.051 12.1557ZM30.5808 11.5624L29.8341 11.4922L30.5808 11.5624ZM28.8061 10.1261L29.4431 9.73023L28.8061 10.1261ZM28.2164 8.6348L28.9383 8.43141L28.2164 8.6348ZM27.088 7.63554L26.5017 8.10332L27.088 7.63554ZM25.9545 6.6435L25.5277 7.26017L25.9545 6.6435ZM25.5522 6.18198L24.8478 6.43952L25.5522 6.18198ZM25.4052 6.00084L24.8473 5.49962L25.4052 6.00084ZM23.634 40.9352L23.616 40.1854L23.634 40.9352ZM22.8944 40.8164L23.1432 40.1089L22.8944 40.8164ZM22.1144 40.9177L22.476 41.5748L22.1144 40.9177ZM21.3553 40.9138L20.9334 41.5339L21.3553 40.9138ZM20.6675 40.5159L20.9905 39.8391L20.6675 40.5159ZM18.478 39.8839L18.5526 40.6302L18.478 39.8839ZM17.2084 39.0723L17.8167 38.6336L17.2084 39.0723ZM16.5933 38.6234L16.8167 37.9074L16.5933 38.6234ZM15.4453 37.6497L15.4652 36.8999L15.4453 37.6497ZM14.4262 36.5725L15.0525 36.16L14.4262 36.5725ZM12.7416 34.1167L13.075 33.4449L12.7416 34.1167ZM12.1934 33.5651L12.8877 33.2816L12.1934 33.5651ZM11.1988 28.4541L11.9391 28.5743L11.1988 28.4541ZM11.0947 26.9744L10.6263 26.3886L11.0947 26.9744ZM11.3454 26.2357L12.029 25.9273L11.3454 26.2357ZM11.0038 24.6493L11.7314 24.8311L11.0038 24.6493ZM11.3362 23.9482L11.9425 24.3896L11.3362 23.9482ZM12.0035 22.5686L11.2536 22.5796L12.0035 22.5686ZM13.8662 19.3223L13.1624 19.063L13.8662 19.3223ZM15.6992 15.1801L15.021 14.8599V14.8599L15.6992 15.1801ZM16.8193 14.1354L16.1261 13.8493L16.8193 14.1354ZM17.0811 13.3911L16.3619 13.1784L17.0811 13.3911ZM17.6831 12.9104L17.5428 12.1737L17.6831 12.9104ZM20.4531 9.34006L20.8172 9.99576L20.4531 9.34006ZM24.1984 6.77519L23.6364 7.27183L24.1984 6.77519ZM25.3497 7.71553L25.8041 7.11883L25.3497 7.71553ZM26.4063 8.78014L26.1411 9.4817L26.4063 8.78014ZM27.7185 9.60077L27.2597 10.1941L27.7185 9.60077ZM28.2272 10.1541L28.8569 9.74661L28.2272 10.1541ZM28.7506 10.6982L29.1841 10.0861L28.7506 10.6982ZM30.4846 13.1616L29.916 13.6506L30.4846 13.1616ZM31.1573 14.5289L30.5173 14.92L31.1573 14.5289ZM33.0604 16.8451L33.7451 16.539L33.0604 16.8451ZM33.426 17.5002L32.8064 17.9229L33.426 17.5002ZM34.0325 18.8723L33.3543 19.1926L34.0325 18.8723ZM36.2173 23.6014L36.8209 23.1563L36.2173 23.6014ZM36.7246 25.0212L36.207 25.5639L36.7246 25.0212ZM36.7475 26.5151L37.3969 26.8904L36.7475 26.5151ZM36.8605 27.9981L37.5947 28.1511L36.8605 27.9981ZM36.981 28.7571L37.6495 28.4172L36.981 28.7571ZM36.9782 29.5014L36.3249 29.1331L36.9782 29.5014ZM36.5315 30.1859L35.9311 29.7363L36.5315 30.1859ZM36.4804 30.943L37.1629 30.6319L36.4804 30.943ZM36.1087 32.3698L36.7311 32.7883L36.1087 32.3698ZM35.0329 34.3167L35.6672 34.7168L35.0329 34.3167ZM34.5677 34.8884L34.0459 34.3496L34.5677 34.8884ZM34.1041 35.4571L34.7382 35.8576L34.1041 35.4571ZM33.3942 36.7728L33.1681 36.0576L33.3942 36.7728ZM32.5129 38.0382L32.193 37.3599L32.5129 38.0382ZM31.8389 38.4133L31.4293 37.785L31.8389 38.4133ZM31.1405 38.7209L31.3322 39.4459L31.1405 38.7209ZM30.4859 39.0929L29.9577 38.5604L30.4859 39.0929ZM29.8993 39.58L30.3249 40.1975L29.8993 39.58ZM29.2708 40.0254L29.7122 40.6318L29.2708 40.0254ZM28.5894 40.3687L28.3669 39.6525L28.5894 40.3687ZM27.8806 40.6767L28.2504 41.3292L27.8806 40.6767ZM24.8371 40.884L25.1514 41.5649L24.8371 40.884ZM24.2414 41.1011L24.3968 41.8349L24.2414 41.1011ZM24.0101 41.0381L23.2601 41.0391L24.0101 41.0381ZM25.0081 5.88161L25.364 5.22144C25.3396 5.20829 25.2993 5.18411 25.2644 5.06478L24.5446 5.27547L23.8248 5.48617C23.955 5.93083 24.2237 6.31075 24.6522 6.54177L25.0081 5.88161ZM24.5446 5.27547L25.2644 5.06478C25.2067 4.86769 25.0666 4.51179 24.6942 4.3338C24.2736 4.13283 23.8886 4.3034 23.6901 4.43156L24.097 5.06158L24.5039 5.6916C24.5027 5.6924 24.4927 5.69879 24.4743 5.70682C24.4558 5.71487 24.4253 5.72611 24.384 5.73381C24.2935 5.7507 24.1709 5.74619 24.0474 5.6872C23.9312 5.63167 23.8687 5.55387 23.8431 5.51483C23.819 5.47815 23.8175 5.46121 23.8248 5.48617L24.5446 5.27547ZM24.097 5.06158L23.6901 4.43156C23.3918 4.62422 23.1395 4.86847 22.9373 5.16038L23.5539 5.58745L24.1704 6.01451C24.2607 5.88408 24.3706 5.77774 24.5039 5.6916L24.097 5.06158ZM23.5539 5.58745L22.9373 5.16038C22.8923 5.22533 22.8319 5.27529 22.7208 5.30994L22.944 6.02595L23.1672 6.74195C23.5767 6.61429 23.9228 6.37192 24.1704 6.01451L23.5539 5.58745ZM22.944 6.02595L22.7208 5.30994C22.366 5.42056 22.0451 5.59633 21.7715 5.84329L22.274 6.40003L22.7765 6.95676C22.8757 6.86726 23.0015 6.79364 23.1672 6.74195L22.944 6.02595ZM22.274 6.40003L21.7715 5.84329C21.4972 6.09084 21.2901 6.39268 21.1465 6.73548L21.8383 7.02521L22.5301 7.31495C22.5947 7.16063 22.678 7.04568 22.7765 6.95676L22.274 6.40003ZM21.8383 7.02521L21.1465 6.73548C21.0925 6.86437 21.0216 6.94955 20.9343 7.0124L21.3726 7.62098L21.811 8.22956C22.1364 7.99517 22.3758 7.68317 22.5301 7.31495L21.8383 7.02521ZM21.3726 7.62098L20.9343 7.0124C20.8309 7.08687 20.6832 7.15447 20.4694 7.19673L20.6148 7.9325L20.7602 8.66827C21.1441 8.5924 21.5017 8.45232 21.811 8.22956L21.3726 7.62098ZM20.6148 7.9325L20.4694 7.19673C20.1764 7.25463 19.8809 7.40241 19.6733 7.68817C19.4745 7.96175 19.4193 8.27557 19.4223 8.54986L20.1723 8.54148L20.9222 8.53311C20.9214 8.46047 20.938 8.49933 20.8867 8.56992C20.861 8.60535 20.8291 8.63273 20.7987 8.65056C20.7704 8.6672 20.7537 8.66955 20.7602 8.66827L20.6148 7.9325ZM20.1723 8.54148L19.4223 8.54986C19.4234 8.64537 19.4076 8.67382 19.4118 8.66472C19.4145 8.65904 19.421 8.64741 19.4329 8.63434C19.4449 8.62123 19.4566 8.61286 19.4638 8.60869L19.8394 9.25785L20.215 9.907C20.7519 9.59634 20.928 9.04847 20.9222 8.53311L20.1723 8.54148ZM19.8394 9.25785L19.4638 8.60869C19.0851 8.82781 18.812 9.15483 18.6573 9.56126L19.3582 9.82811L20.0591 10.095C20.0944 10.0023 20.1421 9.94919 20.215 9.907L19.8394 9.25785ZM19.3582 9.82811L18.6573 9.56126C18.655 9.56745 18.6544 9.56696 18.6573 9.56288C18.6603 9.55861 18.664 9.55493 18.6666 9.5528C18.6725 9.548 18.6576 9.56316 18.5952 9.57782L18.7669 10.3079L18.9385 11.038C19.4376 10.9207 19.8611 10.6153 20.0591 10.095L19.3582 9.82811ZM18.7669 10.3079L18.5952 9.57782C18.138 9.68531 17.7267 9.93559 17.4771 10.3762L18.1297 10.7459L18.7823 11.1155C18.7883 11.1049 18.7944 11.0976 18.808 11.0882C18.8242 11.0771 18.8624 11.0559 18.9385 11.038L18.7669 10.3079ZM18.1297 10.7459L17.4771 10.3762C17.3503 10.6002 17.2249 10.8243 17.101 11.0485L17.7576 11.4112L18.4141 11.7738C18.5353 11.5542 18.658 11.3348 18.7823 11.1155L18.1297 10.7459ZM17.7576 11.4112L17.101 11.0485C16.9561 11.311 16.8346 11.5881 16.736 11.8789L17.4462 12.1198L18.1565 12.3608C18.2278 12.1504 18.3139 11.9551 18.4141 11.7738L17.7576 11.4112ZM17.4462 12.1198L16.736 11.8789C16.74 11.867 16.7488 11.8479 16.7648 11.8273C16.7809 11.8066 16.7974 11.7932 16.8082 11.7862C16.8181 11.7798 16.8181 11.782 16.8014 11.7872C16.7843 11.7925 16.7533 11.7999 16.7045 11.8049L16.7812 12.551L16.8579 13.297C17.3837 13.243 17.9427 12.9907 18.1565 12.3608L17.4462 12.1198ZM16.7812 12.551L16.7045 11.8049C16.4143 11.8347 16.0555 11.9445 15.8061 12.2651C15.5564 12.5863 15.5388 12.9616 15.5824 13.2506L16.324 13.1388L17.0656 13.0269C17.0557 12.9609 17.0876 13.0608 16.9902 13.186C16.8932 13.3106 16.7897 13.304 16.8579 13.297L16.7812 12.551ZM16.324 13.1388L15.5824 13.2506C15.5961 13.3412 15.5767 13.3359 15.5991 13.2841C15.6111 13.2564 15.6303 13.2275 15.6552 13.2031C15.6792 13.1795 15.6989 13.1694 15.7036 13.1673L16.0158 13.8492L16.328 14.5311C16.607 14.4034 16.8423 14.1875 16.9752 13.8811C17.1004 13.5926 17.1055 13.2913 17.0656 13.0269L16.324 13.1388ZM16.0158 13.8492L15.7036 13.1673C15.2724 13.3647 14.9439 13.702 14.7934 14.1708L15.5074 14.4001L16.2215 14.6295C16.2307 14.6009 16.2411 14.5709 16.328 14.5311L16.0158 13.8492ZM15.5074 14.4001L14.7934 14.1708C14.7936 14.17 14.7958 14.1641 14.8011 14.1561C14.8064 14.1481 14.8115 14.1431 14.8133 14.1416C14.8164 14.139 14.7937 14.1596 14.7148 14.1815L14.9153 14.9042L15.1158 15.6269C15.6046 15.4913 16.0447 15.18 16.2215 14.6295L15.5074 14.4001ZM14.9153 14.9042L14.7148 14.1815C14.42 14.2633 14.1042 14.4451 13.9253 14.798C13.7563 15.1314 13.7806 15.4809 13.8481 15.7536L14.5761 15.5735L15.3042 15.3933C15.2829 15.3073 15.3192 15.3657 15.2633 15.4761C15.2347 15.5326 15.1946 15.5752 15.1573 15.6023C15.1236 15.6268 15.1036 15.6303 15.1158 15.6269L14.9153 14.9042ZM14.5761 15.5735L13.8481 15.7536C13.861 15.8059 13.8657 15.8427 13.867 15.8659C13.8682 15.8889 13.866 15.8949 13.8674 15.8882C13.869 15.8804 13.874 15.8628 13.8866 15.8413C13.8994 15.8195 13.9144 15.8029 13.9269 15.7924L14.4125 16.3639L14.8982 16.9354C15.401 16.5082 15.4283 15.8948 15.3042 15.3933L14.5761 15.5735ZM14.4125 16.3639L13.9269 15.7924C13.6936 15.9906 13.4825 16.2072 13.2949 16.4421L13.881 16.9101L14.4671 17.378C14.5925 17.221 14.7358 17.0734 14.8982 16.9354L14.4125 16.3639ZM13.881 16.9101L13.2949 16.4421C13.1004 16.6857 12.9379 16.9496 12.8081 17.2327L13.4898 17.5453L14.1716 17.8578C14.2504 17.686 14.3486 17.5264 14.4671 17.378L13.881 16.9101ZM13.4898 17.5453L12.8081 17.2327C12.7945 17.2625 12.7546 17.3289 12.5951 17.4032L12.912 18.083L13.2289 18.7627C13.6313 18.5751 13.9767 18.2831 14.1716 17.8578L13.4898 17.5453ZM12.912 18.083L12.5951 17.4032C12.3601 17.5128 12.1361 17.6775 11.9739 17.9192C11.809 18.1648 11.7417 18.4402 11.7435 18.7117L12.4935 18.7066L13.2435 18.7014C13.2434 18.6923 13.2445 18.6962 13.2409 18.7091C13.2371 18.7228 13.23 18.7393 13.2194 18.755C13.209 18.7705 13.2 18.7783 13.1984 18.7796C13.1974 18.7804 13.2057 18.7736 13.2289 18.7627L12.912 18.083ZM12.4935 18.7066L11.7435 18.7117C11.7449 18.9056 11.7115 19.0556 11.6591 19.175L12.3457 19.4767L13.0323 19.7785C13.1809 19.4404 13.2461 19.077 13.2435 18.7014L12.4935 18.7066ZM12.3457 19.4767L11.6591 19.175C11.6313 19.2382 11.5701 19.3246 11.4157 19.4201L11.8104 20.0578L12.2052 20.6955C12.5634 20.4738 12.8591 20.1727 13.0323 19.7785L12.3457 19.4767ZM11.8104 20.0578L11.4157 19.4201C11.1685 19.5732 10.9501 19.8041 10.8468 20.1263C10.7466 20.4388 10.784 20.7459 10.8686 21.0048L11.5815 20.7718L12.2944 20.5387C12.2753 20.4804 12.299 20.5098 12.2752 20.5843C12.2635 20.6207 12.2452 20.6514 12.2266 20.6736C12.2093 20.6943 12.1981 20.6999 12.2052 20.6955L11.8104 20.0578ZM11.5815 20.7718L10.8686 21.0048C10.8963 21.0895 10.8931 21.1263 10.8929 21.1278C10.8929 21.1279 10.8936 21.1224 10.897 21.1139C10.9004 21.1053 10.9043 21.0995 10.9059 21.0973L11.4998 21.5554L12.0937 22.0134C12.4465 21.5559 12.4503 21.0158 12.2944 20.5387L11.5815 20.7718ZM11.4998 21.5554L10.9059 21.0973C10.7491 21.3007 10.5895 21.5057 10.4273 21.7123L11.0172 22.1755L11.6071 22.6386C11.7719 22.4287 11.9341 22.2203 12.0937 22.0134L11.4998 21.5554ZM11.0172 22.1755L10.4273 21.7123C10.1326 22.0876 10.0215 22.534 10.0832 22.9987L10.8267 22.8999L11.5701 22.8011C11.5589 22.7164 11.5747 22.6799 11.6071 22.6386L11.0172 22.1755ZM10.8267 22.8999L10.0832 22.9987C10.109 23.193 10.0996 23.3581 10.0657 23.5006L10.7954 23.674L11.5251 23.8474C11.6059 23.507 11.6173 23.156 11.5701 22.8011L10.8267 22.8999ZM10.7954 23.674L10.0657 23.5006C10.0575 23.5352 10.0251 23.6212 9.86618 23.7469L10.3315 24.3351L10.7968 24.9233C11.1417 24.6505 11.4185 24.2957 11.5251 23.8474L10.7954 23.674ZM10.3315 24.3351L9.86618 23.7469C9.62709 23.9361 9.41089 24.2231 9.38027 24.6115C9.35134 24.9785 9.50095 25.2894 9.66365 25.516L10.2729 25.0786L10.8821 24.6412C10.832 24.5714 10.885 24.6102 10.8756 24.7294C10.8708 24.7904 10.851 24.8438 10.8273 24.8828C10.8057 24.9184 10.7884 24.9299 10.7968 24.9233L10.3315 24.3351ZM10.2729 25.0786L9.66365 25.516C9.7066 25.5758 9.64921 25.5264 9.66468 25.4004C9.67213 25.3396 9.69381 25.2921 9.71304 25.2629C9.73016 25.2368 9.73956 25.2336 9.72126 25.2477L10.1793 25.8416L10.6373 26.4355C10.8755 26.2518 11.1058 25.972 11.1535 25.583C11.2002 25.2026 11.052 24.8778 10.8821 24.6412L10.2729 25.0786ZM10.1793 25.8416L9.72126 25.2477C9.32576 25.5528 9.00761 25.9999 9.03665 26.5834L9.78573 26.5461L10.5348 26.5088C10.5351 26.5146 10.5346 26.5233 10.5323 26.5327C10.5301 26.5417 10.5278 26.5454 10.5293 26.5427C10.5332 26.5356 10.5576 26.497 10.6373 26.4355L10.1793 25.8416ZM9.78573 26.5461L9.03665 26.5834C9.05956 27.0436 9.25993 27.4503 9.544 27.796L10.1234 27.3198L10.7029 26.8436C10.5623 26.6725 10.5375 26.5635 10.5348 26.5088L9.78573 26.5461ZM10.1234 27.3198L9.544 27.796C9.68575 27.9685 9.68657 28.0518 9.68644 28.0606L10.4364 28.072L11.1863 28.0834C11.1935 27.6059 10.9857 27.1878 10.7029 26.8436L10.1234 27.3198ZM10.4364 28.072L9.68644 28.0606C9.68591 28.0951 9.67145 28.1949 9.53611 28.3717L10.1317 28.8275L10.7273 29.2833C10.9907 28.9391 11.1794 28.5352 11.1863 28.0834L10.4364 28.072ZM10.1317 28.8275L9.53611 28.3717C9.21567 28.7904 9.06119 29.3346 9.31573 29.8918L9.99792 29.5802L10.6801 29.2685C10.6813 29.271 10.6855 29.2815 10.6877 29.2983C10.69 29.3154 10.6892 29.331 10.6871 29.3423C10.6833 29.364 10.6802 29.3449 10.7273 29.2833L10.1317 28.8275ZM9.99792 29.5802L9.31573 29.8918C9.40332 30.0835 9.46412 30.2714 9.50094 30.456L10.2365 30.3093L10.972 30.1627C10.9111 29.8575 10.8129 29.5592 10.6801 29.2685L9.99792 29.5802ZM10.2365 30.3093L9.50094 30.456C9.54302 30.667 9.57085 30.8823 9.58424 31.102L10.3329 31.0564L11.0815 31.0108C11.064 30.7242 11.0276 30.4414 10.972 30.1627L10.2365 30.3093ZM10.3329 31.0564L9.58424 31.102C9.60106 31.3779 9.63037 31.6526 9.67215 31.9263L10.4136 31.8131L11.155 31.6999C11.12 31.4709 11.0955 31.2412 11.0815 31.0108L10.3329 31.0564ZM10.4136 31.8131L9.67215 31.9263C9.70985 32.1732 9.74574 32.423 9.77981 32.6757L10.5231 32.5755L11.2664 32.4752C11.2311 32.214 11.194 31.9556 11.155 31.6999L10.4136 31.8131ZM10.5231 32.5755L9.77981 32.6757C9.85231 33.2134 10.1846 33.6014 10.6086 33.8489L10.9868 33.2012L11.3649 32.5535C11.2962 32.5134 11.2725 32.4847 11.2676 32.4781C11.2652 32.4749 11.2655 32.4746 11.2664 32.4767C11.2672 32.4788 11.2669 32.479 11.2664 32.4752L10.5231 32.5755ZM10.9868 33.2012L10.6086 33.8489C10.6788 33.8899 10.7047 33.9199 10.7114 33.9288C10.7147 33.9331 10.715 33.9344 10.7145 33.9333C10.7139 33.932 10.7144 33.9323 10.7149 33.936L11.4564 33.8235L12.1979 33.711C12.1174 33.1803 11.7848 32.7986 11.3649 32.5535L10.9868 33.2012ZM11.4564 33.8235L10.7149 33.936C10.7853 34.4003 11.0304 34.7804 11.3999 35.0523L11.8444 34.4482L12.2888 33.8441C12.2184 33.7922 12.2048 33.7559 12.1979 33.711L11.4564 33.8235ZM11.8444 34.4482L11.3999 35.0523C11.4084 35.0586 11.4096 35.0608 11.4072 35.0579C11.4046 35.0548 11.4015 35.05 11.3993 35.0448C11.3971 35.0399 11.3978 35.0395 11.3989 35.0462C11.4 35.0534 11.4017 35.0694 11.4002 35.0965L12.1489 35.139L12.8977 35.1816C12.9275 34.6584 12.7352 34.1724 12.2888 33.8441L11.8444 34.4482ZM12.1489 35.139L11.4002 35.0965C11.3737 35.5619 11.4993 36.0188 11.8418 36.3799L12.3859 35.8637L12.93 35.3475C12.9227 35.3397 12.8902 35.3135 12.8977 35.1816L12.1489 35.139ZM12.3859 35.8637L11.8418 36.3799C11.9999 36.5464 12.1474 36.7183 12.2845 36.8954L12.8775 36.4363L13.4706 35.9771C13.3021 35.7596 13.1219 35.5497 12.93 35.3475L12.3859 35.8637ZM12.8775 36.4363L12.2845 36.8954C12.489 37.1595 12.7336 37.3848 13.0142 37.571L13.4289 36.9461L13.8437 36.3213C13.6947 36.2223 13.5717 36.1077 13.4706 35.9771L12.8775 36.4363ZM13.4289 36.9461L13.0142 37.571C13.1597 37.6676 13.277 37.7793 13.3714 37.9061L13.9732 37.4586L14.575 37.011C14.3733 36.7398 14.1278 36.5098 13.8437 36.3213L13.4289 36.9461ZM13.9732 37.4586L13.3714 37.9061C13.5266 38.1149 13.6873 38.3204 13.8534 38.5226L14.433 38.0467L15.0126 37.5708C14.8617 37.3869 14.7158 37.2003 14.575 37.011L13.9732 37.4586ZM14.433 38.0467L13.8534 38.5226C14.0286 38.7361 14.2146 38.9397 14.4113 39.1336L14.9377 38.5993L15.4641 38.0651C15.3049 37.9082 15.1545 37.7435 15.0126 37.5708L14.433 38.0467ZM14.9377 38.5993L14.4113 39.1336C14.6482 39.367 14.9184 39.5572 15.2186 39.7032L15.5466 39.0287L15.8746 38.3542C15.7189 38.2785 15.5832 38.1824 15.4641 38.0651L14.9377 38.5993ZM15.5466 39.0287L15.2186 39.7032C15.4564 39.8188 15.6953 39.9286 15.9354 40.0324L16.2332 39.3441L16.531 38.6558C16.3115 38.5608 16.0928 38.4603 15.8746 38.3542L15.5466 39.0287ZM16.2332 39.3441L15.9354 40.0324C16.1249 40.1144 16.302 40.2107 16.4676 40.321L16.8835 39.6968L17.2993 39.0727C17.0574 38.9115 16.801 38.7726 16.531 38.6558L16.2332 39.3441ZM16.8835 39.6968L16.4676 40.321C16.668 40.4545 16.8683 40.5903 17.0684 40.7284L17.4943 40.111L17.9202 39.4937C17.7135 39.351 17.5065 39.2107 17.2993 39.0727L16.8835 39.6968ZM17.4943 40.111L17.0684 40.7284C17.1656 40.7954 17.2758 40.9078 17.3877 41.0954L18.0319 40.7113L18.676 40.3272C18.478 39.9951 18.2298 39.7073 17.9202 39.4937L17.4943 40.111ZM18.0319 40.7113L17.3877 41.0954C17.625 41.4934 17.978 41.8022 18.4536 41.9227L18.6379 41.1957L18.8221 40.4687C18.7996 40.463 18.7486 40.4488 18.676 40.3272L18.0319 40.7113ZM18.6379 41.1957L18.4536 41.9227C18.8291 42.0179 19.2144 42.0139 19.5973 41.9315L19.4394 41.1983L19.2815 40.4651C19.0939 40.5055 18.9448 40.4998 18.8221 40.4687L18.6379 41.1957ZM19.4394 41.1983L19.5973 41.9315C19.7866 41.8907 19.9227 41.8995 20.0224 41.9271L20.2221 41.2041L20.4217 40.4812C20.0484 40.3781 19.6628 40.383 19.2815 40.4651L19.4394 41.1983ZM20.2221 41.2041L20.0224 41.9271C20.1658 41.9666 20.3137 42.0364 20.4672 42.1466L20.9046 41.5374L21.342 40.9281C21.0585 40.7246 20.7514 40.5722 20.4217 40.4812L20.2221 41.2041ZM20.9046 41.5374L20.4672 42.1466C20.739 42.3417 21.0297 42.4969 21.3387 42.6084L21.5934 41.903L21.8481 41.1975C21.6756 41.1353 21.5072 41.0467 21.342 40.9281L20.9046 41.5374ZM21.5934 41.903L21.3387 42.6084C21.6097 42.7062 21.8856 42.7862 22.1662 42.8483L22.3282 42.116L22.4902 41.3837C22.2726 41.3356 22.0586 41.2735 21.8481 41.1975L21.5934 41.903ZM22.3282 42.116L22.1662 42.8483C22.4266 42.9059 22.6889 42.9576 22.9531 43.0035L23.0814 42.2646L23.2098 41.5256C22.968 41.4836 22.7281 41.4363 22.4902 41.3837L22.3282 42.116ZM23.0814 42.2646L22.9531 43.0035C23.2957 43.063 23.6404 43.0599 23.9829 42.9953L23.8439 42.2583L23.7049 41.5212C23.5368 41.5529 23.3732 41.554 23.2098 41.5256L23.0814 42.2646ZM23.8439 42.2583L23.9829 42.9953C24.185 42.9571 24.3846 42.9419 24.5827 42.9487L24.6084 42.1991L24.6341 41.4496C24.3234 41.4389 24.0133 41.4631 23.7049 41.5212L23.8439 42.2583ZM24.6084 42.1991L24.5827 42.9487C24.8079 42.9564 25.0374 42.9774 25.2714 43.0122L25.3815 42.2703L25.4916 41.5284C25.2037 41.4857 24.9178 41.4593 24.6341 41.4496L24.6084 42.1991ZM25.3815 42.2703L25.2714 43.0122C25.7949 43.0899 26.2581 42.9013 26.6196 42.5667L26.11 42.0163L25.6005 41.466C25.5497 41.513 25.5196 41.5251 25.5125 41.5276C25.5086 41.529 25.5067 41.5292 25.5057 41.5293C25.5047 41.5294 25.5004 41.5297 25.4916 41.5284L25.3815 42.2703ZM26.11 42.0163L26.6196 42.5667C26.813 42.3876 26.9966 42.2488 27.1696 42.1445L26.7825 41.5021L26.3954 40.8597C26.1212 41.025 25.8565 41.229 25.6005 41.466L26.11 42.0163ZM26.7825 41.5021L27.1696 42.1445C27.2776 42.0794 27.3808 42.0524 27.493 42.0535L27.4998 41.3035L27.5067 40.5535C27.1097 40.5499 26.7347 40.6553 26.3954 40.8597L26.7825 41.5021ZM27.4998 41.3035L27.493 42.0535C27.809 42.0564 28.1198 42.0207 28.4237 41.9455L28.2435 41.2174L28.0633 40.4894C27.8848 40.5336 27.6998 40.5553 27.5067 40.5535L27.4998 41.3035ZM28.2435 41.2174L28.4237 41.9455C28.7161 41.8731 28.9982 41.7707 29.2692 41.6387L28.9407 40.9645L28.6123 40.2902C28.436 40.3761 28.2533 40.4424 28.0633 40.4894L28.2435 41.2174ZM28.9407 40.9645L29.2692 41.6387C29.4904 41.531 29.7115 41.4247 29.9323 41.3201L29.6111 40.6424L29.2899 39.9646C29.0642 40.0716 28.8383 40.1801 28.6123 40.2902L28.9407 40.9645ZM29.6111 40.6424L29.9323 41.3201C30.0184 41.2793 30.1427 41.25 30.3301 41.2637L30.3846 40.5156L30.4392 39.7676C30.0418 39.7386 29.6504 39.7938 29.2899 39.9646L29.6111 40.6424ZM30.3846 40.5156L30.3301 41.2637C30.5837 41.2822 30.8486 41.2467 31.099 41.1249C31.3509 41.0023 31.5436 40.8141 31.6836 40.5962L31.0526 40.1907L30.4216 39.7853C30.4142 39.7968 30.4118 39.7978 30.4165 39.7935C30.4187 39.7914 30.4222 39.7885 30.427 39.7852C30.4318 39.7819 30.4372 39.7787 30.4429 39.776C30.4549 39.7701 30.4638 39.7682 30.466 39.7678C30.4676 39.7675 30.4596 39.7691 30.4392 39.7676L30.3846 40.5156ZM31.0526 40.1907L31.6836 40.5962C31.7729 40.4571 31.8642 40.3819 31.9522 40.3382L31.6184 39.6666L31.2846 38.995C30.9239 39.1742 30.638 39.4485 30.4216 39.7853L31.0526 40.1907ZM31.6184 39.6666L31.9522 40.3382C32.2239 40.2032 32.4785 40.0411 32.7152 39.8523L32.2475 39.2659L31.7799 38.6796C31.6264 38.802 31.4616 38.907 31.2846 38.995L31.6184 39.6666ZM32.2475 39.2659L32.7152 39.8523C32.8968 39.7074 33.0836 39.5687 33.2755 39.436L32.8492 38.819L32.4228 38.202C32.2027 38.3541 31.9884 38.5133 31.7799 38.6796L32.2475 39.2659ZM32.8492 38.819L33.2755 39.436C33.4265 39.3317 33.6012 39.2405 33.8035 39.1649L33.5409 38.4624L33.2782 37.7599C32.9702 37.8751 32.6838 38.0216 32.4228 38.202L32.8492 38.819ZM33.5409 38.4624L33.8035 39.1649C34.0868 39.059 34.3262 38.8654 34.481 38.5884C34.6273 38.3267 34.6703 38.0409 34.6672 37.78L33.9172 37.789L33.1673 37.798C33.1684 37.8906 33.1508 37.8939 33.1716 37.8566C33.183 37.8362 33.201 37.813 33.2254 37.7925C33.2492 37.7725 33.2696 37.7631 33.2782 37.7599L33.5409 38.4624ZM33.9172 37.789L34.6672 37.78C34.6666 37.7283 34.6794 37.8245 34.5758 37.9258C34.4787 38.0207 34.3985 38.0024 34.477 38.0014L34.4673 37.2515L34.4575 36.5015C34.1651 36.5053 33.8077 36.579 33.5274 36.8531C33.2403 37.1336 33.1637 37.4961 33.1673 37.798L33.9172 37.789ZM34.4673 37.2515L34.477 38.0014C34.9744 37.9949 35.515 37.8462 35.8577 37.3676L35.2478 36.931L34.638 36.4945C34.6437 36.4866 34.6507 36.4794 34.6573 36.4744C34.6634 36.4696 34.6644 36.4704 34.6558 36.4739C34.636 36.482 34.5771 36.5 34.4575 36.5015L34.4673 37.2515ZM35.2478 36.931L35.8577 37.3676C36.0796 37.0577 36.2178 36.706 36.2817 36.3273L35.5422 36.2025L34.8026 36.0777C34.7731 36.2528 34.7151 36.3868 34.638 36.4945L35.2478 36.931ZM35.5422 36.2025L36.2817 36.3273C36.3279 36.0536 36.3746 35.7877 36.4219 35.5294L35.6841 35.3944L34.9464 35.2594C34.8978 35.5248 34.8499 35.7976 34.8026 36.0777L35.5422 36.2025ZM35.6841 35.3944L36.4219 35.5294C36.4561 35.3423 36.5137 35.1852 36.5892 35.0514L35.9361 34.6826L35.2831 34.3139C35.1184 34.6055 35.008 34.9228 34.9464 35.2594L35.6841 35.3944ZM35.9361 34.6826L36.5892 35.0514C36.7247 34.8115 36.8447 34.564 36.9493 34.309L36.2554 34.0244L35.5615 33.7398C35.4806 33.937 35.3878 34.1283 35.2831 34.3139L35.9361 34.6826ZM36.2554 34.0244L36.9493 34.309C36.9493 34.309 36.9493 34.309 36.9494 34.3089C36.9494 34.3088 36.9495 34.3086 36.9497 34.3082C36.9501 34.3076 36.9509 34.3062 36.9525 34.3039C36.9557 34.2996 36.9629 34.2907 36.9772 34.2779C37.0068 34.2515 37.0643 34.211 37.1666 34.1663L36.8662 33.479L36.5658 32.7918C36.1457 32.9755 35.7537 33.2713 35.5615 33.7398L36.2554 34.0244ZM36.8662 33.479L37.1666 34.1663C37.4015 34.0636 37.6348 33.9122 37.812 33.6855C37.9972 33.4486 38.0891 33.1697 38.0925 32.8784L37.3426 32.8697L36.5926 32.8609C36.5927 32.8544 36.594 32.8378 36.6017 32.8155C36.6094 32.793 36.6203 32.7744 36.6303 32.7617C36.6487 32.7381 36.6453 32.7571 36.5658 32.7918L36.8662 33.479ZM37.3426 32.8697L38.0925 32.8784C38.0943 32.7307 38.1285 32.6081 38.1913 32.4968L37.5381 32.1282L36.885 31.7596C36.6933 32.0993 36.5972 32.4709 36.5926 32.8609L37.3426 32.8697ZM37.5381 32.1282L38.1913 32.4968C38.3913 32.1424 38.4782 31.7533 38.4531 31.3482L37.7046 31.3944L36.956 31.4406C36.9635 31.563 36.9395 31.6631 36.885 31.7596L37.5381 32.1282ZM37.7046 31.3944L38.4531 31.3482C38.4426 31.178 38.4638 31.0244 38.5127 30.8812L37.8029 30.639L37.0931 30.3968C36.9783 30.7333 36.9339 31.0834 36.956 31.4406L37.7046 31.3944ZM37.8029 30.639L38.5127 30.8812C38.6679 30.4264 38.6092 29.9702 38.4145 29.5581L37.7364 29.8786L37.0583 30.1991C37.116 30.3211 37.1016 30.3718 37.0931 30.3968L37.8029 30.639ZM37.7364 29.8786L38.4145 29.5581C38.4144 29.5579 38.4224 29.575 38.4256 29.6068C38.4289 29.6403 38.4255 29.6759 38.4159 29.7081C38.3973 29.7698 38.373 29.7667 38.439 29.7119L37.9594 29.1352L37.4799 28.5586C37.271 28.7323 37.072 28.9674 36.9791 29.277C36.8812 29.6036 36.928 29.9234 37.0583 30.1991L37.7364 29.8786ZM37.9594 29.1352L38.439 29.7119C38.6519 29.5349 38.8693 29.2766 38.9371 28.9228C39.0086 28.5497 38.886 28.2206 38.7113 27.9737L38.099 28.4068L37.4867 28.8399C37.492 28.8473 37.4791 28.8315 37.4686 28.7928C37.4572 28.7507 37.4531 28.697 37.4639 28.6405C37.4852 28.5296 37.5419 28.507 37.4799 28.5586L37.9594 29.1352ZM38.099 28.4068L38.7113 27.9737C38.6647 27.9077 38.6514 27.8672 38.6476 27.8513C38.6447 27.8392 38.6453 27.8342 38.6472 27.8262L37.9192 27.6459L37.1912 27.4656C37.0654 27.9736 37.2094 28.4479 37.4867 28.8399L38.099 28.4068ZM37.9192 27.6459L38.6472 27.8262C38.7225 27.5225 38.7632 27.2153 38.7686 26.9055L38.0187 26.8926L37.2688 26.8797C37.2655 27.074 37.2399 27.269 37.1912 27.4656L37.9192 27.6459ZM38.0187 26.8926L38.7686 26.9055C38.7765 26.4466 38.6047 26.0385 38.3244 25.6982L37.7455 26.175L37.1666 26.6518C37.2592 26.7642 37.2696 26.8346 37.2688 26.8797L38.0187 26.8926ZM37.7455 26.175L38.3244 25.6982C38.3094 25.6799 38.303 25.6685 38.3009 25.6642C38.2989 25.6603 38.3001 25.6617 38.3013 25.6672C38.3024 25.6729 38.3025 25.6777 38.3024 25.6795C38.3023 25.681 38.3024 25.6756 38.3067 25.662L37.5913 25.4368L36.8759 25.2116C36.7113 25.7343 36.829 26.2419 37.1666 26.6518L37.7455 26.175ZM37.5913 25.4368L38.3067 25.662C38.4199 25.3024 38.4594 24.9334 38.4089 24.5635L37.6658 24.665L36.9227 24.7664C36.9401 24.8942 36.93 25.0397 36.8759 25.2116L37.5913 25.4368ZM37.6658 24.665L38.4089 24.5635C38.3871 24.4036 38.3912 24.2233 38.43 24.0182L37.6932 23.8785L36.9563 23.7388C36.8907 24.0846 36.8766 24.4287 36.9227 24.7664L37.6658 24.665ZM37.6932 23.8785L38.43 24.0182C38.4821 23.7437 38.459 23.4556 38.3319 23.1831C38.2083 22.918 38.0106 22.7197 37.7972 22.5732L37.3727 23.1915L36.9482 23.8098C37.0007 23.8458 36.9894 23.8533 36.9725 23.8171C36.9643 23.7994 36.9589 23.7797 36.9569 23.7613C36.9549 23.7436 36.957 23.735 36.9563 23.7388L37.6932 23.8785ZM37.3727 23.1915L37.7972 22.5732C37.6347 22.4616 37.6086 22.3857 37.6028 22.3639L36.878 22.5565L36.1531 22.7492C36.2753 23.209 36.579 23.5563 36.9482 23.8098L37.3727 23.1915ZM36.878 22.5565L37.6028 22.3639C37.5567 22.1902 37.5319 22.001 37.5317 21.7938L36.7817 21.7943L36.0317 21.7948C36.032 22.1223 36.0713 22.4413 36.1531 22.7492L36.878 22.5565ZM36.7817 21.7943L37.5317 21.7938C37.5315 21.4801 37.5024 21.172 37.4434 20.8702L36.7073 21.0141L35.9713 21.1581C36.0111 21.3618 36.0316 21.5738 36.0317 21.7948L36.7817 21.7943ZM36.7073 21.0141L37.4434 20.8702C37.3766 20.5286 37.2508 20.2081 37.0669 19.9135L36.4307 20.3106L35.7944 20.7077C35.8805 20.8456 35.9392 20.9942 35.9713 21.1581L36.7073 21.0141ZM36.4307 20.3106L37.0669 19.9135C36.8929 19.6348 36.6794 19.3829 36.4304 19.1577L35.9272 19.7138L35.424 20.2699C35.5763 20.4078 35.6984 20.5538 35.7944 20.7077L36.4307 20.3106ZM35.9272 19.7138L36.4304 19.1577C36.2633 19.0065 36.121 18.8503 36.0013 18.6898L35.4 19.138L34.7987 19.5862C34.9806 19.8303 35.1898 20.058 35.424 20.2699L35.9272 19.7138ZM35.4 19.138L36.0013 18.6898C35.8476 18.4836 35.6923 18.2794 35.5354 18.077L34.9427 18.5366L34.3501 18.9962C34.5012 19.1911 34.6507 19.3877 34.7987 19.5862L35.4 19.138ZM34.9427 18.5366L35.5354 18.077C35.543 18.0868 35.5424 18.094 35.5405 18.0809C35.5377 18.0619 35.5348 18.0091 35.5576 17.9106L34.827 17.7412L34.0964 17.5718C33.9877 18.0404 34.013 18.5616 34.3501 18.9962L34.9427 18.5366ZM34.827 17.7412L35.5576 17.9106C35.6231 17.6285 35.6288 17.2776 35.4362 16.9513C35.244 16.6257 34.9348 16.4609 34.6574 16.3809L34.4494 17.1014L34.2413 17.822C34.2926 17.8368 34.2107 17.8261 34.1444 17.7138C34.0777 17.6007 34.1079 17.5223 34.0964 17.5718L34.827 17.7412ZM34.4494 17.1014L34.6574 16.3809C34.565 16.3542 34.5329 16.3289 34.5305 16.327C34.5301 16.3266 34.535 16.3307 34.5412 16.3399C34.5475 16.3491 34.5514 16.3581 34.5533 16.3639L33.839 16.5927L33.1248 16.8214C33.3037 17.3799 33.7612 17.6833 34.2413 17.822L34.4494 17.1014ZM33.839 16.5927L34.5533 16.3639C34.4527 16.0499 34.3089 15.7574 34.1214 15.4898L33.5072 15.9203L32.893 16.3507C32.9914 16.4911 33.0689 16.6469 33.1248 16.8214L33.839 16.5927ZM33.5072 15.9203L34.1214 15.4898C34.0263 15.3542 33.9512 15.2001 33.8978 15.0229L33.1797 15.2393L32.4616 15.4558C32.5589 15.7785 32.7021 16.0783 32.893 16.3507L33.5072 15.9203ZM33.1797 15.2393L33.8978 15.0229C33.7822 14.6393 33.5699 14.308 33.2673 14.0447L32.7749 14.6105L32.2826 15.1762C32.369 15.2514 32.4265 15.3394 32.4616 15.4558L33.1797 15.2393ZM32.7749 14.6105L33.2673 14.0447C33.2003 13.9864 33.1519 13.9125 33.1248 13.7926L32.3932 13.9576L31.6616 14.1226C31.7545 14.5347 31.9606 14.896 32.2826 15.1762L32.7749 14.6105ZM32.3932 13.9576L33.1248 13.7926C33.0264 13.3559 32.7905 12.9853 32.423 12.7203L31.9842 13.3286L31.5455 13.9369C31.6034 13.9786 31.6401 14.0274 31.6616 14.1226L32.3932 13.9576ZM31.9842 13.3286L32.423 12.7203C32.4047 12.7071 32.3754 12.6889 32.3637 12.5799L31.618 12.6602L30.8723 12.7406C30.9235 13.2159 31.1384 13.6432 31.5455 13.9369L31.9842 13.3286ZM31.618 12.6602L32.3637 12.5799C32.3314 12.2806 32.207 11.9823 31.9512 11.7547C31.7082 11.5384 31.4138 11.4459 31.1459 11.4117L31.051 12.1557L30.9561 12.8996C31.0348 12.9097 31.0081 12.9233 30.9541 12.8752C30.9263 12.8505 30.9035 12.8198 30.8884 12.7883C30.8742 12.7585 30.8722 12.7395 30.8723 12.7406L31.618 12.6602ZM31.051 12.1557L31.1459 11.4117C31.0912 11.4047 31.1777 11.4027 31.2614 11.5083C31.3439 11.6125 31.3218 11.6931 31.3275 11.6326L30.5808 11.5624L29.8341 11.4922C29.8068 11.783 29.8465 12.1381 30.0858 12.4401C30.3263 12.7434 30.6644 12.8624 30.9561 12.8996L31.051 12.1557ZM30.5808 11.5624L31.3275 11.6326C31.373 11.1481 31.2816 10.6215 30.8771 10.2315L30.3566 10.7715L29.8361 11.3115C29.8241 11.3 29.8237 11.2909 29.8279 11.3057C29.8339 11.3267 29.8443 11.3836 29.8341 11.4922L30.5808 11.5624ZM30.3566 10.7715L30.8771 10.2315C30.5202 9.88756 30.0504 9.75467 29.5862 9.72868L29.5443 10.4775L29.5024 11.2263C29.7562 11.2406 29.828 11.3037 29.8361 11.3115L30.3566 10.7715ZM29.5443 10.4775L29.5862 9.72868C29.4745 9.72243 29.4247 9.70305 29.4129 9.69739C29.4082 9.69517 29.4123 9.69651 29.4206 9.70377C29.4293 9.71131 29.4373 9.72078 29.4431 9.73023L28.8061 10.1261L28.1691 10.5219C28.4805 11.0231 29.0106 11.1988 29.5024 11.2263L29.5443 10.4775ZM28.8061 10.1261L29.4431 9.73023C29.3396 9.56357 29.2495 9.37723 29.1743 9.16912L28.4689 9.42382L27.7635 9.67853C27.8717 9.97834 28.0064 10.2602 28.1691 10.5219L28.8061 10.1261ZM28.4689 9.42382L29.1743 9.16912C29.089 8.93282 29.0103 8.68697 28.9383 8.43141L28.2164 8.6348L27.4945 8.83819C27.5758 9.12674 27.6654 9.4069 27.7635 9.67853L28.4689 9.42382ZM28.2164 8.6348L28.9383 8.43141C28.7986 7.93565 28.4651 7.56273 27.9793 7.3774L27.712 8.07812L27.4446 8.77885C27.4617 8.78536 27.4706 8.79072 27.4741 8.79305C27.4773 8.7952 27.4777 8.79589 27.477 8.79519C27.4764 8.79451 27.4777 8.79565 27.4804 8.80074C27.4833 8.80612 27.4887 8.81775 27.4945 8.83819L28.2164 8.6348ZM27.712 8.07812L27.9793 7.3774C27.831 7.32079 27.7382 7.24795 27.6742 7.16777L27.088 7.63554L26.5017 8.10332C26.7505 8.41511 27.0737 8.63732 27.4446 8.77885L27.712 8.07812ZM27.088 7.63554L27.6742 7.16777C27.4849 6.93045 27.272 6.71481 27.0365 6.52129L26.5603 7.10078L26.0842 7.68026C26.2394 7.80779 26.3783 7.94866 26.5017 8.10332L27.088 7.63554ZM26.5603 7.10078L27.0365 6.52129C26.8251 6.34766 26.6068 6.18284 26.3814 6.02684L25.9545 6.6435L25.5277 7.26017C25.7193 7.39281 25.9048 7.53284 26.0842 7.68026L26.5603 7.10078ZM25.9545 6.6435L26.3814 6.02684C26.3165 5.9819 26.2807 5.94742 26.2629 5.92705C26.246 5.9076 26.25 5.90628 26.2566 5.92443L25.5522 6.18198L24.8478 6.43952C24.98 6.80113 25.2475 7.0662 25.5277 7.26017L25.9545 6.6435ZM25.5522 6.18198L26.2566 5.92443C26.2247 5.83708 26.1628 5.6768 26.053 5.54157C26.0049 5.48232 25.854 5.30796 25.5856 5.25329C25.2385 5.18258 24.9762 5.35617 24.8473 5.49962L25.4052 6.00084L25.9631 6.50207C25.8534 6.62422 25.6116 6.78938 25.2862 6.72311C25.0397 6.67289 24.9119 6.51585 24.8883 6.48679C24.8276 6.41193 24.82 6.36352 24.8478 6.43952L25.5522 6.18198ZM25.4052 6.00084L24.8473 5.49962C25.0332 5.29264 25.2616 5.26888 25.3463 5.26746C25.435 5.26597 25.4918 5.28435 25.4929 5.28467C25.5004 5.28691 25.4638 5.27521 25.364 5.22144L25.0081 5.88161L24.6522 6.54177C24.7789 6.61009 24.9217 6.67932 25.0615 6.7213C25.1288 6.7415 25.24 6.76945 25.3714 6.76725C25.4988 6.76512 25.758 6.73035 25.9631 6.50207L25.4052 6.00084ZM23.634 40.9352L23.616 40.1854C23.4583 40.1892 23.3021 40.1648 23.1432 40.1089L22.8944 40.8164L22.6456 41.5239C22.9714 41.6385 23.3083 41.6933 23.652 41.685L23.634 40.9352ZM22.8944 40.8164L23.1432 40.1089C22.6537 39.9367 22.1703 40.0309 21.7528 40.2606L22.1144 40.9177L22.476 41.5748C22.5493 41.5344 22.5943 41.5241 22.6142 41.5215C22.6303 41.5195 22.6374 41.5211 22.6456 41.5239L22.8944 40.8164ZM22.1144 40.9177L21.7528 40.2606C21.7256 40.2756 21.7098 40.2808 21.7049 40.2822C21.7007 40.2834 21.7065 40.2812 21.7203 40.2813C21.7346 40.2814 21.7499 40.2839 21.7634 40.2883C21.7763 40.2925 21.781 40.2963 21.7772 40.2937L21.3553 40.9138L20.9334 41.5339C21.1591 41.6874 21.4231 41.7798 21.7125 41.7813C21.9951 41.7828 22.253 41.6975 22.476 41.5748L22.1144 40.9177ZM21.3553 40.9138L21.7772 40.2937C21.5199 40.1186 21.2577 39.9666 20.9905 39.8391L20.6675 40.5159L20.3445 41.1928C20.5375 41.2849 20.7339 41.3981 20.9334 41.5339L21.3553 40.9138ZM20.6675 40.5159L20.9905 39.8391C20.6959 39.6985 20.3867 39.602 20.0649 39.5506L19.9466 40.2912L19.8282 41.0318C20.0074 41.0604 20.1788 41.1138 20.3445 41.1928L20.6675 40.5159ZM19.9466 40.2912L20.0649 39.5506C19.9088 39.5256 19.7652 39.4734 19.6294 39.392L19.2441 40.0355L18.8589 40.679C19.1586 40.8585 19.4833 40.9766 19.8282 41.0318L19.9466 40.2912ZM19.2441 40.0355L19.6294 39.392C19.252 39.1661 18.8301 39.095 18.4034 39.1376L18.478 39.8839L18.5526 40.6302C18.7119 40.6143 18.8007 40.6442 18.8589 40.679L19.2441 40.0355ZM18.478 39.8839L18.4034 39.1376C18.2913 39.1488 18.2616 39.1233 18.2405 39.1046L17.743 39.6658L17.2455 40.227C17.6184 40.5577 18.0787 40.6775 18.5526 40.6302L18.478 39.8839ZM17.743 39.6658L18.2405 39.1046C18.0863 38.9679 17.9449 38.8114 17.8167 38.6336L17.2084 39.0723L16.6001 39.511C16.7906 39.7752 17.0057 40.0145 17.2455 40.227L17.743 39.6658ZM17.2084 39.0723L17.8167 38.6336C17.5663 38.2863 17.2285 38.0359 16.8167 37.9074L16.5933 38.6234L16.3699 39.3393C16.4595 39.3673 16.5318 39.4162 16.6001 39.511L17.2084 39.0723ZM16.5933 38.6234L16.8167 37.9074C16.809 37.905 16.8076 37.9037 16.81 37.9051C16.8125 37.9067 16.8149 37.9087 16.8162 37.91C16.8196 37.9136 16.8041 37.8999 16.7854 37.8443L16.0748 38.0843L15.3643 38.3243C15.5245 38.7989 15.8577 39.1795 16.3699 39.3393L16.5933 38.6234ZM16.0748 38.0843L16.7854 37.8443C16.695 37.5767 16.5312 37.3263 16.2723 37.1476C16.0189 36.9726 15.7334 36.9071 15.4652 36.8999L15.4453 37.6497L15.4253 38.3994C15.4818 38.4009 15.4637 38.4121 15.4201 38.382C15.3994 38.3677 15.383 38.3507 15.3721 38.3354C15.3619 38.3212 15.3611 38.315 15.3643 38.3243L16.0748 38.0843ZM15.4453 37.6497L15.4652 36.8999C15.3952 36.8981 15.3941 36.8846 15.4237 36.9023C15.4386 36.9112 15.454 36.9238 15.4669 36.9388C15.4729 36.9458 15.4772 36.952 15.4801 36.9568C15.483 36.9615 15.4841 36.9641 15.4841 36.964L14.7958 37.2621L14.1076 37.5602C14.219 37.8172 14.4007 38.0386 14.6549 38.1903C14.901 38.3372 15.1706 38.3926 15.4253 38.3994L15.4453 37.6497ZM14.7958 37.2621L15.4841 36.964C15.36 36.6776 15.2165 36.409 15.0525 36.16L14.4262 36.5725L13.7998 36.9851C13.9123 37.1559 14.0153 37.347 14.1076 37.5602L14.7958 37.2621ZM14.4262 36.5725L15.0525 36.16C14.84 35.8374 14.5537 35.5863 14.2133 35.4037L13.8589 36.0647L13.5044 36.7256C13.6439 36.8004 13.7358 36.8878 13.7998 36.9851L14.4262 36.5725ZM13.8589 36.0647L14.2133 35.4037C14.0949 35.3402 14.027 35.2669 13.9822 35.1825L13.3197 35.5342L12.6573 35.8859C12.8514 36.2514 13.1429 36.5318 13.5044 36.7256L13.8589 36.0647ZM13.3197 35.5342L13.9822 35.1825C13.9293 35.0829 13.8923 34.9499 13.8936 34.7624L13.1436 34.7572L12.3936 34.7521C12.3909 35.1506 12.4713 35.5356 12.6573 35.8859L13.3197 35.5342ZM13.1436 34.7572L13.8936 34.7624C13.8954 34.4968 13.8344 34.225 13.6798 33.9787C13.5261 33.7337 13.3094 33.5613 13.075 33.4449L12.7416 34.1167L12.4082 34.7885C12.4269 34.7978 12.4321 34.803 12.4295 34.8007C12.4263 34.798 12.418 34.7899 12.4093 34.7761C12.4006 34.7622 12.3959 34.7494 12.3938 34.7415C12.392 34.7344 12.3937 34.7367 12.3936 34.7521L13.1436 34.7572ZM12.7416 34.1167L13.075 33.4449C12.9352 33.3755 12.9013 33.3147 12.8877 33.2816L12.1934 33.5651L11.499 33.8487C11.6764 34.283 12.008 34.5899 12.4082 34.7885L12.7416 34.1167ZM12.1934 33.5651L12.8877 33.2816C12.8557 33.2033 12.8371 33.0921 12.8697 32.9211L12.133 32.7805L11.3963 32.64C11.3185 33.0476 11.3401 33.4595 11.499 33.8487L12.1934 33.5651ZM12.133 32.7805L12.8697 32.9211C12.9432 32.5358 12.9391 32.1466 12.8215 31.7741L12.1063 32L11.3911 32.2258C11.4194 32.3155 11.4332 32.4466 11.3963 32.64L12.133 32.7805ZM12.1063 32L12.8215 31.7741C12.7332 31.4943 12.6164 31.2236 12.4724 30.9624L11.8156 31.3244L11.1587 31.6864C11.2565 31.8638 11.3336 32.0435 11.3911 32.2258L12.1063 32ZM11.8156 31.3244L12.4724 30.9624C12.4014 30.8336 12.362 30.7024 12.3501 30.5631L11.6028 30.627L10.8555 30.691C10.8856 31.0429 10.988 31.3767 11.1587 31.6864L11.8156 31.3244ZM11.6028 30.627L12.3501 30.5631C12.3198 30.2095 12.2156 29.8732 12.0462 29.5587L11.3858 29.9143L10.7255 30.2699C10.8034 30.4145 10.8437 30.5533 10.8555 30.691L11.6028 30.627ZM11.3858 29.9143L12.0462 29.5587C11.9689 29.4152 11.9284 29.2759 11.9167 29.136L11.1693 29.1986L10.4219 29.2612C10.4517 29.6164 10.5555 29.9542 10.7255 30.2699L11.3858 29.9143ZM11.1693 29.1986L11.9167 29.136C11.9011 28.9502 11.9084 28.7635 11.9391 28.5743L11.1988 28.4541L10.4584 28.334C10.4084 28.6422 10.396 28.9518 10.4219 29.2612L11.1693 29.1986ZM11.1988 28.4541L11.9391 28.5743C12.0216 28.0659 11.8424 27.6091 11.5545 27.2389L10.9624 27.6993L10.3704 28.1597C10.4262 28.2315 10.4468 28.2794 10.4542 28.303C10.4604 28.3228 10.4591 28.3301 10.4584 28.334L11.1988 28.4541ZM10.9624 27.6993L11.5545 27.2389C11.5475 27.23 11.5626 27.2465 11.5757 27.2887C11.5902 27.3353 11.5968 27.3965 11.5849 27.4618C11.5617 27.5886 11.4939 27.6155 11.563 27.5602L11.0947 26.9744L10.6263 26.3886C10.4094 26.5621 10.1764 26.8242 10.1092 27.1926C10.0378 27.5841 10.1837 27.9197 10.3704 28.1597L10.9624 27.6993ZM11.0947 26.9744L11.563 27.5602C11.7742 27.3914 11.9791 27.1627 12.0821 26.8592C12.192 26.5354 12.1571 26.2112 12.029 25.9273L11.3454 26.2357L10.6617 26.5442C10.6597 26.5397 10.6509 26.518 10.6484 26.4822C10.6458 26.445 10.6512 26.4081 10.6617 26.3772C10.6812 26.3199 10.7012 26.3287 10.6263 26.3886L11.0947 26.9744ZM11.3454 26.2357L12.029 25.9273C11.9223 25.6908 11.8309 25.4507 11.7547 25.2069L11.0389 25.4308L10.3231 25.6548C10.4176 25.9568 10.5305 26.2533 10.6617 26.5442L11.3454 26.2357ZM11.0389 25.4308L11.7547 25.2069C11.7055 25.0497 11.7067 24.9301 11.7314 24.8311L11.0038 24.6493L10.2762 24.4675C10.1769 24.8647 10.2015 25.2662 10.3231 25.6548L11.0389 25.4308ZM11.0038 24.6493L11.7314 24.8311C11.7687 24.682 11.8362 24.5356 11.9425 24.3896L11.3362 23.9482L10.7299 23.5067C10.517 23.7992 10.3629 24.1202 10.2762 24.4675L11.0038 24.6493ZM11.3362 23.9482L11.9425 24.3896C12.1079 24.1625 12.2659 23.9361 12.4164 23.7105L11.7925 23.2943L11.1686 22.878C11.0299 23.0859 10.8837 23.2955 10.7299 23.5067L11.3362 23.9482ZM11.7925 23.2943L12.4164 23.7105C12.6475 23.3641 12.7595 22.9724 12.7534 22.5576L12.0035 22.5686L11.2536 22.5796C11.2553 22.6988 11.2267 22.791 11.1686 22.878L11.7925 23.2943ZM12.0035 22.5686L12.7534 22.5576C12.7527 22.5105 12.7591 22.4827 12.8133 22.432L12.301 21.8842L11.7887 21.3365C11.4384 21.664 11.2464 22.0924 11.2536 22.5796L12.0035 22.5686ZM12.301 21.8842L12.8133 22.432C13.2435 22.0296 13.3496 21.4906 13.2208 20.9649L12.4923 21.1433L11.7639 21.3218C11.7712 21.3515 11.7724 21.369 11.7725 21.3758C11.7727 21.3821 11.7719 21.379 11.7743 21.3696C11.7755 21.3651 11.7772 21.36 11.7794 21.3547C11.7816 21.3495 11.7841 21.3448 11.7864 21.341C11.7913 21.3329 11.7938 21.3317 11.7887 21.3365L12.301 21.8842ZM12.4923 21.1433L13.2208 20.9649C13.2117 20.9275 13.2291 20.9656 13.1997 21.0351C13.1863 21.0669 13.1689 21.0902 13.1556 21.1042C13.1433 21.117 13.1393 21.1169 13.1536 21.1088L12.7823 20.4572L12.411 19.8055C12.1692 19.9433 11.9446 20.1515 11.818 20.4513C11.692 20.7496 11.6984 21.0544 11.7639 21.3218L12.4923 21.1433ZM12.7823 20.4572L13.1536 21.1088C13.4699 20.9286 13.7525 20.7204 13.992 20.4799L13.4606 19.9506L12.9292 19.4214C12.8002 19.5509 12.6306 19.6804 12.411 19.8055L12.7823 20.4572ZM13.4606 19.9506L13.992 20.4799C14.2488 20.222 14.4447 19.9216 14.57 19.5815L13.8662 19.3223L13.1624 19.063C13.1154 19.1908 13.0409 19.3092 12.9292 19.4214L13.4606 19.9506ZM13.8662 19.3223L14.57 19.5815C14.699 19.2313 14.7395 18.8575 14.7137 18.4754L13.9654 18.5259L13.2171 18.5764C13.2314 18.7883 13.2058 18.9454 13.1624 19.063L13.8662 19.3223ZM13.9654 18.5259L14.7137 18.4754C14.6977 18.2391 14.7124 18.0299 14.7514 17.8442L14.0175 17.6898L13.2836 17.5354C13.2131 17.8706 13.193 18.2188 13.2171 18.5764L13.9654 18.5259ZM14.0175 17.6898L14.7514 17.8442C14.767 17.77 14.7974 17.719 14.8711 17.6654L14.4298 17.059L13.9885 16.4525C13.622 16.7192 13.3775 17.0888 13.2836 17.5354L14.0175 17.6898ZM14.4298 17.059L14.8711 17.6654C15.0483 17.5364 15.2494 17.4187 15.4766 17.3136L15.1619 16.6329L14.8472 15.9521C14.5384 16.0948 14.2514 16.2612 13.9885 16.4525L14.4298 17.059ZM15.1619 16.6329L15.4766 17.3136C15.7227 17.1999 15.9481 17.0224 16.103 16.7644C16.2566 16.5085 16.3076 16.2288 16.2995 15.9637L15.5499 15.9866L14.8002 16.0095C14.8009 16.0312 14.7987 16.0373 14.7999 16.0318C14.8014 16.0253 14.806 16.0105 14.8169 15.9923C14.8279 15.974 14.8404 15.9605 14.8499 15.9524C14.8586 15.945 14.86 15.9462 14.8472 15.9521L15.1619 16.6329ZM15.5499 15.9866L16.2995 15.9637C16.2931 15.7513 16.3284 15.6042 16.3774 15.5004L15.6992 15.1801L15.021 14.8599C14.8522 15.2174 14.788 15.608 14.8002 16.0095L15.5499 15.9866ZM15.6992 15.1801L16.3774 15.5004C16.3959 15.4612 16.4325 15.4075 16.5593 15.3539L16.2674 14.6631L15.9755 13.9722C15.5626 14.1467 15.2204 14.4377 15.021 14.8599L15.6992 15.1801ZM16.2674 14.6631L16.5593 15.3539C16.9836 15.1747 17.3286 14.8676 17.5126 14.4215L16.8193 14.1354L16.1261 13.8493C16.1139 13.8788 16.091 13.9234 15.9755 13.9722L16.2674 14.6631ZM16.8193 14.1354L17.5126 14.4215C17.6211 14.1587 17.7169 13.8859 17.8004 13.6037L17.0811 13.3911L16.3619 13.1784C16.2925 13.4132 16.2138 13.6368 16.1261 13.8493L16.8193 14.1354ZM17.0811 13.3911L17.8004 13.6037C17.7999 13.6051 17.7966 13.6153 17.7872 13.6295C17.7777 13.6439 17.7665 13.6555 17.7569 13.6631C17.7384 13.6779 17.7473 13.6617 17.8235 13.6472L17.6831 12.9104L17.5428 12.1737C17.017 12.2738 16.5375 12.5845 16.3619 13.1784L17.0811 13.3911ZM17.6831 12.9104L17.8235 13.6472C18.285 13.5593 18.7298 13.3376 19.006 12.8966L18.3703 12.4985L17.7347 12.1005C17.7338 12.1019 17.733 12.1029 17.7313 12.1045C17.7295 12.1063 17.7242 12.111 17.713 12.1177C17.6897 12.1317 17.6385 12.1554 17.5428 12.1737L17.6831 12.9104ZM18.3703 12.4985L19.006 12.8966C19.1303 12.698 19.2608 12.5043 19.3974 12.3155L18.7898 11.8758L18.1823 11.4361C18.0259 11.6521 17.8767 11.8736 17.7347 12.1005L18.3703 12.4985ZM18.7898 11.8758L19.3974 12.3155C19.5106 12.1591 19.6403 12.0169 19.7873 11.8882L19.2933 11.3238L18.7994 10.7595C18.568 10.962 18.362 11.1877 18.1823 11.4361L18.7898 11.8758ZM19.2933 11.3238L19.7873 11.8882C19.97 11.7283 20.1556 11.5714 20.344 11.4176L19.8696 10.8366L19.3952 10.2557C19.1936 10.4203 18.995 10.5883 18.7994 10.7595L19.2933 11.3238ZM19.8696 10.8366L20.344 11.4176C20.7926 11.0512 20.9088 10.5149 20.8833 10.0261L20.1343 10.0651L19.3853 10.1042C19.391 10.214 19.3776 10.2664 19.3726 10.281C19.3705 10.2871 19.3707 10.2844 19.3757 10.2771C19.3809 10.2693 19.388 10.2617 19.3952 10.2557L19.8696 10.8366ZM20.1343 10.0651L20.8833 10.0261C20.8808 9.97828 20.8832 9.94696 20.8858 9.92916C20.8884 9.91175 20.8907 9.91031 20.8867 9.91937C20.8823 9.92939 20.8731 9.94565 20.8575 9.96281C20.8418 9.97996 20.8265 9.99055 20.8172 9.99576L20.4531 9.34006L20.089 8.68436C19.52 9.00026 19.3579 9.57876 19.3853 10.1042L20.1343 10.0651ZM20.4531 9.34006L20.8172 9.99576C20.9817 9.90439 21.1767 9.82862 21.4076 9.77342L21.2332 9.04399L21.0587 8.31455C20.7116 8.39756 20.3865 8.51918 20.089 8.68436L20.4531 9.34006ZM21.2332 9.04399L21.4076 9.77342C21.862 9.66477 22.2605 9.41167 22.5085 8.98294L21.8593 8.60738L21.2101 8.23182C21.2013 8.24702 21.1824 8.28499 21.0587 8.31455L21.2332 9.04399ZM21.8593 8.60738L22.5085 8.98294C22.5951 8.83323 22.7 8.70773 22.8241 8.60217L22.3381 8.03095L21.8521 7.45973C21.5946 7.6788 21.3803 7.93759 21.2101 8.23182L21.8593 8.60738ZM22.3381 8.03095L22.8241 8.60217C23.158 8.31807 23.3587 7.94073 23.4579 7.52607L22.7285 7.35159L21.9991 7.17712C21.9592 7.34363 21.8997 7.4192 21.8521 7.45973L22.3381 8.03095ZM22.7285 7.35159L23.4579 7.52607C23.4942 7.37444 23.5459 7.32609 23.5756 7.30469L23.1368 6.6964L22.6981 6.08811C22.3223 6.35913 22.1018 6.74757 21.9991 7.17712L22.7285 7.35159ZM23.1368 6.6964L23.5756 7.30469C23.6366 7.26064 23.6761 7.24198 23.6944 7.23504C23.7112 7.22868 23.7017 7.23527 23.6722 7.23438L23.6947 6.48472L23.7172 5.73506C23.3207 5.72314 22.9736 5.88943 22.6981 6.08811L23.1368 6.6964ZM23.6947 6.48472L23.6722 7.23438C23.6459 7.23359 23.6228 7.22923 23.6043 7.22364C23.5863 7.21819 23.5757 7.21251 23.5729 7.21087C23.5703 7.20937 23.575 7.21174 23.5865 7.22156C23.598 7.23139 23.6148 7.24738 23.6364 7.27183L24.1984 6.77519L24.7605 6.27856C24.5235 6.01042 24.1764 5.74885 23.7172 5.73506L23.6947 6.48472ZM24.1984 6.77519L23.6364 7.27183C23.8399 7.50209 24.0657 7.70631 24.3134 7.8831L24.7491 7.27257L25.1847 6.66205C25.0316 6.55279 24.8902 6.42543 24.7605 6.27856L24.1984 6.77519ZM24.7491 7.27257L24.3134 7.8831C24.5074 8.02151 24.7014 8.16455 24.8953 8.31222L25.3497 7.71553L25.8041 7.11883C25.598 6.96194 25.3916 6.80967 25.1847 6.66205L24.7491 7.27257ZM25.3497 7.71553L24.8953 8.31222C25.0064 8.39681 25.0984 8.50369 25.1722 8.64197L25.8338 8.28863L26.4953 7.9353C26.3237 7.614 26.0929 7.3388 25.8041 7.11883L25.3497 7.71553ZM25.8338 8.28863L25.1722 8.64197C25.3862 9.04261 25.7238 9.32396 26.1411 9.4817L26.4063 8.78014L26.6715 8.07858C26.5709 8.04055 26.5268 7.99423 26.4953 7.9353L25.8338 8.28863ZM26.4063 8.78014L26.1411 9.4817C26.3457 9.55902 26.5215 9.65246 26.6725 9.75936L27.1059 9.14727L27.5393 8.53518C27.2754 8.34833 26.9848 8.19702 26.6715 8.07858L26.4063 8.78014ZM27.1059 9.14727L26.6725 9.75936C26.8713 9.90014 27.067 10.045 27.2597 10.1941L27.7185 9.60077L28.1774 9.00748C27.968 8.84558 27.7553 8.68814 27.5393 8.53518L27.1059 9.14727ZM27.7185 9.60077L27.2597 10.1941C27.3937 10.2977 27.5055 10.4192 27.5975 10.5615L28.2272 10.1541L28.8569 9.74661C28.6728 9.46207 28.4454 9.2148 28.1774 9.00748L27.7185 9.60077ZM28.2272 10.1541L27.5975 10.5615C27.7883 10.8563 28.0298 11.1067 28.3171 11.3102L28.7506 10.6982L29.1841 10.0861C29.0498 9.991 28.9423 9.87865 28.8569 9.74661L28.2272 10.1541ZM28.7506 10.6982L28.3171 11.3102C28.4974 11.438 28.6643 11.5762 28.8181 11.725L29.3395 11.1859L29.8609 10.6468C29.6511 10.4439 29.4253 10.257 29.1841 10.0861L28.7506 10.6982ZM29.3395 11.1859L28.8181 11.725C28.9246 11.828 29.0097 11.9514 29.0736 12.1029L29.7647 11.8117L30.4559 11.5205C30.3164 11.1893 30.118 10.8955 29.8609 10.6468L29.3395 11.1859ZM29.7647 11.8117L29.0736 12.1029C29.1783 12.3514 29.286 12.5965 29.3969 12.8382L30.0786 12.5255L30.7603 12.2127C30.6561 11.9855 30.5546 11.7548 30.4559 11.5205L29.7647 11.8117ZM30.0786 12.5255L29.3969 12.8382C29.5328 13.1344 29.7057 13.4062 29.916 13.6506L30.4846 13.1616L31.0532 12.6725C30.9373 12.5377 30.8395 12.3854 30.7603 12.2127L30.0786 12.5255ZM30.4846 13.1616L29.916 13.6506C30.007 13.7565 30.079 13.885 30.1283 14.0465L30.8456 13.8277L31.563 13.6089C31.457 13.2614 31.2883 12.9459 31.0532 12.6725L30.4846 13.1616ZM30.8456 13.8277L30.1283 14.0465C30.2231 14.3574 30.3521 14.6496 30.5173 14.92L31.1573 14.5289L31.7973 14.1379C31.7021 13.9821 31.6234 13.8068 31.563 13.6089L30.8456 13.8277ZM31.1573 14.5289L30.5173 14.92C30.7477 15.2969 31.0932 15.5524 31.4912 15.7099L31.7671 15.0125L32.043 14.3151C31.8883 14.2539 31.8273 14.187 31.7973 14.1379L31.1573 14.5289ZM31.7671 15.0125L31.4912 15.7099C31.5425 15.7302 31.5515 15.7444 31.5454 15.7378C31.543 15.7351 31.5406 15.7315 31.5391 15.7286C31.5377 15.726 31.5393 15.728 31.5415 15.7374L32.2722 15.5686L33.0029 15.3997C32.8804 14.8694 32.5197 14.5037 32.043 14.3151L31.7671 15.0125ZM32.2722 15.5686L31.5415 15.7374C31.632 16.1292 31.8193 16.478 32.1062 16.7625L32.6343 16.23L33.1625 15.6976C33.0873 15.623 33.0332 15.5308 33.0029 15.3997L32.2722 15.5686ZM32.6343 16.23L32.1062 16.7625C32.2222 16.8776 32.3108 17.006 32.3757 17.1511L33.0604 16.8451L33.7451 16.539C33.604 16.2232 33.4086 15.9416 33.1625 15.6976L32.6343 16.23ZM33.0604 16.8451L32.3757 17.1511C32.4967 17.4218 32.6403 17.6793 32.8064 17.9229L33.426 17.5002L34.0456 17.0776C33.9302 16.9085 33.8301 16.7292 33.7451 16.539L33.0604 16.8451ZM33.426 17.5002L32.8064 17.9229C32.9064 18.0694 32.9849 18.2292 33.0421 18.4047L33.7552 18.1725L34.4684 17.9403C34.368 17.6321 34.2271 17.3438 34.0456 17.0776L33.426 17.5002ZM33.7552 18.1725L33.0421 18.4047C33.1304 18.6759 33.2344 18.9386 33.3543 19.1926L34.0325 18.8723L34.7107 18.5521C34.6184 18.3566 34.5375 18.1528 34.4684 17.9403L33.7552 18.1725ZM34.0325 18.8723L33.3543 19.1926C33.534 19.5731 33.8258 19.8647 34.1797 20.0787L34.5678 19.4369L34.9559 18.7951C34.8083 18.7059 34.7433 18.621 34.7107 18.5521L34.0325 18.8723ZM34.5678 19.4369L34.1797 20.0787C34.2748 20.1362 34.2774 20.17 34.2809 20.188L35.0174 20.0465L35.7539 19.905C35.6595 19.4135 35.3623 19.0408 34.9559 18.7951L34.5678 19.4369ZM35.0174 20.0465L34.2809 20.188C34.3324 20.4562 34.3907 20.7201 34.4558 20.9797L35.1833 20.7972L35.9107 20.6147C35.8526 20.3829 35.8003 20.1463 35.7539 19.905L35.0174 20.0465ZM35.1833 20.7972L34.4558 20.9797C34.5495 21.3533 34.7341 21.6847 34.9952 21.9678L35.5465 21.4593L36.0979 20.9509C35.9978 20.8424 35.9402 20.7323 35.9107 20.6147L35.1833 20.7972ZM35.5465 21.4593L34.9952 21.9678C35.1492 22.1348 35.2856 22.3089 35.4053 22.49L36.0311 22.0768L36.657 21.6635C36.4916 21.413 36.305 21.1755 36.0979 20.9509L35.5465 21.4593ZM36.0311 22.0768L35.4053 22.49C35.4112 22.499 35.4121 22.5026 35.4129 22.5099C35.414 22.5207 35.4155 22.5567 35.3947 22.6265L36.1133 22.8412L36.8319 23.0559C36.9702 22.5931 36.9449 22.0996 36.657 21.6635L36.0311 22.0768ZM36.1133 22.8412L35.3947 22.6265C35.2515 23.1055 35.2933 23.6122 35.6136 24.0466L36.2173 23.6014L36.8209 23.1563C36.8162 23.15 36.8155 23.1477 36.816 23.1489C36.8166 23.1503 36.8167 23.1512 36.8165 23.15C36.8163 23.1482 36.8126 23.1204 36.8319 23.0559L36.1133 22.8412ZM36.2173 23.6014L35.6136 24.0466C35.6653 24.1166 35.6817 24.1765 35.6756 24.2574L36.4235 24.3135L37.1714 24.3695C37.2046 23.9272 37.0834 23.5124 36.8209 23.1563L36.2173 23.6014ZM36.4235 24.3135L35.6756 24.2574C35.6364 24.7804 35.8532 25.2265 36.207 25.5639L36.7246 25.0212L37.2423 24.4785C37.1923 24.4308 37.1777 24.4012 37.1742 24.393C37.1721 24.388 37.1703 24.3838 37.1714 24.3695L36.4235 24.3135ZM36.7246 25.0212L36.207 25.5639C36.256 25.6107 36.268 25.6379 36.2696 25.6417C36.2705 25.6439 36.2703 25.644 36.2702 25.6432C36.2701 25.6425 36.2706 25.6452 36.2699 25.6527L37.0162 25.727L37.7625 25.8014C37.8153 25.2718 37.599 24.8187 37.2423 24.4785L36.7246 25.0212ZM37.0162 25.727L36.2699 25.6527C36.2562 25.7905 36.207 25.9516 36.0982 26.1398L36.7475 26.5151L37.3969 26.8904C37.5944 26.5486 37.7243 26.1843 37.7625 25.8014L37.0162 25.727ZM36.7475 26.5151L36.0982 26.1398C35.8275 26.6081 35.7874 27.1498 36.0809 27.6498L36.7277 27.2701L37.3745 26.8904C37.3702 26.8831 37.3717 26.8837 37.374 26.8919C37.375 26.8958 37.376 26.9007 37.3767 26.9063C37.3774 26.9119 37.3776 26.9173 37.3775 26.9222C37.3772 26.9327 37.3755 26.9368 37.3767 26.9329C37.3781 26.9284 37.3831 26.9143 37.3969 26.8904L36.7475 26.5151ZM36.7277 27.2701L36.0809 27.6498C36.1365 27.7444 36.1359 27.7986 36.1263 27.8451L36.8605 27.9981L37.5947 28.1511C37.6879 27.7038 37.5989 27.2727 37.3745 26.8904L36.7277 27.2701ZM36.8605 27.9981L36.1263 27.8451C36.0348 28.2839 36.1157 28.7103 36.3124 29.0971L36.981 28.7571L37.6495 28.4172C37.5827 28.2857 37.5833 28.206 37.5947 28.1511L36.8605 27.9981ZM36.981 28.7571L36.3124 29.0971C36.3233 29.1185 36.3274 29.1316 36.3287 29.1368C36.3299 29.1415 36.3291 29.1404 36.3291 29.1348C36.3291 29.129 36.33 29.1239 36.3308 29.1211C36.3315 29.1187 36.3308 29.1225 36.3249 29.1331L36.9782 29.5014L37.6315 29.8698C37.8981 29.3968 37.8858 28.8819 37.6495 28.4172L36.981 28.7571ZM36.9782 29.5014L36.3249 29.1331C36.2072 29.3418 36.076 29.5428 35.9311 29.7363L36.5315 30.1859L37.1318 30.6354C37.3153 30.3904 37.4819 30.1352 37.6315 29.8698L36.9782 29.5014ZM36.5315 30.1859L35.9311 29.7363C35.5755 30.2112 35.5742 30.7631 35.798 31.2541L36.4804 30.943L37.1629 30.6319C37.1501 30.6038 37.1457 30.587 37.1444 30.5807C37.1432 30.575 37.1446 30.5788 37.1439 30.59C37.1435 30.5954 37.1427 30.6014 37.1413 30.6079C37.1399 30.6144 37.138 30.6203 37.1361 30.6255C37.1319 30.6362 37.1287 30.6395 37.1318 30.6354L36.5315 30.1859ZM36.4804 30.943L35.798 31.2541C35.8303 31.3249 35.8328 31.3605 35.8329 31.3675C35.833 31.3708 35.8327 31.3702 35.8334 31.3672C35.834 31.3643 35.8347 31.3636 35.8334 31.3661L36.4991 31.7116L37.1648 32.057C37.4129 31.5789 37.3645 31.0743 37.1629 30.6319L36.4804 30.943ZM36.4991 31.7116L35.8334 31.3661C35.7287 31.5678 35.6131 31.7629 35.4863 31.9514L36.1087 32.3698L36.7311 32.7883C36.8895 32.5528 37.0341 32.309 37.1648 32.057L36.4991 31.7116ZM36.1087 32.3698L35.4863 31.9514C35.3184 32.201 35.1759 32.4617 35.06 32.7333L35.7497 33.0278L36.4395 33.3224C36.5171 33.1406 36.6139 32.9626 36.7311 32.7883L36.1087 32.3698ZM35.7497 33.0278L35.06 32.7333C34.9758 32.9304 34.8794 33.1213 34.7706 33.3061L35.417 33.6865L36.0633 34.0669C36.2047 33.8268 36.3301 33.5785 36.4395 33.3224L35.7497 33.0278ZM35.417 33.6865L34.7706 33.3061C34.6494 33.512 34.5254 33.7154 34.3986 33.9165L35.0329 34.3167L35.6672 34.7168C35.8024 34.5027 35.9344 34.286 36.0633 34.0669L35.417 33.6865ZM35.0329 34.3167L34.3986 33.9165C34.3 34.0728 34.1829 34.217 34.0459 34.3496L34.5677 34.8884L35.0895 35.4271C35.3108 35.2127 35.5039 34.9758 35.6672 34.7168L35.0329 34.3167ZM34.5677 34.8884L34.0459 34.3496C33.825 34.5635 33.6325 34.7993 33.47 35.0565L34.1041 35.4571L34.7382 35.8576C34.8355 35.7036 34.952 35.5603 35.0895 35.4271L34.5677 34.8884ZM34.1041 35.4571L33.47 35.0565C33.2699 35.3734 33.1576 35.7333 33.1107 36.1129L33.8551 36.2048L34.5994 36.2968C34.6249 36.0905 34.6787 35.9519 34.7382 35.8576L34.1041 35.4571ZM33.8551 36.2048L33.1107 36.1129C33.1084 36.132 33.1057 36.1363 33.108 36.1304C33.1107 36.1237 33.1174 36.1099 33.1304 36.0939C33.1435 36.0778 33.1573 36.0663 33.1679 36.0595C33.1777 36.0532 33.1796 36.054 33.1681 36.0576L33.3942 36.7728L33.6203 37.4879C33.872 37.4083 34.1112 37.2657 34.2951 37.0391C34.4776 36.8142 34.5678 36.5532 34.5994 36.2968L33.8551 36.2048ZM33.3942 36.7728L33.1681 36.0576C32.9016 36.1419 32.6587 36.2978 32.4773 36.5366C32.3004 36.7694 32.2156 37.0365 32.1842 37.2951L32.9287 37.3856L33.6732 37.4761C33.681 37.4118 33.6934 37.4154 33.6718 37.4439C33.6612 37.4577 33.6479 37.4702 33.6345 37.4794C33.6216 37.4881 33.6149 37.4896 33.6203 37.4879L33.3942 36.7728ZM32.9287 37.3856L32.1842 37.2951C32.1747 37.3735 32.1583 37.395 32.1628 37.3879C32.1652 37.3841 32.1705 37.3772 32.1786 37.3701C32.1824 37.3668 32.1858 37.3643 32.1887 37.3624C32.1915 37.3606 32.1931 37.3599 32.193 37.3599L32.5129 38.0382L32.8329 38.7165C33.361 38.4674 33.6113 37.9853 33.6732 37.4761L32.9287 37.3856ZM32.5129 38.0382L32.193 37.3599C31.9254 37.4861 31.6706 37.6277 31.4293 37.785L31.8389 38.4133L32.2484 39.0416C32.43 38.9233 32.6246 38.8148 32.8329 38.7165L32.5129 38.0382ZM31.8389 38.4133L31.4293 37.785C31.2876 37.8774 31.1288 37.9482 30.9488 37.9958L31.1405 38.7209L31.3322 39.4459C31.6604 39.3592 31.9672 39.2249 32.2484 39.0416L31.8389 38.4133ZM31.1405 38.7209L30.9488 37.9958C30.5707 38.0957 30.2356 38.2847 29.9577 38.5604L30.4859 39.0929L31.0141 39.6253C31.1008 39.5394 31.202 39.4804 31.3322 39.4459L31.1405 38.7209ZM30.4859 39.0929L29.9577 38.5604C29.8066 38.7103 29.6454 38.8441 29.4737 38.9624L29.8993 39.58L30.3249 40.1975C30.5708 40.028 30.8006 39.8371 31.0141 39.6253L30.4859 39.0929ZM29.8993 39.58L29.4737 38.9624C29.2594 39.1101 29.0446 39.2623 28.8293 39.4191L29.2708 40.0254L29.7122 40.6318C29.9173 40.4824 30.1216 40.3377 30.3249 40.1975L29.8993 39.58ZM29.2708 40.0254L28.8293 39.4191C28.6843 39.5247 28.531 39.6015 28.3669 39.6525L28.5894 40.3687L28.8119 41.085C29.1358 40.9844 29.4367 40.8324 29.7122 40.6318L29.2708 40.0254ZM28.5894 40.3687L28.3669 39.6525C28.0702 39.7446 27.7847 39.869 27.5107 40.0243L27.8806 40.6767L28.2504 41.3292C28.4336 41.2254 28.6206 41.1444 28.8119 41.085L28.5894 40.3687ZM27.8806 40.6767L27.5107 40.0243C27.5135 40.0227 27.5213 40.019 27.5326 40.0163C27.5439 40.0137 27.5522 40.0137 27.5547 40.0138C27.5584 40.014 27.5245 40.0129 27.4458 39.9706L27.0912 40.6315L26.7367 41.2924C27.1877 41.5344 27.7338 41.622 28.2504 41.3292L27.8806 40.6767ZM27.0912 40.6315L27.4458 39.9706C27.0632 39.7654 26.6377 39.638 26.1952 39.688L26.2794 40.4332L26.3635 41.1785C26.4082 41.1734 26.524 41.1783 26.7367 41.2924L27.0912 40.6315ZM26.2794 40.4332L26.1952 39.688C25.8972 39.7216 25.6043 39.7875 25.3172 39.8847L25.5578 40.5951L25.7983 41.3055C25.9862 41.2419 26.1743 41.1999 26.3635 41.1785L26.2794 40.4332ZM25.5578 40.5951L25.3172 39.8847C25.053 39.9742 24.7882 40.0805 24.5227 40.203L24.8371 40.884L25.1514 41.5649C25.3719 41.4631 25.5875 41.3768 25.7983 41.3055L25.5578 40.5951ZM24.8371 40.884L24.5227 40.203C24.3006 40.3056 24.1604 40.3517 24.0861 40.3674L24.2414 41.1011L24.3968 41.8349C24.6306 41.7854 24.8876 41.6867 25.1514 41.5649L24.8371 40.884ZM24.2414 41.1011L24.0861 40.3674C24.0334 40.3786 24.1232 40.3476 24.2652 40.3862C24.3525 40.41 24.4928 40.47 24.6083 40.613C24.7277 40.761 24.76 40.9227 24.7601 41.0372L24.0101 41.0381L23.2601 41.0391C23.2603 41.1909 23.3023 41.3832 23.441 41.5551C23.5758 41.7221 23.745 41.7992 23.8709 41.8335C24.0899 41.8932 24.2954 41.8564 24.3968 41.8349L24.2414 41.1011ZM24.0101 41.0381L24.7601 41.0372C24.7598 40.7755 24.637 40.5612 24.4783 40.4234C24.3432 40.3061 24.1988 40.2562 24.114 40.233C23.9428 40.1862 23.7598 40.182 23.616 40.1854L23.634 40.9352L23.652 41.685C23.7588 41.6824 23.7638 41.6924 23.7181 41.6798C23.696 41.6738 23.5986 41.6461 23.4949 41.5561C23.3675 41.4455 23.2604 41.2634 23.2601 41.0391L24.0101 41.0381Z" fill="#030302"/>
</svg>
