<svg width="48" height="48" viewBox="0 0 48 48" fill="none" xmlns="http://www.w3.org/2000/svg">
<path d="M17.125 40.0494L17.2667 40.7859L17.125 40.0494ZM18.625 39.6988L18.3682 38.9942L18.625 39.6988ZM19.375 39.9513L18.835 40.4718L19.375 39.9513ZM29.875 39.8653L29.6678 40.5861L29.875 39.8653ZM30.625 40.0987L30.3869 40.8099V40.8099L30.625 40.0987ZM31.375 40.0464L31.0537 39.3688L31.375 40.0464ZM34.375 40.0019L33.8539 40.5413L34.375 40.0019ZM37.375 39.917L36.8869 40.4864L37.375 39.917ZM41.875 40.0345L41.4129 39.4438L41.875 40.0345ZM38.875 39.2397L38.7336 38.5031L38.875 39.2397ZM37.375 39.2415L37.2941 39.9871L37.375 39.2415ZM26.125 39.1156L26.0748 39.8639L26.125 39.1156ZM10.375 39.132L9.96892 38.5014L10.375 39.132ZM8.875 38.8903L8.42281 38.292L8.875 38.8903ZM8.09111 39.375L7.36231 39.5521C7.43665 39.858 7.54473 40.1453 7.69757 40.4006L8.34111 40.0155L8.98465 39.6303C8.92563 39.5317 8.86705 39.392 8.81991 39.1979L8.09111 39.375ZM8.34111 40.0155L7.69757 40.4006C7.85134 40.6576 8.117 40.8723 8.48156 40.9077C8.79287 40.9379 9.06192 40.824 9.24627 40.719L8.875 40.0673L8.50373 39.4156C8.43808 39.453 8.49315 39.4017 8.62649 39.4147C8.70274 39.4221 8.78448 39.4493 8.8576 39.4993C8.92747 39.5471 8.96644 39.5999 8.98465 39.6303L8.34111 40.0155ZM8.875 40.0673L9.24627 40.719C9.44146 40.6078 9.62498 40.5357 9.79758 40.4949L9.625 39.765L9.45242 39.0351C9.12502 39.1125 8.80854 39.242 8.50373 39.4156L8.875 40.0673ZM9.625 39.765L9.79758 40.4949C9.87384 40.4768 9.954 40.4797 10.0637 40.5297L10.375 39.8474L10.6863 39.165C10.296 38.987 9.87616 38.9349 9.45242 39.0351L9.625 39.765ZM10.375 39.8474L10.0637 40.5297C10.3975 40.682 10.7478 40.7685 11.1098 40.7759L11.125 40.026L11.1402 39.2762C11.0022 39.2734 10.8525 39.2408 10.6863 39.165L10.375 39.8474ZM11.125 40.026L11.1098 40.7759C11.4736 40.7833 11.8276 40.7095 12.1662 40.5668L11.875 39.8757L11.5838 39.1845C11.4224 39.2525 11.2764 39.2789 11.1402 39.2762L11.125 40.026ZM11.875 39.8757L12.1662 40.5668C12.2953 40.5124 12.4023 40.5031 12.5026 40.5197L12.625 39.7797L12.7474 39.0398C12.3477 38.9737 11.9547 39.0283 11.5838 39.1845L11.875 39.8757ZM12.625 39.7797L12.5026 40.5197C12.6231 40.5396 12.7706 40.5954 12.9473 40.7181L13.375 40.102L13.8027 39.4859C13.4794 39.2615 13.1269 39.1025 12.7474 39.0398L12.625 39.7797ZM13.375 40.102L12.9473 40.7181C13.1928 40.8885 13.5028 40.997 13.8503 40.9502C14.1832 40.9052 14.448 40.7312 14.6455 40.5408L14.125 40.0008L13.6045 39.4609C13.552 39.5115 13.5668 39.4748 13.6497 39.4636C13.6913 39.458 13.7316 39.4618 13.7645 39.471C13.7951 39.4796 13.808 39.4896 13.8027 39.4859L13.375 40.102ZM14.125 40.0008L14.6455 40.5408C14.714 40.4748 14.7444 40.468 14.7329 40.4718C14.7259 40.474 14.712 40.4773 14.6935 40.4774C14.675 40.4776 14.6605 40.4746 14.6525 40.4721L14.875 39.7558L15.0975 39.0396C14.5009 38.8543 13.9774 39.1014 13.6045 39.4609L14.125 40.0008ZM14.875 39.7558L14.6525 40.4721C15.0673 40.6009 15.4903 40.5835 15.8937 40.4287L15.625 39.7285L15.3563 39.0282C15.2597 39.0653 15.1827 39.0661 15.0975 39.0396L14.875 39.7558ZM15.625 39.7285L15.8937 40.4287C15.8997 40.4264 15.8993 40.4273 15.8936 40.4279C15.8876 40.4285 15.8815 40.4283 15.8771 40.4275C15.8674 40.4259 15.8871 40.4261 15.9384 40.4629L16.375 39.8531L16.8116 39.2433C16.3921 38.9429 15.8797 38.8274 15.3563 39.0282L15.625 39.7285ZM16.375 39.8531L15.9384 40.4629C16.3182 40.7348 16.7736 40.8808 17.2667 40.7859L17.125 40.0494L16.9833 39.3129C16.9764 39.3142 16.9318 39.3293 16.8116 39.2433L16.375 39.8531ZM17.125 40.0494L17.2667 40.7859C17.5159 40.7379 17.7651 40.6904 18.0143 40.6433L17.875 39.9064L17.7357 39.1694C17.4849 39.2168 17.2341 39.2646 16.9833 39.3129L17.125 40.0494ZM17.875 39.9064L18.0143 40.6433C18.306 40.5882 18.5953 40.5079 18.8818 40.4035L18.625 39.6988L18.3682 38.9942C18.1547 39.072 17.944 39.13 17.7357 39.1694L17.875 39.9064ZM18.625 39.6988L18.8818 40.4035C18.8704 40.4077 18.8497 40.4129 18.8229 40.4133C18.796 40.4137 18.7742 40.409 18.7607 40.4045C18.7484 40.4003 18.7491 40.3984 18.7628 40.4078C18.7768 40.4174 18.8012 40.4367 18.835 40.4718L19.375 39.9513L19.915 39.4308C19.5458 39.0478 18.9978 38.7648 18.3682 38.9942L18.625 39.6988ZM19.375 39.9513L18.835 40.4718C19.0381 40.6825 19.3442 40.895 19.7471 40.8966C20.1509 40.8981 20.4586 40.6872 20.6631 40.4767L20.125 39.9542L19.5869 39.4317C19.5414 39.4786 19.5991 39.396 19.7529 39.3966C19.9058 39.3972 19.9619 39.4795 19.915 39.4308L19.375 39.9513ZM20.125 39.9542L20.6631 40.4767C20.7266 40.4113 20.7322 40.4321 20.6739 40.4459C20.6428 40.4534 20.6066 40.4553 20.5709 40.4497C20.5366 40.4443 20.5163 40.4341 20.512 40.4317L20.875 39.7754L21.238 39.1191C20.9691 38.9704 20.6537 38.9087 20.3261 38.9868C20.0178 39.0603 19.7734 39.2396 19.5869 39.4317L20.125 39.9542ZM20.875 39.7754L20.512 40.4317C20.9243 40.6597 21.3866 40.7263 21.8516 40.5789L21.625 39.864L21.3984 39.149C21.3634 39.1601 21.3257 39.1676 21.238 39.1191L20.875 39.7754ZM21.625 39.864L21.8516 40.5789C21.8507 40.5792 21.844 40.5811 21.8333 40.5814C21.8225 40.5817 21.8141 40.5802 21.8103 40.5792C21.8033 40.5774 21.831 40.5826 21.8926 40.6344L22.375 40.0601L22.8574 39.4858C22.4659 39.157 21.9548 38.9727 21.3984 39.149L21.625 39.864ZM22.375 40.0601L21.8926 40.6344C22.1274 40.8316 22.4538 40.9869 22.8426 40.9385C23.2105 40.8927 23.4868 40.6816 23.6774 40.4741L23.125 39.9667L22.5726 39.4594C22.5132 39.5241 22.5395 39.4647 22.6574 39.45C22.7176 39.4425 22.7732 39.4512 22.8151 39.4662C22.8532 39.4798 22.8668 39.4937 22.8574 39.4858L22.375 40.0601ZM23.125 39.9667L23.6774 40.4741C23.7134 40.4348 23.7409 40.4113 23.7586 40.3982C23.7762 40.3852 23.7812 40.3846 23.7732 40.3877C23.7642 40.3912 23.7453 40.3968 23.7193 40.3979C23.6929 40.399 23.6704 40.3951 23.6553 40.3904L23.875 39.6733L24.0947 38.9563C23.4574 38.7609 22.9249 39.0759 22.5726 39.4594L23.125 39.9667ZM23.875 39.6733L23.6553 40.3904C23.9448 40.4792 24.2369 40.5425 24.5312 40.5797L24.625 39.8355L24.7188 39.0914C24.5131 39.0655 24.3052 39.0207 24.0947 38.9563L23.875 39.6733ZM24.625 39.8355L24.5312 40.5797C24.8363 40.6181 25.1422 40.6225 25.4479 40.5927L25.375 39.8462L25.3021 39.0998C25.1078 39.1187 24.9137 39.116 24.7188 39.0914L24.625 39.8355ZM25.375 39.8462L25.4479 40.5927C25.475 40.59 25.5458 40.5889 25.6832 40.6891L26.125 40.083L26.5668 39.477C26.2042 39.2126 25.775 39.0536 25.3021 39.0998L25.375 39.8462ZM26.125 40.083L25.6832 40.6891C25.8916 40.8411 26.1416 40.9567 26.428 40.9844C26.719 41.0124 26.9913 40.944 27.2294 40.8163L26.875 40.1554L26.5206 39.4944C26.5124 39.4988 26.5147 39.4963 26.5264 39.4937C26.5389 39.491 26.555 39.4896 26.572 39.4913C26.5799 39.492 26.5864 39.4933 26.5913 39.4945C26.5937 39.4952 26.5955 39.4957 26.5968 39.4961C26.598 39.4966 26.5987 39.4968 26.5986 39.4968C26.5986 39.4968 26.5879 39.4923 26.5668 39.477L26.125 40.083ZM26.875 40.1554L27.2294 40.8163C27.3937 40.7282 27.5349 40.6923 27.6586 40.6867L27.625 39.9375L27.5914 39.1882C27.2151 39.2051 26.8563 39.3144 26.5206 39.4944L26.875 40.1554ZM27.625 39.9375L27.6586 40.6867C27.72 40.684 27.8154 40.6984 27.96 40.7945L28.375 40.1698L28.79 39.545C28.4346 39.3089 28.03 39.1685 27.5914 39.1882L27.625 39.9375ZM28.375 40.1698L27.96 40.7945C28.2016 40.955 28.4994 41.0556 28.8311 41.0195C29.153 40.9845 29.4173 40.8304 29.6211 40.6507L29.125 40.0882L28.6289 39.5257C28.5827 39.5664 28.597 39.5361 28.6689 39.5283C28.704 39.5245 28.7371 39.5282 28.7632 39.5354C28.7877 39.5422 28.7968 39.5495 28.79 39.545L28.375 40.1698ZM29.125 40.0882L29.6211 40.6507C29.6863 40.5932 29.7178 40.5848 29.7136 40.586C29.7109 40.5868 29.7028 40.5887 29.6911 40.5888C29.6795 40.5888 29.671 40.587 29.6678 40.5861L29.875 39.8653L30.0822 39.1445C29.5168 38.9819 29.0098 39.1898 28.6289 39.5257L29.125 40.0882ZM29.875 39.8653L29.6678 40.5861C29.9073 40.655 30.147 40.7295 30.3869 40.8099L30.625 40.0987L30.8631 39.3875C30.603 39.3004 30.3427 39.2194 30.0822 39.1445L29.875 39.8653ZM30.625 40.0987L30.3869 40.8099C30.8305 40.9584 31.2808 40.9212 31.6963 40.7241L31.375 40.0464L31.0537 39.3688C30.9692 39.4088 30.9195 39.4064 30.8631 39.3875L30.625 40.0987ZM31.375 40.0464L31.6963 40.7241C31.8647 40.6443 32.016 40.6087 32.1547 40.6032L32.125 39.8538L32.0953 39.1044C31.734 39.1187 31.3853 39.2115 31.0537 39.3688L31.375 40.0464ZM32.125 39.8538L32.1547 40.6032C32.1798 40.6022 32.2588 40.6054 32.408 40.7242L32.875 40.1373L33.342 39.5504C32.9912 39.2713 32.5702 39.0855 32.0953 39.1044L32.125 39.8538ZM32.875 40.1373L32.408 40.7242C32.6475 40.9147 32.9711 41.0552 33.3488 41.005C33.7065 40.9575 33.9789 40.7557 34.1709 40.5519L33.625 40.0376L33.0791 39.5233C33.0211 39.5849 33.0435 39.5324 33.1512 39.5181C33.2063 39.5108 33.2581 39.5176 33.2984 39.531C33.3354 39.5433 33.3497 39.5565 33.342 39.5504L32.875 40.1373ZM33.625 40.0376L34.1709 40.5519C34.2231 40.4965 34.1779 40.5721 34.0357 40.5788C33.884 40.5861 33.8182 40.5068 33.8539 40.5413L34.375 40.0019L34.8961 39.4625C34.6818 39.2555 34.366 39.0614 33.9643 39.0805C33.5721 39.0992 33.2769 39.3134 33.0791 39.5233L33.625 40.0376ZM34.375 40.0019L33.8539 40.5413C34.2046 40.8801 34.6768 41.1337 35.2368 41.0493L35.125 40.3077L35.0132 39.566C35.0192 39.5651 35.0265 39.565 35.0331 39.5659C35.0394 39.5667 35.0398 39.5677 35.0331 39.565C35.018 39.5588 34.9713 39.5351 34.8961 39.4625L34.375 40.0019ZM35.125 40.3077L35.2368 41.0493C35.6715 40.9838 36.0512 40.7644 36.3752 40.4744L35.875 39.9155L35.3748 39.3567C35.1988 39.5142 35.0785 39.5562 35.0132 39.566L35.125 40.3077ZM35.875 39.9155L36.3752 40.4744C36.533 40.3332 36.6065 40.3375 36.6094 40.3376L36.625 39.5877L36.6406 38.8379C36.1435 38.8275 35.717 39.0504 35.3748 39.3567L35.875 39.9155ZM36.625 39.5877L36.6094 40.3376C36.6373 40.3381 36.7266 40.349 36.8869 40.4864L37.375 39.917L37.8631 39.3475C37.5234 39.0563 37.1127 38.8477 36.6406 38.8379L36.625 39.5877ZM37.375 39.917L36.8869 40.4864C37.2787 40.8222 37.7962 41.013 38.3603 40.8266L38.125 40.1145L37.8897 39.4024C37.8915 39.4018 37.8997 39.3995 37.9124 39.3991C37.9251 39.3986 37.9354 39.4003 37.941 39.4018C37.9513 39.4045 37.9249 39.4005 37.8631 39.3475L37.375 39.917ZM38.125 40.1145L38.3603 40.8266C38.5455 40.7654 38.7242 40.7339 38.8985 40.7285L38.875 39.9788L38.8515 39.2292C38.5258 39.2394 38.2045 39.2983 37.8897 39.4024L38.125 40.1145ZM38.875 39.9788L38.8985 40.7285C39.1004 40.7222 39.3029 40.7351 39.5066 40.7676L39.625 40.027L39.7434 39.2864C39.4471 39.2391 39.1496 39.2199 38.8515 39.2292L38.875 39.9788ZM39.625 40.027L39.5066 40.7676C39.7655 40.809 40.0245 40.8456 40.2835 40.8775L40.375 40.1331L40.4665 39.3887C40.2255 39.3591 39.9845 39.325 39.7434 39.2864L39.625 40.027ZM40.375 40.1331L40.2835 40.8775C40.5151 40.906 40.747 40.9432 40.9792 40.9892L41.125 40.2535L41.2708 39.5178C41.003 39.4648 40.7349 39.4217 40.4665 39.3887L40.375 40.1331ZM41.125 40.2535L40.9792 40.9892C41.4943 41.0913 41.9609 40.9195 42.3371 40.6252L41.875 40.0345L41.4129 39.4438C41.3469 39.4954 41.3058 39.5113 41.2898 39.516C41.2778 39.5195 41.2749 39.5186 41.2708 39.5178L41.125 40.2535ZM41.875 40.0345L42.3371 40.6252C42.3977 40.5778 42.4287 40.5699 42.4301 40.5695C42.4306 40.5694 42.4276 40.5701 42.4224 40.57C42.4172 40.5699 42.4152 40.5691 42.4177 40.5698L42.625 39.849L42.8323 39.1283C42.2994 38.9749 41.8054 39.1368 41.4129 39.4438L41.875 40.0345ZM42.625 39.849L42.4177 40.5698C42.8552 40.6957 43.293 40.648 43.6967 40.4563L43.375 39.7788L43.0533 39.1013C42.957 39.1471 42.8948 39.1462 42.8323 39.1283L42.625 39.849ZM43.375 39.7788L43.6967 40.4563C43.9436 40.3391 44.079 40.2871 44.1323 40.272L43.9279 39.5504L43.7236 38.8288C43.5396 38.8809 43.3064 38.9812 43.0533 39.1013L43.375 39.7788ZM43.9279 39.5504L44.1323 40.272C44.2454 40.24 44.4101 40.1713 44.5497 40.0178C44.7028 39.8493 44.7669 39.6433 44.7669 39.4525C44.7669 39.1446 44.6024 38.9102 44.5307 38.8134L43.9279 39.2596L43.3252 39.7059C43.3356 39.72 43.327 39.7111 43.3136 39.6821C43.3023 39.6575 43.2669 39.5749 43.2669 39.4525C43.2669 39.3102 43.3162 39.1447 43.4397 39.0089C43.5496 38.888 43.6698 38.844 43.7236 38.8288L43.9279 39.5504ZM43.9279 39.2596L44.5307 38.8134C44.2327 38.4108 43.7893 38.2688 43.3668 38.2734L43.375 39.0234L43.3832 39.7733C43.4291 39.7728 43.4301 39.7803 43.406 39.7701C43.3937 39.7648 43.3782 39.7562 43.3621 39.7435C43.3461 39.7309 43.3337 39.7175 43.3252 39.7059L43.9279 39.2596ZM43.375 39.0234L43.3668 38.2734C43.0466 38.2769 42.7295 38.3249 42.4172 38.4149L42.625 39.1356L42.8328 39.8562C43.0205 39.8021 43.2034 39.7753 43.3832 39.7733L43.375 39.0234ZM42.625 39.1356L42.4172 38.4149C42.2591 38.4605 42.1086 38.4726 41.9604 38.4556L41.875 39.2007L41.7896 39.9459C42.1414 39.9862 42.4909 39.9548 42.8328 39.8562L42.625 39.1356ZM41.875 39.2007L41.9604 38.4556C41.7119 38.4272 41.4635 38.3979 41.215 38.3679L41.125 39.1124L41.035 39.857C41.2865 39.8874 41.5381 39.9171 41.7896 39.9459L41.875 39.2007ZM41.125 39.1124L41.215 38.3679C40.9525 38.3361 40.6898 38.3111 40.427 38.2928L40.375 39.041L40.323 39.7892C40.5602 39.8057 40.7975 39.8283 41.035 39.857L41.125 39.1124ZM40.375 39.041L40.427 38.2928C40.1083 38.2707 39.7904 38.2922 39.4753 38.3564L39.625 39.0913L39.7747 39.8262C39.9596 39.7886 40.1417 39.7766 40.323 39.7892L40.375 39.041ZM39.625 39.0913L39.4753 38.3564C39.2281 38.4067 38.9808 38.4557 38.7336 38.5031L38.875 39.2397L39.0164 39.9762C39.2692 39.9277 39.5219 39.8777 39.7747 39.8262L39.625 39.0913ZM38.875 39.2397L38.7336 38.5031C38.5389 38.5405 38.3462 38.555 38.1545 38.5475L38.125 39.2969L38.0955 40.0464C38.4038 40.0585 38.7111 40.0348 39.0164 39.9762L38.875 39.2397ZM38.125 39.2969L38.1545 38.5475C37.9217 38.5384 37.6889 38.5212 37.4559 38.4959L37.375 39.2415L37.2941 39.9871C37.5611 40.0161 37.8283 40.0358 38.0955 40.0464L38.125 39.2969ZM37.375 39.2415L37.4559 38.4959C37.3495 38.4843 37.214 38.4401 37.0451 38.3259L36.625 38.9472L36.2049 39.5685C36.536 39.7924 36.9005 39.9444 37.2941 39.9871L37.375 39.2415ZM36.625 38.9472L37.0451 38.3259C36.6728 38.0741 36.2384 37.9377 35.7695 38.0043L35.875 38.7469L35.9805 39.4894C36.0116 39.485 36.0772 39.4822 36.2049 39.5685L36.625 38.9472ZM35.875 38.7469L35.7695 38.0043C35.4048 38.0561 35.0596 38.19 34.7365 38.3857L35.125 39.0272L35.5135 39.6688C35.6904 39.5616 35.8452 39.5086 35.9805 39.4894L35.875 38.7469ZM35.125 39.0272L34.7365 38.3857C34.5819 38.4793 34.4619 38.5071 34.3675 38.5081L34.375 39.258L34.3825 40.008C34.7881 40.004 35.1681 39.8779 35.5135 39.6688L35.125 39.0272ZM34.375 39.258L34.3675 38.5081C34.227 38.5095 34.0772 38.4816 33.9129 38.4133L33.625 39.1058L33.3371 39.7984C33.6728 39.938 34.023 40.0116 34.3825 40.008L34.375 39.258ZM33.625 39.1058L33.9129 38.4133C33.6158 38.2898 33.3133 38.1994 33.006 38.1449L32.875 38.8834L32.744 39.6219C32.9367 39.656 33.1342 39.714 33.3371 39.7984L33.625 39.1058ZM32.875 38.8834L33.006 38.1449C32.7377 38.0973 32.4691 38.0599 32.2003 38.0328L32.125 38.779L32.0497 39.5252C32.2809 39.5486 32.5123 39.5807 32.744 39.6219L32.875 38.8834ZM32.125 38.779L32.2003 38.0328C31.9524 38.0078 31.7046 37.9817 31.4567 37.9546L31.375 38.7001L31.2933 39.4457C31.5454 39.4733 31.7976 39.4998 32.0497 39.5252L32.125 38.779ZM31.375 38.7001L31.4567 37.9546C31.1282 37.9186 30.8 37.9344 30.4748 38.0009L30.625 38.7357L30.7752 39.4705C30.95 39.4347 31.1218 39.4269 31.2933 39.4457L31.375 38.7001ZM30.625 38.7357L30.4748 38.0009C30.2921 38.0382 30.1122 38.0493 29.9331 38.0354L29.875 38.7832L29.8169 39.5309C30.1378 39.5558 30.4579 39.5353 30.7752 39.4705L30.625 38.7357ZM29.875 38.7832L29.9331 38.0354C29.727 38.0194 29.5193 37.9851 29.3097 37.9318L29.125 38.6587L28.9403 39.3856C29.2307 39.4594 29.523 39.5081 29.8169 39.5309L29.875 38.7832ZM29.125 38.6587L29.3097 37.9318C28.8122 37.8055 28.3427 37.9333 27.9493 38.2045L28.375 38.822L28.8007 39.4395C28.8601 39.3986 28.896 39.3877 28.9095 39.3848C28.9199 39.3825 28.9271 39.3823 28.9403 39.3856L29.125 38.6587ZM28.375 38.822L27.9493 38.2045C27.7467 38.3442 27.5565 38.4407 27.3786 38.5026L27.625 39.211L27.8714 39.9194C28.1935 39.8073 28.5033 39.6446 28.8007 39.4395L28.375 38.822ZM27.625 39.211L27.3786 38.5026C27.267 38.5414 27.1703 38.5437 27.0688 38.5166L26.875 39.2411L26.6812 39.9656C27.0797 40.0722 27.483 40.0544 27.8714 39.9194L27.625 39.211ZM26.875 39.2411L27.0688 38.5166C26.7734 38.4375 26.4753 38.3874 26.1752 38.3673L26.125 39.1156L26.0748 39.8639C26.2747 39.8773 26.4766 39.9109 26.6812 39.9656L26.875 39.2411ZM26.125 39.1156L26.1752 38.3673C25.8863 38.3479 25.5972 38.3511 25.3085 38.3768L25.375 39.1238L25.4415 39.8709C25.6528 39.8521 25.8637 39.8498 26.0748 39.8639L26.125 39.1156ZM25.375 39.1238L25.3085 38.3768C25.0744 38.3976 24.8403 38.411 24.6063 38.4168L24.625 39.1665L24.6437 39.9163C24.9097 39.9097 25.1756 39.8945 25.4415 39.8709L25.375 39.1238ZM24.625 39.1665L24.6063 38.4168C24.5228 38.4189 24.4126 38.3972 24.2642 38.3071L23.875 38.9482L23.4858 39.5894C23.8374 39.8028 24.2272 39.9267 24.6437 39.9163L24.625 39.1665ZM23.875 38.9482L24.2642 38.3071C23.8012 38.0261 23.2733 37.9935 22.7802 38.2487L23.125 38.9147L23.4698 39.5808C23.4829 39.574 23.4878 39.5733 23.4851 39.5739C23.4839 39.5742 23.4814 39.5747 23.4779 39.575C23.4743 39.5754 23.4705 39.5755 23.4665 39.5753C23.4626 39.5751 23.4594 39.5747 23.4571 39.5743C23.4549 39.5739 23.4542 39.5736 23.4551 39.5739C23.457 39.5745 23.4672 39.5781 23.4858 39.5894L23.875 38.9482ZM23.125 38.9147L22.7802 38.2487C22.6467 38.3178 22.5462 38.3299 22.4621 38.3201L22.375 39.065L22.2879 39.8099C22.7038 39.8586 23.1033 39.7705 23.4698 39.5808L23.125 38.9147ZM22.375 39.065L22.4621 38.3201C22.1732 38.2863 21.8837 38.2753 21.594 38.2873L21.625 39.0367L21.656 39.786C21.8663 39.7773 22.0768 39.7853 22.2879 39.8099L22.375 39.065ZM21.625 39.0367L21.594 38.2873C21.3746 38.2964 21.1551 38.2921 20.9354 38.2743L20.875 39.0219L20.8146 39.7695C21.0949 39.7921 21.3754 39.7976 21.656 39.786L21.625 39.0367ZM20.875 39.0219L20.9354 38.2743C20.767 38.2607 20.5915 38.2194 20.4068 38.1445L20.125 38.8395L19.8432 39.5345C20.1585 39.6624 20.483 39.7427 20.8146 39.7695L20.875 39.0219ZM20.125 38.8395L20.4068 38.1445C20.1294 38.032 19.8291 38.013 19.5346 38.1013C19.2549 38.1851 19.0262 38.3515 18.8433 38.5354L19.375 39.0644L19.9067 39.5933C19.9388 39.561 19.9611 39.5444 19.9723 39.5371C19.9831 39.53 19.9807 39.5335 19.9654 39.5381C19.9488 39.5431 19.9251 39.5469 19.8979 39.5455C19.871 39.5441 19.8519 39.5381 19.8432 39.5345L20.125 38.8395ZM19.375 39.0644L18.8433 38.5354C18.8039 38.5751 18.8724 38.4873 19.035 38.4949C19.1873 38.502 19.235 38.5853 19.1796 38.5245L18.625 39.0293L18.0704 39.5342C18.265 39.748 18.5627 39.9744 18.965 39.9932C19.3776 40.0125 19.6962 39.8049 19.9067 39.5933L19.375 39.0644ZM18.625 39.0293L19.1796 38.5245C18.8534 38.1661 18.4024 37.8586 17.8368 37.8874L17.875 38.6365L17.9132 39.3855C17.8877 39.3868 17.8804 39.3782 17.902 39.3895C17.9291 39.4037 17.9868 39.4424 18.0704 39.5342L18.625 39.0293ZM17.875 38.6365L17.8368 37.8874C17.4749 37.9059 17.1264 38.0034 16.7956 38.1651L17.125 38.8389L17.4544 39.5127C17.6236 39.43 17.7751 39.3925 17.9132 39.3855L17.875 38.6365ZM17.125 38.8389L16.7956 38.1651C16.5621 38.2793 16.3295 38.3823 16.0978 38.4745L16.375 39.1714L16.6522 39.8683C16.9205 39.7616 17.1879 39.643 17.4544 39.5127L17.125 38.8389ZM16.375 39.1714L16.0978 38.4745C15.9301 38.5412 15.7749 38.5697 15.6279 38.5691L15.625 39.3191L15.6221 40.0691C15.9751 40.0705 16.3199 40.0004 16.6522 39.8683L16.375 39.1714ZM15.625 39.3191L15.6279 38.5691C15.3605 38.5681 15.0931 38.5764 14.8258 38.5939L14.875 39.3423L14.9242 40.0907C15.1569 40.0754 15.3895 40.0682 15.6221 40.0691L15.625 39.3191ZM14.875 39.3423L14.8258 38.5939C14.8313 38.5936 14.8259 38.5965 14.8009 38.5855C14.7719 38.5728 14.7172 38.5412 14.6392 38.4678L14.125 39.0138L13.6108 39.5597C13.9542 39.8832 14.3983 40.1253 14.9242 40.0907L14.875 39.3423ZM14.125 39.0138L14.6392 38.4678C14.2552 38.1061 13.7192 37.8754 13.1233 38.0877L13.375 38.7942L13.6267 39.5007C13.6204 39.5029 13.6062 39.5068 13.5863 39.5074C13.5663 39.5081 13.5497 39.5051 13.5393 39.5021C13.5206 39.4966 13.5455 39.4983 13.6108 39.5597L14.125 39.0138ZM13.375 38.7942L13.1233 38.0877C13.0016 38.1311 12.8957 38.1358 12.789 38.1119L12.625 38.8438L12.461 39.5756C12.8543 39.6638 13.2484 39.6355 13.6267 39.5007L13.375 38.7942ZM12.625 38.8438L12.789 38.1119C12.4066 38.0262 12.0221 38.0452 11.6489 38.1632L11.875 38.8783L12.1011 39.5934C12.228 39.5533 12.3434 39.5493 12.461 39.5756L12.625 38.8438ZM11.875 38.8783L11.6489 38.1632C11.5017 38.2098 11.3649 38.2202 11.2304 38.2011L11.125 38.9437L11.0196 39.6863C11.3851 39.7381 11.7483 39.705 12.1011 39.5934L11.875 38.8783ZM11.125 38.9437L11.2304 38.2011C10.7712 38.136 10.3421 38.2611 9.96892 38.5014L10.375 39.132L10.7811 39.7625C10.9079 39.6808 10.9788 39.6805 11.0196 39.6863L11.125 38.9437ZM10.375 39.132L9.96892 38.5014C9.96832 38.5018 9.98606 38.4904 10.0211 38.4824C10.0583 38.4739 10.0998 38.4729 10.1393 38.4804C10.2151 38.4947 10.2207 38.5267 10.1611 38.4657L9.625 38.9902L9.08891 39.5147C9.27926 39.7093 9.53489 39.8927 9.86069 39.9542C10.2059 40.0195 10.5238 39.9283 10.7811 39.7625L10.375 39.132ZM9.625 38.9902L10.1611 38.4657C9.96668 38.267 9.69699 38.0765 9.34902 38.0302C8.98337 37.9815 8.66496 38.109 8.42281 38.292L8.875 38.8903L9.32718 39.4887C9.33384 39.4836 9.32002 39.4956 9.2854 39.5064C9.24793 39.5181 9.20065 39.5236 9.15098 39.517C9.05301 39.504 9.03332 39.4579 9.08891 39.5147L9.625 38.9902ZM8.875 38.8903L8.42281 38.292C8.38425 38.3211 8.35555 38.339 8.33655 38.3494C8.31735 38.3598 8.3126 38.3601 8.32134 38.3575C8.33064 38.3548 8.35682 38.3485 8.39626 38.3492C8.43729 38.3499 8.48421 38.3582 8.53139 38.3773L8.25 39.0725L7.96861 39.7677C8.5198 39.9908 9.02468 39.7173 9.32718 39.4887L8.875 38.8903ZM8.25 39.0725L8.53139 38.3773C8.44573 38.3426 8.36889 38.3127 8.30864 38.2918C8.2832 38.2829 8.2366 38.2671 8.18566 38.2552C8.17035 38.2517 8.09794 38.2342 8.0065 38.2339C7.97155 38.2338 7.83983 38.2336 7.69027 38.3017C7.60606 38.34 7.48952 38.4122 7.39408 38.5432C7.29281 38.6822 7.25 38.8401 7.25 38.9857H8H8.75C8.75 39.1306 8.70736 39.288 8.6064 39.4266C8.51129 39.5571 8.39524 39.6289 8.31168 39.6669C8.16343 39.7344 8.03366 39.734 8.00132 39.7339C7.91508 39.7336 7.85048 39.7173 7.84559 39.7162C7.81548 39.7092 7.80013 39.703 7.81636 39.7087C7.83945 39.7167 7.8876 39.7349 7.96861 39.7677L8.25 39.0725ZM8 38.9857H7.25C7.25 39.0272 7.25356 39.0597 7.25468 39.0698C7.25631 39.0844 7.25805 39.0963 7.25914 39.1033C7.26134 39.1175 7.26356 39.1294 7.26483 39.1361C7.26754 39.1502 7.27051 39.1641 7.2729 39.1751C7.27793 39.1982 7.28465 39.2275 7.29251 39.2611C7.30843 39.3291 7.33181 39.4265 7.36231 39.5521L8.09111 39.375L8.81991 39.1979C8.78967 39.0735 8.76749 38.981 8.75305 38.9193C8.74572 38.888 8.74105 38.8674 8.73849 38.8557C8.73709 38.8492 8.73721 38.8495 8.73801 38.8537C8.73834 38.8554 8.73985 38.8633 8.74157 38.8744C8.74242 38.8799 8.74399 38.8905 8.74549 38.904C8.7465 38.913 8.75 38.9447 8.75 38.9857H8Z" fill="#030302"/>
</svg>
