<svg width="48" height="48" viewBox="0 0 48 48" fill="none" xmlns="http://www.w3.org/2000/svg">
<path d="M19.5362 22.7576L19.1421 23.3957L19.5362 22.7576ZM25.5362 22.709L25.0157 22.1691L25.5362 22.709ZM27.0362 22.4367L27.3049 23.1369L27.0362 22.4367ZM28.5362 22.7576L28.3945 22.0211L28.5362 22.7576ZM30.0256 23.0246L29.4523 23.5082L30.0256 23.0246ZM30.0467 23.8156L29.3722 23.4878L30.0467 23.8156ZM30.7283 25.1634L29.9871 25.0485L30.7283 25.1634ZM30.9773 26.6697L31.6826 26.9249L30.9773 26.6697ZM31.9627 28.7049L32.6936 28.5368L31.9627 28.7049ZM33.0168 30.0778L32.4059 29.6427L33.0168 30.0778ZM33.0303 28.6687L32.3009 28.4941L33.0303 28.6687ZM32.189 26.5807L31.4393 26.602L32.189 26.5807ZM31.4506 24.455L32.1624 24.6913L31.4506 24.455ZM31.0989 23.7851L30.8039 24.4747L31.0989 23.7851ZM30.836 22.2838L31.4938 21.9236L30.836 22.2838ZM29.6437 21.1234L30.3531 20.8799L29.6437 21.1234ZM29.6947 20.3059L30.3973 20.5681L29.6947 20.3059ZM29.6219 19.5337L30.2095 19.0676L29.6219 19.5337ZM29.2364 18.8762L28.5406 19.1563L29.2364 18.8762ZM29.0234 18.1555L29.7595 18.0117L29.0234 18.1555ZM28.8648 17.4148L29.5952 17.2445L28.8648 17.4148ZM28.7197 16.6692L27.9788 16.7856L28.7197 16.6692ZM27.8235 15.4002L28.5716 15.3467L27.8235 15.4002ZM27.4994 14.7202L28.0248 14.1849L27.4994 14.7202ZM27.2314 13.2208L27.8834 12.8502L27.2314 13.2208ZM26.9106 12.5396L27.6119 12.2737L26.9106 12.5396ZM26.2276 11.1923L26.9566 11.016L26.2276 11.1923ZM25.5558 9.04219L24.9174 9.43571L25.5558 9.04219ZM24.8464 7.70467L25.5601 7.47434L24.8464 7.70467ZM24.4594 6.15448L23.7233 6.29821L24.4594 6.15448ZM23.9944 5.74687L23.8889 5.00432L23.9944 5.74687ZM23.3717 6.99806L22.665 6.74689L23.3717 6.99806ZM22.5035 8.2774L23.1518 8.65463L22.5035 8.2774ZM21.8151 9.62263L21.1433 9.28926L21.8151 9.62263ZM21.5903 10.339L20.8487 10.2271L21.5903 10.339ZM21.0017 11.7209L21.6206 12.1445L21.0017 11.7209ZM20.7738 14.0338L20.1603 13.6024L20.7738 14.0338ZM20.1474 15.4018L20.8717 15.5965L20.1474 15.4018ZM19.9293 16.1206L20.6397 16.3612L19.9293 16.1206ZM19.4662 16.7496L18.9982 16.1635L19.4662 16.7496ZM18.7746 18.8925L19.4888 19.1214L18.7746 18.8925ZM18.026 21.0145L17.3463 21.3316L18.026 21.0145ZM17.7349 21.7066L18.018 22.4012L17.7349 21.7066ZM15.7068 26.5548L14.9569 26.5479L15.7068 26.5548ZM15.4952 27.276L14.8646 26.8701L15.4952 27.276ZM15.4197 30.07L14.805 29.6402L15.4197 30.07ZM15.8697 29.4296L16.4823 29.8623L15.8697 29.4296ZM17.466 26.0207L17.9883 26.559L17.466 26.0207ZM17.61 25.2747L18.3203 25.0339L17.61 25.2747ZM18.4884 23.2003L17.8502 22.8063L18.4884 23.2003ZM18.5503 22.7914L18.9353 22.1478L18.5503 22.7914ZM24.1869 7.79668L24.8399 7.4278L24.1869 7.79668ZM24.2603 8.56858L23.534 8.3817L24.2603 8.56858ZM24.7403 9.99024L24.2212 10.5315L24.7403 9.99024ZM26.0856 13.4911L26.7011 13.0626L26.0856 13.4911ZM26.6 14.1013L26.0706 14.6325L26.6 14.1013ZM26.7939 14.8291L26.0626 14.6628L26.7939 14.8291ZM27.0655 15.5283L26.631 16.1396L27.0655 15.5283ZM27.2492 17.0586L27.7725 16.5213L27.2492 17.0586ZM28.5994 20.5577L29.1438 20.0419L28.5994 20.5577ZM28.8441 21.4898L29.1824 20.8204L28.8441 21.4898ZM28.2668 21.7618L27.737 21.231L28.2668 21.7618ZM27.5168 22.078L27.402 22.8192L27.5168 22.078ZM26.0168 21.4796L25.673 20.8131L26.0168 21.4796ZM23.7668 21.8448L24.2228 22.4403L23.7668 21.8448ZM22.2668 21.7432L22.4048 21.006L22.2668 21.7432ZM21.5168 21.7336L21.3971 20.9932L21.5168 21.7336ZM20.7668 21.7323L20.8891 20.9923L20.7668 21.7323ZM20.0168 21.8949L20.4022 22.5383L20.0168 21.8949ZM19.2668 22.0279L19.0889 22.7565L19.2668 22.0279ZM19.4745 20.088L19.0254 19.4873L19.4745 20.088ZM20.3924 17.2293L19.6434 17.2684L20.3924 17.2293ZM21.3108 15.1696L20.5844 15.3562L21.3108 15.1696ZM21.347 14.384L22.035 14.6825L21.347 14.384ZM21.8516 13.7702L22.3047 14.3678L21.8516 13.7702ZM22.5292 12.421L21.7851 12.3272L22.5292 12.421ZM22.7512 11.7035L22.0851 11.3587L22.7512 11.7035ZM23.0746 10.2245L22.3745 9.9555L23.0746 10.2245ZM23.4095 9.54845L24.0484 9.94129L23.4095 9.54845ZM23.4539 8.76591L24.1636 8.52345L23.4539 8.76591ZM7.625 40.0276L7.8499 39.3121L7.625 40.0276ZM9.875 39.9154L9.65972 40.6338L9.875 39.9154ZM11.375 40.3719L11.4181 39.6232V39.6232L11.375 40.3719ZM12.125 40.1316L12.5544 40.7465L12.125 40.1316ZM12.875 39.9949L12.6375 40.7063L12.875 39.9949ZM13.625 39.8389L13.1751 39.2389L13.625 39.8389ZM18.125 40.2029L17.8774 39.4949L18.125 40.2029ZM18.875 40.0588L18.8493 39.3093L18.875 40.0588ZM21.125 39.89L20.7905 39.2187V39.2187L21.125 39.89ZM23.375 39.9287L23.3843 39.1788L23.375 39.9287ZM25.625 39.9279L25.1388 39.3569L25.625 39.9279ZM27.125 39.9852L27.5529 40.6011L27.125 39.9852ZM27.875 40.0761L28.3879 39.5288L27.875 40.0761ZM29.375 40.1721L28.9523 39.5525L29.375 40.1721ZM30.875 40.3901L30.8716 39.6401L30.875 40.3901ZM31.625 39.9725L32.182 40.4748L31.625 39.9725ZM33.875 39.8826L34.2979 40.502L33.875 39.8826ZM36.875 39.7775L37.0427 40.5085L36.875 39.7775ZM39.125 39.7915L38.8161 40.475L39.125 39.7915ZM39.875 40.0205L39.9924 39.2797L39.875 40.0205ZM41.375 39.9368L41.7862 40.5641L41.375 39.9368ZM42.0302 39.3673L41.7092 40.0451L42.0302 39.3673ZM41.375 39.1277L41.1693 39.8489L41.375 39.1277ZM39.125 39.0658L38.8554 38.3659L39.125 39.0658ZM38.375 39.2447L38.4437 39.9916L38.375 39.2447ZM37.625 39.0566L37.2421 39.7015L37.625 39.0566ZM36.875 38.6931L37.1386 37.991L36.875 38.6931ZM30.875 39.0602L31.0932 38.3427L30.875 39.0602ZM29.375 38.8399L29.2622 39.5814L29.375 38.8399ZM28.625 38.7891L28.6374 39.539L28.625 38.7891ZM27.875 38.7031L28.054 37.9748L27.875 38.7031ZM27.125 38.6419L27.1867 39.3894L27.125 38.6419ZM25.625 38.6526L25.4641 37.92L25.625 38.6526ZM19.625 39.4116L19.5659 38.664L19.625 39.4116ZM18.875 39.1306L19.3535 38.5531L18.875 39.1306ZM18.125 38.9488L17.8814 38.2394L18.125 38.9488ZM13.625 39.0363L14.0952 38.4521L13.625 39.0363ZM12.125 38.666L11.9064 37.9486L12.125 38.666ZM10.625 38.9731L10.1048 38.4328L10.625 38.9731ZM7.625 39.0888L7.3946 38.3751L7.625 39.0888ZM18.7862 22.6171L18.9633 23.3459C18.9902 23.3393 19.0363 23.3304 19.1421 23.3957L19.5362 22.7576L19.9303 22.1194C19.5361 21.876 19.0822 21.7734 18.6091 21.8883L18.7862 22.6171ZM19.5362 22.7576L19.1421 23.3957C19.3604 23.5305 19.6135 23.6209 19.8933 23.6276C20.174 23.6343 20.4322 23.5555 20.6575 23.4272L20.2862 22.7755L19.9149 22.1238C19.9012 22.1317 19.8968 22.1322 19.9012 22.131C19.9034 22.1304 19.9072 22.1295 19.9123 22.1289C19.9174 22.1282 19.9232 22.1279 19.9291 22.1281C19.9351 22.1282 19.9404 22.1288 19.9448 22.1295C19.9492 22.1303 19.9519 22.1311 19.9528 22.1314C19.9545 22.1319 19.9471 22.1298 19.9303 22.1194L19.5362 22.7576ZM20.2862 22.7755L20.6575 23.4272C20.8527 23.316 21.0362 23.2439 21.2088 23.2031L21.0362 22.4732L20.8636 21.7433C20.5362 21.8207 20.2197 21.9502 19.9149 22.1238L20.2862 22.7755ZM21.0362 22.4732L21.2088 23.2031C21.285 23.185 21.3652 23.1879 21.4749 23.2379L21.7862 22.5556L22.0975 21.8732C21.7072 21.6952 21.2874 21.6431 20.8636 21.7433L21.0362 22.4732ZM21.7862 22.5556L21.4749 23.2379C21.8087 23.3902 22.159 23.4767 22.521 23.4841L22.5362 22.7342L22.5514 21.9844C22.4134 21.9816 22.2637 21.949 22.0975 21.8732L21.7862 22.5556ZM22.5362 22.7342L22.521 23.4841C22.8848 23.4915 23.2388 23.4177 23.5774 23.275L23.2862 22.5839L22.995 21.8927C22.8336 21.9607 22.6876 21.9871 22.5514 21.9844L22.5362 22.7342ZM23.2862 22.5839L23.5774 23.275C23.7065 23.2206 23.8135 23.2113 23.9138 23.2279L24.0362 22.4879L24.1586 21.748C23.7589 21.6819 23.3659 21.7365 22.995 21.8927L23.2862 22.5839ZM24.0362 22.4879L23.9138 23.2279C24.0343 23.2478 24.1818 23.3036 24.3585 23.4263L24.7862 22.8102L25.2139 22.1941C24.8906 21.9697 24.5381 21.8107 24.1586 21.748L24.0362 22.4879ZM24.7862 22.8102L24.3585 23.4263C24.604 23.5967 24.914 23.7052 25.2615 23.6584C25.5944 23.6134 25.8592 23.4394 26.0567 23.249L25.5362 22.709L25.0157 22.1691C24.9632 22.2197 24.978 22.183 25.0609 22.1718C25.1025 22.1662 25.1428 22.17 25.1757 22.1792C25.2063 22.1878 25.2192 22.1978 25.2139 22.1941L24.7862 22.8102ZM25.5362 22.709L26.0567 23.249C26.1252 23.183 26.1556 23.1762 26.1441 23.18C26.1371 23.1822 26.1232 23.1855 26.1047 23.1856C26.0862 23.1858 26.0717 23.1828 26.0637 23.1803L26.2862 22.464L26.5087 21.7478C25.9121 21.5625 25.3886 21.8096 25.0157 22.1691L25.5362 22.709ZM26.2862 22.464L26.0637 23.1803C26.4785 23.3091 26.9015 23.2917 27.3049 23.1369L27.0362 22.4367L26.7675 21.7364C26.6709 21.7735 26.5939 21.7743 26.5087 21.7478L26.2862 22.464ZM27.0362 22.4367L27.3049 23.1369C27.3109 23.1346 27.3105 23.1355 27.3048 23.1361C27.2988 23.1367 27.2927 23.1365 27.2883 23.1357C27.2786 23.1341 27.2983 23.1343 27.3496 23.1711L27.7862 22.5613L28.2228 21.9515C27.8033 21.6511 27.2909 21.5356 26.7675 21.7364L27.0362 22.4367ZM27.7862 22.5613L27.3496 23.1711C27.7294 23.443 28.1848 23.589 28.6779 23.4941L28.5362 22.7576L28.3945 22.0211C28.3876 22.0224 28.343 22.0375 28.2228 21.9515L27.7862 22.5613ZM28.5362 22.7576L28.6779 23.4941C28.865 23.4581 29.0748 23.4425 29.3099 23.4519L29.3397 22.7025L29.3695 21.9531C29.0333 21.9397 28.7074 21.9609 28.3945 22.0211L28.5362 22.7576ZM29.3397 22.7025L29.3099 23.4519C29.4027 23.4556 29.4275 23.4788 29.4523 23.5082L30.0256 23.0246L30.5988 22.5409C30.2805 22.1637 29.848 21.9721 29.3695 21.9531L29.3397 22.7025ZM30.0256 23.0246L29.4523 23.5082C29.4445 23.499 29.4325 23.4814 29.4229 23.4564C29.4133 23.4312 29.4102 23.4091 29.4098 23.3949C29.4095 23.382 29.4115 23.3819 29.4074 23.398C29.4032 23.4144 29.3934 23.444 29.3722 23.4878L30.0467 23.8156L30.7213 24.1435C30.9538 23.665 31.0309 23.053 30.5988 22.5409L30.0256 23.0246ZM30.0467 23.8156L29.3722 23.4878C29.2442 23.7511 29.1501 24.1116 29.2873 24.4904C29.4249 24.87 29.7288 25.0864 29.9969 25.2058L30.3022 24.5208L30.6075 23.8358C30.5478 23.8091 30.6453 23.8349 30.6976 23.9795C30.7497 24.1233 30.6918 24.2043 30.7213 24.1435L30.0467 23.8156ZM30.3022 24.5208L29.9969 25.2058C30.0801 25.2429 30.0625 25.2554 30.0295 25.2055C30.0118 25.1788 29.9975 25.1455 29.9905 25.11C29.9838 25.0759 29.9863 25.0534 29.9871 25.0485L30.7283 25.1634L31.4694 25.2783C31.5165 24.9747 31.4658 24.6573 31.2797 24.3766C31.1046 24.1125 30.8521 23.9447 30.6075 23.8358L30.3022 24.5208ZM30.7283 25.1634L29.9871 25.0485C29.9149 25.5141 30.0116 25.9711 30.31 26.3569L30.9033 25.8981L31.4965 25.4392C31.474 25.4101 31.454 25.3774 31.4694 25.2783L30.7283 25.1634ZM30.9033 25.8981L30.31 26.3569C30.3094 26.3562 30.3054 26.3505 30.3014 26.3406C30.2974 26.3305 30.2959 26.3222 30.2955 26.3182C30.2949 26.311 30.2994 26.3389 30.2721 26.4146L30.9773 26.6697L31.6826 26.9249C31.8565 26.4442 31.8536 25.9009 31.4965 25.4392L30.9033 25.8981ZM30.9773 26.6697L30.2721 26.4146C30.1677 26.7029 30.1343 27.0628 30.3136 27.4112C30.4832 27.7408 30.7766 27.9275 31.037 28.035L31.3232 27.3418L31.6093 26.6485C31.5281 26.615 31.593 26.6192 31.6474 26.7248C31.6751 26.7788 31.6861 26.834 31.6864 26.8785C31.6868 26.9189 31.6784 26.9365 31.6826 26.9249L30.9773 26.6697ZM31.3232 27.3418L31.037 28.035C31.0863 28.0554 31.1178 28.073 31.1362 28.0852C31.1545 28.0972 31.1567 28.1017 31.1511 28.0953C31.1447 28.088 31.1329 28.0722 31.1229 28.0481C31.1128 28.0238 31.1088 28.0013 31.1079 27.9855L31.8568 27.9449L32.6057 27.9044C32.5697 27.2388 32.0907 26.8472 31.6093 26.6485L31.3232 27.3418ZM31.8568 27.9449L31.1079 27.9855C31.1243 28.2879 31.1653 28.5839 31.2318 28.873L31.9627 28.7049L32.6936 28.5368C32.6472 28.3347 32.6176 28.1241 32.6057 27.9044L31.8568 27.9449ZM31.9627 28.7049L31.2318 28.873C31.3007 29.1727 31.4019 29.4614 31.5351 29.7381L32.2109 29.4128L32.8866 29.0874C32.8019 28.9114 32.7377 28.7283 32.6936 28.5368L31.9627 28.7049ZM32.2109 29.4128L31.5351 29.7381C31.6641 30.0059 31.8164 30.2596 31.9919 30.4984L32.5963 30.0543L33.2007 29.6102C33.0802 29.4463 32.9756 29.2722 32.8866 29.0874L32.2109 29.4128ZM32.5963 30.0543L31.9919 30.4984C32.1006 30.6464 32.3523 30.9367 32.7707 30.9601C33.2284 30.9856 33.5086 30.6801 33.6277 30.5129L33.0168 30.0778L32.4059 29.6427C32.4069 29.6412 32.437 29.5979 32.506 29.5529C32.5837 29.5021 32.7051 29.4541 32.8542 29.4624C32.9971 29.4704 33.097 29.5263 33.1465 29.5622C33.1927 29.5958 33.2088 29.6213 33.2007 29.6102L32.5963 30.0543ZM33.0168 30.0778L33.6277 30.5129C33.9272 30.0924 33.9473 29.6057 33.7622 29.1634L33.0704 29.4529L32.3785 29.7423C32.3892 29.768 32.3789 29.7562 32.3822 29.7182C32.3837 29.7001 32.3879 29.6825 32.3937 29.6672C32.3994 29.6522 32.405 29.644 32.4059 29.6427L33.0168 30.0778ZM33.0704 29.4529L33.7622 29.1634C33.7385 29.1067 33.7193 29.0121 33.7597 28.8433L33.0303 28.6687L32.3009 28.4941C32.2015 28.9092 32.209 29.3373 32.3785 29.7423L33.0704 29.4529ZM33.0303 28.6687L33.7597 28.8433C33.8272 28.5612 33.8191 28.247 33.6711 27.948C33.5274 27.6578 33.2917 27.4627 33.0529 27.3333L32.6955 27.9927L32.3381 28.652C32.3923 28.6814 32.359 28.6784 32.3269 28.6136C32.3112 28.582 32.3033 28.5497 32.3011 28.5226C32.299 28.4972 32.3028 28.4862 32.3009 28.4941L33.0303 28.6687ZM32.6955 27.9927L33.0529 27.3333C32.9764 27.2918 32.9577 27.2651 32.9603 27.2686C32.962 27.2709 32.9665 27.2779 32.9706 27.2888C32.9747 27.2997 32.9759 27.3083 32.9761 27.3117L32.228 27.3652L31.48 27.4188C31.522 28.0056 31.8917 28.4101 32.3381 28.652L32.6955 27.9927ZM32.228 27.3652L32.9761 27.3117C32.9583 27.0631 32.9458 26.8124 32.9387 26.5595L32.189 26.5807L31.4393 26.602C31.447 26.8761 31.4606 27.1484 31.48 27.4188L32.228 27.3652ZM32.189 26.5807L32.9387 26.5595C32.9254 26.0918 32.7354 25.6819 32.4074 25.3596L31.8817 25.8945L31.3561 26.4295C31.4227 26.495 31.4376 26.5425 31.4393 26.602L32.189 26.5807ZM31.8817 25.8945L32.4074 25.3596C32.2745 25.229 32.1889 25.0992 32.136 24.9708L31.4426 25.2567L30.7493 25.5426C30.8871 25.8768 31.0943 26.1723 31.3561 26.4295L31.8817 25.8945ZM31.4426 25.2567L32.136 24.9708C32.1264 24.9476 32.1023 24.8724 32.1624 24.6913L31.4506 24.455L30.7388 24.2186C30.5976 24.6439 30.5681 25.1032 30.7493 25.5426L31.4426 25.2567ZM31.4506 24.455L32.1624 24.6913C32.2589 24.4009 32.2794 24.0488 32.1022 23.7114C31.9344 23.3919 31.6512 23.2056 31.3938 23.0955L31.0989 23.7851L30.8039 24.4747C30.8818 24.508 30.8247 24.505 30.7742 24.4088C30.7484 24.3596 30.737 24.3086 30.7357 24.2661C30.7344 24.2272 30.742 24.2092 30.7388 24.2186L31.4506 24.455ZM31.0989 23.7851L31.3938 23.0955C31.3238 23.0656 31.4103 23.082 31.4656 23.2132C31.5247 23.3532 31.4729 23.4422 31.493 23.3968L30.8071 23.0933L30.1213 22.7897C30.0007 23.0622 29.9272 23.4254 30.0835 23.796C30.236 24.1578 30.5388 24.3613 30.8039 24.4747L31.0989 23.7851ZM30.8071 23.0933L31.493 23.3968C31.6903 22.9509 31.7658 22.4202 31.4938 21.9236L30.836 22.2838L30.1782 22.6441C30.1753 22.6388 30.1727 22.632 30.1712 22.6255C30.1698 22.6193 30.1706 22.6186 30.1704 22.6257C30.1698 22.642 30.1636 22.6941 30.1213 22.7897L30.8071 23.0933ZM30.836 22.2838L31.4938 21.9236C31.2827 21.538 30.946 21.257 30.5622 21.0527L30.2097 21.7147L29.8572 22.3767C30.0656 22.4877 30.1465 22.5862 30.1782 22.6441L30.836 22.2838ZM30.2097 21.7147L30.5622 21.0527C30.3753 20.9531 30.354 20.8826 30.3531 20.8799L29.6437 21.1234L28.9343 21.3668C29.0957 21.8371 29.4518 22.1608 29.8572 22.3767L30.2097 21.7147ZM29.6437 21.1234L30.3531 20.8799C30.344 20.8534 30.3235 20.7659 30.3973 20.5681L29.6947 20.3059L28.992 20.0436C28.8355 20.4628 28.7811 20.9203 28.9343 21.3668L29.6437 21.1234ZM29.6947 20.3059L30.3973 20.5681C30.5777 20.0847 30.5787 19.5331 30.2095 19.0676L29.6219 19.5337L29.0343 19.9998C29.0331 19.9983 29.0282 19.9914 29.0234 19.9796C29.0186 19.9678 29.0167 19.9576 29.0161 19.9518C29.0151 19.9412 29.0205 19.9673 28.992 20.0436L29.6947 20.3059ZM29.6219 19.5337L30.2095 19.0676C30.0883 18.9148 29.9972 18.7579 29.9321 18.5961L29.2364 18.8762L28.5406 19.1563C28.6624 19.4587 28.8283 19.74 29.0343 19.9998L29.6219 19.5337ZM29.2364 18.8762L29.9321 18.5961C29.8566 18.4087 29.7991 18.2141 29.7595 18.0117L29.0234 18.1555L28.2873 18.2993C28.3449 18.5938 28.4293 18.8797 28.5406 19.1563L29.2364 18.8762ZM29.0234 18.1555L29.7595 18.0117C29.7092 17.7544 29.6545 17.4986 29.5952 17.2445L28.8648 17.4148L28.1344 17.5852C28.1895 17.8216 28.2405 18.0597 28.2873 18.2993L29.0234 18.1555ZM28.8648 17.4148L29.5952 17.2445C29.5422 17.0173 29.4973 16.7867 29.4606 16.5529L28.7197 16.6692L27.9788 16.7856C28.0211 17.0553 28.073 17.3218 28.1344 17.5852L28.8648 17.4148ZM28.7197 16.6692L29.4606 16.5529C29.3791 16.0341 29.0572 15.6551 28.6514 15.4032L28.2558 16.0405L27.8603 16.6777C27.9314 16.7218 27.9606 16.755 27.9705 16.7684C27.9779 16.7784 27.9781 16.7814 27.9788 16.7856L28.7197 16.6692ZM28.2558 16.0405L28.6514 15.4032C28.586 15.3627 28.5679 15.3363 28.5671 15.3351C28.5667 15.3346 28.5685 15.3373 28.5702 15.3422C28.5719 15.3471 28.5718 15.3493 28.5716 15.3467L27.8235 15.4002L27.0754 15.4536C27.115 16.0067 27.4369 16.4149 27.8603 16.6777L28.2558 16.0405ZM27.8235 15.4002L28.5716 15.3467C28.5392 14.8925 28.3437 14.4979 28.0248 14.1849L27.4994 14.7202L26.9741 15.2554C27.0502 15.3301 27.0708 15.3888 27.0754 15.4536L27.8235 15.4002ZM27.4994 14.7202L28.0248 14.1849C28.0174 14.1777 28.0178 14.1764 28.021 14.1818C28.0225 14.1844 28.0243 14.1879 28.0261 14.1922C28.0279 14.1965 28.0294 14.2009 28.0305 14.205C28.0327 14.2138 28.0323 14.2175 28.0323 14.2136C28.0324 14.2091 28.0332 14.1949 28.0395 14.1696L27.3112 13.9904L26.5829 13.8112C26.4544 14.3334 26.5679 14.8568 26.9741 15.2554L27.4994 14.7202ZM27.3112 13.9904L28.0395 14.1696C28.1481 13.7281 28.1209 13.2681 27.8834 12.8502L27.2314 13.2208L26.5793 13.5914C26.5923 13.6142 26.6183 13.6672 26.5829 13.8112L27.3112 13.9904ZM27.2314 13.2208L27.8834 12.8502C27.777 12.663 27.6866 12.4709 27.6119 12.2737L26.9106 12.5396L26.2093 12.8055C26.3118 13.0758 26.4352 13.3379 26.5793 13.5914L27.2314 13.2208ZM26.9106 12.5396L27.6119 12.2737C27.4983 11.9743 27.3441 11.6931 27.1521 11.4309L26.547 11.8741L25.942 12.3172C26.0574 12.4749 26.1456 12.6374 26.2093 12.8055L26.9106 12.5396ZM26.547 11.8741L27.1521 11.4309C27.0548 11.2981 26.9917 11.161 26.9566 11.016L26.2276 11.1923L25.4987 11.3687C25.5819 11.7128 25.7317 12.0302 25.942 12.3172L26.547 11.8741ZM26.2276 11.1923L26.9566 11.016C26.8978 10.7729 26.8397 10.5296 26.7824 10.286L26.0524 10.4578L25.3223 10.6296C25.3803 10.8762 25.4391 11.1226 25.4987 11.3687L26.2276 11.1923ZM26.0524 10.4578L26.7824 10.286C26.7218 10.0285 26.6549 9.77331 26.5816 9.52032L25.8612 9.72904L25.1409 9.93775C25.207 10.1662 25.2675 10.3968 25.3223 10.6296L26.0524 10.4578ZM25.8612 9.72904L26.5816 9.52032C26.4927 9.21343 26.363 8.92244 26.1943 8.64867L25.5558 9.04219L24.9174 9.43571C25.0164 9.59633 25.0903 9.76324 25.1409 9.93775L25.8612 9.72904ZM25.5558 9.04219L26.1943 8.64867C26.0619 8.43386 25.9309 8.21857 25.8012 8.00278L25.1583 8.38911L24.5155 8.77545C24.6481 8.99605 24.782 9.21614 24.9174 9.43571L25.5558 9.04219ZM25.1583 8.38911L25.8012 8.00278C25.699 7.83285 25.6191 7.65695 25.5601 7.47434L24.8464 7.70467L24.1326 7.935C24.2274 8.22859 24.3554 8.50899 24.5155 8.77545L25.1583 8.38911ZM24.8464 7.70467L25.5601 7.47434C25.4886 7.25269 25.4246 7.02816 25.3681 6.80071L24.6402 6.98143L23.9123 7.16214C23.9771 7.42281 24.0505 7.68044 24.1326 7.935L24.8464 7.70467ZM24.6402 6.98143L25.3681 6.80071C25.3112 6.57144 25.2536 6.30844 25.1955 6.01074L24.4594 6.15448L23.7233 6.29821C23.7851 6.61499 23.8481 6.9033 23.9123 7.16214L24.6402 6.98143ZM24.4594 6.15448L25.1955 6.01074C25.1493 5.7744 25.0449 5.4794 24.7925 5.25815C24.5142 5.01419 24.1772 4.96338 23.8889 5.00432L23.9944 5.74687L24.0998 6.48942C24.0865 6.49131 24.0439 6.49529 23.9837 6.48035C23.9195 6.46446 23.8562 6.43211 23.8037 6.38613C23.7063 6.30076 23.7094 6.22731 23.7233 6.29821L24.4594 6.15448ZM23.9944 5.74687L23.8889 5.00432C23.6234 5.04203 23.3548 5.15674 23.1451 5.3855C22.9423 5.60661 22.8511 5.87255 22.816 6.11509L23.5583 6.22241L24.3006 6.32973C24.3062 6.29075 24.308 6.33668 24.2506 6.39927C24.2223 6.43013 24.1893 6.45397 24.1569 6.46986C24.1259 6.48507 24.1042 6.48879 24.0998 6.48942L23.9944 5.74687ZM23.5583 6.22241L22.816 6.11509C22.7815 6.35417 22.73 6.56383 22.665 6.74689L23.3717 6.99806L24.0784 7.24923C24.1808 6.96114 24.2538 6.6537 24.3006 6.32973L23.5583 6.22241ZM23.3717 6.99806L22.665 6.74689C22.6179 6.87929 22.5402 7.01037 22.4195 7.14108L22.9706 7.64983L23.5217 8.15858C23.7683 7.89142 23.958 7.58799 24.0784 7.24923L23.3717 6.99806ZM22.9706 7.64983L22.4195 7.14108C22.2012 7.37754 22.0123 7.63046 21.8553 7.90018L22.5035 8.2774L23.1518 8.65463C23.2502 8.48544 23.3726 8.31999 23.5217 8.15858L22.9706 7.64983ZM22.5035 8.2774L21.8553 7.90018C21.7183 8.13568 21.5907 8.37499 21.4727 8.61809L22.1474 8.94564L22.8221 9.27319C22.9235 9.06421 23.0334 8.85803 23.1518 8.65463L22.5035 8.2774ZM22.1474 8.94564L21.4727 8.61809C21.3639 8.84218 21.2541 9.06591 21.1433 9.28926L21.8151 9.62263L22.4869 9.95599C22.5997 9.72877 22.7114 9.50117 22.8221 9.27319L22.1474 8.94564ZM21.8151 9.62263L21.1433 9.28926C20.9964 9.58531 20.8982 9.89892 20.8487 10.2271L21.5903 10.339L22.3319 10.451C22.3585 10.2745 22.4103 10.1105 22.4869 9.95599L21.8151 9.62263ZM21.5903 10.339L20.8487 10.2271C20.8208 10.4115 20.7694 10.5842 20.6946 10.7475L21.3767 11.0595L22.0587 11.3715C22.1926 11.0788 22.2835 10.7712 22.3319 10.451L21.5903 10.339ZM21.3767 11.0595L20.6946 10.7475C20.6087 10.9355 20.505 11.1187 20.3828 11.2972L21.0017 11.7209L21.6206 12.1445C21.7898 11.8973 21.9361 11.6396 22.0587 11.3715L21.3767 11.0595ZM21.0017 11.7209L20.3828 11.2972C20.0929 11.7208 20.0513 12.2056 20.1705 12.6683L20.8968 12.4812L21.6231 12.2941C21.6051 12.2243 21.6072 12.1868 21.6091 12.1731C21.6106 12.1625 21.6129 12.1557 21.6206 12.1445L21.0017 11.7209ZM20.8968 12.4812L20.1705 12.6683C20.2319 12.9066 20.257 13.1184 20.2539 13.3067L21.0038 13.3193L21.7537 13.3318C21.7594 12.9908 21.7132 12.644 21.6231 12.2941L20.8968 12.4812ZM21.0038 13.3193L20.2539 13.3067C20.2519 13.4249 20.2208 13.5165 20.1603 13.6024L20.7738 14.0338L21.3874 14.4652C21.6247 14.1277 21.7468 13.743 21.7537 13.3318L21.0038 13.3193ZM20.7738 14.0338L20.1603 13.6024C19.9844 13.8526 19.8348 14.1152 19.7125 14.39L20.3978 14.6948L21.0831 14.9995C21.1646 14.8164 21.2656 14.6384 21.3874 14.4652L20.7738 14.0338ZM20.3978 14.6948L19.7125 14.39C19.5949 14.6546 19.4984 14.9271 19.4231 15.207L20.1474 15.4018L20.8717 15.5965C20.9267 15.3917 20.9972 15.1928 21.0831 14.9995L20.3978 14.6948ZM20.1474 15.4018L19.4231 15.207C19.3621 15.434 19.294 15.6583 19.2189 15.88L19.9293 16.1206L20.6397 16.3612C20.725 16.1092 20.8024 15.8542 20.8717 15.5965L20.1474 15.4018ZM19.9293 16.1206L19.2189 15.88C19.1921 15.9592 19.1339 16.0552 18.9982 16.1635L19.4662 16.7496L19.9341 17.3357C20.2555 17.0791 20.506 16.7558 20.6397 16.3612L19.9293 16.1206ZM19.4662 16.7496L18.9982 16.1635C18.5749 16.5015 18.3626 16.9859 18.4325 17.5367L19.1765 17.4422L19.9205 17.3478C19.9187 17.3332 19.9197 17.3283 19.9193 17.3311C19.9192 17.3323 19.9188 17.3348 19.9179 17.3383C19.917 17.3417 19.9158 17.3454 19.9143 17.349C19.9128 17.3526 19.9112 17.3555 19.9101 17.3575C19.9089 17.3594 19.9084 17.36 19.909 17.3592C19.9102 17.3576 19.9171 17.3493 19.9341 17.3357L19.4662 16.7496ZM19.1765 17.4422L18.4325 17.5367C18.4514 17.6858 18.4282 17.7843 18.39 17.8599L19.0594 18.1981L19.7288 18.5364C19.9176 18.1626 19.9725 17.7573 19.9205 17.3478L19.1765 17.4422ZM19.0594 18.1981L18.39 17.8599C18.2588 18.1196 18.1488 18.3876 18.0604 18.6637L18.7746 18.8925L19.4888 19.1214C19.5531 18.9209 19.633 18.726 19.7288 18.5364L19.0594 18.1981ZM18.7746 18.8925L18.0604 18.6637C17.9934 18.8728 17.9137 19.0774 17.8214 19.2775L18.5025 19.5916L19.1836 19.9057C19.3014 19.6503 19.4031 19.3888 19.4888 19.1214L18.7746 18.8925ZM18.5025 19.5916L17.8214 19.2775C17.7507 19.431 17.6514 19.5815 17.5176 19.7291L18.0731 20.233L18.6286 20.7369C18.8573 20.4848 19.0443 20.2078 19.1836 19.9057L18.5025 19.5916ZM18.0731 20.233L17.5176 19.7291C17.3164 19.9509 17.1953 20.2263 17.1768 20.5331C17.1592 20.8246 17.2367 21.0966 17.3463 21.3316L18.026 21.0145L18.7057 20.6975C18.6864 20.6562 18.6785 20.6296 18.6755 20.6165C18.6726 20.6039 18.675 20.6073 18.6741 20.6233C18.673 20.6406 18.6685 20.6641 18.6578 20.6892C18.6472 20.714 18.6349 20.7299 18.6286 20.7369L18.0731 20.233ZM18.026 21.0145L17.3463 21.3316C17.37 21.3823 17.3112 21.2877 17.3743 21.1377C17.4334 20.9972 17.5281 20.981 17.4519 21.0121L17.7349 21.7066L18.018 22.4012C18.2857 22.292 18.6008 22.0905 18.757 21.7193C18.9171 21.3385 18.8319 20.968 18.7057 20.6975L18.026 21.0145ZM17.7349 21.7066L17.4519 21.0121C17.0031 21.195 16.5592 21.5126 16.3915 22.0535L17.1079 22.2755L17.8243 22.4976C17.8167 22.5219 17.8061 22.5259 17.8242 22.5094C17.8469 22.4889 17.903 22.448 18.018 22.4012L17.7349 21.7066ZM17.1079 22.2755L16.3915 22.0535C16.2842 22.3997 16.2558 22.7604 16.2938 23.1267L17.0398 23.0494L17.7858 22.9721C17.7664 22.7848 17.7833 22.6296 17.8243 22.4976L17.1079 22.2755ZM17.0398 23.0494L16.2938 23.1267C16.3206 23.3852 16.3373 23.6391 16.344 23.8884L17.0937 23.868L17.8435 23.8477C17.8356 23.559 17.8164 23.2672 17.7858 22.9721L17.0398 23.0494ZM17.0937 23.868L16.344 23.8884C16.3489 24.0688 16.3222 24.2243 16.2711 24.3621L16.9743 24.623L17.6774 24.8839C17.8002 24.553 17.8532 24.2051 17.8435 23.8477L17.0937 23.868ZM16.9743 24.623L16.2711 24.3621C16.1781 24.6128 16.0938 24.8667 16.0183 25.1237L16.7379 25.3352L17.4574 25.5466C17.5232 25.3229 17.5965 25.102 17.6774 24.8839L16.9743 24.623ZM16.7379 25.3352L16.0183 25.1237C16.0198 25.1185 16.0207 25.1245 16.0018 25.1442C15.9799 25.167 15.9314 25.2076 15.8356 25.2555L16.1712 25.9262L16.5068 26.597C16.9287 26.3859 17.3088 26.0523 17.4574 25.5466L16.7379 25.3352ZM16.1712 25.9262L15.8356 25.2555C15.3638 25.4915 14.9627 25.9153 14.9569 26.5479L15.7068 26.5548L16.4568 26.5617C16.4568 26.5683 16.4555 26.583 16.4492 26.6019C16.4429 26.6209 16.4345 26.6355 16.428 26.6442C16.4164 26.6599 16.4266 26.6371 16.5068 26.597L16.1712 25.9262ZM15.7068 26.5548L14.9569 26.5479C14.9557 26.677 14.9237 26.7782 14.8646 26.8701L15.4952 27.276L16.1258 27.682C16.344 27.343 16.4531 26.9633 16.4568 26.5617L15.7068 26.5548ZM15.4952 27.276L14.8646 26.8701C14.6525 27.1996 14.5379 27.5672 14.5202 27.9582L15.2694 27.9921L16.0187 28.0259C16.0247 27.8931 16.0606 27.7833 16.1258 27.682L15.4952 27.276ZM15.2694 27.9921L14.5202 27.9582C14.5132 28.1124 14.476 28.2444 14.4117 28.3642L15.0726 28.7187L15.7335 29.0733C15.908 28.748 16.002 28.3956 16.0187 28.0259L15.2694 27.9921ZM15.0726 28.7187L14.4117 28.3642C14.1925 28.7729 14.1623 29.2188 14.2594 29.6519L14.9912 29.4877L15.723 29.3235C15.69 29.1763 15.714 29.1096 15.7335 29.0733L15.0726 28.7187ZM14.9912 29.4877L14.2594 29.6519C14.3245 29.942 14.3744 30.165 14.4093 30.3213L15.1413 30.158L15.8733 29.9947C15.8383 29.8375 15.7882 29.6138 15.723 29.3235L14.9912 29.4877ZM15.1413 30.158L14.4093 30.3213C14.4281 30.4053 14.48 30.6034 14.6488 30.7718C14.7451 30.8677 14.8781 30.9519 15.0445 30.9884C15.2073 31.0241 15.3532 31.0034 15.4633 30.9686C15.6597 30.9065 15.7901 30.785 15.8494 30.7255C15.9216 30.6529 15.9833 30.5727 16.0343 30.4997L15.4197 30.07L14.805 29.6402C14.7807 29.675 14.7744 29.6792 14.7858 29.6678C14.7921 29.6614 14.8107 29.6433 14.8415 29.6215C14.8708 29.6008 14.9279 29.5647 15.0109 29.5384C15.0978 29.511 15.2224 29.4918 15.3656 29.5232C15.5124 29.5554 15.6277 29.6295 15.7079 29.7095C15.8448 29.846 15.8721 29.989 15.8733 29.9947L15.1413 30.158ZM15.4197 30.07L16.0343 30.4997C16.1843 30.2853 16.3336 30.0728 16.4823 29.8623L15.8697 29.4296L15.2571 28.9969C15.107 29.2094 14.9563 29.4238 14.805 29.6402L15.4197 30.07ZM15.8697 29.4296L16.4823 29.8623C16.6556 29.6169 16.8061 29.3609 16.9328 29.0944L16.2555 28.7722L15.5782 28.4501C15.4893 28.637 15.3826 28.8192 15.2571 28.9969L15.8697 29.4296ZM16.2555 28.7722L16.9328 29.0944C17.1232 28.694 17.1483 28.2641 17.0593 27.8437L16.3256 27.9991L15.5918 28.1545C15.6251 28.3114 15.6035 28.397 15.5782 28.4501L16.2555 28.7722ZM16.3256 27.9991L17.0593 27.8437C17.0546 27.8214 17.0545 27.8101 17.0546 27.8079C17.0546 27.8068 17.0547 27.8076 17.0543 27.81C17.0539 27.8124 17.0532 27.8159 17.0519 27.82C17.0507 27.8241 17.0491 27.8282 17.0474 27.8319C17.0457 27.8356 17.0441 27.8383 17.043 27.8399C17.0408 27.8433 17.0423 27.8399 17.0523 27.8307L16.5431 27.28L16.0339 26.7294C15.622 27.1103 15.4793 27.6233 15.5918 28.1545L16.3256 27.9991ZM16.5431 27.28L17.0523 27.8307C17.3222 27.5811 17.5402 27.2935 17.691 26.9662L17.0098 26.6523L16.3287 26.3385C16.2696 26.4667 16.1765 26.5976 16.0339 26.7294L16.5431 27.28ZM17.0098 26.6523L17.691 26.9662C17.7534 26.8308 17.8484 26.6947 17.9883 26.559L17.466 26.0207L16.9437 25.4825C16.6852 25.7333 16.4762 26.0183 16.3287 26.3385L17.0098 26.6523ZM17.466 26.0207L17.9883 26.559C18.187 26.3661 18.3318 26.1211 18.3877 25.8315C18.4422 25.5495 18.4027 25.2768 18.3203 25.0339L17.61 25.2747L16.8998 25.5156C16.9205 25.5768 16.9085 25.5804 16.915 25.5471C16.9181 25.5308 16.9243 25.5139 16.9324 25.4993C16.9403 25.4853 16.9462 25.48 16.9437 25.4825L17.466 26.0207ZM17.61 25.2747L18.3203 25.0339C18.2603 24.8568 18.2883 24.7936 18.2935 24.782L17.609 24.4755L16.9245 24.1691C16.7249 24.6149 16.7536 25.0845 16.8998 25.5156L17.61 25.2747ZM17.609 24.4755L18.2935 24.782C18.3641 24.6244 18.4619 24.4704 18.5921 24.32L18.025 23.8292L17.4578 23.3385C17.2382 23.5923 17.0587 23.8692 16.9245 24.1691L17.609 24.4755ZM18.025 23.8292L18.5921 24.32C18.792 24.089 18.9705 23.8471 19.1266 23.5943L18.4884 23.2003L17.8502 22.8063C17.7382 22.9878 17.6077 23.1652 17.4578 23.3385L18.025 23.8292ZM18.4884 23.2003L19.1266 23.5943C19.2092 23.4605 19.3126 23.2678 19.346 23.0476C19.3639 22.9289 19.3677 22.7626 19.3006 22.5842C19.2285 22.3923 19.0955 22.2435 18.9353 22.1478L18.5503 22.7914L18.1654 23.4351C18.0516 23.367 17.9507 23.2561 17.8966 23.1121C17.8476 22.9817 17.8552 22.8735 17.8629 22.8229C17.8756 22.739 17.9016 22.723 17.8502 22.8063L18.4884 23.2003ZM18.5503 22.7914L18.9353 22.1478C18.9469 22.1547 19.2131 22.3029 19.2572 22.6567C19.3076 23.0625 19.0246 23.2805 18.9855 23.3094C18.9182 23.3591 18.8684 23.3738 18.8859 23.3674C18.8926 23.365 18.9161 23.3573 18.9633 23.3459L18.7862 22.6171L18.6091 21.8883C18.5313 21.9072 18.4512 21.9296 18.3758 21.9569C18.3111 21.9802 18.2006 22.0242 18.094 22.1031C18.0156 22.161 17.7146 22.4078 17.7686 22.8419C17.8162 23.2242 18.1074 23.4004 18.1654 23.4351L18.5503 22.7914ZM24.1869 7.79668L23.5339 8.16556C23.5448 8.18478 23.5715 8.23582 23.534 8.3817L24.2603 8.56858L24.9867 8.75546C25.1005 8.31331 25.0783 7.84976 24.8399 7.4278L24.1869 7.79668ZM24.2603 8.56858L23.534 8.3817C23.4264 8.80005 23.428 9.23527 23.6021 9.64728L24.293 9.35545L24.9839 9.06362C24.9631 9.01449 24.943 8.92513 24.9867 8.75546L24.2603 8.56858ZM24.293 9.35545L23.6021 9.64728C23.7434 9.98182 23.955 10.2762 24.2212 10.5315L24.7403 9.99024L25.2595 9.44893C25.124 9.31899 25.0373 9.19021 24.9839 9.06362L24.293 9.35545ZM24.7403 9.99024L24.2212 10.5315C24.2348 10.5446 24.2413 10.5535 24.2439 10.5574C24.2464 10.561 24.2466 10.5621 24.2463 10.5614C24.246 10.5606 24.2467 10.5621 24.2473 10.5675C24.2478 10.5733 24.2483 10.5856 24.2458 10.606L24.9902 10.6974L25.7346 10.7889C25.7974 10.2781 25.6329 9.80702 25.2595 9.44893L24.7403 9.99024ZM24.9902 10.6974L24.2458 10.606C24.1763 11.1713 24.41 11.6567 24.8478 11.9843L25.2971 11.3837L25.7464 10.7832C25.7275 10.7691 25.7199 10.7603 25.7186 10.7589C25.718 10.7581 25.7188 10.7589 25.7203 10.7614C25.7219 10.7639 25.7239 10.7674 25.7259 10.772C25.728 10.7766 25.7297 10.7814 25.731 10.7861C25.7324 10.7909 25.7331 10.7948 25.7335 10.7976C25.7343 10.8033 25.7331 10.8012 25.7346 10.7889L24.9902 10.6974ZM25.2971 11.3837L24.8478 11.9843C24.9667 12.0732 24.9872 12.1357 24.9942 12.1708L25.7297 12.024L26.4652 11.8771C26.3731 11.416 26.1053 11.0517 25.7464 10.7832L25.2971 11.3837ZM25.7297 12.024L24.9942 12.1708C25.0377 12.3887 25.0685 12.6125 25.0863 12.8424L25.834 12.7845L26.5818 12.7267C26.5595 12.4387 26.5207 12.1554 26.4652 11.8771L25.7297 12.024ZM25.834 12.7845L25.0863 12.8424C25.1166 13.2337 25.2457 13.5974 25.4701 13.9196L26.0856 13.4911L26.7011 13.0626C26.6301 12.9606 26.5916 12.8532 26.5818 12.7267L25.834 12.7845ZM26.0856 13.4911L25.4701 13.9196C25.6449 14.1708 25.8457 14.4083 26.0706 14.6325L26.6 14.1013L27.1295 13.5701C26.9638 13.405 26.8216 13.2357 26.7011 13.0626L26.0856 13.4911ZM26.6 14.1013L26.0706 14.6325C26.0786 14.6405 26.0795 14.6431 26.0773 14.6395C26.075 14.6356 26.0721 14.6293 26.0703 14.6223C26.0684 14.6155 26.069 14.6133 26.0689 14.6182C26.0689 14.6235 26.0682 14.6378 26.0626 14.6628L26.7939 14.8291L27.5252 14.9953C27.643 14.4774 27.5246 13.964 27.1295 13.5701L26.6 14.1013ZM26.7939 14.8291L26.0626 14.6628C26.0028 14.9255 26.004 15.2124 26.1132 15.4933C26.2219 15.7732 26.4136 15.9851 26.631 16.1396L27.0655 15.5283L27.5 14.917C27.4843 14.9058 27.4826 14.9019 27.4877 14.9081C27.4935 14.9151 27.5033 14.9293 27.5114 14.9501C27.5195 14.9711 27.5224 14.9894 27.5229 15.0011C27.5234 15.0118 27.5217 15.0108 27.5252 14.9953L26.7939 14.8291ZM27.0655 15.5283L26.631 16.1396C26.6327 16.1408 26.6143 16.128 26.5924 16.0958C26.569 16.0615 26.5513 16.0189 26.5436 15.9741C26.529 15.8885 26.5615 15.867 26.522 15.9465L27.1937 16.2801L27.8655 16.6137C27.9876 16.3677 28.0796 16.0581 28.0223 15.7219C27.9612 15.3639 27.752 15.0961 27.5 14.917L27.0655 15.5283ZM27.1937 16.2801L26.522 15.9465C26.4042 16.1838 26.3165 16.4662 26.3382 16.7722C26.3615 17.0981 26.5043 17.3801 26.7259 17.5959L27.2492 17.0586L27.7725 16.5213C27.7794 16.5281 27.7956 16.5462 27.8103 16.5769C27.8254 16.6084 27.8326 16.6399 27.8345 16.6656C27.8378 16.7121 27.8216 16.702 27.8655 16.6137L27.1937 16.2801ZM27.2492 17.0586L26.7259 17.5959C26.9516 17.8157 27.1991 18.0235 27.4672 18.22L27.9105 17.615L28.3537 17.01C28.1374 16.8515 27.9441 16.6884 27.7725 16.5213L27.2492 17.0586ZM27.9105 17.615L27.4672 18.22C27.4682 18.2206 27.4503 18.2077 27.4294 18.1761C27.4072 18.1426 27.3906 18.1017 27.3836 18.0592C27.3701 17.9782 27.4005 17.9594 27.3619 18.0382L28.0356 18.3679L28.7093 18.6976C28.8295 18.4519 28.9185 18.1454 28.8633 17.8133C28.8046 17.4602 28.6023 17.1921 28.3537 17.01L27.9105 17.615ZM28.0356 18.3679L27.3619 18.0382C27.1578 18.4554 27.0415 18.933 27.1721 19.4143L27.896 19.2179L28.6198 19.0215C28.619 19.0185 28.5958 18.9294 28.7093 18.6976L28.0356 18.3679ZM27.896 19.2179L27.1721 19.4143C27.2496 19.6999 27.3521 19.9766 27.4795 20.2438L28.1565 19.9212L28.8336 19.5986C28.7449 19.4125 28.6737 19.2203 28.6198 19.0215L27.896 19.2179ZM28.1565 19.9212L27.4795 20.2438C27.624 20.5472 27.8182 20.8236 28.0549 21.0735L28.5994 20.5577L29.1438 20.0419C29.0061 19.8965 28.9051 19.7486 28.8336 19.5986L28.1565 19.9212ZM28.5994 20.5577L28.0549 21.0735C28.1569 21.1812 28.2082 21.284 28.2316 21.3878L28.9633 21.2231L29.6949 21.0583C29.6075 20.6702 29.4163 20.3294 29.1438 20.0419L28.5994 20.5577ZM28.9633 21.2231L28.2316 21.3878C28.2401 21.4257 28.2386 21.4308 28.2378 21.4131C28.2377 21.411 28.2295 21.3043 28.2903 21.1682C28.3249 21.0907 28.3872 20.9926 28.4938 20.9093C28.6036 20.8235 28.7264 20.7801 28.8389 20.7667C29.0353 20.7434 29.1684 20.8133 29.1824 20.8204L28.8441 21.4898L28.5057 22.1591C28.5872 22.2003 28.7758 22.2847 29.0158 22.2562C29.3321 22.2186 29.5561 22.0122 29.6597 21.7802C29.7404 21.5997 29.7402 21.4289 29.7361 21.3431C29.7314 21.2417 29.7141 21.1435 29.6949 21.0583L28.9633 21.2231ZM28.8441 21.4898L29.1824 20.8204C28.8338 20.6442 28.4942 20.7268 28.2789 20.8282C28.07 20.9267 27.8882 21.0801 27.737 21.231L28.2668 21.7618L28.7967 22.2927C28.842 22.2474 28.8766 22.2175 28.9007 22.199C28.9257 22.1798 28.9313 22.179 28.9184 22.1851C28.906 22.1909 28.8588 22.2115 28.7836 22.2167C28.7018 22.2223 28.6027 22.2081 28.5057 22.1591L28.8441 21.4898ZM28.2668 21.7618L27.737 21.231C27.6607 21.3071 27.6139 21.3313 27.6005 21.3369C27.5948 21.3393 27.5968 21.3378 27.6052 21.3366C27.614 21.3355 27.6235 21.3356 27.6316 21.3369L27.5168 22.078L27.402 22.8192C27.973 22.9076 28.4493 22.6394 28.7967 22.2927L28.2668 21.7618ZM27.5168 22.078L27.6316 21.3369C27.5853 21.3297 27.4712 21.2929 27.2913 21.117L26.7668 21.6531L26.2423 22.1892C26.5625 22.5024 26.9483 22.7489 27.402 22.8192L27.5168 22.078ZM26.7668 21.6531L27.2913 21.117C27.1023 20.9321 26.8601 20.7648 26.5608 20.6956C26.2456 20.6227 25.9397 20.6756 25.673 20.8131L26.0168 21.4796L26.3606 22.1462C26.357 22.1481 26.3394 22.1563 26.3099 22.1605C26.2795 22.1648 26.2489 22.163 26.2228 22.157C26.1735 22.1456 26.1813 22.1295 26.2423 22.1892L26.7668 21.6531ZM26.0168 21.4796L25.673 20.8131C25.4967 20.904 25.3372 20.95 25.1914 20.9647L25.2668 21.7109L25.3422 22.4571C25.6964 22.4213 26.0369 22.3132 26.3606 22.1462L26.0168 21.4796ZM25.2668 21.7109L25.1914 20.9647C25.0311 20.9809 24.8693 20.9691 24.7021 20.9265L24.5168 21.6532L24.3316 22.38C24.6643 22.4648 25.0025 22.4915 25.3422 22.4571L25.2668 21.7109ZM24.5168 21.6532L24.7021 20.9265C24.1803 20.7935 23.6986 20.9524 23.3108 21.2494L23.7668 21.8448L24.2228 22.4403C24.2847 22.3929 24.3196 22.382 24.3275 22.38C24.3313 22.379 24.3315 22.3794 24.3295 22.3794C24.3275 22.3794 24.3277 22.379 24.3316 22.38L24.5168 21.6532ZM23.7668 21.8448L23.3108 21.2494C23.2853 21.2689 23.2687 21.2778 23.2613 21.2813C23.2545 21.2845 23.2563 21.2827 23.2658 21.2811C23.2757 21.2794 23.2876 21.279 23.2989 21.2804C23.3099 21.2818 23.314 21.2841 23.3101 21.2824L23.0168 21.9727L22.7236 22.663C23.2663 22.8935 23.7993 22.7646 24.2228 22.4403L23.7668 21.8448ZM23.0168 21.9727L23.3101 21.2824C23.0135 21.1564 22.7116 21.0634 22.4048 21.006L22.2668 21.7432L22.1288 22.4804C22.322 22.5166 22.5201 22.5766 22.7236 22.663L23.0168 21.9727ZM22.2668 21.7432L22.4048 21.006C22.0701 20.9433 21.733 20.9389 21.3971 20.9932L21.5168 21.7336L21.6365 22.474C21.8007 22.4475 21.9635 22.4494 22.1288 22.4804L22.2668 21.7432ZM21.5168 21.7336L21.3971 20.9932C21.2273 21.0207 21.059 21.0204 20.8891 20.9923L20.7668 21.7323L20.6445 22.4722C20.9746 22.5268 21.3063 22.5274 21.6365 22.474L21.5168 21.7336ZM20.7668 21.7323L20.8891 20.9923C20.4378 20.9177 20.0097 21.0249 19.6314 21.2515L20.0168 21.8949L20.4022 22.5383C20.524 22.4654 20.5958 22.4642 20.6445 22.4722L20.7668 21.7323ZM20.0168 21.8949L19.6314 21.2515C19.5263 21.3144 19.4772 21.3073 19.4448 21.2993L19.2668 22.0279L19.0889 22.7565C19.5565 22.8707 20.0073 22.7749 20.4022 22.5383L20.0168 21.8949ZM19.2668 22.0279L19.4448 21.2993C19.4454 21.2995 19.4527 21.3013 19.4651 21.3064C19.4776 21.3115 19.4961 21.3203 19.5182 21.3347C19.5652 21.3654 19.6184 21.4151 19.6592 21.486C19.7426 21.631 19.7086 21.7406 19.7156 21.7112L18.9857 21.5389L18.2557 21.3665C18.2001 21.6021 18.1818 21.9257 18.3588 22.2337C18.5412 22.5509 18.8403 22.6958 19.0889 22.7565L19.2668 22.0279ZM18.9857 21.5389L19.7156 21.7112C19.7884 21.4029 19.8325 21.0935 19.847 20.7836L19.0978 20.7487L18.3486 20.7139C18.3386 20.9276 18.308 21.145 18.2557 21.3665L18.9857 21.5389ZM19.0978 20.7487L19.847 20.7836C19.8474 20.7735 19.8487 20.7682 19.8493 20.7662C19.8498 20.7644 19.8506 20.7622 19.8526 20.7587C19.8562 20.7525 19.8722 20.7271 19.9236 20.6887L19.4745 20.088L19.0254 19.4873C18.6348 19.7794 18.3727 20.1954 18.3486 20.7139L19.0978 20.7487ZM19.4745 20.088L19.9236 20.6887C20.1516 20.5182 20.3432 20.279 20.4269 19.9656C20.5087 19.6593 20.4659 19.3625 20.3751 19.1082L19.6688 19.3604L18.9625 19.6127C18.9811 19.6648 18.9607 19.6424 18.9777 19.5787C18.9858 19.5481 18.9992 19.5221 19.0127 19.5034C19.0254 19.4858 19.0331 19.4816 19.0254 19.4873L19.4745 20.088ZM19.6688 19.3604L20.3751 19.1082C20.3504 19.0391 20.3594 19.0241 20.3562 19.0464C20.3546 19.0578 20.3507 19.0719 20.344 19.0857C20.3376 19.0992 20.3317 19.1057 20.3319 19.1055L19.7768 18.6012L19.2216 18.0969C18.8122 18.5476 18.7828 19.1097 18.9625 19.6127L19.6688 19.3604ZM19.7768 18.6012L20.3319 19.1055C20.5504 18.865 20.7371 18.6065 20.8889 18.3297L20.2313 17.969L19.5737 17.6084C19.4823 17.775 19.366 17.9379 19.2216 18.0969L19.7768 18.6012ZM20.2313 17.969L20.8889 18.3297C21.0825 17.9766 21.1622 17.5899 21.1414 17.1901L20.3924 17.2293L19.6434 17.2684C19.6509 17.4116 19.6232 17.5181 19.5737 17.6084L20.2313 17.969ZM20.3924 17.2293L21.1414 17.1901C21.1336 17.0422 21.1612 16.9301 21.211 16.8352L20.5467 16.487L19.8824 16.1389C19.698 16.4907 19.6228 16.8734 19.6434 17.2684L20.3924 17.2293ZM20.5467 16.487L21.211 16.8352C21.2699 16.7227 21.3685 16.6007 21.5314 16.4751L21.0732 15.8813L20.615 15.2875C20.3101 15.5228 20.0576 15.8047 19.8824 16.1389L20.5467 16.487ZM21.0732 15.8813L21.5314 16.4751C21.7444 16.3107 21.9246 16.0894 22.0195 15.8055C22.1137 15.5231 22.1032 15.2397 22.0372 14.9829L21.3108 15.1696L20.5844 15.3562C20.5894 15.3758 20.5884 15.3809 20.5885 15.3742C20.5885 15.3665 20.5899 15.3506 20.5967 15.3304C20.6034 15.3102 20.6126 15.2947 20.6195 15.2854C20.6259 15.2769 20.6269 15.2783 20.615 15.2875L21.0732 15.8813ZM21.3108 15.1696L22.0372 14.9829C21.9941 14.8152 22.0149 14.7289 22.035 14.6825L21.347 14.384L20.6589 14.0855C20.4798 14.4985 20.4764 14.936 20.5844 15.3562L21.3108 15.1696ZM21.347 14.384L22.035 14.6825C22.0746 14.5913 22.1515 14.484 22.3047 14.3678L21.8516 13.7702L21.3984 13.1725C21.0782 13.4154 20.8187 13.7173 20.6589 14.0855L21.347 14.384ZM21.8516 13.7702L22.3047 14.3678C22.6303 14.1209 22.8912 13.8095 23.0419 13.4263L22.3439 13.1519L21.6459 12.8774C21.6136 12.9597 21.5462 13.0605 21.3984 13.1725L21.8516 13.7702ZM22.3439 13.1519L23.0419 13.4263C23.1568 13.134 23.2337 12.8296 23.2734 12.5148L22.5292 12.421L21.7851 12.3272C21.7607 12.5214 21.714 12.7043 21.6459 12.8774L22.3439 13.1519ZM22.5292 12.421L23.2734 12.5148C23.2946 12.3463 23.3427 12.1923 23.4172 12.0484L22.7512 11.7035L22.0851 11.3587C21.9279 11.6624 21.8281 11.9867 21.7851 12.3272L22.5292 12.421ZM22.7512 11.7035L23.4172 12.0484C23.5886 11.7172 23.6753 11.3592 23.6824 10.9855L22.9325 10.9712L22.1827 10.9569C22.1797 11.1121 22.1454 11.2423 22.0851 11.3587L22.7512 11.7035ZM22.9325 10.9712L23.6824 10.9855C23.6859 10.8031 23.718 10.6409 23.7747 10.4935L23.0746 10.2245L22.3745 9.9555C22.2518 10.2749 22.1893 10.6104 22.1827 10.9569L22.9325 10.9712ZM23.0746 10.2245L23.7747 10.4935C23.8475 10.304 23.9385 10.1201 24.0484 9.94129L23.4095 9.54845L22.7706 9.15562C22.6133 9.41142 22.481 9.67816 22.3745 9.9555L23.0746 10.2245ZM23.4095 9.54845L24.0484 9.94129C24.3288 9.4852 24.3194 8.97949 24.1636 8.52345L23.4539 8.76591L22.7442 9.00837C22.7719 9.08953 22.7728 9.13307 22.772 9.14735C22.7715 9.15683 22.7707 9.15549 22.7706 9.15562L23.4095 9.54845ZM23.4539 8.76591L24.1636 8.52345C24.1602 8.51352 24.1681 8.53161 24.1671 8.57134C24.166 8.61479 24.1546 8.66738 24.128 8.71818C24.076 8.81745 24.0165 8.82056 24.096 8.78707L23.805 8.09583L23.514 7.40458C23.2555 7.51341 22.9684 7.69936 22.7994 8.02199C22.6207 8.36305 22.6451 8.71822 22.7442 9.00837L23.4539 8.76591ZM23.805 8.09583L24.096 8.78707C24.2858 8.70718 24.5428 8.57962 24.7228 8.36345C24.8244 8.24141 24.9306 8.05543 24.9418 7.81332C24.9533 7.56581 24.8608 7.36387 24.7563 7.22434L24.1561 7.67407L23.5559 8.1238C23.5033 8.0537 23.4352 7.92141 23.4434 7.74375C23.4514 7.5715 23.5268 7.45559 23.5699 7.40385C23.6099 7.35581 23.6385 7.34166 23.6212 7.35246C23.6074 7.36098 23.5744 7.37914 23.514 7.40458L23.805 8.09583ZM24.1561 7.67407L24.7563 7.22434C24.7315 7.19133 24.6881 7.13401 24.6413 7.08512C24.6282 7.07142 24.6016 7.04431 24.5655 7.01489C24.5586 7.00932 24.4381 6.90331 24.2497 6.8615C24.1357 6.83618 23.9082 6.81639 23.6802 6.963C23.453 7.10909 23.3768 7.32309 23.3523 7.43547C23.3117 7.62225 23.3562 7.77474 23.3584 7.78359C23.3864 7.89467 23.4428 7.99799 23.4484 8.00881C23.4716 8.05379 23.5009 8.10712 23.5339 8.16556L24.1869 7.79668L24.8399 7.4278C24.8106 7.37595 24.7919 7.34145 24.7814 7.32107C24.7533 7.26652 24.7903 7.32694 24.8131 7.41758C24.814 7.42133 24.8582 7.57012 24.818 7.7546C24.7938 7.86583 24.718 8.07902 24.4915 8.22467C24.2642 8.37083 24.0377 8.35094 23.9247 8.32587C23.7387 8.28457 23.6213 8.18048 23.6186 8.17822C23.5865 8.15212 23.5648 8.12973 23.5576 8.12215C23.5342 8.09775 23.5286 8.0874 23.5559 8.1238L24.1561 7.67407ZM6.18002 39.375L5.50389 39.6996C5.56863 39.8344 5.63641 39.964 5.70553 40.0693C5.73873 40.1199 5.78899 40.1909 5.85603 40.2584C5.89365 40.2963 6.07212 40.4785 6.36735 40.5032L6.43002 39.7559L6.49269 39.0085C6.64293 39.0211 6.75099 39.077 6.80652 39.1115C6.86446 39.1475 6.9024 39.1833 6.92027 39.2013C6.95482 39.2361 6.96799 39.2591 6.95952 39.2462C6.94531 39.2245 6.91142 39.1656 6.85615 39.0504L6.18002 39.375ZM6.43002 39.7559L6.36735 40.5032C6.35069 40.5019 6.3465 40.5007 6.36806 40.504C6.38488 40.5067 6.40966 40.5108 6.44379 40.517C6.51181 40.5292 6.60661 40.5472 6.72983 40.5715L6.875 39.8357L7.02017 39.0999C6.79354 39.0552 6.5921 39.0168 6.49269 39.0085L6.43002 39.7559ZM6.875 39.8357L6.72983 40.5715C6.95215 40.6154 7.17555 40.6725 7.4001 40.7431L7.625 40.0276L7.8499 39.3121C7.57445 39.2255 7.29785 39.1547 7.02017 39.0999L6.875 39.8357ZM7.625 40.0276L7.4001 40.7431C7.82137 40.8755 8.25035 40.8532 8.65655 40.6887L8.375 39.9936L8.09345 39.2984C7.99965 39.3364 7.92863 39.3368 7.8499 39.3121L7.625 40.0276ZM8.375 39.9936L8.65655 40.6887C8.83514 40.6164 9.00325 40.5796 9.16359 40.5714L9.125 39.8224L9.08641 39.0733C8.74675 39.0908 8.41486 39.1682 8.09345 39.2984L8.375 39.9936ZM9.125 39.8224L9.16359 40.5714C9.32422 40.5631 9.48843 40.5825 9.65972 40.6338L9.875 39.9154L10.0903 39.197C9.76157 39.0985 9.42578 39.0559 9.08641 39.0733L9.125 39.8224ZM9.875 39.9154L9.65972 40.6338C9.88101 40.7002 10.104 40.7814 10.3287 40.878L10.625 40.1891L10.9213 39.5001C10.646 39.3817 10.369 39.2805 10.0903 39.197L9.875 39.9154ZM10.625 40.1891L10.3287 40.878C10.652 41.0171 10.9874 41.1009 11.3319 41.1207L11.375 40.3719L11.4181 39.6232C11.2626 39.6142 11.098 39.5761 10.9213 39.5001L10.625 40.1891ZM11.375 40.3719L11.3319 41.1207C11.7842 41.1467 12.1974 40.9959 12.5544 40.7465L12.125 40.1316L11.6956 39.5167C11.5526 39.6165 11.4658 39.6259 11.4181 39.6232L11.375 40.3719ZM12.125 40.1316L12.5544 40.7465C12.5815 40.7276 12.6017 40.717 12.6147 40.7112C12.6275 40.7056 12.6339 40.7044 12.6345 40.7043C12.6348 40.7043 12.6331 40.7045 12.6308 40.7043C12.6287 40.7042 12.6306 40.704 12.6375 40.7063L12.875 39.9949L13.1125 39.2835C12.6 39.1124 12.1053 39.2305 11.6956 39.5167L12.125 40.1316ZM12.875 39.9949L12.6375 40.7063C13.1666 40.8829 13.6698 40.7427 14.0749 40.439L13.625 39.8389L13.1751 39.2389C13.1189 39.281 13.0933 39.285 13.0973 39.2842C13.0992 39.2838 13.1039 39.2832 13.1096 39.2836C13.1152 39.2839 13.1166 39.2849 13.1125 39.2835L12.875 39.9949ZM13.625 39.8389L14.0749 40.439C14.1361 40.3932 14.1708 40.3825 14.1795 40.3804C14.1838 40.3793 14.1847 40.3795 14.1836 40.3795C14.1825 40.3795 14.1837 40.3793 14.1885 40.3805L14.375 39.6541L14.5615 38.9277C14.0445 38.7949 13.5647 38.9468 13.1751 39.2389L13.625 39.8389ZM14.375 39.6541L14.1885 40.3805C14.3152 40.4131 14.4718 40.4873 14.6584 40.6356L15.125 40.0484L15.5916 39.4613C15.2782 39.2121 14.9348 39.0235 14.5615 38.9277L14.375 39.6541ZM15.125 40.0484L14.6584 40.6356C14.8629 40.7982 15.1142 40.9287 15.4088 40.9649C15.7103 41.0018 15.9924 40.9317 16.2362 40.7976L15.875 40.1404L15.5138 39.4831C15.508 39.4862 15.5141 39.482 15.5309 39.4784C15.5486 39.4747 15.5698 39.4734 15.5912 39.476C15.6358 39.4815 15.6371 39.4974 15.5916 39.4613L15.125 40.0484ZM15.875 40.1404L16.2362 40.7976C16.3999 40.7076 16.5392 40.6716 16.6597 40.6661L16.625 39.9169L16.5903 39.1677C16.2108 39.1853 15.8501 39.2983 15.5138 39.4831L15.875 40.1404ZM16.625 39.9169L16.6597 40.6661C16.7449 40.6621 16.8538 40.6816 16.999 40.7657L17.375 40.1167L17.751 39.4678C17.3962 39.2622 17.0051 39.1484 16.5903 39.1677L16.625 39.9169ZM17.375 40.1167L16.999 40.7657C17.4189 41.0089 17.8958 41.0776 18.3726 40.9108L18.125 40.2029L17.8774 39.4949C17.8535 39.5033 17.8422 39.5026 17.8356 39.5018C17.827 39.5008 17.7999 39.4961 17.751 39.4678L17.375 40.1167ZM18.125 40.2029L18.3726 40.9108C18.5554 40.8469 18.7307 40.8142 18.9007 40.8084L18.875 40.0588L18.8493 39.3093C18.5193 39.3206 18.1946 39.384 17.8774 39.4949L18.125 40.2029ZM18.875 40.0588L18.9007 40.8084C19.2824 40.7953 19.6454 40.6847 19.9836 40.5006L19.625 39.8419L19.2664 39.1831C19.1046 39.2712 18.9676 39.3052 18.8493 39.3093L18.875 40.0588ZM19.625 39.8419L19.9836 40.5006C19.9981 40.4927 20.0043 40.4914 20.0025 40.4918C20.0017 40.492 19.9995 40.4925 19.9961 40.493C19.9926 40.4934 19.9887 40.4936 19.9845 40.4935C19.9804 40.4934 19.9768 40.493 19.9739 40.4926C19.9711 40.4921 19.9697 40.4917 19.97 40.4918C19.9703 40.4919 19.9789 40.4945 19.996 40.5045L20.375 39.8573L20.754 39.2101C20.2821 38.9338 19.7523 38.9187 19.2664 39.1831L19.625 39.8419ZM20.375 39.8573L19.996 40.5045C20.4548 40.7731 20.973 40.8038 21.4595 40.5612L21.125 39.89L20.7905 39.2187C20.7767 39.2256 20.7705 39.2269 20.7712 39.2267C20.7723 39.2265 20.7767 39.2257 20.7826 39.226C20.7885 39.2262 20.7906 39.2272 20.7875 39.2263C20.784 39.2252 20.7729 39.2212 20.754 39.2101L20.375 39.8573ZM21.125 39.89L21.4595 40.5612C21.578 40.5022 21.662 40.4973 21.7351 40.5111L21.875 39.7743L22.0149 39.0375C21.588 38.9564 21.172 39.0286 20.7905 39.2187L21.125 39.89ZM21.875 39.7743L21.7351 40.5111C22.0053 40.5625 22.2759 40.6024 22.5469 40.6307L22.625 39.8848L22.7031 39.1389C22.4741 39.1149 22.2447 39.0811 22.0149 39.0375L21.875 39.7743ZM22.625 39.8848L22.5469 40.6307C22.8196 40.6593 23.0926 40.6753 23.3657 40.6786L23.375 39.9287L23.3843 39.1788C23.1574 39.1759 22.9304 39.1627 22.7031 39.1389L22.625 39.8848ZM23.375 39.9287L23.3657 40.6786C23.5528 40.681 23.7423 40.7065 23.9354 40.757L24.125 40.0313L24.3146 39.3057C24.0077 39.2255 23.6972 39.1826 23.3843 39.1788L23.375 39.9287ZM24.125 40.0313L23.9354 40.757C24.209 40.8285 24.4834 40.8859 24.7585 40.9292L24.875 40.1883L24.9915 39.4474C24.7666 39.412 24.541 39.3648 24.3146 39.3057L24.125 40.0313ZM24.875 40.1883L24.7585 40.9292C25.285 41.0119 25.7477 40.8085 26.1112 40.4989L25.625 39.9279L25.1388 39.3569C25.0682 39.417 25.0228 39.4376 25.004 39.4441C24.9994 39.4457 24.9962 39.4466 24.9944 39.447C24.9925 39.4474 24.9917 39.4474 24.9916 39.4475C24.9915 39.4475 24.9918 39.4474 24.9921 39.4475C24.9924 39.4475 24.9923 39.4475 24.9915 39.4474L24.875 40.1883ZM25.625 39.9279L26.1112 40.4989C26.1438 40.4712 26.1031 40.5179 26.0007 40.518C25.8983 40.5182 25.8572 40.4713 25.8894 40.4987L26.375 39.9272L26.8606 39.3556C26.6428 39.1706 26.3517 39.0177 25.9993 39.0181C25.6469 39.0184 25.3562 39.1717 25.1388 39.3569L25.625 39.9279ZM26.375 39.9272L25.8894 40.4987C26.0979 40.6759 26.3673 40.8236 26.6922 40.8487C27.0241 40.8744 27.3175 40.7647 27.5529 40.6011L27.125 39.9852L26.697 39.3693C26.6878 39.3757 26.6942 39.3694 26.7163 39.3626C26.74 39.3553 26.7721 39.3504 26.8078 39.3532C26.8827 39.359 26.9021 39.3908 26.8606 39.3556L26.375 39.9272ZM27.125 39.9852L27.5529 40.6011C27.5592 40.5967 27.5479 40.6059 27.5193 40.6141C27.4886 40.6229 27.4501 40.6271 27.4098 40.6222C27.3284 40.6123 27.3122 40.5765 27.3621 40.6233L27.875 40.0761L28.3879 39.5288C28.1878 39.3413 27.9216 39.1732 27.5902 39.1331C27.2461 39.0914 26.94 39.2004 26.697 39.3693L27.125 39.9852ZM27.875 40.0761L27.3621 40.6233C27.6989 40.9389 28.1232 41.1774 28.6246 41.1777L28.625 40.4277L28.6254 39.6777C28.6213 39.6777 28.6044 39.6775 28.5684 39.6606C28.5295 39.6424 28.4686 39.6045 28.3879 39.5288L27.875 40.0761ZM28.625 40.4277L28.6246 41.1777C29.0549 41.1779 29.4496 41.0291 29.7977 40.7916L29.375 40.1721L28.9523 39.5525C28.8004 39.6562 28.6951 39.6777 28.6254 39.6777L28.625 40.4277ZM29.375 40.1721L29.7977 40.7916C29.814 40.7805 29.8188 40.7799 29.8122 40.7822C29.8047 40.7848 29.7892 40.7889 29.768 40.7894C29.7468 40.7899 29.7294 40.7866 29.7187 40.7833C29.7089 40.7804 29.7104 40.7792 29.7234 40.7874L30.125 40.154L30.5266 39.5206C30.2998 39.3768 30.0308 39.2826 29.732 39.2898C29.4345 39.297 29.1715 39.403 28.9523 39.5525L29.375 40.1721ZM30.125 40.154L29.7234 40.7874C30.0719 41.0084 30.4604 41.142 30.8784 41.1401L30.875 40.3901L30.8716 39.6401C30.7896 39.6404 30.6781 39.6167 30.5266 39.5206L30.125 40.154ZM30.875 40.3901L30.8784 41.1401C31.4254 41.1376 31.8606 40.8311 32.182 40.4748L31.625 39.9725L31.068 39.4702C30.8894 39.6684 30.8246 39.6403 30.8716 39.6401L30.875 40.3901ZM31.625 39.9725L32.182 40.4748C32.2471 40.4026 32.2389 40.4439 32.148 40.4622C32.0995 40.4719 32.0487 40.4702 32.0039 40.4589C31.962 40.4483 31.9413 40.4335 31.9423 40.4342L32.375 39.8216L32.8077 39.209C32.5507 39.0274 32.2191 38.9178 31.852 38.9916C31.5111 39.0602 31.2529 39.2652 31.068 39.4702L31.625 39.9725ZM32.375 39.8216L31.9423 40.4342C32.2796 40.6724 32.6586 40.8319 33.0729 40.8608L33.125 40.1126L33.1771 39.3644C33.0914 39.3584 32.9704 39.3239 32.8077 39.209L32.375 39.8216ZM33.125 40.1126L33.0729 40.8608C33.5241 40.8922 33.9385 40.7474 34.2979 40.502L33.875 39.8826L33.4521 39.2632C33.3115 39.3592 33.2259 39.3678 33.1771 39.3644L33.125 40.1126ZM33.875 39.8826L34.2979 40.502C34.3143 40.4908 34.3194 40.4901 34.3129 40.4923C34.3056 40.4949 34.2902 40.499 34.2692 40.4995C34.2481 40.5001 34.2308 40.4968 34.2201 40.4936C34.2102 40.4906 34.2116 40.4894 34.2245 40.4975L34.625 39.8634L35.0255 39.2292C34.7984 39.0858 34.5294 38.9924 34.2308 39C33.9336 39.0076 33.671 39.1138 33.4521 39.2632L33.875 39.8826ZM34.625 39.8634L34.2245 40.4975C34.4412 40.6343 34.6933 40.728 34.9732 40.738C35.2545 40.7481 35.5143 40.6718 35.7414 40.5446L35.375 39.8902L35.0086 39.2358C34.9956 39.2431 34.9921 39.2432 34.9974 39.2418C34.9999 39.2411 35.004 39.2402 35.0094 39.2396C35.0148 39.239 35.0207 39.2388 35.0268 39.239C35.0329 39.2392 35.0382 39.2398 35.0425 39.2406C35.0467 39.2414 35.0493 39.2422 35.0499 39.2424C35.0511 39.2428 35.043 39.2403 35.0255 39.2292L34.625 39.8634ZM35.375 39.8902L35.7414 40.5446C35.8462 40.4859 35.9027 40.4896 35.9469 40.5004L36.125 39.7719L36.3031 39.0433C35.8473 38.9319 35.4038 39.0145 35.0086 39.2358L35.375 39.8902ZM36.125 39.7719L35.9469 40.5004C36.31 40.5892 36.6784 40.5921 37.0427 40.5085L36.875 39.7775L36.7073 39.0465C36.5716 39.0776 36.44 39.0768 36.3031 39.0433L36.125 39.7719ZM36.875 39.7775L37.0427 40.5085C37.0427 40.5085 37.0395 40.5092 37.0347 40.509C37.0299 40.5088 37.0286 40.508 37.0321 40.5091C37.0399 40.5115 37.0775 40.5251 37.1437 40.5805L37.625 40.0053L38.1063 39.43C37.7299 39.1152 37.2467 38.9228 36.7073 39.0465L36.875 39.7775ZM37.625 40.0053L37.1437 40.5805C37.368 40.7681 37.6708 40.9195 38.0347 40.9027C38.3922 40.8861 38.6778 40.7129 38.8855 40.5199L38.375 39.9705L37.8645 39.4211C37.8222 39.4604 37.8578 39.4092 37.9653 39.4043C38.0164 39.4019 38.0594 39.4119 38.0882 39.4232C38.1142 39.4335 38.1199 39.4414 38.1063 39.43L37.625 40.0053ZM38.375 39.9705L38.8855 40.5199C38.9458 40.4639 38.9595 40.4726 38.9241 40.4811C38.9055 40.4855 38.8822 40.4875 38.858 40.4849C38.8343 40.4824 38.8197 40.4766 38.8161 40.475L39.125 39.7915L39.4339 39.1081C39.1683 38.9881 38.8738 38.9509 38.5759 39.022C38.2905 39.0902 38.0542 39.2448 37.8645 39.4211L38.375 39.9705ZM39.125 39.7915L38.8161 40.475C39.122 40.6132 39.4362 40.7103 39.7576 40.7612L39.875 40.0205L39.9924 39.2797C39.8138 39.2514 39.628 39.1958 39.4339 39.1081L39.125 39.7915ZM39.875 40.0205L39.7576 40.7612C40.0128 40.8017 40.268 40.8394 40.5232 40.8744L40.625 40.1313L40.7268 39.3882C40.482 39.3547 40.2372 39.3185 39.9924 39.2797L39.875 40.0205ZM40.625 40.1313L40.5232 40.8744C40.9846 40.9376 41.4142 40.8079 41.7862 40.5641L41.375 39.9368L40.9638 39.3096C40.8358 39.3935 40.7654 39.3935 40.7268 39.3882L40.625 40.1313ZM41.375 39.9368L41.7862 40.5641C42.0075 40.4189 42.1672 40.3412 42.2721 40.3054L42.0302 39.5955L41.7882 38.8856C41.5196 38.9771 41.2425 39.1269 40.9638 39.3096L41.375 39.9368ZM42.0302 39.5955L42.2721 40.3054C42.3493 40.2791 42.4695 40.232 42.5845 40.146C42.6934 40.0645 42.9203 39.8511 42.9203 39.4907C42.9203 39.1516 42.716 38.9434 42.631 38.8685C42.5319 38.7812 42.4254 38.7246 42.3512 38.6895L42.0302 39.3673L41.7092 40.0451C41.7284 40.0542 41.6919 40.0403 41.6395 39.9941C41.6012 39.9604 41.4203 39.7917 41.4203 39.4907C41.4203 39.1684 41.6238 38.9914 41.686 38.9449C41.7543 38.8938 41.8045 38.8801 41.7882 38.8856L42.0302 39.5955ZM42.0302 39.3673L42.3512 38.6895C42.1192 38.5796 41.8606 38.4863 41.5807 38.4064L41.375 39.1277L41.1693 39.8489C41.3894 39.9117 41.5676 39.9781 41.7092 40.0451L42.0302 39.3673ZM41.375 39.1277L41.5807 38.4064C41.3102 38.3293 41.039 38.2644 40.7672 38.2119L40.625 38.9483L40.4828 39.6847C40.711 39.7288 40.9398 39.7835 41.1693 39.8489L41.375 39.1277ZM40.625 38.9483L40.7672 38.2119C40.4565 38.1519 40.1435 38.131 39.8297 38.15L39.875 38.8986L39.9203 39.6473C40.1065 39.636 40.2935 39.6482 40.4828 39.6847L40.625 38.9483ZM39.875 38.8986L39.8297 38.15C39.4977 38.1701 39.1722 38.2439 38.8554 38.3659L39.125 39.0658L39.3946 39.7657C39.5778 39.6951 39.7523 39.6575 39.9203 39.6473L39.875 38.8986ZM39.125 39.0658L38.8554 38.3659C38.6656 38.439 38.483 38.4816 38.3063 38.4979L38.375 39.2447L38.4437 39.9916C38.767 39.9618 39.0844 39.8851 39.3946 39.7657L39.125 39.0658ZM38.375 39.2447L38.3063 38.4979C38.2378 38.5042 38.1442 38.4926 38.0079 38.4117L37.625 39.0566L37.2421 39.7015C37.6058 39.9174 38.0122 40.0313 38.4437 39.9916L38.375 39.2447ZM37.625 39.0566L38.0079 38.4117C37.7232 38.2426 37.4335 38.1017 37.1386 37.991L36.875 38.6931L36.6114 39.3952C36.8165 39.4723 37.0268 39.5736 37.2421 39.7015L37.625 39.0566ZM36.875 38.6931L37.1386 37.991C36.6527 37.8085 36.1644 37.879 35.7388 38.1346L36.125 38.7775L36.5112 39.4205C36.5585 39.392 36.5816 39.3894 36.5839 39.3891C36.5859 39.3889 36.5874 39.3889 36.5898 39.3892C36.5923 39.3895 36.5993 39.3907 36.6114 39.3952L36.875 38.6931ZM36.125 38.7775L35.7388 38.1346C35.7206 38.1456 35.7107 38.1489 35.7091 38.1495C35.7082 38.1497 35.7091 38.1494 35.7114 38.149C35.7137 38.1486 35.717 38.1482 35.7209 38.148C35.7248 38.1479 35.7286 38.148 35.732 38.1483C35.7355 38.1487 35.7378 38.1492 35.7389 38.1494C35.7413 38.15 35.736 38.1491 35.7225 38.1421L35.375 38.8067L35.0275 39.4713C35.5185 39.7281 36.0463 39.6997 36.5112 39.4205L36.125 38.7775ZM35.375 38.8067L35.7225 38.1421C35.3187 37.9309 34.8721 37.8674 34.4211 37.9948L34.625 38.7165L34.8289 39.4383C34.8779 39.4244 34.9313 39.421 35.0275 39.4713L35.375 38.8067ZM34.625 38.7165L34.4211 37.9948C34.0994 38.0857 33.7881 38.2252 33.4878 38.4062L33.875 39.0485L34.2622 39.6908C34.4619 39.5705 34.6506 39.4886 34.8289 39.4383L34.625 38.7165ZM33.875 39.0485L33.4878 38.4062C33.4739 38.4146 33.4703 38.4146 33.4765 38.4128C33.4835 38.4108 33.4963 38.4083 33.5125 38.4085C33.5286 38.4088 33.5402 38.4117 33.5452 38.4133C33.5494 38.4147 33.5436 38.4134 33.5275 38.4032L33.125 39.036L32.7225 39.6689C32.9424 39.8088 33.2004 39.9036 33.4875 39.9083C33.7754 39.9131 34.0372 39.8265 34.2622 39.6908L33.875 39.0485ZM33.125 39.036L33.5275 38.4032C33.2936 38.2544 33.0129 38.1604 32.7017 38.1804C32.3949 38.2002 32.1318 38.3262 31.9193 38.4888L32.375 39.0844L32.8307 39.6801C32.8682 39.6514 32.8551 39.6737 32.7983 39.6773C32.7718 39.679 32.7483 39.6756 32.7314 39.6707C32.7156 39.6662 32.7125 39.6625 32.7225 39.6689L33.125 39.036ZM32.375 39.0844L31.9193 38.4888C31.8579 38.5358 31.8239 38.5459 31.8173 38.5476C31.8141 38.5484 31.8144 38.548 31.8169 38.548C31.8193 38.548 31.8194 38.5484 31.8156 38.5474L31.625 39.2728L31.4344 39.9982C31.9574 40.1356 32.4414 39.978 32.8307 39.6801L32.375 39.0844ZM31.625 39.2728L31.8156 38.5474C31.575 38.4842 31.3342 38.4159 31.0932 38.3427L30.875 39.0602L30.6568 39.7778C30.9158 39.8566 31.175 39.93 31.4344 39.9982L31.625 39.2728ZM30.875 39.0602L31.0932 38.3427C30.7906 38.2506 30.4839 38.1935 30.1741 38.1732L30.125 38.9216L30.0759 39.67C30.2661 39.6825 30.4594 39.7178 30.6568 39.7778L30.875 39.0602ZM30.125 38.9216L30.1741 38.1732C29.9456 38.1582 29.7169 38.1333 29.4878 38.0985L29.375 38.8399L29.2622 39.5814C29.5331 39.6226 29.8044 39.6522 30.0759 39.67L30.125 38.9216ZM29.375 38.8399L29.4878 38.0985C29.1969 38.0542 28.905 38.0344 28.6126 38.0392L28.625 38.7891L28.6374 39.539C28.845 39.5355 29.0531 39.5496 29.2622 39.5814L29.375 38.8399ZM28.625 38.7891L28.6126 38.0392C28.429 38.0422 28.2433 38.0213 28.054 37.9748L27.875 38.7031L27.696 39.4314C28.0067 39.5078 28.321 39.5442 28.6374 39.539L28.625 38.7891ZM27.875 38.7031L28.054 37.9748C27.7274 37.8945 27.3961 37.867 27.0633 37.8944L27.125 38.6419L27.1867 39.3894C27.3539 39.3756 27.5226 39.3888 27.696 39.4314L27.875 38.7031ZM27.125 38.6419L27.0633 37.8944C26.8681 37.9106 26.6729 37.9053 26.4767 37.8785L26.375 38.6216L26.2733 39.3646C26.5771 39.4062 26.8819 39.4145 27.1867 39.3894L27.125 38.6419ZM26.375 38.6216L26.4767 37.8785C26.138 37.8321 25.7991 37.8465 25.4641 37.92L25.625 38.6526L25.7859 39.3851C25.9509 39.3489 26.112 39.3426 26.2733 39.3646L26.375 38.6216ZM25.625 38.6526L25.4641 37.92C25.294 37.9574 25.1277 37.9656 24.9618 37.9463L24.875 38.6913L24.7882 39.4362C25.1223 39.4751 25.456 39.4576 25.7859 39.3851L25.625 38.6526ZM24.875 38.6913L24.9618 37.9463C24.614 37.9058 24.2677 37.9335 23.9282 38.0258L24.125 38.7496L24.3218 39.4733C24.4823 39.4296 24.636 39.4185 24.7882 39.4362L24.875 38.6913ZM24.125 38.7496L23.9282 38.0258C23.5913 38.1175 23.2695 38.2698 22.9635 38.4706L23.375 39.0976L23.7865 39.7247C23.9805 39.5974 24.1587 39.5176 24.3218 39.4733L24.125 38.7496ZM23.375 39.0976L22.9635 38.4706C22.8148 38.5682 22.7111 38.5878 22.6401 38.5864L22.625 39.3362L22.6099 40.0861C23.0389 40.0947 23.4352 39.9552 23.7865 39.7247L23.375 39.0976ZM22.625 39.3362L22.6401 38.5864C22.4288 38.5821 22.2168 38.5616 22.0038 38.5244L21.875 39.2633L21.7462 40.0021C22.0332 40.0522 22.3212 40.0802 22.6099 40.0861L22.625 39.3362ZM21.875 39.2633L22.0038 38.5244C21.7592 38.4818 21.5145 38.4364 21.2698 38.3882L21.125 39.1241L20.9802 39.86C21.2355 39.9102 21.4908 39.9576 21.7462 40.0021L21.875 39.2633ZM21.125 39.1241L21.2698 38.3882C20.8576 38.3071 20.4516 38.3622 20.0716 38.5302L20.375 39.2161L20.6784 39.9021C20.7984 39.8489 20.8924 39.8427 20.9802 39.86L21.125 39.1241ZM20.375 39.2161L20.0716 38.5302C19.892 38.6097 19.7243 38.6514 19.5659 38.664L19.625 39.4116L19.6841 40.1593C20.0257 40.1323 20.358 40.0438 20.6784 39.9021L20.375 39.2161ZM19.625 39.4116L19.5659 38.664C19.5627 38.6642 19.4992 38.6738 19.3535 38.5531L18.875 39.1306L18.3965 39.7082C18.7508 40.0017 19.1873 40.1986 19.6841 40.1593L19.625 39.4116ZM18.875 39.1306L19.3535 38.5531C18.9554 38.2233 18.4376 38.0484 17.8814 38.2394L18.125 38.9488L18.3686 39.6581C18.3688 39.658 18.3671 39.6586 18.3637 39.6593C18.3603 39.66 18.3557 39.6606 18.3503 39.6609C18.3387 39.6615 18.329 39.6601 18.3233 39.6587C18.3124 39.6561 18.3369 39.6588 18.3965 39.7082L18.875 39.1306ZM18.125 38.9488L17.8814 38.2394C17.8403 38.2536 17.8036 38.2593 17.7224 38.2169L17.375 38.8816L17.0276 39.5463C17.4464 39.7652 17.9097 39.8157 18.3686 39.6581L18.125 38.9488ZM17.375 38.8816L17.7224 38.2169C17.4573 38.0784 17.152 38.023 16.8362 38.0937C16.5358 38.1609 16.2925 38.327 16.1027 38.5112L16.625 39.0495L17.1473 39.5877C17.2075 39.5294 17.2142 39.5462 17.1638 39.5575C17.1374 39.5634 17.1068 39.5649 17.0767 39.5604C17.0476 39.556 17.0306 39.5479 17.0276 39.5463L17.375 38.8816ZM16.625 39.0495L16.1027 38.5112C16.0661 38.5467 16.1307 38.4677 16.2819 38.4741C16.4246 38.4802 16.4708 38.556 16.4194 38.5017L15.875 39.0176L15.3306 39.5334C15.5292 39.743 15.8254 39.956 16.2181 39.9728C16.6193 39.9898 16.9339 39.7948 17.1473 39.5877L16.625 39.0495ZM15.875 39.0176L16.4194 38.5017C16.2393 38.3116 16.0113 38.1358 15.7286 38.0453C15.4287 37.9493 15.1208 37.9672 14.8373 38.0849L15.125 38.7775L15.4127 39.4701C15.4017 39.4747 15.3792 39.4818 15.3482 39.4833C15.3169 39.4848 15.29 39.4799 15.2714 39.474C15.2542 39.4685 15.2512 39.4643 15.2625 39.4721C15.2742 39.4801 15.2973 39.4983 15.3306 39.5334L15.875 39.0176ZM15.125 38.7775L14.8373 38.0849C14.5628 38.1989 14.2899 38.3294 14.0188 38.4757L14.375 39.1357L14.7312 39.7957C14.9601 39.6722 15.1872 39.5638 15.4127 39.4701L15.125 38.7775ZM14.375 39.1357L14.0188 38.4757C14.0138 38.4784 14.0205 38.474 14.0379 38.4705C14.0561 38.4668 14.0774 38.4658 14.0985 38.4686C14.1422 38.4744 14.142 38.4897 14.0952 38.4521L13.625 39.0363L13.1548 39.6206C13.358 39.7841 13.6078 39.9167 13.9015 39.9556C14.2026 39.9955 14.4856 39.9283 14.7312 39.7957L14.375 39.1357ZM13.625 39.0363L14.0952 38.4521C13.7801 38.1984 13.4326 38.0071 13.0525 37.9145L12.875 38.6431L12.6975 39.3718C12.8174 39.4011 12.9699 39.4718 13.1548 39.6206L13.625 39.0363ZM12.875 38.6431L13.0525 37.9145C12.6697 37.8212 12.2829 37.8339 11.9064 37.9486L12.125 38.666L12.3436 39.3835C12.4671 39.3459 12.5803 39.3433 12.6975 39.3718L12.875 38.6431ZM12.125 38.666L11.9064 37.9486C11.778 37.9877 11.6599 37.9914 11.5392 37.9644L11.375 38.6962L11.2108 39.428C11.5901 39.5131 11.972 39.4967 12.3436 39.3835L12.125 38.666ZM11.375 38.6962L11.5392 37.9644C10.9606 37.8346 10.4653 38.0858 10.1048 38.4328L10.625 38.9731L11.1452 39.5134C11.2172 39.4441 11.2565 39.4281 11.2598 39.4269C11.2604 39.4267 11.2538 39.4291 11.2417 39.43C11.2294 39.4309 11.2183 39.4297 11.2108 39.428L11.375 38.6962ZM10.625 38.9731L10.1048 38.4328C10.0492 38.4863 10.0545 38.4585 10.1229 38.4467C10.1578 38.4407 10.1941 38.4419 10.2261 38.4491C10.2564 38.4559 10.2713 38.4653 10.2697 38.4643L9.875 39.1021L9.48028 39.7398C9.7347 39.8973 10.0433 39.9824 10.3771 39.925C10.6955 39.8703 10.9508 39.7006 11.1452 39.5134L10.625 38.9731ZM9.875 39.1021L10.2697 38.4643C9.97566 38.2823 9.67283 38.1371 9.36135 38.0337L9.125 38.7454L8.88865 39.4572C9.07717 39.5198 9.27434 39.6123 9.48028 39.7398L9.875 39.1021ZM9.125 38.7454L9.36135 38.0337C8.92145 37.8876 8.47456 37.922 8.06018 38.1136L8.375 38.7944L8.68982 39.4751C8.77544 39.4355 8.82855 39.4373 8.88865 39.4572L9.125 38.7454ZM8.375 38.7944L8.06018 38.1136C7.83631 38.2172 7.61447 38.3041 7.3946 38.3751L7.625 39.0888L7.8554 39.8026C8.13553 39.7121 8.41369 39.6028 8.68982 39.4751L8.375 38.7944ZM7.625 39.0888L7.3946 38.3751C7.23286 38.4273 7.08046 38.4447 6.93226 38.4334L6.875 39.1812L6.81774 39.929C7.16954 39.9559 7.51714 39.9118 7.8554 39.8026L7.625 39.0888ZM6.875 39.1812L6.93226 38.4334C6.6925 38.415 6.50353 38.3946 6.36103 38.3733L6.25 39.115L6.13897 39.8568C6.3298 39.8853 6.5575 39.9091 6.81774 39.929L6.875 39.1812ZM6.25 39.115L6.36103 38.3733C6.28713 38.3622 6.2687 38.3561 6.28125 38.3599C6.28197 38.3601 6.33798 38.3759 6.4087 38.4194C6.44465 38.4415 6.51722 38.4905 6.58703 38.5768C6.66162 38.669 6.75 38.8271 6.75 39.0388H6H5.25C5.25 39.4704 5.58123 39.6714 5.62255 39.6969C5.71411 39.7532 5.80136 39.7817 5.84375 39.7947C5.93963 39.8239 6.0462 39.8429 6.13897 39.8568L6.25 39.115ZM6 39.0388H6.75C6.75 39.0692 6.74824 39.1263 6.73306 39.1961C6.71968 39.2577 6.68229 39.3947 6.56679 39.5276C6.42738 39.688 6.22281 39.785 6.00221 39.7852C5.81906 39.7853 5.68671 39.7189 5.62943 39.686C5.51724 39.6216 5.45117 39.5433 5.4406 39.5312C5.41759 39.5048 5.40211 39.483 5.39573 39.4738C5.37559 39.4449 5.36875 39.4293 5.38383 39.4575C5.40548 39.4979 5.44445 39.5758 5.50389 39.6996L6.18002 39.375L6.85615 39.0504C6.79557 38.9242 6.74453 38.821 6.70618 38.7494C6.69126 38.7215 6.66191 38.6672 6.62677 38.6167C6.61665 38.6022 6.59788 38.5761 6.57206 38.5464C6.55867 38.531 6.49026 38.4506 6.3762 38.3851C6.31797 38.3517 6.18481 38.285 6.00095 38.2852C5.77965 38.2854 5.57449 38.3826 5.43462 38.5436C5.31865 38.677 5.28091 38.8148 5.26729 38.8775C5.25187 38.9484 5.25 39.0068 5.25 39.0388H6Z" fill="#030302"/>
</svg>
