<svg width="48" height="48" viewBox="0 0 48 48" fill="none" xmlns="http://www.w3.org/2000/svg">
<path d="M17.8399 9.271L18.4254 8.80227L17.8399 9.271ZM18.7042 11.3513L18.2045 11.9106L18.7042 11.3513ZM19.1123 11.9878L19.8333 11.7813L19.1123 11.9878ZM19.8967 13.0008L19.3762 12.4609L19.8967 13.0008ZM20.6467 12.7558L20.4242 13.4721L20.6467 12.7558ZM22.1467 12.8531L22.5833 12.2433L22.1467 12.8531ZM25.8967 12.9542L25.3586 12.4317L25.8967 12.9542ZM28.8967 12.9667L29.4491 13.4741L28.8967 12.9667ZM31.1467 12.8462L31.0739 12.0998L31.1467 12.8462ZM32.6467 13.1554L32.2923 12.4944L32.6467 13.1554ZM33.3967 12.9375L33.4303 13.6867L33.3967 12.9375ZM35.6467 12.8653L35.4395 13.5861L35.6467 12.8653ZM36.3967 13.0987L36.1586 13.8099L36.3967 13.0987ZM37.1467 13.0464L37.468 13.7241L37.1467 13.0464ZM38.6467 13.1373L38.1798 13.7242L38.6467 13.1373ZM41.6467 12.9155L42.1469 13.4744L41.6467 12.9155ZM42.8855 13.8967L43.5976 13.6614L42.8855 13.8967ZM42.9655 17.6467L42.3748 18.1088L42.9655 17.6467ZM43.151 18.3967L42.4302 18.1894L43.151 18.3967ZM43.1356 22.1467L43.8562 21.9389L43.1356 22.1467ZM42.9472 28.1467L43.5685 28.5668L42.9472 28.1467ZM42.7469 28.8967L42.0043 29.0022L42.7469 28.8967ZM43.1058 31.1467L42.4133 30.8588L43.1058 31.1467ZM42.822 36.3967L42.2045 36.8224L42.822 36.3967ZM43.2411 37.8967L43.9656 38.0905L43.2411 37.8967ZM43.1156 38.6467L42.3673 38.5965L43.1156 38.6467ZM42.3533 40.9147L42.0085 40.2487L42.3533 40.9147ZM40.8533 41.0367L40.8843 41.786L40.8533 41.0367ZM39.3533 40.8395L39.0714 41.5345L39.3533 40.8395ZM35.6033 41.1714L35.3261 40.4745L35.6033 41.1714ZM33.3533 41.0138L33.8675 40.4678L33.3533 41.0138ZM32.6033 40.7942L32.855 41.5007L32.6033 40.7942ZM29.6033 41.132L30.0094 41.7625L29.6033 41.132ZM27.3533 41.0725L27.1579 41.7966L27.3533 41.0725ZM25.1033 41.1802L24.7616 41.8478L25.1033 41.1802ZM22.8533 40.8687L22.3827 40.2848L22.8533 40.8687ZM22.1033 41.1448L22.1554 40.3966L22.1033 41.1448ZM21.3533 40.9767L21.6188 40.2753L21.3533 40.9767ZM20.6033 40.7581L20.4531 41.4929L20.6033 40.7581ZM19.8533 40.7335L19.7501 39.9907L19.8533 40.7335ZM19.1033 40.9389L18.8195 40.2447L19.1033 40.9389ZM18.3533 41.1554L18.4778 41.8949L18.3533 41.1554ZM16.8533 40.9943L17.3624 40.4436L16.8533 40.9943ZM15.3533 41.2528L15.537 40.5257L15.3533 41.2528ZM14.6033 41.1707L14.578 40.4211L14.6033 41.1707ZM9.35329 40.9441L9.88168 40.4118L9.35329 40.9441ZM8.60329 40.6113L8.52478 39.8654L8.60329 40.6113ZM7.85329 41.0384L7.31421 40.517L7.85329 41.0384ZM5.60329 40.7943L5.25795 41.46L5.60329 40.7943ZM5.13591 40.539L5.54794 39.9123L5.13591 40.539ZM4.99261 38.6033L4.25192 38.7211L4.99261 38.6033ZM5.32679 34.1033L4.58358 34.2039L5.32679 34.1033ZM5.02686 28.1033L4.29588 28.2712L5.02686 28.1033ZM4.92504 24.3533L4.25942 24.0077L4.92504 24.3533ZM4.86256 22.1033L5.46448 21.6559L4.86256 22.1033ZM5.03639 16.8533L4.46304 17.3368L5.03639 16.8533ZM5.18224 14.6033L4.50238 14.92L5.18224 14.6033ZM4.99644 13.8533L4.24677 13.8755L4.99644 13.8533ZM10.8967 6.92578L10.5406 7.58583L10.8967 6.92578ZM13.1467 7.00204L12.9606 7.72859L13.1467 7.00204ZM13.5416 6.22212L13.4564 6.96727L13.5416 6.22212ZM3.74335 13.7084L2.99463 13.6645L3.74335 13.7084ZM3.87867 32.4584L3.24772 32.8639L3.87867 32.4584ZM3.92115 36.9584L3.1951 37.1464L3.92115 36.9584ZM4.13879 41.9935L4.39294 41.2879L4.13879 41.9935ZM6.4584 41.8656L6.2842 42.5951L6.4584 41.8656ZM13.2084 41.9668L12.6681 42.4869L13.2084 41.9668ZM16.2084 42.0187L16.701 42.5843L16.2084 42.0187ZM18.4584 42.3433L18.3271 41.6049L18.4584 42.3433ZM19.2084 42.3111L19.1399 43.0579L19.2084 42.3111ZM19.9584 42.166L19.6347 41.4895L19.9584 42.166ZM27.4584 41.9712L27.0186 42.5787L27.4584 41.9712ZM28.2084 42.0461L28.5566 42.7104L28.2084 42.0461ZM28.9584 42.0991L29.3739 41.4747L28.9584 42.0991ZM29.7084 42.0028L30.2168 42.5542L29.7084 42.0028ZM31.2084 41.6983L31.3531 40.9624L31.2084 41.6983ZM34.9584 42.0774L34.5584 41.443L34.9584 42.0774ZM37.9584 41.9117L37.8533 42.6543L37.9584 41.9117ZM38.7084 41.931L38.641 41.184L38.7084 41.931ZM39.4584 41.7697L39.217 41.0596L39.4584 41.7697ZM42.4584 41.6842L42.2645 40.9597L42.4584 41.6842ZM43.8168 41.924L43.2612 41.4202L43.8168 41.924ZM43.7123 39.7916L44.4317 39.5794L43.7123 39.7916ZM44.0737 35.2916L44.6679 34.8339L44.0737 35.2916ZM43.8658 34.5416L43.1327 34.3833L43.8658 34.5416ZM44.3105 30.7916L43.5615 30.8301L44.3105 30.7916ZM43.7987 28.5416L43.1446 28.9085L43.7987 28.5416ZM43.6923 27.7916L44.4151 27.992L43.6923 27.7916ZM43.7753 25.5416L44.4671 25.8313L43.7753 25.5416ZM43.7865 22.5416L43.1338 22.9109L43.7865 22.5416ZM43.7642 19.5416L44.475 19.3022L43.7642 19.5416ZM44.028 18.7916L43.5082 18.2509L44.028 18.7916ZM44.3725 18.0416L45.1171 17.9512L44.3725 18.0416ZM44.1949 17.2916L44.9022 17.0424L44.1949 17.2916ZM44.1908 12.7916L43.5082 12.4809L44.1908 12.7916ZM42.5416 11.84L42.2561 11.1465L42.5416 11.84ZM39.5416 12.3937L39.5098 11.6443L39.5416 12.3937ZM35.7916 11.9919L36.1915 11.3574L35.7916 11.9919ZM30.5416 11.8864L30.5082 11.1371L30.5416 11.8864ZM29.7916 12.1596L29.3682 11.5405L29.7916 12.1596ZM26.7916 11.8601L26.7564 12.6093L26.7916 11.8601ZM23.7916 12.351L23.9278 13.0885L23.7916 12.351ZM20.7916 12.3533L20.821 13.1027L20.7916 12.3533ZM19.768 11.3755L19.3742 12.0138L19.768 11.3755ZM19.2533 9.95585L19.9745 9.75005L19.2533 9.95585ZM18.3485 8.73118L17.751 9.18443L18.3485 8.73118ZM17.8134 8.16018L17.3189 8.72405L17.8134 8.16018ZM17.4654 7.49568L18.2109 7.41393L17.4654 7.49568ZM16.7456 7.29977L16.163 7.77209C16.1805 7.79362 16.2084 7.83145 16.1947 7.95503L16.9401 8.03761L17.6856 8.12019C17.7366 7.65968 17.6348 7.20561 17.3282 6.82745L16.7456 7.29977ZM16.9401 8.03761L16.1947 7.95503C16.1664 8.21 16.1932 8.47748 16.307 8.7331C16.4213 8.9896 16.6032 9.18912 16.8157 9.33765L17.2453 8.72293L17.675 8.10821C17.662 8.09914 17.6597 8.09536 17.6627 8.09889C17.6642 8.10059 17.6666 8.10362 17.6693 8.10798C17.6721 8.11236 17.6749 8.11739 17.6773 8.12284C17.6797 8.1283 17.6815 8.13335 17.6827 8.13765C17.6839 8.14191 17.6843 8.14471 17.6844 8.14561C17.6847 8.14746 17.6834 8.13984 17.6856 8.12019L16.9401 8.03761ZM17.2453 8.72293L16.8157 9.33765C16.9998 9.46635 17.1436 9.60127 17.2544 9.73973L17.8399 9.271L18.4254 8.80227C18.2151 8.53964 17.9625 8.30918 17.675 8.10821L17.2453 8.72293ZM17.8399 9.271L17.2544 9.73973C17.3034 9.8009 17.3352 9.87455 17.337 9.99515L18.0869 9.98394L18.8368 9.97274C18.8304 9.54384 18.6975 9.14219 18.4254 8.80227L17.8399 9.271ZM18.0869 9.98394L17.337 9.99515C17.3425 10.362 17.4144 10.7156 17.5629 11.0458L18.2469 10.7381L18.9309 10.4305C18.8743 10.3046 18.8395 10.1554 18.8368 9.97274L18.0869 9.98394ZM18.2469 10.7381L17.5629 11.0458C17.7121 11.3776 17.9305 11.6658 18.2045 11.9106L18.7042 11.3513L19.2039 10.7921C19.0733 10.6753 18.9868 10.5548 18.9309 10.4305L18.2469 10.7381ZM18.7042 11.3513L18.2045 11.9106C18.309 12.004 18.3633 12.0966 18.3913 12.1944L19.1123 11.9878L19.8333 11.7813C19.7217 11.3919 19.504 11.0602 19.2039 10.7921L18.7042 11.3513ZM19.1123 11.9878L18.3913 12.1944C18.4624 12.4425 18.5491 12.736 18.6514 13.0746L19.3693 12.8578L20.0873 12.641C19.9864 12.3068 19.9018 12.0204 19.8333 11.7813L19.1123 11.9878ZM19.3693 12.8578L18.6514 13.0746C18.7107 13.271 18.8824 13.7344 19.381 13.8697C19.887 14.0069 20.2688 13.6839 20.4172 13.5408L19.8967 13.0008L19.3762 12.4609C19.3483 12.4878 19.3605 12.4684 19.4131 12.4446C19.4728 12.4174 19.6063 12.3766 19.7737 12.422C19.9397 12.467 20.0321 12.5679 20.0675 12.6168C20.099 12.6605 20.0991 12.6801 20.0873 12.641L19.3693 12.8578ZM19.8967 13.0008L20.4172 13.5408C20.4857 13.4748 20.5161 13.468 20.5046 13.4718C20.4977 13.474 20.4837 13.4773 20.4652 13.4774C20.4467 13.4776 20.4322 13.4746 20.4242 13.4721L20.6467 12.7558L20.8692 12.0396C20.2726 11.8543 19.7491 12.1014 19.3762 12.4609L19.8967 13.0008ZM20.6467 12.7558L20.4242 13.4721C20.839 13.6009 21.262 13.5835 21.6654 13.4287L21.3967 12.7285L21.1281 12.0282C21.0314 12.0653 20.9544 12.0661 20.8692 12.0396L20.6467 12.7558ZM21.3967 12.7285L21.6654 13.4287C21.6715 13.4264 21.671 13.4273 21.6653 13.4279C21.6593 13.4285 21.6532 13.4283 21.6488 13.4275C21.6391 13.4259 21.6588 13.4261 21.7101 13.4629L22.1467 12.8531L22.5833 12.2433C22.1638 11.9429 21.6514 11.8274 21.1281 12.0282L21.3967 12.7285ZM22.1467 12.8531L21.7101 13.4629C22.0899 13.7348 22.5453 13.8808 23.0384 13.7859L22.8967 13.0494L22.755 12.3129C22.7481 12.3142 22.7035 12.3293 22.5833 12.2433L22.1467 12.8531ZM22.8967 13.0494L23.0384 13.7859C23.2876 13.7379 23.5368 13.6904 23.786 13.6433L23.6467 12.9064L23.5074 12.1694C23.2566 12.2168 23.0058 12.2646 22.755 12.3129L22.8967 13.0494ZM23.6467 12.9064L23.786 13.6433C24.0777 13.5882 24.367 13.5079 24.6535 13.4035L24.3967 12.6988L24.14 11.9942C23.9264 12.072 23.7157 12.13 23.5074 12.1694L23.6467 12.9064ZM24.3967 12.6988L24.6535 13.4035C24.6421 13.4077 24.6215 13.4129 24.5946 13.4133C24.5677 13.4137 24.5459 13.409 24.5325 13.4045C24.5202 13.4003 24.5209 13.3984 24.5345 13.4078C24.5485 13.4174 24.5729 13.4367 24.6067 13.4718L25.1467 12.9513L25.6867 12.4308C25.3175 12.0478 24.7695 11.7648 24.14 11.9942L24.3967 12.6988ZM25.1467 12.9513L24.6067 13.4718C24.8098 13.6825 25.1159 13.895 25.5188 13.8966C25.9226 13.8981 26.2303 13.6872 26.4348 13.4767L25.8967 12.9542L25.3586 12.4317C25.3131 12.4786 25.3709 12.396 25.5246 12.3966C25.6775 12.3972 25.7336 12.4795 25.6867 12.4308L25.1467 12.9513ZM25.8967 12.9542L26.4348 13.4767C26.4983 13.4113 26.5039 13.4321 26.4456 13.4459C26.4145 13.4534 26.3783 13.4553 26.3426 13.4497C26.3083 13.4443 26.288 13.4341 26.2837 13.4317L26.6467 12.7754L27.0097 12.1191C26.7408 11.9704 26.4254 11.9087 26.0978 11.9868C25.7896 12.0603 25.5452 12.2396 25.3586 12.4317L25.8967 12.9542ZM26.6467 12.7754L26.2837 13.4317C26.696 13.6597 27.1584 13.7263 27.6233 13.5789L27.3967 12.864L27.1702 12.149C27.1351 12.1601 27.0975 12.1676 27.0097 12.1191L26.6467 12.7754ZM27.3967 12.864L27.6233 13.5789C27.6224 13.5792 27.6157 13.5811 27.605 13.5814C27.5942 13.5817 27.5858 13.5802 27.582 13.5792C27.575 13.5774 27.6027 13.5826 27.6644 13.6344L28.1467 13.0601L28.6291 12.4858C28.2376 12.157 27.7265 11.9727 27.1702 12.149L27.3967 12.864ZM28.1467 13.0601L27.6644 13.6344C27.8992 13.8316 28.2256 13.9869 28.6144 13.9385C28.9823 13.8927 29.2585 13.6816 29.4491 13.4741L28.8967 12.9667L28.3443 12.4594C28.2849 12.5241 28.3112 12.4647 28.4291 12.45C28.4893 12.4425 28.5449 12.4512 28.5868 12.4662C28.6249 12.4798 28.6385 12.4937 28.6291 12.4858L28.1467 13.0601ZM28.8967 12.9667L29.4491 13.4741C29.4851 13.4348 29.5126 13.4113 29.5304 13.3982C29.5479 13.3852 29.5529 13.3846 29.5449 13.3877C29.5359 13.3912 29.517 13.3968 29.491 13.3979C29.4646 13.399 29.4422 13.3951 29.427 13.3904L29.6467 12.6733L29.8665 11.9563C29.2291 11.7609 28.6966 12.0759 28.3443 12.4594L28.8967 12.9667ZM29.6467 12.6733L29.427 13.3904C29.7165 13.4792 30.0086 13.5425 30.3029 13.5796L30.3967 12.8355L30.4905 12.0914C30.2848 12.0655 30.0769 12.0207 29.8665 11.9563L29.6467 12.6733ZM30.3967 12.8355L30.3029 13.5796C30.608 13.6181 30.9139 13.6225 31.2196 13.5927L31.1467 12.8462L31.0739 12.0998C30.8795 12.1187 30.6854 12.116 30.4905 12.0914L30.3967 12.8355ZM31.1467 12.8462L31.2196 13.5927C31.2467 13.59 31.3175 13.5889 31.4549 13.6891L31.8967 13.083L32.3386 12.477C31.9759 12.2126 31.5467 12.0536 31.0739 12.0998L31.1467 12.8462ZM31.8967 13.083L31.4549 13.6891C31.6633 13.8411 31.9133 13.9567 32.1997 13.9844C32.4908 14.0124 32.763 13.944 33.0011 13.8163L32.6467 13.1554L32.2923 12.4944C32.2841 12.4988 32.2864 12.4963 32.2981 12.4937C32.3106 12.491 32.3268 12.4896 32.3437 12.4913C32.3516 12.492 32.3581 12.4933 32.363 12.4945C32.3654 12.4952 32.3672 12.4957 32.3685 12.4961C32.3697 12.4966 32.3704 12.4968 32.3704 12.4968C32.3703 12.4968 32.3596 12.4923 32.3386 12.477L31.8967 13.083ZM32.6467 13.1554L33.0011 13.8163C33.1654 13.7282 33.3067 13.6923 33.4303 13.6867L33.3967 12.9375L33.3631 12.1882C32.9868 12.2051 32.628 12.3144 32.2923 12.4944L32.6467 13.1554ZM33.3967 12.9375L33.4303 13.6867C33.4917 13.684 33.5872 13.6984 33.7317 13.7945L34.1467 13.1698L34.5617 12.545C34.2063 12.3089 33.8017 12.1685 33.3631 12.1882L33.3967 12.9375ZM34.1467 13.1698L33.7317 13.7945C33.9733 13.955 34.2711 14.0556 34.6028 14.0195C34.9247 13.9845 35.189 13.8304 35.3928 13.6507L34.8967 13.0882L34.4007 12.5257C34.3544 12.5664 34.3687 12.5361 34.4406 12.5283C34.4757 12.5245 34.5088 12.5282 34.5349 12.5354C34.5594 12.5422 34.5685 12.5495 34.5617 12.545L34.1467 13.1698ZM34.8967 13.0882L35.3928 13.6507C35.458 13.5932 35.4895 13.5848 35.4854 13.586C35.4826 13.5868 35.4745 13.5887 35.4628 13.5888C35.4512 13.5888 35.4427 13.587 35.4395 13.5861L35.6467 12.8653L35.854 12.1445C35.2885 11.9819 34.7815 12.1898 34.4007 12.5257L34.8967 13.0882ZM35.6467 12.8653L35.4395 13.5861C35.679 13.655 35.9187 13.7295 36.1586 13.8099L36.3967 13.0987L36.6349 12.3875C36.3748 12.3004 36.1145 12.2194 35.854 12.1445L35.6467 12.8653ZM36.3967 13.0987L36.1586 13.8099C36.6022 13.9584 37.0525 13.9212 37.468 13.7241L37.1467 13.0464L36.8254 12.3688C36.741 12.4088 36.6912 12.4064 36.6349 12.3875L36.3967 13.0987ZM37.1467 13.0464L37.468 13.7241C37.6364 13.6443 37.7877 13.6087 37.9264 13.6032L37.8967 12.8538L37.867 12.1044C37.5057 12.1187 37.1571 12.2115 36.8254 12.3688L37.1467 13.0464ZM37.8967 12.8538L37.9264 13.6032C37.9515 13.6022 38.0305 13.6054 38.1798 13.7242L38.6467 13.1373L39.1137 12.5504C38.7629 12.2713 38.3419 12.0855 37.867 12.1044L37.8967 12.8538ZM38.6467 13.1373L38.1798 13.7242C38.4192 13.9147 38.7428 14.0552 39.1205 14.005C39.4782 13.9575 39.7506 13.7557 39.9426 13.5519L39.3967 13.0376L38.8508 12.5233C38.7928 12.5849 38.8152 12.5324 38.9229 12.5181C38.978 12.5108 39.0298 12.5176 39.0701 12.531C39.1071 12.5433 39.1214 12.5565 39.1137 12.5504L38.6467 13.1373ZM39.3967 13.0376L39.9426 13.5519C39.9949 13.4965 39.9496 13.5721 39.8074 13.5788C39.6557 13.5861 39.5899 13.5068 39.6256 13.5413L40.1467 13.0019L40.6678 12.4625C40.4535 12.2555 40.1378 12.0614 39.736 12.0805C39.3438 12.0992 39.0486 12.3134 38.8508 12.5233L39.3967 13.0376ZM40.1467 13.0019L39.6256 13.5413C39.9763 13.8801 40.4485 14.1337 41.0085 14.0493L40.8967 13.3077L40.7849 12.566C40.7909 12.5651 40.7982 12.565 40.8048 12.5659C40.8111 12.5667 40.8115 12.5677 40.8049 12.565C40.7898 12.5588 40.743 12.5351 40.6678 12.4625L40.1467 13.0019ZM40.8967 13.3077L41.0085 14.0493C41.4432 13.9838 41.8229 13.7644 42.1469 13.4744L41.6467 12.9155L41.1465 12.3567C40.9705 12.5142 40.8502 12.5562 40.7849 12.566L40.8967 13.3077ZM41.6467 12.9155L42.1469 13.4744C42.3047 13.3332 42.3782 13.3375 42.3811 13.3376L42.3967 12.5877L42.4123 11.8379C41.9152 11.8275 41.4887 12.0504 41.1465 12.3567L41.6467 12.9155ZM42.3967 12.5877L42.3811 13.3376C42.3677 13.3373 42.3224 13.3344 42.2616 13.308C42.1965 13.2797 42.1345 13.2332 42.0869 13.1727C41.999 13.0607 42.0175 12.9785 42.0167 13.0504L42.7666 13.0586L43.5166 13.0668C43.5192 12.8301 43.4777 12.5149 43.2665 12.246C43.0318 11.9473 42.7001 11.8439 42.4123 11.8379L42.3967 12.5877ZM42.7666 13.0586L42.0167 13.0504C42.0126 13.4279 42.0608 13.7913 42.1734 14.132L42.8855 13.8967L43.5976 13.6614C43.545 13.5022 43.514 13.3068 43.5166 13.0668L42.7666 13.0586ZM42.8855 13.8967L42.1734 14.132C42.2346 14.3172 42.2661 14.4959 42.2715 14.6702L43.0211 14.6467L43.7708 14.6232C43.7606 14.2975 43.7017 13.9762 43.5976 13.6614L42.8855 13.8967ZM43.0211 14.6467L42.2715 14.6702C42.2778 14.8721 42.2649 15.0747 42.2324 15.2783L42.973 15.3967L43.7136 15.5151C43.7609 15.2188 43.7801 14.9213 43.7708 14.6232L43.0211 14.6467ZM42.973 15.3967L42.2324 15.2783C42.191 15.5372 42.1544 15.7962 42.1225 16.0552L42.8669 16.1467L43.6113 16.2382C43.6409 15.9972 43.675 15.7562 43.7136 15.5151L42.973 15.3967ZM42.8669 16.1467L42.1225 16.0552C42.094 16.2868 42.0568 16.5187 42.0108 16.7509L42.7465 16.8967L43.4822 17.0425C43.5352 16.7748 43.5783 16.5066 43.6113 16.2382L42.8669 16.1467ZM42.7465 16.8967L42.0108 16.7509C41.9087 17.266 42.0805 17.7326 42.3748 18.1088L42.9655 17.6467L43.5562 17.1846C43.5046 17.1187 43.4887 17.0775 43.484 17.0615C43.4805 17.0495 43.4813 17.0467 43.4822 17.0425L42.7465 16.8967ZM42.9655 17.6467L42.3748 18.1088C42.4222 18.1694 42.4301 18.2004 42.4305 18.2018C42.4306 18.2024 42.4299 18.1993 42.43 18.1941C42.4301 18.1889 42.4309 18.1869 42.4302 18.1894L43.151 18.3967L43.8717 18.6041C44.0251 18.0711 43.8633 17.5771 43.5562 17.1846L42.9655 17.6467ZM43.151 18.3967L42.4302 18.1894C42.3043 18.6269 42.352 19.0647 42.5437 19.4684L43.2212 19.1467L43.8987 18.825C43.8529 18.7287 43.8538 18.6665 43.8717 18.6041L43.151 18.3967ZM43.2212 19.1467L42.5437 19.4684C42.5481 19.4777 42.5473 19.4788 42.5462 19.4726C42.5456 19.4697 42.5451 19.4657 42.5449 19.4611C42.5447 19.4564 42.5448 19.4518 42.5452 19.4476C42.5461 19.4385 42.5479 19.4352 42.5464 19.4389C42.5448 19.4431 42.5392 19.4561 42.5246 19.4778L43.1467 19.8967L43.7687 20.3157C44.0692 19.8696 44.1428 19.3391 43.8987 18.825L43.2212 19.1467ZM43.1467 19.8967L42.5246 19.4778C42.2706 19.8548 42.1378 20.296 42.2169 20.7702L42.9567 20.6467L43.6965 20.5233C43.6921 20.4974 43.6859 20.4386 43.7687 20.3157L43.1467 19.8967ZM42.9567 20.6467L42.2169 20.7702C42.2524 20.9826 42.2711 21.1941 42.2734 21.4049L43.0234 21.3967L43.7733 21.3885C43.7702 21.0994 43.7444 20.8108 43.6965 20.5233L42.9567 20.6467ZM43.0234 21.3967L42.2734 21.4049C42.2769 21.7252 42.3249 22.0422 42.4149 22.3545L43.1356 22.1467L43.8562 21.9389C43.8021 21.7512 43.7753 21.5683 43.7733 21.3885L43.0234 21.3967ZM43.1356 22.1467L42.4149 22.3545C42.4605 22.5127 42.4726 22.6631 42.4556 22.8114L43.2007 22.8967L43.9459 22.9821C43.9862 22.6303 43.9548 22.2808 43.8562 21.9389L43.1356 22.1467ZM43.2007 22.8967L42.4556 22.8114C42.4272 23.0598 42.3979 23.3082 42.3679 23.5567L43.1124 23.6467L43.857 23.7367C43.8874 23.4852 43.9171 23.2336 43.9459 22.9821L43.2007 22.8967ZM43.1124 23.6467L42.3679 23.5567C42.3361 23.8193 42.3111 24.0819 42.2928 24.3447L43.041 24.3967L43.7892 24.4487C43.8057 24.2115 43.8283 23.9742 43.857 23.7367L43.1124 23.6467ZM43.041 24.3967L42.2928 24.3447C42.2707 24.6634 42.2922 24.9813 42.3564 25.2964L43.0913 25.1467L43.8262 24.997C43.7886 24.8122 43.7766 24.63 43.7892 24.4487L43.041 24.3967ZM43.0913 25.1467L42.3564 25.2964C42.4067 25.5436 42.4557 25.7909 42.5031 26.0381L43.2397 25.8967L43.9762 25.7553C43.9277 25.5025 43.8777 25.2498 43.8262 24.997L43.0913 25.1467ZM43.2397 25.8967L42.5031 26.0381C42.5405 26.2328 42.555 26.4255 42.5475 26.6172L43.2969 26.6467L44.0464 26.6762C44.0585 26.3679 44.0348 26.0606 43.9762 25.7553L43.2397 25.8967ZM43.2969 26.6467L42.5475 26.6172C42.5384 26.85 42.5212 27.0828 42.4959 27.3158L43.2415 27.3967L43.9871 27.4776C44.0161 27.2106 44.0358 26.9435 44.0464 26.6762L43.2969 26.6467ZM43.2415 27.3967L42.4959 27.3158C42.4843 27.4222 42.4401 27.5577 42.3259 27.7266L42.9472 28.1467L43.5685 28.5668C43.7924 28.2357 43.9444 27.8712 43.9871 27.4776L43.2415 27.3967ZM42.9472 28.1467L42.3259 27.7266C42.0741 28.0989 41.9377 28.5333 42.0043 29.0022L42.7469 28.8967L43.4894 28.7913C43.485 28.7602 43.4822 28.6945 43.5685 28.5668L42.9472 28.1467ZM42.7469 28.8967L42.0043 29.0022C42.0561 29.3669 42.19 29.7121 42.3857 30.0352L43.0272 29.6467L43.6688 29.2582C43.5616 29.0813 43.5086 28.9265 43.4894 28.7913L42.7469 28.8967ZM43.0272 29.6467L42.3857 30.0352C42.4793 30.1899 42.5071 30.3099 42.5081 30.4042L43.258 30.3967L44.008 30.3893C44.004 29.9836 43.8779 29.6036 43.6688 29.2582L43.0272 29.6467ZM43.258 30.3967L42.5081 30.4042C42.5095 30.5447 42.4816 30.6945 42.4133 30.8588L43.1058 31.1467L43.7984 31.4347C43.938 31.0989 44.0116 30.7487 44.008 30.3893L43.258 30.3967ZM43.1058 31.1467L42.4133 30.8588C42.2898 31.1559 42.1994 31.4584 42.1449 31.7657L42.8834 31.8967L43.6219 32.0277C43.656 31.835 43.714 31.6375 43.7984 31.4347L43.1058 31.1467ZM42.8834 31.8967L42.1449 31.7657C42.0973 32.034 42.0599 32.3026 42.0328 32.5715L42.779 32.6467L43.5252 32.722C43.5486 32.4908 43.5807 32.2594 43.6219 32.0277L42.8834 31.8967ZM42.779 32.6467L42.0328 32.5715C42.0078 32.8193 41.9817 33.0672 41.9546 33.315L42.7001 33.3967L43.4457 33.4784C43.4733 33.2263 43.4998 32.9741 43.5252 32.722L42.779 32.6467ZM42.7001 33.3967L41.9546 33.315C41.9186 33.6435 41.9344 33.9718 42.0009 34.2969L42.7357 34.1467L43.4705 33.9965C43.4347 33.8217 43.4269 33.6499 43.4457 33.4784L42.7001 33.3967ZM42.7357 34.1467L42.0009 34.2969C42.0382 34.4796 42.0493 34.6595 42.0354 34.8386L42.7832 34.8967L43.5309 34.9548C43.5558 34.6339 43.5353 34.3138 43.4705 33.9965L42.7357 34.1467ZM42.7832 34.8967L42.0354 34.8386C42.0194 35.0447 41.9851 35.2524 41.9318 35.462L42.6587 35.6467L43.3856 35.8314C43.4594 35.5411 43.5081 35.2487 43.5309 34.9548L42.7832 34.8967ZM42.6587 35.6467L41.9318 35.462C41.8055 35.9595 41.9333 36.429 42.2045 36.8224L42.822 36.3967L43.4395 35.971C43.3986 35.9116 43.3877 35.8757 43.3848 35.8622C43.3825 35.8518 43.3823 35.8446 43.3856 35.8314L42.6587 35.6467ZM42.822 36.3967L42.2045 36.8224C42.3442 37.025 42.4407 37.2152 42.5026 37.3931L43.211 37.1467L43.9194 36.9003C43.8073 36.5782 43.6446 36.2685 43.4395 35.971L42.822 36.3967ZM43.211 37.1467L42.5026 37.3931C42.5414 37.5047 42.5437 37.6014 42.5166 37.7029L43.2411 37.8967L43.9656 38.0905C44.0722 37.692 44.0544 37.2887 43.9194 36.9003L43.211 37.1467ZM43.2411 37.8967L42.5166 37.7029C42.4375 37.9983 42.3874 38.2964 42.3673 38.5965L43.1156 38.6467L43.8639 38.6969C43.8773 38.497 43.9109 38.2951 43.9656 38.0905L43.2411 37.8967ZM43.1156 38.6467L42.3673 38.5965C42.3479 38.8855 42.3511 39.1745 42.3768 39.4632L43.1238 39.3967L43.8709 39.3302C43.8521 39.1189 43.8498 38.908 43.8639 38.6969L43.1156 38.6467ZM43.1238 39.3967L42.3768 39.4632C42.3976 39.6974 42.411 39.9314 42.4168 40.1654L43.1665 40.1467L43.9163 40.1281C43.9097 39.862 43.8946 39.5961 43.8709 39.3302L43.1238 39.3967ZM43.1665 40.1467L42.4168 40.1654C42.4182 40.2237 42.4076 40.2027 42.4342 40.1439C42.449 40.1112 42.4742 40.0695 42.5146 40.0284C42.5555 39.9868 42.602 39.956 42.6475 39.9358L42.9521 40.6212L43.2567 41.3065C43.8196 41.0564 43.9255 40.4968 43.9163 40.1281L43.1665 40.1467ZM42.9521 40.6212L42.6475 39.9358C42.4784 40.0109 42.2637 40.1166 42.0085 40.2487L42.3533 40.9147L42.6981 41.5808C42.9428 41.4541 43.1273 41.364 43.2567 41.3065L42.9521 40.6212ZM42.3533 40.9147L42.0085 40.2487C41.875 40.3178 41.7745 40.3299 41.6904 40.3201L41.6033 41.065L41.5162 41.8099C41.9321 41.8586 42.3315 41.7705 42.6981 41.5808L42.3533 40.9147ZM41.6033 41.065L41.6904 40.3201C41.4014 40.2863 41.1119 40.2753 40.8223 40.2873L40.8533 41.0367L40.8843 41.786C41.0946 41.7773 41.3051 41.7853 41.5162 41.8099L41.6033 41.065ZM40.8533 41.0367L40.8223 40.2873C40.6028 40.2964 40.3834 40.2921 40.1637 40.2743L40.1033 41.0219L40.0429 41.7695C40.3232 41.7921 40.6037 41.7976 40.8843 41.786L40.8533 41.0367ZM40.1033 41.0219L40.1637 40.2743C39.9953 40.2607 39.8198 40.2194 39.6351 40.1445L39.3533 40.8395L39.0714 41.5345C39.3868 41.6624 39.7113 41.7427 40.0429 41.7695L40.1033 41.0219ZM39.3533 40.8395L39.6351 40.1445C39.3577 40.032 39.0573 40.013 38.7629 40.1013C38.4832 40.1851 38.2545 40.3515 38.0716 40.5354L38.6033 41.0644L39.135 41.5933C39.1671 41.561 39.1894 41.5444 39.2006 41.5371C39.2114 41.53 39.209 41.5335 39.1937 41.5381C39.1771 41.5431 39.1534 41.5469 39.1262 41.5455C39.0993 41.5441 39.0801 41.5381 39.0714 41.5345L39.3533 40.8395ZM38.6033 41.0644L38.0716 40.5354C38.0321 40.5751 38.1007 40.4873 38.2633 40.4949C38.4156 40.502 38.4633 40.5853 38.4079 40.5245L37.8533 41.0293L37.2987 41.5342C37.4933 41.748 37.791 41.9744 38.1933 41.9932C38.6059 42.0125 38.9244 41.8049 39.135 41.5933L38.6033 41.0644ZM37.8533 41.0293L38.4079 40.5245C38.0817 40.1661 37.6307 39.8586 37.0651 39.8874L37.1033 40.6365L37.1414 41.3855C37.116 41.3868 37.1086 41.3782 37.1303 41.3895C37.1574 41.4037 37.2151 41.4424 37.2987 41.5342L37.8533 41.0293ZM37.1033 40.6365L37.0651 39.8874C36.7032 39.9059 36.3547 40.0034 36.0239 40.1651L36.3533 40.8389L36.6827 41.5127C36.8519 41.43 37.0034 41.3925 37.1414 41.3855L37.1033 40.6365ZM36.3533 40.8389L36.0239 40.1651C35.7904 40.2793 35.5578 40.3823 35.3261 40.4745L35.6033 41.1714L35.8805 41.8683C36.1488 41.7616 36.4162 41.643 36.6827 41.5127L36.3533 40.8389ZM35.6033 41.1714L35.3261 40.4745C35.1583 40.5412 35.0032 40.5697 34.8562 40.5691L34.8533 41.3191L34.8504 42.0691C35.2034 42.0705 35.5482 42.0004 35.8805 41.8683L35.6033 41.1714ZM34.8533 41.3191L34.8562 40.5691C34.5888 40.5681 34.3214 40.5764 34.0541 40.5939L34.1033 41.3423L34.1525 42.0907C34.3852 42.0754 34.6178 42.0682 34.8504 42.0691L34.8533 41.3191ZM34.1033 41.3423L34.0541 40.5939C34.0595 40.5936 34.0542 40.5965 34.0292 40.5855C34.0002 40.5728 33.9455 40.5412 33.8675 40.4678L33.3533 41.0138L32.8391 41.5597C33.1825 41.8832 33.6266 42.1253 34.1525 42.0907L34.1033 41.3423ZM33.3533 41.0138L33.8675 40.4678C33.4835 40.1061 32.9475 39.8754 32.3515 40.0877L32.6033 40.7942L32.855 41.5007C32.8487 41.5029 32.8345 41.5068 32.8146 41.5074C32.7946 41.5081 32.778 41.5051 32.7676 41.5021C32.7489 41.4966 32.7738 41.4983 32.8391 41.5597L33.3533 41.0138ZM32.6033 40.7942L32.3515 40.0877C32.2299 40.1311 32.124 40.1358 32.0173 40.1119L31.8533 40.8438L31.6893 41.5756C32.0826 41.6638 32.4767 41.6355 32.855 41.5007L32.6033 40.7942ZM31.8533 40.8438L32.0173 40.1119C31.6349 40.0262 31.2503 40.0452 30.8771 40.1632L31.1033 40.8783L31.3294 41.5934C31.4562 41.5533 31.5717 41.5493 31.6893 41.5756L31.8533 40.8438ZM31.1033 40.8783L30.8771 40.1632C30.73 40.2098 30.5932 40.2202 30.4587 40.2011L30.3533 40.9437L30.2479 41.6863C30.6134 41.7381 30.9766 41.705 31.3294 41.5934L31.1033 40.8783ZM30.3533 40.9437L30.4587 40.2011C29.9995 40.136 29.5703 40.2611 29.1972 40.5014L29.6033 41.132L30.0094 41.7625C30.1362 41.6808 30.2071 41.6805 30.2479 41.6863L30.3533 40.9437ZM29.6033 41.132L29.1972 40.5014C29.1966 40.5018 29.2143 40.4904 29.2494 40.4824C29.2866 40.4739 29.3281 40.4729 29.3676 40.4804C29.4434 40.4947 29.449 40.5267 29.3894 40.4657L28.8533 40.9902L28.3172 41.5147C28.5075 41.7093 28.7632 41.8927 29.089 41.9543C29.4342 42.0195 29.7521 41.9283 30.0094 41.7625L29.6033 41.132ZM28.8533 40.9902L29.3894 40.4657C29.195 40.267 28.9253 40.0765 28.5773 40.0302C28.2117 39.9815 27.8932 40.109 27.6511 40.292L28.1033 40.8903L28.5555 41.4887C28.5621 41.4836 28.5483 41.4956 28.5137 41.5064C28.4762 41.5181 28.4289 41.5236 28.3793 41.517C28.2813 41.504 28.2616 41.4579 28.3172 41.5147L28.8533 40.9902ZM28.1033 40.8903L27.6511 40.292C27.5905 40.3378 27.5573 40.3473 27.5512 40.3488C27.5482 40.3495 27.5485 40.3491 27.5509 40.3492C27.5532 40.3492 27.5529 40.3496 27.5487 40.3484L27.3533 41.0725L27.1579 41.7966C27.6792 41.9373 28.1639 41.7846 28.5555 41.4887L28.1033 40.8903ZM27.3533 41.0725L27.5487 40.3484C27.2587 40.2702 26.9665 40.217 26.6726 40.1897L26.6033 40.9365L26.534 41.6833C26.7401 41.7025 26.9479 41.74 27.1579 41.7966L27.3533 41.0725ZM26.6033 40.9365L26.6726 40.1897C26.2311 40.1488 25.8189 40.2732 25.4548 40.5016L25.8533 41.1369L26.2518 41.7723C26.3877 41.6871 26.4754 41.6779 26.534 41.6833L26.6033 40.9365ZM25.8533 41.1369L25.4548 40.5016C25.4355 40.5136 25.4249 40.5176 25.4228 40.5183C25.4218 40.5186 25.4225 40.5183 25.4249 40.5178C25.4273 40.5173 25.4308 40.5168 25.4351 40.5166C25.4394 40.5163 25.4437 40.5164 25.4478 40.5167C25.4519 40.5171 25.455 40.5177 25.4569 40.5181C25.4608 40.519 25.4571 40.5187 25.445 40.5126L25.1033 41.1802L24.7616 41.8478C25.261 42.1034 25.7918 42.0608 26.2518 41.7723L25.8533 41.1369ZM25.1033 41.1802L25.445 40.5126C25.1178 40.3451 24.7728 40.2394 24.4135 40.2105L24.3533 40.958L24.2931 41.7056C24.4338 41.717 24.5888 41.7594 24.7616 41.8478L25.1033 41.1802ZM24.3533 40.958L24.4135 40.2105C24.2649 40.1985 24.1044 40.1561 23.9288 40.0715L23.6033 40.7472L23.2778 41.4229C23.6022 41.5792 23.9417 41.6773 24.2931 41.7056L24.3533 40.958ZM23.6033 40.7472L23.9288 40.0715C23.6793 39.9513 23.3995 39.8997 23.1083 39.9469C22.8248 39.9928 22.5823 40.1238 22.3827 40.2848L22.8533 40.8687L23.3239 41.4527C23.3742 41.4122 23.3818 41.4222 23.3483 41.4276C23.3319 41.4302 23.3139 41.4303 23.2974 41.4276C23.2815 41.4251 23.2745 41.4213 23.2778 41.4229L23.6033 40.7472ZM22.8533 40.8687L22.3827 40.2848C22.2371 40.4021 22.1681 40.3975 22.1554 40.3966L22.1033 41.1448L22.0512 41.893C22.5385 41.9269 22.9695 41.7383 23.3239 41.4527L22.8533 40.8687ZM22.1033 41.1448L22.1554 40.3966C21.9831 40.3846 21.8049 40.3458 21.6188 40.2753L21.3533 40.9767L21.0878 41.6782C21.4017 41.797 21.7234 41.8702 22.0512 41.893L22.1033 41.1448ZM21.3533 40.9767L21.6188 40.2753C21.3331 40.1672 21.0446 40.0828 20.7535 40.0233L20.6033 40.7581L20.4531 41.4929C20.662 41.5356 20.8735 41.597 21.0878 41.6782L21.3533 40.9767ZM20.6033 40.7581L20.7535 40.0233C20.4211 39.9553 20.0854 39.9441 19.7501 39.9907L19.8533 40.7335L19.9564 41.4764C20.1212 41.4535 20.2855 41.4587 20.4531 41.4929L20.6033 40.7581ZM19.8533 40.7335L19.7501 39.9907C19.4339 40.0346 19.1234 40.1204 18.8195 40.2447L19.1033 40.9389L19.3871 41.6331C19.5832 41.553 19.7726 41.5019 19.9564 41.4764L19.8533 40.7335ZM19.1033 40.9389L18.8195 40.2447C18.6174 40.3273 18.4207 40.3834 18.2288 40.4158L18.3533 41.1554L18.4778 41.8949C18.7858 41.8431 19.0892 41.7549 19.3871 41.6331L19.1033 40.9389ZM18.3533 41.1554L18.2288 40.4158C17.98 40.4577 17.7311 40.4989 17.4823 40.5396L17.6033 41.2798L17.7242 42.02C17.9754 41.9789 18.2266 41.9372 18.4778 41.8949L18.3533 41.1554ZM17.6033 41.2798L17.4823 40.5396C17.4861 40.539 17.4915 40.5387 17.4967 40.5393C17.5017 40.5398 17.5016 40.5406 17.495 40.5381C17.4805 40.5326 17.4354 40.5111 17.3624 40.4436L16.8533 40.9943L16.3441 41.545C16.7011 41.8751 17.1735 42.1099 17.7242 42.02L17.6033 41.2798ZM16.8533 40.9943L17.3624 40.4436C17.1492 40.2465 16.8497 40.0702 16.475 40.0718C16.101 40.0734 15.8032 40.2517 15.5916 40.4493L16.1033 40.9976L16.615 41.5459C16.6533 41.5101 16.6055 41.5713 16.4815 41.5718C16.3569 41.5723 16.3074 41.511 16.3441 41.545L16.8533 40.9943ZM16.1033 40.9976L15.5916 40.4493C15.5222 40.514 15.4862 40.5265 15.4867 40.5264C15.4878 40.526 15.4955 40.5237 15.508 40.5231C15.5206 40.5226 15.531 40.5241 15.537 40.5257L15.3533 41.2528L15.1695 41.9799C15.745 42.1254 16.2465 41.8898 16.615 41.5459L16.1033 40.9976ZM15.3533 41.2528L15.537 40.5257C15.2209 40.4458 14.9005 40.4102 14.578 40.4211L14.6033 41.1707L14.6286 41.9203C14.8061 41.9143 14.9857 41.9335 15.1695 41.9799L15.3533 41.2528ZM14.6033 41.1707L14.578 40.4211C14.4158 40.4266 14.2495 40.4046 14.076 40.3506L13.8533 41.0668L13.6306 41.783C13.957 41.8845 14.2908 41.9317 14.6286 41.9203L14.6033 41.1707ZM13.8533 41.0668L14.076 40.3506C13.6975 40.2329 13.3081 40.2197 12.9228 40.3152L13.1033 41.0431L13.2837 41.7711C13.3985 41.7426 13.5091 41.7452 13.6306 41.783L13.8533 41.0668ZM13.1033 41.0431L12.9228 40.3152C12.8413 40.3354 12.7587 40.3325 12.6501 40.2857L12.3533 40.9745L12.0565 41.6632C12.4478 41.8319 12.8652 41.8749 13.2837 41.7711L13.1033 41.0431ZM12.3533 40.9745L12.6501 40.2857C12.2425 40.1101 11.808 40.0803 11.3796 40.2142L11.6033 40.9301L11.827 41.6459C11.8986 41.6235 11.9641 41.6234 12.0565 41.6632L12.3533 40.9745ZM11.6033 40.9301L11.3796 40.2142C11.3592 40.2206 11.349 40.22 11.3406 40.2187C11.3298 40.2171 11.2992 40.2103 11.2463 40.1777L10.8533 40.8165L10.4603 41.4553C10.8701 41.7074 11.3435 41.797 11.827 41.6459L11.6033 40.9301ZM10.8533 40.8165L11.2463 40.1777C10.9903 40.0202 10.6802 39.9366 10.3458 39.9966C10.0276 40.0537 9.77327 40.2255 9.57995 40.4138L10.1033 40.9511L10.6266 41.4883C10.6833 41.4331 10.6789 41.4608 10.6107 41.473C10.5757 41.4793 10.5389 41.4783 10.5061 41.4712C10.4749 41.4644 10.4593 41.4547 10.4603 41.4553L10.8533 40.8165ZM10.1033 40.9511L9.57995 40.4138C9.53975 40.453 9.59494 40.3807 9.73526 40.382C9.87385 40.3833 9.92514 40.455 9.88168 40.4118L9.35329 40.9441L8.82489 41.4764C9.03143 41.6814 9.33272 41.8783 9.72131 41.8819C10.1116 41.8856 10.4168 41.6927 10.6266 41.4883L10.1033 40.9511ZM9.35329 40.9441L9.88168 40.4118C9.53908 40.0717 9.07873 39.8071 8.52478 39.8654L8.60329 40.6113L8.68179 41.3572C8.66478 41.359 8.65828 41.3533 8.67409 41.3603C8.69548 41.3698 8.74691 41.3989 8.82489 41.4764L9.35329 40.9441ZM8.60329 40.6113L8.52478 39.8654C8.03772 39.9167 7.63491 40.1855 7.31421 40.517L7.85329 41.0384L8.39236 41.5599C8.57166 41.3745 8.66885 41.3585 8.68179 41.3572L8.60329 40.6113ZM7.85329 41.0384L7.31421 40.517C7.23709 40.5967 7.19114 40.6203 7.18104 40.6246C7.17729 40.6263 7.18194 40.6238 7.19366 40.6223C7.20579 40.6207 7.2185 40.621 7.22932 40.6229L7.10329 41.3622L6.97726 42.1015C7.5638 42.2015 8.04775 41.9162 8.39236 41.5599L7.85329 41.0384ZM7.10329 41.3622L7.22932 40.6229C7.03772 40.5902 6.84129 40.5336 6.63937 40.4502L6.35329 41.1435L6.0672 41.8368C6.36528 41.9598 6.66886 42.049 6.97726 42.1015L7.10329 41.3622ZM6.35329 41.1435L6.63937 40.4502C6.41032 40.3557 6.18008 40.2486 5.94862 40.1285L5.60329 40.7943L5.25795 41.46C5.5265 41.5993 5.79625 41.725 6.0672 41.8368L6.35329 41.1435ZM5.60329 40.7943L5.94862 40.1285C5.82597 40.0649 5.72975 40.0139 5.65843 39.975C5.62278 39.9555 5.59528 39.9401 5.57492 39.9283C5.5529 39.9156 5.5458 39.9109 5.54794 39.9123L5.13591 40.539L4.72387 41.1657C4.82487 41.2321 5.01974 41.3365 5.25795 41.46L5.60329 40.7943ZM5.13591 40.539L5.54794 39.9123C5.69351 40.0081 5.7604 40.1306 5.78759 40.1943C5.8148 40.2579 5.82016 40.3032 5.82081 40.3085C5.82195 40.3179 5.81782 40.2836 5.82851 40.1809L5.08254 40.1033L4.33656 40.0257C4.32124 40.1729 4.31301 40.3363 4.33194 40.4909C4.34405 40.5898 4.39272 40.948 4.72387 41.1657L5.13591 40.539ZM5.08254 40.1033L5.82851 40.1809C5.85958 39.8822 5.86133 39.5831 5.83372 39.2843L5.0869 39.3533L4.34009 39.4223C4.35867 39.6235 4.35751 39.8243 4.33656 40.0257L5.08254 40.1033ZM5.0869 39.3533L5.83372 39.2843C5.8091 39.0178 5.77562 38.7515 5.7333 38.4855L4.99261 38.6033L4.25192 38.7211C4.28913 38.955 4.31851 39.1888 4.34009 39.4223L5.0869 39.3533ZM4.99261 38.6033L5.7333 38.4855C5.71259 38.3553 5.72158 38.2235 5.76702 38.0809L5.05238 37.8533L4.33774 37.6257C4.22395 37.983 4.19309 38.3512 4.25192 38.7211L4.99261 38.6033ZM5.05238 37.8533L5.76702 38.0809C5.86603 37.77 5.92339 37.4535 5.93617 37.1332L5.18677 37.1033L4.43737 37.0734C4.4302 37.253 4.39796 37.4366 4.33774 37.6257L5.05238 37.8533ZM5.18677 37.1033L5.93617 37.1332C5.94356 36.9481 5.97482 36.7599 6.03216 36.5672L5.3133 36.3533L4.59445 36.1394C4.50303 36.4467 4.44993 36.7584 4.43737 37.0734L5.18677 37.1033ZM5.3133 36.3533L6.03216 36.5672C6.17745 36.0788 6.07667 35.6055 5.8181 35.2L5.18574 35.6033L4.55337 36.0065C4.58824 36.0612 4.59594 36.093 4.59782 36.104C4.59925 36.1125 4.59983 36.1213 4.59445 36.1394L5.3133 36.3533ZM5.18574 35.6033L5.8181 35.2C5.80716 35.1829 5.80505 35.1755 5.80582 35.1778C5.80681 35.1808 5.80943 35.1904 5.80988 35.2046C5.8101 35.2114 5.80978 35.2179 5.80906 35.2239C5.80834 35.2299 5.80734 35.2344 5.80655 35.2373C5.80492 35.2433 5.80488 35.24 5.81237 35.227L5.16209 34.8533L4.51181 34.4796C4.38144 34.7065 4.30167 34.9677 4.31063 35.2519C4.31955 35.5348 4.4147 35.7891 4.55337 36.0065L5.18574 35.6033ZM5.16209 34.8533L5.81237 35.227C6.02616 34.8549 6.12919 34.4396 6.07001 34.0026L5.32679 34.1033L4.58358 34.2039C4.59211 34.2669 4.58534 34.3517 4.51181 34.4796L5.16209 34.8533ZM5.32679 34.1033L6.07001 34.0026C6.04387 33.8097 6.0402 33.6177 6.05879 33.4255L5.31227 33.3533L4.56575 33.2811C4.53598 33.5889 4.54199 33.8969 4.58358 34.2039L5.32679 34.1033ZM5.31227 33.3533L6.05879 33.4255C6.09562 33.0447 6.03365 32.6723 5.88802 32.3181L5.19436 32.6033L4.5007 32.8885C4.56064 33.0343 4.57728 33.1619 4.56575 33.2811L5.31227 33.3533ZM5.19436 32.6033L5.88802 32.3181C5.77732 32.0488 5.65393 31.7806 5.51804 31.5134L4.84951 31.8533L4.18097 32.1932C4.29932 32.426 4.40583 32.6577 4.5007 32.8885L5.19436 32.6033ZM4.84951 31.8533L5.51804 31.5134C5.4373 31.3546 5.40734 31.2187 5.40665 31.0989L4.65666 31.1033L3.90667 31.1076C3.90887 31.4879 4.00747 31.852 4.18097 32.1932L4.84951 31.8533ZM4.65666 31.1033L5.40665 31.0989C5.40602 30.9901 5.43356 30.8624 5.51652 30.7076L4.8555 30.3533L4.19447 29.999C4.00942 30.3442 3.90441 30.7165 3.90667 31.1076L4.65666 31.1033ZM4.8555 30.3533L5.51652 30.7076C5.74739 30.2769 5.79129 29.7983 5.60919 29.331L4.91037 29.6033L4.21156 29.8756C4.22265 29.9041 4.22216 29.9176 4.22172 29.9236C4.22119 29.9307 4.21834 29.9544 4.19447 29.999L4.8555 30.3533ZM4.91037 29.6033L5.60919 29.331C5.58829 29.2773 5.58598 29.2398 5.61868 29.1695L4.93861 28.8533L4.25853 28.5371C4.05874 28.9667 4.03761 29.4292 4.21156 29.8756L4.91037 29.6033ZM4.93861 28.8533L5.61868 29.1695C5.79963 28.7804 5.85544 28.3605 5.75783 27.9354L5.02686 28.1033L4.29588 28.2712C4.3131 28.3461 4.31008 28.4262 4.25853 28.5371L4.93861 28.8533ZM5.02686 28.1033L5.75783 27.9354C5.71277 27.7392 5.69087 27.5457 5.69101 27.3538L4.94101 27.3533L4.19101 27.3527C4.19079 27.6609 4.22612 27.9674 4.29588 28.2712L5.02686 28.1033ZM4.94101 27.3533L5.69101 27.3538C5.69122 27.0693 5.67182 26.7851 5.63295 26.5015L4.8899 26.6033L4.14684 26.7051C4.17649 26.9215 4.19117 27.1373 4.19101 27.3527L4.94101 27.3533ZM4.8899 26.6033L5.63295 26.5015C5.59059 26.1923 5.51146 25.8875 5.39804 25.5878L4.69659 25.8533L3.99514 26.1187C4.07095 26.3191 4.12069 26.5143 4.14684 26.7051L4.8899 26.6033ZM4.69659 25.8533L5.39804 25.5878C5.35389 25.4712 5.34962 25.373 5.37274 25.2743L4.6425 25.1033L3.91226 24.9323C3.81827 25.3336 3.85006 25.7354 3.99514 26.1187L4.69659 25.8533ZM4.6425 25.1033L5.37274 25.2743C5.41579 25.0905 5.48681 24.8989 5.59066 24.6989L4.92504 24.3533L4.25942 24.0077C4.10366 24.3077 3.98632 24.6161 3.91226 24.9323L4.6425 25.1033ZM4.92504 24.3533L5.59066 24.6989C5.77382 24.3461 5.87001 23.9651 5.85041 23.5664L5.10131 23.6033L4.35222 23.6401C4.3572 23.7415 4.33588 23.8604 4.25942 24.0077L4.92504 24.3533ZM5.10131 23.6033L5.85041 23.5664C5.83968 23.3482 5.84281 23.13 5.85983 22.9116L5.1121 22.8533L4.36436 22.795C4.34242 23.0766 4.33836 23.3584 4.35222 23.6401L5.10131 23.6033ZM5.1121 22.8533L5.85983 22.9116C5.89656 22.4402 5.73125 22.0147 5.46448 21.6559L4.86256 22.1033L4.26065 22.5507C4.36555 22.6918 4.36659 22.7664 4.36436 22.795L5.1121 22.8533ZM4.86256 22.1033L5.46448 21.6559C5.45386 21.6416 5.45686 21.6419 5.4625 21.6573C5.46868 21.6741 5.47515 21.7013 5.47485 21.735C5.47454 21.7687 5.46762 21.795 5.46171 21.8104C5.45635 21.8243 5.45419 21.8232 5.46605 21.8076L4.86932 21.3533L4.2726 20.899C4.10489 21.1192 3.97783 21.3972 3.97491 21.7215C3.97198 22.0467 4.0946 22.3273 4.26065 22.5507L4.86256 22.1033ZM4.86932 21.3533L5.46605 21.8076C5.62988 21.5924 5.75562 21.3246 5.76984 21.0124C5.78422 20.6969 5.681 20.4162 5.52649 20.1857L4.90349 20.6033L4.28049 21.0209C4.28811 21.0322 4.2846 21.03 4.27972 21.0144C4.27444 20.9975 4.27009 20.9729 4.2714 20.9442C4.27423 20.8819 4.29911 20.8641 4.2726 20.899L4.86932 21.3533ZM4.90349 20.6033L5.52649 20.1857C5.41303 20.0164 5.36827 19.8797 5.35632 19.7712L4.61083 19.8533L3.86534 19.9354C3.90846 20.3269 4.05881 20.6901 4.28049 21.0209L4.90349 20.6033ZM4.61083 19.8533L5.35632 19.7712C5.33701 19.5959 5.34375 19.4206 5.37741 19.2428L4.64049 19.1033L3.90358 18.9638C3.8426 19.286 3.82956 19.6107 3.86534 19.9354L4.61083 19.8533ZM4.64049 19.1033L5.37741 19.2428C5.39184 19.1665 5.44358 19.0378 5.60727 18.8576L5.05215 18.3533L4.49702 17.849C4.20647 18.1688 3.98378 18.5401 3.90358 18.9638L4.64049 19.1033ZM5.05215 18.3533L5.60727 18.8576C5.92065 18.5126 6.1491 18.0753 6.12165 17.5631L5.37272 17.6033L4.6238 17.6434C4.62383 17.6441 4.62522 17.6549 4.61298 17.6835C4.59926 17.7156 4.56745 17.7714 4.49702 17.849L5.05215 18.3533ZM5.37272 17.6033L6.12165 17.5631C6.09717 17.1065 5.89351 16.7063 5.60974 16.3698L5.03639 16.8533L4.46304 17.3368C4.60091 17.5003 4.62147 17.6001 4.6238 17.6434L5.37272 17.6033ZM5.03639 16.8533L5.60974 16.3698C5.56673 16.3188 5.58086 16.315 5.58777 16.3572C5.59119 16.3781 5.591 16.4006 5.58741 16.421C5.58396 16.4406 5.57889 16.4498 5.58017 16.4473L4.91371 16.1033L4.24725 15.7593C4.11746 16.0107 4.05813 16.2979 4.10744 16.5994C4.15524 16.8916 4.29523 17.1378 4.46304 17.3368L5.03639 16.8533ZM4.91371 16.1033L5.58017 16.4473C5.72581 16.1651 5.84743 15.8794 5.9437 15.5902L5.23209 15.3533L4.52048 15.1164C4.45031 15.3272 4.35968 15.5415 4.24725 15.7593L4.91371 16.1033ZM5.23209 15.3533L5.9437 15.5902C6.09049 15.1492 6.05529 14.7013 5.86209 14.2866L5.18224 14.6033L4.50238 14.92C4.5421 15.0052 4.54013 15.0574 4.52048 15.1164L5.23209 15.3533ZM5.18224 14.6033L5.86209 14.2866C5.78423 14.1194 5.75021 13.9692 5.74611 13.8311L4.99644 13.8533L4.24677 13.8755C4.25749 14.2374 4.34733 14.5871 4.50238 14.92L5.18224 14.6033ZM4.99644 13.8533L5.74611 13.8311C5.73566 13.4782 5.65413 13.1352 5.51194 12.8059L4.8234 13.1033L4.13486 13.4006C4.20859 13.5714 4.24241 13.7283 4.24677 13.8755L4.99644 13.8533ZM4.8234 13.1033L5.51194 12.8059C5.43008 12.6164 5.38127 12.4357 5.36008 12.2623L4.61562 12.3533L3.87116 12.4443C3.91109 12.7709 4.0008 13.0902 4.13486 13.4006L4.8234 13.1033ZM4.61562 12.3533L5.36008 12.2623C5.3615 12.2739 5.36105 12.2859 5.35931 12.2957C5.35766 12.3051 5.35589 12.3067 5.35929 12.2996C5.36732 12.2826 5.39728 12.2316 5.48318 12.1513L4.97118 11.6033L4.45919 11.0552C4.10032 11.3905 3.79994 11.8617 3.87116 12.4443L4.61562 12.3533ZM4.97118 11.6033L5.48318 12.1513C5.83965 11.8183 6.13837 11.3551 6.0828 10.781L5.33629 10.8533L4.58978 10.9256C4.58716 10.8985 4.59583 10.8856 4.58882 10.9C4.57868 10.9208 4.546 10.9741 4.45919 11.0552L4.97118 11.6033ZM5.33629 10.8533L6.0828 10.781C6.05308 10.474 5.98844 10.1704 5.89075 9.87077L5.1777 10.1033L4.46465 10.3358C4.53 10.5362 4.57109 10.7325 4.58978 10.9256L5.33629 10.8533ZM5.1777 10.1033L5.89075 9.87077C5.84189 9.72095 5.82953 9.58198 5.84648 9.44625L5.10226 9.35329L4.35805 9.26032C4.31254 9.62459 4.35047 9.98562 4.46465 10.3358L5.1777 10.1033ZM5.10226 9.35329L5.84648 9.44625C5.87325 9.23199 5.91579 9.01641 5.97458 8.7993L5.25065 8.60329L4.52671 8.40727C4.45012 8.69016 4.39374 8.97458 4.35805 9.26032L5.10226 9.35329ZM5.25065 8.60329L5.97458 8.7993C6.0663 8.46057 6.09416 8.11527 6.05461 7.76834L5.30944 7.85329L4.56426 7.93823C4.58171 8.0913 4.57038 8.24601 4.52671 8.40727L5.25065 8.60329ZM5.30944 7.85329L6.05461 7.76834C6.04085 7.64762 6.03132 7.55273 6.02551 7.48161C6.01914 7.40367 6.01907 7.3753 6.01903 7.37701L5.2692 7.36095L4.51937 7.34489C4.51641 7.48307 4.53703 7.69933 4.56426 7.93823L5.30944 7.85329ZM5.2692 7.36095L6.01903 7.37701C6.01491 7.56944 5.93233 7.70861 5.86887 7.78442C5.81053 7.85413 5.75636 7.8865 5.74548 7.89291C5.72523 7.90484 5.74611 7.8896 5.84899 7.86079L5.64671 7.13858L5.44444 6.41637C5.29732 6.45758 5.13028 6.51441 4.98419 6.60046C4.88586 6.65838 4.52924 6.88429 4.51937 7.34489L5.2692 7.36095ZM5.64671 7.13858L5.84899 7.86079C6.14186 7.77876 6.43113 7.66969 6.71662 7.53506L6.39671 6.8567L6.07681 6.17835C5.8623 6.27951 5.65157 6.35836 5.44444 6.41637L5.64671 7.13858ZM6.39671 6.8567L6.71662 7.53506C6.8984 7.44933 7.06761 7.40247 7.22652 7.38547L7.14671 6.63973L7.06691 5.89399C6.72582 5.93049 6.39503 6.02828 6.07681 6.17835L6.39671 6.8567ZM7.14671 6.63973L7.22652 7.38547C7.36472 7.37068 7.50692 7.38505 7.66008 7.43597L7.89671 6.72428L8.13335 6.01259C7.7865 5.89727 7.42871 5.85527 7.06691 5.89399L7.14671 6.63973ZM7.89671 6.72428L7.66008 7.43597C8.05879 7.56855 8.47023 7.57275 8.87149 7.4467L8.64671 6.73117L8.42194 6.01564C8.3232 6.04666 8.23464 6.04627 8.13335 6.01259L7.89671 6.72428ZM8.64671 6.73117L8.87149 7.4467C8.96935 7.41595 9.05711 7.4164 9.15799 7.45027L9.39671 6.73928L9.63543 6.02828C9.23632 5.89428 8.82408 5.88932 8.42194 6.01564L8.64671 6.73117ZM9.39671 6.73928L9.15799 7.45027C9.52507 7.57352 9.90513 7.60325 10.286 7.53127L10.1467 6.79432L10.0074 6.05736C9.88829 6.07988 9.76836 6.07291 9.63543 6.02828L9.39671 6.73928ZM10.1467 6.79432L10.286 7.53127C10.3471 7.51972 10.4233 7.52254 10.5406 7.58583L10.8967 6.92578L11.2529 6.26573C10.8702 6.05924 10.4463 5.97442 10.0074 6.05736L10.1467 6.79432ZM10.8967 6.92578L10.5406 7.58583C11.0101 7.83918 11.5256 7.84242 11.998 7.59191L11.6467 6.92929L11.2954 6.26667C11.2791 6.2753 11.2703 6.27781 11.2686 6.27825C11.2673 6.2786 11.27 6.27781 11.2752 6.27783C11.2804 6.27786 11.2829 6.27867 11.2811 6.27819C11.279 6.27761 11.2697 6.27481 11.2529 6.26573L10.8967 6.92578ZM11.6467 6.92929L11.998 7.59191C12.1055 7.53496 12.1708 7.53562 12.2258 7.54849L12.3967 6.81823L12.5676 6.08796C12.1226 5.98381 11.688 6.05852 11.2954 6.26667L11.6467 6.92929ZM12.3967 6.81823L12.2258 7.54849C12.4707 7.60581 12.7156 7.66584 12.9606 7.72859L13.1467 7.00204L13.3328 6.27549C13.0778 6.21017 12.8227 6.14766 12.5676 6.08796L12.3967 6.81823ZM13.1467 7.00204L12.9606 7.72859C13.1684 7.7818 13.3794 7.85509 13.5939 7.94974L13.8967 7.26361L14.1996 6.57747C13.914 6.45144 13.625 6.35034 13.3328 6.27549L13.1467 7.00204ZM13.8967 7.26361L13.5939 7.94974C13.9671 8.1145 14.3653 8.17392 14.7714 8.1055L14.6467 7.36592L14.5221 6.62635C14.4281 6.64219 14.3263 6.6334 14.1996 6.57747L13.8967 7.26361ZM14.6467 7.36592L14.7714 8.1055C15.0138 8.06464 15.2562 8.02761 15.4985 7.9944L15.3967 7.25135L15.2949 6.50829C15.0372 6.54359 14.7796 6.58295 14.5221 6.62635L14.6467 7.36592ZM15.3967 7.25135L15.4985 7.9944C15.6372 7.9754 15.7722 7.9866 15.9114 8.03054L16.1372 7.31533L16.3629 6.60012C16.0149 6.49024 15.6562 6.45878 15.2949 6.50829L15.3967 7.25135ZM16.1372 7.31533L15.9114 8.03054C16.0555 8.07603 16.3263 8.14882 16.6092 8.07143C16.7788 8.02503 16.9647 7.92046 17.0975 7.72772C17.2235 7.54464 17.2526 7.35287 17.2526 7.21535H16.5026H15.7526C15.7526 7.1496 15.7664 7.01583 15.8621 6.87698C15.9643 6.72846 16.1046 6.65434 16.2133 6.6246C16.3085 6.59855 16.3756 6.6064 16.3859 6.60762C16.4006 6.60938 16.395 6.61024 16.3629 6.60012L16.1372 7.31533ZM16.5026 7.21535H17.2526C17.2526 7.22908 17.2519 7.26644 17.2417 7.31752C17.2323 7.36404 17.2069 7.46354 17.1317 7.57073C17.0465 7.69216 16.9061 7.80829 16.7141 7.85501C16.5385 7.89774 16.3944 7.86406 16.3172 7.83725C16.2398 7.81033 16.1881 7.77632 16.1667 7.76128C16.1424 7.74424 16.1286 7.73132 16.1262 7.72907C16.1222 7.72536 16.1338 7.736 16.163 7.77209L16.7456 7.29977L17.3282 6.82745C17.2765 6.76361 17.2172 6.6958 17.1524 6.63509C17.1042 6.5898 16.9842 6.48101 16.8095 6.42031C16.712 6.38646 16.5502 6.35111 16.3594 6.39754C16.1523 6.44795 15.9993 6.57315 15.9039 6.70901C15.7516 6.926 15.7526 7.1568 15.7526 7.21535H16.5026ZM16.5416 5.81995L16.8662 5.14384C16.4697 4.95344 16.0389 4.89832 15.6045 5.01019L15.7916 5.73649L15.9787 6.46279C16.0443 6.44588 16.1135 6.4464 16.217 6.49606L16.5416 5.81995ZM15.7916 5.73649L15.6045 5.01019C15.4311 5.05487 15.2627 5.06977 15.0964 5.05758L15.0416 5.80557L14.9868 6.55356C15.3205 6.57803 15.6521 6.54689 15.9787 6.46279L15.7916 5.73649ZM15.0416 5.80557L15.0964 5.05758C14.654 5.02513 14.2437 5.15844 13.8832 5.39248L14.2916 6.02153L14.7 6.65059C14.8395 6.56001 14.9292 6.54935 14.9868 6.55356L15.0416 5.80557ZM14.2916 6.02153L13.8832 5.39248C13.7511 5.47825 13.6731 5.48227 13.6268 5.47698L13.5416 6.22212L13.4564 6.96727C13.9101 7.01913 14.3321 6.88943 14.7 6.65059L14.2916 6.02153ZM13.5416 6.22212L13.6268 5.47698C13.4929 5.46168 13.3407 5.4137 13.1667 5.31322L12.7916 5.96269L12.4165 6.61216C12.7425 6.80044 13.0903 6.92542 13.4564 6.96727L13.5416 6.22212ZM12.7916 5.96269L13.1667 5.31322C12.8408 5.12499 12.4931 4.99998 12.1271 4.95797L12.0416 5.70307L11.9561 6.44818C12.0901 6.46356 12.2424 6.51163 12.4165 6.61216L12.7916 5.96269ZM12.0416 5.70307L12.1271 4.95797C11.8173 4.9224 11.507 4.92424 11.1974 4.96343L11.2916 5.70749L11.3858 6.45156C11.5762 6.42745 11.7659 6.42635 11.9561 6.44818L12.0416 5.70307ZM11.2916 5.70749L11.1974 4.96343C10.9495 4.99481 10.7016 5.02515 10.4536 5.05443L10.5416 5.79925L10.6296 6.54408C10.8816 6.5143 11.1337 6.48346 11.3858 6.45156L11.2916 5.70749ZM10.5416 5.79925L10.4536 5.05443C10.3104 5.07134 10.1647 5.05901 10.0099 5.01192L9.7916 5.72944L9.57328 6.44696C9.91853 6.55202 10.2728 6.58622 10.6296 6.54408L10.5416 5.79925ZM9.7916 5.72944L10.0099 5.01192C9.57192 4.87865 9.13114 4.92086 8.72358 5.11168L9.0416 5.79091L9.35962 6.47015C9.45206 6.42687 9.51128 6.4281 9.57328 6.44696L9.7916 5.72944ZM9.0416 5.79091L8.72358 5.11168C8.52419 5.20503 8.33211 5.26797 8.14661 5.30452L8.2916 6.04038L8.43659 6.77623C8.75109 6.71426 9.05901 6.6109 9.35962 6.47015L9.0416 5.79091ZM8.2916 6.04038L8.14661 5.30452C7.90351 5.35242 7.66046 5.39676 7.41746 5.43755L7.5416 6.1772L7.66574 6.91686C7.92275 6.87372 8.17969 6.82685 8.43659 6.77623L8.2916 6.04038ZM7.5416 6.1772L7.41746 5.43755C7.24799 5.46599 7.08028 5.46652 6.91106 5.43922L6.7916 6.17964L6.67214 6.92006C7.00292 6.97343 7.33521 6.97233 7.66574 6.91686L7.5416 6.1772ZM6.7916 6.17964L6.91106 5.43922C6.56174 5.38285 6.21177 5.39698 5.86692 5.47958L6.0416 6.20895L6.21629 6.93832C6.37143 6.90117 6.52146 6.89575 6.67214 6.92006L6.7916 6.17964ZM6.0416 6.20895L5.86692 5.47958C5.65007 5.53151 5.43455 5.56755 5.22011 5.58808L5.2916 6.33467L5.36309 7.08125C5.64865 7.05391 5.93313 7.00614 6.21629 6.93832L6.0416 6.20895ZM5.2916 6.33467L5.22011 5.58808C5.07174 5.60229 4.92021 5.58764 4.76018 5.53888L4.5416 6.25633L4.32302 6.97377C4.66299 7.07735 5.01146 7.11492 5.36309 7.08125L5.2916 6.33467ZM4.5416 6.25633L4.76018 5.53888C4.57714 5.48312 4.33136 5.43622 4.07198 5.49338C3.7699 5.55995 3.52208 5.75279 3.38493 6.03335L4.05873 6.36274L4.73253 6.69213C4.70613 6.74613 4.66129 6.80932 4.59211 6.86356C4.52306 6.9177 4.45176 6.94568 4.39479 6.95823C4.29637 6.97992 4.25606 6.95337 4.32302 6.97377L4.5416 6.25633ZM4.05873 6.36274L3.38493 6.03335C3.23626 6.33747 3.20432 6.67727 3.21847 6.99209L3.96772 6.9584L4.71696 6.92471C4.71303 6.83741 4.71724 6.77579 4.72344 6.73526C4.72963 6.6947 4.73646 6.68407 4.73253 6.69213L4.05873 6.36274ZM3.96772 6.9584L3.21847 6.99209C3.22494 7.13584 3.2025 7.28626 3.14255 7.44864L3.84613 7.7084L4.54971 7.96816C4.67436 7.63053 4.73298 7.28096 4.71696 6.92471L3.96772 6.9584ZM3.84613 7.7084L3.14255 7.44864C3.02846 7.75766 2.95578 8.07329 2.92818 8.39412L3.67543 8.4584L4.42267 8.52268C4.43808 8.34351 4.4792 8.15914 4.54971 7.96816L3.84613 7.7084ZM3.67543 8.4584L2.92818 8.39412C2.88987 8.83955 3.02143 9.2531 3.25618 9.61587L3.88584 9.2084L4.5155 8.80093C4.42669 8.6637 4.41797 8.57725 4.42267 8.52268L3.67543 8.4584ZM3.88584 9.2084L3.25618 9.61587C3.28701 9.66351 3.28771 9.68314 3.28708 9.67819C3.28686 9.67648 3.28688 9.67402 3.28709 9.67243C3.28727 9.67107 3.28701 9.67478 3.2832 9.6845L3.9814 9.9584L4.6796 10.2323C4.87649 9.73041 4.79195 9.22813 4.5155 8.80093L3.88584 9.2084ZM3.9814 9.9584L3.2832 9.6845C3.13472 10.063 3.09481 10.4613 3.17842 10.8617L3.91259 10.7084L4.64675 10.5551C4.62596 10.4555 4.63193 10.3538 4.6796 10.2323L3.9814 9.9584ZM3.91259 10.7084L3.17842 10.8617C3.2129 11.0269 3.21781 11.1886 3.1943 11.3509L3.93655 11.4584L4.6788 11.5659C4.72773 11.2282 4.71667 10.8899 4.64675 10.5551L3.91259 10.7084ZM3.93655 11.4584L3.1943 11.3509C3.15103 11.6495 3.1374 11.9491 3.1537 12.2491L3.90259 12.2084L4.65149 12.1677C4.64062 11.9677 4.64962 11.7673 4.6788 11.5659L3.93655 11.4584ZM3.90259 12.2084L3.1537 12.2491C3.16366 12.4324 3.14954 12.6169 3.11018 12.8041L3.84415 12.9584L4.57811 13.1127C4.64384 12.7999 4.66869 12.4844 4.65149 12.1677L3.90259 12.2084ZM3.84415 12.9584L3.11018 12.8041C3.05015 13.0898 3.01151 13.3767 2.99463 13.6645L3.74335 13.7084L4.49206 13.7523C4.5045 13.5401 4.53306 13.327 4.57811 13.1127L3.84415 12.9584ZM3.74335 13.7084L2.99463 13.6645C2.96954 14.0926 3.09269 14.4929 3.31221 14.8506L3.95146 14.4584L4.59072 14.0662C4.50344 13.9239 4.48785 13.8242 4.49206 13.7523L3.74335 13.7084ZM3.95146 14.4584L3.31221 14.8506C3.37381 14.951 3.36319 14.9909 3.3568 15.0148L4.08139 15.2084L4.80598 15.402C4.93315 14.9259 4.83591 14.4658 4.59072 14.0662L3.95146 14.4584ZM4.08139 15.2084L3.3568 15.0148C3.28464 15.2849 3.22436 15.5557 3.17606 15.8269L3.91445 15.9584L4.65284 16.0899C4.69356 15.8611 4.74457 15.6319 4.80598 15.402L4.08139 15.2084ZM3.91445 15.9584L3.17606 15.8269C3.1071 16.2143 3.14618 16.5988 3.2816 16.9672L3.98554 16.7084L4.68948 16.4496C4.6411 16.318 4.63278 16.2025 4.65284 16.0899L3.91445 15.9584ZM3.98554 16.7084L3.2816 16.9672C3.36294 17.1884 3.42827 17.4079 3.47811 17.6257L4.20921 17.4584L4.94032 17.2911C4.87574 17.0089 4.79195 16.7284 4.68948 16.4496L3.98554 16.7084ZM4.20921 17.4584L3.47811 17.6257C3.48084 17.6376 3.4809 17.6454 3.47782 17.6583C3.47397 17.6743 3.46106 17.7129 3.41731 17.7745L4.02909 18.2084L4.64087 18.6423C4.91542 18.2551 5.05445 17.7899 4.94032 17.2911L4.20921 17.4584ZM4.02909 18.2084L3.41731 17.7745C3.12325 18.1892 3.00567 18.6934 3.19236 19.2123L3.89807 18.9584L4.60378 18.7045C4.6015 18.6981 4.60209 18.6976 4.60247 18.7018C4.60288 18.7061 4.60256 18.7103 4.60218 18.7125C4.60127 18.7177 4.60351 18.6949 4.64087 18.6423L4.02909 18.2084ZM3.89807 18.9584L3.19236 19.2123C3.22581 19.3053 3.22609 19.3823 3.19646 19.4711L3.90794 19.7084L4.61943 19.9457C4.75653 19.5345 4.75023 19.1115 4.60378 18.7045L3.89807 18.9584ZM3.90794 19.7084L3.19646 19.4711C3.02625 19.9816 3.14185 20.4751 3.42572 20.8852L4.04243 20.4584L4.65913 20.0316C4.62189 19.9778 4.61736 19.9516 4.61726 19.951C4.61715 19.9504 4.61737 19.9517 4.61723 19.9535C4.61711 19.9552 4.61699 19.953 4.61943 19.9457L3.90794 19.7084ZM4.04243 20.4584L3.42572 20.8852C3.46626 20.9438 3.47612 20.9782 3.47854 20.9896C3.48026 20.9976 3.48064 21.003 3.47735 21.0154L4.20208 21.2084L4.92681 21.4014C5.06011 20.901 4.93303 20.4273 4.65913 20.0316L4.04243 20.4584ZM4.20208 21.2084L3.47735 21.0154C3.4384 21.1616 3.3604 21.3294 3.22331 21.5191L3.83116 21.9584L4.43902 22.3977C4.66331 22.0874 4.83258 21.7552 4.92681 21.4014L4.20208 21.2084ZM3.83116 21.9584L3.22331 21.5191C3.07371 21.726 2.95992 21.9724 2.92985 22.2537C2.89928 22.5395 2.9609 22.8095 3.08254 23.0486L3.75096 22.7084L4.41939 22.3682C4.41546 22.3605 4.41756 22.3624 4.41971 22.3731C4.42198 22.3844 4.4229 22.3986 4.42134 22.4131C4.41983 22.4273 4.41675 22.4345 4.41727 22.4333C4.41804 22.4314 4.4233 22.4195 4.43902 22.3977L3.83116 21.9584ZM3.75096 22.7084L3.08254 23.0486C3.14139 23.1642 3.14487 23.2432 3.13128 23.3111L3.86666 23.4584L4.60205 23.6057C4.68864 23.1736 4.61498 22.7526 4.41939 22.3682L3.75096 22.7084ZM3.86666 23.4584L3.13128 23.3111C3.03971 23.7681 3.14 24.2051 3.36837 24.5906L4.01366 24.2084L4.65895 23.8262C4.59115 23.7117 4.59344 23.6487 4.60205 23.6057L3.86666 23.4584ZM4.01366 24.2084L3.36837 24.5906C3.38162 24.613 3.38804 24.6286 3.39108 24.6375C3.3926 24.642 3.39336 24.645 3.39373 24.6468C3.3941 24.6485 3.39417 24.6493 3.39417 24.6493C3.39417 24.6493 3.39416 24.6491 3.39417 24.6488C3.39418 24.6485 3.39419 24.6488 3.39405 24.6496C3.3938 24.6511 3.39257 24.6578 3.38733 24.6704L4.07983 24.9584L4.77233 25.2464C4.97457 24.7601 4.91731 24.2623 4.65895 23.8262L4.01366 24.2084ZM4.07983 24.9584L3.38733 24.6704C3.28943 24.9058 3.18255 25.1418 3.06661 25.3783L3.74008 25.7084L4.41355 26.0385C4.54266 25.775 4.66228 25.511 4.77233 25.2464L4.07983 24.9584ZM3.74008 25.7084L3.06661 25.3783C2.94627 25.6239 2.89123 25.8999 2.9323 26.1889C2.97246 26.4715 3.09703 26.7153 3.25369 26.9176L3.84669 26.4584L4.43968 25.9992C4.42129 25.9755 4.41444 25.9617 4.41295 25.9585C4.41174 25.9558 4.41523 25.9628 4.41738 25.9779C4.4196 25.9935 4.41925 26.01 4.41673 26.0245C4.41432 26.0383 4.41115 26.0434 4.41355 26.0385L3.74008 25.7084ZM3.84669 26.4584L3.25369 26.9176C3.30507 26.9839 3.32193 27.0264 3.32729 27.0447C3.33153 27.0591 3.33077 27.0644 3.32966 27.0704L4.06685 27.2084L4.80404 27.3464C4.89955 26.8364 4.73002 26.3741 4.43968 25.9992L3.84669 26.4584ZM4.06685 27.2084L3.32966 27.0704C3.28532 27.3072 3.23436 27.5442 3.17676 27.7815L3.90559 27.9584L4.63441 28.1353C4.6982 27.8726 4.75475 27.6096 4.80404 27.3464L4.06685 27.2084ZM3.90559 27.9584L3.17676 27.7815C3.10206 28.0892 3.06494 28.4001 3.06687 28.713L3.81685 28.7084L4.56684 28.7038C4.56569 28.5167 4.58773 28.3276 4.63441 28.1353L3.90559 27.9584ZM3.81685 28.7084L3.06687 28.713C3.0683 28.9456 3.06163 29.1782 3.04684 29.4108L3.79533 29.4584L4.54382 29.506C4.56081 29.2386 4.56849 28.9712 4.56684 28.7038L3.81685 28.7084ZM3.79533 29.4584L3.04684 29.4108C3.03053 29.6674 3.01763 29.924 3.00813 30.1807L3.75762 30.2084L4.50711 30.2361C4.51611 29.9928 4.52835 29.7494 4.54382 29.506L3.79533 29.4584ZM3.75762 30.2084L3.00813 30.1807C3.00055 30.3856 2.97455 30.5919 2.92955 30.7997L3.66258 30.9584L4.39561 31.1171C4.45883 30.8249 4.49619 30.5312 4.50711 30.2361L3.75762 30.2084ZM3.66258 30.9584L2.92955 30.7997C2.8605 31.1188 2.83739 31.4411 2.86165 31.7645L3.60955 31.7084L4.35745 31.6523C4.3442 31.4757 4.35645 31.298 4.39561 31.1171L3.66258 30.9584ZM3.60955 31.7084L2.86165 31.7645C2.89132 32.16 3.03213 32.5284 3.24772 32.8639L3.87867 32.4584L4.50961 32.0529C4.40389 31.8884 4.36528 31.7568 4.35745 31.6523L3.60955 31.7084ZM3.87867 32.4584L3.24772 32.8639C3.25932 32.8819 3.2621 32.8904 3.26178 32.8895C3.26162 32.889 3.26083 32.8866 3.26 32.8824C3.25918 32.8781 3.25847 32.8727 3.25819 32.8666C3.25792 32.8604 3.25812 32.8543 3.25872 32.8486C3.25932 32.8429 3.26022 32.8385 3.26095 32.8356C3.26248 32.8296 3.26267 32.8325 3.25584 32.8449L3.91185 33.2084L4.56786 33.5719C4.69448 33.3434 4.76921 33.0823 4.75673 32.8003C4.74433 32.52 4.64808 32.2684 4.50961 32.0529L3.87867 32.4584ZM3.91185 33.2084L3.25584 32.8449C3.11882 33.0921 3.04853 33.3795 3.09098 33.6862C3.13225 33.9844 3.27092 34.2357 3.43883 34.4377L4.01566 33.9584L4.59249 33.4791C4.55266 33.4311 4.57015 33.4324 4.57682 33.4806C4.58007 33.5041 4.57898 33.528 4.57471 33.5485C4.57065 33.5681 4.56547 33.5762 4.56786 33.5719L3.91185 33.2084ZM4.01566 33.9584L3.43883 34.4377C3.49183 34.5015 3.50161 34.5346 3.50203 34.5361C3.50213 34.5365 3.50101 34.5323 3.50097 34.5251C3.50095 34.5219 3.50117 34.5189 3.50148 34.5166C3.50179 34.5142 3.50211 34.513 3.50205 34.5132L4.22622 34.7084L4.95038 34.9036C5.09741 34.358 4.91148 33.8629 4.59249 33.4791L4.01566 33.9584ZM4.22622 34.7084L3.50205 34.5132C3.4222 34.8096 3.37194 35.1086 3.35239 35.4098L4.10081 35.4584L4.84924 35.507C4.86215 35.3082 4.8955 35.1072 4.95038 34.9036L4.22622 34.7084ZM4.10081 35.4584L3.35239 35.4098C3.34059 35.5916 3.30393 35.7775 3.23943 35.9691L3.95025 36.2084L4.66106 36.4477C4.76487 36.1393 4.82858 35.8252 4.84924 35.507L4.10081 35.4584ZM3.95025 36.2084L3.23943 35.9691C3.10991 36.3539 3.09304 36.7524 3.1951 37.1464L3.92115 36.9584L4.64719 36.7704C4.61975 36.6644 4.62229 36.5629 4.66106 36.4477L3.95025 36.2084ZM3.92115 36.9584L3.1951 37.1464C3.25261 37.3685 3.29622 37.5895 3.32618 37.8096L4.06932 37.7084L4.81247 37.6072C4.77435 37.3273 4.71917 37.0483 4.64719 36.7704L3.92115 36.9584ZM4.06932 37.7084L3.32618 37.8096C3.36317 38.0812 3.41218 38.3524 3.47312 38.6231L4.2048 38.4584L4.93649 38.2937C4.88486 38.0644 4.84355 37.8356 4.81247 37.6072L4.06932 37.7084ZM4.2048 38.4584L3.47312 38.6231C3.51464 38.8076 3.52983 38.9886 3.52021 39.1683L4.26913 39.2084L5.01806 39.2485C5.03523 38.9282 5.00754 38.6093 4.93649 38.2937L4.2048 38.4584ZM4.26913 39.2084L3.52021 39.1683C3.50298 39.4897 3.53142 39.8095 3.6039 40.1259L4.33496 39.9584L5.06601 39.7909C5.02394 39.6073 5.00849 39.4271 5.01806 39.2485L4.26913 39.2084ZM4.33496 39.9584L3.6039 40.1259C3.60301 40.122 3.602 40.1146 3.60248 40.1057C3.60296 40.0969 3.60454 40.0926 3.60399 40.0942C3.60239 40.0989 3.58796 40.137 3.5257 40.206L4.08259 40.7084L4.63947 41.2108C4.97223 40.8419 5.19437 40.3511 5.06601 39.7909L4.33496 39.9584ZM4.08259 40.7084L3.5257 40.206C3.22602 40.5382 3.00216 40.9407 2.9709 41.4084L3.71924 41.4584L4.46757 41.5084C4.46973 41.4761 4.4881 41.3786 4.63947 41.2108L4.08259 40.7084ZM3.71924 41.4584L2.9709 41.4084C2.95162 41.697 3.02496 41.9919 3.22136 42.2424C3.4059 42.4778 3.65344 42.6159 3.88463 42.6992L4.13879 41.9935L4.39294 41.2879C4.32773 41.2644 4.35713 41.2599 4.40182 41.3169C4.42539 41.347 4.44513 41.3844 4.45687 41.4253C4.46827 41.4649 4.46847 41.4949 4.46757 41.5084L3.71924 41.4584ZM4.13879 41.9935L3.88463 42.6992C4.31902 42.8556 4.78066 42.8814 5.22758 42.7095L4.9584 42.0095L4.68922 41.3095C4.63613 41.3299 4.55137 41.345 4.39294 41.2879L4.13879 41.9935ZM4.9584 42.0095L5.22758 42.7095C5.42316 42.6343 5.61261 42.5874 5.79698 42.5654L5.7084 41.8207L5.61982 41.0759C5.30419 41.1135 4.99364 41.1924 4.68922 41.3095L4.9584 42.0095ZM5.7084 41.8207L5.79698 42.5654C5.95732 42.5464 6.11838 42.5555 6.2842 42.5951L6.4584 41.8656L6.6326 41.1362C6.29842 41.0564 5.95948 41.0355 5.61982 41.0759L5.7084 41.8207ZM6.4584 41.8656L6.2842 42.5951C6.58894 42.6679 6.89661 42.7054 7.20613 42.7063L7.2084 41.9563L7.21067 41.2063C7.02019 41.2057 6.82786 41.1828 6.6326 41.1362L6.4584 41.8656ZM7.2084 41.9563L7.20613 42.7063C7.53408 42.7073 7.85826 42.6578 8.17644 42.5611L7.9584 41.8435L7.74036 41.1259C7.55854 41.1812 7.38272 41.2068 7.21067 41.2063L7.2084 41.9563ZM7.9584 41.8435L8.17644 42.5611C8.39485 42.4948 8.61161 42.4446 8.82688 42.4102L8.7084 41.6696L8.58992 40.929C8.30519 40.9746 8.02195 41.0404 7.74036 41.1259L7.9584 41.8435ZM8.7084 41.6696L8.82688 42.4102C8.83623 42.4087 8.88802 42.3963 9.01501 42.4894L9.4584 41.8845L9.90179 41.2796C9.52878 41.0061 9.08057 40.8505 8.58992 40.929L8.7084 41.6696ZM9.4584 41.8845L9.01501 42.4894C9.23234 42.6487 9.49968 42.7674 9.80801 42.7778C10.1187 42.7883 10.3952 42.6864 10.6238 42.5343L10.2084 41.9099L9.79298 41.2854C9.78078 41.2935 9.78153 41.2909 9.79511 41.2866C9.80984 41.282 9.83219 41.2778 9.85879 41.2787C9.88518 41.2796 9.90466 41.2851 9.91442 41.2888C9.92308 41.2922 9.91876 41.292 9.90179 41.2796L9.4584 41.8845ZM10.2084 41.9099L10.6238 42.5343C10.6381 42.5248 10.6405 42.5256 10.631 42.5287C10.6206 42.5322 10.6025 42.5362 10.5796 42.5361C10.5568 42.5359 10.5391 42.5318 10.5294 42.5285C10.5206 42.5255 10.5237 42.5251 10.5387 42.5352L10.9584 41.9136L11.3781 41.2921C11.156 41.1421 10.8888 41.0376 10.5872 41.0361C10.2853 41.0346 10.0168 41.1365 9.79298 41.2854L10.2084 41.9099ZM10.9584 41.9136L10.5387 42.5352C10.7677 42.6899 11.0467 42.7945 11.3612 42.7828C11.673 42.7712 11.9416 42.6483 12.1582 42.4859L11.7084 41.8858L11.2586 41.2857C11.2413 41.2986 11.2371 41.2986 11.2464 41.295C11.2568 41.2909 11.2775 41.2849 11.3056 41.2838C11.3339 41.2828 11.3579 41.2872 11.3739 41.2924C11.3887 41.2971 11.3901 41.3002 11.3781 41.2921L10.9584 41.9136ZM11.7084 41.8858L12.1582 42.4859C12.3166 42.3672 12.4228 42.3428 12.4859 42.3404L12.4584 41.5909L12.4309 40.8414C11.994 40.8575 11.6002 41.0296 11.2586 41.2857L11.7084 41.8858ZM12.4584 41.5909L12.4859 42.3404C12.4708 42.341 12.4715 42.3356 12.4974 42.3485C12.5278 42.3638 12.5859 42.4016 12.6681 42.4869L13.2084 41.9668L13.7487 41.4466C13.4174 41.1024 12.9744 40.8215 12.4309 40.8414L12.4584 41.5909ZM13.2084 41.9668L12.6681 42.4869C12.8487 42.6745 13.0756 42.8465 13.355 42.9359C13.6505 43.0303 13.9545 43.0157 14.2367 42.903L13.9584 42.2065L13.6801 41.51C13.6908 41.5058 13.712 41.4994 13.741 41.4983C13.7702 41.4971 13.795 41.5017 13.8118 41.5071C13.8272 41.512 13.8291 41.5154 13.8173 41.5074C13.8051 41.4991 13.7819 41.481 13.7487 41.4466L13.2084 41.9668ZM13.9584 42.2065L14.2367 42.903C14.4214 42.8291 14.5973 42.7885 14.7663 42.7754L14.7084 42.0276L14.6505 41.2798C14.3195 41.3055 13.9954 41.3841 13.6801 41.51L13.9584 42.2065ZM14.7084 42.0276L14.7663 42.7754C14.8761 42.7669 14.9983 42.7855 15.1436 42.8527L15.4584 42.172L15.7732 41.4912C15.4185 41.3272 15.0407 41.2496 14.6505 41.2798L14.7084 42.0276ZM15.4584 42.172L15.1436 42.8527C15.4016 42.972 15.689 43.0154 15.9835 42.9552C16.2679 42.8971 16.5068 42.7534 16.701 42.5843L16.2084 42.0187L15.7158 41.4532C15.66 41.5018 15.6489 41.4926 15.6833 41.4856C15.7008 41.482 15.7214 41.481 15.7419 41.4836C15.7515 41.4848 15.7592 41.4867 15.7649 41.4883C15.7704 41.49 15.7733 41.4913 15.7732 41.4912L15.4584 42.172ZM16.2084 42.0187L16.701 42.5843C16.8676 42.4392 16.9688 42.4171 17.0104 42.4142L16.9584 41.666L16.9064 40.9179C16.448 40.9497 16.0492 41.1627 15.7158 41.4532L16.2084 42.0187ZM16.9584 41.666L17.0104 42.4142C16.9927 42.4155 16.9889 42.4093 17.0096 42.4193C17.0355 42.4317 17.0906 42.4656 17.1711 42.5483L17.7084 42.025L18.2457 41.5017C17.9102 41.1573 17.4582 40.8795 16.9064 40.9179L16.9584 41.666ZM17.7084 42.025L17.1711 42.5483C17.5175 42.9039 18.0032 43.186 18.5897 43.0818L18.4584 42.3433L18.3271 41.6049C18.3377 41.603 18.3504 41.6026 18.3627 41.6041C18.3747 41.6056 18.3797 41.6081 18.3764 41.6067C18.3673 41.6028 18.3222 41.5803 18.2457 41.5017L17.7084 42.025ZM18.4584 42.3433L18.5897 43.0818C18.7745 43.0489 18.9573 43.0412 19.1399 43.0579L19.2084 42.3111L19.2769 41.5642C18.9595 41.5351 18.6423 41.5489 18.3271 41.6049L18.4584 42.3433ZM19.2084 42.3111L19.1399 43.0579C19.5383 43.0945 19.9232 43.0143 20.2821 42.8425L19.9584 42.166L19.6347 41.4895C19.4936 41.557 19.3785 41.5735 19.2769 41.5642L19.2084 42.3111ZM19.9584 42.166L20.2821 42.8425C20.4021 42.7851 20.491 42.7791 20.5703 42.794L20.7084 42.0568L20.8465 41.3196C20.4258 41.2408 20.0147 41.3076 19.6347 41.4895L19.9584 42.166ZM20.7084 42.0568L20.5703 42.794C20.9607 42.8671 21.3486 42.8286 21.7197 42.6907L21.4584 41.9877L21.1971 41.2846C21.0682 41.3325 20.9561 41.3401 20.8465 41.3196L20.7084 42.0568ZM21.4584 41.9877L21.7197 42.6907C21.792 42.6638 21.8485 42.6635 21.9271 42.6953L22.2084 42L22.4897 41.3048C22.0683 41.1343 21.6248 41.1257 21.1971 41.2846L21.4584 41.9877ZM22.2084 42L21.9271 42.6953C22.3471 42.8652 22.7893 42.875 23.2164 42.7185L22.9584 42.0143L22.7004 41.3101C22.6275 41.3368 22.5697 41.3371 22.4897 41.3048L22.2084 42ZM22.9584 42.0143L23.2164 42.7185C23.2684 42.6995 23.3089 42.6964 23.385 42.7328L23.7084 42.0561L24.0318 41.3794C23.6079 41.1768 23.1484 41.1459 22.7004 41.3101L22.9584 42.0143ZM23.7084 42.0561L23.385 42.7328C23.6941 42.8805 24.0131 42.9835 24.3408 43.0356L24.4584 42.2948L24.576 41.5541C24.4037 41.5268 24.2227 41.4706 24.0318 41.3794L23.7084 42.0561ZM24.4584 42.2948L24.3408 43.0356C24.7715 43.104 25.1859 43.0164 25.5619 42.8154L25.2084 42.154L24.8549 41.4925C24.7309 41.5588 24.6453 41.5651 24.576 41.5541L24.4584 42.2948ZM25.2084 42.154L25.5619 42.8154C25.6049 42.7925 25.6265 42.7905 25.6314 42.7902C25.6351 42.79 25.6475 42.7891 25.6761 42.8007L25.9584 42.1059L26.2407 41.4111C25.7727 41.2209 25.29 41.26 24.8549 41.4925L25.2084 42.154ZM25.9584 42.1059L25.6761 42.8007C26.2107 43.0179 26.7347 42.8945 27.1564 42.5805L26.7084 41.979L26.2604 41.3775C26.2091 41.4157 26.1924 41.4135 26.2082 41.4109C26.2157 41.4096 26.2251 41.4092 26.2342 41.4103C26.2429 41.4114 26.2455 41.413 26.2407 41.4111L25.9584 42.1059ZM26.7084 41.979L27.1564 42.5805C27.1719 42.5689 27.1735 42.5706 27.1608 42.5754C27.1468 42.5807 27.1225 42.587 27.0912 42.5873C27.0598 42.5876 27.0345 42.5818 27.0189 42.5762C27.0045 42.5711 27.0045 42.5685 27.0186 42.5787L27.4584 41.9712L27.8982 41.3637C27.6742 41.2015 27.3957 41.0841 27.0756 41.0874C26.7563 41.0907 26.4809 41.2132 26.2604 41.3775L26.7084 41.979ZM27.4584 41.9712L27.0186 42.5787C27.2265 42.7292 27.4749 42.8436 27.7588 42.8719C28.0473 42.9008 28.3183 42.8353 28.5566 42.7104L28.2084 42.0461L27.8602 41.3818C27.8522 41.3861 27.8541 41.3838 27.8653 41.3815C27.8771 41.379 27.8922 41.3778 27.908 41.3794C27.9233 41.3809 27.9318 41.3843 27.9316 41.3842C27.9307 41.3839 27.9195 41.3791 27.8982 41.3637L27.4584 41.9712ZM28.2084 42.0461L28.5566 42.7104C28.5672 42.7048 28.5687 42.7056 28.5618 42.7071C28.5584 42.7079 28.5537 42.7087 28.548 42.7091C28.5423 42.7096 28.5364 42.7096 28.5306 42.7092C28.5248 42.7088 28.52 42.708 28.5165 42.7073C28.513 42.7065 28.5114 42.7059 28.5119 42.706C28.5128 42.7064 28.5232 42.7104 28.5429 42.7235L28.9584 42.0991L29.3739 41.4747C29.1622 41.3338 28.9143 41.2326 28.6362 41.2129C28.3554 41.1931 28.0925 41.2601 27.8602 41.3818L28.2084 42.0461ZM28.9584 42.0991L28.5429 42.7235C28.788 42.8866 29.0917 42.987 29.4289 42.9437C29.7538 42.902 30.0167 42.7387 30.2168 42.5542L29.7084 42.0028L29.2 41.4515C29.1501 41.4975 29.163 41.4655 29.2379 41.4559C29.2751 41.4511 29.3111 41.4544 29.3404 41.4623C29.368 41.4697 29.3793 41.4783 29.3739 41.4747L28.9584 42.0991ZM29.7084 42.0028L30.2168 42.5542C30.3834 42.4006 30.4726 42.3909 30.4908 42.3901L30.4584 41.6408L30.426 40.8915C29.9443 40.9124 29.5334 41.144 29.2 41.4515L29.7084 42.0028ZM30.4584 41.6408L30.4908 42.3901C30.6804 42.3819 30.8709 42.3963 31.0637 42.4342L31.2084 41.6983L31.3531 40.9624C31.0459 40.902 30.7364 40.8781 30.426 40.8915L30.4584 41.6408ZM31.2084 41.6983L31.0637 42.4342C31.2193 42.4649 31.3899 42.529 31.5767 42.6394L31.9584 41.9938L32.3401 41.3482C32.0269 41.1631 31.6975 41.0302 31.3531 40.9624L31.2084 41.6983ZM31.9584 41.9938L31.5767 42.6394C31.9565 42.864 32.3856 42.9677 32.8364 42.8896L32.7084 42.1506L32.5804 41.4116C32.5312 41.4201 32.4603 41.4193 32.3401 41.3482L31.9584 41.9938ZM32.7084 42.1506L32.8364 42.8896C32.9837 42.8641 33.13 42.8687 33.2817 42.9055L33.4584 42.1766L33.6351 41.4477C33.2868 41.3633 32.9331 41.3506 32.5804 41.4116L32.7084 42.1506ZM33.4584 42.1766L33.2817 42.9055C33.5733 42.9762 33.867 43.021 34.1622 43.0393L34.2084 42.2907L34.2546 41.5421C34.0498 41.5295 33.8435 41.4982 33.6351 41.4477L33.4584 42.1766ZM34.2084 42.2907L34.1622 43.0393C34.596 43.0661 34.9999 42.9379 35.3584 42.7119L34.9584 42.0774L34.5584 41.443C34.4169 41.5322 34.3209 41.5462 34.2546 41.5421L34.2084 42.2907ZM34.9584 42.0774L35.3584 42.7119C35.5717 42.5774 35.7788 42.4727 35.9797 42.3948L35.7084 41.6955L35.4371 40.9963C35.138 41.1124 34.8451 41.2623 34.5584 41.443L34.9584 42.0774ZM35.7084 41.6955L35.9797 42.3948C35.9744 42.3968 35.9601 42.4013 35.9392 42.4025C35.9179 42.4037 35.8993 42.401 35.8863 42.3975C35.8623 42.391 35.8835 42.3892 35.9468 42.4483L36.4584 41.8998L36.97 41.3514C36.5788 40.9865 36.0336 40.7649 35.4371 40.9963L35.7084 41.6955ZM36.4584 41.8998L35.9468 42.4483C36.1394 42.6279 36.3839 42.7865 36.6823 42.8479C36.9942 42.9121 37.2942 42.8552 37.5551 42.7192L37.2084 42.0541L36.8617 41.3891C36.863 41.3884 36.8777 41.3811 36.904 41.377C36.9312 41.3727 36.9595 41.3736 36.9845 41.3787C37.0329 41.3887 37.0274 41.405 36.97 41.3514L36.4584 41.8998ZM37.2084 42.0541L37.5551 42.7192C37.6832 42.6524 37.7762 42.6434 37.8533 42.6543L37.9584 41.9117L38.0635 41.1691C37.6406 41.1093 37.2336 41.1952 36.8617 41.3891L37.2084 42.0541ZM37.9584 41.9117L37.8533 42.6543C38.1601 42.6978 38.468 42.7057 38.7758 42.678L38.7084 41.931L38.641 41.184C38.4488 41.2014 38.2567 41.1965 38.0635 41.1691L37.9584 41.9117ZM38.7084 41.931L38.7758 42.678C39.0881 42.6498 39.3964 42.5829 39.6998 42.4797L39.4584 41.7697L39.217 41.0596C39.0204 41.1264 38.8287 41.1671 38.641 41.184L38.7084 41.931ZM39.4584 41.7697L39.6998 42.4797C39.6926 42.4822 39.6779 42.4858 39.6581 42.4862C39.6383 42.4865 39.6223 42.4833 39.613 42.4804C39.6045 42.4778 39.607 42.4772 39.6206 42.4858C39.6346 42.4946 39.6581 42.5118 39.6905 42.5427L40.2084 42.0002L40.7263 41.4578C40.3472 41.0958 39.8151 40.8562 39.217 41.0596L39.4584 41.7697ZM40.2084 42.0002L39.6905 42.5427C39.9072 42.7496 40.226 42.941 40.6291 42.9164C41.02 42.8926 41.3125 42.6754 41.508 42.4648L40.9584 41.9545L40.4088 41.4441C40.3543 41.5028 40.3968 41.4278 40.5377 41.4192C40.6908 41.4099 40.7596 41.4896 40.7263 41.4578L40.2084 42.0002ZM40.9584 41.9545L41.508 42.4648C41.5437 42.4264 41.5707 42.4036 41.588 42.3909C41.605 42.3785 41.6096 42.3782 41.6014 42.3813C41.592 42.3849 41.5731 42.3903 41.5474 42.3912C41.5214 42.3921 41.4995 42.3881 41.4851 42.3836L41.7084 41.6676L41.9317 40.9516C41.2973 40.7537 40.7637 41.0619 40.4088 41.4441L40.9584 41.9545ZM41.7084 41.6676L41.4851 42.3836C41.8689 42.5033 42.2635 42.5127 42.6523 42.4086L42.4584 41.6842L42.2645 40.9597C42.1533 40.9894 42.0479 40.9878 41.9317 40.9516L41.7084 41.6676ZM42.4584 41.6842L42.6523 42.4086C42.6542 42.4082 42.6519 42.4089 42.6471 42.4089C42.6422 42.4089 42.6399 42.4082 42.6416 42.4086C42.6454 42.4096 42.6787 42.4194 42.7411 42.4691L43.2084 41.8825L43.6757 41.2959C43.2885 40.9874 42.7986 40.8167 42.2645 40.9597L42.4584 41.6842ZM43.2084 41.8825L42.7411 42.4691C42.9222 42.6134 43.1793 42.7689 43.4971 42.7905C43.8612 42.8153 44.1648 42.6567 44.3724 42.4277L43.8168 41.924L43.2612 41.4202C43.2802 41.3991 43.3215 41.3612 43.389 41.3314C43.4595 41.3004 43.5334 41.2895 43.5989 41.294C43.7139 41.3018 43.7446 41.3508 43.6757 41.2959L43.2084 41.8825ZM43.8168 41.924L44.3724 42.4277C44.6435 42.1287 44.7937 41.7659 44.8365 41.3727L44.0909 41.2916L43.3453 41.2105C43.3337 41.3173 43.3011 41.3761 43.2612 41.4202L43.8168 41.924ZM44.0909 41.2916L44.8365 41.3727C44.8783 40.9888 44.8178 40.6131 44.6708 40.2561L43.9773 40.5416L43.2838 40.8271C43.3427 40.9701 43.3579 41.0944 43.3453 41.2105L44.0909 41.2916ZM43.9773 40.5416L44.6708 40.2561C44.5774 40.0292 44.4978 39.8036 44.4317 39.5794L43.7123 39.7916L42.993 40.0038C43.0743 40.2796 43.1714 40.554 43.2838 40.8271L43.9773 40.5416ZM43.7123 39.7916L44.4317 39.5794C44.4317 39.5793 44.4321 39.5807 44.4325 39.5835C44.4329 39.5863 44.4333 39.5899 44.4333 39.5939C44.4335 39.6028 44.4322 39.6089 44.4317 39.6107C44.431 39.6134 44.4383 39.5832 44.4901 39.5208L43.9132 39.0416L43.3363 38.5624C43.0136 38.9509 42.8308 39.4539 42.993 40.0038L43.7123 39.7916ZM43.9132 39.0416L44.4901 39.5208C44.7774 39.175 44.9763 38.7565 44.9683 38.279L44.2184 38.2916L43.4686 38.3042C43.4689 38.3267 43.4644 38.4082 43.3363 38.5624L43.9132 39.0416ZM44.2184 38.2916L44.9683 38.279C44.9655 38.1118 44.9897 37.9406 45.0445 37.7627L44.3279 37.5416L43.6112 37.3205C43.5118 37.6426 43.463 37.9714 43.4686 38.3042L44.2184 38.2916ZM44.3279 37.5416L45.0445 37.7627C45.1481 37.4271 45.1894 37.0831 45.1634 36.7355L44.4155 36.7916L43.6676 36.8477C43.679 37.0001 43.6619 37.1561 43.6112 37.3205L44.3279 37.5416ZM44.4155 36.7916L45.1634 36.7355C45.1454 36.496 45.1325 36.2564 45.1246 36.0169L44.375 36.0416L43.6254 36.0663C43.634 36.3268 43.6481 36.5872 43.6676 36.8477L44.4155 36.7916ZM44.375 36.0416L45.1246 36.0169C45.11 35.573 44.9311 35.1755 44.6679 34.8339L44.0737 35.2916L43.4796 35.7493C43.6016 35.9077 43.6236 36.0102 43.6254 36.0663L44.375 36.0416ZM44.0737 35.2916L44.6679 34.8339C44.6182 34.7694 44.6039 34.7301 44.6 34.7162C44.5973 34.7064 44.5979 34.7045 44.5989 34.6999L43.8658 34.5416L43.1327 34.3833C43.0214 34.8987 43.1867 35.3691 43.4796 35.7493L44.0737 35.2916ZM43.8658 34.5416L44.5989 34.6999C44.675 34.3474 44.6763 33.9913 44.6027 33.6384L43.8685 33.7916L43.1343 33.9448C43.165 34.0919 43.1645 34.2358 43.1327 34.3833L43.8658 34.5416ZM43.8685 33.7916L44.6027 33.6384C44.5571 33.42 44.5264 33.2026 44.5103 32.986L43.7624 33.0416L43.0144 33.0972C43.0355 33.3806 43.0756 33.6632 43.1343 33.9448L43.8685 33.7916ZM43.7624 33.0416L44.5103 32.986C44.4992 32.836 44.5167 32.6819 44.5685 32.5189L43.8538 32.2916L43.139 32.0643C43.0319 32.4013 42.9884 32.7472 43.0144 33.0972L43.7624 33.0416ZM43.8538 32.2916L44.5685 32.5189C44.6371 32.3031 44.7236 32.0847 44.8287 31.8638L44.1514 31.5416L43.4741 31.2194C43.3414 31.4985 43.2294 31.7801 43.139 32.0643L43.8538 32.2916ZM44.1514 31.5416L44.8287 31.8638C44.9953 31.5135 45.0794 31.1402 45.0595 30.7531L44.3105 30.7916L43.5615 30.8301C43.5673 30.943 43.5454 31.0697 43.4741 31.2194L44.1514 31.5416ZM44.3105 30.7916L45.0595 30.7531C45.0497 30.5622 45.0622 30.3707 45.0978 30.1772L44.3601 30.0416L43.6225 29.906C43.5662 30.2125 43.5456 30.521 43.5615 30.8301L44.3105 30.7916ZM44.3601 30.0416L45.0978 30.1772C45.1794 29.7334 45.0873 29.307 44.8734 28.9251L44.2191 29.2916L43.5647 29.6581C43.6308 29.7762 43.6328 29.8498 43.6225 29.906L44.3601 30.0416ZM44.2191 29.2916L44.8734 28.9251C44.7333 28.675 44.5931 28.4248 44.4528 28.1747L43.7987 28.5416L43.1446 28.9085C43.2847 29.1584 43.4247 29.4082 43.5647 29.6581L44.2191 29.2916ZM43.7987 28.5416L44.4528 28.1747C44.3983 28.0775 44.4044 28.0304 44.4151 27.992L43.6923 27.7916L42.9696 27.5912C42.8416 28.0528 42.9186 28.5057 43.1446 28.9085L43.7987 28.5416ZM43.6923 27.7916L44.4151 27.992C44.4628 27.8198 44.5437 27.6353 44.6665 27.4381L44.0299 27.0416L43.3933 26.6451C43.2046 26.9479 43.0605 27.2634 42.9696 27.5912L43.6923 27.7916ZM44.0299 27.0416L44.6665 27.4381C44.8185 27.1941 44.9074 26.9002 44.8692 26.5782C44.8321 26.2655 44.6845 26.006 44.5094 25.8025L43.9409 26.2916L43.3723 26.7807C43.4123 26.8272 43.3871 26.8177 43.3796 26.755C43.376 26.7244 43.3786 26.6948 43.3847 26.6708C43.3904 26.6481 43.3969 26.6393 43.3933 26.6451L44.0299 27.0416ZM43.9409 26.2916L44.5094 25.8025C44.4601 25.7451 44.4648 25.7291 44.4705 25.7549C44.4735 25.7682 44.4749 25.7852 44.4731 25.803C44.4714 25.8204 44.4675 25.8304 44.4671 25.8313L43.7753 25.5416L43.0835 25.2519C42.9751 25.5107 42.9429 25.7931 43.0058 26.0782C43.0667 26.3541 43.2066 26.5881 43.3723 26.7807L43.9409 26.2916ZM43.7753 25.5416L44.4671 25.8313C44.6181 25.4709 44.6786 25.0904 44.6316 24.7015L43.887 24.7916L43.1424 24.8817C43.1559 24.9928 43.142 25.1123 43.0835 25.2519L43.7753 25.5416ZM43.887 24.7916L44.6316 24.7015C44.6119 24.5386 44.6201 24.3752 44.6582 24.2076L43.9268 24.0416L43.1954 23.8756C43.1199 24.208 43.1017 24.5446 43.1424 24.8817L43.887 24.7916ZM43.9268 24.0416L44.6582 24.2076C44.7279 23.9003 44.7606 23.5902 44.7552 23.2784L44.0053 23.2916L43.2554 23.3048C43.2587 23.493 43.2391 23.6829 43.1954 23.8756L43.9268 24.0416ZM44.0053 23.2916L44.7552 23.2784C44.7483 22.886 44.633 22.5147 44.4393 22.1723L43.7865 22.5416L43.1338 22.9109C43.2229 23.0685 43.2535 23.1972 43.2554 23.3048L44.0053 23.2916ZM43.7865 22.5416L44.4393 22.1723C44.4345 22.1639 44.4375 22.1667 44.4407 22.1801C44.4441 22.1943 44.4459 22.213 44.4442 22.2329C44.4424 22.2525 44.438 22.2645 44.4369 22.2672C44.4361 22.269 44.4398 22.2595 44.455 22.239L43.8531 21.7916L43.2512 21.3442C43.0955 21.5537 42.976 21.8075 42.95 22.1003C42.9236 22.3978 42.9994 22.6734 43.1338 22.9109L43.7865 22.5416ZM43.8531 21.7916L44.455 22.239C44.6209 22.0159 44.7435 21.7357 44.7411 21.4111C44.7387 21.0871 44.6125 20.8091 44.4453 20.5885L43.8476 21.0416L43.2499 21.4947C43.2616 21.5101 43.2594 21.5111 43.2541 21.4972C43.2482 21.4818 43.2414 21.4556 43.2411 21.4221C43.2409 21.3886 43.2473 21.3617 43.2534 21.3451C43.259 21.33 43.2619 21.3298 43.2512 21.3442L43.8531 21.7916ZM43.8476 21.0416L44.4453 20.5885C44.4263 20.5636 44.418 20.5476 44.4149 20.541C44.4121 20.5349 44.4141 20.5374 44.4158 20.5475C44.4165 20.5523 44.4171 20.558 44.4171 20.5642C44.4172 20.5704 44.4168 20.5763 44.4161 20.5814C44.4146 20.5923 44.4124 20.5961 44.4143 20.5915L43.7269 20.2916L43.0395 19.9917C42.8036 20.5323 42.926 21.0675 43.2499 21.4947L43.8476 21.0416ZM43.7269 20.2916L44.4143 20.5915C44.5951 20.1773 44.6208 19.7351 44.475 19.3022L43.7642 19.5416L43.0535 19.781C43.0761 19.8481 43.0769 19.9059 43.0395 19.9917L43.7269 20.2916ZM43.7642 19.5416L44.475 19.3022C44.479 19.3142 44.4835 19.3344 44.4833 19.3596C44.4831 19.3849 44.4784 19.4044 44.4745 19.4154C44.471 19.4253 44.4703 19.4226 44.4808 19.4075C44.4915 19.3921 44.512 19.3667 44.5478 19.3323L44.028 18.7916L43.5082 18.2509C43.1289 18.6155 42.8424 19.1546 43.0535 19.781L43.7642 19.5416ZM44.028 18.7916L44.5478 19.3323C44.9002 18.9935 45.1867 18.5246 45.1171 17.9512L44.3725 18.0416L43.628 18.132C43.6268 18.1223 43.6272 18.1123 43.6286 18.1041C43.6299 18.0964 43.6312 18.0958 43.6276 18.1035C43.6195 18.1212 43.5905 18.1718 43.5082 18.2509L44.028 18.7916ZM44.3725 18.0416L45.1171 17.9512C45.0798 17.6443 45.0075 17.3411 44.9022 17.0424L44.1949 17.2916L43.4875 17.5408C43.5584 17.7421 43.6045 17.9389 43.628 18.132L44.3725 18.0416ZM44.1949 17.2916L44.9022 17.0424C44.8579 16.9164 44.8521 16.8055 44.8752 16.6947L44.141 16.5416L43.4068 16.3885C43.3256 16.7777 43.3557 17.1668 43.4875 17.5408L44.1949 17.2916ZM44.141 16.5416L44.8752 16.6947C44.9543 16.3154 44.9325 15.935 44.816 15.5658L44.1008 15.7916L43.3856 16.0174C43.4269 16.1482 43.4319 16.2678 43.4068 16.3885L44.141 16.5416ZM44.1008 15.7916L44.816 15.5658C44.7547 15.3717 44.7196 15.1823 44.7084 14.9964L43.9598 15.0416L43.2111 15.0868C43.2301 15.4009 43.289 15.7115 43.3856 16.0174L44.1008 15.7916ZM43.9598 15.0416L44.7084 14.9964C44.6992 14.8438 44.7184 14.6868 44.7717 14.5211L44.0577 14.2916L43.3436 14.0621C43.2362 14.3964 43.1902 14.7394 43.2111 15.0868L43.9598 15.0416ZM44.0577 14.2916L44.7717 14.5211C44.8908 14.1506 44.9134 13.7682 44.8331 13.387L44.0992 13.5416L43.3653 13.6962C43.3903 13.815 43.3853 13.9326 43.3436 14.0621L44.0577 14.2916ZM44.0992 13.5416L44.8331 13.387C44.8159 13.3056 44.8207 13.2182 44.8734 13.1023L44.1908 12.7916L43.5082 12.4809C43.3334 12.865 43.2771 13.2776 43.3653 13.6962L44.0992 13.5416ZM44.1908 12.7916L44.8734 13.1023C44.9543 12.9246 45.077 12.5787 44.9253 12.211C44.7506 11.7874 44.3597 11.6575 44.1283 11.6218L44.014 12.3631L43.8998 13.1043C43.8936 13.1033 43.8369 13.0945 43.7627 13.0489C43.6787 12.9973 43.5906 12.9089 43.5386 12.783C43.4901 12.6652 43.4945 12.5667 43.501 12.5205C43.5071 12.4765 43.5173 12.4609 43.5082 12.4809L44.1908 12.7916ZM44.014 12.3631L44.1283 11.6218C44.0735 11.6134 43.9554 11.5742 43.7712 11.421L43.2916 11.9976L42.812 12.5741C43.1278 12.8369 43.4913 13.0414 43.8998 13.1043L44.014 12.3631ZM43.2916 11.9976L43.7712 11.421C43.3596 11.0785 42.8201 10.9142 42.2561 11.1465L42.5416 11.84L42.8271 12.5335C42.8275 12.5333 42.8194 12.5366 42.8043 12.5382C42.7889 12.5397 42.774 12.5386 42.7624 12.5362C42.7394 12.5313 42.7559 12.5275 42.812 12.5741L43.2916 11.9976ZM42.5416 11.84L42.2561 11.1465C41.9965 11.2533 41.7371 11.3664 41.4781 11.4856L41.7916 12.167L42.1051 12.8483C42.3461 12.7374 42.5867 12.6325 42.8271 12.5335L42.5416 11.84ZM41.7916 12.167L41.4781 11.4856C41.474 11.4875 41.4792 11.4846 41.4924 11.4826C41.506 11.4805 41.5209 11.4806 41.5343 11.4827C41.5471 11.4848 41.5519 11.4876 41.5473 11.4855C41.5421 11.483 41.5269 11.4751 41.5021 11.4558L41.0416 12.0478L40.5811 12.6397C40.7813 12.7955 41.0213 12.92 41.2989 12.9642C41.5832 13.0093 41.8577 12.9621 42.1051 12.8483L41.7916 12.167ZM41.0416 12.0478L41.5021 11.4558C41.2776 11.2811 40.9878 11.1482 40.6475 11.1569C40.3099 11.1655 40.0285 11.3108 39.813 11.4895L40.2916 12.0669L40.7702 12.6443C40.8047 12.6157 40.7733 12.6542 40.6857 12.6564C40.6452 12.6575 40.6117 12.6497 40.59 12.6415C40.5701 12.634 40.5674 12.6291 40.5811 12.6397L41.0416 12.0478ZM40.2916 12.0669L39.813 11.4895C39.6514 11.6234 39.5531 11.6425 39.5098 11.6443L39.5416 12.3937L39.5734 13.143C40.0301 13.1236 40.4318 12.9249 40.7702 12.6443L40.2916 12.0669ZM39.5416 12.3937L39.5098 11.6443C39.5037 11.6446 39.4328 11.6496 39.2801 11.5186L38.7916 12.0877L38.3031 12.6567C38.6504 12.9549 39.0795 13.1639 39.5734 13.143L39.5416 12.3937ZM38.7916 12.0877L39.2801 11.5186C38.9063 11.1976 38.4206 10.9955 37.8745 11.1203L38.0416 11.8514L38.2087 12.5826C38.2075 12.5829 38.2029 12.5836 38.1967 12.5834C38.1907 12.5831 38.1884 12.5821 38.1913 12.583C38.1982 12.5852 38.2359 12.5991 38.3031 12.6567L38.7916 12.0877ZM38.0416 11.8514L37.8745 11.1203C37.7952 11.1384 37.7117 11.1348 37.5998 11.0844L37.2916 11.7681L36.9834 12.4519C37.3715 12.6268 37.788 12.6787 38.2087 12.5826L38.0416 11.8514ZM37.2916 11.7681L37.5998 11.0844C37.3449 10.9695 37.0628 10.9277 36.7737 10.9838C36.4935 11.0381 36.2553 11.1749 36.0596 11.3391L36.5416 11.9137L37.0236 12.4883C37.0779 12.4428 37.0897 12.4504 37.0595 12.4563C37.0443 12.4592 37.0263 12.46 37.0086 12.4578C36.9915 12.4556 36.9826 12.4515 36.9834 12.4519L37.2916 11.7681ZM36.5416 11.9137L36.0596 11.3391C36.0154 11.3762 36.0264 11.3511 36.0888 11.3446C36.1189 11.3414 36.1474 11.3444 36.1699 11.3503C36.191 11.3559 36.1984 11.3618 36.1915 11.3574L35.7916 11.9919L35.3917 12.6264C35.6329 12.7784 35.924 12.8699 36.2444 12.8365C36.5568 12.8039 36.8178 12.6609 37.0236 12.4883L36.5416 11.9137ZM35.7916 11.9919L36.1915 11.3574C35.7811 11.0987 35.3034 11.0046 34.8146 11.1598L35.0416 11.8746L35.2686 12.5894C35.2871 12.5836 35.2948 12.5845 35.3008 12.5854C35.3093 12.5867 35.3388 12.593 35.3917 12.6264L35.7916 11.9919ZM35.0416 11.8746L34.8146 11.1598C34.6471 11.213 34.4881 11.2326 34.3333 11.224L34.2916 11.9729L34.25 12.7217C34.5951 12.7409 34.9361 12.6951 35.2686 12.5894L35.0416 11.8746ZM34.2916 11.9729L34.3333 11.224C34.0571 11.2087 33.7809 11.2078 33.5047 11.2214L33.5416 11.9705L33.5785 12.7196C33.8023 12.7085 34.0261 12.7093 34.25 12.7217L34.2916 11.9729ZM33.5416 11.9705L33.5047 11.2214C33.1924 11.2367 32.8832 11.2907 32.5782 11.3812L32.7916 12.1002L33.005 12.8192C33.2 12.7614 33.3908 12.7288 33.5785 12.7196L33.5416 11.9705ZM32.7916 12.1002L32.5782 11.3812C32.3259 11.4561 32.0736 11.5323 31.8213 11.6098L32.0416 12.3268L32.2619 13.0437C32.5096 12.9676 32.7573 12.8927 33.005 12.8192L32.7916 12.1002ZM32.0416 12.3268L31.8213 11.6098C31.8179 11.6109 31.8193 11.6101 31.8244 11.6099C31.8266 11.6098 31.8288 11.6099 31.8306 11.61C31.8325 11.6102 31.8334 11.6104 31.8333 11.6104C31.8332 11.6104 31.8263 11.6088 31.8121 11.6018C31.7976 11.5946 31.7757 11.5818 31.7466 11.5596L31.2916 12.1558L30.8366 12.752C31.2349 13.056 31.7321 13.2065 32.2619 13.0437L32.0416 12.3268ZM31.2916 12.1558L31.7466 11.5596C31.3936 11.2902 30.9752 11.1163 30.5082 11.1371L30.5416 11.8864L30.5751 12.6357C30.608 12.6342 30.6896 12.6398 30.8366 12.752L31.2916 12.1558ZM30.5416 11.8864L30.5082 11.1371C30.0918 11.1557 29.7092 11.3073 29.3682 11.5405L29.7916 12.1596L30.215 12.7787C30.374 12.6699 30.4914 12.6394 30.5751 12.6357L30.5416 11.8864ZM29.7916 12.1596L29.3682 11.5405C29.3483 11.5541 29.338 11.5581 29.3375 11.5583C29.3373 11.5584 29.3393 11.5576 29.3433 11.5567C29.3473 11.5558 29.3528 11.5549 29.3593 11.5544C29.3658 11.5539 29.3725 11.5539 29.379 11.5544C29.3855 11.5548 29.391 11.5558 29.3951 11.5567C29.4035 11.5586 29.403 11.5598 29.3931 11.5545L29.0416 12.2171L28.6901 12.8796C28.924 13.0037 29.1897 13.0718 29.4739 13.05C29.7549 13.0284 30.0039 12.923 30.215 12.7787L29.7916 12.1596ZM29.0416 12.2171L29.3931 11.5545C29.044 11.3694 28.6668 11.2679 28.2711 11.2787L28.2916 12.0284L28.3121 12.7781C28.4164 12.7753 28.5392 12.7996 28.6901 12.8796L29.0416 12.2171ZM28.2916 12.0284L28.2711 11.2787C28.0822 11.2838 27.8918 11.2663 27.6989 11.2249L27.5416 11.9582L27.3843 12.6915C27.6914 12.7574 28.001 12.7866 28.3121 12.7781L28.2916 12.0284ZM27.5416 11.9582L27.6989 11.2249C27.4096 11.1628 27.1188 11.1246 26.8268 11.1109L26.7916 11.8601L26.7564 12.6093C26.9644 12.619 27.1736 12.6463 27.3843 12.6915L27.5416 11.9582ZM26.7916 11.8601L26.8268 11.1109C26.5784 11.0992 26.33 11.0868 26.0815 11.0735L26.0416 11.8225L26.0017 12.5714C26.2532 12.5848 26.5048 12.5974 26.7564 12.6093L26.7916 11.8601ZM26.0416 11.8225L26.0815 11.0735C25.8946 11.0636 25.7045 11.0301 25.51 10.9708L25.2916 11.6883L25.0732 12.4059C25.3787 12.4988 25.6886 12.5547 26.0017 12.5714L26.0416 11.8225ZM25.2916 11.6883L25.51 10.9708C24.9213 10.7917 24.402 11.0286 24.0269 11.3824L24.5416 11.928L25.0563 12.4735C25.1239 12.4098 25.1545 12.4025 25.1449 12.4056C25.139 12.4075 25.1265 12.4104 25.1098 12.4105C25.093 12.4106 25.08 12.4079 25.0732 12.4059L25.2916 11.6883ZM24.5416 11.928L24.0269 11.3824C23.846 11.5531 23.7216 11.6012 23.6554 11.6134L23.7916 12.351L23.9278 13.0885C24.3616 13.0084 24.7372 12.7746 25.0563 12.4735L24.5416 11.928ZM23.7916 12.351L23.6554 11.6134C23.6716 11.6105 23.6901 11.6099 23.708 11.6124C23.7253 11.6148 23.7339 11.619 23.7325 11.6183C23.726 11.6153 23.6796 11.5906 23.5996 11.5015L23.0416 12.0027L22.4836 12.5038C22.8189 12.8771 23.3125 13.2021 23.9278 13.0885L23.7916 12.351ZM23.0416 12.0027L23.5996 11.5015C23.4021 11.2817 23.0848 11.0394 22.6522 11.0477C22.2247 11.0559 21.9165 11.3051 21.7253 11.5254L22.2916 12.0171L22.8579 12.5088C22.9167 12.4411 22.8585 12.544 22.681 12.5474C22.4984 12.5509 22.431 12.4453 22.4836 12.5038L23.0416 12.0027ZM22.2916 12.0171L21.7253 11.5254C21.6426 11.6206 21.592 11.651 21.58 11.657C21.5758 11.6591 21.5822 11.6553 21.598 11.6525C21.6145 11.6496 21.6332 11.6492 21.6508 11.6518L21.5416 12.3938L21.4324 13.1358C22.0475 13.2263 22.5311 12.8853 22.8579 12.5088L22.2916 12.0171ZM21.5416 12.3938L21.6508 11.6518C21.3554 11.6083 21.059 11.5922 20.7622 11.6039L20.7916 12.3533L20.821 13.1027C21.0242 13.0947 21.2278 13.1057 21.4324 13.1358L21.5416 12.3938ZM20.7916 12.3533L20.7622 11.6039C20.7703 11.6035 20.8374 11.6055 20.9123 11.6591C20.9823 11.7091 20.9945 11.7582 20.9858 11.734L20.28 11.9876L19.5741 12.2411C19.6565 12.4706 19.7996 12.7074 20.04 12.8794C20.2855 13.0548 20.5629 13.1128 20.821 13.1027L20.7916 12.3533ZM20.28 11.9876L20.9858 11.734C20.832 11.3057 20.5426 10.9722 20.1618 10.7373L19.768 11.3755L19.3742 12.0138C19.4938 12.0877 19.5458 12.1622 19.5741 12.2411L20.28 11.9876ZM19.768 11.3755L20.1618 10.7373C20.1402 10.724 20.1288 10.7141 20.124 10.7093C20.1194 10.7049 20.1198 10.7044 20.122 10.7079C20.1243 10.7117 20.1257 10.7154 20.1263 10.7172C20.1267 10.7187 20.1252 10.7143 20.1246 10.7017L19.3753 10.7334L18.626 10.765C18.6489 11.3082 18.9305 11.7401 19.3742 12.0138L19.768 11.3755ZM19.3753 10.7334L20.1246 10.7017C20.1108 10.3735 20.0617 10.0556 19.9745 9.75005L19.2533 9.95585L18.532 10.1616C18.5845 10.3453 18.6167 10.5457 18.626 10.765L19.3753 10.7334ZM19.2533 9.95585L19.9745 9.75005C19.8672 9.37411 19.6665 9.04644 19.3867 8.77435L18.8638 9.31205L18.341 9.84974C18.4408 9.94684 18.4997 10.0484 18.532 10.1616L19.2533 9.95585ZM18.8638 9.31205L19.3867 8.77435C19.2227 8.61492 19.0761 8.4494 18.946 8.27793L18.3485 8.73118L17.751 9.18443C17.9283 9.41826 18.1252 9.63998 18.341 9.84974L18.8638 9.31205ZM18.3485 8.73118L18.946 8.27793C18.76 8.03264 18.5466 7.8056 18.308 7.5963L17.8134 8.16018L17.3189 8.72405C17.4863 8.87079 17.6296 9.02441 17.751 9.18443L18.3485 8.73118ZM17.8134 8.16018L18.308 7.5963C18.244 7.5402 18.2192 7.48984 18.2109 7.41393L17.4654 7.49568L16.7199 7.57743C16.7696 8.03149 16.9769 8.42412 17.3189 8.72405L17.8134 8.16018ZM17.4654 7.49568L18.2109 7.41393C18.1781 7.11448 18.1251 6.82255 18.0514 6.53863L17.3255 6.72713L16.5995 6.91562C16.6543 7.12648 16.6946 7.34692 16.7199 7.57743L17.4654 7.49568ZM17.3255 6.72713L18.0514 6.53863C17.9737 6.23934 17.8501 5.92578 17.632 5.68044L17.0715 6.17871L16.5109 6.67698C16.5035 6.66865 16.5137 6.67756 16.5332 6.71966C16.5524 6.76113 16.5758 6.82444 16.5995 6.91562L17.3255 6.72713ZM17.0715 6.17871L17.632 5.68044C17.5797 5.62159 17.5417 5.57863 17.5173 5.5508C17.5047 5.53648 17.4975 5.52823 17.4943 5.52449C17.492 5.52179 17.4948 5.5249 17.4995 5.53071C17.5004 5.53187 17.5099 5.54347 17.5215 5.55932C17.5245 5.56349 17.5438 5.5896 17.5645 5.62537C17.5706 5.63586 17.6039 5.69239 17.6293 5.77153C17.6399 5.80438 17.6727 5.91025 17.6636 6.04962C17.653 6.21135 17.5696 6.51202 17.2506 6.67151L16.9152 6.00069L16.5798 5.32987C16.2608 5.48937 16.1774 5.79005 16.1668 5.95181C16.1577 6.09119 16.1906 6.19709 16.2011 6.22998C16.2265 6.30919 16.2599 6.36582 16.2661 6.37644C16.2869 6.41247 16.3065 6.43895 16.3099 6.44361C16.3221 6.46044 16.3328 6.47348 16.3353 6.47654C16.3431 6.48614 16.3505 6.49488 16.3546 6.49966C16.3642 6.51087 16.3764 6.52492 16.3899 6.54028C16.4176 6.57178 16.4581 6.61761 16.5109 6.67698L17.0715 6.17871ZM16.9152 6.00069L17.2506 6.67151C17.3298 6.6257 17.4848 6.48866 17.5532 6.39505C17.6095 6.2845 17.663 6.05905 17.6636 5.95068C17.6486 5.72701 17.5381 5.58125 17.5158 5.55147C17.4507 5.4644 17.3804 5.41233 17.3747 5.40787C17.3386 5.37987 17.3073 5.36129 17.3037 5.35907C17.286 5.34835 17.2714 5.34058 17.2689 5.33922C17.2595 5.33417 17.2513 5.33003 17.2483 5.3285C17.2403 5.32447 17.2313 5.31999 17.223 5.31592C17.2054 5.30732 17.1805 5.29521 17.1491 5.28001C17.0858 5.24939 16.9914 5.20393 16.8662 5.14384L16.5416 5.81995L16.217 6.49606C16.3418 6.55601 16.4347 6.60069 16.4959 6.63032C16.5268 6.64524 16.5484 6.65578 16.5618 6.66235C16.569 6.66586 16.5714 6.66711 16.5711 6.66692C16.5708 6.66678 16.5697 6.66624 16.5682 6.66543C16.5669 6.66476 16.5635 6.66301 16.559 6.66058C16.5574 6.65972 16.5435 6.65233 16.5262 6.64187C16.5228 6.63978 16.4917 6.62131 16.4557 6.59338C16.45 6.58896 16.3797 6.53691 16.3146 6.44986C16.2924 6.4201 16.1818 6.27435 16.1669 6.05068C16.1675 5.94232 16.221 5.71686 16.2773 5.60632C16.3457 5.51271 16.5007 5.37567 16.5798 5.32987L16.9152 6.00069Z" fill="#030302"/>
</svg>
