<svg width="48" height="48" viewBox="0 0 48 48" fill="none" xmlns="http://www.w3.org/2000/svg">
<path d="M23.0019 38.1184L23.3578 37.4582L23.0019 38.1184ZM23.4654 38.7245L22.7456 38.9352L23.4654 38.7245ZM23.913 38.9384L24.3199 39.5684L23.913 38.9384ZM25.066 37.9741L25.2892 38.6901L25.066 37.9741ZM26.1717 36.9748L25.4799 36.6851L26.1717 36.9748ZM26.6374 36.379L26.199 35.7704L26.6374 36.379ZM27.8377 35.4585L27.0878 35.4669L27.8377 35.4585ZM28.1706 34.7421L27.795 34.093L28.1706 34.7421ZM28.6518 34.1719L27.9509 33.905L28.6518 34.1719ZM29.8803 33.2541L29.2277 32.8845L29.8803 33.2541ZM30.2525 32.5888L29.5959 32.2262L30.2525 32.5888ZM31.686 30.8612L30.9444 30.9731L31.686 30.8612ZM32.5026 29.5998L31.7885 29.3705L32.5026 29.5998ZM33.0947 29.0958L32.8942 28.3731L33.0947 29.0958ZM33.4339 28.4265L32.7058 28.6067L33.4339 28.4265ZM34.5202 26.4547L33.8384 26.1422L34.5202 26.4547ZM35.098 25.917L35.4149 26.5968L35.098 25.917ZM36.1996 23.9422L36.5943 24.5799L36.1996 23.9422ZM36.4285 23.2282L35.7156 23.4613L36.4285 23.2282ZM36.9928 21.8245L36.4029 21.3614L36.9928 21.8245ZM37.1833 21.1001L36.4399 21.1989L37.1833 21.1001ZM37.2146 20.326L37.9443 20.4993L37.2146 20.326ZM37.6785 19.6649L38.1438 20.2531L37.6785 19.6649ZM37.5737 15.928L38.3236 15.9394L37.5737 15.928ZM37.7735 13.6907L38.5091 13.544L37.7735 13.6907ZM37.4869 11.4245L36.7436 11.5248L37.4869 11.4245ZM36.1656 9.55182L35.7212 10.1559L36.1656 9.55182ZM33.577 5.95329L34.1566 5.47735L33.577 5.95329ZM33.0723 5.40066L33.5987 4.86644L33.0723 5.40066ZM31.7768 4.6559L31.479 5.34424L31.7768 4.6559ZM31.1265 4.30316L30.7107 4.92731L31.1265 4.30316ZM30.5157 3.88898L30.0898 4.50632L30.5157 3.88898ZM28.5706 2.80172L28.4127 2.06853L28.5706 2.80172ZM27.7879 2.79589L27.9876 2.07294L27.7879 2.79589ZM25.6818 1.88401L25.5198 2.61632L25.6818 1.88401ZM24.9286 1.73544L24.8002 2.47438L24.9286 1.73544ZM24.1661 1.74175L24.0271 1.00474L24.1661 1.74175ZM22.6285 1.7297L22.5184 2.47158L22.6285 1.7297ZM21.9 1.98368L21.3904 1.43335L21.9 1.98368ZM19.0693 3.03552L18.7408 2.36127L19.0693 3.03552ZM17.6254 3.48435L17.5708 4.23237L17.6254 3.48435ZM16.9574 3.80926L16.3264 3.40384L16.9574 3.80926ZM16.3916 4.33342L16.7254 5.00503L16.3916 4.33342ZM15.7625 4.73406L15.2948 4.14771L15.7625 4.73406ZM15.1608 5.18097L14.7345 4.56396L15.1608 5.18097ZM14.0928 6.21101L13.3428 6.21997L14.0928 6.21101ZM11.7546 9.97561L12.4485 10.2602L11.7546 9.97561ZM10.6674 11.1303L9.91745 11.1216L10.6674 11.1303ZM10.0506 14.8648L9.57102 14.2881L10.0506 14.8648ZM9.91097 15.5932L9.29868 16.0263L9.91097 15.5932ZM10.2645 17.825L10.8434 17.3482L10.2645 17.825ZM10.3442 19.335L11.0873 19.2336L10.3442 19.335ZM10.3168 20.1215L9.57996 19.9818L10.3168 20.1215ZM12.0828 24.2862L12.586 23.7301L12.0828 24.2862ZM12.61 24.862L12.0087 25.3102L12.61 24.862ZM13.0673 25.4634L13.6599 25.0038L13.0673 25.4634ZM14.8303 28.7607L15.5484 28.5442L14.8303 28.7607ZM15.6168 30.0424L14.8852 30.2074L15.6168 30.0424ZM16.0258 30.6714L16.4645 30.0631L16.0258 30.6714ZM16.392 31.3398L15.6463 31.4201L16.392 31.3398ZM16.959 31.8443L17.0539 31.1004L16.959 31.8443ZM17.4292 32.4376L18.1759 32.5078L17.4292 32.4376ZM18.4657 33.5225L18.4238 34.2713L18.4657 33.5225ZM19.2039 33.8739L19.8409 33.4781L19.2039 33.8739ZM19.5411 34.5762L18.8357 34.8309L19.5411 34.5762ZM19.7936 35.3652L20.5155 35.1618L19.7936 35.3652ZM20.922 36.3645L20.3358 36.8322L20.922 36.3645ZM21.4497 36.8992L21.9258 36.3197L21.4497 36.8992ZM22.0555 37.3565L22.4823 36.7398L22.0555 37.3565ZM22.6048 37.9992L23.1627 38.5004L22.6048 37.9992ZM25.1156 3.1836L24.8668 3.89112L25.1156 3.1836ZM25.8956 3.0823L25.534 2.42522L25.8956 3.0823ZM26.6547 3.08624L26.2328 3.70633L26.6547 3.08624ZM29.532 4.1161L29.4574 3.36982L29.532 4.1161ZM30.267 4.33417L29.7695 4.89539L30.267 4.33417ZM32.5647 6.35033L32.5847 5.60059L32.5647 6.35033ZM33.2142 6.73794L33.9024 6.43984L33.2142 6.73794ZM33.5838 7.42746L34.2102 7.0149L33.5838 7.42746ZM34.1511 7.93532L33.7967 8.59629L34.1511 7.93532ZM35.8166 10.4349L36.511 10.1513L35.8166 10.4349ZM35.877 11.2195L35.1403 11.0789L35.877 11.2195ZM36.1944 12.6756L36.8513 12.3136L36.1944 12.6756ZM36.4072 13.373L37.1545 13.309L36.4072 13.373ZM36.8407 14.8014L37.5881 14.7388L36.8407 14.8014ZM36.8113 15.5459L37.5516 15.666L36.8113 15.5459ZM37.0476 16.3007L37.6396 15.8403L37.0476 16.3007ZM36.6646 17.7643L37.3483 17.4558L36.6646 17.7643ZM36.9711 18.5692L36.2553 18.7931L36.9711 18.5692ZM36.0065 21.4314L35.2566 21.4424L36.0065 21.4314ZM35.709 22.1158L36.2213 22.6635L35.709 22.1158ZM35.2277 23.5428L35.599 24.1945L35.2277 23.5428ZM34.5494 24.0494L35.0808 24.5786L34.5494 24.0494ZM33.9925 26.3102L34.7264 26.4646L33.9925 26.3102ZM32.8481 27.3671L32.5334 26.6864L32.8481 27.3671ZM32.4601 28.0134L31.7105 28.0363L32.4601 28.0134ZM32.3108 28.8199L32.989 29.1401L32.3108 28.8199ZM31.7426 29.3369L31.4507 28.6461L31.7426 29.3369ZM30.3269 31.0896L30.1865 30.3528L30.3269 31.0896ZM29.2202 32.1242L28.6126 31.6845L29.2202 32.1242ZM28.1404 33.1633L28.6148 33.7443L28.1404 33.1633ZM27.8757 33.9349L27.1267 33.9739L27.8757 33.9349ZM27.5569 34.6599L27.921 35.3156L27.5569 34.6599ZM26.7769 34.956L26.9513 35.6854L26.7769 34.956ZM26.1507 35.3926L26.7999 35.7682L26.1507 35.3926ZM25.6719 35.969L25.1859 35.3978L25.6719 35.969ZM25.2815 36.6484L26.0109 36.8229L25.2815 36.6484ZM24.8732 37.3036L25.3119 37.9119L24.8732 37.3036ZM24.3153 37.5153L24.2928 38.2649L24.3153 37.5153ZM23.8116 37.2248L24.3736 36.7282L23.8116 37.2248ZM22.6603 36.2845L22.2059 36.8812L22.6603 36.2845ZM22.1762 35.7114L21.5147 36.0647L22.1762 35.7114ZM20.9041 34.8527L21.3375 34.2406L20.9041 34.8527ZM19.7828 33.8459L19.1531 34.2534L19.7828 33.8459ZM19.2594 33.3018L19.6929 32.6898L19.2594 33.3018ZM18.2453 32.1883L18.9364 31.8971L18.2453 32.1883ZM17.9314 31.4745L18.6131 31.1618L17.9314 31.4745ZM17.5254 30.8384L18.0941 30.3494L17.5254 30.8384ZM16.2429 28.9875L15.967 29.6849L16.2429 28.9875ZM15.7378 28.4314L15.0071 28.6003L15.7378 28.4314ZM15.3757 27.77L14.8475 28.3024L15.3757 27.77ZM14.9496 27.1549L15.6343 26.8489L14.9496 27.1549ZM14.2548 25.8275L13.5416 26.0597L14.2548 25.8275ZM13.4422 24.5631L13.0541 25.2049L13.4422 24.5631ZM11.8967 21.1588L11.1781 20.9441L11.8967 21.1588ZM11.7927 20.3986L11.1891 20.8437L11.7927 20.3986ZM11.5865 19.6865L10.8386 19.6305L11.5865 19.6865ZM10.9938 18.273L10.2475 18.1986L10.9938 18.273ZM11.1495 16.0019L10.4153 15.8489L11.1495 16.0019ZM11.0318 14.4986L11.6851 14.8669L11.0318 14.4986ZM11.5296 13.057L10.8471 13.3681L11.5296 13.057ZM12.593 10.3135L13.2394 10.6939L12.593 10.3135ZM13.4423 9.11162L12.9205 8.57288L13.4423 9.11162ZM13.9059 8.54294L14.54 8.94346L13.9059 8.54294ZM14.1549 7.79517L14.8993 7.88709L14.1549 7.79517ZM14.6158 7.22724L14.8419 7.94236L14.6158 7.22724ZM15.0813 6.61442L15.8258 6.70491L15.0813 6.61442ZM16.1711 5.58668L16.5807 6.215L16.1711 5.58668ZM18.7392 3.97455L19.1807 4.58088L18.7392 3.97455ZM20.9187 3.36848L20.5642 4.02937L20.9187 3.36848ZM21.7306 3.56677L21.6465 2.8215L21.7306 3.56677ZM23.1729 3.11604L23.4873 3.79699L23.1729 3.11604ZM23.9999 2.96186L24.7499 2.96095L23.9999 2.96186ZM8.23389 45.8439L8.17753 46.5918L8.23389 45.8439ZM10.375 46.2283L9.98032 46.8661L10.375 46.2283ZM11.875 46.1015L12.3147 45.4939L11.875 46.1015ZM14.875 46.1513L14.586 45.4592L14.875 46.1513ZM15.625 46.1113L15.4024 46.8275L15.625 46.1113ZM19.375 46.0919L18.9849 46.7324L19.375 46.0919ZM20.875 45.999L20.9494 46.7453L20.875 45.999ZM23.125 46.1007L23.6781 46.6073L23.125 46.1007ZM24.625 45.8636L24.4465 45.1352L24.625 45.8636ZM25.375 45.8044L25.44 45.0572L25.375 45.8044ZM26.125 46.1548L26.6099 45.5827L26.125 46.1548ZM26.875 46.1299L26.369 45.5763L26.875 46.1299ZM27.625 46.0249L28.0265 45.3914L27.625 46.0249ZM29.125 46.3585L29.4105 45.6649L29.125 46.3585ZM39.9236 45.1923L39.7012 45.9086L39.9236 45.1923ZM34.625 45.2682L34.721 46.012L34.625 45.2682ZM33.125 44.6699L33.0531 43.9233L33.125 44.6699ZM31.625 45.1402L31.9902 44.4851L31.625 45.1402ZM27.125 45.3096L26.9298 46.0337L27.125 45.3096ZM24.875 44.7829L24.6441 44.0693L24.875 44.7829ZM17.375 45.1988L17.0992 44.5014L17.375 45.1988ZM15.875 45.2908L15.4799 44.6533L15.875 45.2908ZM15.125 45.1834L15.6286 44.6276L15.125 45.1834ZM14.375 44.8574L14.4024 45.6069L14.375 44.8574ZM13.625 45.15L14.0727 45.7518L13.625 45.15ZM12.875 45.0777L12.3622 45.625L12.875 45.0777ZM10.625 45.1567L11.1405 45.7015L10.625 45.1567ZM27.0684 15.6733L27.8077 15.7996L27.0684 15.6733ZM25.9796 13.7381L26.1746 13.0139L25.9796 13.7381ZM25.2303 13.5114L25.4735 12.8019L25.2303 13.5114ZM24.563 13.0706L24.0351 13.6034L24.563 13.0706ZM23.1526 13.2122L22.4818 12.8767L23.1526 13.2122ZM22.6362 13.8695L23.0383 14.5027L22.6362 13.8695ZM20.9582 15.9835L20.3737 16.4534L20.9582 15.9835ZM21.7545 18.1376L21.0163 18.2705L21.7545 18.1376ZM24.4977 19.176L24.7801 19.8708L24.4977 19.176ZM25.6559 18.1915L26.0808 18.8095L25.6559 18.1915ZM26.2449 17.7907L25.8257 17.1688L26.2449 17.7907ZM26.9242 17.3068L27.3721 17.9083L26.9242 17.3068ZM27.3374 16.6089L28.0834 16.6867L27.3374 16.6089ZM22.1551 14.9346L21.6414 14.3882L22.1551 14.9346ZM24.2738 14.0493L24.5241 14.7563L24.2738 14.0493ZM24.8669 14.3374L25.5558 14.0408L24.8669 14.3374ZM26.0223 16.2243L25.4126 16.6611L26.0223 16.2243ZM25.8666 16.8447L25.529 16.175L25.8666 16.8447ZM24.7897 17.9746L25.1933 18.6067L24.7897 17.9746ZM24.0859 17.9969L24.4297 17.3304L24.0859 17.9969ZM23.3877 17.7285L23.2151 18.4583L23.3877 17.7285ZM22.644 17.5468L22.4618 18.2743L22.644 17.5468ZM21.9962 17.0832L22.6262 16.6763L21.9962 17.0832ZM23.0019 38.1184L22.646 38.7786C22.6704 38.7917 22.7107 38.8159 22.7456 38.9352L23.4654 38.7245L24.1852 38.5138C24.055 38.0692 23.7863 37.6893 23.3578 37.4582L23.0019 38.1184ZM23.4654 38.7245L22.7456 38.9352C22.8033 39.1323 22.9434 39.4882 23.3158 39.6662C23.7364 39.8672 24.1214 39.6966 24.3199 39.5684L23.913 38.9384L23.5061 38.3084C23.5073 38.3076 23.5173 38.3012 23.5357 38.2932C23.5542 38.2851 23.5847 38.2739 23.626 38.2662C23.7165 38.2493 23.8391 38.2538 23.9626 38.3128C24.0788 38.3683 24.1413 38.4461 24.1669 38.4852C24.191 38.5218 24.1925 38.5388 24.1852 38.5138L23.4654 38.7245ZM23.913 38.9384L24.3199 39.5684C24.6182 39.3758 24.8705 39.1315 25.0727 38.8396L24.4561 38.4125L23.8396 37.9855C23.7493 38.1159 23.6394 38.2223 23.5061 38.3084L23.913 38.9384ZM24.4561 38.4125L25.0727 38.8396C25.1177 38.7747 25.1781 38.7247 25.2892 38.6901L25.066 37.9741L24.8428 37.258C24.4333 37.3857 24.0872 37.6281 23.8396 37.9855L24.4561 38.4125ZM25.066 37.9741L25.2892 38.6901C25.644 38.5794 25.9649 38.4037 26.2385 38.1567L25.736 37.6L25.2335 37.0432C25.1343 37.1327 25.0085 37.2064 24.8428 37.258L25.066 37.9741ZM25.736 37.6L26.2385 38.1567C26.5128 37.9092 26.7199 37.6073 26.8635 37.2645L26.1717 36.9748L25.4799 36.6851C25.4153 36.8394 25.332 36.9543 25.2335 37.0432L25.736 37.6ZM26.1717 36.9748L26.8635 37.2645C26.9175 37.1356 26.9885 37.0504 27.0757 36.9876L26.6374 36.379L26.199 35.7704C25.8736 36.0048 25.6342 36.3168 25.4799 36.6851L26.1717 36.9748ZM26.6374 36.379L27.0757 36.9876C27.1791 36.9131 27.3268 36.8455 27.5406 36.8033L27.3952 36.0675L27.2498 35.3317C26.8659 35.4076 26.5083 35.5477 26.199 35.7704L26.6374 36.379ZM27.3952 36.0675L27.5406 36.8033C27.8336 36.7454 28.1291 36.5976 28.3367 36.3118C28.5355 36.0382 28.5907 35.7244 28.5877 35.4501L27.8377 35.4585L27.0878 35.4669C27.0886 35.5395 27.072 35.5007 27.1233 35.4301C27.149 35.3946 27.1809 35.3673 27.2113 35.3494C27.2396 35.3328 27.2563 35.3305 27.2498 35.3317L27.3952 36.0675ZM27.8377 35.4585L28.5877 35.4501C28.5866 35.3546 28.6024 35.3262 28.5982 35.3353C28.5955 35.341 28.589 35.3526 28.5771 35.3657C28.5651 35.3788 28.5534 35.3871 28.5462 35.3913L28.1706 34.7421L27.795 34.093C27.2581 34.4037 27.082 34.9515 27.0878 35.4669L27.8377 35.4585ZM28.1706 34.7421L28.5462 35.3913C28.9249 35.1722 29.198 34.8452 29.3527 34.4387L28.6518 34.1719L27.9509 33.905C27.9156 33.9977 27.8679 34.0508 27.795 34.093L28.1706 34.7421ZM28.6518 34.1719L29.3527 34.4387C29.3551 34.4325 29.3556 34.433 29.3527 34.4371C29.3497 34.4414 29.346 34.4451 29.3434 34.4472C29.3375 34.452 29.3524 34.4368 29.4148 34.4222L29.2431 33.6921L29.0715 32.962C28.5724 33.0793 28.149 33.3847 27.9509 33.905L28.6518 34.1719ZM29.2431 33.6921L29.4148 34.4222C29.872 34.3147 30.2833 34.0644 30.5329 33.6238L29.8803 33.2541L29.2277 32.8845C29.2217 32.8951 29.2156 32.9024 29.202 32.9118C29.1858 32.9229 29.1476 32.9441 29.0715 32.962L29.2431 33.6921ZM29.8803 33.2541L30.5329 33.6238C30.6597 33.3998 30.7851 33.1757 30.909 32.9515L30.2525 32.5888L29.5959 32.2262C29.4747 32.4457 29.352 32.6652 29.2277 32.8845L29.8803 33.2541ZM30.2525 32.5888L30.909 32.9515C31.0539 32.689 31.1754 32.4119 31.274 32.1211L30.5638 31.8802L29.8535 31.6392C29.7822 31.8496 29.6961 32.0449 29.5959 32.2262L30.2525 32.5888ZM30.5638 31.8802L31.274 32.1211C31.27 32.133 31.2612 32.1521 31.2452 32.1727C31.2291 32.1934 31.2126 32.2067 31.2018 32.2138C31.1919 32.2202 31.1919 32.218 31.2086 32.2128C31.2257 32.2075 31.2567 32.2001 31.3055 32.1951L31.2288 31.449L31.1521 30.703C30.6263 30.757 30.0673 31.0093 29.8535 31.6392L30.5638 31.8802ZM31.2288 31.449L31.3055 32.1951C31.5957 32.1653 31.9545 32.0555 32.2039 31.7349C32.4536 31.4137 32.4712 31.0384 32.4276 30.7494L31.686 30.8612L30.9444 30.9731C30.9543 31.0391 30.9224 30.9392 31.0198 30.814C31.1168 30.6894 31.2203 30.696 31.1521 30.703L31.2288 31.449ZM31.686 30.8612L32.4276 30.7494C32.4139 30.6588 32.4333 30.6641 32.4109 30.7159C32.3989 30.7436 32.3797 30.7725 32.3548 30.7969C32.3308 30.8205 32.3111 30.8306 32.3064 30.8327L31.9942 30.1508L31.682 29.4689C31.403 29.5966 31.1677 29.8125 31.0348 30.1188C30.9096 30.4074 30.9045 30.7086 30.9444 30.9731L31.686 30.8612ZM31.9942 30.1508L32.3064 30.8327C32.7376 30.6353 33.0661 30.298 33.2166 29.8292L32.5026 29.5998L31.7885 29.3705C31.7793 29.3991 31.7689 29.4291 31.682 29.4689L31.9942 30.1508ZM32.5026 29.5998L33.2166 29.8292C33.2164 29.83 33.2142 29.8359 33.2089 29.8439C33.2036 29.8519 33.1985 29.8569 33.1967 29.8584C33.1936 29.861 33.2163 29.8404 33.2952 29.8185L33.0947 29.0958L32.8942 28.3731C32.4054 28.5087 31.9653 28.82 31.7885 29.3705L32.5026 29.5998ZM33.0947 29.0958L33.2952 29.8185C33.59 29.7367 33.9058 29.5549 34.0847 29.202C34.2537 28.8686 34.2294 28.5191 34.1619 28.2464L33.4339 28.4265L32.7058 28.6067C32.7271 28.6927 32.6908 28.6343 32.7467 28.5239C32.7753 28.4674 32.8154 28.4248 32.8527 28.3977C32.8864 28.3732 32.9064 28.3697 32.8942 28.3731L33.0947 29.0958ZM33.4339 28.4265L34.1619 28.2464C34.149 28.1941 34.1443 28.1573 34.143 28.1341C34.1418 28.1111 34.144 28.1051 34.1426 28.1118C34.141 28.1196 34.136 28.1372 34.1234 28.1587C34.1106 28.1805 34.0956 28.1971 34.0831 28.2076L33.5975 27.6361L33.1118 27.0646C32.609 27.4918 32.5817 28.1052 32.7058 28.6067L33.4339 28.4265ZM33.5975 27.6361L34.0831 28.2076C34.3164 28.0094 34.5275 27.7928 34.7151 27.5579L34.129 27.0899L33.5429 26.622C33.4175 26.779 33.2742 26.9266 33.1118 27.0646L33.5975 27.6361ZM34.129 27.0899L34.7151 27.5579C34.9096 27.3143 35.0721 27.0504 35.2019 26.7672L34.5202 26.4547L33.8384 26.1422C33.7596 26.314 33.6614 26.4736 33.5429 26.622L34.129 27.0899ZM34.5202 26.4547L35.2019 26.7672C35.2155 26.7375 35.2554 26.6711 35.4149 26.5968L35.098 25.917L34.7811 25.2373C34.3787 25.4249 34.0333 25.7169 33.8384 26.1422L34.5202 26.4547ZM35.098 25.917L35.4149 26.5968C35.6499 26.4872 35.8739 26.3225 36.0361 26.0808C36.201 25.8352 36.2683 25.5598 36.2665 25.2883L35.5165 25.2934L34.7665 25.2986C34.7666 25.3077 34.7655 25.3038 34.7691 25.2909C34.7729 25.2772 34.78 25.2607 34.7906 25.245C34.801 25.2295 34.81 25.2217 34.8116 25.2204C34.8126 25.2196 34.8043 25.2264 34.7811 25.2373L35.098 25.917ZM35.5165 25.2934L36.2665 25.2883C36.2651 25.0944 36.2985 24.9444 36.3509 24.825L35.6643 24.5233L34.9777 24.2215C34.8291 24.5596 34.7639 24.923 34.7665 25.2986L35.5165 25.2934ZM35.6643 24.5233L36.3509 24.825C36.3787 24.7618 36.4399 24.6754 36.5943 24.5799L36.1996 23.9422L35.8048 23.3045C35.4466 23.5262 35.1509 23.8273 34.9777 24.2215L35.6643 24.5233ZM36.1996 23.9422L36.5943 24.5799C36.8415 24.4268 37.0599 24.1959 37.1632 23.8737C37.2634 23.5612 37.226 23.2541 37.1414 22.9952L36.4285 23.2282L35.7156 23.4613C35.7347 23.5196 35.711 23.4902 35.7348 23.4157C35.7465 23.3793 35.7648 23.3486 35.7834 23.3264C35.8007 23.3057 35.8119 23.3001 35.8048 23.3045L36.1996 23.9422ZM36.4285 23.2282L37.1414 22.9952C37.1137 22.9105 37.1169 22.8737 37.1171 22.8722C37.1171 22.8721 37.1164 22.8776 37.113 22.8861C37.1096 22.8947 37.1058 22.9005 37.1041 22.9027L36.5102 22.4446L35.9163 21.9866C35.5635 22.4441 35.5597 22.9842 35.7156 23.4613L36.4285 23.2282ZM36.5102 22.4446L37.1041 22.9027C37.2609 22.6993 37.4205 22.4943 37.5827 22.2877L36.9928 21.8245L36.4029 21.3614C36.2381 21.5713 36.0759 21.7797 35.9163 21.9866L36.5102 22.4446ZM36.9928 21.8245L37.5827 22.2877C37.8774 21.9124 37.9885 21.466 37.9268 21.0013L37.1833 21.1001L36.4399 21.1989C36.4511 21.2836 36.4353 21.3201 36.4029 21.3614L36.9928 21.8245ZM37.1833 21.1001L37.9268 21.0013C37.901 20.807 37.9104 20.6419 37.9443 20.4993L37.2146 20.326L36.4849 20.1526C36.4041 20.493 36.3927 20.844 36.4399 21.1989L37.1833 21.1001ZM37.2146 20.326L37.9443 20.4993C37.9525 20.4648 37.9849 20.3788 38.1438 20.2531L37.6785 19.6649L37.2132 19.0767C36.8683 19.3495 36.5915 19.7042 36.4849 20.1526L37.2146 20.326ZM37.6785 19.6649L38.1438 20.2531C38.3829 20.0639 38.5991 19.7769 38.6297 19.3885C38.6587 19.0215 38.5091 18.7106 38.3464 18.484L37.7371 18.9214L37.1279 19.3588C37.178 19.4286 37.125 19.3898 37.1344 19.2706C37.1392 19.2096 37.159 19.1561 37.1827 19.1172C37.2043 19.0816 37.2216 19.07 37.2132 19.0767L37.6785 19.6649ZM37.7371 18.9214L38.3464 18.484C38.3034 18.4242 38.3608 18.4736 38.3453 18.5996C38.3379 18.6604 38.3162 18.7079 38.297 18.7371C38.2798 18.7632 38.2704 18.7664 38.2887 18.7523L37.8307 18.1584L37.3727 17.5645C37.1345 17.7482 36.9042 18.028 36.8565 18.417C36.8098 18.7974 36.958 19.1222 37.1279 19.3588L37.7371 18.9214ZM37.8307 18.1584L38.2887 18.7523C38.6842 18.4472 39.0024 18.0001 38.9733 17.4166L38.2243 17.4539L37.4752 17.4912C37.4749 17.4854 37.4754 17.4766 37.4777 17.4673C37.4799 17.4583 37.4822 17.4546 37.4807 17.4573C37.4768 17.4644 37.4524 17.503 37.3727 17.5645L37.8307 18.1584ZM38.2243 17.4539L38.9733 17.4166C38.9504 16.9564 38.7501 16.5497 38.466 16.204L37.8866 16.6802L37.3071 17.1564C37.4477 17.3275 37.4725 17.4365 37.4752 17.4912L38.2243 17.4539ZM37.8866 16.6802L38.466 16.204C38.3242 16.0315 38.3234 15.9482 38.3236 15.9394L37.5737 15.928L36.8237 15.9166C36.8165 16.3941 37.0243 16.8122 37.3071 17.1564L37.8866 16.6802ZM37.5737 15.928L38.3236 15.9394C38.3241 15.9049 38.3385 15.8051 38.4739 15.6283L37.8783 15.1725L37.2827 14.7167C37.0193 15.0609 36.8306 15.4648 36.8237 15.9166L37.5737 15.928ZM37.8783 15.1725L38.4739 15.6283C38.7943 15.2096 38.9488 14.6654 38.6943 14.1082L38.0121 14.4198L37.3299 14.7315C37.3287 14.729 37.3245 14.7185 37.3223 14.7017C37.32 14.6846 37.3208 14.669 37.3229 14.6577C37.3267 14.636 37.3298 14.6551 37.2827 14.7167L37.8783 15.1725ZM38.0121 14.4198L38.6943 14.1082C38.6067 13.9165 38.5459 13.7286 38.5091 13.544L37.7735 13.6907L37.038 13.8373C37.0989 14.1425 37.1971 14.4408 37.3299 14.7315L38.0121 14.4198ZM37.7735 13.6907L38.5091 13.544C38.467 13.333 38.4392 13.1177 38.4258 12.898L37.6771 12.9436L36.9285 12.9892C36.946 13.2758 36.9824 13.5586 37.038 13.8373L37.7735 13.6907ZM37.6771 12.9436L38.4258 12.898C38.4089 12.6221 38.3796 12.3474 38.3378 12.0737L37.5964 12.1869L36.855 12.3001C36.89 12.5291 36.9145 12.7588 36.9285 12.9892L37.6771 12.9436ZM37.5964 12.1869L38.3378 12.0737C38.3002 11.8268 38.2643 11.577 38.2302 11.3243L37.4869 11.4245L36.7436 11.5248C36.7789 11.786 36.816 12.0444 36.855 12.3001L37.5964 12.1869ZM37.4869 11.4245L38.2302 11.3243C38.1577 10.7866 37.8254 10.3986 37.4014 10.1511L37.0232 10.7988L36.6451 11.4465C36.7138 11.4866 36.7375 11.5153 36.7424 11.5219C36.7448 11.5251 36.7445 11.5254 36.7436 11.5233C36.7428 11.5212 36.7431 11.521 36.7436 11.5248L37.4869 11.4245ZM37.0232 10.7988L37.4014 10.1511C37.3312 10.1101 37.3053 10.0801 37.2986 10.0712C37.2953 10.0669 37.295 10.0655 37.2955 10.0667C37.2961 10.068 37.2956 10.0677 37.2951 10.064L36.5536 10.1765L35.8121 10.289C35.8926 10.8197 36.2252 11.2014 36.6451 11.4465L37.0232 10.7988ZM36.5536 10.1765L37.2951 10.064C37.2247 9.59973 36.9796 9.21956 36.6101 8.94769L36.1656 9.55182L35.7212 10.1559C35.7917 10.2078 35.8052 10.2441 35.8121 10.289L36.5536 10.1765ZM36.1656 9.55182L36.6101 8.94769C36.6016 8.94143 36.6004 8.93915 36.6028 8.94205C36.6054 8.94521 36.6085 8.95005 36.6107 8.95516C36.6129 8.96006 36.6122 8.96052 36.6111 8.9538C36.61 8.94664 36.6083 8.93058 36.6098 8.90353L35.8611 8.86097L35.1123 8.81842C35.0825 9.34164 35.2748 9.82759 35.7212 10.1559L36.1656 9.55182ZM35.8611 8.86097L36.6098 8.90353C36.6363 8.43806 36.5107 7.98118 36.1682 7.6201L35.6241 8.13632L35.08 8.65255C35.0873 8.66026 35.1198 8.68649 35.1123 8.81842L35.8611 8.86097ZM35.6241 8.13632L36.1682 7.6201C36.0101 7.45356 35.8626 7.28171 35.7255 7.10457L35.1325 7.56374L34.5394 8.0229C34.7079 8.24042 34.8881 8.4503 35.08 8.65255L35.6241 8.13632ZM35.1325 7.56374L35.7255 7.10457C35.521 6.84054 35.2764 6.61523 34.9958 6.42899L34.5811 7.05386L34.1663 7.67873C34.3153 7.77766 34.4383 7.89227 34.5394 8.0229L35.1325 7.56374ZM34.5811 7.05386L34.9958 6.42899C34.8503 6.33236 34.733 6.22073 34.6386 6.09386L34.0368 6.54143L33.435 6.989C33.6367 7.26021 33.8822 7.49019 34.1663 7.67873L34.5811 7.05386ZM34.0368 6.54143L34.6386 6.09386C34.4834 5.88512 34.3227 5.67962 34.1566 5.47735L33.577 5.95329L32.9974 6.42923C33.1483 6.61308 33.2942 6.79967 33.435 6.989L34.0368 6.54143ZM33.577 5.95329L34.1566 5.47735C33.9814 5.26394 33.7954 5.06028 33.5987 4.86644L33.0723 5.40066L32.5459 5.93487C32.7051 6.09176 32.8555 6.25652 32.9974 6.42923L33.577 5.95329ZM33.0723 5.40066L33.5987 4.86644C33.3618 4.63301 33.0916 4.44284 32.7914 4.29684L32.4634 4.97131L32.1354 5.64577C32.2911 5.72151 32.4268 5.81757 32.5459 5.93487L33.0723 5.40066ZM32.4634 4.97131L32.7914 4.29684C32.5536 4.18118 32.3147 4.07142 32.0746 3.96756L31.7768 4.6559L31.479 5.34424C31.6985 5.43919 31.9172 5.53969 32.1354 5.64577L32.4634 4.97131ZM31.7768 4.6559L32.0746 3.96756C31.8851 3.88558 31.708 3.78933 31.5424 3.679L31.1265 4.30316L30.7107 4.92731C30.9526 5.08851 31.209 5.22742 31.479 5.34424L31.7768 4.6559ZM31.1265 4.30316L31.5424 3.679C31.342 3.5455 31.1417 3.40972 30.9416 3.27165L30.5157 3.88898L30.0898 4.50632C30.2965 4.64895 30.5035 4.78928 30.7107 4.92731L31.1265 4.30316ZM30.5157 3.88898L30.9416 3.27165C30.8444 3.20458 30.7342 3.09218 30.6223 2.90459L29.9781 3.28872L29.334 3.67284C29.532 4.00491 29.7802 4.29269 30.0898 4.50632L30.5157 3.88898ZM29.9781 3.28872L30.6223 2.90459C30.385 2.50662 30.032 2.19782 29.5564 2.07727L29.3721 2.80428L29.1879 3.5313C29.2104 3.537 29.2614 3.55115 29.334 3.67284L29.9781 3.28872ZM29.3721 2.80428L29.5564 2.07727C29.1809 1.98211 28.7956 1.9861 28.4127 2.06853L28.5706 2.80172L28.7285 3.53492C28.9161 3.49451 29.0652 3.5002 29.1879 3.5313L29.3721 2.80428ZM28.5706 2.80172L28.4127 2.06853C28.2234 2.10928 28.0873 2.1005 27.9876 2.07294L27.7879 2.79589L27.5883 3.51883C27.9616 3.6219 28.3472 3.61701 28.7285 3.53492L28.5706 2.80172ZM27.7879 2.79589L27.9876 2.07294C27.8442 2.03336 27.6963 1.96356 27.5428 1.85338L27.1054 2.46265L26.668 3.07192C26.9515 3.27543 27.2586 3.42779 27.5883 3.51883L27.7879 2.79589ZM27.1054 2.46265L27.5428 1.85338C27.271 1.65826 26.9803 1.50314 26.6713 1.39159L26.4166 2.09702L26.1619 2.80246C26.3344 2.86471 26.5028 2.95334 26.668 3.07192L27.1054 2.46265ZM26.4166 2.09702L26.6713 1.39159C26.4003 1.29378 26.1244 1.21379 25.8438 1.15171L25.6818 1.88401L25.5198 2.61632C25.7374 2.66444 25.9514 2.72646 26.1619 2.80246L26.4166 2.09702ZM25.6818 1.88401L25.8438 1.15171C25.5834 1.09412 25.3211 1.04239 25.0569 0.996506L24.9286 1.73544L24.8002 2.47438C25.042 2.51638 25.2819 2.5637 25.5198 2.61632L25.6818 1.88401ZM24.9286 1.73544L25.0569 0.996506C24.7143 0.93701 24.3696 0.940143 24.0271 1.00474L24.1661 1.74175L24.3051 2.47875C24.4732 2.44706 24.6368 2.44599 24.8002 2.47438L24.9286 1.73544ZM24.1661 1.74175L24.0271 1.00474C23.825 1.04286 23.6254 1.05811 23.4273 1.05132L23.4016 1.80088L23.3759 2.55044C23.6866 2.56109 23.9967 2.53693 24.3051 2.47875L24.1661 1.74175ZM23.4016 1.80088L23.4273 1.05132C23.2021 1.0436 22.9726 1.02255 22.7386 0.987829L22.6285 1.7297L22.5184 2.47158C22.8063 2.51431 23.0922 2.54071 23.3759 2.55044L23.4016 1.80088ZM22.6285 1.7297L22.7386 0.987829C22.2151 0.910141 21.7519 1.09869 21.3904 1.43335L21.9 1.98368L22.4095 2.53402C22.4603 2.48697 22.4904 2.47485 22.4975 2.47235C22.5014 2.471 22.5033 2.47079 22.5043 2.4707C22.5053 2.4706 22.5096 2.47028 22.5184 2.47158L22.6285 1.7297ZM21.9 1.98368L21.3904 1.43335C21.197 1.61241 21.0134 1.75124 20.8404 1.8555L21.2275 2.49789L21.6146 3.14027C21.8888 2.97502 22.1535 2.77105 22.4095 2.53402L21.9 1.98368ZM21.2275 2.49789L20.8404 1.8555C20.7324 1.92057 20.6292 1.94758 20.517 1.94655L20.5102 2.69652L20.5033 3.44648C20.9003 3.45013 21.2753 3.34472 21.6146 3.14027L21.2275 2.49789ZM20.5102 2.69652L20.517 1.94655C20.201 1.94365 19.8902 1.97931 19.5863 2.05453L19.7665 2.78256L19.9467 3.51059C20.1252 3.46641 20.3102 3.44471 20.5033 3.44648L20.5102 2.69652ZM19.7665 2.78256L19.5863 2.05453C19.2939 2.12691 19.0118 2.22927 18.7408 2.36127L19.0693 3.03552L19.3977 3.70977C19.574 3.62389 19.7567 3.55761 19.9467 3.51059L19.7665 2.78256ZM19.0693 3.03552L18.7408 2.36127C18.5196 2.46904 18.2985 2.57525 18.0777 2.67989L18.3989 3.35765L18.7201 4.0354C18.9458 3.92843 19.1717 3.81989 19.3977 3.70977L19.0693 3.03552ZM18.3989 3.35765L18.0777 2.67989C17.9916 2.72068 17.8673 2.75001 17.6799 2.73634L17.6254 3.48435L17.5708 4.23237C17.9682 4.26136 18.3596 4.20622 18.7201 4.0354L18.3989 3.35765ZM17.6254 3.48435L17.6799 2.73634C17.4263 2.71784 17.1614 2.75334 16.911 2.87514C16.6591 2.99766 16.4664 3.18593 16.3264 3.40384L16.9574 3.80926L17.5884 4.21467C17.5958 4.20319 17.5982 4.20219 17.5935 4.20651C17.5913 4.2086 17.5878 4.21154 17.583 4.21482C17.5782 4.21811 17.5728 4.22125 17.5671 4.22402C17.5551 4.22989 17.5462 4.23182 17.544 4.23219C17.5424 4.23246 17.5504 4.23088 17.5708 4.23237L17.6254 3.48435ZM16.9574 3.80926L16.3264 3.40384C16.2371 3.54287 16.1458 3.61806 16.0578 3.66181L16.3916 4.33342L16.7254 5.00503C17.0861 4.82577 17.372 4.55152 17.5884 4.21467L16.9574 3.80926ZM16.3916 4.33342L16.0578 3.66181C15.7861 3.79683 15.5315 3.95892 15.2948 4.14771L15.7625 4.73406L16.2301 5.32042C16.3836 5.19803 16.5484 5.09303 16.7254 5.00503L16.3916 4.33342ZM15.7625 4.73406L15.2948 4.14771C15.1132 4.29257 14.9264 4.43132 14.7345 4.56396L15.1608 5.18097L15.5872 5.79798C15.8073 5.64592 16.0216 5.48673 16.2301 5.32042L15.7625 4.73406ZM15.1608 5.18097L14.7345 4.56396C14.5835 4.66825 14.4088 4.75946 14.2065 4.8351L14.4691 5.5376L14.7318 6.2401C15.0398 6.12494 15.3262 5.97839 15.5872 5.79798L15.1608 5.18097ZM14.4691 5.5376L14.2065 4.8351C13.9232 4.94102 13.6838 5.13459 13.529 5.41159C13.3827 5.67334 13.3397 5.95907 13.3428 6.21997L14.0928 6.21101L14.8427 6.20204C14.8416 6.1094 14.8592 6.10613 14.8384 6.1434C14.827 6.16377 14.809 6.18705 14.7846 6.2075C14.7608 6.22754 14.7404 6.23687 14.7318 6.2401L14.4691 5.5376ZM14.0928 6.21101L13.3428 6.21997C13.3434 6.27166 13.3306 6.17549 13.4342 6.07416C13.5313 5.97932 13.6115 5.99759 13.533 5.99861L13.5427 6.74855L13.5525 7.49848C13.8449 7.49468 14.2023 7.42096 14.4826 7.14693C14.7697 6.86643 14.8463 6.50389 14.8427 6.20204L14.0928 6.21101ZM13.5427 6.74855L13.533 5.99861C13.0356 6.00507 12.495 6.15378 12.1523 6.63237L12.7622 7.06896L13.372 7.50555C13.3663 7.51345 13.3593 7.52061 13.3527 7.52563C13.3466 7.53036 13.3456 7.52962 13.3542 7.52608C13.374 7.51796 13.4329 7.50003 13.5525 7.49848L13.5427 6.74855ZM12.7622 7.06896L12.1523 6.63237C11.9304 6.9423 11.7922 7.29404 11.7283 7.67269L12.4678 7.7975L13.2074 7.92232C13.2369 7.74716 13.2949 7.6132 13.372 7.50555L12.7622 7.06896ZM12.4678 7.7975L11.7283 7.67269C11.6821 7.94638 11.6354 8.21234 11.5881 8.47059L12.3259 8.60559L13.0636 8.74059C13.1122 8.4752 13.1601 8.20244 13.2074 7.92232L12.4678 7.7975ZM12.3259 8.60559L11.5881 8.47059C11.5539 8.65767 11.4963 8.81481 11.4208 8.94861L12.0739 9.31738L12.7269 9.68614C12.8916 9.39454 13.002 9.07716 13.0636 8.74059L12.3259 8.60559ZM12.0739 9.31738L11.4208 8.94861C11.2853 9.1885 11.1653 9.43601 11.0607 9.69098L11.7546 9.97561L12.4485 10.2602C12.5294 10.063 12.6222 9.87166 12.7269 9.68614L12.0739 9.31738ZM11.7546 9.97561L11.0607 9.69098C11.0607 9.69098 11.0607 9.69102 11.0606 9.69112C11.0606 9.69122 11.0605 9.69144 11.0603 9.69177C11.0599 9.69241 11.0591 9.69383 11.0575 9.69606C11.0543 9.7004 11.0471 9.70934 11.0328 9.72209C11.0032 9.74855 10.9457 9.78901 10.8434 9.83375L11.1438 10.521L11.4442 11.2082C11.8643 11.0245 12.2563 10.7287 12.4485 10.2602L11.7546 9.97561ZM11.1438 10.521L10.8434 9.83375C10.6085 9.93644 10.3752 10.0878 10.198 10.3145C10.0128 10.5514 9.92085 10.8303 9.91745 11.1216L10.6674 11.1303L11.4174 11.1391C11.4173 11.1456 11.416 11.1622 11.4083 11.1845C11.4006 11.207 11.3897 11.2256 11.3797 11.2383C11.3613 11.2619 11.3647 11.2429 11.4442 11.2082L11.1438 10.521ZM10.6674 11.1303L9.91745 11.1216C9.91573 11.2693 9.88146 11.3919 9.81867 11.5032L10.4719 11.8718L11.125 12.2404C11.3167 11.9007 11.4128 11.5291 11.4174 11.1391L10.6674 11.1303ZM10.4719 11.8718L9.81867 11.5032C9.61871 11.8576 9.53184 12.2467 9.55686 12.6518L10.3054 12.6056L11.054 12.5594C11.0465 12.437 11.0705 12.3369 11.125 12.2404L10.4719 11.8718ZM10.3054 12.6056L9.55686 12.6518C9.56737 12.822 9.54616 12.9756 9.49727 13.1188L10.2071 13.361L10.9169 13.6032C11.0317 13.2667 11.0761 12.9166 11.054 12.5594L10.3054 12.6056ZM10.2071 13.361L9.49727 13.1188C9.34209 13.5736 9.40079 14.0298 9.59552 14.4419L10.2736 14.1214L10.9517 13.8009C10.894 13.6789 10.9084 13.6282 10.9169 13.6032L10.2071 13.361ZM10.2736 14.1214L9.59552 14.4419C9.59564 14.4421 9.58763 14.425 9.58442 14.3932C9.58105 14.3597 9.58447 14.3241 9.59412 14.2919C9.61266 14.2302 9.63696 14.2333 9.57102 14.2881L10.0506 14.8648L10.5301 15.4414C10.739 15.2677 10.938 15.0326 11.0309 14.723C11.1288 14.3964 11.082 14.0766 10.9517 13.8009L10.2736 14.1214ZM10.0506 14.8648L9.57102 14.2881C9.35812 14.4651 9.14069 14.7234 9.0729 15.0772C9.00141 15.4503 9.12398 15.7794 9.29868 16.0263L9.91097 15.5932L10.5233 15.1601C10.518 15.1527 10.5309 15.1685 10.5414 15.2072C10.5528 15.2493 10.5569 15.303 10.5461 15.3595C10.5248 15.4704 10.4681 15.493 10.5301 15.4414L10.0506 14.8648ZM9.91097 15.5932L9.29868 16.0263C9.34532 16.0923 9.35864 16.1328 9.3624 16.1487C9.36525 16.1608 9.36475 16.1658 9.36277 16.1738L10.0908 16.3541L10.8188 16.5344C10.9446 16.0264 10.8006 15.5521 10.5233 15.1601L9.91097 15.5932ZM10.0908 16.3541L9.36277 16.1738C9.28754 16.4775 9.24676 16.7847 9.24142 17.0945L9.99131 17.1074L10.7412 17.1203C10.7445 16.926 10.7701 16.731 10.8188 16.5344L10.0908 16.3541ZM9.99131 17.1074L9.24142 17.0945C9.2335 17.5534 9.40526 17.9615 9.68556 18.3018L10.2645 17.825L10.8434 17.3482C10.7508 17.2358 10.7404 17.1654 10.7412 17.1203L9.99131 17.1074ZM10.2645 17.825L9.68556 18.3018C9.70056 18.3201 9.70699 18.3315 9.70913 18.3358C9.71107 18.3397 9.70991 18.3383 9.70875 18.3328C9.70756 18.3271 9.7075 18.3223 9.70762 18.3205C9.70771 18.319 9.7076 18.3244 9.70333 18.338L10.4187 18.5632L11.1341 18.7884C11.2987 18.2657 11.181 17.7581 10.8434 17.3482L10.2645 17.825ZM10.4187 18.5632L9.70333 18.338C9.59012 18.6976 9.55059 19.0666 9.6011 19.4365L10.3442 19.335L11.0873 19.2336C11.0699 19.1058 11.08 18.9603 11.1341 18.7884L10.4187 18.5632ZM10.3442 19.335L9.6011 19.4365C9.62293 19.5964 9.61885 19.7767 9.57996 19.9818L10.3168 20.1215L11.0537 20.2612C11.1193 19.9154 11.1334 19.5713 11.0873 19.2336L10.3442 19.335ZM10.3168 20.1215L9.57996 19.9818C9.52794 20.2563 9.55097 20.5444 9.67808 20.8169C9.80174 21.082 9.9994 21.2803 10.2128 21.4268L10.6373 20.8085L11.0618 20.1902C11.0093 20.1542 11.0206 20.1467 11.0375 20.1829C11.0457 20.2006 11.0511 20.2203 11.0531 20.2387C11.0551 20.2564 11.053 20.265 11.0537 20.2612L10.3168 20.1215ZM10.6373 20.8085L10.2128 21.4268C10.3753 21.5384 10.4014 21.6143 10.4072 21.6361L11.132 21.4435L11.8569 21.2508C11.7347 20.791 11.431 20.4437 11.0618 20.1902L10.6373 20.8085ZM11.132 21.4435L10.4072 21.6361C10.4533 21.8098 10.4781 21.999 10.4783 22.2062L11.2283 22.2057L11.9783 22.2052C11.978 21.8777 11.9387 21.5587 11.8569 21.2508L11.132 21.4435ZM11.2283 22.2057L10.4783 22.2062C10.4785 22.5199 10.5076 22.828 10.5666 23.1298L11.3027 22.9859L12.0387 22.8419C11.9989 22.6382 11.9784 22.4262 11.9783 22.2052L11.2283 22.2057ZM11.3027 22.9859L10.5666 23.1298C10.6334 23.4714 10.7592 23.7919 10.9431 24.0865L11.5793 23.6894L12.2156 23.2923C12.1295 23.1544 12.0708 23.0058 12.0387 22.8419L11.3027 22.9859ZM11.5793 23.6894L10.9431 24.0865C11.1171 24.3652 11.3306 24.6171 11.5796 24.8423L12.0828 24.2862L12.586 23.7301C12.4337 23.5922 12.3116 23.4462 12.2156 23.2923L11.5793 23.6894ZM12.0828 24.2862L11.5796 24.8423C11.7467 24.9935 11.889 25.1497 12.0087 25.3102L12.61 24.862L13.2114 24.4138C13.0294 24.1697 12.8202 23.942 12.586 23.7301L12.0828 24.2862ZM12.61 24.862L12.0087 25.3102C12.1624 25.5164 12.3177 25.7206 12.4746 25.923L13.0673 25.4634L13.6599 25.0038C13.5088 24.8089 13.3593 24.6123 13.2114 24.4138L12.61 24.862ZM13.0673 25.4634L12.4746 25.923C12.467 25.9132 12.4676 25.906 12.4695 25.9191C12.4723 25.9381 12.4752 25.9909 12.4524 26.0894L13.183 26.2588L13.9136 26.4282C14.0223 25.9596 13.997 25.4384 13.6599 25.0038L13.0673 25.4634ZM13.183 26.2588L12.4524 26.0894C12.3869 26.3715 12.3812 26.7224 12.5738 27.0487C12.766 27.3743 13.0752 27.5391 13.3526 27.6191L13.5606 26.8986L13.7687 26.178C13.7174 26.1632 13.7993 26.1739 13.8656 26.2862C13.9323 26.3993 13.9021 26.4777 13.9136 26.4282L13.183 26.2588ZM13.5606 26.8986L13.3526 27.6191C13.445 27.6458 13.4771 27.6711 13.4795 27.673C13.4799 27.6734 13.475 27.6693 13.4688 27.6601C13.4625 27.6509 13.4586 27.6419 13.4567 27.6361L14.171 27.4073L14.8852 27.1786C14.7063 26.6201 14.2488 26.3167 13.7687 26.178L13.5606 26.8986ZM14.171 27.4073L13.4567 27.6361C13.5573 27.9501 13.7011 28.2426 13.8886 28.5102L14.5028 28.0797L15.117 27.6493C15.0186 27.5089 14.9411 27.3531 14.8852 27.1786L14.171 27.4073ZM14.5028 28.0797L13.8886 28.5102C13.9837 28.6458 14.0588 28.7999 14.1122 28.9771L14.8303 28.7607L15.5484 28.5442C15.4511 28.2215 15.3079 27.9217 15.117 27.6493L14.5028 28.0797ZM14.8303 28.7607L14.1122 28.9771C14.2278 29.3607 14.4401 29.692 14.7427 29.9553L15.2351 29.3895L15.7274 28.8238C15.641 28.7486 15.5835 28.6606 15.5484 28.5442L14.8303 28.7607ZM15.2351 29.3895L14.7427 29.9553C14.8097 30.0136 14.8581 30.0875 14.8852 30.2074L15.6168 30.0424L16.3484 29.8774C16.2555 29.4653 16.0494 29.104 15.7274 28.8238L15.2351 29.3895ZM15.6168 30.0424L14.8852 30.2074C14.9836 30.6441 15.2196 31.0147 15.587 31.2797L16.0258 30.6714L16.4645 30.0631C16.4066 30.0214 16.3699 29.9726 16.3484 29.8774L15.6168 30.0424ZM16.0258 30.6714L15.587 31.2797C15.6053 31.2929 15.6346 31.3111 15.6463 31.4201L16.392 31.3398L17.1377 31.2594C17.0865 30.7841 16.8716 30.3568 16.4645 30.0631L16.0258 30.6714ZM16.392 31.3398L15.6463 31.4201C15.6786 31.7194 15.803 32.0177 16.0588 32.2453C16.3018 32.4616 16.5962 32.5541 16.8641 32.5883L16.959 31.8443L17.0539 31.1004C16.9752 31.0903 17.0019 31.0767 17.0559 31.1248C17.0837 31.1495 17.1065 31.1802 17.1216 31.2117C17.1358 31.2415 17.1378 31.2605 17.1377 31.2594L16.392 31.3398ZM16.959 31.8443L16.8641 32.5883C16.9188 32.5953 16.8323 32.5973 16.7486 32.4917C16.6661 32.3875 16.6882 32.3069 16.6825 32.3674L17.4292 32.4376L18.1759 32.5078C18.2032 32.217 18.1635 31.8619 17.9242 31.5599C17.6837 31.2566 17.3456 31.1376 17.0539 31.1004L16.959 31.8443ZM17.4292 32.4376L16.6825 32.3674C16.637 32.8519 16.7284 33.3785 17.1329 33.7685L17.6534 33.2285L18.1739 32.6885C18.1859 32.7 18.1863 32.7091 18.1821 32.6943C18.1761 32.6733 18.1657 32.6164 18.1759 32.5078L17.4292 32.4376ZM17.6534 33.2285L17.1329 33.7685C17.4898 34.1124 17.9596 34.2453 18.4238 34.2713L18.4657 33.5225L18.5076 32.7737C18.2538 32.7594 18.182 32.6963 18.1739 32.6885L17.6534 33.2285ZM18.4657 33.5225L18.4238 34.2713C18.5355 34.2776 18.5853 34.2969 18.5971 34.3026C18.6018 34.3048 18.5977 34.3035 18.5894 34.2962C18.5807 34.2887 18.5727 34.2792 18.5669 34.2698L19.2039 33.8739L19.8409 33.4781C19.5295 32.9769 18.9994 32.8012 18.5076 32.7737L18.4657 33.5225ZM19.2039 33.8739L18.5669 34.2698C18.6704 34.4364 18.7605 34.6228 18.8357 34.8309L19.5411 34.5762L20.2465 34.3215C20.1383 34.0217 20.0036 33.7398 19.8409 33.4781L19.2039 33.8739ZM19.5411 34.5762L18.8357 34.8309C18.921 35.0672 18.9997 35.313 19.0717 35.5686L19.7936 35.3652L20.5155 35.1618C20.4342 34.8733 20.3446 34.5931 20.2465 34.3215L19.5411 34.5762ZM19.7936 35.3652L19.0717 35.5686C19.2114 36.0644 19.545 36.4373 20.0307 36.6226L20.298 35.9219L20.5654 35.2212C20.5483 35.2146 20.5394 35.2093 20.5359 35.207C20.5327 35.2048 20.5323 35.2041 20.533 35.2048C20.5336 35.2055 20.5323 35.2044 20.5296 35.1993C20.5267 35.1939 20.5213 35.1823 20.5155 35.1618L19.7936 35.3652ZM20.298 35.9219L20.0307 36.6226C20.179 36.6792 20.2718 36.752 20.3358 36.8322L20.922 36.3645L21.5083 35.8967C21.2595 35.5849 20.9363 35.3627 20.5654 35.2212L20.298 35.9219ZM20.922 36.3645L20.3358 36.8322C20.5252 37.0695 20.738 37.2852 20.9735 37.4787L21.4497 36.8992L21.9258 36.3197C21.7706 36.1922 21.6317 36.0513 21.5083 35.8967L20.922 36.3645ZM21.4497 36.8992L20.9735 37.4787C21.1849 37.6523 21.4032 37.8172 21.6286 37.9732L22.0555 37.3565L22.4823 36.7398C22.2907 36.6072 22.1052 36.4672 21.9258 36.3197L21.4497 36.8992ZM22.0555 37.3565L21.6286 37.9732C21.6935 38.0181 21.7293 38.0526 21.7471 38.073C21.764 38.0924 21.76 38.0937 21.7534 38.0756L22.4578 37.818L23.1622 37.5605C23.03 37.1989 22.7625 36.9338 22.4823 36.7398L22.0555 37.3565ZM22.4578 37.818L21.7534 38.0756C21.7853 38.1629 21.8472 38.3232 21.957 38.4584C22.0051 38.5177 22.156 38.692 22.4244 38.7467C22.7715 38.8174 23.0338 38.6438 23.1627 38.5004L22.6048 37.9992L22.0469 37.4979C22.1566 37.3758 22.3984 37.2106 22.7238 37.2769C22.9703 37.3271 23.0981 37.4841 23.1217 37.5132C23.1824 37.5881 23.19 37.6365 23.1622 37.5605L22.4578 37.818ZM22.6048 37.9992L23.1627 38.5004C22.9768 38.7074 22.7484 38.7311 22.6637 38.7325C22.575 38.734 22.5182 38.7157 22.5171 38.7153C22.5096 38.7131 22.5462 38.7248 22.646 38.7786L23.0019 38.1184L23.3578 37.4582C23.2311 37.3899 23.0883 37.3207 22.9485 37.2787C22.8812 37.2585 22.77 37.2305 22.6386 37.2327C22.5112 37.2349 22.252 37.2696 22.0469 37.4979L22.6048 37.9992ZM24.376 3.06477L24.394 3.81456C24.5517 3.81077 24.7079 3.83525 24.8668 3.89112L25.1156 3.1836L25.3644 2.47608C25.0386 2.36147 24.7017 2.30673 24.358 2.31499L24.376 3.06477ZM25.1156 3.1836L24.8668 3.89112C25.3563 4.06327 25.8397 3.96913 26.2572 3.73938L25.8956 3.0823L25.534 2.42522C25.4607 2.46559 25.4157 2.47588 25.3958 2.47845C25.3797 2.48054 25.3726 2.47895 25.3644 2.47608L25.1156 3.1836ZM25.8956 3.0823L26.2572 3.73938C26.2844 3.72442 26.3002 3.7192 26.3051 3.7178C26.3093 3.71659 26.3035 3.71876 26.2897 3.71869C26.2754 3.71861 26.2601 3.71614 26.2466 3.71174C26.2337 3.70752 26.229 3.7037 26.2328 3.70633L26.6547 3.08624L27.0766 2.46614C26.8509 2.3126 26.5869 2.22021 26.2975 2.21871C26.0149 2.21724 25.757 2.30254 25.534 2.42522L25.8956 3.0823ZM26.6547 3.08624L26.2328 3.70633C26.4901 3.88139 26.7523 4.03345 27.0195 4.16094L27.3425 3.48407L27.6655 2.80719C27.4725 2.71506 27.2761 2.6019 27.0766 2.46614L26.6547 3.08624ZM27.3425 3.48407L27.0195 4.16094C27.3141 4.30153 27.6233 4.39801 27.9451 4.44944L28.0634 3.70884L28.1818 2.96824C28.0026 2.93959 27.8312 2.88623 27.6655 2.80719L27.3425 3.48407ZM28.0634 3.70884L27.9451 4.44944C28.1012 4.47439 28.2448 4.52662 28.3806 4.60795L28.7659 3.96446L29.1511 3.32097C28.8514 3.14154 28.5267 3.02336 28.1818 2.96824L28.0634 3.70884ZM28.7659 3.96446L28.3806 4.60795C28.758 4.83387 29.1799 4.90503 29.6066 4.86239L29.532 4.1161L29.4574 3.36982C29.2981 3.38574 29.2093 3.3558 29.1511 3.32097L28.7659 3.96446ZM29.532 4.1161L29.6066 4.86239C29.7187 4.85118 29.7484 4.87671 29.7695 4.89539L30.267 4.33417L30.7645 3.77295C30.3916 3.44232 29.9313 3.32247 29.4574 3.36982L29.532 4.1161ZM30.267 4.33417L29.7695 4.89539C29.9237 5.03214 30.0651 5.18858 30.1933 5.36637L30.8016 4.9277L31.4099 4.48903C31.2194 4.22476 31.0043 3.98551 30.7645 3.77295L30.267 4.33417ZM30.8016 4.9277L30.1933 5.36637C30.4437 5.71372 30.7815 5.96405 31.1933 6.09255L31.4167 5.3766L31.6401 4.66065C31.5505 4.63269 31.4782 4.58375 31.4099 4.48903L30.8016 4.9277ZM31.4167 5.3766L31.1933 6.09255C31.201 6.09495 31.2024 6.09628 31.2 6.09486C31.1975 6.09334 31.1951 6.09129 31.1938 6.08995C31.1904 6.08643 31.2059 6.1001 31.2246 6.15567L31.9352 5.91566L32.6457 5.67565C32.4855 5.20109 32.1523 4.82049 31.6401 4.66065L31.4167 5.3766ZM31.9352 5.91566L31.2246 6.15567C31.315 6.42333 31.4788 6.67367 31.7377 6.85237C31.9911 7.02737 32.2766 7.09293 32.5448 7.10006L32.5647 6.35033L32.5847 5.60059C32.5282 5.59909 32.5463 5.58789 32.5899 5.61799C32.6106 5.6323 32.627 5.64933 32.6379 5.66456C32.6481 5.67884 32.6489 5.68502 32.6457 5.67565L31.9352 5.91566ZM32.5647 6.35033L32.5448 7.10006C32.6148 7.10193 32.6159 7.11538 32.5863 7.09772C32.5714 7.08881 32.556 7.07615 32.5431 7.06116C32.5371 7.05416 32.5328 7.04795 32.5299 7.04322C32.527 7.03854 32.5259 7.0359 32.5259 7.03604L33.2142 6.73794L33.9024 6.43984C33.791 6.1828 33.6093 5.96143 33.3551 5.8097C33.109 5.66284 32.8394 5.60737 32.5847 5.60059L32.5647 6.35033ZM33.2142 6.73794L32.5259 7.03604C32.65 7.32243 32.7935 7.59097 32.9575 7.84001L33.5838 7.42746L34.2102 7.0149C34.0977 6.84413 33.9947 6.65299 33.9024 6.43984L33.2142 6.73794ZM33.5838 7.42746L32.9575 7.84001C33.17 8.16258 33.4563 8.41374 33.7967 8.59629L34.1511 7.93532L34.5056 7.27435C34.3661 7.19957 34.2742 7.11215 34.2102 7.0149L33.5838 7.42746ZM34.1511 7.93532L33.7967 8.59629C33.9151 8.65976 33.983 8.73305 34.0278 8.81751L34.6903 8.46579L35.3527 8.11406C35.1586 7.74856 34.8671 7.4682 34.5056 7.27435L34.1511 7.93532ZM34.6903 8.46579L34.0278 8.81751C34.0807 8.91711 34.1177 9.05014 34.1164 9.23759L34.8664 9.24275L35.6164 9.24791C35.6191 8.84938 35.5387 8.46442 35.3527 8.11406L34.6903 8.46579ZM34.8664 9.24275L34.1164 9.23759C34.1146 9.50323 34.1756 9.77503 34.3302 10.0213C34.4839 10.2663 34.7006 10.4387 34.935 10.5551L35.2684 9.88326L35.6018 9.21145C35.5831 9.20216 35.5779 9.19701 35.5805 9.19925C35.5837 9.202 35.592 9.21013 35.6007 9.22393C35.6094 9.23783 35.6141 9.25057 35.6162 9.25847C35.618 9.26563 35.6163 9.26332 35.6164 9.24791L34.8664 9.24275ZM35.2684 9.88326L34.935 10.5551C35.0748 10.6245 35.1087 10.6853 35.1223 10.7184L35.8166 10.4349L36.511 10.1513C36.3336 9.717 36.002 9.41007 35.6018 9.21145L35.2684 9.88326ZM35.8166 10.4349L35.1223 10.7184C35.1543 10.7967 35.1729 10.9079 35.1403 11.0789L35.877 11.2195L36.6137 11.36C36.6915 10.9524 36.6699 10.5405 36.511 10.1513L35.8166 10.4349ZM35.877 11.2195L35.1403 11.0789C35.0668 11.4642 35.0709 11.8534 35.1885 12.2259L35.9037 12L36.6189 11.7742C36.5906 11.6845 36.5768 11.5534 36.6137 11.36L35.877 11.2195ZM35.9037 12L35.1885 12.2259C35.2768 12.5057 35.3936 12.7764 35.5376 13.0376L36.1944 12.6756L36.8513 12.3136C36.7535 12.1362 36.6764 11.9565 36.6189 11.7742L35.9037 12ZM36.1944 12.6756L35.5376 13.0376C35.6086 13.1664 35.648 13.2976 35.66 13.4369L36.4072 13.373L37.1545 13.309C37.1244 12.9571 37.022 12.6233 36.8513 12.3136L36.1944 12.6756ZM36.4072 13.373L35.66 13.4369C35.6902 13.7905 35.7944 14.1268 35.9638 14.4413L36.6242 14.0857L37.2845 13.7301C37.2066 13.5855 37.1663 13.4467 37.1545 13.309L36.4072 13.373ZM36.6242 14.0857L35.9638 14.4413C36.0411 14.5848 36.0816 14.7241 36.0933 14.864L36.8407 14.8014L37.5881 14.7388C37.5583 14.3836 37.4545 14.0458 37.2845 13.7301L36.6242 14.0857ZM36.8407 14.8014L36.0933 14.864C36.1089 15.0498 36.1016 15.2365 36.0709 15.4257L36.8113 15.5459L37.5516 15.666C37.6016 15.3577 37.614 15.0482 37.5881 14.7388L36.8407 14.8014ZM36.8113 15.5459L36.0709 15.4257C35.9884 15.9341 36.1676 16.3909 36.4555 16.7611L37.0476 16.3007L37.6396 15.8403C37.5838 15.7685 37.5632 15.7206 37.5558 15.697C37.5496 15.6772 37.5509 15.6699 37.5516 15.666L36.8113 15.5459ZM37.0476 16.3007L36.4555 16.7611C36.4625 16.77 36.4474 16.7535 36.4343 16.7113C36.4198 16.6647 36.4132 16.6035 36.4251 16.5382C36.4483 16.4114 36.5161 16.3845 36.447 16.4398L36.9153 17.0256L37.3837 17.6113C37.6006 17.4379 37.8336 17.1758 37.9008 16.8074C37.9722 16.4159 37.8263 16.0803 37.6396 15.8403L37.0476 16.3007ZM36.9153 17.0256L36.447 16.4398C36.2358 16.6086 36.0309 16.8372 35.9279 17.1408C35.818 17.4646 35.8529 17.7888 35.981 18.0727L36.6646 17.7643L37.3483 17.4558C37.3503 17.4603 37.3591 17.482 37.3616 17.5178C37.3642 17.555 37.3588 17.5919 37.3483 17.6228C37.3288 17.6801 37.3088 17.6713 37.3837 17.6113L36.9153 17.0256ZM36.6646 17.7643L35.981 18.0727C36.0877 18.3092 36.1791 18.5493 36.2553 18.7931L36.9711 18.5692L37.6869 18.3452C37.5924 18.0432 37.4795 17.7467 37.3483 17.4558L36.6646 17.7643ZM36.9711 18.5692L36.2553 18.7931C36.3045 18.9503 36.3033 19.0699 36.2786 19.1689L37.0062 19.3507L37.7338 19.5325C37.8331 19.1353 37.8085 18.7338 37.6869 18.3452L36.9711 18.5692ZM37.0062 19.3507L36.2786 19.1689C36.2413 19.318 36.1738 19.4643 36.0675 19.6104L36.6738 20.0518L37.2801 20.4933C37.493 20.2008 37.6471 19.8798 37.7338 19.5325L37.0062 19.3507ZM36.6738 20.0518L36.0675 19.6104C35.9021 19.8375 35.7441 20.0639 35.5936 20.2895L36.2175 20.7057L36.8414 21.122C36.9801 20.9141 37.1263 20.7045 37.2801 20.4933L36.6738 20.0518ZM36.2175 20.7057L35.5936 20.2895C35.3625 20.6359 35.2505 21.0276 35.2566 21.4424L36.0065 21.4314L36.7564 21.4204C36.7547 21.3012 36.7833 21.209 36.8414 21.122L36.2175 20.7057ZM36.0065 21.4314L35.2566 21.4424C35.2573 21.4895 35.2509 21.5173 35.1967 21.568L35.709 22.1158L36.2213 22.6635C36.5716 22.336 36.7636 21.9076 36.7564 21.4204L36.0065 21.4314ZM35.709 22.1158L35.1967 21.568C34.7665 21.9704 34.6604 22.5094 34.7892 23.0351L35.5177 22.8567L36.2461 22.6782C36.2388 22.6485 36.2376 22.631 36.2375 22.6242C36.2374 22.6178 36.2381 22.6209 36.2357 22.6304C36.2345 22.6349 36.2328 22.64 36.2306 22.6453C36.2284 22.6505 36.2259 22.6552 36.2236 22.659C36.2187 22.6671 36.2162 22.6683 36.2213 22.6635L35.709 22.1158ZM35.5177 22.8567L34.7892 23.0351C34.7984 23.0725 34.7809 23.0344 34.8103 22.9649C34.8237 22.9331 34.8411 22.9098 34.8544 22.8958C34.8667 22.883 34.8707 22.883 34.8564 22.8912L35.2277 23.5428L35.599 24.1945C35.8408 24.0567 36.0654 23.8484 36.192 23.5487C36.318 23.2504 36.3116 22.9456 36.2461 22.6782L35.5177 22.8567ZM35.2277 23.5428L34.8564 22.8912C34.5401 23.0714 34.2575 23.2796 34.018 23.5201L34.5494 24.0494L35.0808 24.5786C35.2098 24.4491 35.3794 24.3196 35.599 24.1945L35.2277 23.5428ZM34.5494 24.0494L34.018 23.5201C33.7612 23.778 33.5653 24.0784 33.44 24.4185L34.1438 24.6777L34.8476 24.937C34.8946 24.8092 34.9691 24.6908 35.0808 24.5786L34.5494 24.0494ZM34.1438 24.6777L33.44 24.4185C33.311 24.7687 33.2705 25.1425 33.2963 25.5246L34.0446 25.4741L34.7929 25.4236C34.7786 25.2117 34.8042 25.0546 34.8476 24.937L34.1438 24.6777ZM34.0446 25.4741L33.2963 25.5246C33.3123 25.7609 33.2976 25.9701 33.2586 26.1558L33.9925 26.3102L34.7264 26.4646C34.7969 26.1294 34.817 25.7812 34.7929 25.4236L34.0446 25.4741ZM33.9925 26.3102L33.2586 26.1558C33.243 26.23 33.2126 26.281 33.1389 26.3346L33.5802 26.941L34.0215 27.5474C34.388 27.2808 34.6325 26.9112 34.7264 26.4646L33.9925 26.3102ZM33.5802 26.941L33.1389 26.3346C32.9617 26.4636 32.7606 26.5813 32.5334 26.6864L32.8481 27.3671L33.1628 28.0479C33.4716 27.9052 33.7586 27.7388 34.0215 27.5474L33.5802 26.941ZM32.8481 27.3671L32.5334 26.6864C32.2873 26.8001 32.0619 26.9776 31.907 27.2356C31.7534 27.4915 31.7024 27.7712 31.7105 28.0363L32.4601 28.0134L33.2098 27.9905C33.2091 27.9688 33.2113 27.9627 33.2101 27.9682C33.2086 27.9747 33.204 27.9895 33.1931 28.0076C33.1821 28.026 33.1696 28.0395 33.1601 28.0476C33.1514 28.055 33.1501 28.0538 33.1628 28.0479L32.8481 27.3671ZM32.4601 28.0134L31.7105 28.0363C31.7169 28.2487 31.6816 28.3958 31.6326 28.4996L32.3108 28.8199L32.989 29.1401C33.1578 28.7826 33.222 28.392 33.2098 27.9905L32.4601 28.0134ZM32.3108 28.8199L31.6326 28.4996C31.6141 28.5388 31.5775 28.5925 31.4507 28.6461L31.7426 29.3369L32.0345 30.0278C32.4474 29.8533 32.7896 29.5623 32.989 29.1401L32.3108 28.8199ZM31.7426 29.3369L31.4507 28.6461C31.0264 28.8253 30.6814 29.1324 30.4974 29.5785L31.1907 29.8646L31.884 30.1506C31.8961 30.1212 31.919 30.0766 32.0345 30.0278L31.7426 29.3369ZM31.1907 29.8646L30.4974 29.5785C30.3889 29.8413 30.2931 30.1141 30.2096 30.3963L30.9289 30.6089L31.6481 30.8216C31.7175 30.5868 31.7962 30.3632 31.884 30.1506L31.1907 29.8646ZM30.9289 30.6089L30.2096 30.3963C30.2101 30.3948 30.2134 30.3847 30.2228 30.3705C30.2323 30.3561 30.2435 30.3445 30.2531 30.3369C30.2716 30.3221 30.2627 30.3383 30.1865 30.3528L30.3269 31.0896L30.4672 31.8263C30.993 31.7262 31.4725 31.4155 31.6481 30.8216L30.9289 30.6089ZM30.3269 31.0896L30.1865 30.3528C29.725 30.4407 29.2802 30.6623 29.004 31.1034L29.6397 31.5015L30.2753 31.8995C30.2762 31.8981 30.277 31.8971 30.2787 31.8955C30.2805 31.8937 30.2858 31.889 30.297 31.8823C30.3203 31.8683 30.3715 31.8446 30.4672 31.8263L30.3269 31.0896ZM29.6397 31.5015L29.004 31.1034C28.8797 31.302 28.7492 31.4957 28.6126 31.6845L29.2202 32.1242L29.8277 32.5639C29.9841 32.3479 30.1333 32.1264 30.2753 31.8995L29.6397 31.5015ZM29.2202 32.1242L28.6126 31.6845C28.4994 31.8409 28.3697 31.9831 28.2227 32.1118L28.7167 32.6761L29.2106 33.2405C29.442 33.038 29.648 32.8123 29.8277 32.5639L29.2202 32.1242ZM28.7167 32.6761L28.2227 32.1118C28.04 32.2717 27.8544 32.4286 27.666 32.5824L28.1404 33.1633L28.6148 33.7443C28.8164 33.5797 29.015 33.4117 29.2106 33.2405L28.7167 32.6761ZM28.1404 33.1633L27.666 32.5824C27.2174 32.9488 27.1012 33.4851 27.1267 33.9739L27.8757 33.9349L28.6247 33.8958C28.619 33.786 28.6324 33.7336 28.6374 33.719C28.6395 33.7129 28.6393 33.7155 28.6343 33.7229C28.6291 33.7307 28.622 33.7383 28.6148 33.7443L28.1404 33.1633ZM27.8757 33.9349L27.1267 33.9739C27.1292 34.0217 27.1268 34.053 27.1242 34.0708C27.1216 34.0882 27.1193 34.0897 27.1233 34.0806C27.1277 34.0706 27.1369 34.0543 27.1526 34.0372C27.1682 34.02 27.1835 34.0094 27.1929 34.0042L27.5569 34.6599L27.921 35.3156C28.49 34.9997 28.6521 34.4212 28.6247 33.8958L27.8757 33.9349ZM27.5569 34.6599L27.1929 34.0042C27.0283 34.0956 26.8333 34.1714 26.6024 34.2266L26.7769 34.956L26.9513 35.6854C27.2985 35.6024 27.6235 35.4808 27.921 35.3156L27.5569 34.6599ZM26.7769 34.956L26.6024 34.2266C26.148 34.3352 25.7495 34.5883 25.5015 35.0171L26.1507 35.3926L26.7999 35.7682C26.8087 35.753 26.8277 35.715 26.9513 35.6854L26.7769 34.956ZM26.1507 35.3926L25.5015 35.0171C25.4149 35.1668 25.31 35.2923 25.1859 35.3978L25.6719 35.969L26.1579 36.5403C26.4154 36.3212 26.6297 36.0624 26.7999 35.7682L26.1507 35.3926ZM25.6719 35.969L25.1859 35.3978C24.852 35.6819 24.6513 36.0593 24.5521 36.4739L25.2815 36.6484L26.0109 36.8229C26.0508 36.6564 26.1103 36.5808 26.1579 36.5403L25.6719 35.969ZM25.2815 36.6484L24.5521 36.4739C24.5158 36.6256 24.4641 36.6739 24.4344 36.6953L24.8732 37.3036L25.3119 37.9119C25.6877 37.6409 25.9082 37.2524 26.0109 36.8229L25.2815 36.6484ZM24.8732 37.3036L24.4344 36.6953C24.3734 36.7394 24.3339 36.758 24.3156 36.765C24.2988 36.7713 24.3083 36.7647 24.3378 36.7656L24.3153 37.5153L24.2928 38.2649C24.6893 38.2769 25.0364 38.1106 25.3119 37.9119L24.8732 37.3036ZM24.3153 37.5153L24.3378 36.7656C24.3641 36.7664 24.3872 36.7708 24.4057 36.7764C24.4237 36.7818 24.4343 36.7875 24.4371 36.7891C24.4397 36.7906 24.435 36.7883 24.4235 36.7784C24.412 36.7686 24.3952 36.7526 24.3736 36.7282L23.8116 37.2248L23.2496 37.7214C23.4865 37.9896 23.8336 38.2512 24.2928 38.2649L24.3153 37.5153ZM23.8116 37.2248L24.3736 36.7282C24.1701 36.4979 23.9443 36.2937 23.6966 36.1169L23.2609 36.7274L22.8253 37.338C22.9785 37.4472 23.1198 37.5746 23.2496 37.7214L23.8116 37.2248ZM23.2609 36.7274L23.6966 36.1169C23.5026 35.9785 23.3086 35.8355 23.1147 35.6878L22.6603 36.2845L22.2059 36.8812C22.412 37.0381 22.6184 37.1903 22.8253 37.338L23.2609 36.7274ZM22.6603 36.2845L23.1147 35.6878C23.0036 35.6032 22.9117 35.4963 22.8378 35.358L22.1762 35.7114L21.5147 36.0647C21.6863 36.386 21.9171 36.6612 22.2059 36.8812L22.6603 36.2845ZM22.1762 35.7114L22.8378 35.358C22.6238 34.9574 22.2862 34.676 21.8689 34.5183L21.6037 35.2199L21.3385 35.9214C21.4391 35.9594 21.4832 36.0058 21.5147 36.0647L22.1762 35.7114ZM21.6037 35.2199L21.8689 34.5183C21.6643 34.441 21.4885 34.3475 21.3375 34.2406L20.9041 34.8527L20.4707 35.4648C20.7346 35.6517 21.0252 35.803 21.3385 35.9214L21.6037 35.2199ZM20.9041 34.8527L21.3375 34.2406C21.1387 34.0999 20.943 33.955 20.7503 33.806L20.2915 34.3992L19.8326 34.9925C20.042 35.1544 20.2547 35.3119 20.4707 35.4648L20.9041 34.8527ZM20.2915 34.3992L20.7503 33.806C20.6163 33.7024 20.5045 33.5808 20.4125 33.4385L19.7828 33.8459L19.1531 34.2534C19.3372 34.5379 19.5646 34.7852 19.8326 34.9925L20.2915 34.3992ZM19.7828 33.8459L20.4125 33.4385C20.2217 33.1437 19.9803 32.8933 19.6929 32.6898L19.2594 33.3018L18.8259 33.9139C18.9602 34.009 19.0677 34.1213 19.1531 34.2534L19.7828 33.8459ZM19.2594 33.3018L19.6929 32.6898C19.5126 32.562 19.3457 32.4238 19.1919 32.275L18.6705 32.8141L18.1491 33.3532C18.3589 33.5561 18.5847 33.743 18.8259 33.9139L19.2594 33.3018ZM18.6705 32.8141L19.1919 32.275C19.0854 32.172 19.0003 32.0486 18.9364 31.8971L18.2453 32.1883L17.5541 32.4795C17.6936 32.8107 17.892 33.1045 18.1491 33.3532L18.6705 32.8141ZM18.2453 32.1883L18.9364 31.8971C18.8317 31.6486 18.724 31.4035 18.6131 31.1618L17.9314 31.4745L17.2497 31.7873C17.3539 32.0145 17.4554 32.2452 17.5541 32.4795L18.2453 32.1883ZM17.9314 31.4745L18.6131 31.1618C18.4772 30.8656 18.3043 30.5938 18.0941 30.3494L17.5254 30.8384L16.9568 31.3275C17.0727 31.4623 17.1705 31.6146 17.2497 31.7873L17.9314 31.4745ZM17.5254 30.8384L18.0941 30.3494C18.003 30.2435 17.931 30.115 17.8818 29.9535L17.1644 30.1723L16.447 30.3911C16.553 30.7386 16.7217 31.0541 16.9568 31.3275L17.5254 30.8384ZM17.1644 30.1723L17.8818 29.9535C17.7869 29.6426 17.6579 29.3504 17.4927 29.08L16.8527 29.4711L16.2127 29.8621C16.3079 30.0179 16.3866 30.1932 16.447 30.3911L17.1644 30.1723ZM16.8527 29.4711L17.4927 29.08C17.2623 28.7031 16.9169 28.4476 16.5189 28.2901L16.2429 28.9875L15.967 29.6849C16.1217 29.7461 16.1827 29.813 16.2127 29.8621L16.8527 29.4711ZM16.2429 28.9875L16.5189 28.2901C16.4676 28.2698 16.4585 28.2556 16.4646 28.2622C16.467 28.2649 16.4694 28.2685 16.4709 28.2714C16.4723 28.274 16.4707 28.272 16.4685 28.2626L15.7378 28.4314L15.0071 28.6003C15.1296 29.1306 15.4903 29.4963 15.967 29.6849L16.2429 28.9875ZM15.7378 28.4314L16.4685 28.2626C16.378 27.8708 16.1907 27.522 15.9038 27.2375L15.3757 27.77L14.8475 28.3024C14.9227 28.377 14.9768 28.4692 15.0071 28.6003L15.7378 28.4314ZM15.3757 27.77L15.9038 27.2375C15.7878 27.1224 15.6992 26.994 15.6343 26.8489L14.9496 27.1549L14.2649 27.461C14.406 27.7768 14.6014 28.0584 14.8475 28.3024L15.3757 27.77ZM14.9496 27.1549L15.6343 26.8489C15.5133 26.5782 15.3697 26.3207 15.2036 26.0771L14.584 26.4998L13.9644 26.9224C14.0798 27.0915 14.1799 27.2708 14.2649 27.461L14.9496 27.1549ZM14.584 26.4998L15.2036 26.0771C15.1037 25.9306 15.0251 25.7708 14.9679 25.5953L14.2548 25.8275L13.5416 26.0597C13.642 26.3679 13.7829 26.6563 13.9644 26.9224L14.584 26.4998ZM14.2548 25.8275L14.9679 25.5953C14.8796 25.3241 14.7756 25.0614 14.6557 24.8074L13.9775 25.1277L13.2993 25.4479C13.3916 25.6434 13.4725 25.8472 13.5416 26.0597L14.2548 25.8275ZM13.9775 25.1277L14.6557 24.8074C14.476 24.4269 14.1842 24.1353 13.8303 23.9213L13.4422 24.5631L13.0541 25.2049C13.2017 25.2941 13.2667 25.379 13.2993 25.4479L13.9775 25.1277ZM13.4422 24.5631L13.8303 23.9213C13.7352 23.8638 13.7326 23.83 13.7292 23.812L12.9926 23.9535L12.2561 24.095C12.3505 24.5866 12.6477 24.9592 13.0541 25.2049L13.4422 24.5631ZM12.9926 23.9535L13.7292 23.812C13.6776 23.5438 13.6193 23.2799 13.5542 23.0203L12.8267 23.2028L12.0993 23.3853C12.1574 23.6171 12.2097 23.8537 12.2561 24.095L12.9926 23.9535ZM12.8267 23.2028L13.5542 23.0203C13.4605 22.6467 13.2759 22.3153 13.0148 22.0322L12.4635 22.5407L11.9121 23.0491C12.0122 23.1576 12.0698 23.2677 12.0993 23.3853L12.8267 23.2028ZM12.4635 22.5407L13.0148 22.0322C12.8608 21.8652 12.7244 21.6912 12.6047 21.51L11.9789 21.9232L11.353 22.3365C11.5184 22.587 11.705 22.8246 11.9121 23.0491L12.4635 22.5407ZM11.9789 21.9232L12.6047 21.51C12.5988 21.501 12.5979 21.4974 12.5971 21.4901C12.596 21.4793 12.5945 21.4433 12.6153 21.3735L11.8967 21.1588L11.1781 20.9441C11.0398 21.4069 11.0651 21.9004 11.353 22.3365L11.9789 21.9232ZM11.8967 21.1588L12.6153 21.3735C12.7585 20.8945 12.7167 20.3878 12.3964 19.9534L11.7927 20.3986L11.1891 20.8437C11.1938 20.85 11.1945 20.8523 11.194 20.8511C11.1934 20.8497 11.1933 20.8488 11.1935 20.85C11.1937 20.8518 11.1974 20.8796 11.1781 20.9441L11.8967 21.1588ZM11.7927 20.3986L12.3964 19.9534C12.3447 19.8834 12.3283 19.8235 12.3344 19.7426L11.5865 19.6865L10.8386 19.6305C10.8055 20.0728 10.9266 20.4876 11.1891 20.8437L11.7927 20.3986ZM11.5865 19.6865L12.3344 19.7426C12.3736 19.2196 12.1568 18.7735 11.8031 18.4361L11.2854 18.9788L10.7677 19.5215C10.8177 19.5692 10.8323 19.5988 10.8358 19.607C10.8379 19.612 10.8397 19.6162 10.8386 19.6305L11.5865 19.6865ZM11.2854 18.9788L11.8031 18.4361C11.754 18.3893 11.742 18.3621 11.7404 18.3583C11.7395 18.3561 11.7397 18.356 11.7398 18.3568C11.7399 18.3575 11.7394 18.3549 11.7401 18.3473L10.9938 18.273L10.2475 18.1986C10.1947 18.7282 10.411 19.1813 10.7677 19.5215L11.2854 18.9788ZM10.9938 18.273L11.7401 18.3473C11.7538 18.2095 11.803 18.0485 11.9118 17.8602L11.2625 17.4849L10.6131 17.1096C10.4156 17.4514 10.2857 17.8157 10.2475 18.1986L10.9938 18.273ZM11.2625 17.4849L11.9118 17.8602C12.1825 17.3919 12.2226 16.8502 11.9291 16.3502L11.2823 16.7299L10.6355 17.1096C10.6398 17.1169 10.6383 17.1163 10.636 17.1081C10.635 17.1042 10.634 17.0993 10.6333 17.0937C10.6326 17.0881 10.6324 17.0827 10.6325 17.0778C10.6328 17.0673 10.6345 17.0632 10.6333 17.0671C10.6319 17.0716 10.6269 17.0857 10.6131 17.1096L11.2625 17.4849ZM11.2823 16.7299L11.9291 16.3502C11.8735 16.2556 11.8741 16.2015 11.8837 16.1549L11.1495 16.0019L10.4153 15.8489C10.3221 16.2962 10.4111 16.7273 10.6355 17.1096L11.2823 16.7299ZM11.1495 16.0019L11.8837 16.1549C11.9752 15.7161 11.8943 15.2897 11.6976 14.9029L11.029 15.2429L10.3605 15.5828C10.4273 15.7143 10.4267 15.794 10.4153 15.8489L11.1495 16.0019ZM11.029 15.2429L11.6976 14.9029C11.6867 14.8815 11.6826 14.8684 11.6813 14.8632C11.6801 14.8585 11.6809 14.8597 11.6809 14.8652C11.6809 14.871 11.68 14.8761 11.6792 14.8789C11.6785 14.8813 11.6792 14.8775 11.6851 14.8669L11.0318 14.4986L10.3785 14.1302C10.1119 14.6032 10.1242 15.1181 10.3605 15.5828L11.029 15.2429ZM11.0318 14.4986L11.6851 14.8669C11.8028 14.6582 11.934 14.4572 12.0789 14.2637L11.4785 13.8141L10.8782 13.3646C10.6947 13.6096 10.5281 13.8648 10.3785 14.1302L11.0318 14.4986ZM11.4785 13.8141L12.0789 14.2637C12.4345 13.7888 12.4358 13.2369 12.212 12.7459L11.5296 13.057L10.8471 13.3681C10.8599 13.3962 10.8643 13.413 10.8656 13.4193C10.8668 13.425 10.8654 13.4212 10.8661 13.41C10.8665 13.4047 10.8673 13.3986 10.8687 13.3921C10.8701 13.3856 10.872 13.3797 10.8739 13.3745C10.8781 13.3638 10.8813 13.3605 10.8782 13.3646L11.4785 13.8141ZM11.5296 13.057L12.212 12.7459C12.1797 12.6751 12.1772 12.6395 12.1771 12.6325C12.177 12.6292 12.1773 12.6298 12.1766 12.6328C12.176 12.6357 12.1753 12.6364 12.1766 12.6339L11.5109 12.2884L10.8452 11.943C10.5971 12.4211 10.6454 12.9257 10.8471 13.3681L11.5296 13.057ZM11.5109 12.2884L12.1766 12.6339C12.2813 12.4322 12.3969 12.2371 12.5237 12.0486L11.9013 11.6302L11.2789 11.2117C11.1205 11.4472 10.9759 11.691 10.8452 11.943L11.5109 12.2884ZM11.9013 11.6302L12.5237 12.0486C12.6916 11.799 12.8341 11.5383 12.95 11.2667L12.2603 10.9722L11.5705 10.6777C11.4929 10.8594 11.3961 11.0374 11.2789 11.2117L11.9013 11.6302ZM12.2603 10.9722L12.95 11.2667C13.0342 11.0696 13.1306 10.8787 13.2394 10.6939L12.593 10.3135L11.9467 9.93308C11.8053 10.1732 11.6799 10.4215 11.5705 10.6777L12.2603 10.9722ZM12.593 10.3135L13.2394 10.6939C13.3606 10.488 13.4846 10.2846 13.6114 10.0835L12.9771 9.68334L12.3428 9.28316C12.2076 9.49733 12.0756 9.71397 11.9467 9.93308L12.593 10.3135ZM12.9771 9.68334L13.6114 10.0835C13.71 9.92722 13.8271 9.78302 13.9641 9.65037L13.4423 9.11162L12.9205 8.57288C12.6992 8.78727 12.5061 9.02423 12.3428 9.28316L12.9771 9.68334ZM13.4423 9.11162L13.9641 9.65037C14.185 9.43646 14.3775 9.20071 14.54 8.94346L13.9059 8.54294L13.2718 8.14242C13.1745 8.29636 13.058 8.43973 12.9205 8.57288L13.4423 9.11162ZM13.9059 8.54294L14.54 8.94346C14.7401 8.62657 14.8524 8.26671 14.8993 7.88709L14.1549 7.79517L13.4106 7.70324C13.3851 7.90947 13.3313 8.04813 13.2718 8.14242L13.9059 8.54294ZM14.1549 7.79517L14.8993 7.88709C14.9016 7.86799 14.9043 7.86367 14.9019 7.86959C14.8993 7.87631 14.8926 7.89012 14.8796 7.9061C14.8665 7.92222 14.8527 7.93368 14.8421 7.94049C14.8323 7.94684 14.8304 7.94599 14.8419 7.94236L14.6158 7.22724L14.3897 6.51212C14.138 6.59169 13.8987 6.73435 13.7149 6.96089C13.5324 7.18576 13.4422 7.44677 13.4106 7.70324L14.1549 7.79517ZM14.6158 7.22724L14.8419 7.94236C15.1084 7.85809 15.3513 7.70225 15.5327 7.46342C15.7096 7.23061 15.7944 6.9635 15.8258 6.70491L15.0813 6.61442L14.3368 6.52393C14.329 6.58819 14.3166 6.58464 14.3382 6.55611C14.3488 6.54225 14.3621 6.52979 14.3755 6.52062C14.3884 6.51187 14.3951 6.51044 14.3897 6.51212L14.6158 7.22724ZM15.0813 6.61442L15.8258 6.70491C15.8353 6.62652 15.8517 6.60504 15.8472 6.61209C15.8448 6.61588 15.8395 6.62279 15.8314 6.6299C15.8276 6.63318 15.8242 6.63573 15.8213 6.63757C15.8185 6.63939 15.8169 6.64014 15.817 6.6401L15.497 5.96178L15.1771 5.28346C14.649 5.53256 14.3986 6.01472 14.3368 6.52393L15.0813 6.61442ZM15.497 5.96178L15.817 6.6401C16.0846 6.51387 16.3394 6.37228 16.5807 6.215L16.1711 5.58668L15.7616 4.95836C15.58 5.07673 15.3854 5.18521 15.1771 5.28346L15.497 5.96178ZM16.1711 5.58668L16.5807 6.215C16.7224 6.12261 16.8812 6.05183 17.0612 6.00422L16.8695 5.27914L16.6778 4.55407C16.3496 4.64085 16.0428 4.77509 15.7616 4.95836L16.1711 5.58668ZM16.8695 5.27914L17.0612 6.00422C17.4393 5.90425 17.7744 5.71526 18.0523 5.43958L17.5241 4.90713L16.9959 4.37468C16.9092 4.46062 16.808 4.51964 16.6778 4.55407L16.8695 5.27914ZM17.5241 4.90713L18.0523 5.43958C18.2033 5.28972 18.3646 5.1559 18.5363 5.03755L18.1107 4.42003L17.685 3.80251C17.4391 3.97199 17.2094 4.16291 16.9959 4.37468L17.5241 4.90713ZM18.1107 4.42003L18.5363 5.03755C18.7506 4.88988 18.9654 4.73765 19.1807 4.58088L18.7392 3.97455L18.2978 3.36823C18.0926 3.51759 17.8884 3.66235 17.685 3.80251L18.1107 4.42003ZM18.7392 3.97455L19.1807 4.58088C19.3257 4.47533 19.479 4.39847 19.6431 4.34751L19.4206 3.63127L19.1981 2.91503C18.8742 3.01564 18.5733 3.16764 18.2978 3.36823L18.7392 3.97455ZM19.4206 3.63127L19.6431 4.34751C19.9398 4.25536 20.2253 4.13101 20.4993 3.97575L20.1294 3.32327L19.7596 2.67079C19.5764 2.77462 19.3894 2.8556 19.1981 2.91503L19.4206 3.63127ZM20.1294 3.32327L20.4993 3.97575C20.4965 3.97733 20.4887 3.98104 20.4774 3.98368C20.4661 3.98632 20.4578 3.98633 20.4553 3.98618C20.4516 3.98597 20.4855 3.98714 20.5642 4.02937L20.9187 3.36848L21.2733 2.70759C20.8223 2.46562 20.2762 2.37796 19.7596 2.67079L20.1294 3.32327ZM20.9187 3.36848L20.5642 4.02937C20.9468 4.23463 21.3723 4.36198 21.8148 4.31203L21.7306 3.56677L21.6465 2.8215C21.6018 2.82655 21.486 2.82171 21.2733 2.70759L20.9187 3.36848ZM21.7306 3.56677L21.8148 4.31203C22.1128 4.27839 22.4057 4.21248 22.6928 4.11528L22.4522 3.4049L22.2117 2.69452C22.0238 2.75814 21.8357 2.80014 21.6465 2.8215L21.7306 3.56677ZM22.4522 3.4049L22.6928 4.11528C22.957 4.02583 23.2218 3.91953 23.4873 3.79699L23.1729 3.11604L22.8586 2.43509C22.6381 2.53688 22.4225 2.62316 22.2117 2.69452L22.4522 3.4049ZM23.1729 3.11604L23.4873 3.79699C23.7094 3.69445 23.8496 3.64833 23.9239 3.63258L23.7686 2.89885L23.6132 2.16512C23.3794 2.21463 23.1224 2.31331 22.8586 2.43509L23.1729 3.11604ZM23.7686 2.89885L23.9239 3.63258C23.9766 3.62142 23.8868 3.65243 23.7448 3.61376C23.6575 3.58997 23.5172 3.53003 23.4017 3.38697C23.2823 3.23898 23.25 3.07726 23.2499 2.96277L23.9999 2.96186L24.7499 2.96095C24.7497 2.80914 24.7077 2.6168 24.569 2.4449C24.4342 2.27793 24.265 2.20079 24.1391 2.1665C23.9201 2.10683 23.7146 2.14365 23.6132 2.16512L23.7686 2.89885ZM23.9999 2.96186L23.2499 2.96277C23.2502 3.22446 23.373 3.43878 23.5317 3.5766C23.6668 3.69391 23.8112 3.74377 23.896 3.76698C24.0672 3.81379 24.2502 3.81802 24.394 3.81456L24.376 3.06477L24.358 2.31499C24.2512 2.31756 24.2462 2.30764 24.2919 2.32015C24.314 2.3262 24.4114 2.35387 24.5151 2.44394C24.6425 2.55453 24.7496 2.73657 24.7499 2.96095L23.9999 2.96186ZM7.98389 45.4489L7.23458 45.4167C7.22629 45.6096 7.24514 45.8842 7.40457 46.1362C7.59227 46.4328 7.89065 46.5702 8.17753 46.5918L8.23389 45.8439L8.29025 45.096C8.33358 45.0993 8.40433 45.1125 8.48309 45.1563C8.56501 45.2019 8.62898 45.2659 8.67209 45.3341C8.7482 45.4543 8.73075 45.5381 8.7332 45.481L7.98389 45.4489ZM8.23389 45.8439L8.17753 46.5918C8.35454 46.6051 8.56793 46.6214 8.81774 46.6405L8.875 45.8927L8.93226 45.1449C8.68207 45.1257 8.46805 45.1094 8.29025 45.096L8.23389 45.8439ZM8.875 45.8927L8.81774 46.6405C9.06198 46.6592 9.30625 46.6807 9.55053 46.7051L9.625 45.9588L9.69947 45.2125C9.44375 45.187 9.18802 45.1645 8.93226 45.1449L8.875 45.8927ZM9.625 45.9588L9.55053 46.7051C9.66912 46.7169 9.81095 46.7612 9.98032 46.8661L10.375 46.2283L10.7697 45.5906C10.4391 45.3859 10.0809 45.2506 9.69947 45.2125L9.625 45.9588ZM10.375 46.2283L9.98032 46.8661C10.2228 47.0161 10.5138 47.1043 10.8325 47.069C11.143 47.0347 11.4025 46.8917 11.6075 46.7195L11.125 46.1453L10.6425 45.5711C10.5975 45.6089 10.607 45.5848 10.6675 45.5781C10.6967 45.5749 10.7247 45.5775 10.7472 45.5832C10.7684 45.5886 10.7761 45.5945 10.7697 45.5906L10.375 46.2283ZM11.125 46.1453L11.6075 46.7195C11.6464 46.6868 11.6229 46.7209 11.5437 46.7255C11.5063 46.7277 11.4738 46.7218 11.4508 46.7142C11.4296 46.7071 11.4245 46.7013 11.4353 46.7092L11.875 46.1015L12.3147 45.4939C12.0831 45.3264 11.7911 45.2085 11.4563 45.2281C11.1271 45.2473 10.8536 45.3937 10.6425 45.5711L11.125 46.1453ZM11.875 46.1015L11.4353 46.7092C11.8217 46.9887 12.2894 47.1333 12.7928 47.0177L12.625 46.2868L12.4572 45.5558C12.4471 45.5581 12.4412 45.5582 12.4298 45.5554C12.4149 45.5517 12.3767 45.5388 12.3147 45.4939L11.875 46.1015ZM12.625 46.2868L12.7928 47.0177C13.1168 46.9434 13.431 46.8198 13.7347 46.6538L13.375 45.9957L13.0153 45.3376C12.819 45.4449 12.6332 45.5154 12.4572 45.5558L12.625 46.2868ZM13.375 45.9957L13.7347 46.6538C13.7448 46.6483 13.745 46.6497 13.7358 46.6519C13.726 46.6542 13.712 46.6558 13.6965 46.6547C13.6813 46.6536 13.6721 46.6505 13.6708 46.65C13.6702 46.6497 13.6797 46.6533 13.6993 46.6668L14.125 46.0493L14.5507 45.4319C14.3388 45.2858 14.0877 45.1789 13.8035 45.1585C13.5161 45.138 13.2488 45.21 13.0153 45.3376L13.375 45.9957ZM14.125 46.0493L13.6993 46.6668C14.1293 46.9633 14.6468 47.0594 15.164 46.8434L14.875 46.1513L14.586 45.4592C14.5783 45.4624 14.5776 45.4617 14.5829 45.461C14.5886 45.4602 14.5953 45.4602 14.601 45.4609C14.6065 45.4617 14.6061 45.4625 14.5986 45.4594C14.5908 45.4562 14.5748 45.4484 14.5507 45.4319L14.125 46.0493ZM14.875 46.1513L15.164 46.8434C15.2577 46.8042 15.3267 46.804 15.4024 46.8275L15.625 46.1113L15.8476 45.3951C15.4233 45.2632 14.9923 45.2896 14.586 45.4592L14.875 46.1513ZM15.625 46.1113L15.4024 46.8275C15.8516 46.9671 16.3019 46.9156 16.7122 46.709L16.375 46.0391L16.0378 45.3692C15.9481 45.4143 15.8984 45.4109 15.8476 45.3951L15.625 46.1113ZM16.375 46.0391L16.7122 46.709C16.9129 46.608 17.1057 46.5385 17.2914 46.4963L17.125 45.765L16.9586 45.0337C16.6443 45.1052 16.3371 45.2185 16.0378 45.3692L16.375 46.0391ZM17.125 45.765L17.2914 46.4963C17.2953 46.4954 17.2957 46.4949 17.3034 46.497C17.3154 46.5003 17.3534 46.5136 17.4172 46.5627L17.875 45.9687L18.3328 45.3746C17.9505 45.08 17.4765 44.9159 16.9586 45.0337L17.125 45.765ZM17.875 45.9687L17.4172 46.5627C17.622 46.7206 17.8704 46.8453 18.1588 46.8806C18.4533 46.9167 18.7309 46.8522 18.9739 46.7245L18.625 46.0606L18.2761 45.3967C18.27 45.3999 18.2748 45.3965 18.2893 45.3935C18.3046 45.3905 18.3229 45.3895 18.3412 45.3917C18.3796 45.3964 18.378 45.4095 18.3328 45.3746L17.875 45.9687ZM18.625 46.0606L18.9739 46.7245C18.9871 46.7176 18.9919 46.7169 18.9889 46.7176C18.9875 46.7179 18.9848 46.7185 18.981 46.7189C18.9772 46.7193 18.973 46.7194 18.9688 46.7192C18.9645 46.719 18.961 46.7186 18.9584 46.7181C18.9558 46.7176 18.9548 46.7173 18.9555 46.7175C18.9568 46.7179 18.9666 46.7213 18.9849 46.7324L19.375 46.0919L19.7651 45.4513C19.3 45.1681 18.7696 45.1373 18.2761 45.3967L18.625 46.0606ZM19.375 46.0919L18.9849 46.7324C19.4108 46.9918 19.9017 47.0647 20.3904 46.8798L20.125 46.1783L19.8596 45.4768C19.8479 45.4813 19.8416 45.4823 19.8397 45.4825C19.838 45.4827 19.8372 45.4827 19.8359 45.4826C19.8348 45.4824 19.8124 45.4801 19.7651 45.4513L19.375 46.0919ZM20.125 46.1783L20.3904 46.8798C20.5829 46.8069 20.7688 46.7633 20.9494 46.7453L20.875 45.999L20.8006 45.2527C20.4812 45.2846 20.1671 45.3605 19.8596 45.4768L20.125 46.1783ZM20.875 45.999L20.9494 46.7453C20.9777 46.7425 21.0487 46.7417 21.1854 46.8406L21.625 46.2329L22.0646 45.6252C21.7013 45.3625 21.2723 45.2057 20.8006 45.2527L20.875 45.999ZM21.625 46.2329L21.1854 46.8406C21.5317 47.0911 21.93 47.2537 22.369 47.2571L22.375 46.5072L22.381 45.7572C22.32 45.7567 22.2183 45.7364 22.0646 45.6252L21.625 46.2329ZM22.375 46.5072L22.369 47.2571C22.9164 47.2615 23.3542 46.9609 23.6781 46.6073L23.125 46.1007L22.5719 45.5941C22.4872 45.6867 22.426 45.7296 22.3926 45.7477C22.3636 45.7634 22.3626 45.757 22.381 45.7572L22.375 46.5072ZM23.125 46.1007L23.6781 46.6073C23.7134 46.5687 23.7394 46.5468 23.755 46.5354C23.7704 46.5242 23.7722 46.5256 23.7601 46.5301C23.7468 46.535 23.7237 46.5409 23.694 46.5411C23.6643 46.5414 23.6404 46.5359 23.6258 46.5308L23.875 45.8234L24.1242 45.116C23.478 44.8883 22.9297 45.2035 22.5719 45.5941L23.125 46.1007ZM23.875 45.8234L23.6258 46.5308C24.0089 46.6657 24.4075 46.6891 24.8035 46.5921L24.625 45.8636L24.4465 45.1352C24.3425 45.1606 24.2411 45.1572 24.1242 45.116L23.875 45.8234ZM24.625 45.8636L24.8035 46.5921C24.976 46.5498 25.1438 46.5371 25.31 46.5515L25.375 45.8044L25.44 45.0572C25.1062 45.0281 24.774 45.0549 24.4465 45.1352L24.625 45.8636ZM25.375 45.8044L25.31 46.5515C25.3641 46.5562 25.4725 46.5849 25.6401 46.7269L26.125 46.1548L26.6099 45.5827C26.2775 45.3009 25.8859 45.096 25.44 45.0572L25.375 45.8044ZM26.125 46.1548L25.6401 46.7269C25.862 46.915 26.1621 47.0692 26.5249 47.0571C26.8831 47.0452 27.171 46.8755 27.381 46.6835L26.875 46.1299L26.369 45.5763C26.329 45.6129 26.3669 45.5615 26.4751 45.5579C26.5879 45.5542 26.638 45.6065 26.6099 45.5827L26.125 46.1548ZM26.875 46.1299L27.381 46.6835C27.4317 46.6372 27.4225 46.6655 27.354 46.675C27.3199 46.6798 27.2861 46.6775 27.2577 46.6704C27.2309 46.6638 27.2193 46.6557 27.2235 46.6583L27.625 46.0249L28.0265 45.3914C27.7786 45.2343 27.4767 45.1432 27.146 45.1895C26.8275 45.2341 26.5683 45.3941 26.369 45.5763L26.875 46.1299ZM27.625 46.0249L27.2235 46.6583C27.5848 46.8874 27.994 47.0153 28.4333 46.9811L28.375 46.2333L28.3167 45.4856C28.256 45.4903 28.1652 45.4793 28.0265 45.3914L27.625 46.0249ZM28.375 46.2333L28.4333 46.9811C28.557 46.9714 28.6896 46.9903 28.8395 47.052L29.125 46.3585L29.4105 45.6649C29.0604 45.5208 28.693 45.4563 28.3167 45.4856L28.375 46.2333ZM29.125 46.3585L28.8395 47.052C29.1962 47.1988 29.5716 47.2595 29.9551 47.2182L29.875 46.4725L29.7949 45.7268C29.6784 45.7393 29.5538 45.7239 29.4105 45.6649L29.125 46.3585ZM29.875 46.4725L29.9551 47.2182C30.4422 47.1659 30.8446 46.896 31.165 46.5638L30.625 46.0432L30.085 45.5227C29.9054 45.7091 29.8078 45.7254 29.7949 45.7268L29.875 46.4725ZM30.625 46.0432L31.165 46.5638C31.1981 46.5294 31.2215 46.5112 31.2339 46.5028C31.2459 46.4946 31.2443 46.4978 31.2292 46.5027C31.2129 46.5079 31.1885 46.5125 31.1596 46.5114C31.131 46.5104 31.1099 46.5042 31.0993 46.5L31.375 45.8025L31.6507 45.105C31.3686 44.9935 31.0652 44.9799 30.7708 45.0744C30.4921 45.1639 30.2656 45.3354 30.085 45.5227L30.625 46.0432ZM31.375 45.8025L31.0993 46.5C31.3675 46.606 31.6367 46.7002 31.9066 46.7824L32.125 46.0649L32.3434 45.3474C32.1133 45.2774 31.8825 45.1966 31.6507 45.105L31.375 45.8025ZM32.125 46.0649L31.9066 46.7824C32.2283 46.8804 32.5566 46.9282 32.8887 46.9221L32.875 46.1722L32.8613 45.4224C32.6934 45.4254 32.5217 45.4017 32.3434 45.3474L32.125 46.0649ZM32.875 46.1722L32.8887 46.9221C33.2328 46.9158 33.5696 46.8459 33.8957 46.7197L33.625 46.0203L33.3543 45.3208C33.1804 45.3881 33.0172 45.4195 32.8613 45.4224L32.875 46.1722ZM33.625 46.0203L33.8957 46.7197C33.9035 46.7167 33.905 46.7171 33.9013 46.7175C33.8974 46.718 33.8929 46.7179 33.8898 46.7174C33.8822 46.7163 33.9018 46.7167 33.9515 46.7507L34.375 46.1317L34.7985 45.5127C34.3754 45.2232 33.8676 45.1221 33.3543 45.3208L33.625 46.0203ZM34.375 46.1317L33.9515 46.7507C34.3262 47.0071 34.766 47.1449 35.241 47.0706L35.125 46.3296L35.009 45.5886C34.984 45.5926 34.9238 45.5985 34.7985 45.5127L34.375 46.1317ZM35.125 46.3296L35.241 47.0706C35.4284 47.0413 35.6143 47.0361 35.8003 47.0547L35.875 46.3085L35.9497 45.5622C35.6357 45.5308 35.3216 45.5397 35.009 45.5886L35.125 46.3296ZM35.875 46.3085L35.8003 47.0547C36.1438 47.0891 36.4853 47.0593 36.8205 46.9688L36.625 46.2447L36.4295 45.5207C36.2647 45.5651 36.1062 45.5778 35.9497 45.5622L35.875 46.3085ZM36.625 46.2447L36.8205 46.9688C36.9569 46.932 37.0861 46.929 37.218 46.9572L37.375 46.2238L37.532 45.4905C37.1639 45.4116 36.7931 45.4225 36.4295 45.5207L36.625 46.2447ZM37.375 46.2238L37.218 46.9572C37.6647 47.0529 38.0974 46.969 38.4858 46.7559L38.125 46.0984L37.7642 45.4408C37.6526 45.5021 37.5853 45.5019 37.532 45.4905L37.375 46.2238ZM38.125 46.0984L38.4858 46.7559C38.528 46.7327 38.5474 46.7318 38.5488 46.7317C38.5506 46.7316 38.5529 46.7315 38.5571 46.7323C38.5615 46.7331 38.5708 46.7352 38.5856 46.7414L38.875 46.0495L39.1644 45.3576C38.6914 45.1597 38.2023 45.2005 37.7642 45.4408L38.125 46.0984ZM38.875 46.0495L38.5856 46.7414C39.1277 46.9682 39.6588 46.8379 40.0809 46.5149L39.625 45.9193L39.1691 45.3238C39.1175 45.3633 39.1023 45.3598 39.1218 45.3564C39.1312 45.3548 39.1426 45.3544 39.1536 45.3557C39.1643 45.357 39.1683 45.3592 39.1644 45.3576L38.875 46.0495ZM39.625 45.9193L40.0809 46.5149C40.3338 46.3213 40.5346 46.1606 40.6717 46.0388L40.1736 45.4781L39.6755 44.9174C39.5812 45.0012 39.4162 45.1346 39.1691 45.3238L39.625 45.9193ZM40.1736 45.4781L40.6717 46.0388C40.7631 45.9576 40.9198 45.7889 40.9632 45.5235C41.0126 45.2219 40.8887 44.9801 40.7624 44.8357C40.65 44.7073 40.5193 44.6316 40.4336 44.5887C40.3393 44.5416 40.2399 44.5052 40.146 44.4761L39.9236 45.1923L39.7012 45.9086C39.7485 45.9233 39.7654 45.9317 39.7626 45.9303C39.7604 45.9292 39.7469 45.9224 39.7267 45.9082C39.7072 45.8946 39.672 45.8675 39.6335 45.8234C39.5487 45.7266 39.4417 45.5334 39.4829 45.2813C39.5183 45.0653 39.642 44.9471 39.6755 44.9174L40.1736 45.4781ZM39.9236 45.1923L40.146 44.4761C39.913 44.4038 39.6961 44.3102 39.494 44.196L39.125 44.8489L38.756 45.5019C39.0539 45.6702 39.3694 45.8056 39.7012 45.9086L39.9236 45.1923ZM39.125 44.8489L39.494 44.196C39.1231 43.9864 38.711 43.8858 38.278 43.9422L38.375 44.6859L38.472 45.4296C38.539 45.4209 38.6269 45.4289 38.756 45.5019L39.125 44.8489ZM38.375 44.6859L38.278 43.9422C37.8382 43.9996 37.4543 44.2163 37.1279 44.5051L37.625 45.0667L38.1221 45.6284C38.2957 45.4747 38.4118 45.4375 38.472 45.4296L38.375 44.6859ZM37.625 45.0667L37.1279 44.5051C37.0631 44.5625 37.0328 44.5698 37.0391 44.5679C37.0428 44.5668 37.0521 44.5648 37.0647 44.5649C37.0773 44.5649 37.0863 44.5669 37.0897 44.568L36.875 45.2866L36.6603 46.0052C37.2287 46.175 37.7397 45.9668 38.1221 45.6284L37.625 45.0667ZM36.875 45.2866L37.0897 44.568C36.7934 44.4794 36.4938 44.421 36.1917 44.394L36.125 45.141L36.0583 45.888C36.2562 45.9057 36.4566 45.9443 36.6603 46.0052L36.875 45.2866ZM36.125 45.141L36.1917 44.394C35.882 44.3663 35.5724 44.3758 35.264 44.4219L35.375 45.1637L35.486 45.9054C35.6776 45.8767 35.868 45.871 36.0583 45.888L36.125 45.141ZM35.375 45.1637L35.264 44.4219C35.019 44.4586 34.774 44.4927 34.529 44.5244L34.625 45.2682L34.721 46.012C34.976 45.9791 35.231 45.9436 35.486 45.9054L35.375 45.1637ZM34.625 45.2682L34.529 44.5244C34.5369 44.5233 34.5385 44.5266 34.5229 44.5205C34.5024 44.5125 34.454 44.488 34.3799 44.4206L33.875 44.9752L33.3701 45.5297C33.7241 45.852 34.1844 46.0813 34.721 46.012L34.625 45.2682ZM33.875 44.9752L34.3799 44.4206C34.03 44.102 33.5797 43.8726 33.0531 43.9233L33.125 44.6699L33.1969 45.4164C33.1971 45.4164 33.1969 45.4164 33.1966 45.4164C33.1964 45.4164 33.1966 45.4164 33.1974 45.4165C33.1987 45.4167 33.205 45.4178 33.2172 45.4228C33.2428 45.4332 33.2945 45.4609 33.3701 45.5297L33.875 44.9752ZM33.125 44.6699L33.0531 43.9233C32.6079 43.9662 32.2178 44.1744 31.8868 44.4583L32.375 45.0276L32.8632 45.5969C33.0322 45.452 33.1421 45.4217 33.1969 45.4164L33.125 44.6699ZM32.375 45.0276L31.8868 44.4583C31.8369 44.501 31.838 44.4824 31.8887 44.4748C31.9137 44.4711 31.9396 44.472 31.9622 44.4766C31.9838 44.481 31.9935 44.4869 31.9902 44.4851L31.625 45.1402L31.2598 45.7952C31.5096 45.9345 31.8009 46.0048 32.1113 45.9582C32.412 45.9131 32.6631 45.7686 32.8632 45.5969L32.375 45.0276ZM31.625 45.1402L31.9902 44.4851C31.5538 44.2418 31.0645 44.1963 30.5891 44.3923L30.875 45.0857L31.1609 45.7791C31.1752 45.7732 31.1841 45.7712 31.1881 45.7706C31.1919 45.7699 31.194 45.7699 31.1957 45.7701C31.197 45.7702 31.2169 45.7713 31.2598 45.7952L31.625 45.1402ZM30.875 45.0857L30.5891 44.3923C30.3691 44.483 30.1514 44.5561 29.9359 44.6123L30.125 45.338L30.3141 46.0638C30.5986 45.9897 30.8809 45.8946 31.1609 45.7791L30.875 45.0857ZM30.125 45.338L29.9359 44.6123C29.7617 44.6577 29.5926 44.6734 29.4257 44.662L29.375 45.4103L29.3243 46.1586C29.6574 46.1812 29.9883 46.1487 30.3141 46.0638L30.125 45.338ZM29.375 45.4103L29.4257 44.662C29.1806 44.6454 28.9354 44.6264 28.6902 44.605L28.625 45.3522L28.5598 46.0993C28.8146 46.1216 29.0694 46.1413 29.3243 46.1586L29.375 45.4103ZM28.625 45.3522L28.6902 44.605C28.3882 44.5786 28.086 44.5838 27.7845 44.6205L27.875 45.365L27.9655 46.1095C28.164 46.0854 28.3618 46.082 28.5598 46.0993L28.625 45.3522ZM27.875 45.365L27.7845 44.6205C27.6328 44.6389 27.4798 44.6284 27.3202 44.5854L27.125 45.3096L26.9298 46.0337C27.2702 46.1255 27.6172 46.1519 27.9655 46.1095L27.875 45.365ZM27.125 45.3096L27.3202 44.5854C27.0133 44.5027 26.7027 44.4575 26.3895 44.4514L26.375 45.2013L26.3605 45.9511C26.5473 45.9547 26.7367 45.9817 26.9298 46.0337L27.125 45.3096ZM26.375 45.2013L26.3895 44.4514C26.3212 44.4501 26.2144 44.4264 26.0592 44.3162L25.625 44.9278L25.1908 45.5393C25.5356 45.7841 25.9288 45.9428 26.3605 45.9511L26.375 45.2013ZM25.625 44.9278L26.0592 44.3162C25.6526 44.0276 25.159 43.9027 24.6441 44.0693L24.875 44.7829L25.1059 45.4964C25.1123 45.4944 25.1137 45.4947 25.1113 45.4948C25.1088 45.495 25.1071 45.4947 25.1077 45.4948C25.1084 45.4949 25.1356 45.5001 25.1908 45.5393L25.625 44.9278ZM24.875 44.7829L24.6441 44.0693C24.3484 44.165 24.0574 44.2904 23.7711 44.4436L24.125 45.1049L24.4789 45.7662C24.6926 45.6518 24.9016 45.5626 25.1059 45.4964L24.875 44.7829ZM24.125 45.1049L23.7711 44.4436C23.7545 44.4525 23.7455 44.4552 23.7435 44.4557C23.7419 44.4561 23.7445 44.4553 23.7496 44.4553C23.7548 44.4553 23.7573 44.4561 23.7558 44.4557C23.7539 44.4552 23.7449 44.4526 23.7283 44.4437L23.375 45.1053L23.0217 45.7669C23.4928 46.0185 24.0081 46.0181 24.4789 45.7662L24.125 45.1049ZM23.375 45.1053L23.7283 44.4437C23.3562 44.245 22.9469 44.1551 22.5206 44.2151L22.625 44.9577L22.7294 45.7004C22.8031 45.6901 22.8938 45.6986 23.0217 45.7669L23.375 45.1053ZM22.625 44.9577L22.5206 44.2151C22.3622 44.2373 22.2039 44.2309 22.0413 44.1939L21.875 44.9252L21.7087 45.6566C22.0461 45.7333 22.3878 45.7485 22.7294 45.7004L22.625 44.9577ZM21.875 44.9252L22.0413 44.1939C21.6127 44.0965 21.1906 44.1566 20.8013 44.3429L21.125 45.0194L21.4487 45.6959C21.5594 45.643 21.6373 45.6403 21.7087 45.6566L21.875 44.9252ZM21.125 45.0194L20.8013 44.3429C20.6051 44.4367 20.4174 44.498 20.2373 44.5316L20.375 45.2689L20.5127 46.0061C20.8326 45.9464 21.1449 45.8413 21.4487 45.6959L21.125 45.0194ZM20.375 45.2689L20.2373 44.5316C20.0453 44.5675 19.8553 44.5798 19.6661 44.5695L19.625 45.3183L19.5839 46.0672C19.8947 46.0843 20.2047 46.0636 20.5127 46.0061L20.375 45.2689ZM19.625 45.3183L19.6661 44.5695C19.351 44.5522 19.0369 44.5758 18.7254 44.6392L18.875 45.3741L19.0246 46.109C19.2131 46.0707 19.399 46.0571 19.5839 46.0672L19.625 45.3183ZM18.875 45.3741L18.7254 44.6392C18.6654 44.6514 18.5921 44.6496 18.4779 44.5887L18.125 45.2505L17.7721 45.9123C18.1579 46.118 18.5846 46.1986 19.0246 46.109L18.875 45.3741ZM18.125 45.2505L18.4779 44.5887C18.0456 44.3582 17.5661 44.3167 17.0992 44.5014L17.375 45.1988L17.6508 45.8963C17.6796 45.8849 17.693 45.8854 17.6985 45.8858C17.7051 45.8863 17.7282 45.8888 17.7721 45.9123L18.125 45.2505ZM17.375 45.1988L17.0992 44.5014C17.0235 44.5313 16.9681 44.5312 16.8944 44.5028L16.625 45.2028L16.3556 45.9027C16.7819 46.0668 17.2265 46.0641 17.6508 45.8963L17.375 45.1988ZM16.625 45.2028L16.8944 44.5028C16.4018 44.3132 15.9069 44.3887 15.4799 44.6533L15.875 45.2908L16.2701 45.9283C16.294 45.9135 16.3113 45.9058 16.3219 45.9019C16.3321 45.8981 16.337 45.8976 16.3374 45.8975C16.3377 45.8975 16.3374 45.8974 16.3381 45.8975C16.3389 45.8977 16.3445 45.8984 16.3556 45.9027L16.625 45.2028ZM15.875 45.2908L15.4799 44.6533C15.4761 44.6557 15.4876 44.6479 15.5137 44.6417C15.5413 44.6351 15.5738 44.6331 15.6063 44.6377C15.6716 44.6471 15.6792 44.6735 15.6286 44.6276L15.125 45.1834L14.6214 45.7393C14.8208 45.9199 15.0784 46.0775 15.3937 46.1226C15.7209 46.1694 16.0214 46.0825 16.2701 45.9283L15.875 45.2908ZM15.125 45.1834L15.6286 44.6276C15.2854 44.3167 14.8533 44.0894 14.3476 44.1079L14.375 44.8574L14.4024 45.6069C14.4055 45.6068 14.4194 45.6061 14.451 45.6199C14.4857 45.635 14.5432 45.6683 14.6214 45.7393L15.125 45.1834ZM14.375 44.8574L14.3476 44.1079C13.9122 44.1238 13.5191 44.294 13.1773 44.5483L13.625 45.15L14.0727 45.7518C14.2309 45.6341 14.3378 45.6092 14.4024 45.6069L14.375 44.8574ZM13.625 45.15L13.1773 44.5483C13.1686 44.5548 13.1782 44.5457 13.2065 44.5366C13.2371 44.5267 13.2776 44.5206 13.322 44.5249C13.4128 44.5337 13.4354 44.575 13.3878 44.5304L12.875 45.0777L12.3622 45.625C12.5646 45.8146 12.8372 45.9851 13.178 46.018C13.5299 46.0519 13.8359 45.928 14.0727 45.7518L13.625 45.15ZM12.875 45.0777L13.3878 44.5304C13.0369 44.2017 12.5751 43.961 12.0316 44.0293L12.125 44.7734L12.2184 45.5176C12.2072 45.519 12.2032 45.5149 12.2181 45.5209C12.2381 45.5291 12.2871 45.5546 12.3622 45.625L12.875 45.0777ZM12.125 44.7734L12.0316 44.0293C11.8185 44.056 11.6059 44.0667 11.3936 44.0614L11.375 44.8112L11.3564 45.561C11.6441 45.5681 11.9315 45.5536 12.2184 45.5176L12.125 44.7734ZM11.375 44.8112L11.3936 44.0614C10.8806 44.0487 10.4482 44.2915 10.1095 44.612L10.625 45.1567L11.1405 45.7015C11.2204 45.6259 11.2789 45.5902 11.3138 45.5741C11.3307 45.5663 11.3416 45.5633 11.3472 45.5621C11.3525 45.5609 11.3551 45.5609 11.3564 45.561L11.375 44.8112ZM10.625 45.1567L10.1095 44.612C10.0299 44.6873 9.97185 44.7225 9.93781 44.738C9.9214 44.7456 9.91093 44.7484 9.90587 44.7495C9.90107 44.7505 9.89888 44.7504 9.89802 44.7504L9.875 45.5001L9.85198 46.2497C10.3671 46.2655 10.8012 46.0225 11.1405 45.7015L10.625 45.1567ZM9.875 45.5001L9.89802 44.7504C9.77354 44.7466 9.63274 44.7127 9.46981 44.6284L9.125 45.2944L8.78019 45.9604C9.11726 46.135 9.47646 46.2382 9.85198 46.2497L9.875 45.5001ZM9.125 45.2944L9.46981 44.6284C9.1703 44.4733 8.86256 44.3562 8.54718 44.2818L8.375 45.0118L8.20282 45.7418C8.38744 45.7853 8.5797 45.8567 8.78019 45.9604L9.125 45.2944ZM8.375 45.0118L8.54718 44.2818C8.41331 44.2503 8.26001 44.2197 8.12015 44.2148C8.06207 44.2127 7.92049 44.2102 7.76561 44.2669C7.68117 44.2978 7.54966 44.3619 7.43599 44.4948C7.31043 44.6415 7.25 44.822 7.25 44.9986H8H8.75C8.75 45.1627 8.69348 45.3323 8.57572 45.47C8.46987 45.5937 8.35008 45.6503 8.28127 45.6755C8.21078 45.7013 8.15373 45.7089 8.12629 45.7116C8.09607 45.7146 8.07499 45.7141 8.06735 45.7138C8.05249 45.7133 8.08669 45.7144 8.20282 45.7418L8.375 45.0118ZM8 44.9986H7.25C7.25 44.9985 7.25 44.9993 7.24998 45.0011C7.24996 45.003 7.24993 45.0055 7.24987 45.0087C7.24975 45.0153 7.24956 45.0239 7.24926 45.0349C7.24867 45.0568 7.24775 45.0857 7.24645 45.122C7.24386 45.1944 7.23992 45.2924 7.23458 45.4167L7.98389 45.4489L8.7332 45.481C8.74358 45.2394 8.75 45.069 8.75 44.9986H8ZM27.0684 15.6733L27.8077 15.7996C27.8991 15.2647 27.7133 14.7823 27.3209 14.4308L26.8204 14.9893L26.3199 15.5479C26.335 15.5614 26.3406 15.5692 26.3413 15.5701C26.3417 15.5707 26.3387 15.5664 26.3355 15.5577C26.3341 15.5536 26.3329 15.5495 26.332 15.5455C26.3312 15.5415 26.3308 15.5384 26.3307 15.5364C26.3303 15.5321 26.3312 15.535 26.3291 15.547L27.0684 15.6733ZM26.8204 14.9893L27.3209 14.4308C27.2456 14.3633 27.2049 14.2897 27.1898 14.1772L26.4464 14.2771L25.7031 14.3769C25.7648 14.8361 25.9734 15.2374 26.3199 15.5479L26.8204 14.9893ZM26.4464 14.2771L27.1898 14.1772C27.1553 13.9207 27.06 13.6588 26.8678 13.4369C26.6748 13.214 26.4277 13.0821 26.1746 13.0139L25.9796 13.7381L25.7847 14.4623C25.7961 14.4654 25.7928 14.466 25.7808 14.4589C25.7679 14.4512 25.7506 14.4382 25.734 14.419C25.7175 14.3999 25.708 14.3822 25.7034 14.3711C25.6992 14.361 25.701 14.3612 25.7031 14.3769L26.4464 14.2771ZM25.9796 13.7381L26.1746 13.0139C25.9153 12.9441 25.6818 12.8733 25.4735 12.8019L25.2303 13.5114L24.987 14.2208C25.2322 14.3049 25.4984 14.3853 25.7847 14.4623L25.9796 13.7381ZM25.2303 13.5114L25.4735 12.8019C25.3794 12.7696 25.2504 12.6959 25.0909 12.5379L24.563 13.0706L24.0351 13.6034C24.3117 13.8775 24.6276 14.0976 24.987 14.2208L25.2303 13.5114ZM24.563 13.0706L25.0909 12.5379C24.7501 12.2002 24.322 11.9981 23.8301 11.9881L23.815 12.738L23.7998 13.4878C23.8691 13.4892 23.9397 13.5089 24.0351 13.6034L24.563 13.0706ZM23.815 12.738L23.8301 11.9881C23.1736 11.9749 22.7286 12.3834 22.4818 12.8767L23.1526 13.2122L23.8234 13.5477C23.8664 13.4618 23.8913 13.4508 23.8755 13.4621C23.8667 13.4684 23.8522 13.4764 23.8339 13.482C23.8158 13.4875 23.803 13.4879 23.7998 13.4878L23.815 12.738ZM23.1526 13.2122L22.4818 12.8767C22.3461 13.1481 22.25 13.2264 22.2342 13.2364L22.6362 13.8695L23.0383 14.5027C23.3891 14.2799 23.6372 13.9199 23.8234 13.5477L23.1526 13.2122ZM22.6362 13.8695L22.2342 13.2364C22.152 13.2886 22.0132 13.3476 21.7905 13.3907L21.933 14.127L22.0754 14.8634C22.4237 14.796 22.7537 14.6833 23.0383 14.5027L22.6362 13.8695ZM21.933 14.127L21.7905 13.3907C21.294 13.4868 20.87 13.7782 20.665 14.287L21.3607 14.5673L22.0563 14.8476C22.0579 14.8436 22.0571 14.8468 22.0519 14.8538C22.0494 14.8571 22.0464 14.8606 22.043 14.8641C22.0395 14.8677 22.0361 14.8706 22.033 14.873C22.0266 14.8779 22.0242 14.8783 22.0294 14.8761C22.035 14.8737 22.0494 14.8684 22.0754 14.8634L21.933 14.127ZM21.3607 14.5673L20.665 14.287C20.603 14.4408 20.5052 14.6038 20.36 14.7749L20.9317 15.2603L21.5034 15.7457C21.7381 15.4693 21.9263 15.1702 22.0563 14.8476L21.3607 14.5673ZM20.9317 15.2603L20.36 14.7749C20.1714 14.997 20.0336 15.29 20.0463 15.6364C20.0586 15.9689 20.2058 16.2445 20.3737 16.4534L20.9582 15.9835L21.5428 15.5136C21.503 15.4641 21.542 15.49 21.5453 15.5814C21.547 15.627 21.5386 15.6697 21.5253 15.7037C21.5129 15.7355 21.5005 15.7491 21.5034 15.7457L20.9317 15.2603ZM20.9582 15.9835L20.3737 16.4534C20.3969 16.4823 20.4099 16.5039 20.4168 16.5176C20.4236 16.531 20.425 16.5375 20.425 16.5377C20.4251 16.538 20.425 16.5375 20.4249 16.5366C20.4248 16.5357 20.4249 16.5349 20.4249 16.5347C20.4249 16.5338 20.4249 16.5385 20.421 16.5502L21.1333 16.785L21.8456 17.0198C22.0284 16.4651 21.8834 15.9373 21.5428 15.5136L20.9582 15.9835ZM21.1333 16.785L20.421 16.5502C20.3397 16.7969 20.3088 17.0837 20.3985 17.3768C20.4891 17.6728 20.6781 17.8948 20.8934 18.052L21.3357 17.4463L21.778 16.8406C21.7712 16.8357 21.7793 16.8403 21.7928 16.858C21.807 16.8767 21.8225 16.904 21.8328 16.9378C21.8551 17.0105 21.836 17.049 21.8456 17.0198L21.1333 16.785ZM21.3357 17.4463L20.8934 18.052C20.9512 18.0943 20.9944 18.1488 21.0163 18.2705L21.7545 18.1376L22.4926 18.0046C22.4079 17.5346 22.1719 17.1283 21.778 16.8406L21.3357 17.4463ZM21.7545 18.1376L21.0163 18.2705C21.065 18.5404 21.1882 18.8307 21.4487 19.0475C21.708 19.2634 22.0145 19.3325 22.2863 19.3342L22.2909 18.5842L22.2956 17.8342C22.263 17.834 22.3279 17.8278 22.4084 17.8948C22.49 17.9627 22.4973 18.0306 22.4926 18.0046L21.7545 18.1376ZM22.2909 18.5842L22.2863 19.3342C22.3802 19.3348 22.4148 19.3573 22.4558 19.4061L23.0302 18.9239L23.6046 18.4417C23.2686 18.0414 22.8103 17.8375 22.2956 17.8342L22.2909 18.5842ZM23.0302 18.9239L22.4558 19.4061C22.761 19.7698 23.1688 20.0013 23.6552 20.042L23.7178 19.2946L23.7804 18.5472C23.727 18.5428 23.6764 18.5271 23.6046 18.4417L23.0302 18.9239ZM23.7178 19.2946L23.6552 20.042C24.0422 20.0744 24.4204 20.017 24.7801 19.8708L24.4977 19.176L24.2153 18.4813C24.0749 18.5383 23.9332 18.56 23.7804 18.5472L23.7178 19.2946ZM24.4977 19.176L24.7801 19.8708C25.1516 19.7198 25.4661 19.4824 25.7142 19.1674L25.1249 18.7034L24.5357 18.2394C24.4475 18.3513 24.3439 18.429 24.2153 18.4813L24.4977 19.176ZM25.1249 18.7034L25.7142 19.1674C25.8447 19.0015 25.9683 18.8868 26.0808 18.8095L25.6559 18.1915L25.231 17.5734C24.9717 17.7517 24.7412 17.9783 24.5357 18.2394L25.1249 18.7034ZM25.6559 18.1915L26.0808 18.8095C26.2646 18.6831 26.4591 18.5508 26.6642 18.4126L26.2449 17.7907L25.8257 17.1688C25.6172 17.3093 25.419 17.4442 25.231 17.5734L25.6559 18.1915ZM26.2449 17.7907L26.6642 18.4126C26.8826 18.2654 27.1187 18.097 27.3721 17.9083L26.9242 17.3068L26.4763 16.7052C26.2376 16.8829 26.0209 17.0372 25.8257 17.1688L26.2449 17.7907ZM26.9242 17.3068L27.3721 17.9083C27.771 17.6113 28.0303 17.1957 28.0834 16.6867L27.3374 16.6089L26.5915 16.5311C26.5857 16.5862 26.5696 16.6358 26.4763 16.7052L26.9242 17.3068ZM27.3374 16.6089L28.0834 16.6867C28.1022 16.5058 28.1075 16.2787 28.04 16.058C27.9634 15.8081 27.7711 15.5185 27.402 15.4102L27.1908 16.1298L26.9795 16.8494C26.8775 16.8195 26.7838 16.7606 26.7122 16.6805C26.6455 16.6059 26.6171 16.5344 26.6057 16.4971C26.587 16.4362 26.602 16.4299 26.5915 16.5311L27.3374 16.6089ZM27.1908 16.1298L27.402 15.4102C27.4988 15.4386 27.5959 15.496 27.6728 15.5828C27.7456 15.6648 27.7765 15.746 27.7892 15.7935C27.8101 15.8715 27.7918 15.8925 27.8077 15.7996L27.0684 15.6733L26.3291 15.547C26.2994 15.7211 26.2787 15.9517 26.3404 16.1819C26.4135 16.4548 26.6141 16.7422 26.9795 16.8494L27.1908 16.1298ZM21.9227 15.6498L22.6605 15.5153C22.6569 15.4956 22.6572 15.4855 22.6573 15.4833C22.6574 15.4816 22.6573 15.4848 22.6554 15.4907C22.6535 15.4967 22.6514 15.5001 22.6514 15.5001C22.6516 15.4997 22.656 15.4931 22.6687 15.4811L22.1551 14.9346L21.6414 14.3882C21.2464 14.7595 21.0885 15.2556 21.1849 15.7843L21.9227 15.6498ZM22.1551 14.9346L22.6687 15.4811C22.7748 15.3814 22.8766 15.3343 22.9843 15.316L22.8586 14.5766L22.733 13.8372C22.3155 13.9082 21.9482 14.0998 21.6414 14.3882L22.1551 14.9346ZM22.8586 14.5766L22.9843 15.316C23.3111 15.2605 23.6201 15.1641 23.903 15.0184L23.5596 14.3516L23.2162 13.6848C23.0897 13.75 22.9314 13.8035 22.733 13.8372L22.8586 14.5766ZM23.5596 14.3516L23.903 15.0184C24.0713 14.9317 24.2771 14.8438 24.5241 14.7563L24.2738 14.0493L24.0234 13.3423C23.7277 13.4471 23.4573 13.5607 23.2162 13.6848L23.5596 14.3516ZM24.2738 14.0493L24.5241 14.7563C24.5317 14.7536 24.4306 14.7884 24.298 14.7239C24.1778 14.6656 24.1572 14.5855 24.178 14.6339L24.8669 14.3374L25.5558 14.0408C25.4526 13.8011 25.2711 13.529 24.9532 13.3746C24.6228 13.2142 24.2872 13.2489 24.0234 13.3423L24.2738 14.0493ZM24.8669 14.3374L24.178 14.6339C24.3564 15.0482 24.6459 15.4075 25.0804 15.6087L25.3954 14.9281L25.7105 14.2475C25.6884 14.2372 25.6255 14.2028 25.5558 14.0408L24.8669 14.3374ZM25.3954 14.9281L25.0804 15.6087C25.0918 15.614 25.0567 15.5997 25.0226 15.547C24.9879 15.4934 24.9875 15.4514 24.9875 15.4556L25.7375 15.4564L26.4875 15.4572C26.4878 15.2149 26.4305 14.9615 26.2818 14.7318C26.1337 14.5031 25.9273 14.3478 25.7105 14.2475L25.3954 14.9281ZM25.7375 15.4564L24.9875 15.4556C24.987 15.9029 25.1604 16.3091 25.4126 16.6611L26.0223 16.2243L26.632 15.7875C26.5039 15.6088 26.4875 15.503 26.4875 15.4572L25.7375 15.4564ZM26.0223 16.2243L25.4126 16.6611C25.4479 16.7104 25.3476 16.5988 25.3985 16.3959C25.4489 16.1953 25.5872 16.1456 25.529 16.175L25.8666 16.8447L26.2043 17.5144C26.44 17.3955 26.7512 17.1684 26.8534 16.761C26.9562 16.3513 26.7868 16.0036 26.632 15.7875L26.0223 16.2243ZM25.8666 16.8447L25.529 16.175C25.1269 16.3777 24.7764 16.6795 24.587 17.1149L25.2747 17.4142L25.9624 17.7134C25.9744 17.6858 26.0186 17.608 26.2043 17.5144L25.8666 16.8447ZM25.2747 17.4142L24.587 17.1149C24.5485 17.2032 24.4891 17.2767 24.3861 17.3424L24.7897 17.9746L25.1933 18.6067C25.5355 18.3883 25.7993 18.0882 25.9624 17.7134L25.2747 17.4142ZM24.7897 17.9746L24.3861 17.3424C24.3785 17.3473 24.3789 17.3458 24.3873 17.3431C24.3962 17.3402 24.4087 17.3376 24.423 17.3371C24.4371 17.3367 24.4467 17.3385 24.4498 17.3393C24.4523 17.3399 24.4458 17.3386 24.4297 17.3304L24.0859 17.9969L23.7421 18.6635C24.2114 18.9055 24.7318 18.9014 25.1933 18.6067L24.7897 17.9746ZM24.0859 17.9969L24.4297 17.3304C24.1409 17.1814 23.8505 17.0672 23.5604 16.9986L23.3877 17.7285L23.2151 18.4583C23.3626 18.4932 23.5376 18.558 23.7421 18.6635L24.0859 17.9969ZM23.3877 17.7285L23.5604 16.9986C23.3455 16.9478 23.1008 16.888 22.8262 16.8193L22.644 17.5468L22.4618 18.2743C22.7412 18.3443 22.9924 18.4057 23.2151 18.4583L23.3877 17.7285ZM22.644 17.5468L22.8262 16.8193C22.7335 16.7961 22.6778 16.756 22.6262 16.6763L21.9962 17.0832L21.3662 17.4901C21.6243 17.8897 22.0004 18.1588 22.4618 18.2743L22.644 17.5468ZM21.9962 17.0832L22.6262 16.6763C22.5 16.4809 22.4246 16.3166 22.3841 16.1824L21.6661 16.399L20.948 16.6156C21.0381 16.9141 21.1828 17.2061 21.3662 17.4901L21.9962 17.0832ZM21.6661 16.399L22.3841 16.1824C22.3777 16.1612 22.382 16.1685 22.3843 16.1971C22.3863 16.2224 22.3903 16.3048 22.3515 16.4114C22.3073 16.5333 22.2169 16.6575 22.0777 16.7399C21.9515 16.8146 21.8375 16.824 21.7849 16.8241L21.7841 16.0741L21.7832 15.3241C21.6586 15.3242 21.4858 15.3472 21.3138 15.449C21.1287 15.5585 21.0056 15.7234 20.9416 15.8994C20.8344 16.1946 20.9066 16.4782 20.948 16.6156L21.6661 16.399ZM21.7841 16.0741L21.7849 16.8241C21.9467 16.8239 22.1429 16.7821 22.3216 16.649C22.4982 16.5175 22.5923 16.3456 22.6396 16.2008C22.723 15.9454 22.6915 15.6849 22.6605 15.5153L21.9227 15.6498L21.1849 15.7843C21.1927 15.8271 21.1931 15.8454 21.1931 15.8447C21.1931 15.8436 21.193 15.8336 21.1951 15.8165C21.1971 15.7997 21.202 15.7711 21.2138 15.7349C21.238 15.6608 21.2968 15.5419 21.4258 15.4459C21.557 15.3482 21.6935 15.3242 21.7832 15.3241L21.7841 16.0741Z" fill="#030302"/>
</svg>
