<svg width="48" height="48" viewBox="0 0 48 48" fill="none" xmlns="http://www.w3.org/2000/svg">
<path d="M22.9358 2.21684L23.0673 1.47846L22.9358 2.21684ZM21.6458 3.03339L21.2167 2.41829L21.6458 3.03339ZM20.9181 3.23286L20.8799 3.98188L20.9181 3.23286ZM18.851 4.12398L19.0096 4.85702L18.851 4.12398ZM18.035 4.10036L18.2059 3.37008L18.035 4.10036ZM16.0805 5.27591L15.573 4.72374L16.0805 5.27591ZM15.3373 5.43612L15.1558 6.16384L15.3373 5.43612ZM14.5677 5.52966L14.1648 4.89705L14.5677 5.52966ZM13.923 5.93872L13.5222 5.30478L13.923 5.93872ZM13.3021 6.40773L12.8039 5.84703L13.3021 6.40773ZM12.5118 6.44908L12.2013 7.13178L12.5118 6.44908ZM11.1819 7.16476L11.2778 6.42092L11.1819 7.16476ZM9.68238 7.45219L9.44529 8.16373L9.68238 7.45219ZM8.43006 8.36394L8.37042 7.61631L8.43006 8.36394ZM6.97173 8.75533L6.62923 8.0881L6.97173 8.75533ZM6.14005 9.0214L6.00052 8.28449L6.14005 9.0214ZM6.30869 26.7203L5.64187 26.377L6.30869 26.7203ZM6.416 28.2109L5.68084 28.3594L6.416 28.2109ZM7.19195 31.1021L7.91775 30.9131L7.19195 31.1021ZM7.48898 31.7881L8.12441 31.3897L7.48898 31.7881ZM7.89979 32.4262L8.52547 32.0127L7.89979 32.4262ZM8.59897 34.5791L9.34529 34.6534L8.59897 34.5791ZM9.42028 35.8276L9.08499 36.4985L9.42028 35.8276ZM10.0233 36.328L9.40699 36.7554L10.0233 36.328ZM10.3285 37.0259L11.058 36.8515L10.3285 37.0259ZM11.4353 39.0337L10.8269 39.4723L11.4353 39.0337ZM13.0166 40.6799L12.3931 41.0967L13.0166 40.6799ZM14.5181 41.2279L14.7617 40.5186L14.5181 41.2279ZM15.1296 41.6564L15.7165 41.1894L15.1296 41.6564ZM15.6625 42.1885L16.1269 41.5996L15.6625 42.1885ZM16.2886 42.592L16.633 41.9257L16.2886 42.592ZM18.1166 43.9155L18.1509 43.1663L18.1166 43.9155ZM19.4767 44.5597L19.129 45.2242L19.4767 44.5597ZM20.6773 45.4803L21.2688 45.0192L20.6773 45.4803ZM21.4393 45.6605L21.2432 44.9366L21.4393 45.6605ZM23.2753 46.9805L23.3268 46.2323L23.2753 46.9805ZM23.9308 46.8769L23.5677 46.2206L23.9308 46.8769ZM24.4953 46.5584L24.8678 47.2093L24.4953 46.5584ZM25.1333 46.1633L24.7165 45.5397L25.1333 46.1633ZM25.9471 46.0729L26.1195 45.3429L25.9471 46.0729ZM26.7064 45.8881L27.2776 46.3741L26.7064 45.8881ZM27.3312 45.4702L27.555 46.186L27.3312 45.4702ZM27.9634 45.0653L28.5168 45.5715L27.9634 45.0653ZM29.1357 44.0956L29.8026 44.4387L29.1357 44.0956ZM32.3324 42.1655L33.0211 42.4623L32.3324 42.1655ZM32.92 41.6947L32.8016 40.9541L32.92 41.6947ZM34.3663 41.1026L34.558 41.8277L34.3663 41.1026ZM34.8487 40.5179L34.1081 40.3996L34.8487 40.5179ZM35.2103 39.7998L34.7266 39.2266L35.2103 39.7998ZM35.8582 39.3867L35.5364 38.7093L35.8582 39.3867ZM37.6395 36.9851L38.3109 37.3192L37.6395 36.9851ZM38.615 35.8325L38.42 35.1083L38.615 35.8325ZM39.9677 33.1658L40.5275 33.6649L39.9677 33.1658ZM40.6251 31.8157L40.0837 31.2967L40.6251 31.8157ZM40.9166 31.1267L41.6664 31.1431L40.9166 31.1267ZM41.2543 30.4364L40.7524 29.8791L41.2543 30.4364ZM41.5126 28.9431L41.9165 29.5751L41.5126 28.9431ZM41.9909 28.276L41.2436 28.2126L41.9909 28.276ZM41.6976 27.4645L42.2951 27.0112L41.6976 27.4645ZM42.1729 25.2344L41.5244 24.8575L42.1729 25.2344ZM42.0825 23.7277L42.8285 23.8053L42.0825 23.7277ZM42.0869 22.9777L42.8337 22.9087L42.0869 22.9777ZM42.0524 21.4777L42.767 21.7052L42.0524 21.4777ZM42.1857 19.2277L41.5534 19.6309L42.1857 19.2277ZM41.6567 14.7277L42.4066 14.7233L41.6567 14.7277ZM41.8555 13.9777L41.1945 13.6233L41.8555 13.9777ZM41.9386 12.4777L41.2585 12.1614L41.9386 12.4777ZM41.941 10.9777L41.191 10.9771L41.941 10.9777ZM41.0454 8.67736L41.6118 8.18569L41.0454 8.67736ZM40.413 8.23739L40.6545 7.52733L40.413 8.23739ZM39.7196 7.95129L40.049 7.27751L39.7196 7.95129ZM38.9304 7.90724L38.736 7.18288L38.9304 7.90724ZM37.5508 7.31705L37.7097 8.05001L37.5508 7.31705ZM35.5135 6.35062L34.8402 6.68113L35.5135 6.35062ZM34.9341 5.77648L35.1725 5.06536L34.9341 5.77648ZM32.7904 5.07902L32.3082 5.65347L32.7904 5.07902ZM32.0747 4.84931L32.0305 4.10061L32.0747 4.84931ZM31.3089 4.74599L31.5642 4.04078L31.3089 4.74599ZM30.5479 4.63081L30.5249 3.88116L30.5479 4.63081ZM29.7741 4.54793L29.9635 3.82225L29.7741 4.54793ZM29.2076 3.94126L28.5096 4.21558L29.2076 3.94126ZM27.8889 3.1971L27.9352 2.44853L27.8889 3.1971ZM27.1638 2.99117L27.5242 2.33343L27.1638 2.99117ZM25.8454 2.24641L25.6501 2.97053L25.8454 2.24641ZM41.0514 24.4971L40.3083 24.5985L41.0514 24.4971ZM40.8453 25.2335L41.4548 25.6705L40.8453 25.2335ZM40.8208 25.9888L40.1744 26.3692L40.8208 25.9888ZM40.2501 29.6727L39.8329 29.0495V29.0495L40.2501 29.6727ZM39.6083 31.0424L40.3318 31.2401L39.6083 31.0424ZM38.9378 32.368L39.568 32.7746L38.9378 32.368ZM38.9151 33.184L38.2092 33.4373L38.9151 33.184ZM38.8113 33.9653L39.3377 34.4996L38.8113 33.9653ZM38.1335 34.4495L37.7878 33.7839V33.7839L38.1335 34.4495ZM37.6269 35.0199L36.9101 34.7993L37.6269 35.0199ZM36.745 37.1394L37.2818 37.6632L36.745 37.1394ZM36.0725 37.5607L36.3298 38.2652L36.0725 37.5607ZM34.4267 39.0897L35.0078 39.5638L34.4267 39.0897ZM33.8387 39.5421L33.5238 38.8614L33.8387 39.5421ZM32.3706 41.3007L31.8377 40.773L32.3706 41.3007ZM30.5473 42.6647L30.9836 43.2748L30.5473 42.6647ZM29.8574 42.9735L30.0267 43.7041L29.8574 42.9735ZM29.1029 43.1666L28.9001 42.4446L29.1029 43.1666ZM28.414 43.4733L28.8177 44.1054L28.414 43.4733ZM26.9687 43.97L27.2866 44.6493L26.9687 43.97ZM26.4243 44.5271L27.092 44.8688L26.4243 44.5271ZM25.1386 45.3001L25.6383 45.8594L25.1386 45.3001ZM24.501 45.6958L24.2231 44.9992L24.501 45.6958ZM23.8729 45.7864L24.0062 45.0483L23.8729 45.7864ZM23.3115 45.4808L22.8109 46.0393L23.3115 45.4808ZM21.2443 44.5613L20.7144 45.0921L21.2443 44.5613ZM20.6782 44.0418L21.1612 43.468L20.6782 44.0418ZM18.6723 43.0161L17.9907 43.3291L18.6723 43.0161ZM16.0118 41.5998L16.5804 41.1108L16.0118 41.5998ZM15.6191 40.8638L14.9033 41.0876L15.6191 40.8638ZM14.4307 39.9606L15.0221 39.4993L14.4307 39.9606ZM13.7706 39.5698L13.6138 40.3032L13.7706 39.5698ZM11.3431 36.7334L12.0314 36.4355L11.3431 36.7334ZM10.975 36.0779L10.3639 36.5127L10.975 36.0779ZM10.5771 35.4507L11.2308 35.083L10.5771 35.4507ZM10.2157 34.8014L9.55877 35.1633L10.2157 34.8014ZM9.9292 34.1144L9.21024 34.3279L9.9292 34.1144ZM7.90598 30.9259L7.15765 30.9757L7.90598 30.9259ZM7.73738 29.4049L8.48557 29.4569V29.4569L7.73738 29.4049ZM7.58842 28.6677L8.25555 28.325L7.58842 28.6677ZM7.03386 27.2415L6.33417 27.5116L7.03386 27.2415ZM6.73292 25.7473L7.44952 25.526L6.73292 25.7473ZM7.28383 24.2215L8.03252 24.2658L7.28383 24.2215ZM7.22976 23.4747L6.49473 23.6238L7.22976 23.4747ZM7.00949 22.7247L6.30946 22.9938L7.00949 22.7247ZM6.86564 21.2247L6.13615 21.0505L6.86564 21.2247ZM6.91363 16.7247L6.29209 16.3049L6.91363 16.7247ZM7.01875 11.4747L6.45322 11.9673L7.01875 11.4747ZM7.5258 9.81534L7.91966 10.4536L7.5258 9.81534ZM8.21126 9.50926L8.00001 8.78962L8.21126 9.50926ZM9.51234 8.72068L9.36938 7.98443L9.51234 8.72068ZM10.1842 8.38035L10.6859 8.93785L10.1842 8.38035ZM11.5887 7.85298L12.0879 8.41275L11.5887 7.85298ZM13.0867 7.56167L13.25 8.29368L13.0867 7.56167ZM14.4118 6.83385L14.4185 6.08388L14.4118 6.83385ZM15.0624 6.43975L14.4245 6.04539L15.0624 6.43975ZM16.4818 5.95004L17.0501 6.4395L16.4818 5.95004ZM17.8606 5.35765L17.1849 5.03215L17.8606 5.35765ZM18.4247 4.74498L18.7306 5.42973L18.4247 4.74498ZM21.4112 4.13886L21.5152 4.88161L21.4112 4.13886ZM22.7694 3.49451L23.3748 3.93718L22.7694 3.49451ZM23.3262 2.86335L22.8166 2.31308L23.3262 2.86335ZM24.0068 2.96896L23.4811 3.50386L24.0068 2.96896ZM24.813 3.30413L24.7354 2.55815L24.813 3.30413ZM25.5628 3.44779L25.9339 2.79604L25.5628 3.44779ZM27.0097 3.86784L26.9729 4.61694L27.0097 3.86784ZM27.6222 4.35829L26.941 4.67198L27.6222 4.35829ZM29.1393 4.60115L29.6105 4.01763L29.1393 4.60115ZM29.8306 4.89264L29.7442 5.63765L29.8306 4.89264ZM33.3069 6.29919L33.3744 5.55224L33.3069 6.29919ZM33.9303 6.76206L33.2724 7.12207L33.9303 6.76206ZM35.8374 8.05728L36.0606 7.34126L35.8374 8.05728ZM36.5497 8.29573L36.8026 7.58968L36.5497 8.29573ZM38.1318 8.37439L38.5488 7.75103L38.1318 8.37439ZM38.8281 8.65299L38.7003 9.39202L38.8281 8.65299ZM39.5645 8.83039L39.3409 9.54627L39.5645 8.83039ZM40.2283 9.19142L40.7027 8.61052L40.2283 9.19142ZM40.6016 9.66582L39.8841 9.88404L40.6016 9.66582ZM40.6895 10.2663L41.4385 10.2278L40.6895 10.2663ZM41.2013 12.5163L41.8554 12.1494L41.2013 12.5163ZM41.3077 13.2663L40.5849 13.0659L41.3077 13.2663ZM41.2247 15.5163L40.5329 15.2266L41.2247 15.5163ZM41.2135 18.5163L41.8662 18.147L41.2135 18.5163ZM41.2358 21.5163L40.525 21.7558L41.2358 21.5163ZM40.972 22.2663L41.4918 22.807L40.972 22.2663ZM40.6275 23.0163L39.8829 23.1067L40.6275 23.0163ZM40.8051 23.7557L40.1001 24.0114L40.8051 23.7557ZM17.5431 21.894L17.235 21.2103V21.2103L17.5431 21.894ZM19.314 23.8796L19.8607 23.3661L19.314 23.8796ZM20.1343 25.1807L19.4076 25.3664L20.1343 25.1807ZM20.7541 25.6215L20.7271 26.371L20.7541 25.6215ZM23.1376 27.4058L22.846 28.0968L23.1376 27.4058ZM24.0769 26.5689L24.6405 27.0637L24.0769 26.5689ZM27.7187 22.7861L28.4677 22.8242L27.7187 22.7861ZM28.0434 22.0501L27.5844 21.4569L28.0434 22.0501ZM28.7495 21.6956L28.5323 20.9777L28.7495 21.6956ZM29.2336 21.119L28.4941 20.9935L29.2336 21.119ZM30.2376 20.0017L30.4708 20.7145L30.2376 20.0017ZM30.8171 19.5206L31.4843 19.8633L30.8171 19.5206ZM30.9917 19.0466L31.7409 19.0135L30.9917 19.0466ZM30.549 18.8452L29.9449 18.4007L30.549 18.8452ZM29.989 19.3459L29.6116 18.6978L29.989 19.3459ZM29.4621 19.8797L30.1147 20.2493L29.4621 19.8797ZM28.8871 20.3653L29.1558 21.0655L28.8871 20.3653ZM28.1282 20.667L28.4137 21.3605L28.1282 20.667ZM27.6102 21.2097L28.3144 21.468L27.6102 21.2097ZM27.0995 21.7597L26.7977 21.0731L27.0995 21.7597ZM26.6241 22.3449L27.3512 22.5289L26.6241 22.3449ZM25.0228 23.9257L25.7054 24.2364L25.0228 23.9257ZM24.5496 24.5131L24.1091 23.9062L24.5496 24.5131ZM23.4156 25.5004L23.7976 26.1458L23.4156 25.5004ZM22.9813 25.7726L22.5343 25.1704L22.9813 25.7726ZM21.979 25.1578L21.8579 25.898L21.979 25.1578ZM20.8492 24.1663L21.4846 23.768L20.8492 24.1663ZM20.2859 23.669L19.9628 24.3458L20.2859 23.669ZM19.5561 23.3381L19.2597 24.027L19.5561 23.3381ZM23.6849 2.07138L23.252 1.45893C23.2293 1.47493 23.1897 1.50026 23.0673 1.47846L22.9358 2.21684L22.8043 2.95522C23.2604 3.03647 23.7202 2.96483 24.1178 2.68383L23.6849 2.07138ZM22.9358 2.21684L23.0673 1.47846C22.8148 1.43347 22.5461 1.44255 22.2836 1.5393C22.0201 1.63638 21.809 1.80474 21.6468 2.00699L22.2319 2.47623L22.8169 2.94547C22.8268 2.93313 22.8308 2.93103 22.8271 2.93382C22.8253 2.93517 22.8221 2.93735 22.8175 2.93983C22.813 2.94232 22.8078 2.94472 22.8022 2.94678C22.7966 2.94885 22.7914 2.95027 22.7871 2.95118C22.7827 2.95209 22.7799 2.95234 22.779 2.9524C22.7771 2.95253 22.7848 2.95175 22.8043 2.95522L22.9358 2.21684ZM22.2319 2.47623L21.6468 2.00699C21.5062 2.18223 21.3621 2.31681 21.2167 2.41829L21.6458 3.03339L22.0749 3.64849C22.3509 3.456 22.5975 3.21914 22.8169 2.94547L22.2319 2.47623ZM21.6458 3.03339L21.2167 2.41829C21.1524 2.46313 21.0768 2.48998 20.9564 2.48383L20.9181 3.23286L20.8799 3.98188C21.3083 4.00375 21.7178 3.89763 22.0749 3.64849L21.6458 3.03339ZM20.9181 3.23286L20.9564 2.48383C20.59 2.46513 20.2324 2.51361 19.8932 2.64002L20.155 3.34281L20.4169 4.04561C20.5463 3.9974 20.6975 3.97257 20.8799 3.98188L20.9181 3.23286ZM20.155 3.34281L19.8932 2.64002C19.5522 2.76706 19.2502 2.96599 18.9879 3.22322L19.513 3.75869L20.0382 4.29417C20.1633 4.17151 20.2892 4.09318 20.4169 4.04561L20.155 3.34281ZM19.513 3.75869L18.9879 3.22322C18.8879 3.32133 18.7919 3.36942 18.6924 3.39094L18.851 4.12398L19.0096 4.85702C19.4055 4.77137 19.7509 4.57594 20.0382 4.29417L19.513 3.75869ZM18.851 4.12398L18.6924 3.39094C18.5731 3.41676 18.4154 3.4191 18.2059 3.37008L18.035 4.10036L17.8642 4.83064C18.2473 4.92028 18.6336 4.93836 19.0096 4.85702L18.851 4.12398ZM18.035 4.10036L18.2059 3.37008C17.915 3.30202 17.5868 3.31524 17.2809 3.48673C16.988 3.65103 16.8058 3.91031 16.6922 4.16006L17.3749 4.47051L18.0577 4.78097C18.0878 4.71462 18.0876 4.75416 18.0146 4.79507C17.978 4.8156 17.9391 4.82687 17.9052 4.83042C17.8735 4.83374 17.8579 4.82917 17.8642 4.83064L18.035 4.10036ZM17.3749 4.47051L16.6922 4.16006C16.6529 4.24659 16.6271 4.26412 16.6364 4.25641C16.642 4.25174 16.6538 4.24359 16.6709 4.23664C16.6881 4.22967 16.7027 4.22716 16.711 4.22653L16.7678 4.97438L16.8246 5.72223C17.4475 5.67494 17.8432 5.25252 18.0577 4.78097L17.3749 4.47051ZM16.7678 4.97438L16.711 4.22653C16.2779 4.25941 15.8911 4.43136 15.573 4.72374L16.0805 5.27591L16.5881 5.82809C16.6643 5.75806 16.7356 5.72898 16.8246 5.72223L16.7678 4.97438ZM16.0805 5.27591L15.573 4.72374C15.5682 4.72815 15.5682 4.72714 15.5733 4.72445C15.5787 4.72165 15.5845 4.71965 15.5888 4.71871C15.5984 4.71664 15.5801 4.72369 15.5188 4.70841L15.3373 5.43612L15.1558 6.16384C15.6564 6.28868 16.1754 6.20743 16.5881 5.82809L16.0805 5.27591ZM15.3373 5.43612L15.5188 4.70841C15.0655 4.59538 14.5884 4.6273 14.1648 4.89705L14.5677 5.52966L14.9706 6.16227C14.9765 6.1585 15.0124 6.12808 15.1558 6.16384L15.3373 5.43612ZM14.5677 5.52966L14.1648 4.89705C13.9508 5.03336 13.7366 5.16927 13.5222 5.30478L13.923 5.93872L14.3238 6.57266C14.5395 6.43626 14.7551 6.29947 14.9706 6.16227L14.5677 5.52966ZM13.923 5.93872L13.5222 5.30478C13.2713 5.46343 13.0319 5.64453 12.8039 5.84703L13.3021 6.40773L13.8002 6.96842C13.9701 6.81749 14.1446 6.68591 14.3238 6.57266L13.923 5.93872ZM13.3021 6.40773L12.8039 5.84703C12.813 5.83897 12.8302 5.82649 12.8551 5.81627C12.8799 5.80602 12.9019 5.80237 12.9161 5.80163C12.9291 5.80095 12.9291 5.80299 12.913 5.7993C12.8965 5.79551 12.8666 5.78652 12.8223 5.76637L12.5118 6.44908L12.2013 7.13178C12.6856 7.35204 13.2993 7.41343 13.8002 6.96842L13.3021 6.40773ZM12.5118 6.44908L12.8223 5.76637C12.5559 5.6452 12.1931 5.56029 11.8179 5.70716C11.4419 5.85433 11.2334 6.16372 11.1208 6.43473L11.8134 6.72246L12.506 7.01019C12.5311 6.94979 12.5078 7.04792 12.3646 7.10396C12.2222 7.1597 12.1398 7.1038 12.2013 7.13178L12.5118 6.44908ZM11.8134 6.72246L11.1208 6.43473C11.0858 6.51889 11.073 6.50162 11.122 6.46727C11.1482 6.4489 11.1812 6.43381 11.2164 6.4259C11.2503 6.41828 11.2729 6.42029 11.2778 6.42092L11.1819 7.16476L11.0859 7.9086C11.3907 7.9479 11.7066 7.88913 11.9825 7.69591C12.2421 7.51413 12.4033 7.25744 12.506 7.01019L11.8134 6.72246ZM11.1819 7.16476L11.2778 6.42092C10.8105 6.36067 10.3561 6.469 9.97808 6.77711L10.4519 7.35848L10.9257 7.93984C10.9543 7.91659 10.9865 7.89578 11.0859 7.9086L11.1819 7.16476ZM10.4519 7.35848L9.97808 6.77711C9.97881 6.77651 9.98435 6.77232 9.9942 6.7681C10.0041 6.76385 10.0124 6.76215 10.0164 6.76167C10.0236 6.76079 9.99582 6.7661 9.91946 6.74065L9.68238 7.45219L9.44529 8.16373C9.93029 8.32534 10.4733 8.30858 10.9257 7.93984L10.4519 7.35848ZM9.68238 7.45219L9.91946 6.74065C9.62855 6.64372 9.26792 6.6195 8.92424 6.80761C8.59902 6.98561 8.41988 7.2836 8.31906 7.5467L9.0194 7.81507L9.71974 8.08344C9.75117 8.00142 9.74865 8.06636 9.64443 8.12341C9.59115 8.15257 9.53625 8.16491 9.49179 8.1664C9.45138 8.16775 9.43357 8.15983 9.44529 8.16373L9.68238 7.45219ZM9.0194 7.81507L8.31906 7.5467C8.29999 7.59646 8.28312 7.62842 8.27145 7.64718C8.25992 7.6657 8.2555 7.66809 8.26173 7.66228C8.2688 7.65569 8.28432 7.64354 8.30816 7.63291C8.33224 7.62218 8.35458 7.61757 8.37042 7.61631L8.43006 8.36394L8.48969 9.11156C9.15418 9.05856 9.53341 8.56969 9.71974 8.08344L9.0194 7.81507ZM8.43006 8.36394L8.37042 7.61631C8.06851 7.64039 7.77359 7.68898 7.48635 7.76279L7.67301 8.48919L7.85967 9.21559C8.06053 9.16398 8.27031 9.12906 8.48969 9.11156L8.43006 8.36394ZM7.67301 8.48919L7.48635 7.76279C7.18848 7.83933 6.90244 7.94785 6.62923 8.0881L6.97173 8.75533L7.31424 9.42255C7.48796 9.33338 7.66943 9.26448 7.85967 9.21559L7.67301 8.48919ZM6.97173 8.75533L6.62923 8.0881C6.48728 8.16096 6.28329 8.23095 6.00052 8.28449L6.14005 9.0214L6.27958 9.7583C6.65879 9.6865 7.00925 9.57911 7.31424 9.42255L6.97173 8.75533ZM6.14005 9.0214L6.00052 8.28449C5.78497 8.3253 5.40622 8.43209 5.18335 8.78594C4.92298 9.19931 5.06284 9.61949 5.18367 9.84483L5.84464 9.49041L6.50562 9.13598C6.5026 9.13035 6.52769 9.17334 6.53484 9.25504C6.54312 9.34953 6.52436 9.47139 6.45257 9.58537C6.38642 9.69039 6.30699 9.73836 6.27613 9.7541C6.24676 9.76908 6.24131 9.76555 6.27958 9.7583L6.14005 9.0214ZM5.84464 9.49041L5.18367 9.84483C5.27176 10.0091 5.30775 10.1503 5.3133 10.274L6.06254 10.2404L6.81179 10.2068C6.79491 9.83047 6.68563 9.47169 6.50562 9.13598L5.84464 9.49041ZM6.06254 10.2404L5.3133 10.274C5.31605 10.3354 5.30156 10.4308 5.20553 10.5754L5.83024 10.9904L6.45496 11.4054C6.69109 11.05 6.83146 10.6454 6.81179 10.2068L6.06254 10.2404ZM5.83024 10.9904L5.20553 10.5754C5.04502 10.817 4.9444 11.1148 4.98048 11.4465C5.01549 11.7684 5.16961 12.0327 5.34931 12.2365L5.91182 11.7404L6.47434 11.2443C6.43357 11.1981 6.46386 11.2124 6.47168 11.2843C6.4755 11.3194 6.47183 11.3525 6.46456 11.3786C6.45776 11.4031 6.45045 11.4122 6.45496 11.4054L5.83024 10.9904ZM5.91182 11.7404L5.34931 12.2365C5.40684 12.3017 5.4152 12.3332 5.41396 12.329C5.41315 12.3263 5.41127 12.3182 5.41121 12.3065C5.41116 12.2949 5.41297 12.2864 5.4139 12.2832L6.1347 12.4904L6.8555 12.6976C7.01807 12.1322 6.81016 11.6252 6.47434 11.2443L5.91182 11.7404ZM6.1347 12.4904L5.4139 12.2832C5.34504 12.5227 5.27046 12.7624 5.19012 13.0023L5.90131 13.2404L6.6125 13.4785C6.69959 13.2185 6.7806 12.9582 6.8555 12.6976L6.1347 12.4904ZM5.90131 13.2404L5.19012 13.0023C5.04158 13.4459 5.07883 13.8962 5.27587 14.3117L5.95355 13.9904L6.63123 13.6691C6.5912 13.5847 6.59363 13.5349 6.6125 13.4785L5.90131 13.2404ZM5.95355 13.9904L5.27587 14.3117C5.35569 14.4801 5.39132 14.6314 5.39682 14.7701L6.14623 14.7404L6.89564 14.7107C6.88131 14.3494 6.78849 14.0007 6.63123 13.6691L5.95355 13.9904ZM6.14623 14.7404L5.39682 14.7701C5.39781 14.7952 5.3946 14.8742 5.27584 15.0234L5.86273 15.4904L6.44963 15.9574C6.72869 15.6066 6.91448 15.1856 6.89564 14.7107L6.14623 14.7404ZM5.86273 15.4904L5.27584 15.0234C5.0853 15.2629 4.94481 15.5865 4.99499 15.9642C5.04252 16.3219 5.24434 16.5943 5.44806 16.7863L5.96237 16.2404L6.47669 15.6945C6.41507 15.6365 6.46761 15.6589 6.48193 15.7666C6.48924 15.8217 6.48236 15.8735 6.469 15.9138C6.45674 15.9508 6.44349 15.9651 6.44963 15.9574L5.86273 15.4904ZM5.96237 16.2404L5.44806 16.7863C5.50353 16.8385 5.42794 16.7933 5.42116 16.6511C5.41394 16.4994 5.4932 16.4336 5.45871 16.4693L5.9981 16.9904L6.5375 17.5115C6.74453 17.2972 6.9386 16.9814 6.91946 16.5797C6.90078 16.1875 6.68657 15.8923 6.47669 15.6945L5.96237 16.2404ZM5.9981 16.9904L5.45871 16.4693C5.11992 16.82 4.86632 17.2922 4.95071 17.8522L5.69234 17.7404L6.43396 17.6286C6.43486 17.6346 6.43498 17.6419 6.43414 17.6485C6.43333 17.6548 6.43231 17.6552 6.43502 17.6485C6.44118 17.6334 6.4649 17.5867 6.5375 17.5115L5.9981 16.9904ZM5.69234 17.7404L4.95071 17.8522C5.01623 18.2869 5.23565 18.6666 5.52562 18.9906L6.08448 18.4904L6.64334 17.9902C6.48581 17.8142 6.44379 17.6939 6.43396 17.6286L5.69234 17.7404ZM6.08448 18.4904L5.52562 18.9906C5.66685 19.1484 5.66251 19.2219 5.66245 19.2248L6.41229 19.2404L7.16212 19.256C7.17248 18.7589 6.94961 18.3324 6.64334 17.9902L6.08448 18.4904ZM6.41229 19.2404L5.66245 19.2248C5.66187 19.2528 5.65099 19.342 5.5136 19.5023L6.08303 19.9904L6.65245 20.4785C6.94365 20.1388 7.15229 19.7281 7.16212 19.256L6.41229 19.2404ZM6.08303 19.9904L5.5136 19.5023C5.17778 19.8941 4.98697 20.4116 5.17336 20.9757L5.88549 20.7404L6.59762 20.5051C6.59823 20.5069 6.60053 20.5151 6.60095 20.5278C6.60138 20.5405 6.59966 20.5508 6.59819 20.5564C6.59548 20.5667 6.59947 20.5403 6.65245 20.4785L6.08303 19.9904ZM5.88549 20.7404L5.17336 20.9757C5.23455 21.1609 5.26606 21.3396 5.27152 21.5139L6.02115 21.4904L6.77078 21.4669C6.76058 21.1412 6.70165 20.8199 6.59762 20.5051L5.88549 20.7404ZM6.02115 21.4904L5.27152 21.5139C5.27784 21.7158 5.26491 21.9183 5.23235 22.122L5.97295 22.2404L6.71355 22.3588C6.76092 22.0625 6.78012 21.765 6.77078 21.4669L6.02115 21.4904ZM5.97295 22.2404L5.23235 22.122C5.19097 22.3809 5.15436 22.6399 5.12251 22.8989L5.86691 22.9904L6.61131 23.0819C6.64093 22.8409 6.67501 22.5999 6.71355 22.3588L5.97295 22.2404ZM5.86691 22.9904L5.12251 22.8989C5.09405 23.1305 5.05682 23.3624 5.01079 23.5946L5.74648 23.7404L6.48217 23.8862C6.53525 23.6185 6.57831 23.3503 6.61131 23.0819L5.86691 22.9904ZM5.74648 23.7404L5.01079 23.5946C4.90748 24.1158 5.08699 24.5846 5.38959 24.958L5.97228 24.4858L6.55497 24.0136C6.50271 23.9491 6.48751 23.9099 6.48355 23.8968C6.48091 23.8881 6.48178 23.8882 6.48217 23.8862L5.74648 23.7404ZM5.97228 24.4858L5.38959 24.958C5.43977 25.0199 5.45161 25.0549 5.45372 25.0624C5.45473 25.0659 5.45429 25.0657 5.45423 25.063C5.45416 25.0603 5.45459 25.0598 5.45385 25.063L6.18417 25.2337L6.91449 25.4044C7.03814 24.8753 6.86382 24.3947 6.55497 24.0136L5.97228 24.4858ZM6.18417 25.2337L5.45385 25.063C5.34817 25.5152 5.42843 25.9559 5.65953 26.3471L6.30531 25.9657L6.95108 25.5843C6.90302 25.5029 6.90252 25.4556 6.91449 25.4044L6.18417 25.2337ZM6.30531 25.9657L5.65953 26.3471C5.66484 26.3561 5.66471 26.3582 5.66341 26.3537C5.662 26.3488 5.66088 26.3419 5.66085 26.335C5.66082 26.3283 5.66182 26.3269 5.66035 26.3325C5.65876 26.3386 5.65411 26.3533 5.64187 26.377L6.30869 26.7203L6.97551 27.0636C7.21769 26.5932 7.23567 26.0662 6.95108 25.5843L6.30531 25.9657ZM6.30869 26.7203L5.64187 26.377C5.43043 26.7877 5.35588 27.2508 5.5102 27.7175L6.22228 27.4821L6.93437 27.2466C6.92925 27.2311 6.91231 27.1864 6.97551 27.0636L6.30869 26.7203ZM6.22228 27.4821L5.5102 27.7175C5.58065 27.9306 5.63745 28.1445 5.68084 28.3594L6.416 28.2109L7.15117 28.0625C7.09569 27.7877 7.02335 27.5158 6.93437 27.2466L6.22228 27.4821ZM6.416 28.2109L5.68084 28.3594C5.74595 28.6818 5.86054 28.9894 6.02127 29.2804L6.67777 28.9178L7.33428 28.5552C7.24485 28.3932 7.18492 28.2296 7.15117 28.0625L6.416 28.2109ZM6.67777 28.9178L6.02127 29.2804C6.10397 29.4301 6.15372 29.58 6.17551 29.7333L6.91805 29.6278L7.66058 29.5222C7.61217 29.1818 7.50174 28.8583 7.33428 28.5552L6.67777 28.9178ZM6.91805 29.6278L6.17551 29.7333C6.21161 29.9872 6.25137 30.2411 6.29478 30.495L7.03405 30.3685L7.77332 30.2421C7.73226 30.0021 7.69468 29.7621 7.66058 29.5222L6.91805 29.6278ZM7.03405 30.3685L6.29478 30.495C6.34061 30.7629 6.39774 31.0283 6.46616 31.2911L7.19195 31.1021L7.91775 30.9131C7.8601 30.6917 7.81196 30.4681 7.77332 30.2421L7.03405 30.3685ZM7.19195 31.1021L6.46616 31.2911C6.54877 31.6083 6.6786 31.9075 6.85355 32.1865L7.48898 31.7881L8.12441 31.3897C8.02939 31.2381 7.9612 31.0799 7.91775 30.9131L7.19195 31.1021ZM7.48898 31.7881L6.85355 32.1865C6.99169 32.4068 7.13187 32.6246 7.2741 32.8398L7.89979 32.4262L8.52547 32.0127C8.38992 31.8076 8.25624 31.5999 8.12441 31.3897L7.48898 31.7881ZM7.89979 32.4262L7.2741 32.8398C7.38629 33.0095 7.47897 33.1852 7.553 33.3671L8.24767 33.0844L8.94235 32.8016C8.8303 32.5263 8.69105 32.2632 8.52547 32.0127L7.89979 32.4262ZM8.24767 33.0844L7.553 33.3671C7.64267 33.5874 7.72876 33.8102 7.81127 34.0355L8.51553 33.7776L9.21979 33.5197C9.13123 33.2779 9.03875 33.0385 8.94235 32.8016L8.24767 33.0844ZM8.51553 33.7776L7.81127 34.0355C7.85048 34.1426 7.87374 34.2928 7.85265 34.5049L8.59897 34.5791L9.34529 34.6534C9.38401 34.2639 9.35166 33.8798 9.21979 33.5197L8.51553 33.7776ZM8.59897 34.5791L7.85265 34.5049C7.8073 34.9609 7.90238 35.4151 8.20241 35.7955L8.79131 35.3311L9.3802 34.8666C9.36396 34.8461 9.33081 34.7989 9.34529 34.6534L8.59897 34.5791ZM8.79131 35.3311L8.20241 35.7955C8.43804 36.0943 8.73927 36.3257 9.08499 36.4985L9.42028 35.8276L9.75557 35.1568C9.57892 35.0685 9.46085 34.9689 9.3802 34.8666L8.79131 35.3311ZM9.42028 35.8276L9.08499 36.4985C9.25405 36.583 9.34993 36.6731 9.40699 36.7554L10.0233 36.328L10.6395 35.9005C10.415 35.5767 10.1089 35.3333 9.75557 35.1568L9.42028 35.8276ZM10.0233 36.328L9.40699 36.7554C9.49002 36.8751 9.55606 37.0203 9.59906 37.2002L10.3285 37.0259L11.058 36.8515C10.9756 36.5069 10.8381 36.1869 10.6395 35.9005L10.0233 36.328ZM10.3285 37.0259L9.59906 37.2002C9.67574 37.5211 9.789 37.8251 9.94071 38.1098L10.6026 37.757L11.2644 37.4043C11.1761 37.2385 11.1066 37.0551 11.058 36.8515L10.3285 37.0259ZM10.6026 37.757L9.94071 38.1098C10.0735 38.3589 10.2192 38.5997 10.3777 38.832L10.9972 38.4092L11.6167 37.9865C11.4891 37.7995 11.3717 37.6055 11.2644 37.4043L10.6026 37.757ZM10.9972 38.4092L10.3777 38.832C10.5244 39.0469 10.6741 39.2604 10.8269 39.4723L11.4353 39.0337L12.0437 38.5951C11.8984 38.3936 11.756 38.1907 11.6167 37.9865L10.9972 38.4092ZM11.4353 39.0337L10.8269 39.4723C11.0266 39.7493 11.2689 39.9861 11.5506 40.1809L11.9772 39.5641L12.4039 38.9473C12.261 38.8484 12.1421 38.7316 12.0437 38.5951L11.4353 39.0337ZM11.9772 39.5641L11.5506 40.1809C11.7139 40.2939 11.8582 40.422 11.985 40.5655L12.5471 40.069L13.1092 39.5724C12.9006 39.3364 12.665 39.1279 12.4039 38.9473L11.9772 39.5641ZM12.5471 40.069L11.985 40.5655C12.1296 40.7293 12.2657 40.9062 12.3931 41.0967L13.0166 40.6799L13.6401 40.2631C13.4767 40.0186 13.2997 39.7882 13.1092 39.5724L12.5471 40.069ZM13.0166 40.6799L12.3931 41.0967C12.684 41.5319 13.1288 41.7493 13.6134 41.7992L13.6903 41.0532L13.7671 40.3071C13.6972 40.2999 13.6663 40.2852 13.6576 40.2804C13.6519 40.2772 13.6478 40.2746 13.6401 40.2631L13.0166 40.6799ZM13.6903 41.0532L13.6134 41.7992C13.8693 41.8256 14.0883 41.8733 14.2745 41.9373L14.5181 41.2279L14.7617 40.5186C14.4516 40.4121 14.1186 40.3433 13.7671 40.3071L13.6903 41.0532ZM14.5181 41.2279L14.2745 41.9373C14.3911 41.9773 14.4746 42.0377 14.5428 42.1234L15.1296 41.6564L15.7165 41.1894C15.4657 40.8743 15.1415 40.649 14.7617 40.5186L14.5181 41.2279ZM15.1296 41.6564L14.5428 42.1234C14.7373 42.3678 14.9557 42.5864 15.198 42.7774L15.6625 42.1885L16.1269 41.5996C15.9778 41.482 15.841 41.3458 15.7165 41.1894L15.1296 41.6564ZM15.6625 42.1885L15.198 42.7774C15.4312 42.9613 15.6801 43.1217 15.9441 43.2582L16.2886 42.592L16.633 41.9257C16.4536 41.833 16.2851 41.7244 16.1269 41.5996L15.6625 42.1885ZM16.2886 42.592L15.9441 43.2582C16.1589 43.3693 16.3715 43.4834 16.5819 43.6006L16.947 42.9454L17.312 42.2903C17.0879 42.1654 16.8616 42.0439 16.633 41.9257L16.2886 42.592ZM16.947 42.9454L16.5819 43.6006C16.6556 43.6416 16.7413 43.7175 16.8262 43.8723L17.4838 43.5116L18.1413 43.1509C17.9449 42.7929 17.6728 42.4913 17.312 42.2903L16.947 42.9454ZM17.4838 43.5116L16.8262 43.8723C17.0867 44.3472 17.5277 44.6393 18.0823 44.6647L18.1166 43.9155L18.1509 43.1663C18.1362 43.1656 18.1316 43.1638 18.1342 43.1646C18.1355 43.165 18.1379 43.1658 18.1411 43.1673C18.1443 43.1687 18.1477 43.1706 18.151 43.1727C18.1543 43.1748 18.1569 43.1768 18.1587 43.1783C18.1604 43.1797 18.1609 43.1804 18.1602 43.1796C18.1588 43.1781 18.1518 43.1699 18.1413 43.1509L17.4838 43.5116ZM18.1166 43.9155L18.0823 44.6647C18.2324 44.6716 18.3256 44.7113 18.3935 44.7619L18.8413 44.1603L19.2891 43.5586C18.9532 43.3086 18.5633 43.1852 18.1509 43.1663L18.1166 43.9155ZM18.8413 44.1603L18.3935 44.7619C18.6269 44.9356 18.8721 45.0898 19.129 45.2242L19.4767 44.5597L19.8245 43.8952C19.6379 43.7976 19.4596 43.6855 19.2891 43.5586L18.8413 44.1603ZM19.4767 44.5597L19.129 45.2242C19.3236 45.3261 19.5115 45.4395 19.6929 45.5647L20.1189 44.9475L20.5449 44.3302C20.3134 44.1704 20.0732 44.0254 19.8245 43.8952L19.4767 44.5597ZM20.1189 44.9475L19.6929 45.5647C19.8319 45.6607 19.9633 45.7843 20.0858 45.9414L20.6773 45.4803L21.2688 45.0192C21.0596 44.7508 20.8187 44.5191 20.5449 44.3302L20.1189 44.9475ZM20.6773 45.4803L20.0858 45.9414C20.2698 46.1775 20.5205 46.3441 20.8196 46.4148C21.1037 46.482 21.385 46.4522 21.6353 46.3844L21.4393 45.6605L21.2432 44.9366C21.1992 44.9485 21.1716 44.9517 21.1582 44.9525C21.1453 44.9532 21.1491 44.9514 21.1648 44.9551C21.1816 44.959 21.204 44.9675 21.2269 44.9824C21.2495 44.9971 21.2631 45.0118 21.2688 45.0192L20.6773 45.4803ZM21.4393 45.6605L21.6353 46.3844C21.6893 46.3698 21.586 46.4115 21.449 46.3237C21.3207 46.2414 21.321 46.1454 21.3386 46.2258L22.0713 46.0658L22.804 45.9058C22.7424 45.6233 22.5977 45.2783 22.2587 45.061C21.911 44.838 21.5313 44.8585 21.2432 44.9366L21.4393 45.6605ZM22.0713 46.0658L21.3386 46.2258C21.442 46.6992 21.6788 47.191 22.1831 47.4487L22.5245 46.7809L22.8659 46.1131C22.8885 46.1247 22.8906 46.1359 22.8775 46.1152C22.8612 46.0894 22.8305 46.0271 22.804 45.9058L22.0713 46.0658ZM22.5245 46.7809L22.1831 47.4487C22.5058 47.6137 22.8564 47.7034 23.2237 47.7287L23.2753 46.9805L23.3268 46.2323C23.1389 46.2193 22.989 46.1761 22.8659 46.1131L22.5245 46.7809ZM23.2753 46.9805L23.2237 47.7287C23.5749 47.7529 23.9578 47.7191 24.2939 47.5331L23.9308 46.8769L23.5677 46.2206C23.5788 46.2145 23.5711 46.2217 23.5303 46.2281C23.4889 46.2347 23.423 46.2389 23.3268 46.2323L23.2753 46.9805ZM23.9308 46.8769L24.2939 47.5331C24.4573 47.4427 24.6488 47.3347 24.8678 47.2093L24.4953 46.5584L24.1229 45.9074C23.9079 46.0304 23.723 46.1347 23.5677 46.2206L23.9308 46.8769ZM24.4953 46.5584L24.8678 47.2093C25.0999 47.0765 25.3273 46.9357 25.55 46.7868L25.1333 46.1633L24.7165 45.5397C24.5226 45.6693 24.3248 45.7919 24.1229 45.9074L24.4953 46.5584ZM25.1333 46.1633L25.55 46.7868C25.5455 46.7899 25.5487 46.7847 25.5758 46.7817C25.6073 46.7782 25.6705 46.7782 25.7747 46.8028L25.9471 46.0729L26.1195 45.3429C25.6603 45.2345 25.1547 45.2469 24.7165 45.5397L25.1333 46.1633ZM25.9471 46.0729L25.7747 46.8028C26.2881 46.924 26.8677 46.8559 27.2776 46.3741L26.7064 45.8881L26.1352 45.4021C26.1395 45.397 26.1499 45.3865 26.1668 45.376C26.1838 45.3655 26.1997 45.3597 26.2102 45.3571C26.2292 45.3525 26.2067 45.3636 26.1195 45.3429L25.9471 46.0729ZM26.7064 45.8881L27.2776 46.3741C27.3613 46.2757 27.4507 46.2186 27.555 46.186L27.3312 45.4702L27.1073 44.7543C26.7226 44.8746 26.3955 45.0961 26.1352 45.4021L26.7064 45.8881ZM27.3312 45.4702L27.555 46.186C27.929 46.069 28.2526 45.8603 28.5168 45.5715L27.9634 45.0653L27.41 44.559C27.3203 44.6572 27.2223 44.7184 27.1073 44.7543L27.3312 45.4702ZM27.9634 45.0653L28.5168 45.5715C28.621 45.4576 28.7342 45.3802 28.8603 45.3295L28.5803 44.6337L28.3003 43.9379C27.9578 44.0757 27.6598 44.286 27.41 44.559L27.9634 45.0653ZM28.5803 44.6337L28.8603 45.3295C29.2905 45.1563 29.5996 44.8334 29.8026 44.4387L29.1357 44.0956L28.4687 43.7526C28.3997 43.8868 28.3385 43.9225 28.3003 43.9379L28.5803 44.6337ZM29.1357 44.0956L29.8026 44.4387C29.8029 44.4381 29.7933 44.4569 29.7669 44.4813C29.739 44.5072 29.7035 44.5289 29.6656 44.5422C29.5928 44.5676 29.5719 44.5428 29.654 44.5657L29.8561 43.8435L30.0581 43.1212C29.796 43.0479 29.4829 43.0168 29.17 43.1264C28.8384 43.2425 28.6087 43.4804 28.4687 43.7526L29.1357 44.0956ZM29.8561 43.8435L29.654 44.5657C29.9217 44.6406 30.2505 44.6708 30.5751 44.5369C30.9161 44.3963 31.1281 44.1267 31.2463 43.8471L30.5556 43.555L29.8648 43.2629C29.8615 43.2706 29.8675 43.2533 29.8921 43.2266C29.9187 43.1978 29.9569 43.1693 30.0032 43.1502C30.0946 43.1125 30.1347 43.1426 30.0581 43.1212L29.8561 43.8435ZM30.5556 43.555L31.2463 43.8471C31.2762 43.7765 31.3008 43.7503 31.3066 43.7447C31.3095 43.7419 31.31 43.7419 31.3087 43.7427C31.3073 43.7435 31.3078 43.7428 31.3123 43.7416L31.1124 43.0187L30.9125 42.2959C30.3953 42.4389 30.0551 42.8129 29.8648 43.2629L30.5556 43.555ZM31.1124 43.0187L31.3123 43.7416C31.6096 43.6594 31.8941 43.549 32.1649 43.4098L31.8221 42.7428L31.4793 42.0757C31.3022 42.1667 31.1136 42.2403 30.9125 42.2959L31.1124 43.0187ZM31.8221 42.7428L32.1649 43.4098C32.5687 43.2023 32.8481 42.8639 33.0211 42.4623L32.3324 42.1655L31.6436 41.8686C31.5842 42.0066 31.5233 42.053 31.4793 42.0757L31.8221 42.7428ZM32.3324 42.1655L33.0211 42.4623C33.0304 42.4408 33.0375 42.4304 33.0398 42.4271C33.0419 42.4242 33.0407 42.4266 33.0354 42.4308C33.03 42.4351 33.025 42.4378 33.0225 42.4388C33.0204 42.4397 33.0247 42.4375 33.0385 42.4353L32.92 41.6947L32.8016 40.9541C32.2568 41.0412 31.855 41.3781 31.6436 41.8686L32.3324 42.1655ZM32.92 41.6947L33.0385 42.4353C33.4088 42.3761 33.7551 42.2488 34.0633 42.043L33.6467 41.4193L33.2302 40.7956C33.1205 40.8688 32.9823 40.9252 32.8016 40.9541L32.92 41.6947ZM33.6467 41.4193L34.0633 42.043C34.196 41.9543 34.3582 41.8805 34.558 41.8277L34.3663 41.1026L34.1746 40.3775C33.8329 40.4678 33.5154 40.6051 33.2302 40.7956L33.6467 41.4193ZM34.3663 41.1026L34.558 41.8277C34.8278 41.7563 35.0775 41.6115 35.2685 41.38C35.4543 41.1548 35.5485 40.8916 35.5893 40.6362L34.8487 40.5179L34.1081 40.3996C34.0981 40.4624 34.0864 40.4557 34.1115 40.4254C34.1238 40.4105 34.1391 40.3973 34.1547 40.3876C34.1698 40.3783 34.1783 40.3765 34.1746 40.3775L34.3663 41.1026ZM34.8487 40.5179L35.5893 40.6362C35.6203 40.4422 35.6775 40.3869 35.6941 40.3729L35.2103 39.7998L34.7266 39.2266C34.3627 39.5338 34.1788 39.9573 34.1081 40.3996L34.8487 40.5179ZM35.2103 39.7998L35.6941 40.3729C35.8315 40.2569 35.9923 40.1534 36.18 40.0642L35.8582 39.3867L35.5364 38.7093C35.2408 38.8497 34.9696 39.0215 34.7266 39.2266L35.2103 39.7998ZM35.8582 39.3867L36.18 40.0642C36.4643 39.9291 36.731 39.7697 36.9786 39.5855L36.5311 38.9837L36.0835 38.3819C35.9174 38.5054 35.7354 38.6147 35.5364 38.7093L35.8582 39.3867ZM36.5311 38.9837L36.9786 39.5855C37.2592 39.3768 37.4944 39.1234 37.6802 38.828L37.0454 38.4286L36.4105 38.0293C36.3244 38.1662 36.2167 38.2828 36.0835 38.3819L36.5311 38.9837ZM37.0454 38.4286L37.6802 38.828C37.8564 38.5479 37.9895 38.2435 38.0817 37.9186L37.3602 37.7138L36.6388 37.5089C36.5831 37.7048 36.5063 37.877 36.4105 38.0293L37.0454 38.4286ZM37.3602 37.7138L38.0817 37.9186C38.144 37.6995 38.2208 37.5002 38.3109 37.3192L37.6395 36.9851L36.968 36.6508C36.8337 36.9207 36.7244 37.2072 36.6388 37.5089L37.3602 37.7138ZM37.6395 36.9851L38.3109 37.3192C38.4264 37.0872 38.5381 36.8541 38.646 36.62L37.9648 36.3061L37.2836 35.9923C37.1821 36.2126 37.0769 36.4321 36.968 36.6508L37.6395 36.9851ZM37.9648 36.3061L38.646 36.62C38.6409 36.631 38.6349 36.6327 38.6474 36.6236C38.6645 36.6111 38.7114 36.5833 38.81 36.5568L38.615 35.8325L38.42 35.1083C37.9583 35.2326 37.5119 35.4967 37.2836 35.9923L37.9648 36.3061ZM38.615 35.8325L38.81 36.5568C39.089 36.4816 39.4034 36.321 39.5997 35.9937C39.7956 35.6671 39.7899 35.3146 39.7262 35.0337L38.9948 35.1995L38.2633 35.3653C38.2753 35.4179 38.2441 35.3376 38.3134 35.2221C38.3831 35.1058 38.4698 35.0949 38.42 35.1083L38.615 35.8325ZM38.9948 35.1995L39.7262 35.0337C39.7047 34.9389 39.7108 34.8967 39.7118 34.8914C39.7121 34.8897 39.7112 34.8951 39.7067 34.9042C39.7021 34.9136 39.6965 34.9211 39.6923 34.9257L39.1405 34.4178L38.5887 33.9098C38.1949 34.3376 38.1536 34.8814 38.2633 35.3653L38.9948 35.1995ZM39.1405 34.4178L39.6923 34.9257C39.9175 34.681 40.1001 34.4076 40.2364 34.107L39.5534 33.7972L38.8703 33.4875C38.8017 33.6389 38.7089 33.7792 38.5887 33.9098L39.1405 34.4178ZM39.5534 33.7972L40.2364 34.107C40.306 33.9534 40.4016 33.8062 40.5275 33.6649L39.9677 33.1658L39.4079 32.6668C39.1864 32.9152 39.0057 33.189 38.8703 33.4875L39.5534 33.7972ZM39.9677 33.1658L40.5275 33.6649C40.7968 33.3629 40.9671 33.004 41.0271 32.603L40.2853 32.4921L39.5435 32.3813C39.5275 32.4888 39.4861 32.579 39.4079 32.6668L39.9677 33.1658ZM40.2853 32.4921L41.0271 32.603C41.0407 32.5117 41.0786 32.4265 41.1666 32.3347L40.6251 31.8157L40.0837 31.2967C39.7946 31.5983 39.6059 31.9641 39.5435 32.3813L40.2853 32.4921ZM40.6251 31.8157L41.1666 32.3347C41.4797 32.008 41.6564 31.601 41.6664 31.1431L40.9166 31.1267L40.1667 31.1104C40.1653 31.1777 40.1477 31.23 40.0837 31.2967L40.6251 31.8157ZM40.9166 31.1267L41.6664 31.1431C41.667 31.114 41.6694 31.0718 41.7562 30.9937L41.2543 30.4364L40.7524 29.8791C40.4003 30.1962 40.1776 30.6143 40.1667 31.1104L40.9166 31.1267ZM41.2543 30.4364L41.7562 30.9937C41.9801 30.7921 42.1508 30.5148 42.1832 30.1704C42.214 29.8434 42.111 29.5497 41.9777 29.3144L41.3251 29.684L40.6725 30.0536C40.7114 30.1223 40.6827 30.106 40.6898 30.0298C40.6935 29.9906 40.7056 29.9525 40.7227 29.9209C40.7389 29.891 40.7536 29.878 40.7524 29.8791L41.2543 30.4364ZM41.3251 29.684L41.9777 29.3144C41.9509 29.267 42.0014 29.3306 41.9699 29.4548C41.9389 29.5775 41.8662 29.6072 41.9165 29.5751L41.5126 28.9431L41.1088 28.3111C40.8618 28.469 40.6093 28.7172 40.5158 29.0868C40.4218 29.4579 40.5272 29.797 40.6725 30.0536L41.3251 29.684ZM41.5126 28.9431L41.9165 29.5751C42.3308 29.3104 42.69 28.9072 42.7382 28.3395L41.9909 28.276L41.2436 28.2126C41.244 28.2071 41.2455 28.2006 41.2476 28.195C41.2496 28.1898 41.2503 28.1903 41.2455 28.197C41.2349 28.2118 41.1992 28.2534 41.1088 28.3111L41.5126 28.9431ZM41.9909 28.276L42.7382 28.3395C42.7809 27.8367 42.5791 27.3855 42.2951 27.0112L41.6976 27.4645L41.1001 27.9178C41.2504 28.1159 41.2441 28.2057 41.2436 28.2126L41.9909 28.276ZM41.6976 27.4645L42.2951 27.0112C42.2266 26.9209 42.2073 26.8684 42.203 26.8527C42.2012 26.8462 42.2027 26.8489 42.2027 26.8588C42.2028 26.8692 42.2011 26.8811 42.1978 26.8921L41.4794 26.6767L40.761 26.4612C40.5938 27.0189 40.8056 27.5296 41.1001 27.9178L41.6976 27.4645ZM41.4794 26.6767L42.1978 26.8921C42.255 26.7015 42.3345 26.5062 42.4385 26.3061L41.773 25.9602L41.1076 25.6143C40.9635 25.8914 40.8472 26.1738 40.761 26.4612L41.4794 26.6767ZM41.773 25.9602L42.4385 26.3061C42.5568 26.0785 42.6844 25.8469 42.8213 25.6112L42.1729 25.2344L41.5244 24.8575C41.3763 25.1124 41.2373 25.3647 41.1076 25.6143L41.773 25.9602ZM42.1729 25.2344L42.8213 25.6112C43.083 25.161 43.1146 24.6565 42.8992 24.1772L42.2151 24.4845L41.531 24.7919C41.5384 24.8083 41.5406 24.8178 41.5412 24.8209C41.5418 24.8237 41.5414 24.8231 41.5415 24.8208C41.5417 24.8185 41.542 24.8189 41.5406 24.8234C41.5391 24.8282 41.5349 24.8395 41.5244 24.8575L42.1729 25.2344ZM42.2151 24.4845L42.8992 24.1772C42.8329 24.0296 42.8177 23.9096 42.8285 23.8053L42.0825 23.7277L41.3366 23.6501C41.2954 24.0457 41.3685 24.4304 41.531 24.7919L42.2151 24.4845ZM42.0825 23.7277L42.8285 23.8053C42.8596 23.5066 42.8613 23.2075 42.8337 22.9087L42.0869 22.9777L41.3401 23.0467C41.3587 23.2478 41.3575 23.4487 41.3366 23.6501L42.0825 23.7277ZM42.0869 22.9777L42.8337 22.9087C42.8091 22.6422 42.7756 22.3759 42.7333 22.1098L41.9926 22.2277L41.2519 22.3455C41.2891 22.5794 41.3185 22.8131 41.3401 23.0467L42.0869 22.9777ZM41.9926 22.2277L42.7333 22.1098C42.7126 21.9797 42.7216 21.8479 42.767 21.7052L42.0524 21.4777L41.3377 21.2501C41.2239 21.6074 41.1931 21.9756 41.2519 22.3455L41.9926 22.2277ZM42.0524 21.4777L42.767 21.7052C42.866 21.3943 42.9234 21.0779 42.9362 20.7576L42.1868 20.7277L41.4374 20.6978C41.4302 20.8774 41.398 21.061 41.3377 21.2501L42.0524 21.4777ZM42.1868 20.7277L42.9362 20.7576C42.9436 20.5725 42.9748 20.3843 43.0322 20.1915L42.3133 19.9777L41.5944 19.7638C41.503 20.0711 41.4499 20.3828 41.4374 20.6978L42.1868 20.7277ZM42.3133 19.9777L43.0322 20.1915C43.1774 19.7032 43.0767 19.2299 42.8181 18.8244L42.1857 19.2277L41.5534 19.6309C41.5882 19.6856 41.5959 19.7174 41.5978 19.7284C41.5992 19.7368 41.5998 19.7457 41.5944 19.7638L42.3133 19.9777ZM42.1857 19.2277L42.8181 18.8244C42.8072 18.8073 42.805 18.7999 42.8058 18.8022C42.8068 18.8051 42.8094 18.8147 42.8099 18.829C42.8101 18.8358 42.8098 18.8423 42.8091 18.8483C42.8083 18.8542 42.8073 18.8588 42.8065 18.8617C42.8049 18.8677 42.8049 18.8644 42.8124 18.8513L42.1621 18.4777L41.5118 18.104C41.3814 18.3309 41.3017 18.592 41.3106 18.8763C41.3195 19.1592 41.4147 19.4135 41.5534 19.6309L42.1857 19.2277ZM42.1621 18.4777L42.8124 18.8513C43.0262 18.4793 43.1292 18.064 43.07 17.627L42.3268 17.7277L41.5836 17.8283C41.5921 17.8913 41.5853 17.976 41.5118 18.104L42.1621 18.4777ZM42.3268 17.7277L43.07 17.627C43.0439 17.434 43.0402 17.2421 43.0588 17.0499L42.3123 16.9777L41.5658 16.9055C41.536 17.2133 41.542 17.5213 41.5836 17.8283L42.3268 17.7277ZM42.3123 16.9777L43.0588 17.0499C43.0956 16.669 43.0336 16.2967 42.888 15.9425L42.1944 16.2277L41.5007 16.5129C41.5606 16.6587 41.5773 16.7863 41.5658 16.9055L42.3123 16.9777ZM42.1944 16.2277L42.888 15.9425C42.7773 15.6732 42.6539 15.405 42.518 15.1377L41.8495 15.4777L41.181 15.8176C41.2993 16.0504 41.4058 16.2821 41.5007 16.5129L42.1944 16.2277ZM41.8495 15.4777L42.518 15.1377C42.4373 14.9789 42.4073 14.8431 42.4066 14.7233L41.6567 14.7277L40.9067 14.732C40.9089 15.1122 41.0075 15.4764 41.181 15.8176L41.8495 15.4777ZM41.6567 14.7277L42.4066 14.7233C42.406 14.6144 42.4336 14.4868 42.5165 14.332L41.8555 13.9777L41.1945 13.6233C41.0094 13.9686 40.9044 14.3409 40.9067 14.732L41.6567 14.7277ZM41.8555 13.9777L42.5165 14.332C42.7474 13.9013 42.7913 13.4227 42.6092 12.9553L41.9104 13.2277L41.2116 13.5C41.2227 13.5285 41.2222 13.542 41.2217 13.5479C41.2212 13.5551 41.2183 13.5788 41.1945 13.6233L41.8555 13.9777ZM41.9104 13.2277L42.6092 12.9553C42.5883 12.9017 42.586 12.8642 42.6187 12.7939L41.9386 12.4777L41.2585 12.1614C41.0587 12.5911 41.0376 13.0536 41.2116 13.5L41.9104 13.2277ZM41.9386 12.4777L42.6187 12.7939C42.7996 12.4047 42.8554 11.9849 42.7578 11.5598L42.0269 11.7277L41.2959 11.8955C41.3131 11.9705 41.3101 12.0506 41.2585 12.1614L41.9386 12.4777ZM42.0269 11.7277L42.7578 11.5598C42.7128 11.3636 42.6909 11.1701 42.691 10.9782L41.941 10.9777L41.191 10.9771C41.1908 11.2853 41.2261 11.5917 41.2959 11.8955L42.0269 11.7277ZM41.941 10.9777L42.691 10.9782C42.6912 10.6936 42.6718 10.4094 42.633 10.1258L41.8899 10.2277L41.1468 10.3295C41.1765 10.5459 41.1912 10.7617 41.191 10.9771L41.941 10.9777ZM41.8899 10.2277L42.633 10.1258C42.5906 9.81669 42.5115 9.51189 42.398 9.2122L41.6966 9.47766L40.9951 9.74313C41.0709 9.94344 41.1207 10.1386 41.1468 10.3295L41.8899 10.2277ZM41.6966 9.47766L42.398 9.2122C42.3431 9.06695 42.2794 8.922 42.2035 8.79597C42.145 8.69894 42.006 8.48435 41.7505 8.36751L41.4385 9.04955L41.1266 9.73159C41.074 9.70753 41.0339 9.68052 41.0059 9.65861C40.9779 9.63666 40.958 9.61678 40.9456 9.60328C40.9222 9.57779 40.9142 9.56264 40.9188 9.5703C40.9224 9.57635 40.9317 9.59291 40.9459 9.62368C40.9597 9.65387 40.9763 9.69322 40.9951 9.74313L41.6966 9.47766ZM41.4385 9.04955L41.7505 8.36751C41.7786 8.38034 41.7983 8.39215 41.8086 8.39867C41.8193 8.40549 41.8253 8.41007 41.8261 8.41069C41.827 8.41137 41.8181 8.40444 41.7978 8.38532C41.757 8.34667 41.6959 8.28257 41.6118 8.18569L41.0454 8.67736L40.4791 9.16902C40.5796 9.28486 40.6763 9.38915 40.7666 9.47457C40.8403 9.5444 40.9679 9.659 41.1266 9.73159L41.4385 9.04955ZM41.0454 8.67736L41.6118 8.18569C41.3512 7.88554 41.0323 7.65584 40.6545 7.52733L40.413 8.23739L40.1715 8.94745C40.2676 8.98012 40.3703 9.04373 40.4791 9.16902L41.0454 8.67736ZM40.413 8.23739L40.6545 7.52733C40.4476 7.45697 40.2458 7.37373 40.049 7.27751L39.7196 7.95129L39.3902 8.62508C39.6439 8.74913 39.9044 8.85662 40.1715 8.94745L40.413 8.23739ZM39.7196 7.95129L40.049 7.27751C39.6242 7.06984 39.1678 7.06694 38.736 7.18288L38.9304 7.90724L39.1249 8.63159C39.2947 8.586 39.3644 8.61247 39.3902 8.62508L39.7196 7.95129ZM38.9304 7.90724L38.736 7.18288C38.7188 7.1875 38.7202 7.18485 38.7366 7.18526C38.7545 7.18571 38.7821 7.1897 38.8134 7.2024C38.8446 7.21507 38.8665 7.23119 38.8786 7.24234C38.8896 7.25244 38.8878 7.25405 38.8776 7.23729L38.2356 7.62488L37.5935 8.01248C37.7365 8.24948 37.9482 8.46993 38.2487 8.59205C38.55 8.71446 38.856 8.70375 39.1249 8.63159L38.9304 7.90724ZM38.2356 7.62488L38.8776 7.23729C38.7379 7.00576 38.5351 6.79026 38.2501 6.66212C37.962 6.5326 37.6631 6.52527 37.3919 6.58408L37.5508 7.31705L37.7097 8.05001C37.7231 8.04711 37.7198 8.04956 37.7034 8.04835C37.6858 8.04703 37.6613 8.04201 37.6351 8.03023C37.5783 8.00469 37.5709 7.97501 37.5935 8.01248L38.2356 7.62488ZM37.5508 7.31705L37.3919 6.58408C37.1927 6.62726 37.0491 6.61854 36.9438 6.58971L36.7457 7.31309L36.5477 8.03646C36.9275 8.14047 37.3206 8.13438 37.7097 8.05001L37.5508 7.31705ZM36.7457 7.31309L36.9438 6.58971C36.7737 6.54315 36.6132 6.47235 36.4602 6.3756L36.0593 7.00943L35.6584 7.64327C35.9355 7.81856 36.2326 7.95019 36.5477 8.03646L36.7457 7.31309ZM36.0593 7.00943L36.4602 6.3756C36.3946 6.33411 36.294 6.23862 36.1867 6.0201L35.5135 6.35062L34.8402 6.68113C35.0307 7.069 35.2939 7.41272 35.6584 7.64327L36.0593 7.00943ZM35.5135 6.35062L36.1867 6.0201C35.9813 5.60175 35.6588 5.22835 35.1725 5.06536L34.9341 5.77648L34.6958 6.4876C34.6964 6.48781 34.707 6.49049 34.7291 6.5124C34.7539 6.53698 34.7941 6.58711 34.8402 6.68113L35.5135 6.35062ZM34.9341 5.77648L35.1725 5.06536C34.7389 4.92002 34.2918 4.96208 33.8745 5.10206L34.113 5.81313L34.3515 6.52419C34.5543 6.45618 34.6547 6.47381 34.6958 6.4876L34.9341 5.77648ZM34.113 5.81313L33.8745 5.10206C33.8112 5.12328 33.8129 5.10874 33.8547 5.11786C33.8754 5.12238 33.8962 5.13082 33.9139 5.14167C33.9308 5.15209 33.9375 5.16018 33.9357 5.15807L33.3705 5.65112L32.8053 6.14417C32.9914 6.3574 33.2365 6.51827 33.535 6.58338C33.8243 6.64651 34.1047 6.60697 34.3515 6.52419L34.113 5.81313ZM33.3705 5.65112L33.9357 5.15807C33.7269 4.91879 33.506 4.70053 33.2725 4.50457L32.7904 5.07902L32.3082 5.65347C32.4783 5.79631 32.6442 5.95945 32.8053 6.14417L33.3705 5.65112ZM32.7904 5.07902L33.2725 4.50457C32.9166 4.20577 32.4872 4.07364 32.0305 4.10061L32.0747 4.84931L32.1189 5.598C32.2128 5.59246 32.2605 5.61348 32.3082 5.65347L32.7904 5.07902ZM32.0747 4.84931L32.0305 4.10061C31.8464 4.11148 31.6941 4.0878 31.5642 4.04078L31.3089 4.74599L31.0536 5.4512C31.3941 5.57444 31.7523 5.61965 32.1189 5.598L32.0747 4.84931ZM31.3089 4.74599L31.5642 4.04078C31.2323 3.92061 30.8834 3.87016 30.5249 3.88116L30.5479 4.63081L30.5709 5.38046C30.7568 5.37475 30.9152 5.40108 31.0536 5.4512L31.3089 4.74599ZM30.5479 4.63081L30.5249 3.88116C30.3185 3.8875 30.1325 3.86636 29.9635 3.82225L29.7741 4.54793L29.5847 5.27362C29.903 5.35672 30.2329 5.39083 30.5709 5.38046L30.5479 4.63081ZM29.7741 4.54793L29.9635 3.82225C29.9748 3.8252 29.9858 3.83002 29.9943 3.83527C30.0024 3.84026 30.0033 3.8425 29.9979 3.83671C29.9851 3.823 29.9486 3.77635 29.9056 3.66695L29.2076 3.94126L28.5096 4.21558C28.6892 4.67265 29.0167 5.12538 29.5847 5.27362L29.7741 4.54793ZM29.2076 3.94126L29.9056 3.66695C29.7272 3.21292 29.4064 2.76465 28.8522 2.60502L28.6447 3.32572L28.4371 4.04642C28.411 4.0389 28.4022 4.02608 28.413 4.03791C28.4286 4.055 28.4661 4.10501 28.5096 4.21558L29.2076 3.94126ZM28.6447 3.32572L28.8522 2.60502C28.5559 2.51966 28.2497 2.46798 27.9352 2.44853L27.8889 3.1971L27.8427 3.94567C28.053 3.95868 28.2507 3.99274 28.4371 4.04642L28.6447 3.32572ZM27.8889 3.1971L27.9352 2.44853C27.7779 2.43881 27.6442 2.39916 27.5242 2.33343L27.1638 2.99117L26.8035 3.64892C27.1254 3.82531 27.475 3.92295 27.8427 3.94567L27.8889 3.1971ZM27.1638 2.99117L27.5242 2.33343C27.3349 2.22968 27.1501 2.11076 26.9698 1.97619L26.5211 2.57714L26.0724 3.17809C26.3072 3.35344 26.5509 3.51055 26.8035 3.64892L27.1638 2.99117ZM26.5211 2.57714L26.9698 1.97619C26.6886 1.76622 26.3779 1.61322 26.0407 1.52229L25.8454 2.24641L25.6501 2.97053C25.7988 3.01065 25.9385 3.07813 26.0724 3.17809L26.5211 2.57714ZM25.8454 2.24641L26.0407 1.52229C25.8176 1.46212 25.5983 1.39312 25.3826 1.31531L25.1281 2.02081L24.8736 2.72632C25.1285 2.81825 25.3873 2.89965 25.6501 2.97053L25.8454 2.24641ZM25.1281 2.02081L25.3826 1.31531C25.0879 1.20903 24.7826 1.14053 24.4682 1.10918L24.3938 1.85547L24.3193 2.60177C24.5135 2.62113 24.6977 2.66286 24.8736 2.72632L25.1281 2.02081ZM24.3938 1.85547L24.4682 1.10918C24.3386 1.09625 24.2302 1.08677 24.1495 1.0821C24.1121 1.07993 24.0636 1.07773 24.0163 1.07877C23.9969 1.07919 23.9478 1.08054 23.8896 1.09028C23.8638 1.09461 23.7988 1.10641 23.7219 1.13817C23.6855 1.15324 23.4283 1.25526 23.3088 1.55696L24.0062 1.83304L24.7035 2.10911C24.6399 2.26975 24.5369 2.37007 24.4674 2.42415C24.3977 2.47835 24.3331 2.50865 24.2949 2.52442C24.2205 2.55516 24.1589 2.56607 24.1375 2.56966C24.0882 2.57793 24.0519 2.57835 24.0491 2.57841C24.0351 2.57871 24.0356 2.57802 24.0628 2.57959C24.1113 2.5824 24.1946 2.58934 24.3193 2.60177L24.3938 1.85547ZM24.0062 1.83304L23.3088 1.55696C23.3262 1.51319 23.3446 1.47869 23.3583 1.45527C23.3724 1.4311 23.3857 1.41148 23.396 1.3971C23.4161 1.36914 23.4341 1.34825 23.4447 1.3363C23.4659 1.3126 23.4835 1.29607 23.4902 1.28994C23.4985 1.28221 23.5048 1.2768 23.5075 1.27449C23.5106 1.27188 23.5124 1.27042 23.5125 1.27037C23.5126 1.27023 23.5119 1.2708 23.5101 1.27221C23.5084 1.27359 23.5059 1.2755 23.5026 1.278C23.496 1.28305 23.4872 1.28967 23.4759 1.29806C23.4294 1.33254 23.3558 1.38556 23.252 1.45893L23.6849 2.07138L24.1178 2.68383C24.2241 2.60871 24.309 2.54775 24.3696 2.50278C24.3989 2.48105 24.429 2.45824 24.4551 2.4372C24.467 2.42759 24.4874 2.4108 24.5095 2.3904C24.5198 2.38082 24.5404 2.36137 24.5637 2.33529C24.5675 2.331 24.65 2.2444 24.7035 2.10911L24.0062 1.83304ZM41.0514 24.4971L40.3083 24.5985C40.3125 24.6294 40.3151 24.6858 40.2358 24.7964L40.8453 25.2335L41.4548 25.6705C41.7189 25.3022 41.8589 24.8676 41.7946 24.3957L41.0514 24.4971ZM40.8453 25.2335L40.2358 24.7964C40.0784 25.0159 39.9704 25.2795 39.9608 25.5776C39.9512 25.8735 40.0404 26.1414 40.1744 26.3692L40.8208 25.9888L41.4672 25.6084C41.4561 25.5896 41.4548 25.5826 41.4561 25.5872C41.4577 25.5926 41.4606 25.6065 41.46 25.6262C41.4594 25.6461 41.4553 25.6626 41.4515 25.6733C41.4479 25.683 41.4465 25.6821 41.4548 25.6705L40.8453 25.2335ZM40.8208 25.9888L40.1744 26.3692C40.2793 26.5474 40.3154 26.6884 40.3199 26.7991L41.0693 26.7692L41.8187 26.7393C41.8026 26.3376 41.6731 25.9583 41.4672 25.6084L40.8208 25.9888ZM41.0693 26.7692L40.3199 26.7991C40.3215 26.8392 40.3154 26.8993 40.2285 27.001L40.7987 27.4881L41.369 27.9752C41.6633 27.6307 41.8375 27.2115 41.8187 26.7393L41.0693 26.7692ZM40.7987 27.4881L40.2285 27.001C39.9321 27.348 39.7592 27.7713 39.784 28.2472L40.5329 28.2082L41.2819 28.1693C41.2799 28.1313 41.2843 28.0744 41.369 27.9752L40.7987 27.4881ZM40.5329 28.2082L39.784 28.2472C39.7984 28.5258 39.8253 28.8088 39.8643 29.0961L40.6075 28.9953L41.3507 28.8946C41.317 28.6462 41.2942 28.4045 41.2819 28.1693L40.5329 28.2082ZM40.6075 28.9953L39.8643 29.0961C39.864 29.0943 39.8628 29.0826 39.8659 29.0642C39.869 29.0455 39.8752 29.0284 39.882 29.0156C39.8951 28.9907 39.8963 29.007 39.8329 29.0495L40.2501 29.6727L40.6672 30.296C40.8784 30.1547 41.0764 29.9662 41.2087 29.7155C41.3456 29.456 41.3885 29.1738 41.3507 28.8946L40.6075 28.9953ZM40.2501 29.6727L39.8329 29.0495C39.4468 29.3079 39.1246 29.6787 39.0341 30.1835L39.7723 30.3158L40.5106 30.4481C40.5106 30.448 40.5111 30.4397 40.5267 30.4186C40.5447 30.3944 40.5849 30.3511 40.6672 30.296L40.2501 29.6727ZM39.7723 30.3158L39.0341 30.1835C38.9942 30.4064 38.9444 30.6268 38.8848 30.8447L39.6083 31.0424L40.3318 31.2401C40.4032 30.979 40.4628 30.7149 40.5106 30.4481L39.7723 30.3158ZM39.6083 31.0424L38.8848 30.8447C38.8359 31.0238 38.7655 31.1945 38.6728 31.3579L39.3253 31.7278L39.9778 32.0976C40.1315 31.8264 40.2498 31.5402 40.3318 31.2401L39.6083 31.0424ZM39.3253 31.7278L38.6728 31.3579C38.5567 31.5628 38.435 31.764 38.3076 31.9614L38.9378 32.368L39.568 32.7746C39.711 32.5531 39.8476 32.3274 39.9778 32.0976L39.3253 31.7278ZM38.9378 32.368L38.3076 31.9614C37.9982 32.4409 38.0457 32.9816 38.2092 33.4373L38.9151 33.184L39.621 32.9307C39.5834 32.8258 39.58 32.7689 39.5805 32.7499C39.5807 32.7417 39.5816 32.7427 39.5794 32.75C39.5772 32.7577 39.5732 32.7666 39.568 32.7746L38.9378 32.368ZM38.9151 33.184L38.2092 33.4373C38.2251 33.4817 38.2314 33.5113 38.2338 33.5276C38.236 33.5434 38.2341 33.5435 38.2357 33.5314C38.2375 33.5183 38.2425 33.4981 38.2537 33.4758C38.2648 33.4535 38.2774 33.4385 38.285 33.431L38.8113 33.9653L39.3377 34.4996C39.8073 34.037 39.8002 33.4301 39.621 32.9307L38.9151 33.184ZM38.8113 33.9653L38.285 33.431C38.1549 33.5592 37.9916 33.6781 37.7878 33.7839L38.1335 34.4495L38.4792 35.1151C38.8008 34.9481 39.0894 34.7442 39.3377 34.4996L38.8113 33.9653ZM38.1335 34.4495L37.7878 33.7839C37.3778 33.9969 37.0538 34.3324 36.9101 34.7993L37.6269 35.0199L38.3437 35.2405C38.3501 35.2197 38.3638 35.175 38.4792 35.1151L38.1335 34.4495ZM37.6269 35.0199L36.9101 34.7993C36.8612 34.9582 36.7891 35.0958 36.694 35.2175L37.285 35.6792L37.8761 36.1409C38.0868 35.8712 38.2426 35.5692 38.3437 35.2405L37.6269 35.0199ZM37.285 35.6792L36.694 35.2175C36.4281 35.5579 36.3053 35.9618 36.2845 36.3825L37.0335 36.4196L37.7826 36.4568C37.7913 36.2817 37.8362 36.192 37.8761 36.1409L37.285 35.6792ZM37.0335 36.4196L36.2845 36.3825C36.2771 36.5312 36.2365 36.5867 36.2082 36.6156L36.745 37.1394L37.2818 37.6632C37.6087 37.3282 37.7604 36.9039 37.7826 36.4568L37.0335 36.4196ZM36.745 37.1394L36.2082 36.6156C36.119 36.7071 35.9947 36.7907 35.8152 36.8563L36.0725 37.5607L36.3298 38.2652C36.692 38.1329 37.0159 37.9357 37.2818 37.6632L36.745 37.1394ZM36.0725 37.5607L35.8152 36.8563C35.4706 36.9821 35.1575 37.1579 34.891 37.3931L35.3873 37.9554L35.8836 38.5177C35.9891 38.4245 36.1329 38.3372 36.3298 38.2652L36.0725 37.5607ZM35.3873 37.9554L34.891 37.3931C34.6659 37.5918 34.4634 37.812 34.284 38.0531L34.8857 38.5008L35.4874 38.9485C35.6048 38.7908 35.7366 38.6474 35.8836 38.5177L35.3873 37.9554ZM34.8857 38.5008L34.284 38.0531C34.1423 38.2435 33.9962 38.431 33.8456 38.6156L34.4267 39.0897L35.0078 39.5638C35.1725 39.362 35.3323 39.1569 35.4874 38.9485L34.8857 38.5008ZM34.4267 39.0897L33.8456 38.6156C33.7625 38.7175 33.6587 38.799 33.5238 38.8614L33.8387 39.5421L34.1535 40.2229C34.4874 40.0684 34.7757 39.8484 35.0078 39.5638L34.4267 39.0897ZM33.8387 39.5421L33.5238 38.8614C33.1176 39.0493 32.8186 39.3635 32.6341 39.7632L33.315 40.0776L33.9959 40.392C34.0409 40.2946 34.0911 40.2518 34.1535 40.2229L33.8387 39.5421ZM33.315 40.0776L32.6341 39.7632C32.5469 39.9521 32.4434 40.1119 32.3256 40.2473L32.8916 40.7394L33.4576 41.2315C33.6749 40.9816 33.8536 40.7003 33.9959 40.392L33.315 40.0776ZM32.8916 40.7394L32.3256 40.2473C32.1688 40.4277 32.0062 40.6029 31.8377 40.773L32.3706 41.3007L32.9035 41.8285C33.0948 41.6354 33.2795 41.4364 33.4576 41.2315L32.8916 40.7394ZM32.3706 41.3007L31.8377 40.773C31.7212 40.8907 31.5896 40.9827 31.4395 41.0518L31.7529 41.7331L32.0663 42.4145C32.3802 42.2702 32.6604 42.074 32.9035 41.8285L32.3706 41.3007ZM31.7529 41.7331L31.4395 41.0518C31.1252 41.1963 30.8442 41.3934 30.5991 41.6393L31.1302 42.1688L31.6613 42.6983C31.7826 42.5767 31.9167 42.4833 32.0663 42.4145L31.7529 41.7331ZM31.1302 42.1688L30.5991 41.6393C30.4444 41.7944 30.2818 41.9326 30.1111 42.0546L30.5473 42.6647L30.9836 43.2748C31.2237 43.1031 31.4496 42.9107 31.6613 42.6983L31.1302 42.1688ZM30.5473 42.6647L30.1111 42.0546C29.9888 42.1421 29.8501 42.2053 29.688 42.2428L29.8574 42.9735L30.0267 43.7041C30.3739 43.6236 30.6952 43.481 30.9836 43.2748L30.5473 42.6647ZM29.8574 42.9735L29.688 42.2428C29.4224 42.3044 29.1597 42.3716 28.9001 42.4446L29.1029 43.1666L29.3057 43.8887C29.5429 43.8221 29.7832 43.7605 30.0267 43.7041L29.8574 42.9735ZM29.1029 43.1666L28.9001 42.4446C28.5829 42.5336 28.2852 42.6656 28.0103 42.8412L28.414 43.4733L28.8177 44.1054C28.9645 44.0116 29.1261 43.9391 29.3057 43.8887L29.1029 43.1666ZM28.414 43.4733L28.0103 42.8412C27.889 42.9187 27.7475 42.9745 27.5769 43.0037L27.7036 43.7429L27.8303 44.4821C28.1851 44.4213 28.5171 44.2974 28.8177 44.1054L28.414 43.4733ZM27.7036 43.7429L27.5769 43.0037C27.2522 43.0594 26.9425 43.1542 26.6508 43.2907L26.9687 43.97L27.2866 44.6493C27.4495 44.5731 27.6297 44.5165 27.8303 44.4821L27.7036 43.7429ZM26.9687 43.97L26.6508 43.2907C26.2459 43.4802 25.9535 43.8008 25.7567 44.1855L26.4243 44.5271L27.092 44.8688C27.1664 44.7233 27.237 44.6725 27.2866 44.6493L26.9687 43.97ZM26.4243 44.5271L25.7567 44.1855C25.7308 44.236 25.7142 44.2464 25.7181 44.2434C25.7195 44.2424 25.7216 44.2411 25.7231 44.2405C25.7244 44.24 25.721 44.2416 25.7107 44.2432L25.8225 44.9848L25.9343 45.7264C26.4674 45.6461 26.8602 45.3218 27.092 44.8688L26.4243 44.5271ZM25.8225 44.9848L25.7107 44.2432C25.3087 44.3038 24.9438 44.4683 24.6388 44.7409L25.1386 45.3001L25.6383 45.8594C25.7142 45.7916 25.8053 45.7459 25.9343 45.7264L25.8225 44.9848ZM25.1386 45.3001L24.6388 44.7409C24.513 44.8533 24.3754 44.9384 24.2231 44.9992L24.501 45.6958L24.7789 46.3924C25.0958 46.266 25.3833 46.0873 25.6383 45.8594L25.1386 45.3001ZM24.501 45.6958L24.2231 44.9992C24.0746 45.0584 24.0115 45.0493 24.0062 45.0483L23.8729 45.7864L23.7397 46.5244C24.1024 46.5899 24.4581 46.5204 24.7789 46.3924L24.501 45.6958ZM23.8729 45.7864L24.0062 45.0483C24.0001 45.0472 23.9353 45.0328 23.8121 44.9223L23.3115 45.4808L22.8109 46.0393C23.0681 46.2698 23.3776 46.4591 23.7397 46.5244L23.8729 45.7864ZM23.3115 45.4808L23.8121 44.9223C23.5947 44.7275 23.3656 44.5506 23.1247 44.392L22.7124 45.0185L22.3 45.645C22.4775 45.7618 22.6478 45.8931 22.8109 46.0393L23.3115 45.4808ZM22.7124 45.0185L23.1247 44.392C22.7665 44.1563 22.3583 44.0628 21.9387 44.074L21.9588 44.8238L21.9789 45.5735C22.1457 45.569 22.2398 45.6054 22.3 45.645L22.7124 45.0185ZM21.9588 44.8238L21.9387 44.074C21.8209 44.0772 21.7917 44.0481 21.7742 44.0306L21.2443 44.5613L20.7144 45.0921C21.0631 45.4402 21.5102 45.5861 21.9789 45.5735L21.9588 44.8238ZM21.2443 44.5613L21.7742 44.0306C21.5763 43.833 21.372 43.6455 21.1612 43.468L20.6782 44.0418L20.1952 44.6155C20.3729 44.7651 20.546 44.924 20.7144 45.0921L21.2443 44.5613ZM20.6782 44.0418L21.1612 43.468C20.8602 43.2146 20.5077 43.0562 20.121 42.9893L19.9931 43.7284L19.8653 44.4674C20.0035 44.4913 20.1077 44.5418 20.1952 44.6155L20.6782 44.0418ZM19.9931 43.7284L20.121 42.9893C19.8887 42.9492 19.6659 42.896 19.4524 42.8303L19.2318 43.5471L19.0111 44.2639C19.2878 44.3491 19.5727 44.4168 19.8653 44.4674L19.9931 43.7284ZM19.2318 43.5471L19.4524 42.8303C19.4407 42.8267 19.4339 42.8228 19.4244 42.8138C19.4124 42.8024 19.3854 42.772 19.3539 42.7032L18.6723 43.0161L17.9907 43.3291C18.1887 43.7604 18.5221 44.1134 19.0111 44.2639L19.2318 43.5471ZM18.6723 43.0161L19.3539 42.7032C19.1418 42.2412 18.7639 41.8873 18.2212 41.7896L18.0883 42.5277L17.9553 43.2658C17.962 43.267 17.9621 43.2678 17.9583 43.266C17.9544 43.2642 17.9509 43.2619 17.9492 43.2605C17.9452 43.2571 17.9637 43.2704 17.9907 43.3291L18.6723 43.0161ZM18.0883 42.5277L18.2212 41.7896C18.1258 41.7724 18.0627 41.7354 18.0042 41.668L17.4379 42.1597L16.8716 42.6514C17.1573 42.9805 17.5277 43.1888 17.9553 43.2658L18.0883 42.5277ZM17.4379 42.1597L18.0042 41.668C17.6584 41.2698 17.1858 41.1117 16.6953 41.1301L16.7234 41.8795L16.7515 42.629C16.8198 42.6264 16.8498 42.6367 16.8564 42.6392C16.8599 42.6406 16.8613 42.6416 16.8619 42.642C16.8626 42.6425 16.8659 42.6449 16.8716 42.6514L17.4379 42.1597ZM16.7234 41.8795L16.6953 41.1301C16.6268 41.1326 16.5973 41.1223 16.5917 41.1202C16.59 41.1195 16.589 41.119 16.5887 41.1188C16.5884 41.1186 16.5882 41.1185 16.588 41.1184C16.588 41.1184 16.5854 41.1166 16.5804 41.1108L16.0118 41.5998L15.4432 42.0889C15.788 42.4898 16.2617 42.6474 16.7515 42.629L16.7234 41.8795ZM16.0118 41.5998L16.5804 41.1108C16.4875 41.0027 16.4013 40.8521 16.335 40.6399L15.6191 40.8638L14.9033 41.0876C15.0201 41.4611 15.1957 41.8012 15.4432 42.0889L16.0118 41.5998ZM15.6191 40.8638L16.335 40.6399C16.1721 40.119 15.7945 39.7223 15.2209 39.6071L15.0732 40.3424L14.9255 41.0777C14.9339 41.0794 14.9319 41.08 14.9236 41.0759C14.9196 41.0738 14.9149 41.0711 14.9098 41.0675C14.9047 41.064 14.9001 41.0601 14.896 41.0562C14.8875 41.0481 14.8849 41.0431 14.8865 41.0458C14.8884 41.049 14.8952 41.0615 14.9033 41.0876L15.6191 40.8638ZM15.0732 40.3424L15.2209 39.6071C15.1061 39.5841 15.0567 39.5437 15.0221 39.4993L14.4307 39.9606L13.8394 40.4219C14.1165 40.7772 14.4954 40.9914 14.9255 41.0777L15.0732 40.3424ZM14.4307 39.9606L15.0221 39.4993C14.7421 39.1404 14.3571 38.9282 13.9273 38.8364L13.7706 39.5698L13.6138 40.3032C13.7525 40.3329 13.8077 40.3813 13.8394 40.4219L14.4307 39.9606ZM13.7706 39.5698L13.9273 38.8364C13.9031 38.8312 13.8892 38.8258 13.8829 38.823C13.877 38.8203 13.8768 38.8194 13.8796 38.8217C13.8825 38.824 13.8847 38.8265 13.8855 38.8275C13.886 38.8283 13.8829 38.8244 13.878 38.8127L13.1865 39.103L12.4949 39.3933C12.7027 39.8882 13.1094 40.1954 13.6138 40.3032L13.7706 39.5698ZM13.1865 39.103L13.878 38.8127C13.783 38.5865 13.6993 38.3537 13.6268 38.1143L12.909 38.3316L12.1911 38.549C12.2784 38.8372 12.3796 39.1186 12.4949 39.3933L13.1865 39.103ZM12.909 38.3316L13.6268 38.1143C13.5483 37.855 13.4029 37.6188 13.1824 37.4357C12.9667 37.2565 12.7156 37.1582 12.4668 37.1105L12.3255 37.847L12.1843 38.5836C12.2143 38.5894 12.2298 38.5954 12.2347 38.5975C12.239 38.5994 12.2338 38.5977 12.224 38.5896C12.2138 38.5811 12.2044 38.5704 12.1973 38.5595C12.1906 38.549 12.1896 38.5439 12.1911 38.549L12.909 38.3316ZM12.3255 37.847L12.4668 37.1105C12.3881 37.0954 12.3536 37.0759 12.3439 37.0696C12.3392 37.0664 12.3382 37.0651 12.3389 37.0659C12.3397 37.0667 12.3391 37.0665 12.3374 37.0633L11.6788 37.4221L11.0202 37.7809C11.2743 38.2473 11.7113 38.4929 12.1843 38.5836L12.3255 37.847ZM11.6788 37.4221L12.3374 37.0633C12.2262 36.8592 12.1242 36.6499 12.0314 36.4355L11.3431 36.7334L10.6548 37.0314C10.7655 37.2871 10.8873 37.5369 11.0202 37.7809L11.6788 37.4221ZM11.3431 36.7334L12.0314 36.4355C11.9095 36.1539 11.7612 35.8893 11.5861 35.6432L10.975 36.0779L10.3639 36.5127C10.4761 36.6704 10.5732 36.8429 10.6548 37.0314L11.3431 36.7334ZM10.975 36.0779L11.5861 35.6432C11.4579 35.4628 11.3394 35.2761 11.2308 35.083L10.5771 35.4507L9.92342 35.8184C10.058 36.0577 10.2048 36.2891 10.3639 36.5127L10.975 36.0779ZM10.5771 35.4507L11.2308 35.083C11.1103 34.8687 10.9909 34.6543 10.8727 34.4396L10.2157 34.8014L9.55877 35.1633C9.67915 35.3818 9.8007 35.6002 9.92342 35.8184L10.5771 35.4507ZM10.2157 34.8014L10.8727 34.4396C10.7798 34.2709 10.7049 34.0917 10.6482 33.9008L9.9292 34.1144L9.21024 34.3279C9.29697 34.6199 9.41307 34.8987 9.55877 35.1633L10.2157 34.8014ZM9.9292 34.1144L10.6482 33.9008C10.5585 33.5991 10.433 33.314 10.271 33.0474L9.63001 33.4367L8.989 33.8261C9.08254 33.9801 9.15642 34.1467 9.21024 34.3279L9.9292 34.1144ZM9.63001 33.4367L10.271 33.0474C10.0721 32.7198 9.79203 32.4576 9.46335 32.2501L9.06301 32.8843L8.66267 33.5185C8.8345 33.627 8.93246 33.733 8.989 33.8261L9.63001 33.4367ZM9.06301 32.8843L9.46335 32.2501C9.44638 32.2394 9.44233 32.2343 9.4453 32.2374C9.4488 32.2411 9.45696 32.2509 9.46483 32.2667C9.47279 32.2828 9.47682 32.2976 9.47841 32.3078C9.47988 32.3173 9.47842 32.3172 9.47981 32.3045L8.7343 32.2226L7.98879 32.1407C7.96006 32.4021 7.99327 32.676 8.12145 32.9341C8.24874 33.1903 8.44482 33.381 8.66267 33.5185L9.06301 32.8843ZM8.7343 32.2226L9.47981 32.3045C9.51048 32.0253 9.46527 31.7375 9.31532 31.4735C9.1693 31.2165 8.9535 31.0337 8.72601 30.9049L8.35652 31.5575L7.98703 32.2102C8.04251 32.2416 8.03115 32.2498 8.01106 32.2144C8.00127 32.1972 7.99441 32.1779 7.99107 32.1602C7.98789 32.1432 7.98936 32.1354 7.98879 32.1407L8.7343 32.2226ZM8.35652 31.5575L8.72601 30.9049C8.656 30.8652 8.63964 30.8403 8.64227 30.844C8.64378 30.8461 8.64747 30.8521 8.65062 30.8609C8.65207 30.865 8.65304 30.8687 8.65364 30.8716C8.65423 30.8746 8.65433 30.8761 8.65432 30.876L7.90598 30.9259L7.15765 30.9757C7.19601 31.5512 7.54527 31.9601 7.98703 32.2102L8.35652 31.5575ZM7.90598 30.9259L8.65432 30.876C8.63436 30.5766 8.59171 30.2837 8.52569 29.9978L7.79493 30.1666L7.06417 30.3354C7.11144 30.54 7.14282 30.7533 7.15765 30.9757L7.90598 30.9259ZM7.79493 30.1666L8.52569 29.9978C8.48651 29.8282 8.47222 29.6488 8.48557 29.4569L7.73738 29.4049L6.98919 29.3528C6.966 29.686 6.99007 30.0145 7.06417 30.3354L7.79493 30.1666ZM7.73738 29.4049L8.48557 29.4569C8.51312 29.0611 8.43715 28.6785 8.25555 28.325L7.58842 28.6677L6.9213 29.0104C6.97486 29.1146 6.9982 29.2235 6.98919 29.3528L7.73738 29.4049ZM7.58842 28.6677L8.25555 28.325C8.15539 28.13 8.07196 27.9312 8.00484 27.7283L7.2928 27.9639L6.58075 28.1994C6.67264 28.4772 6.78629 28.7476 6.9213 29.0104L7.58842 28.6677ZM7.2928 27.9639L8.00484 27.7283C7.92142 27.4762 7.83098 27.2239 7.73355 26.9715L7.03386 27.2415L6.33417 27.5116C6.42299 27.7417 6.50517 27.971 6.58075 28.1994L7.2928 27.9639ZM7.03386 27.2415L7.73355 26.9715C7.66763 26.8007 7.63037 26.6292 7.61979 26.4546L6.87117 26.5L6.12254 26.5454C6.14264 26.877 6.21384 27.1998 6.33417 27.5116L7.03386 27.2415ZM6.87117 26.5L7.61979 26.4546C7.60074 26.1403 7.54353 25.8303 7.44952 25.526L6.73292 25.7473L6.01632 25.9686C6.07597 26.1617 6.11092 26.3536 6.12254 26.5454L6.87117 26.5ZM6.73292 25.7473L7.44952 25.526C7.45056 25.5293 7.45237 25.5373 7.45254 25.5479C7.45271 25.5584 7.45115 25.5651 7.45092 25.566C7.45083 25.5663 7.46054 25.5311 7.51827 25.4611L6.93976 24.9838L6.36124 24.5065C6.03921 24.8968 5.84321 25.4081 6.01632 25.9686L6.73292 25.7473ZM6.93976 24.9838L7.51827 25.4611C7.79851 25.1215 8.00563 24.7205 8.03252 24.2658L7.28383 24.2215L6.53514 24.1773C6.53271 24.2184 6.51044 24.3257 6.36124 24.5065L6.93976 24.9838ZM7.28383 24.2215L8.03252 24.2658C8.05112 23.9514 8.02805 23.6374 7.96478 23.3256L7.22976 23.4747L6.49473 23.6238C6.53289 23.8119 6.54587 23.9959 6.53514 24.1773L7.28383 24.2215ZM7.22976 23.4747L7.96478 23.3256C7.90537 23.0326 7.8199 22.7425 7.70952 22.4555L7.00949 22.7247L6.30946 22.9938C6.39134 23.2068 6.45272 23.4167 6.49473 23.6238L7.22976 23.4747ZM7.00949 22.7247L7.70952 22.4555C7.63431 22.2599 7.58737 22.0704 7.56544 21.8861L6.82069 21.9747L6.07594 22.0632C6.11348 22.3789 6.1924 22.6894 6.30946 22.9938L7.00949 22.7247ZM6.82069 21.9747L7.56544 21.8861C7.54637 21.7257 7.55553 21.5647 7.59513 21.3989L6.86564 21.2247L6.13615 21.0505C6.05635 21.3846 6.03554 21.7236 6.07594 22.0632L6.82069 21.9747ZM6.86564 21.2247L7.59513 21.3989C7.6679 21.0941 7.70538 20.7864 7.70632 20.4769L6.95632 20.4747L6.20633 20.4724C6.20575 20.6629 6.18278 20.8552 6.13615 21.0505L6.86564 21.2247ZM6.95632 20.4747L7.70632 20.4769C7.70731 20.149 7.6578 19.8248 7.56112 19.5066L6.84352 19.7247L6.12591 19.9427C6.18116 20.1245 6.20685 20.3003 6.20633 20.4724L6.95632 20.4747ZM6.84352 19.7247L7.56112 19.5066C7.49476 19.2882 7.4446 19.0714 7.41016 18.8562L6.66958 18.9747L5.929 19.0931C5.97455 19.3779 6.04035 19.6611 6.12591 19.9427L6.84352 19.7247ZM6.66958 18.9747L7.41016 18.8562C7.40867 18.8468 7.39628 18.795 7.48936 18.6681L6.88446 18.2247L6.27956 17.7813C6.00615 18.1543 5.8505 18.6025 5.929 19.0931L6.66958 18.9747ZM6.88446 18.2247L7.48936 18.6681C7.64867 18.4507 7.76738 18.1834 7.77782 17.875C7.78835 17.5644 7.68638 17.2878 7.53431 17.0592L6.90987 17.4747L6.28542 17.8901C6.29354 17.9023 6.29091 17.9015 6.28663 17.8879C6.28197 17.8732 6.27778 17.8509 6.27868 17.8243C6.27958 17.7979 6.2851 17.7784 6.28884 17.7686C6.29217 17.76 6.292 17.7643 6.27956 17.7813L6.88446 18.2247ZM6.90987 17.4747L7.53431 17.0592C7.52481 17.045 7.52562 17.0426 7.52875 17.052C7.53219 17.0625 7.53618 17.0806 7.53606 17.1034C7.53595 17.1263 7.5318 17.1439 7.52848 17.1537C7.52549 17.1625 7.52507 17.1594 7.53518 17.1444L6.91363 16.7247L6.29209 16.3049C6.14205 16.5271 6.0376 16.7943 6.03608 17.0959C6.03457 17.3978 6.13654 17.6663 6.28542 17.8901L6.90987 17.4747ZM6.91363 16.7247L7.53518 17.1444C7.68987 16.9153 7.79445 16.6363 7.78278 16.3218C7.7712 16.01 7.64826 15.7414 7.48591 15.5248L6.88579 15.9747L6.28566 16.4245C6.29858 16.4417 6.29863 16.4459 6.29499 16.4367C6.29089 16.4263 6.28485 16.4056 6.28381 16.3775C6.28276 16.3491 6.28724 16.3252 6.29235 16.3092C6.29707 16.2944 6.30018 16.2929 6.29209 16.3049L6.91363 16.7247ZM6.88579 15.9747L7.48591 15.5248C7.36722 15.3665 7.34275 15.2602 7.34044 15.1972L6.59094 15.2247L5.84145 15.2522C5.85748 15.6891 6.02957 16.0828 6.28566 16.4245L6.88579 15.9747ZM6.59094 15.2247L7.34044 15.1972C7.341 15.2123 7.33557 15.2115 7.34855 15.1856C7.36379 15.1552 7.40156 15.0971 7.48689 15.015L6.96675 14.4747L6.44662 13.9343C6.10243 14.2656 5.82151 14.7087 5.84145 15.2522L6.59094 15.2247ZM6.96675 14.4747L7.48689 15.015C7.67452 14.8344 7.84653 14.6075 7.93586 14.328C8.03029 14.0326 8.01568 13.7285 7.90295 13.4464L7.20649 13.7247L6.51002 14.0029C6.50577 13.9923 6.49945 13.971 6.49829 13.9421C6.49712 13.9129 6.50172 13.8881 6.50708 13.8713C6.51203 13.8558 6.51542 13.8539 6.50741 13.8657C6.49912 13.8779 6.48102 13.9012 6.44662 13.9343L6.96675 14.4747ZM7.20649 13.7247L7.90295 13.4464C7.82913 13.2616 7.78845 13.0857 7.77536 12.9167L7.0276 12.9747L6.27984 13.0326C6.30548 13.3636 6.38406 13.6877 6.51002 14.0029L7.20649 13.7247ZM7.0276 12.9747L7.77536 12.9167C7.76686 12.807 7.78551 12.6848 7.8527 12.5395L7.17198 12.2247L6.49125 11.9098C6.3272 12.2646 6.24961 12.6423 6.27984 13.0326L7.0276 12.9747ZM7.17198 12.2247L7.8527 12.5395C7.97203 12.2815 8.01537 11.994 7.9552 11.6995C7.89711 11.4152 7.75342 11.1762 7.58428 10.982L7.01875 11.4747L6.45322 11.9673C6.50184 12.0231 6.49257 12.0341 6.48556 11.9998C6.48199 11.9823 6.48096 11.9616 6.4836 11.9411C6.48484 11.9316 6.48665 11.9238 6.48832 11.9182C6.48997 11.9126 6.49127 11.9098 6.49125 11.9098L7.17198 12.2247ZM7.01875 11.4747L7.58428 10.982C7.43921 10.8155 7.41713 10.7142 7.41425 10.6727L6.66605 10.7247L5.91785 10.7766C5.9497 11.2351 6.16275 11.6338 6.45322 11.9673L7.01875 11.4747ZM6.66605 10.7247L7.41425 10.6727C7.4122 10.6432 7.4196 10.6693 7.3955 10.7206C7.38364 10.7459 7.36741 10.7699 7.34838 10.7903C7.32973 10.8103 7.31319 10.8218 7.30443 10.827L6.92084 10.1825L6.53724 9.53803C6.32721 9.66304 6.14991 9.84437 6.03794 10.0826C5.92891 10.3146 5.90253 10.5561 5.91785 10.7766L6.66605 10.7247ZM6.92084 10.1825L7.30443 10.827C7.49559 10.7132 7.70071 10.5887 7.91966 10.4536L7.5258 9.81534L7.13194 9.17708C6.91872 9.30866 6.72052 9.42894 6.53724 9.53803L6.92084 10.1825ZM7.5258 9.81534L7.91966 10.4536C8.07944 10.355 8.24659 10.2805 8.42251 10.2289L8.21126 9.50926L8.00001 8.78962C7.69416 8.87941 7.40434 9.00899 7.13194 9.17708L7.5258 9.81534ZM8.21126 9.50926L8.42251 10.2289C8.8064 10.1162 9.13472 9.89999 9.40524 9.60815L8.8552 9.09829L8.30515 8.58844C8.19885 8.70312 8.09789 8.76089 8.00001 8.78962L8.21126 9.50926ZM8.8552 9.09829L9.40524 9.60815C9.49566 9.5106 9.57606 9.47232 9.6553 9.45693L9.51234 8.72068L9.36938 7.98443C8.94925 8.06601 8.59155 8.27947 8.30515 8.58844L8.8552 9.09829ZM9.51234 8.72068L9.6553 9.45693C10.0452 9.38123 10.3917 9.20266 10.6859 8.93785L10.1842 8.38035L9.68255 7.82285C9.58031 7.91485 9.47887 7.96317 9.36938 7.98443L9.51234 8.72068ZM10.1842 8.38035L10.6859 8.93785C10.7433 8.8862 10.7957 8.86511 10.8805 8.86574L10.8861 8.11576L10.8917 7.36578C10.4372 7.36239 10.0217 7.51768 9.68255 7.82285L10.1842 8.38035ZM10.8861 8.11576L10.8805 8.86574C11.3336 8.86912 11.7483 8.71551 12.0879 8.41275L11.5887 7.85298L11.0896 7.2932C11.0317 7.34485 10.978 7.36642 10.8917 7.36578L10.8861 8.11576ZM11.5887 7.85298L12.0879 8.41275C12.1292 8.37594 12.1657 8.35818 12.2499 8.36398L12.3015 7.61576L12.353 6.86753C11.8843 6.83522 11.4458 6.97561 11.0896 7.2932L11.5887 7.85298ZM12.3015 7.61576L12.2499 8.36398C12.5916 8.38753 12.9261 8.36592 13.25 8.29368L13.0867 7.56167L12.9234 6.82966C12.7531 6.86764 12.5642 6.88209 12.353 6.86753L12.3015 7.61576ZM13.0867 7.56167L13.25 8.29368C13.6756 8.19873 14.0287 7.96479 14.3043 7.6395L13.7322 7.15462L13.16 6.66974C13.0691 6.77696 12.9919 6.81439 12.9234 6.82966L13.0867 7.56167ZM13.7322 7.15462L14.3043 7.6395C14.3358 7.60232 14.3552 7.59257 14.3596 7.59049C14.363 7.58889 14.3742 7.58354 14.4051 7.58382L14.4118 6.83385L14.4185 6.08388C13.9133 6.07936 13.4789 6.29337 13.16 6.66974L13.7322 7.15462ZM14.4118 6.83385L14.4051 7.58382C14.9821 7.58898 15.4239 7.28137 15.7004 6.83411L15.0624 6.43975L14.4245 6.04539C14.3908 6.0998 14.3745 6.10397 14.3883 6.09565C14.3948 6.0917 14.4034 6.08792 14.4122 6.08559C14.4207 6.08334 14.4237 6.08393 14.4185 6.08388L14.4118 6.83385ZM15.0624 6.43975L15.7004 6.83411C15.7105 6.81764 15.7127 6.81862 15.7026 6.82775C15.6915 6.83784 15.6712 6.85268 15.6423 6.86449C15.6132 6.87633 15.5876 6.88022 15.5709 6.88079C15.5557 6.88131 15.5548 6.87888 15.5716 6.88317L15.7569 6.15643L15.9422 5.42969C15.6742 5.36133 15.3721 5.35469 15.0757 5.47562C14.78 5.59623 14.569 5.81152 14.4245 6.04539L15.0624 6.43975ZM15.7569 6.15643L15.5716 6.88317C15.8203 6.94661 16.0934 6.9615 16.3678 6.88337C16.6466 6.80398 16.8745 6.64336 17.0501 6.4395L16.4818 5.95004L15.9136 5.46057C15.9076 5.46745 15.9086 5.46466 15.9181 5.45836C15.9282 5.45168 15.9418 5.44503 15.9571 5.4407C15.9719 5.43647 15.981 5.4365 15.9808 5.4365C15.9799 5.43649 15.9677 5.43618 15.9422 5.42969L15.7569 6.15643ZM16.4818 5.95004L17.0501 6.4395C17.0579 6.4304 17.0596 6.43055 17.0537 6.43458C17.0509 6.43652 17.0468 6.43898 17.0417 6.44151C17.0365 6.44404 17.031 6.44624 17.0254 6.44799C17.0199 6.44974 17.0152 6.45078 17.0116 6.45136C17.0081 6.45193 17.0064 6.45194 17.0069 6.45193C17.0079 6.45191 17.019 6.45177 17.0422 6.45671L17.1987 5.72322L17.3551 4.98973C17.1065 4.93667 16.8387 4.93379 16.5729 5.01787C16.3045 5.1028 16.0847 5.26182 15.9136 5.46057L16.4818 5.95004ZM17.1987 5.72322L17.0422 6.45671C17.3302 6.51815 17.6494 6.49969 17.947 6.33534C18.2337 6.17698 18.4181 5.92839 18.5363 5.68316L17.8606 5.35765L17.1849 5.03215C17.1554 5.09328 17.1557 5.05881 17.2218 5.02229C17.2546 5.00418 17.2893 4.99401 17.3195 4.99054C17.3478 4.98728 17.3615 4.99107 17.3551 4.98973L17.1987 5.72322ZM17.8606 5.35765L18.5363 5.68316C18.6346 5.47906 18.7139 5.43719 18.7306 5.42973L18.4247 4.74498L18.1187 4.06022C17.6785 4.25693 17.3817 4.62351 17.1849 5.03215L17.8606 5.35765ZM18.4247 4.74498L18.7306 5.42973C18.9038 5.35234 19.0863 5.29561 19.2795 5.2599L19.1432 4.52239L19.0069 3.78489C18.6989 3.8418 18.4024 3.93346 18.1187 4.06022L18.4247 4.74498ZM19.1432 4.52239L19.2795 5.2599C19.4355 5.23107 19.6176 5.22789 19.832 5.26183L19.9493 4.52106L20.0666 3.78029C19.7072 3.72339 19.352 3.7211 19.0069 3.78489L19.1432 4.52239ZM19.9493 4.52106L19.832 5.26183C20.2679 5.33084 20.7049 5.26929 21.0953 5.03077L20.7043 4.39077L20.3133 3.75076C20.2707 3.7768 20.2044 3.80211 20.0666 3.78029L19.9493 4.52106ZM20.7043 4.39077L21.0953 5.03077C21.223 4.9528 21.3607 4.90324 21.5152 4.88161L21.4112 4.13886L21.3073 3.3961C20.9522 3.4458 20.6187 3.56418 20.3133 3.75076L20.7043 4.39077ZM21.4112 4.13886L21.5152 4.88161C21.8124 4.84 22.102 4.77359 22.3831 4.68189L22.1506 3.96886L21.918 3.25583C21.7229 3.31946 21.5195 3.36638 21.3073 3.3961L21.4112 4.13886ZM22.1506 3.96886L22.3831 4.68189C22.7963 4.54713 23.1247 4.27924 23.3748 3.93718L22.7694 3.49451L22.164 3.05184C22.0652 3.18691 21.9811 3.23526 21.918 3.25583L22.1506 3.96886ZM22.7694 3.49451L23.3748 3.93718C23.5237 3.73358 23.6777 3.56 23.8358 3.41362L23.3262 2.86335L22.8166 2.31308C22.5811 2.53112 22.364 2.77831 22.164 3.05184L22.7694 3.49451ZM23.3262 2.86335L23.8358 3.41362C23.8236 3.42493 23.7875 3.45443 23.7253 3.47601C23.6595 3.49882 23.5903 3.50376 23.5289 3.49423C23.4215 3.47757 23.4053 3.42938 23.4811 3.50386L24.0068 2.96896L24.5325 2.43405C24.3513 2.25592 24.0932 2.06383 23.7589 2.01197C23.3795 1.95311 23.0514 2.09564 22.8166 2.31308L23.3262 2.86335ZM24.0068 2.96896L23.4811 3.50386C23.8497 3.86607 24.3284 4.10857 24.8906 4.0501L24.813 3.30413L24.7354 2.55815C24.7237 2.55937 24.7118 2.55914 24.6891 2.54967C24.6617 2.53829 24.6084 2.50859 24.5325 2.43405L24.0068 2.96896ZM24.813 3.30413L24.8906 4.0501C25.0343 4.03516 25.124 4.06101 25.1917 4.09954L25.5628 3.44779L25.9339 2.79604C25.5627 2.58469 25.1526 2.51477 24.7354 2.55815L24.813 3.30413ZM25.5628 3.44779L25.1917 4.09954C25.4609 4.25287 25.7443 4.37361 26.0407 4.4611L26.253 3.74178L26.4653 3.02245C26.2803 2.96783 26.1034 2.89258 25.9339 2.79604L25.5628 3.44779ZM26.253 3.74178L26.0407 4.4611C26.3414 4.54986 26.6527 4.60117 26.9729 4.61694L27.0097 3.86784L27.0466 3.11875C26.8393 3.10854 26.6461 3.07581 26.4653 3.02245L26.253 3.74178ZM27.0097 3.86784L26.9729 4.61694C26.9652 4.61656 26.9502 4.61453 26.9317 4.60755C26.9131 4.60054 26.8995 4.59173 26.8919 4.58563C26.8849 4.58009 26.8875 4.5804 26.897 4.59339C26.9067 4.60672 26.9223 4.63139 26.941 4.67198L27.6222 4.35829L28.3035 4.04461C28.0842 3.56843 27.6777 3.14983 27.0466 3.11875L27.0097 3.86784ZM27.6222 4.35829L26.941 4.67198C27.0663 4.94418 27.2923 5.23951 27.6761 5.36502C28.0483 5.48673 28.4002 5.39244 28.6595 5.26863L28.3364 4.59182L28.0133 3.915C27.941 3.94949 28.0081 3.89544 28.1423 3.9393C28.2881 3.98697 28.3227 4.08639 28.3035 4.04461L27.6222 4.35829ZM28.3364 4.59182L28.6595 5.26863C28.7069 5.24604 28.7404 5.23477 28.7611 5.2294C28.7816 5.22411 28.7859 5.22548 28.7771 5.22538C28.7671 5.22526 28.7475 5.22331 28.7233 5.21467C28.6988 5.20597 28.6799 5.19418 28.6682 5.18467L29.1393 4.60115L29.6105 4.01763C29.0935 3.60013 28.484 3.69026 28.0133 3.915L28.3364 4.59182ZM29.1393 4.60115L28.6682 5.18467C28.9809 5.43721 29.3444 5.59129 29.7442 5.63765L29.8306 4.89264L29.917 4.14763C29.8026 4.13437 29.7052 4.09412 29.6105 4.01763L29.1393 4.60115ZM29.8306 4.89264L29.7442 5.63765C29.7461 5.63787 29.7437 5.63773 29.7392 5.63596C29.7347 5.63418 29.7328 5.63263 29.7342 5.63368C29.7374 5.63602 29.7647 5.65737 29.8044 5.72655L30.4549 5.35316L31.1053 4.97978C30.8589 4.5504 30.4662 4.21131 29.917 4.14763L29.8306 4.89264ZM30.4549 5.35316L29.8044 5.72655C30.0407 6.13804 30.4036 6.4749 30.9146 6.58051L31.0664 5.84603L31.2182 5.11155C31.2144 5.11077 31.2099 5.11013 31.1978 5.10034C31.1824 5.08795 31.1485 5.05495 31.1053 4.97978L30.4549 5.35316ZM31.0664 5.84603L30.9146 6.58051C31.0948 6.61774 31.2635 6.67832 31.423 6.76244L31.7729 6.09904L32.1227 5.43565C31.8374 5.28515 31.5351 5.17705 31.2182 5.11155L31.0664 5.84603ZM31.7729 6.09904L31.423 6.76244C31.7646 6.94259 32.1362 7.02468 32.5222 7.01943L32.512 6.2695L32.5018 5.51957C32.3472 5.52167 32.226 5.49012 32.1227 5.43565L31.7729 6.09904ZM32.512 6.2695L32.5222 7.01943C32.7676 7.0161 33.0066 7.0251 33.2394 7.04615L33.3069 6.29919L33.3744 5.55224C33.0881 5.52635 32.7972 5.51556 32.5018 5.51957L32.512 6.2695ZM33.3069 6.29919L33.2394 7.04615C33.2395 7.04616 33.238 7.04603 33.2353 7.0454C33.2325 7.04476 33.2291 7.04377 33.2253 7.04234C33.217 7.0392 33.2118 7.03573 33.2103 7.03467C33.208 7.03297 33.2334 7.05094 33.2724 7.12207L33.9303 6.76206L34.5882 6.40205C34.3458 5.95898 33.9454 5.60386 33.3744 5.55224L33.3069 6.29919ZM33.9303 6.76206L33.2724 7.12207C33.4881 7.51644 33.8041 7.85548 34.2509 8.02379L34.5153 7.32193L34.7796 6.62006C34.7585 6.61211 34.6845 6.57791 34.5882 6.40205L33.9303 6.76206ZM34.5153 7.32193L34.2509 8.02379C34.4074 8.08274 34.5577 8.16817 34.7029 8.28468L35.1723 7.69975L35.6418 7.11481C35.3788 6.90382 35.0911 6.73737 34.7796 6.62006L34.5153 7.32193ZM35.1723 7.69975L34.7029 8.28468C34.9769 8.50455 35.2815 8.66958 35.6143 8.7733L35.8374 8.05728L36.0606 7.34126C35.9147 7.29578 35.7759 7.22245 35.6418 7.11481L35.1723 7.69975ZM35.8374 8.05728L35.6143 8.7733C35.8436 8.8448 36.0711 8.92096 36.2967 9.00179L36.5497 8.29573L36.8026 7.58968C36.5573 7.50178 36.3099 7.41897 36.0606 7.34126L35.8374 8.05728ZM36.5497 8.29573L36.2967 9.00179C36.7149 9.15161 37.1502 9.13158 37.5648 9.01257L37.3579 8.29168L37.151 7.57079C36.9589 7.62593 36.8554 7.6086 36.8026 7.58968L36.5497 8.29573ZM37.3579 8.29168L37.5648 9.01257C37.6431 8.99011 37.6849 8.99127 37.6992 8.99281C37.7093 8.99389 37.7109 8.99514 37.7148 8.99776L38.1318 8.37439L38.5488 7.75103C38.1106 7.45785 37.6124 7.43835 37.151 7.57079L37.3579 8.29168ZM38.1318 8.37439L37.7148 8.99776C38.0145 9.19826 38.3451 9.33059 38.7003 9.39202L38.8281 8.65299L38.9559 7.91396C38.8079 7.88836 38.6743 7.83496 38.5488 7.75103L38.1318 8.37439ZM38.8281 8.65299L38.7003 9.39202C38.9202 9.43004 39.1336 9.48152 39.3409 9.54627L39.5645 8.83039L39.7882 8.11451C39.5169 8.02977 39.2394 7.96298 38.9559 7.91396L38.8281 8.65299ZM39.5645 8.83039L39.3409 9.54627C39.4845 9.59114 39.6214 9.66412 39.7538 9.77231L40.2283 9.19142L40.7027 8.61052C40.4288 8.38685 40.1231 8.21914 39.7882 8.11451L39.5645 8.83039ZM40.2283 9.19142L39.7538 9.77231C39.825 9.83042 39.8647 9.87306 39.8846 9.89831C39.9047 9.9238 39.8947 9.91912 39.8841 9.88404L40.6016 9.66582L41.3192 9.4476C41.2099 9.08837 40.9518 8.81395 40.7027 8.61052L40.2283 9.19142ZM40.6016 9.66582L39.8841 9.88404C39.9047 9.95207 39.9291 10.0844 39.9405 10.3049L40.6895 10.2663L41.4385 10.2278C41.4241 9.94823 41.3899 9.68023 41.3192 9.4476L40.6016 9.66582ZM40.6895 10.2663L39.9405 10.3049C39.9503 10.4957 39.9378 10.6872 39.9022 10.8807L40.6399 11.0163L41.3775 11.1519C41.4338 10.8454 41.4544 10.537 41.4385 10.2278L40.6895 10.2663ZM40.6399 11.0163L39.9022 10.8807C39.8206 11.3246 39.9127 11.7509 40.1266 12.1328L40.7809 11.7663L41.4353 11.3998C41.3692 11.2818 41.3672 11.2081 41.3775 11.1519L40.6399 11.0163ZM40.7809 11.7663L40.1266 12.1328C40.2667 12.3829 40.4069 12.6331 40.5472 12.8832L41.2013 12.5163L41.8554 12.1494C41.7153 11.8996 41.5753 11.6497 41.4353 11.3998L40.7809 11.7663ZM41.2013 12.5163L40.5472 12.8832C40.6017 12.9804 40.5956 13.0275 40.5849 13.0659L41.3077 13.2663L42.0304 13.4667C42.1584 13.0051 42.0814 12.5522 41.8554 12.1494L41.2013 12.5163ZM41.3077 13.2663L40.5849 13.0659C40.5372 13.2381 40.4563 13.4226 40.3335 13.6198L40.9701 14.0163L41.6067 14.4128C41.7954 14.11 41.9395 13.7945 42.0304 13.4667L41.3077 13.2663ZM40.9701 14.0163L40.3335 13.6198C40.1815 13.8638 40.0926 14.1577 40.1308 14.4797C40.1679 14.7925 40.3155 15.0519 40.4906 15.2554L41.0591 14.7663L41.6277 14.2772C41.5877 14.2307 41.6129 14.2402 41.6204 14.3029C41.624 14.3335 41.6214 14.3631 41.6153 14.3871C41.6096 14.4098 41.6031 14.4186 41.6067 14.4128L40.9701 14.0163ZM41.0591 14.7663L40.4906 15.2554C40.5399 15.3128 40.5352 15.3289 40.5295 15.303C40.5265 15.2897 40.5251 15.2727 40.5269 15.2549C40.5286 15.2375 40.5325 15.2275 40.5329 15.2266L41.2247 15.5163L41.9165 15.806C42.0249 15.5472 42.0571 15.2648 41.9942 14.9797C41.9333 14.7038 41.7934 14.4698 41.6277 14.2772L41.0591 14.7663ZM41.2247 15.5163L40.5329 15.2266C40.3819 15.587 40.3214 15.9676 40.3684 16.3564L41.113 16.2663L41.8576 16.1763C41.8441 16.0651 41.858 15.9456 41.9165 15.806L41.2247 15.5163ZM41.113 16.2663L40.3684 16.3564C40.3881 16.5194 40.3799 16.6827 40.3418 16.8503L41.0732 17.0163L41.8046 17.1823C41.8801 16.8499 41.8983 16.5133 41.8576 16.1763L41.113 16.2663ZM41.0732 17.0163L40.3418 16.8503C40.2721 17.1576 40.2394 17.4677 40.2448 17.7795L40.9947 17.7663L41.7446 17.7531C41.7413 17.5649 41.7609 17.375 41.8046 17.1823L41.0732 17.0163ZM40.9947 17.7663L40.2448 17.7795C40.2517 18.1719 40.367 18.5432 40.5607 18.8856L41.2135 18.5163L41.8662 18.147C41.7771 17.9894 41.7465 17.8607 41.7446 17.7531L40.9947 17.7663ZM41.2135 18.5163L40.5607 18.8856C40.5655 18.894 40.5625 18.8912 40.5593 18.8778C40.5559 18.8636 40.5541 18.845 40.5558 18.825C40.5576 18.8054 40.562 18.7934 40.5631 18.7907C40.5639 18.7889 40.5602 18.7984 40.545 18.8189L41.1469 19.2663L41.7488 19.7137C41.9045 19.5042 42.024 19.2504 42.05 18.9576C42.0764 18.6601 42.0006 18.3846 41.8662 18.147L41.2135 18.5163ZM41.1469 19.2663L40.545 18.8189C40.3791 19.042 40.2565 19.3222 40.2589 19.6469C40.2613 19.9708 40.3875 20.2488 40.5547 20.4694L41.1524 20.0163L41.7501 19.5632C41.7384 19.5478 41.7406 19.5468 41.7459 19.5607C41.7518 19.5761 41.7586 19.6023 41.7589 19.6358C41.7591 19.6693 41.7527 19.6962 41.7466 19.7128C41.741 19.7279 41.7381 19.7281 41.7488 19.7137L41.1469 19.2663ZM41.1524 20.0163L40.5547 20.4694C40.5737 20.4944 40.582 20.5103 40.5851 20.5169C40.5879 20.523 40.5859 20.5205 40.5842 20.5104C40.5835 20.5056 40.5829 20.5 40.5829 20.4937C40.5828 20.4875 40.5832 20.4817 40.5839 20.4765C40.5854 20.4656 40.5876 20.4618 40.5857 20.4664L41.2731 20.7663L41.9605 21.0663C42.1964 20.5256 42.074 19.9905 41.7501 19.5632L41.1524 20.0163ZM41.2731 20.7663L40.5857 20.4664C40.4049 20.8807 40.3792 21.3228 40.525 21.7558L41.2358 21.5163L41.9465 21.2769C41.9239 21.2098 41.9231 21.152 41.9605 21.0663L41.2731 20.7663ZM41.2358 21.5163L40.525 21.7558C40.521 21.7437 40.5165 21.7236 40.5167 21.6983C40.5169 21.673 40.5216 21.6535 40.5255 21.6425C40.529 21.6326 40.5297 21.6353 40.5192 21.6504C40.5085 21.6658 40.488 21.6913 40.4522 21.7256L40.972 22.2663L41.4918 22.807C41.8711 22.4424 42.1576 21.9033 41.9465 21.2769L41.2358 21.5163ZM40.972 22.2663L40.4522 21.7256C40.0998 22.0645 39.8133 22.5334 39.8829 23.1067L40.6275 23.0163L41.372 22.9259C41.3732 22.9356 41.3728 22.9456 41.3714 22.9538C41.3701 22.9615 41.3688 22.9621 41.3724 22.9544C41.3805 22.9367 41.4095 22.8861 41.4918 22.807L40.972 22.2663ZM40.6275 23.0163L39.8829 23.1067C39.9203 23.4146 39.9931 23.7164 40.1001 24.0114L40.8051 23.7557L41.5102 23.5C41.441 23.3091 41.3953 23.1181 41.372 22.9259L40.6275 23.0163ZM40.8051 23.7557L40.1001 24.0114C40.1457 24.1373 40.1889 24.2493 40.2278 24.336C40.2456 24.3756 40.2733 24.4346 40.3095 24.4929C40.3258 24.5191 40.3624 24.5759 40.4196 24.6352C40.4397 24.656 40.6343 24.87 40.9686 24.87V24.12V23.37C41.1485 23.37 41.2818 23.4341 41.3523 23.4768C41.4247 23.5205 41.4734 23.5671 41.4988 23.5934C41.5487 23.6451 41.5769 23.6905 41.5838 23.7016C41.6011 23.7295 41.6058 23.7429 41.5963 23.7219C41.5807 23.6871 41.5526 23.6169 41.5102 23.5L40.8051 23.7557ZM40.9686 24.12V24.87C40.7727 24.87 40.6236 24.7946 40.5334 24.7294C40.4474 24.6673 40.3945 24.6008 40.3678 24.5636C40.3157 24.4912 40.2916 24.4283 40.2859 24.4136C40.271 24.375 40.2678 24.3539 40.2725 24.3751C40.2796 24.4075 40.2918 24.4775 40.3083 24.5985L41.0514 24.4971L41.7946 24.3957C41.7768 24.2653 41.7581 24.1467 41.7376 24.0534C41.7284 24.0118 41.7123 23.9436 41.6853 23.8735C41.6735 23.8431 41.6435 23.7684 41.5858 23.6882C41.556 23.6467 41.3575 23.37 40.9686 23.37V24.12ZM17.5732 21.5103L16.8478 21.3196C16.8102 21.4628 16.7735 21.6211 16.7628 21.7577C16.76 21.7933 16.7415 21.9788 16.8233 22.1739C16.8734 22.2932 16.9989 22.5011 17.2669 22.5998C17.5265 22.6953 17.7481 22.6243 17.8513 22.5778L17.5431 21.894L17.235 21.2103C17.3248 21.1698 17.535 21.1 17.7851 21.1921C18.0438 21.2873 18.1618 21.487 18.2064 21.5934C18.2494 21.6956 18.2563 21.78 18.2581 21.8081C18.2605 21.8441 18.2587 21.8687 18.2582 21.8748C18.2575 21.8834 18.2626 21.8378 18.2985 21.701L17.5732 21.5103ZM17.5431 21.894L17.8513 22.5778C17.7116 22.6408 17.5551 22.6572 17.4058 22.625C17.2687 22.5954 17.1728 22.5328 17.1191 22.49C17.0648 22.4468 17.0309 22.4058 17.0145 22.3844C16.9969 22.3613 16.9868 22.3442 16.9834 22.3382C16.9777 22.3282 16.9974 22.3639 17.0366 22.4874L17.7514 22.2603L18.4662 22.0331C18.4201 21.8883 18.3625 21.7289 18.2874 21.5968C18.254 21.5381 18.1809 21.4181 18.0535 21.3166C17.9046 21.1981 17.5917 21.0495 17.235 21.2103L17.5431 21.894ZM17.7514 22.2603L17.0366 22.4874C17.1388 22.8088 17.2736 23.1092 17.444 23.3848L18.0819 22.9904L18.7198 22.596C18.6201 22.4347 18.5345 22.2483 18.4662 22.0331L17.7514 22.2603ZM18.0819 22.9904L17.444 23.3848C17.673 23.7552 18.0069 24.0151 18.4089 24.1649L18.6708 23.4621L18.9328 22.7594C18.8196 22.7172 18.761 22.6626 18.7198 22.596L18.0819 22.9904ZM18.6708 23.4621L18.4089 24.1649C18.5691 24.2246 18.6828 24.303 18.7674 24.3931L19.314 23.8796L19.8607 23.3661C19.6028 23.0916 19.2877 22.8917 18.9328 22.7594L18.6708 23.4621ZM19.314 23.8796L18.7674 24.3931C18.9198 24.5553 19.0637 24.7265 19.1993 24.9066L19.7986 24.4557L20.3979 24.0048C20.2299 23.7814 20.0508 23.5685 19.8607 23.3661L19.314 23.8796ZM19.7986 24.4557L19.1993 24.9066C19.2833 25.0182 19.3565 25.1664 19.4076 25.3664L20.1343 25.1807L20.8609 24.995C20.7681 24.6318 20.6176 24.2967 20.3979 24.0048L19.7986 24.4557ZM20.1343 25.1807L19.4076 25.3664C19.4807 25.6524 19.6397 25.9221 19.9085 26.1133C20.1661 26.2965 20.4595 26.3614 20.7271 26.371L20.7541 25.6215L20.7811 24.872C20.7074 24.8694 20.7269 24.8546 20.7779 24.8909C20.8037 24.9093 20.8261 24.933 20.8423 24.9578C20.8577 24.9815 20.8614 24.9969 20.8609 24.995L20.1343 25.1807ZM20.7541 25.6215L20.7271 26.371C20.8283 26.3747 20.8787 26.3913 20.8963 26.399C20.9084 26.4043 20.9015 26.4031 20.8944 26.3935L21.4937 25.9426L22.093 25.4917C21.7613 25.0509 21.2636 24.8894 20.7811 24.872L20.7541 25.6215ZM21.4937 25.9426L20.8944 26.3935C20.9342 26.4464 20.99 26.5595 21.0048 26.7915L21.7533 26.7437L22.5017 26.6958C22.4741 26.2632 22.3568 25.8422 22.093 25.4917L21.4937 25.9426ZM21.7533 26.7437L21.0048 26.7915C21.0235 27.0836 21.122 27.4144 21.3938 27.6687C21.6619 27.9196 21.9945 27.9982 22.2805 28.0061L22.3012 27.2564L22.3219 26.5067C22.2639 26.5051 22.3331 26.4935 22.4186 26.5734C22.5077 26.6568 22.5043 26.736 22.5017 26.6958L21.7533 26.7437ZM22.3012 27.2564L22.2805 28.0061C22.5724 28.0142 22.7494 28.056 22.846 28.0968L23.1376 27.4058L23.4291 26.7148C23.0987 26.5754 22.7182 26.5176 22.3219 26.5067L22.3012 27.2564ZM23.1376 27.4058L22.846 28.0968C23.0851 28.1977 23.3949 28.2449 23.7113 28.1138C24.0114 27.9894 24.1945 27.7546 24.3038 27.5516L23.6434 27.1961L22.983 26.8406C22.9686 26.8675 23.0055 26.7826 23.137 26.7281C23.2848 26.6668 23.4035 26.7039 23.4291 26.7148L23.1376 27.4058ZM23.6434 27.1961L24.3038 27.5516C24.4018 27.3696 24.5142 27.2076 24.6405 27.0637L24.0769 26.5689L23.5132 26.0742C23.309 26.3068 23.1325 26.563 22.983 26.8406L23.6434 27.1961ZM24.0769 26.5689L24.6405 27.0637C24.7441 26.9457 24.8701 26.8451 25.0245 26.7622L24.6699 26.1013L24.3153 25.4405C24.0096 25.6045 23.7402 25.8156 23.5132 26.0742L24.0769 26.5689ZM24.6699 26.1013L25.0245 26.7622C25.4758 26.5201 25.7399 26.1121 25.8428 25.6405L25.11 25.4807L24.3772 25.3209C24.3634 25.3842 24.3466 25.4115 24.3407 25.4198C24.3364 25.4258 24.3314 25.4318 24.3153 25.4405L24.6699 26.1013ZM25.11 25.4807L25.8428 25.6405C25.8845 25.449 25.9505 25.3277 26.0193 25.2474L25.4496 24.7596L24.8799 24.2718C24.6225 24.5724 24.4621 24.9319 24.3772 25.3209L25.11 25.4807ZM25.4496 24.7596L26.0193 25.2474C26.2154 25.0183 26.3885 24.7694 26.5389 24.5017L25.885 24.1343L25.2311 23.767C25.1271 23.9521 25.0099 24.1199 24.8799 24.2718L25.4496 24.7596ZM25.885 24.1343L26.5389 24.5017C26.6381 24.3251 26.7521 24.1687 26.8806 24.0306L26.3313 23.5199L25.782 23.0093C25.5697 23.2376 25.3863 23.4908 25.2311 23.767L25.885 24.1343ZM26.3313 23.5199L26.8806 24.0306C26.8658 24.0465 26.858 24.0438 26.8843 24.0356C26.9161 24.0257 26.9856 24.0122 27.1089 24.0173L27.1399 23.2679L27.1708 22.5186C26.6892 22.4987 26.1612 22.6013 25.782 23.0093L26.3313 23.5199ZM27.1399 23.2679L27.1089 24.0173C27.3934 24.029 27.7471 23.98 28.041 23.7353C28.348 23.4797 28.4523 23.1269 28.4677 22.8242L27.7187 22.7861L26.9696 22.7479C26.9688 22.7656 26.967 22.7491 26.982 22.7135C26.9988 22.6738 27.0307 22.6246 27.0813 22.5825C27.1822 22.4984 27.2551 22.5221 27.1708 22.5186L27.1399 23.2679ZM27.7187 22.7861L28.4677 22.8242C28.4728 22.7248 28.4898 22.6731 28.4989 22.6525C28.5059 22.6365 28.5077 22.6391 28.5023 22.6433L28.0434 22.0501L27.5844 21.4569C27.1587 21.7863 26.9939 22.2709 26.9696 22.7479L27.7187 22.7861ZM28.0434 22.0501L28.5023 22.6433C28.6209 22.5516 28.7719 22.4724 28.9667 22.4134L28.7495 21.6956L28.5323 20.9777C28.1843 21.083 27.8645 21.2402 27.5844 21.4569L28.0434 22.0501ZM28.7495 21.6956L28.9667 22.4134C29.2231 22.3359 29.4623 22.1938 29.6485 21.9721C29.8321 21.7534 29.93 21.498 29.973 21.2444L29.2336 21.119L28.4941 20.9935C28.4899 21.0183 28.4855 21.0286 28.4855 21.0288C28.4854 21.0288 28.4857 21.0282 28.4863 21.0271C28.4868 21.026 28.4877 21.0244 28.4889 21.0224C28.4913 21.0184 28.4949 21.0133 28.4996 21.0076C28.5099 20.9954 28.5213 20.986 28.5309 20.9799C28.5399 20.9742 28.542 20.9748 28.5323 20.9777L28.7495 21.6956ZM29.2336 21.119L29.973 21.2444C30.0044 21.0593 30.0625 20.9718 30.1074 20.9264L29.5742 20.399L29.0411 19.8715C28.7343 20.1815 28.5653 20.5741 28.4941 20.9935L29.2336 21.119ZM29.5742 20.399L30.1074 20.9264C30.1897 20.8433 30.3038 20.7691 30.4708 20.7145L30.2376 20.0017L30.0044 19.2888C29.6386 19.4085 29.3105 19.5992 29.0411 19.8715L29.5742 20.399ZM30.2376 20.0017L30.4708 20.7145C30.9109 20.5705 31.2675 20.2852 31.4843 19.8633L30.8171 19.5206L30.15 19.1779C30.1268 19.2231 30.097 19.2585 30.0044 19.2888L30.2376 20.0017ZM30.8171 19.5206L31.4843 19.8633C31.5514 19.7326 31.6108 19.6048 31.6546 19.4861C31.6897 19.3907 31.7497 19.2122 31.7409 19.0135L30.9917 19.0466L30.2424 19.0798C30.2407 19.042 30.243 19.0125 30.2452 18.9942C30.2473 18.9755 30.25 18.9626 30.2514 18.9567C30.2538 18.946 30.254 18.9485 30.247 18.9678C30.2325 19.007 30.2029 19.075 30.15 19.1779L30.8171 19.5206ZM30.9917 19.0466L31.7409 19.0135C31.7296 18.7576 31.626 18.5303 31.536 18.3679L30.88 18.7314L30.224 19.0949C30.2341 19.1132 30.2414 19.1277 30.2464 19.1386C30.2515 19.1495 30.2536 19.1553 30.254 19.1564C30.2545 19.1577 30.2524 19.1521 30.2498 19.1403C30.2473 19.1287 30.2436 19.108 30.2424 19.0798L30.9917 19.0466ZM30.88 18.7314L31.536 18.3679C31.4759 18.2594 31.3601 18.0976 31.1527 17.9947C30.9224 17.8805 30.6857 17.891 30.5002 17.9548C30.2085 18.0551 30.0262 18.2902 29.9449 18.4007L30.549 18.8452L31.153 19.2898C31.1733 19.2622 31.1773 19.2611 31.1643 19.2732C31.1563 19.2806 31.0973 19.3357 30.9881 19.3733C30.8578 19.4181 30.6713 19.4303 30.4863 19.3386C30.3242 19.2582 30.2487 19.1395 30.224 19.0949L30.88 18.7314ZM30.549 18.8452L29.9449 18.4007C29.8572 18.5199 29.7484 18.6182 29.6116 18.6978L29.989 19.3459L30.3665 19.994C30.6765 19.8135 30.9409 19.578 31.153 19.2898L30.549 18.8452ZM29.989 19.3459L29.6116 18.6978C29.273 18.895 29.0026 19.1692 28.8095 19.51L29.4621 19.8797L30.1147 20.2493C30.1773 20.1388 30.2582 20.0571 30.3665 19.994L29.989 19.3459ZM29.4621 19.8797L28.8095 19.51C28.7724 19.5756 28.7211 19.6257 28.6184 19.6651L28.8871 20.3653L29.1558 21.0655C29.5641 20.9089 29.8961 20.6352 30.1147 20.2493L29.4621 19.8797ZM28.8871 20.3653L28.6184 19.6651C28.3573 19.7653 28.0987 19.8681 27.8427 19.9735L28.1282 20.667L28.4137 21.3605C28.6585 21.2598 28.9059 21.1614 29.1558 21.0655L28.8871 20.3653ZM28.1282 20.667L27.8427 19.9735C27.394 20.1582 27.0719 20.4994 26.9061 20.9515L27.6102 21.2097L28.3144 21.468C28.3383 21.4027 28.3615 21.3821 28.4137 21.3605L28.1282 20.667ZM27.6102 21.2097L26.9061 20.9515C26.8793 21.0245 26.8509 21.0498 26.7977 21.0731L27.0995 21.7597L27.4014 22.4463C27.8394 22.2537 28.1514 21.9124 28.3144 21.468L27.6102 21.2097ZM27.0995 21.7597L26.7977 21.0731C26.3206 21.2829 26.0195 21.6766 25.897 22.161L26.6241 22.3449L27.3512 22.5289C27.3644 22.4769 27.3782 22.4604 27.3786 22.4599C27.3794 22.459 27.38 22.4583 27.3817 22.457C27.3835 22.4556 27.3893 22.4516 27.4014 22.4463L27.0995 21.7597ZM26.6241 22.3449L25.897 22.161C25.8924 22.1792 25.8888 22.1854 25.8897 22.1837C25.8901 22.1828 25.8915 22.1805 25.8939 22.1771C25.8964 22.1737 25.8996 22.1698 25.9034 22.1659C25.9073 22.162 25.9112 22.1586 25.9148 22.1559C25.9184 22.1531 25.9211 22.1515 25.9224 22.1507C25.9252 22.1492 25.9204 22.1524 25.904 22.1568L26.0994 22.8809L26.2948 23.605C26.5432 23.538 26.7806 23.4141 26.9753 23.2152C27.1697 23.0166 27.2884 22.7771 27.3512 22.5289L26.6241 22.3449ZM26.0994 22.8809L25.904 22.1568C25.504 22.2647 25.1453 22.4675 24.8691 22.7856L25.4353 23.2774L26.0015 23.7692C26.0539 23.7088 26.138 23.6473 26.2948 23.605L26.0994 22.8809ZM25.4353 23.2774L24.8691 22.7856C24.6544 23.0327 24.4788 23.3106 24.3402 23.6149L25.0228 23.9257L25.7054 24.2364C25.7881 24.0548 25.8874 23.9005 26.0015 23.7692L25.4353 23.2774ZM25.0228 23.9257L24.3402 23.6149C24.2803 23.7465 24.2032 23.8378 24.1091 23.9062L24.5496 24.5131L24.9902 25.1201C25.3058 24.891 25.5441 24.5907 25.7054 24.2364L25.0228 23.9257ZM24.5496 24.5131L24.1091 23.9062C23.8588 24.0878 23.632 24.295 23.4299 24.5272L23.9955 25.0197L24.5612 25.5121C24.6881 25.3663 24.8308 25.2358 24.9902 25.1201L24.5496 24.5131ZM23.9955 25.0197L23.4299 24.5272C23.3195 24.654 23.1888 24.7631 23.0336 24.8549L23.4156 25.5004L23.7976 26.1458C24.0866 25.9747 24.3424 25.7634 24.5612 25.5121L23.9955 25.0197ZM23.4156 25.5004L23.0336 24.8549C22.8177 24.9827 22.6385 25.093 22.5343 25.1704L22.9813 25.7726L23.4283 26.3749C23.4589 26.3521 23.5692 26.2809 23.7976 26.1458L23.4156 25.5004ZM22.9813 25.7726L22.5343 25.1704C22.6889 25.0556 22.875 25.0195 23.0392 25.0453C23.1766 25.0668 23.2624 25.125 23.2873 25.1429C23.3338 25.1762 23.3267 25.1855 23.265 25.1003L22.6575 25.54L22.0499 25.9797C22.1367 26.0997 22.2578 26.2502 22.4122 26.3612C22.4911 26.4178 22.6258 26.4988 22.807 26.5272C23.015 26.5598 23.2399 26.5146 23.4283 26.3749L22.9813 25.7726ZM22.6575 25.54L23.265 25.1003C22.9762 24.7013 22.5545 24.492 22.1001 24.4176L21.979 25.1578L21.8579 25.898C22.0113 25.923 22.0418 25.9686 22.0499 25.9797L22.6575 25.54ZM21.979 25.1578L22.1001 24.4176C21.9371 24.391 21.8915 24.3412 21.8755 24.3211L21.2884 24.7878L20.7013 25.2545C20.9984 25.6282 21.4133 25.8252 21.8579 25.898L21.979 25.1578ZM21.2884 24.7878L21.8755 24.3211C21.7366 24.1464 21.6063 23.9621 21.4846 23.768L20.8492 24.1663L20.2137 24.5647C20.3645 24.8052 20.527 25.0352 20.7013 25.2545L21.2884 24.7878ZM20.8492 24.1663L21.4846 23.768C21.2702 23.4258 20.9721 23.1655 20.609 22.9921L20.2859 23.669L19.9628 24.3458C20.0782 24.4009 20.1557 24.4722 20.2137 24.5647L20.8492 24.1663ZM20.2859 23.669L20.609 22.9921C20.3607 22.8736 20.1085 22.7593 19.8525 22.6491L19.5561 23.3381L19.2597 24.027C19.4981 24.1296 19.7324 24.2358 19.9628 24.3458L20.2859 23.669ZM19.5561 23.3381L19.8525 22.6491C19.8524 22.6491 19.8547 22.6501 19.8587 22.6525C19.8627 22.655 19.8678 22.6585 19.8734 22.6632C19.8855 22.6734 19.8949 22.6847 19.901 22.6943C19.9128 22.7128 19.898 22.7018 19.8917 22.6266L19.1443 22.6892L18.3969 22.7518C18.4414 23.2827 18.6984 23.7856 19.2597 24.027L19.5561 23.3381ZM19.1443 22.6892L19.8917 22.6266C19.8552 22.1904 19.7201 21.7664 19.4243 21.4247L18.8573 21.9156L18.2902 22.4065C18.3226 22.4438 18.3788 22.5355 18.3969 22.7518L19.1443 22.6892ZM18.8573 21.9156L19.4243 21.4247C19.2094 21.1764 18.9596 20.965 18.6783 20.7908L18.2836 21.4286L17.8889 22.0663C18.0444 22.1625 18.1771 22.2758 18.2902 22.4065L18.8573 21.9156ZM18.2836 21.4286L18.6783 20.7908C18.4611 20.6564 18.2794 20.549 18.1537 20.4865L17.8198 21.1581L17.4859 21.8297C17.5418 21.8575 17.6694 21.9305 17.8889 22.0663L18.2836 21.4286ZM17.8198 21.1581L18.1537 20.4865C17.9542 20.3873 17.7045 20.3623 17.4643 20.4627C17.2596 20.5482 17.1378 20.6934 17.0757 20.7821C16.9545 20.9551 16.889 21.1631 16.8478 21.3196L17.5732 21.5103L18.2985 21.701C18.331 21.5776 18.3434 21.5869 18.3044 21.6425C18.2834 21.6725 18.2038 21.7794 18.0423 21.8468C17.8454 21.9291 17.6401 21.9063 17.4859 21.8297L17.8198 21.1581Z" fill="#030302"/>
</svg>
