<svg width="48" height="48" viewBox="0 0 48 48" fill="none" xmlns="http://www.w3.org/2000/svg">
<path d="M25.1085 6.49491L25.7541 6.11331L25.1085 6.49491ZM26.5639 6.98608L26.335 7.7003L26.5639 6.98608ZM27.6906 8.01638L27.256 8.62767L27.6906 8.01638ZM28.3938 8.32639L28.2232 9.05673L28.3938 8.32639ZM29.0537 8.69887L28.5066 9.21182L29.0537 8.69887ZM29.4409 9.41617L28.7198 9.62223L29.4409 9.41617ZM30.086 9.82559L30.0453 9.0767L30.086 9.82559ZM31.3792 10.6409L31.6763 9.95222L31.3792 10.6409ZM31.822 11.2589L31.0807 11.3733L31.822 11.2589ZM32.1989 11.9432L32.6452 11.3405L32.1989 11.9432ZM32.8053 12.408L32.3392 12.9956L32.8053 12.408ZM33.4511 12.8533L33.0656 13.4966L33.4511 12.8533ZM35.0924 15.3974L35.5732 14.8218L35.0924 15.3974ZM35.7807 16.7439L35.6084 17.4739L35.7807 16.7439ZM36.5925 18.0106L35.8827 18.253L36.5925 18.0106ZM37.6598 20.8291L38.3556 20.5492L37.6598 20.8291ZM38.3829 22.9672L37.6332 22.9462L38.3829 22.9672ZM38.3315 23.7511L39.0776 23.828L38.3315 23.7511ZM38.5372 24.4765L37.9338 24.9219L38.5372 24.4765ZM38.8593 25.1796L38.1246 25.3306L38.8593 25.1796ZM38.8789 26.699L39.3327 26.1018L38.8789 26.699ZM38.9812 27.431L38.4038 26.9524L38.9812 27.431ZM39.426 29.7114L40.173 29.7783L39.426 29.7114ZM39.0269 30.4311L38.5191 29.8791L39.0269 30.4311ZM38.7201 31.1543L39.4619 31.0438L38.7201 31.1543ZM38.148 33.3027L37.4738 32.9742L38.148 33.3027ZM37.6801 34.7301L36.95 34.9016L37.6801 34.7301ZM37.2017 36.1802L36.4555 36.1047L37.2017 36.1802ZM36.7389 36.7725L36.4518 36.0796L36.7389 36.7725ZM36.1446 37.2836L35.478 36.9398L36.1446 37.2836ZM35.7338 37.9118L35.152 37.4385L35.7338 37.9118ZM34.84 39.1408L34.3796 38.5488L34.84 39.1408ZM33.0259 40.5143L32.4785 40.0017L33.0259 40.5143ZM32.48 41.0608L31.9668 40.5139L32.48 41.0608ZM30.355 41.8642L30.4917 41.1267L30.355 41.8642ZM29.5852 41.962L29.9481 42.6184L29.5852 41.962ZM26.0165 42.8431L26.0141 42.0931L26.0165 42.8431ZM25.2763 42.8232L25.3193 42.0744L25.2763 42.8232ZM24.5393 42.8797L24.3844 42.1459L24.5393 42.8797ZM23.8037 42.9105L23.8986 42.1666L23.8037 42.9105ZM20.0779 42.5818L20.3497 41.8828L20.0779 42.5818ZM19.3587 42.3441L19.1604 43.0674L19.3587 42.3441ZM18.6407 42.1022L18.9206 41.4064L18.6407 42.1022ZM15.0219 39.4458L15.692 39.109L15.0219 39.4458ZM14.3092 39.0973L14.2957 38.3474L14.3092 39.0973ZM11.7554 36.3015L11.1123 36.6874L11.7554 36.3015ZM11.2076 34.048L11.764 33.5452L11.2076 34.048ZM10.6402 32.6771L10.018 33.0959L10.6402 32.6771ZM10.3882 31.9776L11.1352 31.91L10.3882 31.9776ZM10.0765 30.5232L10.6647 30.9884L10.0765 30.5232ZM10.0985 29.753L9.53756 30.2508L10.0985 29.753ZM10.0297 28.2744L10.7731 28.3738L10.0297 28.2744ZM9.93081 26.7571L10.542 27.1917L9.93081 26.7571ZM10.2816 26.05L11.0021 26.2584L10.2816 26.05ZM10.652 25.3765L10.0806 24.8907L10.652 25.3765ZM10.7065 23.8278L11.3951 24.1249L10.7065 23.8278ZM11.9551 21.9194L12.6679 22.1526L11.9551 21.9194ZM12.289 20.4019L11.5871 20.1375L12.289 20.4019ZM12.5733 19.6893L13.2644 19.9808L12.5733 19.6893ZM13.6508 18.5903L12.9069 18.6862L13.6508 18.5903ZM15.5086 16.2388L16.1662 16.5995L15.5086 16.2388ZM16.0723 15.7447L16.3568 16.4386L16.0723 15.7447ZM16.6381 15.2465L17.2958 15.6072L16.6381 15.2465ZM17.2575 14.8252L17.391 15.5632L17.2575 14.8252ZM17.5533 14.9493L18.3029 14.9259L17.5533 14.9493ZM18.2304 16.4854L17.4946 16.3401L18.2304 16.4854ZM17.6828 18.7352L18.3411 18.3759L17.6828 18.7352ZM17.959 20.2284L18.6905 20.0625L17.959 20.2284ZM18.3264 22.4725L17.6006 22.6616L18.3264 22.4725ZM18.4618 23.2451L19.2083 23.1728L18.4618 23.2451ZM19.3264 24.5482L18.5805 24.6265L19.3264 24.5482ZM20.3573 25.7401L20.8054 25.1386L20.3573 25.7401ZM23.3714 25.6531L23.205 26.3844L23.3714 25.6531ZM26.0217 23.3625L25.3135 23.1157L26.0217 23.3625ZM26.3334 21.9134L25.6856 21.5354L26.3334 21.9134ZM26.7907 21.2712L27.3648 21.7539L26.7907 21.2712ZM27.1005 20.5735L27.8463 20.6523L27.1005 20.5735ZM27.0139 19.065L26.3912 19.483L27.0139 19.065ZM27.043 18.3093L27.6341 18.7709L27.043 18.3093ZM27.2402 14.5246L27.9735 14.3669L27.2402 14.5246ZM26.7798 13.8414L27.2543 13.2606L26.7798 13.8414ZM26.5098 13.1246L25.786 12.9279L26.5098 13.1246ZM25.2199 9.62602L25.8937 9.29659L25.2199 9.62602ZM25.3023 8.79967L24.632 8.46313L25.3023 8.79967ZM25.3755 7.97014L24.7077 8.3114L25.3755 7.97014ZM24.9432 7.33158L24.3759 7.82212L24.9432 7.33158ZM24.5728 6.66943L23.8558 6.88956L24.5728 6.66943ZM24.4537 6.0521L23.704 6.07514L24.4537 6.0521ZM24.2871 5.87328L23.9628 5.19701L24.2871 5.87328ZM22.0694 4.40191L22.8137 4.30946L22.0694 4.40191ZM23.4998 6.19563L24.2484 6.15049L23.4998 6.19563ZM23.4627 7.04217L22.72 6.93771L23.4627 7.04217ZM23.7941 7.72009L24.1839 7.07936L23.7941 7.72009ZM24.3861 8.28655L23.7452 8.67605L24.3861 8.28655ZM24.6312 9.80017L25.2581 9.38849L24.6312 9.80017ZM25.097 10.439L25.6816 9.96921L25.097 10.439ZM25.1447 11.2053L25.8269 11.5168L25.1447 11.2053ZM25.0797 12.0028L25.7745 11.7204L25.0797 12.0028ZM25.3334 12.7052L26.0484 12.4785L25.3334 12.7052ZM25.4719 13.4365L24.7237 13.4876L25.4719 13.4365ZM25.9437 14.8763L25.503 15.4832L25.9437 14.8763ZM26.0239 17.8571L25.2752 17.8141L26.0239 17.8571ZM26.2364 18.6103L25.5968 19.002L26.2364 18.6103ZM26.3998 19.3687L25.6625 19.2309L26.3998 19.3687ZM26.0673 20.089L25.4709 19.6342L26.0673 20.089ZM25.0458 22.8348L24.5149 22.3051L25.0458 22.8348ZM24.7138 23.4918L23.9745 23.3654L24.7138 23.4918ZM24.4204 24.1965L25.0284 24.6356L24.4204 24.1965ZM23.8833 24.7618L24.3554 25.3445L23.8833 24.7618ZM20.0195 23.5183L19.3855 23.919L20.0195 23.5183ZM19.8099 22.8115L19.0602 22.8315L19.8099 22.8115ZM19.7258 22.0644L20.4602 21.9122L19.7258 22.0644ZM18.9422 18.455L19.6882 18.377L18.9422 18.455ZM18.9747 17.7083L18.2379 17.568L18.9747 17.7083ZM19.156 12.4776L18.6226 11.9503L19.156 12.4776ZM16.7181 13.5692L16.7866 14.3161L16.7181 13.5692ZM16.1056 14.0088L15.4037 13.7446L16.1056 14.0088ZM13.9924 16.1851L13.693 15.4975L13.9924 16.1851ZM13.5952 16.8292L14.345 16.8467L13.5952 16.8292ZM12.727 18.0696L12.2359 17.5027L12.727 18.0696ZM11.3753 19.8916L10.7407 19.4919L11.3753 19.8916ZM10.5269 21.162L11.2222 21.443L10.5269 21.162ZM10.4489 21.9598L9.70692 22.0694L10.4489 21.9598ZM9.27903 28.5388L8.53124 28.4814L9.27903 28.5388ZM9.35308 29.2669L8.63118 29.4703L9.35308 29.2669ZM9.99977 33.6418L10.7459 33.5653L9.99977 33.6418ZM10.179 34.3687L9.48375 34.65L10.179 34.3687ZM11.0636 35.5884L10.4652 36.0406L11.0636 35.5884ZM11.2406 36.3452L10.4945 36.2688L11.2406 36.3452ZM11.6068 36.9794L11.8978 36.2881L11.6068 36.9794ZM12.5043 38.1668L12.6854 37.439L12.5043 38.1668ZM13.2102 38.5426L12.67 39.0628L13.2102 38.5426ZM13.8143 40.033L14.0851 39.3336L13.8143 40.033ZM15.0064 40.9849L14.3461 41.3405L15.0064 40.9849ZM16.9884 42.0947L16.2657 42.2949L16.9884 42.0947ZM18.2169 43.0126L17.8599 43.6722L18.2169 43.0126ZM20.4621 43.451L20.3917 42.7043L20.4621 43.451ZM22.6669 43.9439L23.0665 43.3093L22.6669 43.9439ZM24.1566 44.1457L24.493 44.816L24.1566 44.1457ZM24.9209 44.0957L25.183 43.393L24.9209 44.0957ZM25.6549 43.9316L26.1468 44.4978L25.6549 43.9316ZM27.1541 43.8149L26.6989 43.2188L27.1541 43.8149ZM28.6069 43.448L29.2427 43.8458L28.6069 43.448ZM30.7359 42.6874L30.6443 43.4317L30.7359 42.6874ZM33.3892 41.3053L32.7001 41.0092L33.3892 41.3053ZM34.4822 40.2456L34.4431 40.9945L34.4822 40.2456ZM35.1345 39.8727L34.4279 39.6214L35.1345 39.8727ZM36.0948 38.711L36.6994 39.1549L36.0948 38.711ZM37.4648 36.9513L38.1922 36.7685L37.4648 36.9513ZM37.6168 36.1599L38.1189 36.717L37.6168 36.1599ZM37.9834 35.53L37.2504 35.3712L37.9834 35.53ZM38.4909 34.9447L38.826 35.6156L38.4909 34.9447ZM39.2399 33.6384L39.9181 33.9586L39.2399 33.6384ZM39.2941 32.1064L40.0429 32.0641L39.2941 32.1064ZM39.6476 31.4142L39.1711 30.8351L39.6476 31.4142ZM40.0686 30.728L40.8131 30.8185L40.0686 30.728ZM39.7973 26.9643L40.5398 27.0701V27.0701L39.7973 26.9643ZM39.5419 25.4954L38.8081 25.6503L39.5419 25.4954ZM39.522 24.7445L38.78 24.6351V24.6351L39.522 24.7445ZM39.6811 23.9527L40.4084 24.136L39.6811 23.9527ZM39.209 21.7414L38.6826 22.2757L39.209 21.7414ZM38.585 21.1496L39.0906 20.5956L38.585 21.1496ZM38.2411 20.4779L37.4932 20.5328L38.2411 20.4779ZM38.2919 19.6596L39.0299 19.7936L38.2919 19.6596ZM37.2436 17.6733L36.6193 18.0889L37.2436 17.6733ZM36.9323 16.991L36.2099 17.1924L36.9323 16.991ZM36.6357 16.3001L37.2782 15.9132L36.6357 16.3001ZM36.0662 15.7736L36.4253 15.1152L36.0662 15.7736ZM34.346 13.3469L34.7562 12.719L34.346 13.3469ZM34.0783 12.5943L33.3331 12.5097L34.0783 12.5943ZM33.855 11.8004L34.3569 11.2431L33.855 11.8004ZM33.2174 11.3562L32.8649 12.0182L33.2174 11.3562ZM32.6576 10.8434L32.0249 11.246L32.6576 10.8434ZM32.0992 10.3406L31.7605 11.0098L32.0992 10.3406ZM30.9647 9.34751L31.6086 8.96283L30.9647 9.34751ZM30.423 8.82796L30.0704 9.48992L30.423 8.82796ZM29.2031 7.95281L29.2658 8.70019L29.2031 7.95281ZM28.0548 6.96752L27.901 7.70159L28.0548 6.96752ZM27.2491 6.82819L27.1472 7.57124L27.2491 6.82819ZM26.673 6.32894L25.9722 6.59619L26.673 6.32894ZM26.0246 5.96971L25.8948 5.23103L26.0246 5.96971ZM25.212 5.89271L25.5385 5.2175L25.212 5.89271ZM24.6899 5.27568L23.9969 5.56246L24.6899 5.27568ZM22.7234 4.18728L22.4961 3.47257L22.7234 4.18728ZM24.5064 6.03271L24.3451 6.76515C24.3654 6.76963 24.4034 6.77601 24.4628 6.8765L25.1085 6.49491L25.7541 6.11331C25.515 5.70861 25.1516 5.40686 24.6678 5.30027L24.5064 6.03271ZM25.1085 6.49491L24.4628 6.8765C24.7444 7.35291 25.2072 7.62474 25.7686 7.62062L25.7631 6.87064L25.7576 6.12066C25.7412 6.12078 25.7356 6.11903 25.7382 6.11966C25.7395 6.11996 25.7421 6.12069 25.7457 6.12214C25.7494 6.1236 25.7534 6.1255 25.7574 6.12782C25.7615 6.13013 25.7648 6.13244 25.7674 6.13443C25.7699 6.1364 25.7711 6.13762 25.771 6.13756C25.7709 6.13748 25.7646 6.13094 25.7541 6.11331L25.1085 6.49491ZM25.7631 6.87064L25.7686 7.62062C25.9848 7.61903 26.1718 7.64798 26.335 7.7003L26.5639 6.98608L26.7928 6.27186C26.4626 6.16605 26.1157 6.11803 25.7576 6.12066L25.7631 6.87064ZM26.5639 6.98608L26.335 7.7003C26.4059 7.72301 26.4677 7.76371 26.5306 7.86054L27.1596 7.45199L27.7885 7.04344C27.5506 6.6772 27.2154 6.40729 26.7928 6.27186L26.5639 6.98608ZM27.1596 7.45199L26.5306 7.86054C26.7271 8.16295 26.9677 8.42273 27.256 8.62767L27.6906 8.01638L28.1251 7.40509C28.0062 7.32058 27.8929 7.2041 27.7885 7.04344L27.1596 7.45199ZM27.6906 8.01638L27.256 8.62767C27.546 8.83377 27.8717 8.97464 28.2232 9.05673L28.3938 8.32639L28.5644 7.59604C28.3854 7.55424 28.2424 7.48844 28.1251 7.40509L27.6906 8.01638ZM28.3938 8.32639L28.2232 9.05673C28.3542 9.08733 28.44 9.14078 28.5066 9.21182L29.0537 8.69887L29.6009 8.18592C29.3181 7.88421 28.9638 7.68933 28.5644 7.59604L28.3938 8.32639ZM29.0537 8.69887L28.5066 9.21182C28.5857 9.29625 28.663 9.42363 28.7198 9.62223L29.4409 9.41617L30.162 9.21011C30.052 8.82506 29.8712 8.47424 29.6009 8.18592L29.0537 8.69887ZM29.4409 9.41617L28.7198 9.62223C28.8018 9.90915 28.9715 10.1857 29.2629 10.3706C29.5425 10.5481 29.853 10.5894 30.1268 10.5745L30.086 9.82559L30.0453 9.0767C29.9724 9.08067 30.002 9.06313 30.0666 9.10415C30.099 9.12469 30.1253 9.1511 30.1435 9.17714C30.1605 9.20153 30.1638 9.21619 30.162 9.21011L29.4409 9.41617ZM30.086 9.82559L30.1268 10.5745C30.172 10.572 30.2014 10.5743 30.218 10.5767C30.2341 10.5791 30.2355 10.5812 30.2272 10.5776C30.2181 10.5736 30.2036 10.5654 30.1883 10.5519C30.1731 10.5383 30.1639 10.5255 30.1598 10.5185L30.8066 10.1388L31.4534 9.75908C31.132 9.21161 30.569 9.04818 30.0453 9.0767L30.086 9.82559ZM30.8066 10.1388L30.1598 10.5185C30.3762 10.8871 30.6913 11.1609 31.0821 11.3295L31.3792 10.6409L31.6763 9.95222C31.571 9.90678 31.5043 9.84581 31.4534 9.75908L30.8066 10.1388ZM31.3792 10.6409L31.0821 11.3295C31.0882 11.3321 31.0866 11.3322 31.0811 11.3279C31.0753 11.3233 31.07 11.3176 31.0663 11.3124C31.0582 11.3012 31.0713 11.3121 31.0807 11.3733L31.822 11.2589L32.5632 11.1445C32.4834 10.6272 32.1986 10.1776 31.6763 9.95222L31.3792 10.6409ZM31.822 11.2589L31.0807 11.3733C31.1511 11.829 31.3567 12.2528 31.7526 12.546L32.1989 11.9432L32.6452 11.3405C32.6327 11.3312 32.587 11.2988 32.5632 11.1445L31.822 11.2589ZM32.1989 11.9432L31.7526 12.546C31.9501 12.6922 32.1456 12.8421 32.3392 12.9956L32.8053 12.408L33.2713 11.8204C33.0648 11.6566 32.8561 11.4967 32.6452 11.3405L32.1989 11.9432ZM32.8053 12.408L32.3392 12.9956C32.5661 13.1756 32.8085 13.3425 33.0656 13.4966L33.4511 12.8533L33.8367 12.2099C33.6327 12.0877 33.4444 11.9577 33.2713 11.8204L32.8053 12.408ZM33.4511 12.8533L33.0656 13.4966C33.0558 13.4907 33.0382 13.4778 33.02 13.4559C33.0018 13.4339 32.9907 13.412 32.985 13.3962C32.9798 13.3817 32.9814 13.3788 32.9823 13.3935C32.9832 13.4088 32.9831 13.4386 32.9761 13.4861L33.7181 13.5955L34.46 13.705C34.498 13.4476 34.4955 13.1637 34.3966 12.8887C34.2921 12.5981 34.0969 12.3658 33.8367 12.2099L33.4511 12.8533ZM33.7181 13.5955L32.9761 13.4861C32.933 13.7779 32.9536 14.1445 33.1897 14.4629C33.4263 14.7819 33.7718 14.9077 34.0645 14.9502L34.1723 14.208L34.28 13.4657C34.2173 13.4566 34.3094 13.4545 34.3945 13.5694C34.4793 13.6836 34.4505 13.7698 34.46 13.705L33.7181 13.5955ZM34.1723 14.208L34.0645 14.9502C34.1543 14.9632 34.136 14.9795 34.0867 14.936C34.0604 14.9128 34.0366 14.8821 34.0201 14.8478C34.0042 14.815 34.0011 14.7917 34.0007 14.7873L34.7472 14.7147L35.4937 14.642C35.4638 14.3354 35.3351 14.0369 35.0785 13.8107C34.8375 13.5983 34.5457 13.5043 34.28 13.4657L34.1723 14.208ZM34.7472 14.7147L34.0007 14.7873C34.0457 15.2499 34.2436 15.6657 34.6116 15.973L35.0924 15.3974L35.5732 14.8218C35.5366 14.7912 35.5044 14.7518 35.4937 14.642L34.7472 14.7147ZM35.0924 15.3974L34.6116 15.973C34.6105 15.9721 34.6043 15.9666 34.5972 15.9559C34.5899 15.945 34.5856 15.9348 34.5836 15.9282C34.5797 15.9157 34.5902 15.9375 34.5778 16.0148L35.3183 16.1336L36.0588 16.2524C36.1408 15.7414 36.0286 15.2022 35.5732 14.8218L35.0924 15.3974ZM35.3183 16.1336L34.5778 16.0148C34.529 16.3187 34.5647 16.6734 34.7974 16.9805C35.0181 17.2719 35.333 17.4088 35.6084 17.4739L35.7807 16.7439L35.9531 16.014C35.8685 15.994 35.9264 15.9868 35.993 16.0747C36.0269 16.1195 36.0463 16.1682 36.0543 16.2092C36.0616 16.2466 36.0569 16.2642 36.0588 16.2524L35.3183 16.1336ZM35.7807 16.7439L35.6084 17.4739C35.6594 17.4859 35.692 17.4981 35.7105 17.5065C35.7287 17.5148 35.7297 17.5178 35.7212 17.5107C35.7118 17.5028 35.6966 17.4871 35.6824 17.4631C35.6682 17.4391 35.6612 17.4168 35.6584 17.4019L36.3951 17.2611L37.1317 17.1202C37.0046 16.4552 36.4664 16.1352 35.9531 16.014L35.7807 16.7439ZM36.3951 17.2611L35.6584 17.4019C35.7144 17.6947 35.789 17.9785 35.8827 18.253L36.5925 18.0106L37.3022 17.7682C37.2321 17.5629 37.1751 17.347 37.1317 17.1202L36.3951 17.2611ZM36.5925 18.0106L35.8827 18.253C35.9802 18.5384 36.104 18.8118 36.2539 19.0728L36.9042 18.6991L37.5545 18.3255C37.4527 18.1483 37.3687 17.9628 37.3022 17.7682L36.5925 18.0106ZM36.9042 18.6991L36.2539 19.0728C36.2641 19.0905 36.2934 19.1454 36.2556 19.3029L36.9849 19.4781L37.7141 19.6532C37.8205 19.2103 37.7961 18.7459 37.5545 18.3255L36.9042 18.6991ZM36.9849 19.4781L36.2556 19.3029C36.1958 19.5521 36.1846 19.8239 36.2645 20.096C36.3456 20.3723 36.506 20.5985 36.7096 20.7733L37.1981 20.2042L37.6866 19.6351C37.6794 19.6289 37.6816 19.6294 37.6874 19.638C37.6902 19.6421 37.6933 19.6475 37.6963 19.6539C37.6993 19.6604 37.7018 19.667 37.7037 19.6734C37.7077 19.687 37.7076 19.6949 37.7076 19.6937C37.7076 19.6919 37.7079 19.679 37.7141 19.6532L36.9849 19.4781ZM37.1981 20.2042L36.7096 20.7733C36.8441 20.8887 36.9207 21.0013 36.964 21.109L37.6598 20.8291L38.3556 20.5492C38.2118 20.1915 37.9805 19.8874 37.6866 19.6351L37.1981 20.2042ZM37.6598 20.8291L36.964 21.109C36.9839 21.1584 37.001 21.2429 36.9555 21.401L37.6761 21.6088L38.3967 21.8166C38.5167 21.4006 38.523 20.9654 38.3556 20.5492L37.6598 20.8291ZM37.6761 21.6088L36.9555 21.401C36.8754 21.6789 36.8694 21.9895 36.998 22.292C37.1229 22.586 37.3417 22.7946 37.5702 22.94L37.9729 22.3073L38.3756 21.6746C38.3235 21.6414 38.3525 21.6443 38.3785 21.7054C38.3911 21.7352 38.3969 21.7654 38.3977 21.7906C38.3985 21.8143 38.3945 21.8242 38.3967 21.8166L37.6761 21.6088ZM37.9729 22.3073L37.5702 22.94C37.6417 22.9856 37.6543 23.0108 37.6489 23.0021C37.6458 22.9971 37.6407 22.9872 37.6371 22.9736C37.6335 22.9601 37.6331 22.95 37.6332 22.9462L38.3829 22.9672L39.1326 22.9882C39.1494 22.3897 38.8091 21.9505 38.3756 21.6746L37.9729 22.3073ZM38.3829 22.9672L37.6332 22.9462C37.6264 23.1887 37.6105 23.4313 37.5855 23.6742L38.3315 23.7511L39.0776 23.828C39.1064 23.5482 39.1248 23.2682 39.1326 22.9882L38.3829 22.9672ZM38.3315 23.7511L37.5855 23.6742C37.5383 24.1315 37.665 24.5578 37.9338 24.9219L38.5372 24.4765L39.1406 24.0311C39.0812 23.9506 39.0708 23.8933 39.0776 23.828L38.3315 23.7511ZM38.5372 24.4765L37.9338 24.9219C38.0397 25.0654 38.0979 25.2007 38.1246 25.3306L38.8593 25.1796L39.5939 25.0286C39.5193 24.6656 39.3628 24.3322 39.1406 24.0311L38.5372 24.4765ZM38.8593 25.1796L38.1246 25.3306C38.1282 25.3478 38.1402 25.4166 38.0464 25.573L38.6895 25.9588L39.3327 26.3447C39.5665 25.9549 39.6917 25.5043 39.5939 25.0286L38.8593 25.1796ZM38.6895 25.9588L38.0464 25.573C37.8887 25.8358 37.7944 26.1711 37.8874 26.5345C37.9756 26.8794 38.2019 27.1265 38.4251 27.2961L38.8789 26.699L39.3327 26.1018C39.2658 26.0511 39.3155 26.0646 39.3406 26.1628C39.3534 26.2128 39.3532 26.2618 39.3455 26.3013C39.3385 26.3377 39.3278 26.3527 39.3327 26.3447L38.6895 25.9588ZM38.8789 26.699L38.4251 27.2961C38.4874 27.3435 38.4003 27.3021 38.3792 27.1512C38.3567 26.9902 38.4369 26.9124 38.4038 26.9524L38.9812 27.431L39.5587 27.9096C39.7474 27.682 39.9214 27.3484 39.8648 26.9434C39.8096 26.5485 39.5604 26.2749 39.3327 26.1018L38.8789 26.699ZM38.9812 27.431L38.4038 26.9524C38.0971 27.3225 37.8777 27.8031 37.9871 28.3476L38.7224 28.1999L39.4577 28.0521C39.4611 28.0691 39.4562 28.0773 39.461 28.0632C39.4677 28.0433 39.4906 27.9918 39.5587 27.9096L38.9812 27.431ZM38.7224 28.1999L37.9871 28.3476C38.0695 28.7576 38.2849 29.1219 38.5636 29.4408L39.1283 28.9472L39.693 28.4536C39.5289 28.2659 39.4737 28.132 39.4577 28.0521L38.7224 28.1999ZM39.1283 28.9472L38.5636 29.4408C38.6299 29.5165 38.6582 29.5703 38.6699 29.6004C38.6803 29.6269 38.6795 29.6388 38.679 29.6444L39.426 29.7114L40.173 29.7783C40.2194 29.2607 40.0057 28.8113 39.693 28.4536L39.1283 28.9472ZM39.426 29.7114L38.679 29.6444C38.677 29.6667 38.6652 29.7448 38.5191 29.8791L39.0269 30.4311L39.5347 30.983C39.8748 30.6701 40.1291 30.2684 40.173 29.7783L39.426 29.7114ZM39.0269 30.4311L38.5191 29.8791C38.1474 30.2212 37.8934 30.6954 37.9783 31.2648L38.7201 31.1543L39.4619 31.0438C39.462 31.0446 39.4627 31.0503 39.4616 31.0586C39.4611 31.0625 39.4604 31.0659 39.4596 31.0686C39.4589 31.0713 39.4583 31.0726 39.4584 31.0725C39.4584 31.0725 39.472 31.0408 39.5347 30.983L39.0269 30.4311ZM38.7201 31.1543L37.9783 31.2648C38.0047 31.4422 38.0005 31.6078 37.9694 31.7657L38.7053 31.9107L39.4411 32.0556C39.5068 31.7221 39.5125 31.3834 39.4619 31.0438L38.7201 31.1543ZM38.7053 31.9107L37.9694 31.7657C37.9328 31.9515 37.8742 32.131 37.7927 32.3055L38.4723 32.6228L39.152 32.94C39.2842 32.6565 39.3809 32.3614 39.4411 32.0556L38.7053 31.9107ZM38.4723 32.6228L37.7927 32.3055C37.6876 32.5308 37.5813 32.7536 37.4738 32.9742L38.148 33.3027L38.8222 33.6313C38.9334 33.4031 39.0433 33.1727 39.152 32.94L38.4723 32.6228ZM38.148 33.3027L37.4738 32.9742C37.3786 33.1697 37.2709 33.3588 37.1509 33.5416L37.7777 33.9533L38.4046 34.3651C38.5596 34.1291 38.6989 33.8845 38.8222 33.6313L38.148 33.3027ZM37.7777 33.9533L37.1509 33.5416C36.8721 33.966 36.8437 34.4491 36.95 34.9016L37.6801 34.7301L38.4102 34.5586C38.3902 34.4732 38.3913 34.4224 38.3943 34.3981C38.3969 34.3774 38.4013 34.37 38.4046 34.3651L37.7777 33.9533ZM37.6801 34.7301L36.95 34.9016C36.9667 34.9726 36.9591 34.996 36.9609 34.9878C36.9618 34.9837 36.9641 34.9765 36.9683 34.9686C36.9725 34.9608 36.9758 34.9576 36.9746 34.9589L37.5164 35.4774L38.0582 35.996C38.4533 35.5832 38.5269 35.0554 38.4102 34.5586L37.6801 34.7301ZM37.5164 35.4774L36.9746 34.9589C36.6694 35.2777 36.4994 35.6715 36.4555 36.1047L37.2017 36.1802L37.9479 36.2556C37.9605 36.1313 38.0003 36.0566 38.0582 35.996L37.5164 35.4774ZM37.2017 36.1802L36.4555 36.1047C36.4545 36.1148 36.4535 36.1138 36.4566 36.1056C36.4581 36.1017 36.4604 36.0967 36.4635 36.0912C36.4666 36.0856 36.4701 36.0804 36.4739 36.0756C36.4818 36.0654 36.4876 36.0613 36.4867 36.062C36.4852 36.063 36.4752 36.07 36.4518 36.0796L36.7389 36.7725L37.026 37.4654C37.2605 37.3682 37.4838 37.2193 37.6559 36.9991C37.8302 36.776 37.9213 36.5187 37.9479 36.2556L37.2017 36.1802ZM36.7389 36.7725L36.4518 36.0796C36.042 36.2494 35.6907 36.5275 35.478 36.9398L36.1446 37.2836L36.8111 37.6274C36.8301 37.5906 36.875 37.528 37.026 37.4654L36.7389 36.7725ZM36.1446 37.2836L35.478 36.9398C35.3857 37.1188 35.2771 37.2848 35.152 37.4385L35.7338 37.9118L36.3156 38.3851C36.5066 38.1504 36.6718 37.8976 36.8111 37.6274L36.1446 37.2836ZM35.7338 37.9118L35.152 37.4385C34.9584 37.6765 34.7913 37.9365 34.6499 38.2166L35.3194 38.5545L35.989 38.8925C36.0841 38.7041 36.1932 38.5356 36.3156 38.3851L35.7338 37.9118ZM35.3194 38.5545L34.6499 38.2166C34.5802 38.3546 34.4908 38.4623 34.3796 38.5488L34.84 39.1408L35.3005 39.7328C35.592 39.5061 35.8222 39.2229 35.989 38.8925L35.3194 38.5545ZM34.84 39.1408L34.3796 38.5488C34.1897 38.6965 33.9963 38.838 33.7994 38.9734L34.2244 39.5914L34.6494 40.2094C34.8706 40.0573 35.0876 39.8984 35.3005 39.7328L34.84 39.1408ZM34.2244 39.5914L33.7994 38.9734C33.5906 39.117 33.3828 39.2597 33.1758 39.4016L33.5999 40.0202L34.024 40.6388C34.2316 40.4965 34.44 40.3533 34.6494 40.2094L34.2244 39.5914ZM33.5999 40.0202L33.1758 39.4016C32.9228 39.5751 32.6902 39.7755 32.4785 40.0017L33.0259 40.5143L33.5734 41.0269C33.7125 40.8784 33.8626 40.7494 34.024 40.6388L33.5999 40.0202ZM33.0259 40.5143L32.4785 40.0017C32.3142 40.1772 32.1436 40.3479 31.9668 40.5139L32.48 41.0608L32.9933 41.6076C33.1935 41.4197 33.3869 41.2261 33.5734 41.0269L33.0259 40.5143ZM32.48 41.0608L31.9668 40.5139C31.8281 40.6441 31.6771 40.7508 31.5127 40.8358L31.8571 41.502L32.2015 42.1683C32.4906 42.0188 32.755 41.8314 32.9933 41.6076L32.48 41.0608ZM31.8571 41.502L31.5127 40.8358C31.3125 40.9393 31.1067 41.0306 30.8952 41.1097L31.1579 41.8122L31.4207 42.5146C31.6879 42.4147 31.9483 42.2992 32.2015 42.1683L31.8571 41.502ZM31.1579 41.8122L30.8952 41.1097C30.8045 41.1436 30.6778 41.1612 30.4917 41.1267L30.355 41.8642L30.2183 42.6016C30.624 42.6768 31.0327 42.6597 31.4207 42.5146L31.1579 41.8122ZM30.355 41.8642L30.4917 41.1267C30.0625 41.0472 29.6221 41.0846 29.2223 41.3056L29.5852 41.962L29.9481 42.6184C29.9827 42.5992 30.0555 42.5714 30.2183 42.6016L30.355 41.8642ZM29.5852 41.962L29.2223 41.3056C28.9163 41.4748 28.6453 41.7052 28.4056 41.9802L28.971 42.473L29.5364 42.9658C29.6812 42.7996 29.8197 42.6893 29.9481 42.6184L29.5852 41.962ZM28.971 42.473L28.4056 41.9802C28.2952 42.1069 28.1983 42.1593 28.1155 42.1821L28.3147 42.9052L28.5139 43.6283C28.9216 43.516 29.2622 43.2803 29.5364 42.9658L28.971 42.473ZM28.3147 42.9052L28.1155 42.1821C27.9874 42.2174 27.8462 42.225 27.682 42.1945L27.5451 42.9319L27.4081 43.6693C27.7796 43.7383 28.1515 43.7281 28.5139 43.6283L28.3147 42.9052ZM27.5451 42.9319L27.682 42.1945C27.3773 42.1379 27.0767 42.1058 26.7809 42.0998L26.7656 42.8496L26.7503 43.5995C26.9582 43.6037 27.1773 43.6264 27.4081 43.6693L27.5451 42.9319ZM26.7656 42.8496L26.7809 42.0998C26.5232 42.0945 26.2676 42.0923 26.0141 42.0931L26.0165 42.8431L26.019 43.5931C26.2604 43.5923 26.5042 43.5944 26.7503 43.5995L26.7656 42.8496ZM26.0165 42.8431L26.0141 42.0931C25.7816 42.0939 25.5501 42.0877 25.3193 42.0744L25.2763 42.8232L25.2334 43.572C25.4945 43.5869 25.7564 43.594 26.019 43.5931L26.0165 42.8431ZM25.2763 42.8232L25.3193 42.0744C25.0058 42.0564 24.6936 42.0806 24.3844 42.1459L24.5393 42.8797L24.6942 43.6136C24.8758 43.5752 25.0549 43.5617 25.2334 43.572L25.2763 42.8232ZM24.5393 42.8797L24.3844 42.1459C24.2199 42.1806 24.0592 42.187 23.8986 42.1666L23.8037 42.9105L23.7087 43.6545C24.0383 43.6966 24.368 43.6824 24.6942 43.6136L24.5393 42.8797ZM23.8037 42.9105L23.8986 42.1666C23.7111 42.1426 23.5255 42.0971 23.341 42.0289L23.0811 42.7325L22.8213 43.436C23.11 43.5427 23.4062 43.6159 23.7087 43.6545L23.8037 42.9105ZM23.0811 42.7325L23.341 42.0289C22.8742 41.8565 22.4052 41.9234 21.9892 42.1288L22.3212 42.8013L22.6532 43.4738C22.7772 43.4126 22.8148 43.4336 22.8213 43.436L23.0811 42.7325ZM22.3212 42.8013L21.9892 42.1288C21.7843 42.2299 21.5958 42.2864 21.4214 42.3089L21.5174 43.0527L21.6134 43.7965C21.9708 43.7504 22.318 43.6393 22.6532 43.4738L22.3212 42.8013ZM21.5174 43.0527L21.4214 42.3089C21.3118 42.323 21.2269 42.3052 21.1412 42.2572L20.7747 42.9116L20.4083 43.566C20.7811 43.7748 21.1913 43.851 21.6134 43.7965L21.5174 43.0527ZM20.7747 42.9116L21.1412 42.2572C20.8827 42.1125 20.6188 41.9874 20.3497 41.8828L20.0779 42.5818L19.8061 43.2808C20.0076 43.3592 20.2083 43.454 20.4083 43.566L20.7747 42.9116ZM20.0779 42.5818L20.3497 41.8828C20.0902 41.7819 19.826 41.6946 19.5571 41.6208L19.3587 42.3441L19.1604 43.0674C19.3796 43.1276 19.5948 43.1987 19.8061 43.2808L20.0779 42.5818ZM19.3587 42.3441L19.5571 41.6208C19.3407 41.5615 19.1286 41.49 18.9206 41.4064L18.6407 42.1022L18.3608 42.798C18.6221 42.9031 18.8887 42.9929 19.1604 43.0674L19.3587 42.3441ZM18.6407 42.1022L18.9206 41.4064C18.8531 41.3792 18.7731 41.3241 18.6876 41.1894L18.0544 41.5912L17.4211 41.9931C17.6481 42.3509 17.959 42.6364 18.3608 42.798L18.6407 42.1022ZM18.0544 41.5912L18.6876 41.1894C18.4046 40.7433 17.963 40.4758 17.4222 40.4597L17.3999 41.2093L17.3776 41.959C17.3935 41.9595 17.4007 41.9614 17.4013 41.9616C17.4016 41.9616 17.399 41.9609 17.3956 41.9588C17.3922 41.9569 17.3923 41.9562 17.3958 41.9598C17.3997 41.9636 17.4087 41.9735 17.4211 41.9931L18.0544 41.5912ZM17.3999 41.2093L17.4222 40.4597C17.2867 40.4556 17.2102 40.4197 17.1542 40.3747L16.6843 40.9593L16.2144 41.5438C16.5525 41.8156 16.953 41.9464 17.3776 41.959L17.3999 41.2093ZM16.6843 40.9593L17.1542 40.3747C16.9368 40.1999 16.7114 40.0374 16.478 39.8874L16.0723 40.5182L15.6666 41.149C15.8552 41.2703 16.0378 41.4018 16.2144 41.5438L16.6843 40.9593ZM16.0723 40.5182L16.478 39.8874C16.3036 39.7752 16.1401 39.6488 15.9873 39.5079L15.4789 40.0593L14.9705 40.6107C15.187 40.8103 15.4192 40.9898 15.6666 41.149L16.0723 40.5182ZM15.4789 40.0593L15.9873 39.5079C15.8731 39.4026 15.7741 39.2722 15.692 39.109L15.0219 39.4458L14.3518 39.7827C14.5097 40.0969 14.7153 40.3754 14.9705 40.6107L15.4789 40.0593ZM15.0219 39.4458L15.692 39.109C15.3988 38.5257 14.8271 38.3379 14.2957 38.3474L14.3092 39.0973L14.3227 39.8472C14.3698 39.8464 14.4001 39.8499 14.4169 39.853C14.4333 39.856 14.4338 39.8581 14.4243 39.8534C14.4138 39.8483 14.3978 39.8382 14.3815 39.8221C14.3653 39.806 14.356 39.791 14.3518 39.7827L15.0219 39.4458ZM14.3092 39.0973L14.2957 38.3474C14.2347 38.3485 14.3596 38.3312 14.4799 38.4657C14.5926 38.5918 14.5616 38.6973 14.5685 38.6109L13.8209 38.5512L13.0733 38.4915C13.0506 38.7756 13.0862 39.1574 13.3617 39.4655C13.6447 39.7821 14.0286 39.8525 14.3227 39.8472L14.3092 39.0973ZM13.8209 38.5512L14.5685 38.6109C14.6061 38.1397 14.5348 37.6134 14.163 37.2159L13.6152 37.7282L13.0674 38.2405C13.0508 38.2226 13.0557 38.2161 13.064 38.2494C13.0735 38.2873 13.0835 38.3634 13.0733 38.4915L13.8209 38.5512ZM13.6152 37.7282L14.163 37.2159C13.9281 36.9648 13.6467 36.7631 13.3308 36.605L12.9953 37.2758L12.6597 37.9465C12.837 38.0352 12.9689 38.1351 13.0674 38.2405L13.6152 37.7282ZM12.9953 37.2758L13.3308 36.605C13.1142 36.4967 12.9083 36.3756 12.7126 36.2416L12.289 36.8605L11.8653 37.4793C12.1181 37.6524 12.383 37.8081 12.6597 37.9465L12.9953 37.2758ZM12.289 36.8605L12.7126 36.2416C12.5717 36.1451 12.471 36.0364 12.3985 35.9157L11.7554 36.3015L11.1123 36.6874C11.3027 37.0049 11.5577 37.2688 11.8653 37.4793L12.289 36.8605ZM11.7554 36.3015L12.3985 35.9157C12.2651 35.6932 12.1296 35.4714 11.9921 35.2503L11.3552 35.6462L10.7182 36.0422C10.8515 36.2566 10.9829 36.4717 11.1123 36.6874L11.7554 36.3015ZM11.3552 35.6462L11.9921 35.2503C11.9921 35.2503 11.9922 35.2504 11.9923 35.2507C11.9925 35.2509 11.9927 35.2513 11.9928 35.2517C11.9932 35.2525 11.9934 35.2531 11.9935 35.2533C11.9937 35.2539 11.9922 35.2498 11.9917 35.2388C11.9904 35.2153 11.993 35.1593 12.0247 35.0618L11.3116 34.8296L10.5984 34.5974C10.4483 35.0587 10.4296 35.578 10.7182 36.0422L11.3552 35.6462ZM11.3116 34.8296L12.0247 35.0618C12.1846 34.5708 12.1759 34.001 11.764 33.5452L11.2076 34.048L10.6512 34.5509C10.6467 34.546 10.639 34.5358 10.6322 34.521C10.6253 34.5062 10.6227 34.494 10.6219 34.4881C10.6206 34.4785 10.6271 34.5094 10.5984 34.5974L11.3116 34.8296ZM11.2076 34.048L11.764 33.5452C11.6896 33.4629 11.6566 33.3846 11.6463 33.2939L10.9011 33.3786L10.1559 33.4634C10.2029 33.8764 10.3742 34.2445 10.6512 34.5509L11.2076 34.048ZM10.9011 33.3786L11.6463 33.2939C11.6037 32.9191 11.473 32.5712 11.2623 32.2582L10.6402 32.6771L10.018 33.0959C10.0979 33.2146 10.1412 33.3343 10.1559 33.4634L10.9011 33.3786ZM10.6402 32.6771L11.2623 32.2582C11.185 32.1434 11.1461 32.0304 11.1352 31.91L10.3882 31.9776L9.64128 32.0453C9.67572 32.4259 9.80476 32.7792 10.018 33.0959L10.6402 32.6771ZM10.3882 31.9776L11.1352 31.91C11.0949 31.4647 10.8932 31.0801 10.5992 30.7629L10.0491 31.2727L9.49902 31.7825C9.61187 31.9043 9.63624 31.9896 9.64128 32.0453L10.3882 31.9776ZM10.0491 31.2727L10.5992 30.7629C10.5983 30.7619 10.6142 30.7788 10.6294 30.8155C10.6456 30.8547 10.6546 30.9012 10.6529 30.9481C10.6496 31.0379 10.6118 31.0553 10.6647 30.9884L10.0765 30.5232L9.48825 30.0579C9.31947 30.2712 9.16629 30.5537 9.15389 30.8933C9.14069 31.2549 9.29082 31.5579 9.49902 31.7825L10.0491 31.2727ZM10.0765 30.5232L10.6647 30.9884C10.8374 30.7701 10.9881 30.4842 10.9979 30.1419C11.0082 29.7836 10.861 29.4823 10.6595 29.2552L10.0985 29.753L9.53756 30.2508C9.54276 30.2567 9.53124 30.2453 9.51899 30.2153C9.50582 30.1829 9.4973 30.1421 9.49854 30.099C9.50099 30.0135 9.53718 29.996 9.48825 30.0579L10.0765 30.5232ZM10.0985 29.753L10.6595 29.2552C10.6127 29.2024 10.6074 29.1782 10.6092 29.1842C10.6101 29.1872 10.6113 29.1932 10.6114 29.2007C10.6115 29.208 10.6105 29.2113 10.6111 29.2088L9.88411 29.0245L9.1571 28.8402C9.01947 29.3832 9.20298 29.8737 9.53756 30.2508L10.0985 29.753ZM9.88411 29.0245L10.6111 29.2088C10.6819 28.9295 10.736 28.6512 10.7731 28.3738L10.0297 28.2744L9.28634 28.1751C9.25723 28.3929 9.21429 28.6146 9.1571 28.8402L9.88411 29.0245ZM10.0297 28.2744L10.7731 28.3738C10.8295 27.9522 10.7392 27.5453 10.5542 27.171L9.88184 27.5034L9.2095 27.8357C9.28788 27.9943 9.29619 28.1014 9.28634 28.1751L10.0297 28.2744ZM9.88184 27.5034L10.5542 27.171C10.5445 27.1514 10.5425 27.1423 10.5427 27.143C10.543 27.1443 10.5446 27.1528 10.5437 27.1661C10.5433 27.1724 10.5424 27.1786 10.5411 27.1845C10.5399 27.1903 10.5384 27.1949 10.5372 27.198C10.5348 27.2045 10.5345 27.2024 10.542 27.1917L9.93081 26.7571L9.3196 26.3225C9.16819 26.5354 9.06539 26.7864 9.04692 27.0679C9.02859 27.3471 9.09646 27.6071 9.2095 27.8357L9.88184 27.5034ZM9.93081 26.7571L10.542 27.1917C10.7488 26.901 10.9062 26.5898 11.0021 26.2584L10.2816 26.05L9.56116 25.8416C9.51798 25.9908 9.44152 26.151 9.3196 26.3225L9.93081 26.7571ZM10.2816 26.05L11.0021 26.2584C11.0394 26.1294 11.1082 25.9979 11.2235 25.8623L10.652 25.3765L10.0806 24.8907C9.84103 25.1725 9.66288 25.49 9.56116 25.8416L10.2816 26.05ZM10.652 25.3765L11.2235 25.8623C11.4008 25.6536 11.5194 25.4009 11.5517 25.1147C11.5831 24.8357 11.5274 24.5712 11.4317 24.3366L10.7372 24.6197L10.0427 24.9028C10.0677 24.964 10.0581 24.9736 10.0611 24.9469C10.0626 24.9338 10.0664 24.9192 10.0723 24.906C10.078 24.8933 10.0827 24.8883 10.0806 24.8907L10.652 25.3765ZM10.7372 24.6197L11.4317 24.3366C11.3659 24.1751 11.3945 24.1264 11.3951 24.1249L10.7065 23.8278L10.0178 23.5308C9.81823 23.9934 9.86732 24.4726 10.0427 24.9028L10.7372 24.6197ZM10.7065 23.8278L11.3951 24.1249C11.4602 23.9741 11.5532 23.8298 11.6801 23.6912L11.1272 23.1845L10.5742 22.6779C10.3404 22.933 10.153 23.2175 10.0178 23.5308L10.7065 23.8278ZM11.1272 23.1845L11.6801 23.6912C11.8795 23.4737 12.0622 23.2498 12.2276 23.0194L11.6183 22.582L11.009 22.1447C10.8803 22.324 10.7356 22.5017 10.5742 22.6779L11.1272 23.1845ZM11.6183 22.582L12.2276 23.0194C12.4188 22.7529 12.5663 22.4633 12.6679 22.1526L11.9551 21.9194L11.2423 21.6863C11.1889 21.8493 11.1118 22.0014 11.009 22.1447L11.6183 22.582ZM11.9551 21.9194L12.6679 22.1526C12.7633 21.861 12.8261 21.5558 12.8587 21.2389L12.1126 21.1622L11.3666 21.0855C11.344 21.3045 11.3018 21.5041 11.2423 21.6863L11.9551 21.9194ZM12.1126 21.1622L12.8587 21.2389C12.88 21.0316 12.9248 20.8415 12.9908 20.6663L12.289 20.4019L11.5871 20.1375C11.4731 20.44 11.4004 20.7568 11.3666 21.0855L12.1126 21.1622ZM12.289 20.4019L12.9908 20.6663C13.0774 20.4366 13.1686 20.208 13.2644 19.9808L12.5733 19.6893L11.8822 19.3979C11.7789 19.643 11.6805 19.8895 11.5871 20.1375L12.289 20.4019ZM12.5733 19.6893L13.2644 19.9808C13.2629 19.9843 13.2598 19.9899 13.2553 19.9956C13.2509 20.001 13.2487 20.0021 13.2522 19.9996C13.2604 19.9936 13.2987 19.9691 13.3929 19.9467L13.2195 19.217L13.0461 18.4873C12.5656 18.6015 12.1036 18.8731 11.8822 19.3979L12.5733 19.6893ZM13.2195 19.217L13.3929 19.9467C13.6765 19.8793 13.9848 19.7299 14.1936 19.4264C14.4021 19.1234 14.4318 18.7825 14.3946 18.4944L13.6508 18.5903L12.9069 18.6862C12.9135 18.7371 12.8932 18.6702 12.9579 18.5761C13.023 18.4816 13.0938 18.476 13.0461 18.4873L13.2195 19.217ZM13.6508 18.5903L14.3946 18.4944C14.3827 18.4023 14.3943 18.3704 14.3925 18.376C14.3913 18.3798 14.3874 18.3895 14.3792 18.4014C14.371 18.4134 14.3626 18.4214 14.3578 18.4252L13.8907 17.8384L13.4237 17.2516C12.9508 17.6279 12.8416 18.1793 12.9069 18.6862L13.6508 18.5903ZM13.8907 17.8384L14.3578 18.4252C14.6085 18.2257 14.8306 18.0001 15.022 17.7485L14.4251 17.2944L13.8282 16.8404C13.7145 16.9898 13.5804 17.1268 13.4237 17.2516L13.8907 17.8384ZM14.4251 17.2944L15.022 17.7485C15.1169 17.6237 15.2355 17.5152 15.384 17.4229L14.9882 16.7859L14.5923 16.1489C14.2951 16.3336 14.0383 16.5641 13.8282 16.8404L14.4251 17.2944ZM14.9882 16.7859L15.384 17.4229C15.7145 17.2175 15.979 16.9408 16.1662 16.5995L15.5086 16.2388L14.851 15.8781C14.79 15.9893 14.7076 16.0773 14.5923 16.1489L14.9882 16.7859ZM15.5086 16.2388L16.1662 16.5995C16.203 16.5323 16.2546 16.4805 16.3568 16.4386L16.0723 15.7447L15.7878 15.0507C15.3866 15.2152 15.0624 15.4928 14.851 15.8781L15.5086 16.2388ZM16.0723 15.7447L16.3568 16.4386C16.7601 16.2733 17.084 15.9933 17.2958 15.6072L16.6381 15.2465L15.9805 14.8859C15.9412 14.9576 15.8879 15.0097 15.7878 15.0507L16.0723 15.7447ZM16.6381 15.2465L17.2958 15.6072C17.3008 15.5979 17.3043 15.5939 17.3053 15.5928C17.3062 15.5918 17.307 15.5909 17.309 15.5896C17.312 15.5876 17.3333 15.5736 17.391 15.5632L17.2575 14.8252L17.1239 14.0872C16.6438 14.174 16.2287 14.4334 15.9805 14.8859L16.6381 15.2465ZM17.2575 14.8252L17.391 15.5632C17.6857 15.5099 17.9685 15.3668 18.1777 15.1067C18.3773 14.8586 18.4594 14.5668 18.4853 14.2989L17.7388 14.2268L16.9922 14.1547C16.9846 14.2337 16.9698 14.2151 17.0089 14.1665C17.029 14.1415 17.0548 14.1199 17.082 14.1046C17.1079 14.09 17.1249 14.087 17.1239 14.0872L17.2575 14.8252ZM17.7388 14.2268L18.4853 14.2989C18.4942 14.2065 18.501 14.1183 18.5028 14.0439C18.5036 14.0089 18.5039 13.9573 18.4988 13.9017C18.4964 13.8746 18.491 13.8278 18.4773 13.7727C18.4685 13.7372 18.4347 13.6018 18.3253 13.4685C18.2632 13.3927 18.1569 13.2939 17.9959 13.2362C17.8259 13.1754 17.658 13.1831 17.5206 13.2252C17.2918 13.2953 17.1703 13.451 17.1453 13.4827C17.0713 13.5763 17.0329 13.6712 17.0238 13.693C16.9929 13.7674 16.9661 13.8543 16.9444 13.9299L17.6652 14.1371L18.386 14.3444C18.4055 14.2764 18.4128 14.2594 18.4086 14.2695C18.4067 14.2742 18.4008 14.2879 18.391 14.3069C18.3832 14.3218 18.3608 14.3638 18.3219 14.4131C18.3017 14.4386 18.1847 14.5906 17.9598 14.6594C17.8244 14.7009 17.6584 14.7087 17.4902 14.6484C17.3309 14.5914 17.2263 14.4938 17.1657 14.4199C17.0594 14.2904 17.0282 14.1612 17.0216 14.1344C17.01 14.0879 17.0064 14.0523 17.0051 14.0389C17.0025 14.0105 17.0035 13.9962 17.0032 14.0082C17.0028 14.028 17.0001 14.0737 16.9922 14.1547L17.7388 14.2268ZM17.6652 14.1371L16.9444 13.9299C16.844 14.2792 16.7929 14.6283 16.8037 14.9727L17.5533 14.9493L18.3029 14.9259C18.2978 14.7617 18.3213 14.5693 18.386 14.3444L17.6652 14.1371ZM17.5533 14.9493L16.8037 14.9727C16.8193 15.4727 17.0677 15.8966 17.3876 16.2371L17.9342 15.7237L18.4809 15.2102C18.3088 15.0269 18.3032 14.9346 18.3029 14.9259L17.5533 14.9493ZM17.9342 15.7237L17.3876 16.2371C17.4647 16.3192 17.4884 16.3686 17.4938 16.3823C17.4959 16.3879 17.494 16.3848 17.493 16.3744C17.4919 16.3635 17.4924 16.3513 17.4946 16.3401L18.2304 16.4854L18.9662 16.6307C19.0797 16.056 18.8161 15.5671 18.4809 15.2102L17.9342 15.7237ZM18.2304 16.4854L17.4946 16.3401C17.4563 16.5343 17.3956 16.7346 17.3102 16.9414L18.0034 17.2276L18.6966 17.5139C18.8168 17.2228 18.9074 16.9283 18.9662 16.6307L18.2304 16.4854ZM18.0034 17.2276L17.3102 16.9414C17.2129 17.177 17.1059 17.4168 16.9892 17.6608L17.6658 17.9845L18.3424 18.3081C18.4703 18.0408 18.5884 17.776 18.6966 17.5139L18.0034 17.2276ZM17.6658 17.9845L16.9892 17.6608C16.7649 18.1297 16.7732 18.6341 17.0244 19.0945L17.6828 18.7352L18.3411 18.3759C18.3325 18.3601 18.3295 18.3507 18.3285 18.3474C18.3277 18.3445 18.3281 18.3448 18.3281 18.3469C18.3282 18.349 18.3278 18.3484 18.3289 18.3437C18.3301 18.3386 18.3334 18.3269 18.3424 18.3081L17.6658 17.9845ZM17.6828 18.7352L17.0244 19.0945C17.1033 19.2389 17.1305 19.3622 17.1293 19.4732L17.8793 19.4809L18.6293 19.4887C18.6333 19.0951 18.5295 18.7211 18.3411 18.3759L17.6828 18.7352ZM17.8793 19.4809L17.1293 19.4732C17.1261 19.7839 17.1589 20.0913 17.2276 20.3942L17.959 20.2284L18.6905 20.0625C18.6476 19.8735 18.6273 19.6826 18.6293 19.4887L17.8793 19.4809ZM17.959 20.2284L17.2276 20.3942C17.2895 20.6673 17.3665 20.9365 17.4584 21.2016L18.167 20.956L18.8757 20.7103C18.8018 20.4973 18.7401 20.2814 18.6905 20.0625L17.959 20.2284ZM18.167 20.956L17.4584 21.2016C17.5061 21.3392 17.5257 21.4863 17.513 21.6505L18.2607 21.7087L19.0084 21.7669C19.0365 21.4056 18.9937 21.051 18.8757 20.7103L18.167 20.956ZM18.2607 21.7087L17.513 21.6505C17.4863 21.9934 17.5146 22.3317 17.6006 22.6616L18.3264 22.4725L19.0521 22.2834C19.0096 22.1203 18.9942 21.9494 19.0084 21.7669L18.2607 21.7087ZM18.3264 22.4725L17.6006 22.6616C17.6543 22.8676 17.6928 23.0859 17.7152 23.3174L18.4618 23.2451L19.2083 23.1728C19.1787 22.8671 19.1269 22.5704 19.0521 22.2834L18.3264 22.4725ZM18.4618 23.2451L17.7152 23.3174C17.7673 23.855 18.0707 24.2649 18.5075 24.5244L18.8906 23.8797L19.2738 23.235C19.2474 23.2193 19.2312 23.2064 19.2219 23.198C19.2129 23.1899 19.21 23.1854 19.2099 23.1853C19.2097 23.185 19.2099 23.1853 19.2102 23.1859C19.2103 23.1861 19.2104 23.1864 19.2105 23.1866C19.2106 23.1868 19.2107 23.1869 19.2107 23.1869C19.2106 23.1869 19.2106 23.1867 19.2104 23.1862C19.2103 23.1858 19.2101 23.185 19.2099 23.184C19.2094 23.1819 19.2088 23.1783 19.2083 23.1728L18.4618 23.2451ZM18.8906 23.8797L18.5075 24.5244C18.5523 24.5511 18.5643 24.5693 18.5662 24.5722C18.5676 24.5744 18.5763 24.587 18.5805 24.6265L19.3264 24.5482L20.0723 24.4698C20.016 23.9343 19.7294 23.5057 19.2738 23.235L18.8906 23.8797ZM19.3264 24.5482L18.5805 24.6265C18.631 25.1074 18.8497 25.5287 19.2394 25.8317L19.6998 25.2396L20.1601 24.6475C20.1131 24.611 20.0829 24.5714 20.0723 24.4698L19.3264 24.5482ZM19.6998 25.2396L19.2394 25.8317C19.4618 26.0046 19.685 26.1745 19.9092 26.3415L20.3573 25.7401L20.8054 25.1386C20.5895 24.9778 20.3744 24.8141 20.1601 24.6475L19.6998 25.2396ZM20.3573 25.7401L19.9092 26.3415C20.2729 26.6125 20.6961 26.7363 21.1459 26.7158L21.1118 25.9666L21.0778 25.2174C20.9616 25.2227 20.8817 25.1955 20.8054 25.1386L20.3573 25.7401ZM21.1118 25.9666L21.1459 26.7158C21.5114 26.6992 21.8635 26.6236 22.1971 26.4854L21.9102 25.7925L21.6233 25.0996C21.4584 25.1678 21.2783 25.2083 21.0778 25.2174L21.1118 25.9666ZM21.9102 25.7925L22.1971 26.4854C22.3924 26.4046 22.5623 26.3613 22.7094 26.3449L22.6262 25.5995L22.543 24.8541C22.2339 24.8886 21.9266 24.974 21.6233 25.0996L21.9102 25.7925ZM22.6262 25.5995L22.7094 26.3449C22.8392 26.3304 23.0021 26.3382 23.205 26.3844L23.3714 25.6531L23.5379 24.9218C23.2033 24.8456 22.8693 24.8177 22.543 24.8541L22.6262 25.5995ZM23.3714 25.6531L23.205 26.3844C23.7227 26.5023 24.227 26.363 24.5957 25.9544L24.0388 25.452L23.4819 24.9497C23.4762 24.9559 23.4771 24.9536 23.4857 24.9479C23.4948 24.9419 23.5078 24.9353 23.5234 24.9306C23.5389 24.926 23.5505 24.9251 23.5554 24.925C23.5597 24.925 23.5545 24.9256 23.5379 24.9218L23.3714 25.6531ZM24.0388 25.452L24.5957 25.9544C24.6598 25.8833 24.7353 25.8377 24.8495 25.815L24.703 25.0795L24.5564 24.3439C24.1372 24.4274 23.77 24.6302 23.4819 24.9497L24.0388 25.452ZM24.703 25.0795L24.8495 25.815C25.3126 25.7227 25.6996 25.4646 25.9454 25.0473L25.2992 24.6667L24.6529 24.2861C24.639 24.3098 24.6293 24.3169 24.6251 24.3198C24.62 24.3233 24.6017 24.3349 24.5564 24.3439L24.703 25.0795ZM25.2992 24.6667L25.9454 25.0473C26.0706 24.8347 26.1973 24.6303 26.3252 24.4342L25.6971 24.0244L25.0689 23.6146C24.9279 23.8308 24.7892 24.0546 24.6529 24.2861L25.2992 24.6667ZM25.6971 24.0244L26.3252 24.4342C26.4933 24.1765 26.6282 23.9011 26.7299 23.6093L26.0217 23.3625L25.3135 23.1157C25.2513 23.2941 25.1698 23.4599 25.0689 23.6146L25.6971 24.0244ZM26.0217 23.3625L26.7299 23.6093C26.8404 23.2923 26.8947 22.9624 26.8953 22.6236L26.1453 22.6222L25.3953 22.6208C25.395 22.7989 25.3669 22.9625 25.3135 23.1157L26.0217 23.3625ZM26.1453 22.6222L26.8953 22.6236C26.8956 22.4916 26.9259 22.3861 26.9812 22.2913L26.3334 21.9134L25.6856 21.5354C25.4911 21.8688 25.396 22.2359 25.3953 22.6208L26.1453 22.6222ZM26.3334 21.9134L26.9812 22.2913C27.082 22.1185 27.2089 21.9393 27.3648 21.7539L26.7907 21.2712L26.2167 20.7885C26.0126 21.0312 25.8346 21.28 25.6856 21.5354L26.3334 21.9134ZM26.7907 21.2712L27.3648 21.7539C27.6302 21.4382 27.8024 21.068 27.8463 20.6523L27.1005 20.5735L26.3546 20.4947C26.3455 20.5813 26.3112 20.6762 26.2167 20.7885L26.7907 21.2712ZM27.1005 20.5735L27.8463 20.6523C27.871 20.4189 27.9039 20.1867 27.9451 19.9558L27.2068 19.8241L26.4684 19.6924C26.421 19.9584 26.383 20.2259 26.3546 20.4947L27.1005 20.5735ZM27.2068 19.8241L27.9451 19.9558C28.031 19.4743 27.8916 19.0269 27.6367 18.6471L27.0139 19.065L26.3912 19.483C26.482 19.6183 26.4712 19.677 26.4684 19.6924L27.2068 19.8241ZM27.0139 19.065L27.6367 18.6471C27.6266 18.632 27.6286 18.6311 27.6328 18.6441C27.6374 18.6585 27.6421 18.6822 27.641 18.7118C27.6399 18.7412 27.6333 18.7639 27.6281 18.7769C27.6234 18.7885 27.6221 18.7863 27.6341 18.7709L27.043 18.3093L26.4519 17.8477C26.2824 18.0648 26.1543 18.3366 26.1421 18.6541C26.1299 18.9721 26.237 19.2533 26.3912 19.483L27.0139 19.065ZM27.043 18.3093L27.6341 18.7709C27.8008 18.5575 27.932 18.2865 27.9432 17.9671C27.9545 17.6442 27.8398 17.3623 27.6776 17.1367L27.0687 17.5745L26.4597 18.0124C26.4673 18.0229 26.4622 18.0187 26.4557 17.9996C26.4487 17.979 26.4429 17.9494 26.4441 17.9148C26.4467 17.8403 26.4775 17.815 26.4519 17.8477L27.043 18.3093ZM27.0687 17.5745L27.6776 17.1367C27.554 16.9648 27.4986 16.8235 27.4783 16.711L26.7402 16.8439L26.002 16.9768C26.0694 17.3512 26.233 17.697 26.4597 18.0124L27.0687 17.5745ZM26.7402 16.8439L27.4783 16.711C27.4465 16.5345 27.4387 16.3556 27.4553 16.1724L26.7084 16.1046L25.9614 16.0367C25.9328 16.3523 25.9461 16.6663 26.002 16.9768L26.7402 16.8439ZM26.7084 16.1046L27.4553 16.1724C27.4628 16.0896 27.504 15.9483 27.6476 15.7412L27.0313 15.3138L26.415 14.8864C26.1733 15.2349 25.9992 15.6208 25.9614 16.0367L26.7084 16.1046ZM27.0313 15.3138L27.6476 15.7412C27.9176 15.3519 28.0836 14.8789 27.9735 14.3669L27.2402 14.5246L26.507 14.6823C26.5071 14.6827 26.5098 14.6906 26.503 14.7162C26.4952 14.7459 26.4733 14.8023 26.415 14.8864L27.0313 15.3138ZM27.2402 14.5246L27.9735 14.3669C27.8751 13.9094 27.601 13.5439 27.2543 13.2606L26.7798 13.8414L26.3053 14.4222C26.4657 14.5533 26.4986 14.6432 26.507 14.6823L27.2402 14.5246ZM26.7798 13.8414L27.2543 13.2606C27.2015 13.2175 27.211 13.208 27.2239 13.2425C27.2304 13.2595 27.2343 13.279 27.2349 13.2975C27.2354 13.3154 27.2327 13.3242 27.2335 13.3213L26.5098 13.1246L25.786 12.9279C25.7122 13.1996 25.7141 13.4896 25.8202 13.7712C25.9232 14.0446 26.1045 14.2582 26.3053 14.4222L26.7798 13.8414ZM26.5098 13.1246L27.2335 13.3213C27.3184 13.0087 27.3745 12.6958 27.4 12.3831L26.6525 12.322L25.905 12.261C25.8874 12.4769 25.8482 12.699 25.786 12.9279L26.5098 13.1246ZM26.6525 12.322L27.4 12.3831C27.4384 11.9131 27.2916 11.482 26.9942 11.1258L26.4185 11.6065L25.8428 12.0871C25.9005 12.1563 25.9098 12.2023 25.905 12.261L26.6525 12.322ZM26.4185 11.6065L26.9942 11.1258C26.8711 10.9784 26.7937 10.8359 26.7488 10.6981L26.0357 10.9307L25.3227 11.1633C25.4329 11.501 25.6106 11.8091 25.8428 12.0871L26.4185 11.6065ZM26.0357 10.9307L26.7488 10.6981C26.6373 10.3564 26.4557 10.048 26.2164 9.77418L25.6517 10.2678L25.0871 10.7614C25.2046 10.8959 25.279 11.0294 25.3227 11.1633L26.0357 10.9307ZM25.6517 10.2678L26.2164 9.77418C26.0775 9.61538 25.9717 9.45603 25.8937 9.29659L25.2199 9.62602L24.5462 9.95546C24.687 10.2435 24.869 10.512 25.0871 10.7614L25.6517 10.2678ZM25.2199 9.62602L25.8937 9.29659C25.9069 9.32361 25.9033 9.34092 25.9048 9.32597C25.907 9.30376 25.919 9.24275 25.9725 9.1362L25.3023 8.79967L24.632 8.46313C24.4141 8.89707 24.2923 9.43618 24.5462 9.95546L25.2199 9.62602ZM25.3023 8.79967L25.9725 9.1362C26.1937 8.69561 26.3099 8.15048 26.0434 7.62887L25.3755 7.97014L24.7077 8.3114C24.7029 8.30204 24.6995 8.29167 24.6979 8.28267C24.6963 8.27414 24.6974 8.27265 24.6967 8.2809C24.695 8.30016 24.6845 8.35856 24.632 8.46313L25.3023 8.79967ZM25.3755 7.97014L26.0434 7.62887C25.8995 7.34722 25.7211 7.08454 25.5106 6.84104L24.9432 7.33158L24.3759 7.82212C24.511 7.97833 24.6208 8.14136 24.7077 8.3114L25.3755 7.97014ZM24.9432 7.33158L25.5106 6.84104C25.4027 6.7163 25.332 6.58681 25.2897 6.4493L24.5728 6.66943L23.8558 6.88956C23.9619 7.23521 24.1381 7.54715 24.3759 7.82212L24.9432 7.33158ZM24.5728 6.66943L25.2897 6.4493C25.2267 6.24386 25.2058 6.10827 25.2033 6.02905L24.4537 6.0521L23.704 6.07514C23.712 6.33587 23.7705 6.61184 23.8558 6.88956L24.5728 6.66943ZM24.4537 6.0521L25.2033 6.02905C25.201 5.9518 25.1923 5.85531 25.1654 5.75341C25.1396 5.65616 25.0846 5.50576 24.9568 5.36864C24.812 5.21318 24.6136 5.11883 24.3981 5.10702C24.2077 5.09659 24.0549 5.15282 23.9628 5.19701L24.2871 5.87328L24.6114 6.54954C24.5721 6.56835 24.466 6.613 24.316 6.60477C24.1408 6.59517 23.9765 6.51683 23.8594 6.39118C23.7594 6.28386 23.7258 6.17706 23.7153 6.1372C23.7035 6.09271 23.7038 6.0674 23.704 6.07514L24.4537 6.0521ZM24.2871 5.87328L23.9628 5.19701C23.9167 5.21911 23.8459 5.25716 23.7732 5.31826C23.7043 5.37619 23.5864 5.49452 23.5259 5.68643C23.3679 6.18792 23.7391 6.49792 23.8215 6.55788C23.9348 6.64021 24.0527 6.68262 24.1132 6.70284C24.188 6.72785 24.2677 6.74812 24.3451 6.76515L24.5064 6.03271L24.6678 5.30027C24.6191 5.28955 24.5951 5.28234 24.5886 5.28018C24.5678 5.27324 24.6268 5.28878 24.7035 5.34454C24.7427 5.37306 24.8333 5.44523 24.9034 5.57505C24.986 5.72791 25.0217 5.93056 24.9566 6.13715C24.9002 6.31608 24.7919 6.42149 24.7383 6.46658C24.6809 6.51485 24.631 6.54014 24.6114 6.54954L24.2871 5.87328ZM22.0694 4.40191L21.3251 4.49436C21.3916 5.02976 21.7049 5.43226 22.1539 5.67598L22.5117 5.01684L22.8695 4.3577C22.8204 4.33101 22.8107 4.31444 22.8138 4.31865C22.8148 4.32008 22.8159 4.32214 22.8163 4.32333C22.8167 4.32429 22.815 4.32044 22.8137 4.30946L22.0694 4.40191ZM22.5117 5.01684L22.1539 5.67598C22.3618 5.78882 22.5301 5.91302 22.6655 6.0453L23.1897 5.50884L23.7138 4.97238C23.4684 4.73269 23.1849 4.52889 22.8695 4.3577L22.5117 5.01684ZM23.1897 5.50884L22.6655 6.0453C22.7192 6.09776 22.7457 6.15006 22.7511 6.24076L23.4998 6.19563L24.2484 6.15049C24.2211 5.69745 24.0408 5.29189 23.7138 4.97238L23.1897 5.50884ZM23.4998 6.19563L22.7511 6.24076C22.7643 6.4587 22.7547 6.69063 22.72 6.93771L23.4627 7.04217L24.2054 7.14662C24.2529 6.80872 24.2681 6.47629 24.2484 6.15049L23.4998 6.19563ZM23.4627 7.04217L22.72 6.93771C22.6823 7.20578 22.7091 7.49081 22.8409 7.76043C22.9717 8.02796 23.1778 8.22305 23.4043 8.36083L23.7941 7.72009L24.1839 7.07936C24.1654 7.06808 24.1614 7.06283 24.1652 7.06676C24.1697 7.07137 24.1794 7.08299 24.1885 7.10159C24.1976 7.12038 24.202 7.13774 24.2036 7.14963C24.2051 7.16059 24.2034 7.16071 24.2054 7.14662L23.4627 7.04217ZM23.7941 7.72009L23.4043 8.36083C23.5843 8.47035 23.6864 8.57925 23.7452 8.67605L24.3861 8.28655L25.0271 7.89706C24.8207 7.5575 24.5281 7.28877 24.1839 7.07936L23.7941 7.72009ZM24.3861 8.28655L23.7452 8.67605C23.7669 8.71169 23.7912 8.76982 23.7654 8.90348L24.5019 9.04532L25.2384 9.18715C25.3234 8.74549 25.2706 8.29777 25.0271 7.89706L24.3861 8.28655ZM24.5019 9.04532L23.7654 8.90348C23.6786 9.35463 23.7407 9.81051 24.0042 10.2118L24.6312 9.80017L25.2581 9.38849C25.2385 9.35869 25.2145 9.31133 25.2384 9.18715L24.5019 9.04532ZM24.6312 9.80017L24.0042 10.2118C24.1595 10.4483 24.329 10.6806 24.5123 10.9088L25.097 10.439L25.6816 9.96921C25.527 9.77672 25.3859 9.58313 25.2581 9.38849L24.6312 9.80017ZM25.097 10.439L24.5123 10.9088C24.5113 10.9075 24.5045 10.8984 24.4979 10.8819C24.4912 10.865 24.4879 10.8482 24.4871 10.8349C24.4855 10.809 24.4943 10.8239 24.4624 10.8938L25.1447 11.2053L25.8269 11.5168C26.0501 11.028 26.0717 10.4546 25.6816 9.96921L25.097 10.439ZM25.1447 11.2053L24.4624 10.8938C24.2685 11.3185 24.1903 11.8064 24.3849 12.2851L25.0797 12.0028L25.7745 11.7204C25.774 11.719 25.7735 11.7176 25.7731 11.7149C25.7727 11.7121 25.7719 11.7046 25.773 11.6909C25.7753 11.6626 25.7861 11.6061 25.8269 11.5168L25.1447 11.2053ZM25.0797 12.0028L24.3849 12.2851C24.4714 12.498 24.5493 12.7136 24.6185 12.9319L25.3334 12.7052L26.0484 12.4785C25.9672 12.2225 25.8759 11.9697 25.7745 11.7204L25.0797 12.0028ZM25.3334 12.7052L24.6185 12.9319C24.6755 13.1116 24.7106 13.2964 24.7237 13.4876L25.4719 13.4365L26.2202 13.3853C26.199 13.0759 26.1418 12.7732 26.0484 12.4785L25.3334 12.7052ZM25.4719 13.4365L24.7237 13.4876C24.7399 13.7258 24.7504 13.9639 24.755 14.202L25.5049 14.1875L26.2547 14.1729C26.2496 13.9103 26.2381 13.6478 26.2202 13.3853L25.4719 13.4365ZM25.5049 14.1875L24.755 14.202C24.7661 14.7751 25.1096 15.1976 25.503 15.4832L25.9437 14.8763L26.3843 14.2695C26.2946 14.2043 26.2604 14.1597 26.2508 14.1445C26.2466 14.1379 26.248 14.1386 26.2504 14.1461C26.2529 14.154 26.2545 14.1637 26.2547 14.1729L25.5049 14.1875ZM25.9437 14.8763L25.503 15.4832C25.5414 15.5111 25.5635 15.5322 25.5749 15.5446C25.586 15.5568 25.5848 15.5583 25.5796 15.548C25.5739 15.5367 25.5667 15.5177 25.5633 15.4934C25.5599 15.4691 25.5617 15.4499 25.5638 15.4393L26.3004 15.5805L27.037 15.7216C27.1607 15.0761 26.8127 14.5805 26.3843 14.2695L25.9437 14.8763ZM26.3004 15.5805L25.5638 15.4393C25.5293 15.6194 25.4624 15.8108 25.355 16.0148L26.0187 16.3641L26.6824 16.7134C26.8508 16.3935 26.9716 16.0626 27.037 15.7216L26.3004 15.5805ZM26.0187 16.3641L25.355 16.0148C25.1398 16.4238 25.0653 16.8845 25.2143 17.35L25.9286 17.1213L26.6429 16.8926C26.6364 16.8724 26.622 16.8283 26.6824 16.7134L26.0187 16.3641ZM25.9286 17.1213L25.2143 17.35C25.2648 17.5077 25.2839 17.661 25.2752 17.8141L26.0239 17.8571L26.7727 17.9C26.7923 17.5579 26.7479 17.2207 26.6429 16.8926L25.9286 17.1213ZM26.0239 17.8571L25.2752 17.8141C25.2505 18.2432 25.3776 18.6441 25.5968 19.002L26.2364 18.6103L26.876 18.2186C26.7835 18.0675 26.7689 17.9663 26.7727 17.9L26.0239 17.8571ZM26.2364 18.6103L25.5968 19.002C25.673 19.1264 25.6697 19.1924 25.6625 19.2309L26.3998 19.3687L27.137 19.5065C27.2237 19.0427 27.1115 18.6031 26.876 18.2186L26.2364 18.6103ZM26.3998 19.3687L25.6625 19.2309C25.6398 19.3528 25.5837 19.4863 25.4709 19.6342L26.0673 20.089L26.6636 20.5438C26.9003 20.2335 27.0659 19.8868 27.137 19.5065L26.3998 19.3687ZM26.0673 20.089L25.4709 19.6342C25.253 19.92 25.0836 20.227 24.9792 20.5556L25.694 20.7827L26.4087 21.0099C26.4527 20.8717 26.5322 20.7162 26.6636 20.5438L26.0673 20.089ZM25.694 20.7827L24.9792 20.5556C24.8921 20.8298 24.829 21.1091 24.7901 21.3933L25.5332 21.4949L26.2763 21.5965C26.3034 21.3979 26.3475 21.2025 26.4087 21.0099L25.694 20.7827ZM25.5332 21.4949L24.7901 21.3933C24.7606 21.6093 24.72 21.8236 24.6685 22.0362L25.3973 22.213L26.1262 22.3897C26.1898 22.1276 26.2398 21.8632 26.2763 21.5965L25.5332 21.4949ZM25.3973 22.213L24.6685 22.0362C24.6441 22.1366 24.5971 22.2227 24.5149 22.3051L25.0458 22.8348L25.5768 23.3645C25.8481 23.0925 26.0354 22.7641 26.1262 22.3897L25.3973 22.213ZM25.0458 22.8348L24.5149 22.3051C24.2222 22.5985 24.0436 22.9611 23.9745 23.3654L24.7138 23.4918L25.453 23.6183C25.4731 23.5009 25.5159 23.4256 25.5768 23.3645L25.0458 22.8348ZM24.7138 23.4918L23.9745 23.3654C23.9487 23.5164 23.8945 23.6437 23.8124 23.7573L24.4204 24.1965L25.0284 24.6356C25.2482 24.3313 25.3896 23.9889 25.453 23.6183L24.7138 23.4918ZM24.4204 24.1965L23.8124 23.7573C23.7016 23.9108 23.5687 24.0514 23.4111 24.1791L23.8833 24.7618L24.3554 25.3445C24.6123 25.1363 24.8375 24.9 25.0284 24.6356L24.4204 24.1965ZM23.8833 24.7618L23.4111 24.1791C23.3123 24.2591 23.2068 24.3043 23.0798 24.3205L23.175 25.0645L23.2701 25.8084C23.6731 25.7569 24.0398 25.6003 24.3554 25.3445L23.8833 24.7618ZM23.175 25.0645L23.0798 24.3205C22.7806 24.3588 22.4826 24.4178 22.1858 24.4972L22.3796 25.2217L22.5735 25.9463C22.8072 25.8837 23.0393 25.8379 23.2701 25.8084L23.175 25.0645ZM22.3796 25.2217L22.1858 24.4972C22.0303 24.5388 21.8663 24.547 21.6855 24.5157L21.5575 25.2547L21.4295 25.9937C21.8144 26.0604 22.1985 26.0466 22.5735 25.9463L22.3796 25.2217ZM21.5575 25.2547L21.6855 24.5157C21.5719 24.496 21.4912 24.4503 21.4168 24.3649L20.8512 24.8575L20.2856 25.35C20.5872 25.6963 20.9773 25.9154 21.4295 25.9937L21.5575 25.2547ZM20.8512 24.8575L21.4168 24.3649C21.2664 24.1922 21.1507 24.0196 21.0646 23.8477L20.394 24.1835L19.7234 24.5194C19.8711 24.8144 20.0602 25.0911 20.2856 25.35L20.8512 24.8575ZM20.394 24.1835L21.0646 23.8477C20.9371 23.5932 20.8002 23.3497 20.6535 23.1176L20.0195 23.5183L19.3855 23.919C19.5043 24.107 19.617 24.307 19.7234 24.5194L20.394 24.1835ZM20.0195 23.5183L20.6535 23.1176C20.5966 23.0277 20.5632 22.9248 20.5596 22.7915L19.8099 22.8115L19.0602 22.8315C19.0706 23.2204 19.1768 23.5888 19.3855 23.919L20.0195 23.5183ZM19.8099 22.8115L20.5596 22.7915C20.5516 22.4894 20.519 22.196 20.4602 21.9122L19.7258 22.0644L18.9914 22.2166C19.0308 22.4067 19.0543 22.6113 19.0602 22.8315L19.8099 22.8115ZM19.7258 22.0644L20.4602 21.9122C20.3745 21.4983 20.1517 21.1487 19.8559 20.8616L19.3335 21.3997L18.8111 21.9379C18.9402 22.0632 18.979 22.1567 18.9914 22.2166L19.7258 22.0644ZM19.3335 21.3997L19.8559 20.8616C19.837 20.8432 19.8282 20.8312 19.825 20.8263C19.8221 20.8219 19.8239 20.8236 19.8263 20.8309C19.8288 20.8384 19.8303 20.8466 19.8306 20.8534C19.8309 20.8598 19.83 20.8599 19.8316 20.8519L19.0978 20.6972L18.3639 20.5424C18.2492 21.0865 18.437 21.5748 18.8111 21.9379L19.3335 21.3997ZM19.0978 20.6972L19.8316 20.8519C19.9132 20.4651 19.8955 20.0762 19.7678 19.7009L19.0578 19.9424L18.3477 20.1838C18.384 20.2905 18.3929 20.4049 18.3639 20.5424L19.0978 20.6972ZM19.0578 19.9424L19.7678 19.7009C19.7169 19.5512 19.6972 19.4027 19.7066 19.25L18.958 19.204L18.2094 19.1579C18.1879 19.5077 18.2347 19.8515 18.3477 20.1838L19.0578 19.9424ZM18.958 19.204L19.7066 19.25C19.7245 18.9578 19.7185 18.6666 19.6882 18.377L18.9422 18.455L18.1963 18.5329C18.2179 18.7395 18.2223 18.9477 18.2094 19.1579L18.958 19.204ZM18.9422 18.455L19.6882 18.377C19.67 18.2031 19.6773 18.0277 19.7114 17.8486L18.9747 17.7083L18.2379 17.568C18.1769 17.8882 18.1626 18.2106 18.1963 18.5329L18.9422 18.455ZM18.9747 17.7083L19.7114 17.8486C19.7645 17.5697 19.8005 17.2907 19.819 17.0118L19.0706 16.9622L18.3223 16.9126C18.3079 17.1292 18.2799 17.3476 18.2379 17.568L18.9747 17.7083ZM19.0706 16.9622L19.819 17.0118C19.8468 16.5923 19.7337 16.1961 19.5289 15.8372L18.8775 16.2089L18.2261 16.5805C18.3117 16.7306 18.3273 16.8365 18.3223 16.9126L19.0706 16.9622ZM18.8775 16.2089L19.5289 15.8372C19.4738 15.7406 19.4878 15.7094 19.4938 15.6913L18.7812 15.4573L18.0686 15.2233C17.9126 15.6984 17.9908 16.1682 18.2261 16.5805L18.8775 16.2089ZM18.7812 15.4573L19.4938 15.6913C19.5792 15.4309 19.6563 15.1709 19.7248 14.9112L18.9996 14.7198L18.2744 14.5285C18.2137 14.7589 18.1451 14.9904 18.0686 15.2233L18.7812 15.4573ZM18.9996 14.7198L19.7248 14.9112C19.8234 14.5374 19.8208 14.157 19.7267 13.7824L18.9993 13.9652L18.2719 14.1479C18.3075 14.2896 18.3051 14.4122 18.2744 14.5285L18.9996 14.7198ZM18.9993 13.9652L19.7267 13.7824C19.6711 13.5611 19.6338 13.3419 19.6142 13.1242L18.8672 13.1914L18.1202 13.2587C18.147 13.5564 18.1978 13.853 18.2719 14.1479L18.9993 13.9652ZM18.8672 13.1914L19.6142 13.1242C19.6132 13.113 19.6142 13.1086 19.6173 13.101C19.6217 13.09 19.6379 13.057 19.6894 13.0049L19.156 12.4776L18.6226 11.9503C18.2835 12.2933 18.0735 12.7395 18.1202 13.2587L18.8672 13.1914ZM19.156 12.4776L19.6894 13.0049C19.7598 12.9337 19.8334 12.8517 19.8959 12.7618C19.9486 12.6861 20.0445 12.534 20.0726 12.3306C20.1093 12.0643 20.0179 11.7578 19.7511 11.5597C19.5533 11.4128 19.3415 11.3911 19.2465 11.3856L19.2033 12.1344L19.1601 12.8831C19.1572 12.883 19.0124 12.8795 18.8568 12.7639C18.766 12.6965 18.6788 12.5955 18.6266 12.4606C18.576 12.3299 18.575 12.2102 18.5866 12.1258C18.5978 12.0448 18.6216 11.9868 18.6351 11.9578C18.6495 11.9272 18.6618 11.9091 18.6647 11.905C18.6693 11.8983 18.6601 11.9125 18.6226 11.9503L19.156 12.4776ZM19.2033 12.1344L19.2465 11.3856C18.9454 11.3682 18.6343 11.4234 18.3302 11.5152L18.547 12.2332L18.7637 12.9511C18.9664 12.89 19.0929 12.8792 19.1601 12.8831L19.2033 12.1344ZM18.547 12.2332L18.3302 11.5152C17.8049 11.6737 17.4701 12.0657 17.3126 12.5478L18.0256 12.7806L18.7385 13.0134C18.7579 12.9541 18.7741 12.94 18.7697 12.9446C18.7678 12.9466 18.7645 12.9494 18.7607 12.9517C18.7571 12.9539 18.7571 12.9531 18.7637 12.9511L18.547 12.2332ZM18.0256 12.7806L17.3126 12.5478C17.2898 12.6177 17.267 12.6505 17.2564 12.6632C17.2476 12.6737 17.2404 12.6792 17.2274 12.685L17.5327 13.3701L17.8381 14.0551C18.3017 13.8484 18.5917 13.4632 18.7385 13.0134L18.0256 12.7806ZM17.5327 13.3701L17.2274 12.685C17.0818 12.7499 16.893 12.8 16.6497 12.8223L16.7181 13.5692L16.7866 14.3161C17.1606 14.2818 17.5149 14.1991 17.8381 14.0551L17.5327 13.3701ZM16.7181 13.5692L16.6497 12.8223C16.3932 12.8459 16.1295 12.9236 15.8962 13.091C15.659 13.2612 15.4989 13.4916 15.4037 13.7446L16.1056 14.0088L16.8075 14.2731C16.8106 14.2648 16.8104 14.2683 16.8032 14.2781C16.7955 14.2884 16.7844 14.2999 16.7708 14.3097C16.7645 14.3142 16.7589 14.3174 16.7546 14.3196C16.7504 14.3218 16.748 14.3226 16.7482 14.3225C16.7488 14.3223 16.7602 14.3185 16.7866 14.3161L16.7181 13.5692ZM16.1056 14.0088L15.4037 13.7446C15.354 13.8764 15.2915 13.9439 15.2247 13.9874L15.6342 14.6158L16.0437 15.2441C16.406 15.008 16.6578 14.6708 16.8075 14.2731L16.1056 14.0088ZM15.6342 14.6158L15.2247 13.9874C14.8268 14.2468 14.5869 14.6341 14.4823 15.0772L15.2122 15.2495L15.9422 15.4218C15.971 15.2996 16.0125 15.2645 16.0437 15.2441L15.6342 14.6158ZM15.2122 15.2495L14.4823 15.0772C14.4702 15.1286 14.4566 15.146 14.4552 15.1477C14.4539 15.1494 14.4525 15.1508 14.4499 15.1529C14.4471 15.1551 14.4404 15.1599 14.4272 15.166L14.7453 15.8452L15.0634 16.5245C15.5328 16.3046 15.8274 15.9081 15.9422 15.4218L15.2122 15.2495ZM14.7453 15.8452L14.4272 15.166C14.1891 15.2775 13.9443 15.388 13.693 15.4975L13.9924 16.1851L14.2918 16.8728C14.5552 16.7581 14.8124 16.642 15.0634 16.5245L14.7453 15.8452ZM13.9924 16.1851L13.693 15.4975C13.4405 15.6074 13.2172 15.7844 13.0617 16.0366C12.9098 16.2829 12.8514 16.5539 12.8454 16.8117L13.5952 16.8292L14.345 16.8467C14.3464 16.7872 14.358 16.7922 14.3385 16.8239C14.3291 16.8391 14.317 16.8529 14.3047 16.8632C14.2929 16.873 14.2866 16.875 14.2918 16.8728L13.9924 16.1851ZM13.5952 16.8292L12.8454 16.8117C12.8434 16.8988 12.8296 16.9476 12.8202 16.9709C12.8122 16.9909 12.8052 16.9986 12.7986 17.0045L13.3019 17.5606L13.8052 18.1167C14.1824 17.7753 14.3341 17.3148 14.345 16.8467L13.5952 16.8292ZM13.3019 17.5606L12.7986 17.0045C12.6146 17.1711 12.427 17.3372 12.2359 17.5027L12.727 18.0696L13.2181 18.6365C13.4172 18.4639 13.6129 18.2907 13.8052 18.1167L13.3019 17.5606ZM12.727 18.0696L12.2359 17.5027C11.9902 17.7156 11.7775 17.9568 11.6001 18.2257L12.2263 18.6386L12.8524 19.0515C12.9523 18.8999 13.0734 18.7617 13.2181 18.6365L12.727 18.0696ZM12.2263 18.6386L11.6001 18.2257C11.4667 18.4281 11.3292 18.6283 11.1877 18.8262L11.7978 19.2624L12.408 19.6985C12.5604 19.4853 12.7085 19.2697 12.8524 19.0515L12.2263 18.6386ZM11.7978 19.2624L11.1877 18.8262C11.0322 19.0437 10.8832 19.2656 10.7407 19.4919L11.3753 19.8916L12.0099 20.2913C12.1369 20.0898 12.2696 19.8922 12.408 19.6985L11.7978 19.2624ZM11.3753 19.8916L10.7407 19.4919C10.6251 19.6755 10.4948 19.8533 10.3492 20.0254L10.9218 20.5098L11.4944 20.9941C11.684 20.77 11.856 20.5357 12.0099 20.2913L11.3753 19.8916ZM10.9218 20.5098L10.3492 20.0254C10.131 20.2833 9.95753 20.5692 9.83152 20.881L10.5269 21.162L11.2222 21.443C11.2875 21.2815 11.3774 21.1325 11.4944 20.9941L10.9218 20.5098ZM10.5269 21.162L9.83152 20.881C9.67795 21.2609 9.64709 21.6647 9.70692 22.0694L10.4489 21.9598L11.1908 21.8501C11.1633 21.6644 11.1845 21.5364 11.2222 21.443L10.5269 21.162ZM10.4489 21.9598L9.70692 22.0694C9.71028 22.0922 9.70959 22.1037 9.70938 22.1062C9.70921 22.1081 9.70945 22.1037 9.71244 22.0958C9.71381 22.0921 9.71544 22.0886 9.71715 22.0855C9.71884 22.0824 9.72026 22.0803 9.72096 22.0794C9.7225 22.0773 9.71957 22.0819 9.70748 22.0917L10.1805 22.6738L10.6535 23.2558C11.0914 22.8999 11.2712 22.3941 11.1908 21.8501L10.4489 21.9598ZM10.1805 22.6738L9.70748 22.0917C9.48678 22.2711 9.31152 22.5156 9.24071 22.8239C9.172 23.1231 9.21795 23.4111 9.30804 23.6591L10.013 23.4031L10.7179 23.1471C10.6971 23.0898 10.7155 23.1035 10.7027 23.1596C10.6963 23.1871 10.685 23.2126 10.6717 23.2328C10.6592 23.2519 10.6499 23.2588 10.6535 23.2558L10.1805 22.6738ZM10.013 23.4031L9.30804 23.6591C9.33734 23.7398 9.33737 23.7797 9.33693 23.788C9.33674 23.7918 9.33644 23.7904 9.33784 23.786C9.33927 23.7815 9.3409 23.7788 9.34084 23.7789L9.97194 24.1841L10.603 24.5894C10.901 24.1254 10.885 23.6071 10.7179 23.1471L10.013 23.4031ZM9.97194 24.1841L9.34084 23.7789C9.17049 24.0442 9.0344 24.3249 8.93429 24.6201L9.64456 24.861L10.3548 25.1018C10.4147 24.9253 10.4968 24.7547 10.603 24.5894L9.97194 24.1841ZM9.64456 24.861L8.93429 24.6201C8.87251 24.8023 8.78767 24.9851 8.67737 25.1689L9.32038 25.5549L9.9634 25.941C10.1254 25.6712 10.2567 25.3914 10.3548 25.1018L9.64456 24.861ZM9.32038 25.5549L8.67737 25.1689C8.46214 25.5274 8.36619 25.9261 8.40054 26.3443L9.14802 26.2829L9.8955 26.2215C9.88738 26.1226 9.90634 26.036 9.9634 25.941L9.32038 25.5549ZM9.14802 26.2829L8.40054 26.3443C8.42044 26.5866 8.43203 26.8246 8.43542 27.0583L9.18535 27.0474L9.93527 27.0365C9.93136 26.768 9.91807 26.4963 9.8955 26.2215L9.14802 26.2829ZM9.18535 27.0474L8.43542 27.0583C8.43959 27.3445 8.46377 27.6297 8.50785 27.9137L9.24897 27.7987L9.9901 27.6836C9.95665 27.4681 9.93841 27.2525 9.93527 27.0365L9.18535 27.0474ZM9.24897 27.7987L8.50785 27.9137C8.53806 28.1084 8.54539 28.2972 8.53124 28.4814L9.27903 28.5388L10.0268 28.5963C10.0501 28.2931 10.0374 27.9885 9.9901 27.6836L9.24897 27.7987ZM9.27903 28.5388L8.53124 28.4814C8.50557 28.8152 8.53987 29.1462 8.63118 29.4703L9.35308 29.2669L10.075 29.0635C10.0301 28.9042 10.015 28.7498 10.0268 28.5963L9.27903 28.5388ZM9.35308 29.2669L8.63118 29.4703C8.62997 29.466 8.62892 29.4596 8.6289 29.453C8.62888 29.4466 8.62983 29.4452 8.62852 29.4502C8.62548 29.4619 8.6107 29.5058 8.55313 29.5827L9.15336 30.0324L9.75359 30.4821C10.044 30.0945 10.2263 29.6007 10.075 29.0635L9.35308 29.2669ZM9.15336 30.0324L8.55313 29.5827C8.27784 29.9501 8.09561 30.3879 8.13321 30.8746L8.88098 30.8168L9.62875 30.7591C9.62705 30.737 9.62641 30.6518 9.75359 30.4821L9.15336 30.0324ZM8.88098 30.8168L8.13321 30.8746C8.15896 31.2079 8.23632 31.5312 8.36361 31.8419L9.05761 31.5575L9.75161 31.2731C9.68269 31.1049 9.6423 30.9344 9.62875 30.7591L8.88098 30.8168ZM9.05761 31.5575L8.36361 31.8419C8.48317 32.1337 8.63531 32.4114 8.81837 32.6748L9.43419 32.2467L10.05 31.8186C9.92717 31.6419 9.82825 31.4602 9.75161 31.2731L9.05761 31.5575ZM9.43419 32.2467L8.81837 32.6748C8.94518 32.8572 9.04629 33.0382 9.12416 33.2176L9.81218 32.9191L10.5002 32.6206C10.38 32.3435 10.2291 32.0762 10.05 31.8186L9.43419 32.2467ZM9.81218 32.9191L9.12416 33.2176C9.19184 33.3736 9.23533 33.5395 9.25368 33.7184L9.99977 33.6418L10.7459 33.5653C10.7122 33.2371 10.6306 32.9211 10.5002 32.6206L9.81218 32.9191ZM9.99977 33.6418L9.25368 33.7184C9.28674 34.0406 9.36316 34.352 9.48375 34.65L10.179 34.3687L10.8743 34.0875C10.8079 33.9234 10.7648 33.7501 10.7459 33.5653L9.99977 33.6418ZM10.179 34.3687L9.48375 34.65C9.61136 34.9654 9.79268 35.2513 10.0225 35.506L10.5793 35.0036L11.1361 34.5011C11.0192 34.3715 10.9336 34.2342 10.8743 34.0875L10.179 34.3687ZM10.5793 35.0036L10.0225 35.506C10.182 35.6828 10.3295 35.861 10.4652 36.0406L11.0636 35.5884L11.6619 35.1362C11.4988 34.9204 11.3235 34.7087 11.1361 34.5011L10.5793 35.0036ZM11.0636 35.5884L10.4652 36.0406C10.4742 36.0525 10.5116 36.1023 10.4945 36.2688L11.2406 36.3452L11.9867 36.4216C12.0325 35.9745 11.9518 35.5198 11.6619 35.1362L11.0636 35.5884ZM11.2406 36.3452L10.4945 36.2688C10.467 36.5375 10.5006 36.8344 10.6591 37.1089C10.819 37.3857 11.062 37.5638 11.3159 37.6707L11.6068 36.9794L11.8978 36.2881C11.8854 36.2829 11.891 36.2835 11.9056 36.2955C11.9214 36.3085 11.9412 36.3296 11.9581 36.3588C11.9945 36.4219 11.9828 36.4597 11.9867 36.4216L11.2406 36.3452ZM11.6068 36.9794L11.3159 37.6707C11.3323 37.6776 11.3349 37.6809 11.3295 37.6767C11.3235 37.672 11.313 37.6623 11.3027 37.6473C11.2925 37.6324 11.2873 37.6194 11.2853 37.6127C11.2835 37.6069 11.2858 37.6113 11.2865 37.6301L12.036 37.6038L12.7855 37.5775C12.7762 37.3122 12.7055 37.0401 12.5389 36.7977C12.3721 36.555 12.1432 36.3914 11.8978 36.2881L11.6068 36.9794ZM12.036 37.6038L11.2865 37.6301C11.2962 37.907 11.3774 38.2005 11.5844 38.4494C11.7894 38.6959 12.0601 38.8292 12.3232 38.8946L12.5043 38.1668L12.6854 37.439C12.6468 37.4294 12.6887 37.4313 12.7376 37.4902C12.7602 37.5174 12.7739 37.5449 12.7809 37.5655C12.7875 37.5846 12.786 37.5909 12.7855 37.5775L12.036 37.6038ZM12.5043 38.1668L12.3232 38.8946C12.5255 38.945 12.6226 39.0136 12.67 39.0628L13.2102 38.5426L13.7505 38.0224C13.4601 37.7208 13.0866 37.5389 12.6854 37.439L12.5043 38.1668ZM13.2102 38.5426L12.67 39.0628C12.6444 39.0363 12.7059 39.07 12.6988 39.3247L13.4485 39.3457L14.1982 39.3666C14.2112 38.9014 14.1139 38.3998 13.7505 38.0224L13.2102 38.5426ZM13.4485 39.3457L12.6988 39.3247C12.6915 39.5867 12.7292 39.8745 12.8704 40.1398C13.0203 40.4215 13.2577 40.6218 13.5435 40.7324L13.8143 40.033L14.0851 39.3336C14.0953 39.3376 14.1169 39.348 14.1413 39.3693C14.1662 39.3909 14.1838 39.415 14.1945 39.4351C14.2045 39.4539 14.2046 39.4619 14.2026 39.4511C14.2004 39.4398 14.1969 39.413 14.1982 39.3666L13.4485 39.3457ZM13.8143 40.033L13.5435 40.7324C13.744 40.8101 13.9171 40.9033 14.0667 41.0099L14.502 40.3992L14.9373 39.7885C14.6778 39.6035 14.3925 39.4526 14.0851 39.3336L13.8143 40.033ZM14.502 40.3992L14.0667 41.0099C14.168 41.0822 14.2629 41.186 14.3461 41.3405L15.0064 40.9849L15.6668 40.6294C15.4864 40.2944 15.245 40.0078 14.9373 39.7885L14.502 40.3992ZM15.0064 40.9849L14.3461 41.3405C14.4821 41.5932 14.6903 41.8045 14.9721 41.9305C15.2435 42.0518 15.5274 42.0693 15.7853 42.0392L15.6983 41.2943L15.6112 40.5493C15.5397 40.5577 15.5435 40.5429 15.5843 40.5611C15.605 40.5704 15.6258 40.5842 15.6431 40.6008C15.6512 40.6086 15.6572 40.6157 15.6612 40.621C15.6651 40.6263 15.6668 40.6294 15.6668 40.6294L15.0064 40.9849ZM15.6983 41.2943L15.7853 42.0392C16.017 42.0121 16.1274 42.0483 16.1721 42.0716L16.5187 41.4065L16.8652 40.7414C16.475 40.538 16.0385 40.4994 15.6112 40.5493L15.6983 41.2943ZM16.5187 41.4065L16.1721 42.0716C16.1339 42.0517 16.1996 42.0564 16.2657 42.2949L16.9884 42.0947L17.7112 41.8945C17.5859 41.442 17.3384 40.9879 16.8652 40.7414L16.5187 41.4065ZM16.9884 42.0947L16.2657 42.2949C16.4014 42.7848 16.7074 43.2706 17.2965 43.4417L17.5056 42.7214L17.7146 42.0011C17.7242 42.0039 17.7368 42.0093 17.7494 42.0177C17.7553 42.0216 17.7599 42.0253 17.7632 42.0283C17.7665 42.0313 17.768 42.0332 17.768 42.0331C17.7668 42.0317 17.7396 41.997 17.7112 41.8945L16.9884 42.0947ZM17.5056 42.7214L17.2965 43.4417C17.4949 43.4992 17.6824 43.5761 17.8599 43.6722L18.2169 43.0126L18.5739 42.353C18.3011 42.2054 18.0143 42.0881 17.7146 42.0011L17.5056 42.7214ZM18.2169 43.0126L17.8599 43.6722C18.2252 43.8699 18.6251 43.9421 19.0353 43.9076L18.9724 43.1602L18.9096 42.4129C18.7626 42.4252 18.6588 42.399 18.5739 42.353L18.2169 43.0126ZM18.9724 43.1602L19.0353 43.9076C19.1831 43.8951 19.2869 43.9215 19.3712 43.9669L19.7272 43.3068L20.0832 42.6467C19.7182 42.4499 19.3189 42.3784 18.9096 42.4129L18.9724 43.1602ZM19.7272 43.3068L19.3712 43.9669C19.7322 44.1616 20.1265 44.236 20.5325 44.1977L20.4621 43.451L20.3917 42.7043C20.2671 42.716 20.1714 42.6942 20.0832 42.6467L19.7272 43.3068ZM20.4621 43.451L20.5325 44.1977C20.6216 44.1893 20.6917 44.2063 20.772 44.261L21.1943 43.6412L21.6167 43.0215C21.2513 42.7724 20.8333 42.6627 20.3917 42.7043L20.4621 43.451ZM21.1943 43.6412L20.772 44.261C21.1565 44.5231 21.6 44.6187 22.0595 44.5326L21.9214 43.7954L21.7833 43.0583C21.719 43.0703 21.6778 43.0631 21.6167 43.0215L21.1943 43.6412ZM21.9214 43.7954L22.0595 44.5326C22.127 44.52 22.1845 44.5265 22.2673 44.5786L22.6669 43.9439L23.0665 43.3093C22.679 43.0653 22.2395 42.9728 21.7833 43.0583L21.9214 43.7954ZM22.6669 43.9439L22.2673 44.5786C22.5685 44.7682 22.8899 44.9057 23.2299 44.9832L23.3966 44.2519L23.5633 43.5207C23.4007 43.4836 23.2356 43.4157 23.0665 43.3093L22.6669 43.9439ZM23.3966 44.2519L23.2299 44.9832C23.6695 45.0834 24.1001 45.0132 24.493 44.816L24.1566 44.1457L23.8201 43.4754C23.7025 43.5344 23.6264 43.5351 23.5633 43.5207L23.3966 44.2519ZM24.1566 44.1457L24.493 44.816C24.573 44.7759 24.6111 44.7807 24.6588 44.7985L24.9209 44.0957L25.183 43.393C24.7221 43.2211 24.2507 43.2593 23.8201 43.4754L24.1566 44.1457ZM24.9209 44.0957L24.6588 44.7985C25.2134 45.0053 25.7414 44.85 26.1468 44.4978L25.6549 43.9316L25.163 43.3655C25.1401 43.3854 25.1257 43.394 25.1206 43.3968C25.116 43.3993 25.1199 43.3965 25.1315 43.3939C25.1436 43.3912 25.1572 43.3902 25.1699 43.3912C25.1822 43.3922 25.1871 43.3945 25.183 43.393L24.9209 44.0957ZM25.6549 43.9316L26.1468 44.4978C26.162 44.4846 26.1656 44.4846 26.1566 44.4889C26.1465 44.4937 26.1275 44.5005 26.1021 44.5033C26.0765 44.5061 26.0557 44.5036 26.0432 44.5007C26.032 44.4981 26.0338 44.4966 26.0495 44.5053L26.4122 43.8488L26.7749 43.1924C26.5341 43.0593 26.2493 42.9783 25.9391 43.0122C25.6295 43.046 25.3695 43.1861 25.163 43.3655L25.6549 43.9316ZM26.4122 43.8488L26.0495 44.5053C26.2761 44.6305 26.5421 44.7147 26.8344 44.7014C27.1317 44.6877 27.3935 44.5758 27.6094 44.4109L27.1541 43.8149L26.6989 43.2188C26.6924 43.2238 26.696 43.2198 26.7102 43.2143C26.7251 43.2085 26.7446 43.2039 26.7657 43.2029C26.8107 43.2009 26.8181 43.2163 26.7749 43.1924L26.4122 43.8488ZM27.1541 43.8149L27.6094 44.4109C27.6203 44.4025 27.6246 44.4012 27.6221 44.4022C27.6191 44.4035 27.6134 44.4053 27.6067 44.4062C27.6001 44.407 27.5981 44.4062 27.6028 44.4069C27.608 44.4076 27.6221 44.4102 27.646 44.4194L27.9138 43.7189L28.1817 43.0183C27.6765 42.8252 27.1463 42.8771 26.6989 43.2188L27.1541 43.8149ZM27.9138 43.7189L27.646 44.4194C27.9216 44.5248 28.2463 44.5575 28.5714 44.4305C28.8838 44.3084 29.0982 44.0768 29.2427 43.8458L28.6069 43.448L27.9711 43.0502C27.9352 43.1075 27.944 43.0652 28.0254 43.0334C28.0659 43.0175 28.1068 43.0118 28.1411 43.0129C28.1731 43.014 28.1879 43.0207 28.1817 43.0183L27.9138 43.7189ZM28.6069 43.448L29.2427 43.8458C29.3692 43.6436 29.4598 43.598 29.4845 43.5887L29.2207 42.8866L28.9569 42.1846C28.5239 42.3472 28.2053 42.6759 27.9711 43.0502L28.6069 43.448ZM29.2207 42.8866L29.4845 43.5887C29.6669 43.5202 29.8575 43.469 30.0574 43.4356L29.9338 42.6959L29.8103 41.9561C29.5169 42.0051 29.2322 42.0811 28.9569 42.1846L29.2207 42.8866ZM29.9338 42.6959L30.0574 43.4356C30.2225 43.4081 30.4165 43.4037 30.6443 43.4317L30.7359 42.6874L30.8276 41.943C30.4792 41.9001 30.1384 41.9013 29.8103 41.9561L29.9338 42.6959ZM30.7359 42.6874L30.6443 43.4317C31.094 43.4871 31.5386 43.3986 31.9202 43.1206L31.4786 42.5144L31.037 41.9082C31.0047 41.9318 30.9541 41.9586 30.8276 41.943L30.7359 42.6874ZM31.4786 42.5144L31.9202 43.1206C32.0538 43.0233 32.2011 42.9518 32.3667 42.9055L32.1647 42.1832L31.9627 41.4609C31.6275 41.5547 31.3174 41.7039 31.037 41.9082L31.4786 42.5144ZM32.1647 42.1832L32.3667 42.9055C32.6698 42.8207 32.9592 42.7042 33.2337 42.5558L32.8769 41.8961L32.5201 41.2364C32.3457 41.3307 32.1603 41.4056 31.9627 41.4609L32.1647 42.1832ZM32.8769 41.8961L33.2337 42.5558C33.63 42.3414 33.9057 42.0028 34.0782 41.6015L33.3892 41.3053L32.7001 41.0092C32.6384 41.1528 32.5726 41.208 32.5201 41.2364L32.8769 41.8961ZM33.3892 41.3053L34.0782 41.6015C34.1836 41.3563 34.295 41.1376 34.4113 40.944L33.7684 40.5578L33.1254 40.1716C32.9704 40.4298 32.8289 40.7095 32.7001 41.0092L33.3892 41.3053ZM33.7684 40.5578L34.4113 40.944C34.408 40.9495 34.3998 40.9609 34.3858 40.9733C34.3717 40.9858 34.3581 40.9935 34.3492 40.9974C34.3333 41.0044 34.3546 40.9899 34.4431 40.9945L34.4822 40.2456L34.5213 39.4966C33.9989 39.4693 33.4469 39.6364 33.1254 40.1716L33.7684 40.5578ZM34.4822 40.2456L34.4431 40.9945C34.7066 41.0083 35.0015 40.9717 35.2726 40.8168C35.5571 40.6542 35.742 40.403 35.8412 40.124L35.1345 39.8727L34.4279 39.6214C34.4285 39.6196 34.4353 39.6018 34.4546 39.5776C34.4747 39.5524 34.5006 39.5303 34.5282 39.5145C34.5818 39.4839 34.5979 39.5006 34.5213 39.4966L34.4822 40.2456ZM35.1345 39.8727L35.8412 40.124C35.8939 39.9757 35.962 39.8916 36.0329 39.837L35.5748 39.2432L35.1167 38.6493C34.7899 38.9014 34.5646 39.237 34.4279 39.6214L35.1345 39.8727ZM35.5748 39.2432L36.0329 39.837C36.287 39.6409 36.5097 39.4131 36.6994 39.1549L36.0948 38.711L35.4903 38.2671C35.3841 38.4116 35.2601 38.5386 35.1167 38.6493L35.5748 39.2432ZM36.0948 38.711L36.6994 39.1549C36.8921 38.8923 37.0434 38.6039 37.1544 38.2929L36.448 38.0408L35.7416 37.7888C35.6775 37.9685 35.5933 38.1268 35.4903 38.2671L36.0948 38.711ZM36.448 38.0408L37.1544 38.2929C37.1518 38.3002 37.146 38.3124 37.136 38.3256C37.1261 38.3388 37.1167 38.3467 37.1124 38.3498C37.1057 38.3547 37.1316 38.3337 37.225 38.3164L37.0891 37.5789L36.9532 36.8413C36.4482 36.9344 35.9482 37.2099 35.7416 37.7888L36.448 38.0408ZM37.0891 37.5789L37.225 38.3164C37.5157 38.2629 37.868 38.1167 38.0815 37.7602C38.2879 37.4154 38.2613 37.0432 38.1922 36.7685L37.4648 36.9513L36.7375 37.134C36.7578 37.215 36.7133 37.1253 36.7945 36.9897C36.8826 36.8425 37.0024 36.8322 36.9532 36.8413L37.0891 37.5789ZM37.4648 36.9513L38.1922 36.7685C38.1791 36.7163 38.1741 36.6791 38.1726 36.6549C38.1711 36.6309 38.1732 36.6232 38.1723 36.628C38.1712 36.6337 38.1672 36.6493 38.1561 36.6694C38.1448 36.6898 38.131 36.7061 38.1189 36.717L37.6168 36.1599L37.1147 35.6027C36.6341 36.0358 36.6131 36.6391 36.7375 37.134L37.4648 36.9513ZM37.6168 36.1599L38.1189 36.717C38.425 36.4412 38.629 36.0924 38.7164 35.6888L37.9834 35.53L37.2504 35.3712C37.2304 35.4637 37.19 35.5349 37.1147 35.6027L37.6168 36.1599ZM37.9834 35.53L38.7164 35.6888C38.7168 35.6871 38.7166 35.6884 38.7154 35.6909C38.7142 35.6932 38.714 35.6927 38.7173 35.6889C38.7241 35.681 38.7521 35.6526 38.826 35.6156L38.4909 34.9447L38.1557 34.2737C37.7242 34.4893 37.3642 34.8459 37.2504 35.3712L37.9834 35.53ZM38.4909 34.9447L38.826 35.6156C39.2599 35.3989 39.6187 35.0399 39.7313 34.5132L38.9978 34.3565L38.2644 34.1998C38.2639 34.2022 38.2638 34.2014 38.2649 34.1992C38.266 34.1971 38.2661 34.1977 38.2629 34.2014C38.2563 34.209 38.2289 34.2372 38.1557 34.2737L38.4909 34.9447ZM38.9978 34.3565L39.7313 34.5132C39.7728 34.319 39.835 34.1346 39.9181 33.9586L39.2399 33.6384L38.5617 33.3182C38.4288 33.5997 38.3297 33.894 38.2644 34.1998L38.9978 34.3565ZM39.2399 33.6384L39.9181 33.9586C40.0889 33.5969 40.1469 33.2088 40.1046 32.8129L39.3588 32.8927L38.6131 32.9724C38.6282 33.1135 38.6069 33.2226 38.5617 33.3182L39.2399 33.6384ZM39.3588 32.8927L40.1046 32.8129C40.0772 32.5563 40.0566 32.3067 40.0429 32.0641L39.2941 32.1064L38.5453 32.1487C38.5605 32.4176 38.5831 32.6922 38.6131 32.9724L39.3588 32.8927ZM39.2941 32.1064L40.0429 32.0641C40.0429 32.0641 40.043 32.0653 40.0428 32.0675C40.0427 32.0698 40.0423 32.0724 40.0417 32.0752C40.0404 32.0814 40.0388 32.0842 40.0396 32.0827C40.0416 32.0788 40.0593 32.0467 40.1241 31.9934L39.6476 31.4142L39.1711 30.8351C38.7905 31.1481 38.5139 31.592 38.5453 32.1487L39.2941 32.1064ZM39.6476 31.4142L40.1241 31.9934C40.4801 31.7005 40.7534 31.3103 40.8131 30.8185L40.0686 30.728L39.3241 30.6375C39.3227 30.6491 39.3153 30.7164 39.1711 30.8351L39.6476 31.4142ZM40.0686 30.728L40.8131 30.8185C40.8355 30.6348 40.8833 30.4486 40.9596 30.2585L40.2636 29.9791L39.5675 29.6997C39.4451 30.0047 39.363 30.3177 39.3241 30.6375L40.0686 30.728ZM40.2636 29.9791L40.9596 30.2585C41.0963 29.9179 41.1615 29.562 41.1493 29.1968L40.3997 29.2218L39.6501 29.2469C39.6551 29.3963 39.6295 29.5453 39.5675 29.6997L40.2636 29.9791ZM40.3997 29.2218L41.1493 29.1968C41.1406 28.9368 41.1305 28.6775 41.1191 28.4189L40.3698 28.452L39.6205 28.4851C39.6317 28.7384 39.6416 28.9923 39.6501 29.2469L40.3997 29.2218ZM40.3698 28.452L41.1191 28.4189C41.0989 27.9628 40.9066 27.5612 40.6229 27.2229L40.0482 27.7048L39.4735 28.1867C39.596 28.3328 39.6181 28.4293 39.6205 28.4851L40.3698 28.452ZM40.0482 27.7048L40.6229 27.2229C40.5688 27.1584 40.5499 27.1161 40.5435 27.0974C40.5384 27.0824 40.5389 27.0764 40.5398 27.0701L39.7973 26.9643L39.0548 26.8585C38.9818 27.3705 39.1695 27.8243 39.4735 28.1867L40.0482 27.7048ZM39.7973 26.9643L40.5398 27.0701C40.5917 26.7064 40.5612 26.3452 40.4494 25.9952L39.735 26.2234L39.0205 26.4516C39.0636 26.5864 39.0747 26.7192 39.0548 26.8585L39.7973 26.9643ZM39.735 26.2234L40.4494 25.9952C40.3795 25.7762 40.3216 25.558 40.2757 25.3405L39.5419 25.4954L38.8081 25.6503C38.8647 25.9186 38.9356 26.1857 39.0205 26.4516L39.735 26.2234ZM39.5419 25.4954L40.2757 25.3405C40.2437 25.1888 40.2383 25.0282 40.264 24.8539L39.522 24.7445L38.78 24.6351C38.7297 24.9763 38.7376 25.3163 38.8081 25.6503L39.5419 25.4954ZM39.522 24.7445L40.264 24.8539C40.2981 24.6227 40.346 24.3834 40.4084 24.136L39.6811 23.9527L38.9538 23.7695C38.8801 24.0623 38.8219 24.3509 38.78 24.6351L39.522 24.7445ZM39.6811 23.9527L40.4084 24.136C40.5053 23.7514 40.5096 23.3601 40.4014 22.9775L39.6797 23.1816L38.958 23.3858C38.9878 23.4911 38.9931 23.6139 38.9538 23.7695L39.6811 23.9527ZM39.6797 23.1816L40.4014 22.9775C40.3461 22.7823 40.3104 22.5812 40.2946 22.3733L39.5467 22.4304L38.7989 22.4876C38.8223 22.7934 38.8752 23.0931 38.958 23.3858L39.6797 23.1816ZM39.5467 22.4304L40.2946 22.3733C40.2595 21.914 40.0533 21.5205 39.7354 21.2072L39.209 21.7414L38.6826 22.2757C38.7758 22.3674 38.7948 22.4332 38.7989 22.4876L39.5467 22.4304ZM39.209 21.7414L39.7354 21.2072C39.5232 20.9981 39.3082 20.7942 39.0906 20.5956L38.585 21.1496L38.0795 21.7036C38.2828 21.8891 38.4838 22.0798 38.6826 22.2757L39.209 21.7414ZM38.585 21.1496L39.0906 20.5956C39.0046 20.5171 38.9922 20.4655 38.9891 20.423L38.2411 20.4779L37.4932 20.5328C37.5276 21.0017 37.7445 21.3979 38.0795 21.7036L38.585 21.1496ZM38.2411 20.4779L38.9891 20.423C38.9756 20.2391 38.9869 20.0302 39.0299 19.7936L38.2919 19.6596L37.554 19.5256C37.4917 19.8687 37.4691 20.2055 37.4932 20.5328L38.2411 20.4779ZM38.2919 19.6596L39.0299 19.7936C39.0814 19.5099 39.0555 19.1999 38.894 18.9122C38.7374 18.6335 38.496 18.4517 38.2543 18.3342L37.9264 19.0087L37.5985 19.6833C37.6532 19.7098 37.6208 19.7086 37.5861 19.6467C37.5691 19.6165 37.5593 19.5847 37.5556 19.5573C37.5521 19.5316 37.5551 19.5193 37.554 19.5256L38.2919 19.6596ZM37.9264 19.0087L38.2543 18.3342C38.1849 18.3005 38.179 18.282 38.1917 18.299C38.1982 18.3078 38.2055 18.3207 38.2107 18.3359C38.2158 18.3507 38.2164 18.3605 38.2164 18.3616L37.467 18.3895L36.7175 18.4174C36.7403 19.03 37.1197 19.4505 37.5985 19.6833L37.9264 19.0087ZM37.467 18.3895L38.2164 18.3616C38.2017 17.965 38.0892 17.59 37.8679 17.2577L37.2436 17.6733L36.6193 18.0889C36.6759 18.1739 36.7122 18.2763 36.7175 18.4174L37.467 18.3895ZM37.2436 17.6733L37.8679 17.2577C37.7737 17.1162 37.7026 16.9613 37.6548 16.7896L36.9323 16.991L36.2099 17.1924C36.2993 17.5132 36.4357 17.8132 36.6193 18.0889L37.2436 17.6733ZM36.9323 16.991L37.6548 16.7896C37.5684 16.4796 37.443 16.1867 37.2782 15.9132L36.6357 16.3001L35.9933 16.6871C36.0867 16.8422 36.159 17.0099 36.2099 17.1924L36.9323 16.991ZM36.6357 16.3001L37.2782 15.9132C37.0712 15.5695 36.776 15.3065 36.4253 15.1152L36.0662 15.7736L35.7071 16.4321C35.8576 16.5142 35.9421 16.6021 35.9933 16.6871L36.6357 16.3001ZM36.0662 15.7736L36.4253 15.1152C36.4169 15.1106 36.4201 15.1111 36.429 15.1198C36.4383 15.129 36.4487 15.1422 36.4569 15.158C36.4649 15.1735 36.4672 15.1842 36.4674 15.1856C36.4675 15.1861 36.4655 15.1751 36.4671 15.1493L35.7184 15.104L34.9698 15.0587C34.9541 15.3175 34.9921 15.5921 35.1257 15.8494C35.2614 16.1108 35.4691 16.3023 35.7071 16.4321L36.0662 15.7736ZM35.7184 15.104L36.4671 15.1493C36.4839 14.8719 36.4328 14.5663 36.2456 14.2944C36.0589 14.0232 35.7923 13.8665 35.5289 13.7821L35.3 14.4963L35.0712 15.2105C35.1054 15.2215 35.0575 15.2138 35.0102 15.1451C34.9886 15.1138 34.9776 15.084 34.9728 15.0638C34.9685 15.0453 34.9708 15.0415 34.9698 15.0587L35.7184 15.104ZM35.3 14.4963L35.5289 13.7821C35.4986 13.7724 35.4816 13.7638 35.4741 13.7594C35.467 13.7554 35.4687 13.7553 35.4745 13.7612C35.4807 13.7674 35.487 13.7757 35.4918 13.7846C35.4964 13.7932 35.4967 13.7969 35.4957 13.7922L34.7641 13.9574L34.0325 14.1227C34.1607 14.6903 34.5674 15.0491 35.0712 15.2105L35.3 14.4963ZM34.7641 13.9574L35.4957 13.7922C35.3947 13.3453 35.1445 12.9727 34.7562 12.719L34.346 13.3469L33.9358 13.9747C33.9858 14.0074 34.0143 14.0418 34.0325 14.1227L34.7641 13.9574ZM34.346 13.3469L34.7562 12.719C34.767 12.726 34.7822 12.7386 34.7966 12.7571C34.8109 12.7754 34.8183 12.7916 34.8213 12.8C34.824 12.8075 34.8214 12.8037 34.8198 12.7835C34.8182 12.763 34.8179 12.729 34.8235 12.6789L34.0783 12.5943L33.3331 12.5097C33.2744 13.0269 33.3908 13.6187 33.9358 13.9747L34.346 13.3469ZM34.0783 12.5943L34.8235 12.6789C34.8795 12.1864 34.7937 11.6365 34.3569 11.2431L33.855 11.8004L33.3531 12.3577C33.3462 12.3515 33.3394 12.3433 33.3343 12.335C33.3295 12.327 33.3294 12.324 33.3311 12.33C33.3352 12.3446 33.3458 12.3983 33.3331 12.5097L34.0783 12.5943ZM33.855 11.8004L34.3569 11.2431C34.1199 11.0296 33.8568 10.8469 33.5699 10.6942L33.2174 11.3562L32.8649 12.0182C33.0489 12.1161 33.2108 12.2296 33.3531 12.3577L33.855 11.8004ZM33.2174 11.3562L33.5699 10.6942C33.444 10.6271 33.3559 10.5437 33.2904 10.4408L32.6576 10.8434L32.0249 11.246C32.2349 11.5761 32.5199 11.8345 32.8649 12.0182L33.2174 11.3562ZM32.6576 10.8434L33.2904 10.4408C33.0785 10.1078 32.7895 9.84942 32.4379 9.67143L32.0992 10.3406L31.7605 11.0098C31.878 11.0692 31.9613 11.1461 32.0249 11.246L32.6576 10.8434ZM32.0992 10.3406L32.4379 9.67143C32.2497 9.57615 32.082 9.46695 31.9331 9.34467L31.4572 9.9244L30.9814 10.5041C31.2192 10.6993 31.4795 10.8676 31.7605 11.0098L32.0992 10.3406ZM31.4572 9.9244L31.9331 9.34467C31.8099 9.2436 31.7015 9.11837 31.6086 8.96283L30.9647 9.34751L30.3209 9.73219C30.4979 10.0284 30.7178 10.2878 30.9814 10.5041L31.4572 9.9244ZM30.9647 9.34751L31.6086 8.96283C31.4055 8.623 31.1256 8.35244 30.7755 8.16599L30.423 8.82796L30.0704 9.48992C30.1728 9.54445 30.254 9.62025 30.3209 9.73219L30.9647 9.34751ZM30.423 8.82796L30.7755 8.16599C30.6947 8.12292 30.6232 8.05661 30.5612 7.93596L29.8942 8.27899L29.2273 8.62203C29.4177 8.99235 29.6988 9.29202 30.0704 9.48992L30.423 8.82796ZM29.8942 8.27899L30.5612 7.93596C30.4292 7.6794 30.2242 7.46597 29.9469 7.33508C29.6803 7.20928 29.3986 7.18379 29.1405 7.20543L29.2031 7.95281L29.2658 8.70019C29.3421 8.69379 29.3428 8.70865 29.3066 8.69158C29.288 8.68279 29.2684 8.66942 29.2515 8.65264C29.2351 8.63636 29.2281 8.62371 29.2273 8.62203L29.8942 8.27899ZM29.2031 7.95281L29.1405 7.20543C29.0891 7.20974 29.1415 7.19386 29.2206 7.24822C29.2575 7.2736 29.2822 7.30264 29.296 7.32435C29.3085 7.34406 29.3077 7.35054 29.3029 7.33246L28.5775 7.52296L27.8521 7.71345C27.9257 7.99388 28.0803 8.28472 28.3712 8.48453C28.6588 8.68217 28.9827 8.72392 29.2658 8.70019L29.2031 7.95281ZM28.5775 7.52296L29.3029 7.33246C29.2385 7.08707 29.1247 6.83989 28.931 6.63415C28.7314 6.42199 28.4809 6.29049 28.2086 6.23345L28.0548 6.96752L27.901 7.70159C27.9013 7.70165 27.8917 7.69956 27.877 7.69148C27.8618 7.68318 27.8485 7.67252 27.8387 7.66213C27.8193 7.64154 27.8339 7.64424 27.8521 7.71345L28.5775 7.52296ZM28.0548 6.96752L28.2086 6.23345C27.9254 6.17414 27.6395 6.12471 27.351 6.08514L27.2491 6.82819L27.1472 7.57124C27.4013 7.60607 27.6525 7.64953 27.901 7.70159L28.0548 6.96752ZM27.2491 6.82819L27.351 6.08514C27.3464 6.08452 27.3514 6.08471 27.3622 6.08944C27.3734 6.09435 27.3842 6.1013 27.3928 6.10871C27.4009 6.11577 27.4022 6.1191 27.3985 6.11348C27.3945 6.10738 27.3852 6.09158 27.3738 6.06169L26.673 6.32894L25.9722 6.59619C26.1643 7.0999 26.5569 7.49031 27.1472 7.57124L27.2491 6.82819ZM26.673 6.32894L27.3738 6.06169C27.2724 5.79597 27.0919 5.52874 26.7898 5.36138C26.4903 5.19541 26.1703 5.18262 25.8948 5.23103L26.0246 5.96971L26.1545 6.70839C26.1985 6.70066 26.1463 6.71966 26.0629 6.67344C26.0241 6.65196 25.997 6.62586 25.981 6.60574C25.9665 6.58737 25.9662 6.58029 25.9722 6.59619L26.673 6.32894ZM26.0246 5.96971L25.8948 5.23103C25.682 5.26843 25.5805 5.23783 25.5385 5.2175L25.212 5.89271L24.8855 6.56791C25.288 6.76255 25.7283 6.78328 26.1545 6.70839L26.0246 5.96971ZM25.212 5.89271L25.5385 5.2175C25.5303 5.21356 25.462 5.18005 25.3829 4.9889L24.6899 5.27568L23.9969 5.56246C24.1693 5.97904 24.4491 6.35688 24.8855 6.56791L25.212 5.89271ZM24.6899 5.27568L25.3829 4.9889C25.1925 4.52863 24.8421 4.12714 24.2861 4.00413L24.1241 4.73642L23.9621 5.46871C23.9603 5.46831 23.9545 5.46665 23.9472 5.46276C23.9399 5.45889 23.9364 5.45556 23.9367 5.45588C23.9382 5.45728 23.9639 5.48272 23.9969 5.56246L24.6899 5.27568ZM24.1241 4.73642L24.2861 4.00413C24.1978 3.98459 24.1139 3.94075 24.0249 3.84248L23.4689 4.34579L22.9128 4.84909C23.1946 5.16039 23.5475 5.37697 23.9621 5.46871L24.1241 4.73642ZM23.4689 4.34579L24.0249 3.84248C23.8362 3.63394 23.5916 3.48108 23.2995 3.41897C23.0165 3.3588 22.7411 3.39464 22.4961 3.47257L22.7234 4.18728L22.9508 4.902C23.0174 4.88081 23.022 4.89351 22.9875 4.88617C22.9702 4.88249 22.9517 4.8754 22.9351 4.86556C22.9191 4.85604 22.9121 4.84823 22.9128 4.84909L23.4689 4.34579ZM22.7234 4.18728L22.4961 3.47257C22.4408 3.49014 22.4017 3.49947 22.3766 3.50406C22.3503 3.50887 22.3495 3.50659 22.368 3.5072C22.3856 3.50778 22.442 3.51167 22.5162 3.54369C22.597 3.57861 22.684 3.64106 22.751 3.73618L22.1377 4.16798L21.5245 4.59978C21.7506 4.92081 22.0917 4.99891 22.3186 5.00639C22.54 5.01368 22.7607 4.96244 22.9508 4.902L22.7234 4.18728ZM22.1377 4.16798L22.751 3.73618C22.727 3.70221 22.6899 3.65312 22.6397 3.60316C22.5999 3.56359 22.4946 3.46441 22.3271 3.40836C22.1103 3.33584 21.8257 3.35284 21.5942 3.54457C21.4187 3.68993 21.3602 3.86839 21.3416 3.93212C21.3005 4.07281 21.3036 4.2056 21.3053 4.25932C21.3076 4.33497 21.3153 4.41549 21.3251 4.49436L22.0694 4.40191L22.8137 4.30946C22.8068 4.25436 22.8049 4.22466 22.8046 4.21382C22.8036 4.18107 22.8111 4.25112 22.7814 4.35283C22.7685 4.39706 22.7174 4.56196 22.5511 4.6997C22.3289 4.88381 22.0552 4.89912 21.8511 4.83085C21.6963 4.77905 21.6054 4.69006 21.5819 4.66662C21.5478 4.63278 21.5287 4.60575 21.5245 4.59978L22.1377 4.16798Z" fill="#030302"/>
</svg>
