<svg width="48" height="48" viewBox="0 0 48 48" fill="none" xmlns="http://www.w3.org/2000/svg">
<path d="M28.6652 20.8752L29.3997 21.0267L28.6652 20.8752ZM29.4904 19.6035L29.1835 18.9192L29.4904 19.6035ZM30.1198 19.1582L30.6729 19.6648L30.1198 19.1582ZM33.4565 15.1012L33.2868 14.3707L33.4565 15.1012ZM34.0992 14.6676L34.7459 15.0475L34.0992 14.6676ZM34.487 14.0099L35.1324 14.3919L34.487 14.0099ZM35.5112 12.9131L35.4769 12.1639L35.5112 12.9131ZM36.0086 12.3517L36.7562 12.2926L36.0086 12.3517ZM36.3484 11.6586L36.0642 10.9645L36.3484 11.6586ZM36.6274 11.1837L37.3409 10.9524L36.6274 11.1837ZM35.3944 10.6687L35.1902 9.94702L35.3944 10.6687ZM34.8325 10.9979L34.3358 10.4359L34.8325 10.9979ZM33.6559 11.9606L33.4927 11.2285L33.6559 11.9606ZM31.3423 14.9199L30.9381 14.2881L31.3423 14.9199ZM27.5424 18.5693L26.9117 18.1634L27.5424 18.5693ZM27.3414 19.3914L26.5914 19.3978L27.3414 19.3914ZM27.0921 20.1711L27.6448 20.6781L27.0921 20.1711ZM26.3506 20.3715L26.2352 21.1126L26.3506 20.3715ZM24.9296 20.0768L25.4946 19.5837L24.9296 20.0768ZM23.8395 18.0948L23.1536 18.3982L23.8395 18.0948ZM23.2293 17.6068L23.4472 16.8892L23.2293 17.6068ZM22.6465 17.0996L23.3555 16.8551L22.6465 17.0996ZM21.7881 15.8695L22.5379 15.8549V15.8549L21.7881 15.8695ZM21.027 14.5711L20.418 15.0087L21.027 14.5711ZM20.5042 14.0217L20.9746 13.4376L20.5042 14.0217ZM20.0199 13.4454L20.6787 13.0871L20.0199 13.4454ZM19.6611 12.7809L20.3222 12.4267L19.6611 12.7809ZM18.2641 11.0126L17.7425 11.5516L18.2641 11.0126ZM17.7836 10.5867L17.323 11.1787L17.7836 10.5867ZM12.7688 10.0088L12.6378 10.7473L12.7688 10.0088ZM11.2638 9.82583L11.1837 10.5715L11.2638 9.82583ZM10.2306 12.1875L9.96995 12.8907L10.2306 12.1875ZM11.4356 13.1742L10.7313 13.432L11.4356 13.1742ZM11.7639 13.8601L12.4052 13.4711L11.7639 13.8601ZM12.2017 14.4691L11.6286 14.9529L12.2017 14.4691ZM12.6677 15.0584L12.0648 15.5045L12.6677 15.0584ZM12.9201 15.7976L12.1717 15.8476L12.9201 15.7976ZM13.3237 16.4306L12.9768 17.0956L13.3237 16.4306ZM14.7044 18.2104L14.0579 18.5905L14.7044 18.2104ZM14.9862 18.9289L15.717 18.7601L14.9862 18.9289ZM15.6012 19.4135L15.7286 18.6744L15.6012 19.4135ZM16.0036 20.0474L15.2717 19.8837L16.0036 20.0474ZM17.4129 21.8071L17.0019 22.4344L17.4129 21.8071ZM18.4149 22.9364L17.8307 23.4067L18.4149 22.9364ZM18.577 23.739L17.8347 23.6319L18.577 23.739ZM18.8284 24.4789L18.3949 25.091L18.8284 24.4789ZM19.7593 25.6581L20.2145 25.0621L19.7593 25.6581ZM20.1946 26.2334L20.8992 25.9763L20.1946 26.2334ZM20.4605 27.0195L19.7458 27.2469L20.4605 27.0195ZM20.0553 27.5248L19.9793 26.7787L20.0553 27.5248ZM19.1139 28.733L18.6991 28.1081L19.1139 28.733ZM18.1717 29.902L18.912 30.0223V30.0223L18.1717 29.902ZM17.709 30.4938L17.4333 29.7963L17.709 30.4938ZM17.0469 30.9103L17.5686 31.4492L17.0469 30.9103ZM15.7014 32.7234L15.174 32.1902L15.7014 32.7234ZM15.08 33.1756L14.7286 32.513L15.08 33.1756ZM14.4205 33.5945L14.8732 34.1925L14.4205 33.5945ZM13.9068 34.1415L14.5328 34.5545L13.9068 34.1415ZM13.5658 34.8403L14.2746 35.0856L13.5658 34.8403ZM13.2331 35.5465L12.5955 35.1516L13.2331 35.5465ZM11.6289 37.132L12.3786 37.1098L11.6289 37.132ZM10.3511 38.9556L9.71746 38.5544L10.3511 38.9556ZM10.403 39.525L9.84847 40.03L10.403 39.525ZM10.9557 40.0513L10.4741 40.6263V40.6263L10.9557 40.0513ZM12.6982 39.0025L13.4473 38.9641L12.6982 39.0025ZM13.9438 38.1002L14.5558 38.5337L13.9438 38.1002ZM14.3701 36.4778L13.898 35.895L14.3701 36.4778ZM15.0295 36.0589L14.6976 35.3863L15.0295 36.0589ZM16.2943 35.1735L17.0156 35.3787L16.2943 35.1735ZM16.6848 34.5182L17.1938 35.069L16.6848 34.5182ZM17.1832 33.9578L16.5767 33.5166L17.1832 33.9578ZM17.6075 33.3322L16.9734 32.9317L17.6075 33.3322ZM18.1476 32.8084L18.5341 33.4511L18.1476 32.8084ZM19.3339 31.854L19.7326 32.4893L19.3339 31.854ZM19.7332 31.2065L18.992 31.0919L19.7332 31.2065ZM20.2106 30.6276L20.4523 31.3376L20.2106 30.6276ZM20.8295 30.173L20.2048 29.7579L20.8295 30.173ZM21.2837 29.6775L21.7286 30.2813L21.2837 29.6775ZM22.5328 29.2977L22.3357 30.0213L22.5328 29.2977ZM23.4474 30.4483L22.7028 30.5382L23.4474 30.4483ZM23.8335 31.0936L23.4181 31.718L23.8335 31.0936ZM25.1014 32.9526L25.7155 32.522L25.1014 32.9526ZM25.5742 33.537L26.1238 33.0267L25.5742 33.537ZM27.1252 36.1137L27.7171 35.653L27.1252 36.1137ZM29.0111 38.4552L29.281 37.7554L29.0111 38.4552ZM29.6816 38.9008L29.1187 39.3964L29.6816 38.9008ZM30.5102 40.1275L31.1136 39.682L30.5102 40.1275ZM34.9237 40.1219L34.9459 40.8715L34.9237 40.1219ZM37.8782 38.3693L37.2062 38.7024L37.8782 38.3693ZM37.1922 37.012L36.6311 37.5097L37.1922 37.012ZM36.1905 35.8826L36.6653 35.302L36.1905 35.8826ZM35.5288 35.4307L35.9002 34.7791L35.5288 35.4307ZM34.5585 34.2791L33.8401 34.4944L34.5585 34.2791ZM34.1332 33.6614L33.6767 34.2565L34.1332 33.6614ZM32.9996 31.7081L32.2548 31.7959L32.9996 31.7081ZM32.0497 30.5422L31.3538 30.822L32.0497 30.5422ZM28.6165 25.6215L28.1032 26.1684L28.6165 25.6215ZM27.3072 23.765L26.9542 24.4267L27.3072 23.765ZM26.927 23.0733L26.1773 23.0544L26.927 23.0733ZM34.1375 39.4596L34.2825 40.1955L34.1375 39.4596ZM34.8875 39.3228L35.0117 40.0625L34.8875 39.3228ZM36.5719 38.7842L37.2838 39.0202L36.5719 38.7842ZM36.5462 37.6053L37.2412 37.3234L36.5462 37.6053ZM36.1647 36.9548L36.7479 36.4832L36.1647 36.9548ZM35.5102 35.5738L36.1499 35.1823L35.5102 35.5738ZM34.8959 35.0949L35.1611 34.3933L34.8959 35.0949ZM33.9846 33.9031L34.4847 33.3442L33.9846 33.9031ZM33.1028 32.6896L33.6816 32.2126L33.1028 32.6896ZM32.705 32.0512L32.0226 32.3624L32.705 32.0512ZM32.3412 31.3876L32.97 30.9788L32.3412 31.3876ZM31.1793 30.3805L30.4811 30.6545L31.1793 30.3805ZM29.4418 27.9343L28.6919 27.948L29.4418 27.9343ZM28.6495 26.6549L29.363 26.4238L28.6495 26.6549ZM28.0964 26.1309L28.3396 25.4214L28.0964 26.1309ZM27.5229 25.6218L28.2209 25.3473L27.5229 25.6218ZM26.4583 23.6114L25.7788 23.9291L26.4583 23.6114ZM25.895 23.0948L25.6023 23.7853L25.895 23.0948ZM22.9565 18.7388L23.5873 18.3331L22.9565 18.7388ZM22.1736 17.4525L21.4893 17.7596L22.1736 17.4525ZM20.6382 15.7889L19.8944 15.8854L20.6382 15.7889ZM17.842 12.2596L17.3038 12.7819L17.842 12.2596ZM17.2962 11.7513L16.8143 12.326L17.2962 11.7513ZM16.7802 11.3827L16.4116 12.0359L16.7802 11.3827ZM16.1801 11.3359L16.0105 10.6053L16.1801 11.3359ZM15.4387 11.0826L14.9363 11.6395L15.4387 11.0826ZM13.9483 10.7599L14.081 11.498L13.9483 10.7599ZM11.1872 11.9064L10.5383 12.2825L11.1872 11.9064ZM11.6267 12.418L12.1068 11.8418L11.6267 12.418ZM12.4192 13.6922L12.6148 12.9682L12.4192 13.6922ZM12.9041 14.2537L12.1588 14.3378L12.9041 14.2537ZM14.2115 16.103L13.4738 15.9681L14.2115 16.103ZM15.038 17.3562L14.4648 17.8399L15.038 17.3562ZM15.3588 18.0494L14.6223 18.1913L15.3588 18.0494ZM15.9211 18.5688L16.0925 17.8386L15.9211 18.5688ZM17.4356 21.1749L18.0819 20.7943L17.4356 21.1749ZM17.9913 21.699L17.6311 22.3569L17.9913 21.699ZM19.012 22.8126L19.4301 22.19L19.012 22.8126ZM19.4399 23.4286L20.1685 23.251L19.4399 23.4286ZM22.0847 27.0695L22.3114 26.3546L22.0847 27.0695ZM23.8171 29.5188L23.9678 28.7841L23.8171 29.5188ZM25.1382 31.3401L24.3912 31.4072L25.1382 31.3401ZM25.8657 32.6646L26.5606 32.3824L25.8657 32.6646ZM27.5701 34.2102L27.9793 33.5817L27.5701 34.2102ZM28.1549 35.6373L27.8175 36.3071L28.1549 35.6373ZM28.7084 36.163L28.0442 36.5113L28.7084 36.163ZM29.1307 36.7831L29.6978 36.2922L29.1307 36.7831ZM31.1054 38.9636L31.7789 38.6335L31.1054 38.9636ZM31.3755 39.3676L30.8542 39.9068L31.3755 39.3676ZM27.5557 21.8971L28.22 22.2454C28.2329 22.2208 28.2566 22.1802 28.3755 22.1439L28.1565 21.4266L27.9374 20.7093C27.4943 20.8446 27.1175 21.1177 26.8915 21.5489L27.5557 21.8971ZM28.1565 21.4266L28.3755 22.1439C28.6208 22.069 28.8559 21.9386 29.0457 21.733C29.236 21.5266 29.3473 21.2806 29.3997 21.0267L28.6652 20.8752L27.9306 20.7238C27.9274 20.7393 27.9249 20.7429 27.9269 20.7387C27.9279 20.7367 27.9297 20.7333 27.9327 20.7291C27.9356 20.7248 27.9391 20.7203 27.9432 20.7159C27.9472 20.7115 27.9512 20.7079 27.9546 20.7051C27.9581 20.7023 27.9605 20.7008 27.9612 20.7003C27.9628 20.6994 27.9564 20.7035 27.9374 20.7093L28.1565 21.4266ZM28.6652 20.8752L29.3997 21.0267C29.4451 20.8067 29.5121 20.6212 29.5954 20.4647L28.9333 20.1124L28.2712 19.76C28.1132 20.057 28.0015 20.3802 27.9306 20.7238L28.6652 20.8752ZM28.9333 20.1124L29.5954 20.4647C29.6322 20.3955 29.6873 20.3372 29.7974 20.2878L29.4904 19.6035L29.1835 18.9192C28.7921 19.0947 28.4758 19.3756 28.2712 19.76L28.9333 20.1124ZM29.4904 19.6035L29.7974 20.2878C30.1321 20.1377 30.4284 19.9317 30.6729 19.6648L30.1198 19.1582L29.5667 18.6517C29.4735 18.7535 29.3502 18.8444 29.1835 18.9192L29.4904 19.6035ZM30.1198 19.1582L30.6729 19.6648C30.9187 19.3964 31.097 19.0818 31.2135 18.7334L30.5021 18.4957L29.7908 18.258C29.7353 18.4241 29.6588 18.5512 29.5667 18.6517L30.1198 19.1582ZM30.5021 18.4957L31.2135 18.7334C31.2579 18.6005 31.3215 18.514 31.4002 18.4496L30.9253 17.8691L30.4504 17.2886C30.1369 17.5451 29.9184 17.8763 29.7908 18.258L30.5021 18.4957ZM30.9253 17.8691L31.4002 18.4496C31.4947 18.3722 31.634 18.2984 31.8429 18.2466L31.6626 17.5186L31.4823 16.7906C31.1003 16.8852 30.7481 17.045 30.4504 17.2886L30.9253 17.8691ZM31.6626 17.5186L31.8429 18.2466C32.1329 18.1748 32.4191 18.0136 32.6134 17.7217C32.7994 17.4421 32.8436 17.1283 32.831 16.8542L32.0818 16.8886L31.3326 16.9229C31.3359 16.9958 31.3182 16.9604 31.3645 16.8908C31.3878 16.8558 31.4173 16.8281 31.4459 16.8095C31.4726 16.7921 31.4885 16.7891 31.4823 16.7906L31.6626 17.5186ZM32.0818 16.8886L32.831 16.8542C32.8267 16.7592 32.8416 16.7319 32.8369 16.743C32.834 16.7497 32.8272 16.7623 32.8151 16.7763C32.803 16.7903 32.7911 16.7992 32.784 16.8036L32.393 16.1635L32.0021 15.5235C31.4689 15.8492 31.3089 16.4055 31.3326 16.9229L32.0818 16.8886ZM32.393 16.1635L32.784 16.8036C33.1547 16.5771 33.4209 16.2479 33.571 15.8428L32.8677 15.5822L32.1644 15.3216C32.1285 15.4187 32.0782 15.477 32.0021 15.5235L32.393 16.1635ZM32.8677 15.5822L33.571 15.8428C33.5732 15.8367 33.5737 15.8376 33.5703 15.8423C33.5669 15.8473 33.5626 15.8517 33.5592 15.8545C33.5515 15.8607 33.5647 15.8461 33.6262 15.8318L33.4565 15.1012L33.2868 14.3707C32.7843 14.4874 32.3592 14.796 32.1644 15.3216L32.8677 15.5822ZM33.4565 15.1012L33.6262 15.8318C34.0812 15.7261 34.4915 15.4805 34.7459 15.0475L34.0992 14.6676L33.4525 14.2878C33.4489 14.2938 33.4308 14.3372 33.2868 14.3707L33.4565 15.1012ZM34.0992 14.6676L34.7459 15.0475C34.8744 14.8287 35.0032 14.6102 35.1324 14.3919L34.487 14.0099L33.8416 13.6279C33.7115 13.8476 33.5819 14.0675 33.4525 14.2878L34.0992 14.6676ZM34.487 14.0099L35.1324 14.3919C35.2836 14.1364 35.4143 13.8662 35.5251 13.5821L34.8264 13.3097L34.1276 13.0372C34.045 13.2489 33.9495 13.4455 33.8416 13.6279L34.487 14.0099ZM34.8264 13.3097L35.5251 13.5821C35.5207 13.5934 35.511 13.6124 35.4936 13.6328C35.4761 13.6532 35.4582 13.6665 35.4459 13.6736C35.4347 13.6801 35.4337 13.6783 35.4497 13.6743C35.4662 13.6701 35.4969 13.6645 35.5455 13.6623L35.5112 12.9131L35.4769 12.1639C34.9454 12.1882 34.371 12.4129 34.1276 13.0372L34.8264 13.3097ZM35.5112 12.9131L35.5455 13.6623C35.8379 13.6489 36.1996 13.5594 36.4668 13.2578C36.7345 12.9556 36.7794 12.5852 36.7562 12.2926L36.0086 12.3517L35.2609 12.4108C35.2661 12.476 35.2421 12.3781 35.3441 12.263C35.4455 12.1485 35.5444 12.1608 35.4769 12.1639L35.5112 12.9131ZM36.0086 12.3517L36.7562 12.2926C36.7487 12.1974 36.7672 12.1966 36.7457 12.2403C36.734 12.2643 36.7149 12.2913 36.6889 12.315C36.6635 12.3382 36.6415 12.349 36.6326 12.3527L36.3484 11.6586L36.0642 10.9645C35.7798 11.081 35.5423 11.2874 35.3989 11.58C35.2642 11.8548 35.2401 12.1484 35.2609 12.4108L36.0086 12.3517ZM36.3484 11.6586L36.6326 12.3527C36.8396 12.2679 37.0938 12.1174 37.2559 11.8416C37.4341 11.5384 37.4259 11.2148 37.3409 10.9524L36.6274 11.1837L35.914 11.415C35.9077 11.3955 35.896 11.3494 35.9003 11.2839C35.9048 11.2148 35.9259 11.1442 35.9626 11.0817C36.0317 10.9641 36.112 10.945 36.0642 10.9645L36.3484 11.6586ZM36.6274 11.1837L37.3409 10.9524C37.2961 10.8144 37.2559 10.6086 37.2324 10.3188L36.4848 10.3794L35.7373 10.44C35.7663 10.7982 35.8211 11.1285 35.914 11.415L36.6274 11.1837ZM36.4848 10.3794L37.2324 10.3188C37.2225 10.1969 37.1981 10.0363 37.1262 9.87825C37.0509 9.71245 36.8906 9.48587 36.5897 9.38846C36.304 9.296 36.0547 9.37421 35.9137 9.43998C35.7691 9.5074 35.6489 9.60185 35.557 9.68465L36.0593 10.2417L36.5615 10.7987C36.5984 10.7654 36.5924 10.7786 36.5476 10.7994C36.5064 10.8187 36.3425 10.8851 36.1278 10.8156C35.8978 10.7411 35.794 10.5723 35.7607 10.4989C35.7309 10.4334 35.734 10.4 35.7373 10.44L36.4848 10.3794ZM36.0593 10.2417L35.557 9.68465C35.4497 9.78143 35.3624 9.84792 35.2946 9.89147C35.2613 9.91289 35.2354 9.92697 35.2168 9.93587C35.1981 9.94484 35.1894 9.94724 35.1902 9.94702L35.3944 10.6687L35.5986 11.3904C35.9511 11.2906 36.2763 11.0559 36.5615 10.7987L36.0593 10.2417ZM35.3944 10.6687L35.1902 9.94702C34.8684 10.0381 34.5842 10.2163 34.3358 10.4359L34.8325 10.9979L35.3292 11.5598C35.4584 11.4456 35.5488 11.4044 35.5986 11.3904L35.3944 10.6687ZM34.8325 10.9979L34.3358 10.4359C34.1054 10.6396 33.9 10.8663 33.7205 11.1155L34.3291 11.5539L34.9376 11.9923C35.0518 11.8338 35.182 11.6899 35.3292 11.5598L34.8325 10.9979ZM34.3291 11.5539L33.7205 11.1155C33.7046 11.1377 33.6586 11.1916 33.4927 11.2285L33.6559 11.9606L33.819 12.6926C34.2571 12.595 34.6599 12.3777 34.9376 11.9923L34.3291 11.5539ZM33.6559 11.9606L33.4927 11.2285C33.2409 11.2846 32.9889 11.3959 32.779 11.5927C32.5657 11.7927 32.4372 12.0423 32.3758 12.3054L33.1062 12.4759L33.8365 12.6464C33.8386 12.6374 33.839 12.6407 33.8332 12.6512C33.827 12.6624 33.8173 12.6754 33.8049 12.687C33.7991 12.6925 33.7939 12.6965 33.7897 12.6994C33.7877 12.7008 33.786 12.7018 33.7849 12.7024C33.7838 12.7031 33.7831 12.7034 33.7831 12.7034C33.7832 12.7034 33.7936 12.6983 33.819 12.6926L33.6559 11.9606ZM33.1062 12.4759L32.3758 12.3054C32.3334 12.4869 32.2672 12.6167 32.1896 12.7132L32.7744 13.1829L33.3591 13.6526C33.595 13.3589 33.7499 13.0173 33.8365 12.6464L33.1062 12.4759ZM32.7744 13.1829L32.1896 12.7132C32.1512 12.7611 32.0772 12.8232 31.9097 12.8683L32.1046 13.5926L32.2995 14.3168C32.7115 14.2059 33.0841 13.9949 33.3591 13.6526L32.7744 13.1829ZM32.1046 13.5926L31.9097 12.8683C31.6295 12.9437 31.3573 13.1008 31.1653 13.3737C30.9789 13.6385 30.9201 13.9387 30.9204 14.2104L31.6704 14.2095L32.4204 14.2087C32.4203 14.147 32.4336 14.1777 32.392 14.2369C32.3717 14.2658 32.3471 14.2882 32.3244 14.303C32.3031 14.3169 32.2916 14.3189 32.2995 14.3168L32.1046 13.5926ZM31.6704 14.2095L30.9204 14.2104C30.9205 14.2974 30.906 14.3266 30.9078 14.3226C30.909 14.3201 30.9129 14.3127 30.9206 14.3039C30.9283 14.2951 30.9352 14.29 30.9381 14.2881L31.3423 14.9199L31.7466 15.5516C32.2422 15.2344 32.421 14.7164 32.4204 14.2087L31.6704 14.2095ZM31.3423 14.9199L30.9381 14.2881C30.7282 14.4225 30.5138 14.5532 30.295 14.6802L30.6717 15.3288L31.0484 15.9774C31.2855 15.8396 31.5183 15.6977 31.7466 15.5516L31.3423 14.9199ZM30.6717 15.3288L30.295 14.6802C29.8905 14.9152 29.621 15.2778 29.4945 15.72L30.2155 15.9264L30.9366 16.1328C30.9623 16.043 30.9969 16.0072 31.0484 15.9774L30.6717 15.3288ZM30.2155 15.9264L29.4945 15.72C29.4432 15.8991 29.37 16.0363 29.2825 16.1441L29.8648 16.6168L30.4471 17.0895C30.6749 16.8088 30.8356 16.4857 30.9366 16.1328L30.2155 15.9264ZM29.8648 16.6168L29.2825 16.1441C29.2667 16.1636 29.2121 16.2207 29.0243 16.2543L29.1565 16.9926L29.2887 17.7309C29.7299 17.6519 30.1475 17.4585 30.4471 17.0895L29.8648 16.6168ZM29.1565 16.9926L29.0243 16.2543C28.7231 16.3083 28.4039 16.4584 28.1921 16.7751C27.9915 17.0751 27.9631 17.4129 27.9892 17.6916L28.7359 17.6215L29.4827 17.5514C29.4747 17.4671 29.4994 17.5186 29.439 17.609C29.4081 17.6551 29.3687 17.6895 29.332 17.711C29.2984 17.7306 29.279 17.7326 29.2887 17.7309L29.1565 16.9926ZM28.7359 17.6215L27.9892 17.6916C27.9963 17.7675 27.9695 17.6836 28.0583 17.5724C28.1531 17.4537 28.2561 17.4566 28.2066 17.4607L28.2674 18.2082L28.3281 18.9557C28.6251 18.9316 28.9794 18.8227 29.2304 18.5085C29.4754 18.2017 29.5096 17.8385 29.4827 17.5514L28.7359 17.6215ZM28.2674 18.2082L28.2066 17.4607C27.7206 17.5002 27.2182 17.6872 26.9117 18.1634L27.5424 18.5693L28.173 18.9753C28.1698 18.9804 28.165 18.9859 28.16 18.9903C28.1553 18.9945 28.1543 18.9941 28.1607 18.9909C28.1753 18.9837 28.224 18.9642 28.3281 18.9557L28.2674 18.2082ZM27.5424 18.5693L26.9117 18.1634C26.6738 18.5331 26.5877 18.963 26.5914 19.3978L27.3414 19.3914L28.0914 19.3851C28.0894 19.1489 28.1373 19.0308 28.173 18.9753L27.5424 18.5693ZM27.3414 19.3914L26.5914 19.3978C26.5932 19.6096 26.5414 19.6619 26.5395 19.664L27.0921 20.1711L27.6448 20.6781C27.9809 20.3117 28.0953 19.8443 28.0914 19.3851L27.3414 19.3914ZM27.0921 20.1711L26.5395 19.664C26.5442 19.6589 26.5523 19.6517 26.5633 19.645C26.5742 19.6385 26.5823 19.6359 26.5843 19.6353C26.5866 19.6347 26.5534 19.644 26.466 19.6304L26.3506 20.3715L26.2352 21.1126C26.721 21.1882 27.2541 21.104 27.6448 20.6781L27.0921 20.1711ZM26.3506 20.3715L26.466 19.6304C26.1034 19.574 25.7604 19.5518 25.4497 19.5809L25.5196 20.3277L25.5896 21.0744C25.7362 21.0606 25.9472 21.0677 26.2352 21.1126L26.3506 20.3715ZM25.5196 20.3277L25.4497 19.5809C25.4479 19.5811 25.4528 19.5805 25.4626 19.5819C25.4726 19.5834 25.4837 19.5864 25.494 19.5908C25.5042 19.5951 25.5097 19.5991 25.5104 19.5996C25.5108 19.5999 25.5052 19.5958 25.4946 19.5837L24.9296 20.0768L24.3645 20.57C24.6711 20.9213 25.0966 21.1206 25.5896 21.0744L25.5196 20.3277ZM24.9296 20.0768L25.4946 19.5837C25.3739 19.4453 25.2726 19.2926 25.1903 19.1238L24.5162 19.4525L23.842 19.7812C23.9816 20.0675 24.1559 20.331 24.3645 20.57L24.9296 20.0768ZM24.5162 19.4525L25.1903 19.1238C25.0754 18.8881 24.9565 18.6552 24.8338 18.4249L24.172 18.7778L23.5102 19.1306C23.6244 19.3449 23.735 19.5617 23.842 19.7812L24.5162 19.4525ZM24.172 18.7778L24.8338 18.4249C24.724 18.219 24.6212 18.0078 24.5254 17.7913L23.8395 18.0948L23.1536 18.3982C23.2641 18.6478 23.3829 18.892 23.5102 19.1306L24.172 18.7778ZM23.8395 18.0948L24.5254 17.7913C24.313 17.3111 23.9042 17.0279 23.4472 16.8892L23.2293 17.6068L23.0114 18.3245C23.0915 18.3488 23.1282 18.3733 23.1413 18.3837C23.151 18.3915 23.1519 18.3943 23.1536 18.3982L23.8395 18.0948ZM23.2293 17.6068L23.4472 16.8892C23.3736 16.8668 23.3493 16.8461 23.3482 16.8451C23.3477 16.8447 23.3501 16.8468 23.353 16.8511C23.3559 16.8554 23.3564 16.8575 23.3555 16.8551L22.6465 17.0996L21.9375 17.3441C22.1183 17.8683 22.5346 18.1797 23.0114 18.3245L23.2293 17.6068ZM22.6465 17.0996L23.3555 16.8551C23.2071 16.4247 22.9165 16.0938 22.5277 15.8735L22.1581 16.5261L21.7885 17.1787C21.8812 17.2313 21.9163 17.2827 21.9375 17.3441L22.6465 17.0996ZM22.1581 16.5261L22.5277 15.8735C22.5187 15.8685 22.5187 15.8671 22.5232 15.8715C22.5254 15.8736 22.5281 15.8765 22.5309 15.8802C22.5337 15.8839 22.5363 15.8878 22.5384 15.8915C22.5428 15.8994 22.5433 15.9031 22.5424 15.8993C22.5413 15.8949 22.5384 15.881 22.5379 15.8549L21.7881 15.8695L21.0382 15.8841C21.0487 16.4218 21.2933 16.8983 21.7885 17.1787L22.1581 16.5261ZM21.7881 15.8695L22.5379 15.8549C22.5291 15.4004 22.3843 14.963 22.047 14.6204L21.5126 15.1465L20.9781 15.6727C20.9965 15.6914 21.0353 15.7359 21.0382 15.8841L21.7881 15.8695ZM21.5126 15.1465L22.047 14.6204C21.896 14.4669 21.7591 14.3046 21.6361 14.1334L21.027 14.5711L20.418 15.0087C20.5867 15.2436 20.7735 15.4649 20.9781 15.6727L21.5126 15.1465ZM21.027 14.5711L21.6361 14.1334C21.4492 13.8733 21.2277 13.6414 20.9746 13.4376L20.5042 14.0217L20.0338 14.6059C20.186 14.7285 20.3131 14.8627 20.418 15.0087L21.027 14.5711ZM20.5042 14.0217L20.9746 13.4376C20.8463 13.3343 20.75 13.2182 20.6787 13.0871L20.0199 13.4454L19.361 13.8037C19.5301 14.1147 19.7567 14.3828 20.0338 14.6059L20.5042 14.0217ZM20.0199 13.4454L20.6787 13.0871C20.5593 12.8674 20.4404 12.6473 20.3222 12.4267L19.6611 12.7809L19 13.135C19.1197 13.3584 19.24 13.5813 19.361 13.8037L20.0199 13.4454ZM19.6611 12.7809L20.3222 12.4267C20.1973 12.1935 20.0669 11.9642 19.9308 11.7386L19.2886 12.126L18.6464 12.5134C18.7692 12.717 18.8871 12.9242 19 13.135L19.6611 12.7809ZM19.2886 12.126L19.9308 11.7386C19.7658 11.465 19.5655 11.2173 19.3319 10.9963L18.8165 11.5411L18.301 12.0859C18.4381 12.2156 18.5526 12.3578 18.6464 12.5134L19.2886 12.126ZM18.8165 11.5411L19.3319 10.9963C19.1486 10.8229 18.9665 10.6486 18.7856 10.4736L18.2641 11.0126L17.7425 11.5516C17.9275 11.7305 18.1137 11.9086 18.301 12.0859L18.8165 11.5411ZM18.2641 11.0126L18.7856 10.4736C18.5913 10.2855 18.41 10.1239 18.2442 9.99482L17.7836 10.5867L17.323 11.1787C17.4319 11.2633 17.571 11.3855 17.7425 11.5516L18.2641 11.0126ZM17.7836 10.5867L18.2442 9.99482C17.9766 9.78663 17.6605 9.68057 17.3445 9.63425L17.2357 10.3763L17.127 11.1184C17.2668 11.1389 17.3159 11.1731 17.323 11.1787L17.7836 10.5867ZM17.2357 10.3763L17.3445 9.63425C17.2571 9.62145 17.1233 9.57605 16.939 9.45135L16.5188 10.0726L16.0987 10.6939C16.4143 10.9073 16.7585 11.0644 17.127 11.1184L17.2357 10.3763ZM16.5188 10.0726L16.939 9.45135C16.5666 9.19956 16.1323 9.06316 15.6634 9.12975L15.7688 9.8723L15.8743 10.6148C15.9054 10.6104 15.971 10.6076 16.0987 10.6939L16.5188 10.0726ZM15.7688 9.8723L15.6634 9.12975C15.2986 9.18155 14.9534 9.31546 14.6303 9.5111L15.0188 10.1526L15.4073 10.7942C15.5843 10.687 15.739 10.6341 15.8743 10.6148L15.7688 9.8723ZM15.0188 10.1526L14.6303 9.5111C14.4757 9.60475 14.3557 9.63255 14.2614 9.63349L14.2688 10.3835L14.2763 11.1334C14.682 11.1294 15.062 11.0033 15.4073 10.7942L15.0188 10.1526ZM14.2688 10.3835L14.2614 9.63349C14.1209 9.63489 13.971 9.60704 13.8068 9.53874L13.5188 10.2313L13.2309 10.9238C13.5666 11.0634 13.9168 11.137 14.2763 11.1334L14.2688 10.3835ZM13.5188 10.2313L13.8068 9.53874C13.5096 9.41519 13.2071 9.32486 12.8998 9.27034L12.7688 10.0088L12.6378 10.7473C12.8305 10.7815 13.028 10.8394 13.2309 10.9238L13.5188 10.2313ZM12.7688 10.0088L12.8998 9.27034C12.6316 9.22275 12.363 9.18536 12.0941 9.15825L12.0188 9.90446L11.9436 10.6507C12.1747 10.674 12.4061 10.7062 12.6378 10.7473L12.7688 10.0088ZM12.0188 9.90446L12.0941 9.15825C11.8457 9.1332 11.5957 9.10715 11.3439 9.08012L11.2638 9.82583L11.1837 10.5715C11.4387 10.5989 11.6919 10.6253 11.9436 10.6507L12.0188 9.90446ZM11.2638 9.82583L11.3439 9.08012C10.889 9.03126 10.4638 9.16304 10.0894 9.39621L10.4859 10.0328L10.8824 10.6695C11.0386 10.5722 11.132 10.566 11.1837 10.5715L11.2638 9.82583ZM10.4859 10.0328L10.0894 9.39621C9.71584 9.62887 9.41884 9.94178 9.21689 10.3317L9.88285 10.6766L10.5488 11.0216C10.6203 10.8835 10.7254 10.7673 10.8824 10.6695L10.4859 10.0328ZM9.88285 10.6766L9.21689 10.3317C9.00379 10.7431 8.93685 11.1908 8.99703 11.6486L9.74063 11.5509L10.4842 11.4531C10.4606 11.2732 10.4884 11.1381 10.5488 11.0216L9.88285 10.6766ZM9.74063 11.5509L8.99703 11.6486C9.03174 11.9127 9.12321 12.1766 9.30022 12.4066C9.47891 12.6388 9.71364 12.7957 9.96995 12.8907L10.2306 12.1875L10.4913 11.4842C10.4752 11.4783 10.4709 11.4746 10.4737 11.4766C10.477 11.4789 10.4831 11.4841 10.4889 11.4917C10.4946 11.4992 10.4958 11.5032 10.4944 11.4997C10.4928 11.4955 10.4879 11.4813 10.4842 11.4531L9.74063 11.5509ZM10.2306 12.1875L9.96995 12.8907C10.2006 12.9762 10.389 13.0764 10.5418 13.1865L10.98 12.5777L11.4181 11.969C11.1413 11.7698 10.83 11.6098 10.4913 11.4842L10.2306 12.1875ZM10.98 12.5777L10.5418 13.1865C10.6378 13.2555 10.6952 13.3333 10.7313 13.432L11.4356 13.1742L12.1399 12.9164C11.9981 12.529 11.7518 12.2092 11.4181 11.969L10.98 12.5777ZM11.4356 13.1742L10.7313 13.432C10.8364 13.7192 10.9667 13.9919 11.1227 14.2491L11.7639 13.8601L12.4052 13.4711C12.3013 13.2998 12.2127 13.1153 12.1399 12.9164L11.4356 13.1742ZM11.7639 13.8601L11.1227 14.2491C11.2729 14.4967 11.4416 14.7314 11.6286 14.9529L12.2017 14.4691L12.7748 13.9854C12.638 13.8233 12.5149 13.652 12.4052 13.4711L11.7639 13.8601ZM12.2017 14.4691L11.6286 14.9529C11.7802 15.1325 11.9256 15.3164 12.0648 15.5045L12.6677 15.0584L13.2706 14.6122C13.1122 14.3983 12.947 14.1893 12.7748 13.9854L12.2017 14.4691ZM12.6677 15.0584L12.0648 15.5045C12.1145 15.5717 12.1602 15.6743 12.1717 15.8476L12.9201 15.7976L13.6684 15.7476C13.641 15.3373 13.5184 14.9471 13.2706 14.6122L12.6677 15.0584ZM12.9201 15.7976L12.1717 15.8476C12.2078 16.388 12.4845 16.8387 12.9768 17.0956L13.3237 16.4306L13.6706 15.7657C13.6575 15.7588 13.6541 15.7552 13.6562 15.7571C13.6571 15.7579 13.6589 15.7597 13.6612 15.7624C13.6636 15.7651 13.6659 15.7682 13.668 15.7715C13.6701 15.7748 13.6716 15.7777 13.6725 15.7798C13.6735 15.7818 13.6737 15.7826 13.6734 15.7816C13.6728 15.7797 13.6698 15.7693 13.6684 15.7476L12.9201 15.7976ZM13.3237 16.4306L12.9768 17.0956C13.11 17.1651 13.1777 17.2404 13.218 17.3148L13.8777 16.958L14.5374 16.6012C14.3381 16.2329 14.0365 15.9566 13.6706 15.7657L13.3237 16.4306ZM13.8777 16.958L13.218 17.3148C13.3564 17.5707 13.5138 17.8139 13.6901 18.0441L14.2855 17.5881L14.881 17.1321C14.7529 16.9649 14.6385 16.7881 14.5374 16.6012L13.8777 16.958ZM14.2855 17.5881L13.6901 18.0441C13.8236 18.2185 13.9462 18.4006 14.0579 18.5905L14.7044 18.2104L15.3509 17.8302C15.2084 17.5877 15.0517 17.355 14.881 17.1321L14.2855 17.5881ZM14.7044 18.2104L14.0579 18.5905C14.1436 18.7362 14.2106 18.9036 14.2555 19.0977L14.9862 18.9289L15.717 18.7601C15.6404 18.4286 15.5196 18.1169 15.3509 17.8302L14.7044 18.2104ZM14.9862 18.9289L14.2555 19.0977C14.3228 19.3895 14.4799 19.6461 14.7214 19.8363C14.9507 20.017 15.2183 20.1086 15.4739 20.1526L15.6012 19.4135L15.7286 18.6744C15.6837 18.6666 15.6573 18.658 15.6448 18.653C15.6329 18.6482 15.6371 18.6482 15.6497 18.6581C15.6632 18.6688 15.68 18.6859 15.6945 18.709C15.7088 18.7319 15.7149 18.751 15.717 18.7601L14.9862 18.9289ZM15.6012 19.4135L15.4739 20.1526C15.5291 20.1621 15.4178 20.1564 15.3306 20.019C15.2489 19.8903 15.2896 19.8034 15.2717 19.8837L16.0036 20.0474L16.7355 20.2111C16.7986 19.929 16.8129 19.5552 16.597 19.2152C16.3757 18.8665 16.0227 18.7251 15.7286 18.6744L15.6012 19.4135ZM16.0036 20.0474L15.2717 19.8837C15.1659 20.3566 15.1734 20.9023 15.5221 21.3486L16.1131 20.8869L16.7042 20.4253C16.7198 20.4453 16.717 20.4563 16.7139 20.4321C16.7099 20.4017 16.7084 20.3323 16.7355 20.2111L16.0036 20.0474ZM16.1131 20.8869L15.5221 21.3486C15.7451 21.6342 16.0252 21.8634 16.3477 22.0412L16.7098 21.3844L17.0719 20.7276C16.907 20.6367 16.7893 20.5342 16.7042 20.4253L16.1131 20.8869ZM16.7098 21.3844L16.3477 22.0412C16.5753 22.1667 16.7933 22.2978 17.0019 22.4344L17.4129 21.8071L17.824 21.1797C17.5824 21.0215 17.3317 20.8708 17.0719 20.7276L16.7098 21.3844ZM17.4129 21.8071L17.0019 22.4344C17.1529 22.5333 17.2654 22.644 17.3494 22.7646L17.9649 22.3359L18.5803 21.9073C18.3785 21.6176 18.123 21.3757 17.824 21.1797L17.4129 21.8071ZM17.9649 22.3359L17.3494 22.7646C17.5023 22.984 17.6627 23.1981 17.8307 23.4067L18.4149 22.9364L18.9991 22.466C18.8528 22.2844 18.7132 22.0981 18.5803 21.9073L17.9649 22.3359ZM18.4149 22.9364L17.8307 23.4067C17.8273 23.4025 17.8327 23.4052 17.8381 23.4319C17.8444 23.463 17.85 23.5259 17.8347 23.6319L18.577 23.739L19.3193 23.846C19.3867 23.3791 19.3296 22.8765 18.9991 22.466L18.4149 22.9364ZM18.577 23.739L17.8347 23.6319C17.7594 24.154 17.8786 24.7253 18.3949 25.091L18.8284 24.4789L19.2619 23.8669C19.2673 23.8708 19.2787 23.8802 19.2906 23.8961C19.3026 23.9121 19.3098 23.9274 19.3132 23.9377C19.3195 23.9561 19.3065 23.9348 19.3193 23.846L18.577 23.739ZM18.8284 24.4789L18.3949 25.091C18.5002 25.1656 18.565 25.2495 18.6068 25.3506L19.3 25.0642L19.9931 24.7778C19.8392 24.4053 19.5896 24.0991 19.2619 23.8669L18.8284 24.4789ZM19.3 25.0642L18.6068 25.3506C18.7564 25.7128 18.993 26.0166 19.304 26.2542L19.7593 25.6581L20.2145 25.0621C20.1088 24.9814 20.0392 24.8892 19.9931 24.7778L19.3 25.0642ZM19.7593 25.6581L19.304 26.2542C19.4102 26.3353 19.462 26.4136 19.4901 26.4905L20.1946 26.2334L20.8992 25.9763C20.7635 25.6045 20.5251 25.2993 20.2145 25.0621L19.7593 25.6581ZM20.1946 26.2334L19.4901 26.4905C19.5675 26.7026 19.6527 26.9543 19.7458 27.2469L20.4605 27.0195L21.1752 26.7921C21.0776 26.4854 20.9856 26.213 20.8992 25.9763L20.1946 26.2334ZM20.4605 27.0195L19.7458 27.2469C19.7493 27.258 19.7358 27.223 19.7415 27.1562C19.7479 27.08 19.778 26.9857 19.8456 26.9014C19.9089 26.8224 19.9755 26.7891 20.0011 26.7786C20.0244 26.769 20.0226 26.7743 19.9793 26.7787L20.0553 27.5248L20.1313 28.271C20.3823 28.2454 20.7587 28.1604 21.0158 27.8397C21.3042 27.48 21.2617 27.0641 21.1752 26.7921L20.4605 27.0195ZM20.0553 27.5248L19.9793 26.7787C19.7005 26.8071 19.3885 26.8972 19.1338 27.1264C18.8651 27.3681 18.7472 27.6856 18.7243 27.9939L19.4723 28.0495L20.2202 28.105C20.2207 28.0985 20.2203 28.1159 20.2067 28.1466C20.192 28.1794 20.1682 28.2135 20.1371 28.2414C20.0767 28.2958 20.0446 28.2798 20.1313 28.271L20.0553 27.5248ZM19.4723 28.0495L18.7243 27.9939C18.7187 28.0697 18.704 28.1009 18.7011 28.1064C18.6996 28.1092 18.6995 28.1087 18.7011 28.107C18.7027 28.1052 18.7027 28.1057 18.6991 28.1081L19.1139 28.733L19.5286 29.3579C19.9785 29.0593 20.1839 28.5944 20.2202 28.105L19.4723 28.0495ZM19.1139 28.733L18.6991 28.1081C18.4488 28.2742 18.216 28.4586 18.0014 28.6613L18.5165 29.2064L19.0316 29.7516C19.182 29.6095 19.3474 29.4782 19.5286 29.3579L19.1139 28.733ZM18.5165 29.2064L18.0014 28.6613C17.6792 28.9657 17.5004 29.3575 17.4315 29.7817L18.1717 29.902L18.912 30.0223C18.9378 29.864 18.9888 29.792 19.0316 29.7516L18.5165 29.2064ZM18.1717 29.902L17.4315 29.7817C17.4278 29.8041 17.4237 29.8147 17.4229 29.8167C17.4225 29.8178 17.4227 29.817 17.424 29.8149C17.4252 29.8127 17.4271 29.8098 17.4297 29.8064C17.4324 29.803 17.4353 29.7998 17.4383 29.7969C17.4412 29.7941 17.4437 29.7922 17.4452 29.791C17.4485 29.7887 17.4459 29.7913 17.4333 29.7963L17.709 30.4938L17.9847 31.1913C18.5064 30.985 18.8249 30.5582 18.912 30.0223L18.1717 29.902ZM17.709 30.4938L17.4333 29.7963C17.0914 29.9314 16.7842 30.1208 16.5252 30.3715L17.0469 30.9103L17.5686 31.4492C17.67 31.351 17.8042 31.2626 17.9847 31.1913L17.709 30.4938ZM17.0469 30.9103L16.5252 30.3715C16.4182 30.4752 16.2803 30.5677 16.1009 30.6437L16.3933 31.3343L16.6858 32.025C17.0174 31.8846 17.3153 31.6944 17.5686 31.4492L17.0469 30.9103ZM16.3933 31.3343L16.1009 30.6437C15.8458 30.7517 15.6223 30.9278 15.4655 31.1776C15.3128 31.4208 15.251 31.6894 15.24 31.9456L15.9893 31.9778L16.7387 32.01C16.7414 31.9455 16.7539 31.9464 16.7359 31.9751C16.727 31.9892 16.7152 32.0027 16.7023 32.0134C16.6899 32.0236 16.6825 32.0264 16.6858 32.025L16.3933 31.3343ZM15.9893 31.9778L15.24 31.9456C15.232 32.1325 15.183 32.1812 15.174 32.1902L15.7014 32.7234L16.2289 33.2565C16.5762 32.913 16.7191 32.4648 16.7387 32.01L15.9893 31.9778ZM15.7014 32.7234L15.174 32.1902C15.0512 32.3116 14.9043 32.4198 14.7286 32.513L15.08 33.1756L15.4314 33.8382C15.7279 33.6809 15.9953 33.4876 16.2289 33.2565L15.7014 32.7234ZM15.08 33.1756L14.7286 32.513C14.4587 32.6562 14.2048 32.8172 13.9679 32.9965L14.4205 33.5945L14.8732 34.1925C15.0432 34.0638 15.229 33.9456 15.4314 33.8382L15.08 33.1756ZM14.4205 33.5945L13.9679 32.9965C13.6973 33.2012 13.4672 33.4459 13.2808 33.7284L13.9068 34.1415L14.5328 34.5545C14.6244 34.4157 14.7368 34.2957 14.8732 34.1925L14.4205 33.5945ZM13.9068 34.1415L13.2808 33.7284C13.105 33.9948 12.9644 34.2848 12.8571 34.5951L13.5658 34.8403L14.2746 35.0856C14.3439 34.8854 14.4306 34.7094 14.5328 34.5545L13.9068 34.1415ZM13.5658 34.8403L12.8571 34.5951C12.7857 34.8013 12.698 34.9861 12.5955 35.1516L13.2331 35.5465L13.8708 35.9413C14.0352 35.6758 14.1693 35.3898 14.2746 35.0856L13.5658 34.8403ZM13.2331 35.5465L12.5955 35.1516C12.4626 35.3661 12.3293 35.5802 12.1956 35.7939L12.8313 36.1919L13.467 36.5898C13.6021 36.3741 13.7366 36.1579 13.8708 35.9413L13.2331 35.5465ZM12.8313 36.1919L12.1956 35.7939C12.1976 35.7907 12.201 35.7865 12.2049 35.7829C12.2086 35.7795 12.209 35.7801 12.2028 35.7834C12.1891 35.7907 12.1432 35.8104 12.0443 35.8206L12.1217 36.5666L12.1991 37.3126C12.6826 37.2625 13.1709 37.0628 13.467 36.5898L12.8313 36.1919ZM12.1217 36.5666L12.0443 35.8206C11.7555 35.8506 11.4253 35.9591 11.1791 36.2415C10.9334 36.5234 10.8707 36.8648 10.8792 37.1542L11.6289 37.132L12.3786 37.1098C12.377 37.0574 12.3913 37.1336 12.3099 37.2271C12.228 37.3211 12.1492 37.3178 12.1991 37.3126L12.1217 36.5666ZM11.6289 37.132L10.8792 37.1542C10.882 37.2491 10.8677 37.2843 10.8679 37.2839C10.8683 37.2828 10.8717 37.2754 10.8795 37.2657C10.8874 37.2559 10.8954 37.2491 10.9006 37.2456L11.3253 37.8638L11.75 38.4819C12.2392 38.1458 12.3935 37.6135 12.3786 37.1098L11.6289 37.132ZM11.3253 37.8638L10.9006 37.2456C10.6321 37.4301 10.3948 37.6463 10.1926 37.8949L10.7745 38.3681L11.3564 38.8413C11.4636 38.7095 11.5935 38.5895 11.75 38.4819L11.3253 37.8638ZM10.7745 38.3681L10.1926 37.8949C10.0198 38.1074 9.86132 38.3272 9.71746 38.5544L10.3511 38.9556L10.9847 39.3569C11.0961 39.1811 11.2199 39.0092 11.3564 38.8413L10.7745 38.3681ZM10.3511 38.9556L9.71746 38.5544C9.58784 38.759 9.49436 39.0199 9.52144 39.3172C9.54843 39.6135 9.68674 39.8525 9.84847 40.03L10.403 39.525L10.9574 39.02C10.957 39.0195 11.0055 39.0745 11.0153 39.1811C11.025 39.2885 10.9867 39.3537 10.9847 39.3569L10.3511 38.9556ZM10.403 39.525L9.84847 40.03C10.0358 40.2357 10.2449 40.4343 10.4741 40.6263L10.9557 40.0513L11.4373 39.4764C11.2539 39.3228 11.0945 39.1705 10.9574 39.02L10.403 39.525ZM10.9557 40.0513L10.4741 40.6263C10.6716 40.7917 10.9415 40.9323 11.2711 40.9297C11.5998 40.9271 11.867 40.7829 12.0616 40.6168L11.5746 40.0464L11.0875 39.476C11.0759 39.486 11.1368 39.4307 11.2592 39.4297C11.3825 39.4288 11.4462 39.4838 11.4373 39.4764L10.9557 40.0513ZM11.5746 40.0464L12.0616 40.6168C12.1834 40.5128 12.3336 40.4291 12.5236 40.3711L12.3045 39.6538L12.0854 38.9365C11.7146 39.0498 11.3782 39.2278 11.0875 39.476L11.5746 40.0464ZM12.3045 39.6538L12.5236 40.3711C12.8111 40.2832 13.0791 40.1057 13.255 39.8148C13.4223 39.5381 13.4611 39.2335 13.4473 38.9641L12.6982 39.0025L11.9492 39.0409C11.9533 39.1201 11.9353 39.0983 11.9714 39.0387C11.9899 39.008 12.0151 38.9808 12.0424 38.9607C12.0684 38.9416 12.0863 38.9362 12.0854 38.9365L12.3045 39.6538ZM12.6982 39.0025L13.4473 38.9641C13.4444 38.9081 13.4622 38.9972 13.3686 39.1018C13.2762 39.205 13.1884 39.1962 13.2495 39.1921L13.1986 38.4438L13.1477 37.6955C12.8574 37.7153 12.5105 37.8115 12.2513 38.101C11.9908 38.3918 11.9342 38.7484 11.9492 39.0409L12.6982 39.0025ZM13.1986 38.4438L13.2495 39.1921C13.7312 39.1593 14.2339 38.9882 14.5558 38.5337L13.9438 38.1002L13.3317 37.6667C13.3416 37.6528 13.3502 37.6516 13.3345 37.6589C13.3132 37.6687 13.2573 37.6881 13.1477 37.6955L13.1986 38.4438ZM13.9438 38.1002L14.5558 38.5337C14.8389 38.134 14.9029 37.654 14.8656 37.1943L14.1181 37.2549L13.3705 37.3155C13.3914 37.5726 13.3392 37.6561 13.3317 37.6667L13.9438 38.1002ZM14.1181 37.2549L14.8656 37.1943C14.8567 37.0837 14.8693 37.0336 14.8727 37.0232C14.874 37.0193 14.8728 37.0244 14.8662 37.0342C14.8594 37.0444 14.8507 37.0537 14.8422 37.0606L14.3701 36.4778L13.898 35.895C13.4356 36.2696 13.3305 36.8215 13.3705 37.3155L14.1181 37.2549ZM14.3701 36.4778L14.8422 37.0606C14.9932 36.9383 15.1654 36.8281 15.3613 36.7315L15.0295 36.0589L14.6976 35.3863C14.4085 35.529 14.1411 35.6981 13.898 35.895L14.3701 36.4778ZM15.0295 36.0589L15.3613 36.7315C15.5835 36.6218 15.816 36.5197 16.059 36.4251L15.787 35.7262L15.5149 35.0272C15.233 35.137 14.9605 35.2566 14.6976 35.3863L15.0295 36.0589ZM15.787 35.7262L16.059 36.4251C16.5358 36.2395 16.8743 35.8754 17.0156 35.3787L16.2943 35.1735L15.5729 34.9683C15.5679 34.9859 15.5632 34.9956 15.561 34.9997C15.5598 35.0018 15.559 35.003 15.5587 35.0035C15.5584 35.0039 15.5582 35.0041 15.5581 35.0042C15.558 35.0043 15.5577 35.0047 15.5569 35.0054C15.5561 35.0061 15.5544 35.0074 15.5516 35.0092C15.5461 35.0129 15.5348 35.0195 15.5149 35.0272L15.787 35.7262ZM16.2943 35.1735L17.0156 35.3787C17.0576 35.2311 17.1205 35.1368 17.1938 35.069L16.6848 34.5182L16.1757 33.9674C15.8799 34.2409 15.6824 34.5834 15.5729 34.9683L16.2943 35.1735ZM16.6848 34.5182L17.1938 35.069C17.4143 34.8652 17.6131 34.6417 17.7897 34.399L17.1832 33.9578L16.5767 33.5166C16.4579 33.6799 16.3244 33.83 16.1757 33.9674L16.6848 34.5182ZM17.1832 33.9578L17.7897 34.399C17.9471 34.1826 18.0978 33.9605 18.2416 33.7327L17.6075 33.3322L16.9734 32.9317C16.8469 33.132 16.7147 33.3269 16.5767 33.5166L17.1832 33.9578ZM17.6075 33.3322L18.2416 33.7327C18.312 33.6213 18.4058 33.5283 18.5341 33.4511L18.1476 32.8084L17.7611 32.1656C17.4397 32.3589 17.1734 32.6151 16.9734 32.9317L17.6075 33.3322ZM18.1476 32.8084L18.5341 33.4511C18.8137 33.283 19.0657 33.0832 19.2868 32.851L18.7437 32.3338L18.2006 31.8166C18.0766 31.9468 17.9312 32.0634 17.7611 32.1656L18.1476 32.8084ZM18.7437 32.3338L19.2868 32.851C19.4145 32.7169 19.5623 32.5962 19.7326 32.4893L19.3339 31.854L18.9352 31.2188C18.6636 31.3892 18.4179 31.5883 18.2006 31.8166L18.7437 32.3338ZM19.3339 31.854L19.7326 32.4893C20.1641 32.2184 20.4009 31.7964 20.4744 31.3211L19.7332 31.2065L18.992 31.0919C18.9821 31.156 18.9669 31.1849 18.9611 31.1945C18.9566 31.2017 18.9512 31.2088 18.9352 31.2188L19.3339 31.854ZM19.7332 31.2065L20.4744 31.3211C20.4775 31.301 20.4808 31.2941 20.4799 31.2963C20.4787 31.2992 20.4743 31.3081 20.4652 31.3192C20.4609 31.3244 20.4564 31.3291 20.4519 31.3331C20.4474 31.3371 20.4436 31.3398 20.4411 31.3415C20.436 31.3449 20.4381 31.3424 20.4523 31.3376L20.2106 30.6276L19.9689 29.9176C19.7212 30.0019 19.4889 30.1454 19.3079 30.3648C19.1279 30.5832 19.0315 30.837 18.992 31.0919L19.7332 31.2065ZM20.2106 30.6276L20.4523 31.3376C20.8585 31.1993 21.2101 30.9554 21.4542 30.5881L20.8295 30.173L20.2048 29.7579C20.1696 29.8109 20.1086 29.87 19.9689 29.9176L20.2106 30.6276ZM20.8295 30.173L21.4542 30.5881C21.5567 30.4337 21.6508 30.3386 21.7286 30.2813L21.2837 29.6775L20.8388 29.0737C20.5903 29.2568 20.3815 29.492 20.2048 29.7579L20.8295 30.173ZM21.2837 29.6775L21.7286 30.2813C21.8631 30.1821 22.0125 30.0869 22.1775 29.9962L21.8161 29.339L21.4548 28.6818C21.2363 28.8019 21.0307 28.9323 20.8388 29.0737L21.2837 29.6775ZM21.8161 29.339L22.1775 29.9962C22.1666 30.0022 22.1638 29.9994 22.1823 29.9983C22.2041 29.9971 22.2529 29.9988 22.3357 30.0213L22.5328 29.2977L22.73 28.5741C22.3242 28.4635 21.8702 28.4533 21.4548 28.6818L21.8161 29.339ZM22.5328 29.2977L22.3357 30.0213C22.4868 30.0625 22.5413 30.1175 22.5678 30.1548L23.1791 29.7202L23.7904 29.2857C23.5272 28.9154 23.1509 28.6887 22.73 28.5741L22.5328 29.2977ZM23.1791 29.7202L22.5678 30.1548C22.6309 30.2435 22.6817 30.3638 22.7028 30.5382L23.4474 30.4483L24.192 30.3584C24.145 29.9695 24.017 29.6045 23.7904 29.2857L23.1791 29.7202ZM23.4474 30.4483L22.7028 30.5382C22.7614 31.0233 23.0005 31.4403 23.4181 31.718L23.8335 31.0936L24.2489 30.4692C24.2234 30.4522 24.2161 30.4409 24.213 30.4358C24.2093 30.4296 24.198 30.4085 24.192 30.3584L23.4474 30.4483ZM23.8335 31.0936L23.4181 31.718C23.466 31.7499 23.4894 31.7793 23.5031 31.8556L24.2414 31.7236L24.9797 31.5916C24.8962 31.1252 24.6477 30.7345 24.2489 30.4692L23.8335 31.0936ZM24.2414 31.7236L23.5031 31.8556C23.5786 32.2781 23.7742 32.6538 24.0984 32.9456L24.6001 32.3881L25.1019 31.8307C25.0447 31.7792 25.0012 31.7119 24.9797 31.5916L24.2414 31.7236ZM24.6001 32.3881L24.0984 32.9456C24.248 33.0802 24.3771 33.226 24.4873 33.3831L25.1014 32.9526L25.7155 32.522C25.5386 32.2697 25.3336 32.0392 25.1019 31.8307L24.6001 32.3881ZM25.1014 32.9526L24.4873 33.3831C24.6506 33.6161 24.8298 33.8376 25.0246 34.0473L25.5742 33.537L26.1238 33.0267C25.9752 32.8666 25.8392 32.6984 25.7155 32.522L25.1014 32.9526ZM25.5742 33.537L25.0246 34.0473C25.2369 34.276 25.4769 34.48 25.7419 34.6601L26.1634 34.0397L26.5849 33.4194C26.4078 33.299 26.2549 33.1678 26.1238 33.0267L25.5742 33.537ZM26.1634 34.0397L25.7419 34.6601C25.8451 34.7302 25.905 34.808 25.9428 34.9021L26.6387 34.6224L27.3346 34.3427C27.1809 33.9603 26.924 33.6497 26.5849 33.4194L26.1634 34.0397ZM26.6387 34.6224L25.9428 34.9021C26.0132 35.0772 26.0652 35.2749 26.0951 35.4982L26.8385 35.3986L27.5818 35.2989C27.5369 34.9639 27.4557 34.6441 27.3346 34.3427L26.6387 34.6224ZM26.8385 35.3986L26.0951 35.4982C26.1479 35.8922 26.2882 36.2593 26.5333 36.5743L27.1252 36.1137L27.7171 35.653C27.6547 35.573 27.6038 35.4634 27.5818 35.2989L26.8385 35.3986ZM27.1252 36.1137L26.5333 36.5743C26.6675 36.7467 26.7904 36.9271 26.9019 37.1157L27.5474 36.7337L28.1928 36.3516C28.0489 36.1086 27.8903 35.8757 27.7171 35.653L27.1252 36.1137ZM27.5474 36.7337L26.9019 37.1157C27.1428 37.5225 27.5225 37.7757 27.9471 37.9161L28.1826 37.204L28.4181 36.492C28.2511 36.4368 28.2074 36.3763 28.1928 36.3516L27.5474 36.7337ZM28.1826 37.204L27.9471 37.9161C27.964 37.9217 27.9613 37.9231 27.9479 37.9138C27.9332 37.9036 27.9122 37.885 27.8931 37.8573C27.874 37.8295 27.8646 37.804 27.8606 37.7881C27.857 37.7736 27.8594 37.7733 27.8586 37.7928L28.608 37.8217L29.3575 37.8506C29.3682 37.574 29.3124 37.2735 29.1284 37.0064C28.944 36.7386 28.6823 36.5794 28.4181 36.492L28.1826 37.204ZM28.608 37.8217L27.8586 37.7928C27.8482 38.0631 27.8992 38.3545 28.067 38.6182C28.2365 38.8847 28.4823 39.055 28.7412 39.1549L29.0111 38.4552L29.281 37.7554C29.2682 37.7505 29.2723 37.7503 29.2853 37.7602C29.2993 37.771 29.3171 37.7887 29.3325 37.8129C29.3659 37.8655 29.3558 37.8944 29.3575 37.8506L28.608 37.8217ZM29.0111 38.4552L28.7412 39.1549C28.9313 39.2282 29.0465 39.3144 29.1187 39.3964L29.6816 38.9008L30.2445 38.4051C29.9842 38.1095 29.6524 37.8987 29.281 37.7554L29.0111 38.4552ZM29.6816 38.9008L29.1187 39.3964C29.2534 39.5494 29.3483 39.6874 29.4126 39.8095L30.0763 39.4603L30.7401 39.1111C30.6104 38.8647 30.4422 38.6297 30.2445 38.4051L29.6816 38.9008ZM30.0763 39.4603L29.4126 39.8095C29.534 40.0404 29.7029 40.2967 29.9068 40.573L30.5102 40.1275L31.1136 39.682C30.9329 39.4373 30.8125 39.2488 30.7401 39.1111L30.0763 39.4603ZM30.5102 40.1275L29.9068 40.573C30.1996 40.9695 30.639 41.2779 31.2139 41.2471L31.1737 40.4981L31.1336 39.7492C31.1394 39.7489 31.1498 39.7493 31.1624 39.7522C31.1748 39.7551 31.1831 39.7591 31.1861 39.7608C31.1908 39.7634 31.1634 39.7494 31.1136 39.682L30.5102 40.1275ZM31.1737 40.4981L31.2139 41.2471C31.6705 41.2226 32.0707 41.0189 32.4072 40.7352L31.9237 40.1618L31.4402 39.5885C31.2767 39.7263 31.1769 39.7469 31.1336 39.7492L31.1737 40.4981ZM31.9237 40.1618L32.4072 40.7352C32.4582 40.6922 32.462 40.7063 32.4198 40.7132C32.3989 40.7166 32.3764 40.7164 32.356 40.7128C32.3364 40.7094 32.3272 40.7043 32.3297 40.7056L32.6737 40.0391L33.0177 39.3727C32.7662 39.2429 32.4791 39.1836 32.1776 39.2329C31.8854 39.2807 31.6392 39.4207 31.4402 39.5885L31.9237 40.1618ZM32.6737 40.0391L32.3297 40.7056C32.6119 40.8512 32.8976 40.9729 33.1868 41.0691L33.4237 40.3575L33.6606 39.6459C33.4498 39.5757 33.2355 39.4851 33.0177 39.3727L32.6737 40.0391ZM33.4237 40.3575L33.1868 41.0691C33.6278 41.2159 34.0757 41.1807 34.4904 40.9875L34.1737 40.3077L33.857 39.6278C33.7718 39.6675 33.7196 39.6656 33.6606 39.6459L33.4237 40.3575ZM34.1737 40.3077L34.4904 40.9875C34.6575 40.9097 34.8078 40.8756 34.9459 40.8715L34.9237 40.1219L34.9015 39.3722C34.5396 39.3829 34.1899 39.4728 33.857 39.6278L34.1737 40.3077ZM34.9237 40.1219L34.9459 40.8715C35.2988 40.8611 35.6418 40.7796 35.971 40.6374L35.6737 39.9488L35.3764 39.2603C35.2056 39.334 35.0487 39.3678 34.9015 39.3722L34.9237 40.1219ZM35.6737 39.9488L35.971 40.6374C36.1606 40.5555 36.3413 40.5067 36.5147 40.4855L36.4237 39.741L36.3327 38.9966C36.0061 39.0365 35.6868 39.1262 35.3764 39.2603L35.6737 39.9488ZM36.4237 39.741L36.5147 40.4855C36.5147 40.4855 36.5155 40.4854 36.5171 40.4854C36.5188 40.4854 36.5218 40.4855 36.5264 40.4861C36.5355 40.4872 36.5517 40.4902 36.5761 40.4984C36.6264 40.5156 36.7041 40.553 36.8098 40.6296L37.25 40.0224L37.6902 39.4151C37.3077 39.1379 36.8433 38.9342 36.3327 38.9966L36.4237 39.741ZM37.25 40.0224L36.8098 40.6296C37.0374 40.7946 37.3524 40.9488 37.725 40.9179C38.1204 40.8851 38.4083 40.66 38.5949 40.4162L37.9994 39.9602L37.404 39.5043C37.3965 39.514 37.4075 39.4965 37.4434 39.4741C37.4829 39.4494 37.5379 39.4282 37.6011 39.423C37.7239 39.4128 37.7635 39.4683 37.6902 39.4151L37.25 40.0224ZM37.9994 39.9602L38.5949 40.4162C38.922 39.9891 39.05 39.473 38.8935 38.9334L38.1732 39.1423L37.4529 39.3512C37.4623 39.3837 37.4599 39.3979 37.4583 39.4052C37.4562 39.4152 37.4472 39.4478 37.404 39.5043L37.9994 39.9602ZM38.1732 39.1423L38.8935 38.9334C38.8002 38.6115 38.6866 38.3114 38.5501 38.0362L37.8782 38.3693L37.2062 38.7024C37.2974 38.8864 37.3805 39.1016 37.4529 39.3512L38.1732 39.1423ZM37.8782 38.3693L38.5501 38.0362C38.4489 37.832 38.3589 37.6214 38.2802 37.4041L37.575 37.6596L36.8699 37.9152C36.9677 38.1849 37.0797 38.4473 37.2062 38.7024L37.8782 38.3693ZM37.575 37.6596L38.2802 37.4041C38.1606 37.0741 37.985 36.7755 37.7533 36.5143L37.1922 37.012L36.6311 37.5097C36.7334 37.625 36.813 37.7581 36.8699 37.9152L37.575 37.6596ZM37.1922 37.012L37.7533 36.5143C37.5999 36.3415 37.4546 36.1633 37.3171 35.9798L36.7168 36.4294L36.1165 36.879C36.279 37.0959 36.4505 37.3061 36.6311 37.5097L37.1922 37.012ZM36.7168 36.4294L37.3171 35.9798C37.1294 35.7292 36.9114 35.5033 36.6653 35.302L36.1905 35.8826L35.7156 36.4631C35.8714 36.5905 36.0043 36.7292 36.1165 36.879L36.7168 36.4294ZM36.1905 35.8826L36.6653 35.302C36.4299 35.1095 36.1744 34.9354 35.9002 34.7791L35.5288 35.4307L35.1574 36.0823C35.3635 36.1997 35.5491 36.3269 35.7156 36.4631L36.1905 35.8826ZM35.5288 35.4307L35.9002 34.7791C35.7256 34.6796 35.59 34.568 35.4847 34.4477L34.9203 34.9416L34.3558 35.4354C34.5817 35.6936 34.8518 35.9081 35.1574 36.0823L35.5288 35.4307ZM34.9203 34.9416L35.4847 34.4477C35.3932 34.3431 35.3233 34.2185 35.277 34.0639L34.5585 34.2791L33.8401 34.4944C33.945 34.8446 34.1162 35.1615 34.3558 35.4354L34.9203 34.9416ZM34.5585 34.2791L35.277 34.0639C35.1564 33.6614 34.9234 33.3222 34.5896 33.0663L34.1332 33.6614L33.6767 34.2565C33.7589 34.3195 33.8094 34.3922 33.8401 34.4944L34.5585 34.2791ZM34.1332 33.6614L34.5896 33.0663C34.5083 33.0038 34.4582 32.9318 34.4279 32.8297L33.7089 33.0429L32.9898 33.2561C33.1095 33.6597 33.3423 33.9999 33.6767 34.2565L34.1332 33.6614ZM33.7089 33.0429L34.4279 32.8297C34.3179 32.4585 34.1238 32.1303 33.8461 31.86L33.323 32.3974L32.7998 32.9349C32.8867 33.0195 32.95 33.1216 32.9898 33.2561L33.7089 33.0429ZM33.323 32.3974L33.8461 31.86C33.8015 31.8166 33.76 31.7527 33.7444 31.6203L32.9996 31.7081L32.2548 31.7959C32.3057 32.2277 32.4798 32.6234 32.7998 32.9349L33.323 32.3974ZM32.9996 31.7081L33.7444 31.6203C33.682 31.0904 33.3885 30.6667 32.912 30.424L32.5715 31.0922L32.2311 31.7605C32.2475 31.7689 32.2546 31.7746 32.256 31.7758C32.257 31.7767 32.2548 31.7749 32.2518 31.7706C32.2489 31.7664 32.2481 31.7639 32.2487 31.7656C32.2495 31.7677 32.2525 31.7769 32.2548 31.7959L32.9996 31.7081ZM32.5715 31.0922L32.912 30.424C32.8036 30.3688 32.7666 30.3149 32.7455 30.2625L32.0497 30.5422L31.3538 30.822C31.5243 31.246 31.8351 31.5588 32.2311 31.7605L32.5715 31.0922ZM32.0497 30.5422L32.7455 30.2625C32.6517 30.0291 32.5601 29.7942 32.4707 29.5576L31.7691 29.8228L31.0676 30.088C31.1607 30.3342 31.2561 30.5789 31.3538 30.822L32.0497 30.5422ZM31.7691 29.8228L32.4707 29.5576C32.3949 29.357 32.3336 29.1422 32.2878 28.9123L31.5523 29.0587L30.8167 29.2051C30.8776 29.5112 30.9609 29.8058 31.0676 30.088L31.7691 29.8228ZM31.5523 29.0587L32.2878 28.9123C32.2082 28.5121 32.028 28.1521 31.7387 27.8591L31.2051 28.3861L30.6714 28.913C30.7384 28.9809 30.7897 29.0692 30.8167 29.2051L31.5523 29.0587ZM31.2051 28.3861L31.7387 27.8591C31.566 27.6841 31.3964 27.507 31.23 27.3278L30.6803 27.8381L30.1307 28.3484C30.3076 28.539 30.4879 28.7272 30.6714 28.913L31.2051 28.3861ZM30.6803 27.8381L31.23 27.3278C31.1352 27.2257 31.0634 27.105 31.0151 26.9561L30.3017 27.1875L29.5883 27.4189C29.7014 27.7676 29.882 28.0806 30.1307 28.3484L30.6803 27.8381ZM30.3017 27.1875L31.0151 26.9561C30.8823 26.5466 30.6285 26.212 30.2752 25.9695L29.8507 26.5878L29.4262 27.2061C29.5128 27.2655 29.5597 27.3308 29.5883 27.4189L30.3017 27.1875ZM29.8507 26.5878L30.2752 25.9695C30.0655 25.8255 29.8617 25.6778 29.6637 25.5265L29.2083 26.1224L28.7529 26.7183C28.9715 26.8854 29.1959 27.048 29.4262 27.2061L29.8507 26.5878ZM29.2083 26.1224L29.6637 25.5265C29.4749 25.3822 29.297 25.2316 29.1298 25.0746L28.6165 25.6215L28.1032 26.1684C28.3084 26.3609 28.525 26.5442 28.7529 26.7183L29.2083 26.1224ZM28.6165 25.6215L29.1298 25.0746C29.098 25.0448 29.0604 24.9961 29.0499 24.8655L28.3023 24.9257L27.5548 24.9858C27.5908 25.4336 27.7626 25.8487 28.1032 26.1684L28.6165 25.6215ZM28.3023 24.9257L29.0499 24.8655C29.0136 24.414 28.8374 23.9966 28.4887 23.6788L27.9835 24.2331L27.4783 24.7874C27.5082 24.8148 27.5446 24.8591 27.5548 24.9858L28.3023 24.9257ZM27.9835 24.2331L28.4887 23.6788C28.2468 23.4583 27.9684 23.2677 27.6602 23.1033L27.3072 23.765L26.9542 24.4267C27.1691 24.5414 27.3416 24.6629 27.4783 24.7874L27.9835 24.2331ZM27.3072 23.765L27.6602 23.1033C27.6486 23.0971 27.6483 23.0952 27.6538 23.1004C27.6565 23.1029 27.6599 23.1066 27.6635 23.1113C27.6672 23.1161 27.6705 23.1211 27.6733 23.1262C27.6761 23.1312 27.6778 23.1354 27.6789 23.1382C27.6799 23.141 27.6799 23.1417 27.6795 23.1399C27.6787 23.1362 27.6761 23.1214 27.6768 23.0922L26.927 23.0733L26.1773 23.0544C26.1706 23.3184 26.2186 23.5937 26.3587 23.8487C26.5008 24.1072 26.7118 24.2974 26.9542 24.4267L27.3072 23.765ZM26.927 23.0733L27.6768 23.0922C27.6797 22.9768 27.6932 22.9114 27.7022 22.8821C27.7108 22.854 27.7079 22.8822 27.6659 22.9244L27.1349 22.3947L26.6039 21.865C26.2673 22.2025 26.1869 22.6718 26.1773 23.0544L26.927 23.0733ZM27.1349 22.3947L27.6659 22.9244C27.694 22.8962 27.7162 22.8747 27.7332 22.8589C27.751 22.8422 27.7585 22.8362 27.7576 22.8369C27.757 22.8374 27.7507 22.8425 27.7399 22.85C27.7305 22.8565 27.7072 22.8722 27.6732 22.8896C27.6472 22.903 27.5695 22.9414 27.4589 22.9584C27.3497 22.9751 27.0898 22.9855 26.8583 22.782L27.3536 22.2187L27.8488 21.6555C27.6135 21.4486 27.348 21.4578 27.2313 21.4757C27.1133 21.4938 27.0264 21.5356 26.9894 21.5546C26.909 21.5958 26.8468 21.6445 26.8172 21.6683C26.7479 21.7241 26.6737 21.7951 26.6039 21.865L27.1349 22.3947ZM27.3536 22.2187L26.8583 22.782C27.2408 23.1182 27.6584 22.9138 27.7424 22.8643C27.8504 22.8007 27.9179 22.7243 27.9372 22.7025C27.9894 22.6432 28.0293 22.5814 28.0506 22.5476C28.1006 22.468 28.1584 22.3628 28.22 22.2454L27.5557 21.8971L26.8915 21.5489C26.8336 21.6593 26.798 21.7216 26.7807 21.7492C26.7682 21.7691 26.7809 21.7457 26.8125 21.7099C26.8215 21.6998 26.8802 21.6313 26.9811 21.5719C27.0329 21.5413 27.1452 21.4834 27.3018 21.4719C27.4851 21.4583 27.6867 21.5129 27.8488 21.6555L27.3536 22.2187ZM31.8875 39.5782L31.7344 40.3124C31.9619 40.3599 32.1902 40.4184 32.4192 40.4881L32.6375 39.7706L32.8558 39.053C32.5849 38.9706 32.3131 38.9009 32.0407 38.844L31.8875 39.5782ZM32.6375 39.7706L32.4192 40.4881C32.8572 40.6214 33.298 40.5791 33.7055 40.3883L33.3875 39.7091L33.0695 39.0299C32.9771 39.0731 32.9178 39.0719 32.8558 39.053L32.6375 39.7706ZM33.3875 39.7091L33.7055 40.3883C33.9049 40.295 34.097 40.232 34.2825 40.1955L34.1375 39.4596L33.9925 38.7238C33.678 38.7857 33.3701 38.8891 33.0695 39.0299L33.3875 39.7091ZM34.1375 39.4596L34.2825 40.1955C34.5256 40.1476 34.7687 40.1032 35.0117 40.0625L34.8875 39.3228L34.7634 38.5831C34.5064 38.6263 34.2494 38.6732 33.9925 38.7238L34.1375 39.4596ZM34.8875 39.3228L35.0117 40.0625C35.1811 40.034 35.3488 40.0335 35.5181 40.0608L35.6375 39.3204L35.757 38.5799C35.4262 38.5266 35.0939 38.5277 34.7634 38.5831L34.8875 39.3228ZM35.6375 39.3204L35.5181 40.0608C35.9133 40.1246 36.3398 40.073 36.7034 39.8L36.2532 39.2002L35.803 38.6004C35.8087 38.596 35.8157 38.5919 35.8231 38.5887C35.8303 38.5855 35.8349 38.5845 35.8353 38.5845C35.8356 38.5844 35.8126 38.5889 35.757 38.5799L35.6375 39.3204ZM36.2532 39.2002L36.7034 39.8C36.9596 39.6077 37.1742 39.3508 37.2838 39.0202L36.5719 38.7842L35.86 38.5482C35.8618 38.5429 35.8631 38.543 35.8579 38.5497C35.852 38.5574 35.8364 38.5753 35.803 38.6004L36.2532 39.2002ZM36.5719 38.7842L37.2838 39.0202C37.3586 38.7945 37.4014 38.5559 37.4189 38.3097L36.6708 38.2564L35.9227 38.203C35.9125 38.3468 35.8893 38.46 35.86 38.5482L36.5719 38.7842ZM36.6708 38.2564L37.4189 38.3097C37.4431 37.9699 37.368 37.6361 37.2412 37.3234L36.5462 37.6053L35.8512 37.8873C35.9183 38.0527 35.9263 38.1529 35.9227 38.203L36.6708 38.2564ZM36.5462 37.6053L37.2412 37.3234C37.1173 37.0181 36.953 36.737 36.7479 36.4832L36.1647 36.9548L35.5815 37.4264C35.691 37.5618 35.7811 37.7144 35.8512 37.8873L36.5462 37.6053ZM36.1647 36.9548L36.7479 36.4832C36.6574 36.3713 36.5862 36.2369 36.5382 36.0706L35.8177 36.2789L35.0972 36.4871C35.1971 36.8329 35.3573 37.1491 35.5815 37.4264L36.1647 36.9548ZM35.8177 36.2789L36.5382 36.0706C36.4467 35.7542 36.318 35.457 36.1499 35.1823L35.5102 35.5738L34.8705 35.9654C34.9644 36.1187 35.0406 36.2916 35.0972 36.4871L35.8177 36.2789ZM35.5102 35.5738L36.1499 35.1823C35.9165 34.801 35.5653 34.5461 35.1611 34.3933L34.8959 35.0949L34.6307 35.7964C34.7836 35.8542 34.8419 35.9186 34.8705 35.9654L35.5102 35.5738ZM34.8959 35.0949L35.1611 34.3933C35.108 34.3732 35.0958 34.3579 35.0993 34.3615C35.1005 34.3627 35.1019 34.3647 35.1027 34.3661C35.1033 34.3673 35.1013 34.3642 35.0986 34.3541L34.3741 34.5478L33.6495 34.7414C33.7887 35.2623 34.1547 35.6165 34.6307 35.7964L34.8959 35.0949ZM34.3741 34.5478L35.0986 34.3541C34.9937 33.9613 34.7895 33.617 34.4847 33.3442L33.9846 33.9031L33.4845 34.4621C33.5603 34.5299 33.6158 34.6153 33.6495 34.7414L34.3741 34.5478ZM33.9846 33.9031L34.4847 33.3442C34.359 33.2317 34.2591 33.1044 34.1817 32.9598L33.5204 33.3136L32.859 33.6673C33.02 33.9682 33.2295 34.234 33.4845 34.4621L33.9846 33.9031ZM33.5204 33.3136L34.1817 32.9598C34.0394 32.6938 33.8726 32.4444 33.6816 32.2126L33.1028 32.6896L32.5241 33.1666C32.6515 33.3212 32.7631 33.4879 32.859 33.6673L33.5204 33.3136ZM33.1028 32.6896L33.6816 32.2126C33.5648 32.071 33.4668 31.9141 33.3874 31.74L32.705 32.0512L32.0226 32.3624C32.1552 32.6531 32.3223 32.9219 32.5241 33.1666L33.1028 32.6896ZM32.705 32.0512L33.3874 31.74C33.2663 31.4744 33.1272 31.2205 32.97 30.9788L32.3412 31.3876L31.7124 31.7964C31.8283 31.9746 31.9317 32.1631 32.0226 32.3624L32.705 32.0512ZM32.3412 31.3876L32.97 30.9788C32.7363 30.6193 32.3997 30.3701 32.0107 30.2123L31.7288 30.9072L31.4468 31.6022C31.6015 31.665 31.6731 31.736 31.7124 31.7964L32.3412 31.3876ZM31.7288 30.9072L32.0107 30.2123C31.9016 30.168 31.8865 30.1296 31.8774 30.1065L31.1793 30.3805L30.4811 30.6545C30.6611 31.1132 31.0124 31.426 31.4468 31.6022L31.7288 30.9072ZM31.1793 30.3805L31.8774 30.1065C31.7753 29.8463 31.6632 29.5926 31.5412 29.3455L30.8688 29.6777L30.1964 30.0099C30.2992 30.2182 30.3942 30.433 30.4811 30.6545L31.1793 30.3805ZM30.8688 29.6777L31.5412 29.3455C31.3669 28.9928 31.1074 28.7064 30.7798 28.4902L30.3666 29.1161L29.9534 29.742C30.0705 29.8193 30.1457 29.9073 30.1964 30.0099L30.8688 29.6777ZM30.3666 29.1161L30.7798 28.4902C30.5831 28.3603 30.4003 28.2224 30.231 28.0766L29.7417 28.645L29.2523 29.2133C29.4717 29.4022 29.7056 29.5784 29.9534 29.742L30.3666 29.1161ZM29.7417 28.645L30.231 28.0766C30.2217 28.0686 30.2171 28.0624 30.2119 28.0502C30.2055 28.035 30.193 27.9963 30.1917 27.9207L29.4418 27.9343L28.6919 27.948C28.7005 28.4225 28.8646 28.8795 29.2523 29.2133L29.7417 28.645ZM29.4418 27.9343L30.1917 27.9207C30.1824 27.4124 29.978 26.9368 29.5199 26.6298L29.1024 27.2528L28.6848 27.8759C28.6904 27.8796 28.6903 27.8804 28.6875 27.8773C28.6846 27.874 28.6824 27.8705 28.6814 27.8685C28.6791 27.8638 28.6907 27.8834 28.6919 27.948L29.4418 27.9343ZM29.1024 27.2528L29.5199 26.6298C29.4378 26.5748 29.3919 26.5129 29.363 26.4238L28.6495 26.6549L27.936 26.8859C28.0695 27.2983 28.3255 27.635 28.6848 27.8759L29.1024 27.2528ZM28.6495 26.6549L29.363 26.4238C29.1973 25.912 28.8115 25.5832 28.3396 25.4214L28.0964 26.1309L27.8531 26.8403C27.915 26.8615 27.9342 26.88 27.9346 26.8803C27.935 26.8808 27.934 26.8798 27.9331 26.8783C27.9322 26.8769 27.9336 26.8786 27.936 26.8859L28.6495 26.6549ZM28.0964 26.1309L28.3396 25.4214C28.2723 25.3983 28.2439 25.3765 28.2352 25.3688C28.2291 25.3633 28.2256 25.3592 28.2209 25.3473L27.5229 25.6218L26.825 25.8963C27.0145 26.3783 27.3978 26.6842 27.8531 26.8403L28.0964 26.1309ZM27.5229 25.6218L28.2209 25.3473C28.1655 25.2065 28.1288 25.0251 28.1266 24.7911L27.3766 24.798L26.6267 24.8049C26.6302 25.1877 26.691 25.5556 26.825 25.8963L27.5229 25.6218ZM27.3766 24.798L28.1266 24.7911C28.1243 24.5357 28.0697 24.2699 27.9271 24.0256C27.7821 23.7773 27.5723 23.5965 27.3326 23.4762L26.9963 24.1466L26.66 24.817C26.6677 24.8208 26.6649 24.8205 26.6568 24.8132C26.6483 24.8055 26.6391 24.7946 26.6318 24.782C26.6246 24.7697 26.6228 24.762 26.6231 24.7633C26.6236 24.7653 26.6264 24.778 26.6267 24.8049L27.3766 24.798ZM26.9963 24.1466L27.3326 23.4762C27.2167 23.418 27.167 23.3565 27.1377 23.2938L26.4583 23.6114L25.7788 23.9291C25.9655 24.3284 26.2745 24.6236 26.66 24.817L26.9963 24.1466ZM26.4583 23.6114L27.1377 23.2938C26.9403 22.8716 26.6003 22.5793 26.1878 22.4043L25.895 23.0948L25.6023 23.7853C25.7247 23.8373 25.7603 23.8893 25.7788 23.9291L26.4583 23.6114ZM25.895 23.0948L26.1878 22.4043C26.1638 22.3942 26.1494 22.3854 26.1417 22.3801C26.1378 22.3774 26.1354 22.3754 26.134 22.3742C26.1327 22.373 26.1322 22.3724 26.1322 22.3724C26.1322 22.3724 26.1323 22.3726 26.1325 22.3728C26.1326 22.373 26.1325 22.3729 26.1321 22.3721C26.1314 22.3707 26.1284 22.3646 26.1252 22.3514L25.3968 22.5303L24.6685 22.7092C24.7942 23.2207 25.1355 23.5875 25.6023 23.7853L25.895 23.0948ZM25.3968 22.5303L26.1252 22.3514C26.0644 22.1038 26.0104 21.8504 25.9634 21.5912L25.2255 21.725L24.4875 21.8588C24.5398 22.1474 24.6001 22.4309 24.6685 22.7092L25.3968 22.5303ZM25.2255 21.725L25.9634 21.5912C25.9147 21.3221 25.7952 21.0672 25.5907 20.8589C25.3908 20.6553 25.1459 20.5329 24.8997 20.463L24.6947 21.1844L24.4897 21.9059C24.5186 21.9141 24.5323 21.9211 24.5354 21.9228C24.538 21.9242 24.531 21.9207 24.5204 21.9098C24.5093 21.8986 24.4998 21.8851 24.4932 21.8719C24.487 21.8593 24.4865 21.8534 24.4875 21.8588L25.2255 21.725ZM24.6947 21.1844L24.8997 20.463C24.819 20.44 24.7803 20.4159 24.7651 20.4043C24.7531 20.3952 24.7506 20.3905 24.748 20.3851L24.0726 20.7112L23.3972 21.0374C23.6229 21.5047 24.0336 21.7762 24.4897 21.9059L24.6947 21.1844ZM24.0726 20.7112L24.748 20.3851C24.6432 20.1681 24.5436 19.9471 24.4492 19.7219L23.7575 20.0118L23.0658 20.3017C23.1703 20.551 23.2808 20.7963 23.3972 21.0374L24.0726 20.7112ZM23.7575 20.0118L24.4492 19.7219C24.3268 19.4299 24.1723 19.1575 23.9851 18.9067L23.3841 19.3553L22.783 19.804C22.8949 19.9539 22.9893 20.1192 23.0658 20.3017L23.7575 20.0118ZM23.3841 19.3553L23.9851 18.9067C23.846 18.7204 23.7134 18.5292 23.5873 18.3331L22.9565 18.7388L22.3257 19.1445C22.4706 19.3698 22.623 19.5896 22.783 19.804L23.3841 19.3553ZM22.9565 18.7388L23.5873 18.3331C23.4482 18.1168 23.3064 17.9026 23.1618 17.6904L22.5419 18.1126L21.9221 18.5349C22.0592 18.7362 22.1938 18.9394 22.3257 19.1445L22.9565 18.7388ZM22.5419 18.1126L23.1618 17.6904C23.0463 17.5208 22.9449 17.3394 22.8578 17.1453L22.1736 17.4525L21.4893 17.7596C21.6117 18.0322 21.7559 18.2909 21.9221 18.5349L22.5419 18.1126ZM22.1736 17.4525L22.8578 17.1453C22.7241 16.8475 22.5515 16.5743 22.3402 16.3284L21.7714 16.8172L21.2025 17.306C21.318 17.4404 21.4135 17.5907 21.4893 17.7596L22.1736 17.4525ZM21.7714 16.8172L22.3402 16.3284C22.0817 16.0276 21.7498 15.8145 21.3772 15.6724L21.1098 16.3731L20.8424 17.0738C21.0251 17.1435 21.1343 17.2266 21.2025 17.306L21.7714 16.8172ZM21.1098 16.3731L21.3772 15.6724C21.3572 15.6647 21.3499 15.6595 21.3507 15.6601C21.3511 15.6603 21.3532 15.6618 21.3564 15.6647C21.3596 15.6677 21.3633 15.6716 21.3672 15.6764C21.3711 15.6812 21.3746 15.6863 21.3774 15.6912C21.3803 15.6961 21.3822 15.7002 21.3833 15.703C21.3857 15.7087 21.3838 15.7064 21.382 15.6925L20.6382 15.7889L19.8944 15.8854C19.928 16.1445 20.0227 16.399 20.2001 16.6187C20.3764 16.837 20.6031 16.9824 20.8424 17.0738L21.1098 16.3731ZM20.6382 15.7889L21.382 15.6925C21.3456 15.4121 21.2317 15.1391 21.0156 14.9173C20.8055 14.7018 20.5448 14.5817 20.2898 14.5187L20.1097 15.2467L19.9297 15.9748C19.9902 15.9898 19.9753 15.9991 19.9414 15.9643C19.9248 15.9473 19.9115 15.9274 19.9028 15.9083C19.8944 15.8902 19.8938 15.8805 19.8944 15.8854L20.6382 15.7889ZM20.1097 15.2467L20.2898 14.5187C20.2093 14.4988 20.1817 14.4779 20.1805 14.477C20.1802 14.4767 20.1836 14.4794 20.1879 14.4852C20.1898 14.4878 20.1914 14.4903 20.1926 14.4924C20.1937 14.4945 20.1941 14.4956 20.1941 14.4954L19.4953 14.7678L18.7965 15.0403C19.0018 15.5667 19.4452 15.855 19.9297 15.9748L20.1097 15.2467ZM19.4953 14.7678L20.1941 14.4954C20.0826 14.2095 19.9456 13.9389 19.7827 13.6848L19.1514 14.0897L18.52 14.4945C18.6276 14.6622 18.7199 14.8438 18.7965 15.0403L19.4953 14.7678ZM19.1514 14.0897L19.7827 13.6848C19.6844 13.5315 19.6036 13.36 19.5418 13.1675L18.8277 13.3966L18.1135 13.6256C18.2129 13.9355 18.3479 14.226 18.52 14.4945L19.1514 14.0897ZM18.8277 13.3966L19.5418 13.1675C19.4179 12.7809 19.1951 12.4501 18.8792 12.1934L18.4062 12.7755L17.9332 13.3576C18.0182 13.4266 18.0764 13.5099 18.1135 13.6256L18.8277 13.3966ZM18.4062 12.7755L18.8792 12.1934C18.7011 12.0488 18.5349 11.8967 18.3803 11.7373L17.842 12.2596L17.3038 12.7819C17.5005 12.9847 17.7104 13.1765 17.9332 13.3576L18.4062 12.7755ZM17.842 12.2596L18.3803 11.7373C18.1872 11.5383 17.9865 11.3513 17.7781 11.1766L17.2962 11.7513L16.8143 12.326C16.9823 12.4668 17.1455 12.6187 17.3038 12.7819L17.842 12.2596ZM17.2962 11.7513L17.7781 11.1766C17.5666 10.9993 17.3563 10.8466 17.1487 10.7295L16.7802 11.3827L16.4116 12.0359C16.5156 12.0946 16.6493 12.1876 16.8143 12.326L17.2962 11.7513ZM16.7802 11.3827L17.1487 10.7295C16.774 10.518 16.364 10.5232 16.0105 10.6053L16.1801 11.3359L16.3496 12.0664C16.4149 12.0513 16.4476 12.0522 16.4549 12.0528C16.4579 12.053 16.4542 12.053 16.4455 12.0505C16.4366 12.0478 16.4247 12.0433 16.4116 12.0359L16.7802 11.3827ZM16.1801 11.3359L16.0105 10.6053C16.0175 10.6036 16.0276 10.6025 16.0386 10.6031C16.0494 10.6037 16.0551 10.6057 16.054 10.6053C16.0499 10.6039 16.0115 10.5893 15.941 10.5257L15.4387 11.0826L14.9363 11.6395C15.3 11.9676 15.7889 12.1966 16.3496 12.0664L16.1801 11.3359ZM15.4387 11.0826L15.941 10.5257C15.6088 10.226 15.2064 10.0022 14.7387 9.9709L14.6887 10.7192L14.6387 11.4676C14.671 11.4697 14.7685 11.4881 14.9363 11.6395L15.4387 11.0826ZM14.6887 10.7192L14.7387 9.9709C14.4283 9.95016 14.1201 9.96695 13.8155 10.0217L13.9483 10.7599L14.081 11.498C14.2636 11.4652 14.449 11.4549 14.6387 11.4676L14.6887 10.7192ZM13.9483 10.7599L13.8155 10.0217C13.5528 10.069 13.2836 10.1279 13.0081 10.1983L13.1936 10.925L13.3792 11.6517C13.6226 11.5895 13.8565 11.5384 14.081 11.498L13.9483 10.7599ZM13.1936 10.925L13.0081 10.1983C12.8048 10.2502 12.6114 10.2747 12.4264 10.275L12.4276 11.025L12.4288 11.775C12.7461 11.7745 13.0634 11.7323 13.3792 11.6517L13.1936 10.925ZM12.4276 11.025L12.4264 10.275C12.1744 10.2754 11.9386 10.2762 11.7191 10.2773L11.7231 11.0273L11.7271 11.7773C11.9445 11.7762 12.1784 11.7754 12.4288 11.775L12.4276 11.025ZM11.7231 11.0273L11.7191 10.2773C11.2216 10.28 10.8213 10.5321 10.5731 10.9307L11.2098 11.3271L11.8465 11.7236C11.8556 11.709 11.8464 11.729 11.8092 11.7508C11.7916 11.761 11.7734 11.7683 11.7565 11.7727C11.7401 11.7769 11.7294 11.7773 11.7271 11.7773L11.7231 11.0273ZM11.2098 11.3271L10.5731 10.9307C10.457 11.1173 10.3717 11.3402 10.3619 11.5917C10.352 11.8469 10.4216 12.0812 10.5383 12.2825L11.1872 11.9064L11.8361 11.5303C11.8441 11.5441 11.8632 11.5881 11.8608 11.6503C11.8585 11.7087 11.8389 11.7357 11.8465 11.7236L11.2098 11.3271ZM11.1872 11.9064L10.5383 12.2825C10.6955 12.5537 10.9019 12.7903 11.1466 12.9942L11.6267 12.418L12.1068 11.8418C11.9827 11.7384 11.8961 11.6339 11.8361 11.5303L11.1872 11.9064ZM11.6267 12.418L11.1466 12.9942C11.1474 12.9948 11.1531 12.9988 11.1621 13.0184C11.1726 13.0413 11.189 13.0898 11.1967 13.177L11.9438 13.1116L12.6909 13.0461C12.6518 12.599 12.4858 12.1576 12.1068 11.8418L11.6267 12.418ZM11.9438 13.1116L11.1967 13.177C11.2202 13.4455 11.3072 13.7247 11.5026 13.9634C11.6995 14.2039 11.9585 14.3447 12.2236 14.4163L12.4192 13.6922L12.6148 12.9682C12.6006 12.9643 12.6031 12.9632 12.6153 12.9706C12.6285 12.9786 12.6464 12.9926 12.6632 13.0132C12.68 13.0336 12.6887 13.0519 12.6923 13.0617C12.6955 13.0704 12.6928 13.0671 12.6909 13.0461L11.9438 13.1116ZM12.4192 13.6922L12.2236 14.4163C12.2406 14.4209 12.2415 14.4232 12.2324 14.4179C12.2224 14.412 12.2064 14.4003 12.1902 14.3815C12.174 14.3627 12.1643 14.3447 12.1595 14.3328C12.1551 14.322 12.157 14.3218 12.1588 14.3378L12.9041 14.2537L13.6494 14.1696C13.6193 13.9027 13.5238 13.6307 13.3254 13.4011C13.1275 13.1719 12.8729 13.0379 12.6148 12.9682L12.4192 13.6922ZM12.9041 14.2537L12.1588 14.3378C12.1894 14.6091 12.2875 14.879 12.4823 15.1078C12.6752 15.3345 12.9229 15.4739 13.1768 15.5536L13.4013 14.838L13.6259 14.1224C13.6031 14.1152 13.5958 14.1102 13.5985 14.1119C13.6019 14.114 13.6125 14.1215 13.6246 14.1357C13.6369 14.1501 13.6448 14.1645 13.6489 14.1747C13.6527 14.1841 13.651 14.184 13.6494 14.1696L12.9041 14.2537ZM13.4013 14.838L13.1768 15.5536C13.3657 15.6128 13.4476 15.6848 13.4863 15.7347L14.0787 15.2747L14.671 14.8147C14.4029 14.4694 14.0333 14.2502 13.6259 14.1224L13.4013 14.838ZM14.0787 15.2747L13.4863 15.7347C13.477 15.7227 13.4818 15.7201 13.4864 15.7487C13.4918 15.7823 13.4951 15.8516 13.4738 15.9681L14.2115 16.103L14.9493 16.2379C15.0352 15.768 15.0046 15.2443 14.671 14.8147L14.0787 15.2747ZM14.2115 16.103L13.4738 15.9681C13.4269 16.2242 13.4198 16.5089 13.5104 16.7879C13.6063 17.0829 13.7957 17.3212 14.0519 17.4844L14.4548 16.8518L14.8577 16.2192C14.8674 16.2254 14.885 16.2389 14.9028 16.2618C14.9208 16.2848 14.9316 16.3076 14.937 16.3244C14.942 16.3398 14.9404 16.3433 14.94 16.3291C14.9396 16.3143 14.9407 16.2849 14.9493 16.2379L14.2115 16.103ZM14.4548 16.8518L14.0519 17.4844C14.2198 17.5913 14.3555 17.7103 14.4648 17.8399L15.038 17.3562L15.6112 16.8726C15.3971 16.6188 15.1441 16.4016 14.8577 16.2192L14.4548 16.8518ZM15.038 17.3562L14.4648 17.8399C14.5358 17.924 14.592 18.0341 14.6223 18.1913L15.3588 18.0494L16.0952 17.9075C16.0212 17.5237 15.8636 17.1717 15.6112 16.8726L15.038 17.3562ZM15.3588 18.0494L14.6223 18.1913C14.6761 18.4705 14.8088 18.7291 15.0296 18.933C15.2427 19.1299 15.499 19.24 15.7496 19.2989L15.9211 18.5688L16.0925 17.8386C16.0205 17.8217 16.0216 17.8073 16.0473 17.8311C16.0604 17.8432 16.0733 17.8594 16.0831 17.8776C16.0877 17.8861 16.0908 17.8934 16.0927 17.899C16.0946 17.9045 16.0952 17.9075 16.0952 17.9075L15.3588 18.0494ZM15.9211 18.5688L15.7496 19.2989C15.9647 19.3494 16.0417 19.4187 16.0683 19.4507L16.6454 18.9717L17.2224 18.4926C16.9288 18.139 16.5231 17.9397 16.0925 17.8386L15.9211 18.5688ZM16.6454 18.9717L16.0683 19.4507C16.057 19.4371 16.0597 19.4304 16.0638 19.4531C16.0689 19.4813 16.0735 19.5459 16.0534 19.6595L16.7919 19.7901L17.5305 19.9207C17.6142 19.4473 17.5757 18.9182 17.2224 18.4926L16.6454 18.9717ZM16.7919 19.7901L16.0534 19.6595C15.9669 20.1483 16.0216 20.7074 16.4486 21.1226L16.9714 20.5849L17.4942 20.0471C17.5019 20.0546 17.5097 20.0646 17.5157 20.0755C17.5215 20.0861 17.5224 20.0916 17.5216 20.0882C17.5194 20.0785 17.5114 20.0287 17.5305 19.9207L16.7919 19.7901ZM16.9714 20.5849L16.4486 21.1226C16.5832 21.2535 16.6963 21.3974 16.7893 21.5554L17.4356 21.1749L18.0819 20.7943C17.9202 20.5197 17.7237 20.2702 17.4942 20.0471L16.9714 20.5849ZM17.4356 21.1749L16.7893 21.5554C16.9923 21.9002 17.2821 22.1658 17.6311 22.3569L17.9913 21.699L18.3515 21.0411C18.2143 20.966 18.1336 20.8822 18.0819 20.7943L17.4356 21.1749ZM17.9913 21.699L17.6311 22.3569C17.7478 22.4207 17.8046 22.4894 17.8388 22.5624L18.5179 22.2441L19.197 21.9257C19.0153 21.5382 18.721 21.2434 18.3515 21.0411L17.9913 21.699ZM18.5179 22.2441L17.8388 22.5624C18.0074 22.9221 18.2652 23.2145 18.5938 23.4352L19.012 22.8126L19.4301 22.19C19.316 22.1133 19.2443 22.0267 19.197 21.9257L18.5179 22.2441ZM19.012 22.8126L18.5938 23.4352C18.6579 23.4782 18.6911 23.5239 18.7112 23.6063L19.4399 23.4286L20.1685 23.251C20.0609 22.8094 19.8088 22.4443 19.4301 22.19L19.012 22.8126ZM19.4399 23.4286L18.7112 23.6063C18.8185 24.0465 19.0687 24.4112 19.4452 24.6665L19.8662 24.0458L20.2872 23.4252C20.223 23.3816 20.189 23.3349 20.1685 23.251L19.4399 23.4286ZM19.8662 24.0458L19.4452 24.6665C19.491 24.6976 19.5172 24.7287 19.5321 24.8117L20.2702 24.6791L21.0084 24.5465C20.9253 24.084 20.6821 23.693 20.2872 23.4252L19.8662 24.0458ZM20.2702 24.6791L19.5321 24.8117C19.5926 25.1488 19.6953 25.468 19.8444 25.7644L20.5144 25.4274L21.1844 25.0903C21.106 24.9345 21.0459 24.7548 21.0084 24.5465L20.2702 24.6791ZM20.5144 25.4274L19.8444 25.7644C20.0404 26.154 20.3534 26.4393 20.7361 26.6272L21.0667 25.954L21.3972 25.2807C21.2711 25.2188 21.2159 25.153 21.1844 25.0903L20.5144 25.4274ZM21.0667 25.954L20.7361 26.6272C20.7799 26.6487 20.7941 26.6651 20.7972 26.6688C20.7995 26.6717 20.8075 26.6813 20.8147 26.7113L21.5437 26.5347L22.2726 26.3582C22.1536 25.8672 21.8401 25.4981 21.3972 25.2807L21.0667 25.954ZM21.5437 26.5347L20.8147 26.7113C20.9506 27.2721 21.3567 27.6254 21.858 27.7844L22.0847 27.0695L22.3114 26.3546C22.2504 26.3352 22.2424 26.3204 22.2538 26.3317C22.2592 26.3371 22.265 26.3445 22.2694 26.3524C22.2736 26.3601 22.2738 26.3632 22.2726 26.3582L21.5437 26.5347ZM22.0847 27.0695L21.858 27.7844C21.8764 27.7902 21.876 27.7925 21.8647 27.785C21.8522 27.7767 21.8328 27.7607 21.8143 27.7355C21.7957 27.7102 21.7857 27.6863 21.7811 27.6703C21.7769 27.6557 21.779 27.6541 21.7789 27.6714L22.5289 27.6738L23.2789 27.6761C23.2798 27.3995 23.2125 27.1049 23.0228 26.847C22.8337 26.5897 22.5734 26.4377 22.3114 26.3546L22.0847 27.0695ZM22.5289 27.6738L21.7789 27.6714C21.7781 27.9282 21.8304 28.1966 21.9731 28.4437C22.1182 28.6947 22.3295 28.8764 22.5701 28.9969L22.906 28.3264L23.242 27.6558C23.2339 27.6518 23.2368 27.6521 23.2452 27.6597C23.2542 27.6679 23.2639 27.6795 23.2719 27.6932C23.2796 27.7066 23.2818 27.7154 23.2817 27.7152C23.2815 27.7143 23.2788 27.7024 23.2789 27.6761L22.5289 27.6738ZM22.906 28.3264L22.5701 28.9969C22.5808 29.0023 22.5811 29.004 22.5757 28.9992C22.5732 28.997 22.5698 28.9936 22.5661 28.9893C22.5624 28.9849 22.5589 28.9801 22.5558 28.9751C22.5528 28.9702 22.5506 28.9658 22.5492 28.9625C22.5478 28.9593 22.5474 28.9576 22.5475 28.9581C22.5478 28.9591 22.5506 28.9698 22.5515 28.9935L23.301 28.9662L24.0505 28.9389C24.0412 28.6848 23.9786 28.4244 23.8322 28.1872C23.6844 27.9476 23.4765 27.7733 23.242 27.6558L22.906 28.3264ZM23.301 28.9662L22.5515 28.9935C22.5622 29.2877 22.658 29.5929 22.89 29.8413C23.1136 30.0807 23.3997 30.1988 23.6663 30.2535L23.8171 29.5188L23.9678 28.7841C23.9013 28.7705 23.9348 28.7623 23.9863 28.8175C24.0119 28.8449 24.0302 28.876 24.041 28.9045C24.0511 28.9311 24.0507 28.9453 24.0505 28.9389L23.301 28.9662ZM23.8171 29.5188L23.6663 30.2535C23.8883 30.2991 23.9482 30.3658 23.9595 30.3801L24.5489 29.9163L25.1383 29.4524C24.84 29.0735 24.4121 28.8753 23.9678 28.7841L23.8171 29.5188ZM24.5489 29.9163L23.9595 30.3801C24.0769 30.5292 24.1764 30.6923 24.2582 30.871L24.9401 30.5587L25.6221 30.2465C25.4917 29.9618 25.3304 29.6966 25.1383 29.4524L24.5489 29.9163ZM24.9401 30.5587L24.2582 30.871C24.3243 31.0152 24.3718 31.1911 24.3912 31.4072L25.1382 31.3401L25.8852 31.273C25.8527 30.9107 25.7682 30.5656 25.6221 30.2465L24.9401 30.5587ZM25.1382 31.3401L24.3912 31.4072C24.4307 31.8467 24.5971 32.2556 24.9237 32.5759L25.4489 32.0405L25.9741 31.5051C25.9384 31.4701 25.8977 31.412 25.8852 31.273L25.1382 31.3401ZM25.4489 32.0405L24.9237 32.5759C25.0305 32.6807 25.1121 32.8022 25.1708 32.9467L25.8657 32.6646L26.5606 32.3824C26.4258 32.0503 26.2296 31.7557 25.9741 31.5051L25.4489 32.0405ZM25.8657 32.6646L25.1708 32.9467C25.2837 33.2248 25.4188 33.4894 25.5764 33.7396L26.2111 33.34L26.8458 32.9405C26.7364 32.7668 26.6413 32.581 26.5606 32.3824L25.8657 32.6646ZM26.2111 33.34L25.5764 33.7396C25.8079 34.1074 26.1479 34.3605 26.5406 34.5195L26.8221 33.8244L27.1036 33.1292C26.9485 33.0664 26.8811 32.9966 26.8458 32.9405L26.2111 33.34ZM26.8221 33.8244L26.5406 34.5195C26.7744 34.6142 26.9803 34.7212 27.1609 34.8387L27.5701 34.2102L27.9793 33.5817C27.7104 33.4066 27.4177 33.2564 27.1036 33.1292L26.8221 33.8244ZM27.5701 34.2102L27.1609 34.8387C27.1561 34.8356 27.1442 34.8267 27.1309 34.8104C27.1175 34.7938 27.1088 34.7771 27.1041 34.7645C27.0954 34.7412 27.1092 34.7574 27.0982 34.8433L27.8422 34.9384L28.5861 35.0334C28.6539 34.5028 28.5155 33.9308 27.9793 33.5817L27.5701 34.2102ZM27.8422 34.9384L27.0982 34.8433C27.0649 35.1046 27.0788 35.3956 27.2033 35.6737C27.3333 35.9644 27.5546 36.1747 27.8175 36.3071L28.1549 35.6373L28.4923 34.9675C28.4937 34.9682 28.5081 34.9759 28.5268 34.9948C28.5463 35.0144 28.5621 35.0379 28.5725 35.0612C28.5927 35.1063 28.5762 35.1113 28.5861 35.0334L27.8422 34.9384ZM28.1549 35.6373L27.8175 36.3071C27.9465 36.3721 28.008 36.4423 28.0442 36.5113L28.7084 36.163L29.3727 35.8147C29.1743 35.4365 28.8669 35.1562 28.4923 34.9675L28.1549 35.6373ZM28.7084 36.163L28.0442 36.5113C28.1881 36.7857 28.3614 37.0403 28.5637 37.274L29.1307 36.7831L29.6978 36.2922C29.5715 36.1464 29.4633 35.9875 29.3727 35.8147L28.7084 36.163ZM29.1307 36.7831L28.5637 37.274C28.7689 37.511 29.0033 37.7223 29.2642 37.9084L29.6997 37.2978L30.1351 36.6871C29.9661 36.5666 29.8212 36.4347 29.6978 36.2922L29.1307 36.7831ZM29.6997 37.2978L29.2642 37.9084C29.258 37.904 29.2465 37.8942 29.2346 37.8783C29.2228 37.8623 29.2161 37.8476 29.2129 37.8383C29.2101 37.8299 29.2121 37.8315 29.213 37.8476C29.214 37.8641 29.2138 37.8933 29.2076 37.9375L29.9504 38.0412L30.6932 38.145C30.7657 37.6258 30.6495 37.054 30.1351 36.6871L29.6997 37.2978ZM29.9504 38.0412L29.2076 37.9375C29.1662 38.2343 29.197 38.6049 29.4523 38.9178C29.6999 39.2211 30.047 39.3318 30.3322 39.3675L30.4255 38.6234L30.5189 37.8792C30.4395 37.8692 30.5252 37.86 30.6144 37.9693C30.7114 38.0881 30.6869 38.1905 30.6932 38.145L29.9504 38.0412ZM30.4255 38.6234L30.3322 39.3675C30.3956 39.3755 30.4434 39.3852 30.4781 39.3946C30.5131 39.404 30.5298 39.4117 30.5333 39.4135C30.5366 39.4151 30.5226 39.4086 30.5012 39.3887C30.4786 39.3676 30.4527 39.3359 30.432 39.2936L31.1054 38.9636L31.7789 38.6335C31.5125 38.0898 30.9336 37.9312 30.5189 37.8792L30.4255 38.6234ZM31.1054 38.9636L30.432 39.2936C30.5392 39.5124 30.6748 39.7333 30.8542 39.9068L31.3755 39.3676L31.8968 38.8283C31.8982 38.8297 31.8861 38.818 31.863 38.7835C31.8404 38.7497 31.812 38.701 31.7789 38.6335L31.1054 38.9636ZM31.3755 39.3676L30.8542 39.9068C31.1076 40.1517 31.4606 40.2553 31.7344 40.3124L31.8875 39.5782L32.0407 38.844C31.9451 38.8241 31.8873 38.8052 31.8574 38.7929C31.8433 38.7871 31.8411 38.7851 31.8471 38.7887C31.853 38.7922 31.872 38.8044 31.8968 38.8283L31.3755 39.3676Z" fill="#030302"/>
</svg>
