<svg width="48" height="48" viewBox="0 0 48 48" fill="none" xmlns="http://www.w3.org/2000/svg">
<g clip-path="url(#clip0_1_284)">
<path d="M11.3708 12.7606L11.1982 12.0307L11.3708 12.7606ZM10.5112 14.0223L11.1493 14.4164L10.5112 14.0223ZM9.92262 14.4944L9.66021 13.7918L9.92262 14.4944ZM9.26596 14.8984L9.78543 15.4394L9.26596 14.8984ZM8.37947 16.1332L8.81617 16.743L8.37947 16.1332ZM6.29439 18.2908L6.9795 18.596L6.29439 18.2908ZM5.0068 19.1245L5.62779 19.5451L5.0068 19.1245ZM4.19401 20.4331L4.87385 20.7498L4.19401 20.4331ZM3.48517 20.7849L3.49899 20.035L3.48517 20.7849ZM2.9528 21.3132L3.70272 21.3021L2.9528 21.3132ZM1.95593 22.4376L1.29017 22.0923L1.95593 22.4376ZM0.780213 24.3465L1.37272 23.8866L0.780213 24.3465ZM1.30299 24.8843L1.7793 24.305L1.30299 24.8843ZM2.82947 26.5398L3.3355 25.9863L2.82947 26.5398ZM3.19554 27.2344L3.93073 27.0862L3.19554 27.2344ZM4.47148 28.0798L5.12771 27.7167L4.47148 28.0798ZM5.40405 29.2686L5.15207 29.975L5.40405 29.2686ZM6.40049 30.3934L7.14568 30.3086L6.40049 30.3934ZM7.871 32.1049L7.42563 32.7084L7.871 32.1049ZM8.67861 32.358L8.72011 31.6091L8.67861 32.358ZM10.1289 34.0897L10.4661 33.4197L10.1289 34.0897ZM11.7068 35.6938L11.1157 36.1554L11.7068 35.6938ZM12.3838 35.9141L12.5125 36.653L12.3838 35.9141ZM12.6674 35.5471L13.3231 35.183L12.6674 35.5471ZM12.3178 34.9161L12.974 34.553L12.3178 34.9161ZM11.2601 33.8524L11.9963 33.7088L11.2601 33.8524ZM10.8641 33.1877L10.4283 33.7981L10.8641 33.1877ZM10.2867 32.7045L9.76217 33.2406L10.2867 32.7045ZM6.95173 29.6755L6.53091 30.2963L6.95173 29.6755ZM5.56755 27.8777L6.30394 27.7355L5.56755 27.8777ZM5.17888 27.2057L5.62937 26.6061L5.17888 27.2057ZM4.45031 26.8736L4.62925 26.1453L4.45031 26.8736ZM3.75677 26.5065L4.2818 25.9709L3.75677 26.5065ZM3.33406 25.8686L2.64076 26.1546L3.33406 25.8686ZM2.96102 25.1809L3.57584 24.7514L2.96102 25.1809ZM2.50448 24.5768L1.92361 25.0513L2.50448 24.5768ZM2.09239 24.2318L1.87305 24.949L2.09239 24.2318ZM2.12968 23.8593L2.75547 24.2727L2.12968 23.8593ZM2.62643 23.2954L3.11407 23.8652L2.62643 23.2954ZM3.24474 22.8531L2.86132 22.2085L3.24474 22.8531ZM3.65962 22.2073L2.92197 22.0717L3.65962 22.2073ZM3.9149 21.4019L3.23979 21.0752L3.9149 21.4019ZM4.42395 20.8503L4.0487 20.2009L4.42395 20.8503ZM6.06764 19.312L5.52429 18.795L6.06764 19.312ZM6.75234 18.936L6.57418 18.2075L6.75234 18.936ZM8.2808 17.2825L8.83259 17.7905L8.2808 17.2825ZM9.48087 16.3613L9.18871 15.6705L9.48087 16.3613ZM11.2154 14.9139L10.6588 14.4112L11.2154 14.9139ZM11.6026 14.2404L10.8933 13.9969L11.6026 14.2404ZM11.8978 13.4749L12.5866 13.7717L11.8978 13.4749ZM12.3237 12.8402L12.852 13.3725L12.3237 12.8402ZM12.3212 11.88L12.8515 12.4103L12.3212 11.88ZM36.2123 13.8848L36.9619 13.9115L36.2123 13.8848ZM36.4716 14.6861L36.9738 14.1291L36.4716 14.6861ZM37.7893 15.4898L38.0726 14.7953L37.7893 15.4898ZM38.3394 16.0004L37.6647 16.3281L38.3394 16.0004ZM40.6352 17.9472L41.3555 17.7382L40.6352 17.9472ZM42.1667 19.5977L42.0281 20.3347L42.1667 19.5977ZM42.8968 20.9889L43.3571 20.3968L42.8968 20.9889ZM44.1003 21.9067L43.3627 22.0426L44.1003 21.9067ZM45.6576 23.5314L46.3715 23.3014L45.6576 23.5314ZM46.0271 24.105L46.4647 23.496L46.0271 24.105ZM45.9608 24.5015L45.5183 23.8959L45.9608 24.5015ZM44.4419 26.1646L43.7374 25.9076L44.4419 26.1646ZM43.8632 26.6465L43.7065 25.9131L43.8632 26.6465ZM41.805 28.831L41.0697 28.6832L41.805 28.831ZM40.3445 29.4918L39.8619 28.9176L40.3445 29.4918ZM39.8159 30.0239L39.2385 29.5452L39.8159 30.0239ZM39.4247 30.6933L38.7277 30.4162L39.4247 30.6933ZM38.9739 31.3032L39.4311 31.8978L38.9739 31.3032ZM38.3398 31.7298L37.9604 31.0828L38.3398 31.7298ZM38.005 32.4556L37.255 32.4549L38.005 32.4556ZM37.6983 33.2095L38.1412 33.8148L37.6983 33.2095ZM36.2145 33.8471L35.5 33.6188L36.2145 33.8471ZM35.4951 35.5031L35.5937 34.7596L35.4951 35.5031ZM36.0415 35.5478L35.8786 34.8157L36.0415 35.5478ZM36.4344 35.3149L36.8581 35.9338L36.4344 35.3149ZM37.5028 34.262L37.066 33.6523L37.5028 34.262ZM37.9181 33.6166L37.1907 33.4342L37.9181 33.6166ZM39.0613 32.6385L39.3439 33.3332L39.0613 32.6385ZM40.2396 31.6955L40.3945 32.4293L40.2396 31.6955ZM41.139 30.4736L41.4307 31.1645L41.139 30.4736ZM42.2744 29.4876L42.9704 29.767L42.2744 29.4876ZM42.7265 28.8791L42.2702 28.2839L42.7265 28.8791ZM43.4589 28.5508L43.2929 27.8194L43.4589 28.5508ZM43.9737 28.005L44.7113 28.1411L43.9737 28.005ZM45.7594 26.6087L45.2415 26.0662L45.7594 26.6087ZM47.2104 24.8777L47.8847 25.2059L47.2104 24.8777ZM47.5908 24.1986L46.9595 23.7936L47.5908 24.1986ZM46.8948 23.1881L46.9732 22.4422L46.8948 23.1881ZM43.761 19.9579L43.1031 20.3179L43.761 19.9579ZM43.21 19.4483L42.8972 20.13L43.21 19.4483ZM42.7078 18.8898L42.0008 19.14L42.7078 18.8898ZM42.104 18.433L42 19.1758V19.1758L42.104 18.433ZM41.5635 17.9128L40.8236 18.0351L41.5635 17.9128ZM40.0961 16.1982L40.2522 15.4646L40.0961 16.1982ZM39.3038 15.9299L39.6358 15.2574L39.3038 15.9299ZM38.7932 15.3798L38.1005 15.6673L38.7932 15.3798ZM35.6817 12.1171L35.1513 11.5868L35.6817 12.1171ZM24.2265 24.6884L24.5625 25.359L24.2265 24.6884ZM24.4743 24.225L23.7375 24.0851L24.4743 24.225ZM24.5228 23.613L25.2693 23.5413L24.5228 23.613ZM24.125 23.3713L24.1157 24.1212L24.125 23.3713ZM23.1764 24.525L23.789 24.0923L23.1764 24.525ZM32.975 24.7869L33.1443 24.0563L32.975 24.7869ZM33.655 24.7369L33.3479 24.0527L33.655 24.7369ZM34.0557 24.225L34.7824 24.4104L34.0557 24.225ZM33.9757 23.7634L33.6441 24.4361L33.9757 23.7634ZM33.021 23.3482L33.7661 23.434L33.021 23.3482ZM32.554 24.525L31.8286 24.7157L32.554 24.525ZM12.0004 12.3296L11.3599 11.9395C11.3455 11.9631 11.3192 12.0021 11.1982 12.0307L11.3708 12.7606L11.5433 13.4905C11.9942 13.3839 12.3877 13.1355 12.641 12.7197L12.0004 12.3296ZM11.3708 12.7606L11.1982 12.0307C10.9486 12.0897 10.7056 12.2048 10.5031 12.3978C10.2998 12.5916 10.173 12.8299 10.1044 13.08L10.8278 13.2782L11.5511 13.4765C11.5553 13.4612 11.558 13.4578 11.5557 13.4618C11.5546 13.4637 11.5526 13.467 11.5494 13.4711C11.5462 13.4752 11.5424 13.4794 11.5381 13.4836C11.5337 13.4877 11.5296 13.491 11.5259 13.4936C11.5223 13.4962 11.5198 13.4975 11.519 13.4979C11.5174 13.4988 11.5241 13.495 11.5433 13.4905L11.3708 12.7606ZM10.8278 13.2782L10.1044 13.08C10.0451 13.2966 9.96626 13.4774 9.87307 13.6283L10.5112 14.0223L11.1493 14.4164C11.3261 14.1302 11.4583 13.8148 11.5511 13.4765L10.8278 13.2782ZM10.5112 14.0223L9.87307 13.6283C9.8319 13.6949 9.7732 13.7496 9.66021 13.7918L9.92262 14.4944L10.185 15.197C10.5869 15.0469 10.9206 14.7869 11.1493 14.4164L10.5112 14.0223ZM9.92262 14.4944L9.66021 13.7918C9.31652 13.9202 9.00762 14.1067 8.74649 14.3574L9.26596 14.8984L9.78543 15.4394C9.88501 15.3438 10.0139 15.2609 10.185 15.197L9.92262 14.4944ZM9.26596 14.8984L8.74649 14.3574C8.48405 14.6094 8.28589 14.912 8.14733 15.2522L8.84195 15.5351L9.53657 15.8179C9.60263 15.6557 9.68714 15.5338 9.78543 15.4394L9.26596 14.8984ZM8.84195 15.5351L8.14733 15.2522C8.09449 15.382 8.02549 15.4643 7.94277 15.5235L8.37947 16.1332L8.81617 16.743C9.14547 16.5071 9.38479 16.1906 9.53657 15.8179L8.84195 15.5351ZM8.37947 16.1332L7.94277 15.5235C7.8435 15.5946 7.69974 15.6594 7.48798 15.6976L7.62123 16.4357L7.75447 17.1737C8.14169 17.1038 8.50342 16.967 8.81617 16.743L8.37947 16.1332ZM7.62123 16.4357L7.48798 15.6976C7.19396 15.7507 6.898 15.8932 6.68544 16.172C6.48181 16.4392 6.4176 16.7495 6.41257 17.0238L7.16245 17.0375L7.91232 17.0513C7.91366 16.9784 7.9291 17.0148 7.87839 17.0813C7.85295 17.1147 7.82174 17.1405 7.79202 17.1572C7.76426 17.1729 7.74812 17.1749 7.75447 17.1737L7.62123 16.4357ZM7.16245 17.0375L6.41257 17.0238C6.41083 17.1188 6.39414 17.1451 6.39961 17.1344C6.40291 17.1279 6.41046 17.1157 6.42344 17.1025C6.43645 17.0893 6.44885 17.0812 6.45623 17.0773L6.80536 17.7411L7.15448 18.4049C7.70742 18.1141 7.90282 17.5692 7.91232 17.0513L7.16245 17.0375ZM6.80536 17.7411L6.45623 17.0773C6.0718 17.2795 5.78508 17.591 5.60928 17.9856L6.29439 18.2908L6.9795 18.596C7.02161 18.5014 7.07553 18.4464 7.15448 18.4049L6.80536 17.7411ZM6.29439 18.2908L5.60928 17.9856C5.60663 17.9916 5.60628 17.9906 5.60989 17.9861C5.61366 17.9815 5.6182 17.9773 5.62183 17.9747C5.62983 17.969 5.61577 17.9828 5.55347 17.9931L5.67595 18.733L5.79843 19.473C6.30742 19.3887 6.75141 19.108 6.9795 18.596L6.29439 18.2908ZM5.67595 18.733L5.55347 17.9931C5.09259 18.0694 4.6674 18.2882 4.38581 18.704L5.0068 19.1245L5.62779 19.5451C5.63172 19.5393 5.65262 19.4971 5.79843 19.473L5.67595 18.733ZM5.0068 19.1245L4.38581 18.704C4.24351 18.9141 4.10092 19.1239 3.95802 19.3334L4.57761 19.756L5.1972 20.1786C5.34103 19.9677 5.48456 19.7566 5.62779 19.5451L5.0068 19.1245ZM4.57761 19.756L3.95802 19.3334C3.79071 19.5787 3.64293 19.8399 3.51417 20.1163L4.19401 20.4331L4.87385 20.7498C4.96982 20.5438 5.07777 20.3537 5.1972 20.1786L4.57761 19.756ZM4.19401 20.4331L3.51417 20.1163C3.51929 20.1053 3.53015 20.087 3.54886 20.0678C3.56763 20.0485 3.58637 20.0364 3.59908 20.0301C3.6107 20.0243 3.61158 20.0262 3.5953 20.0292C3.57861 20.0323 3.54765 20.0359 3.49899 20.035L3.48517 20.7849L3.47135 21.5348C4.00329 21.5446 4.59089 21.3571 4.87385 20.7498L4.19401 20.4331ZM3.48517 20.7849L3.49899 20.035C3.20635 20.0296 2.83966 20.0958 2.55365 20.3796C2.26706 20.664 2.19857 21.0308 2.20288 21.3242L2.9528 21.3132L3.70272 21.3021C3.70176 21.2367 3.71935 21.3361 3.61022 21.4443C3.50167 21.5521 3.4038 21.5335 3.47135 21.5348L3.48517 20.7849ZM2.9528 21.3132L2.20288 21.3242C2.20422 21.4153 2.18556 21.4046 2.21693 21.3536C2.23371 21.3263 2.25793 21.2994 2.28712 21.2781C2.31521 21.2577 2.33676 21.2505 2.34149 21.2492L2.54889 21.9699L2.75629 22.6907C3.05156 22.6057 3.31818 22.4263 3.49463 22.1394C3.66063 21.8695 3.70666 21.5698 3.70272 21.3021L2.9528 21.3132ZM2.54889 21.9699L2.34149 21.2492C1.88875 21.3794 1.51474 21.6594 1.29017 22.0923L1.95593 22.4376L2.62168 22.783C2.63863 22.7503 2.65993 22.7184 2.75629 22.6907L2.54889 21.9699ZM1.95593 22.4376L1.29017 22.0923C1.2906 22.0914 1.29402 22.0854 1.30138 22.0776C1.3088 22.0698 1.31574 22.0649 1.3192 22.0629C1.32544 22.0592 1.30207 22.0751 1.22189 22.0821L1.28692 22.8293L1.35194 23.5764C1.86124 23.5321 2.35293 23.3011 2.62168 22.783L1.95593 22.4376ZM1.28692 22.8293L1.22189 22.0821C0.916414 22.1087 0.575822 22.2297 0.335124 22.5388C0.107362 22.8314 0.0613062 23.176 0.0732787 23.4575L0.822601 23.4256L1.57192 23.3937C1.56819 23.306 1.59167 23.3666 1.51868 23.4603C1.48137 23.5083 1.43589 23.5414 1.39567 23.5604C1.35913 23.5777 1.33963 23.5775 1.35194 23.5764L1.28692 22.8293ZM0.822601 23.4256L0.0732787 23.4575C0.0765307 23.5339 0.0763846 23.5925 0.0744005 23.6355C0.0723279 23.6805 0.0687416 23.697 0.0695207 23.6933C0.0700896 23.6906 0.0730553 23.6772 0.0807444 23.6562C0.088235 23.6359 0.103148 23.6003 0.130503 23.5579C0.18803 23.4686 0.31457 23.3321 0.529452 23.2827L0.697321 24.0137L0.86519 24.7447C1.12968 24.6839 1.29865 24.5143 1.39143 24.3703C1.47742 24.2369 1.51635 24.1009 1.5366 24.0058C1.57737 23.8144 1.58061 23.598 1.57192 23.3937L0.822601 23.4256ZM0.697321 24.0137L0.529452 23.2827C0.369671 23.3194 0.128599 23.426 -0.0145015 23.6933C-0.146619 23.94 -0.113834 24.176 -0.084137 24.2952C-0.0292411 24.5156 0.10531 24.7001 0.187704 24.8063L0.780213 24.3465L1.37272 23.8866C1.36029 23.8706 1.35109 23.858 1.34453 23.8485C1.34129 23.8439 1.3389 23.8403 1.33725 23.8377C1.33643 23.8364 1.33582 23.8355 1.33541 23.8348C1.3352 23.8345 1.33505 23.8342 1.33495 23.834C1.33484 23.8339 1.33479 23.8338 1.3348 23.8338C1.3348 23.8338 1.33485 23.8339 1.33496 23.8341C1.33507 23.8343 1.33523 23.8345 1.33544 23.8349C1.33585 23.8357 1.3365 23.8368 1.33733 23.8384C1.33895 23.8415 1.34158 23.8468 1.34481 23.854C1.35071 23.8672 1.3618 23.8942 1.37139 23.9327C1.38727 23.9964 1.4221 24.188 1.30788 24.4013C1.18268 24.6352 0.975359 24.7194 0.86519 24.7447L0.697321 24.0137ZM0.780213 24.3465L0.187704 24.8063C0.376254 25.0492 0.589459 25.2687 0.82668 25.4637L1.30299 24.8843L1.7793 24.305C1.62846 24.181 1.49315 24.0418 1.37272 23.8866L0.780213 24.3465ZM1.30299 24.8843L0.82668 25.4637C0.847761 25.481 0.898601 25.5303 0.924913 25.6982L1.66587 25.5821L2.40683 25.466C2.33736 25.0226 2.14627 24.6067 1.7793 24.305L1.30299 24.8843ZM1.66587 25.5821L0.924913 25.6982C0.96485 25.9531 1.05981 26.2117 1.2428 26.4337C1.42875 26.6594 1.66966 26.8035 1.9283 26.8816L2.14506 26.1636L2.36183 25.4456C2.35298 25.4429 2.35626 25.4428 2.36642 25.4493C2.3772 25.4562 2.38955 25.4666 2.40038 25.4798C2.40542 25.4859 2.40915 25.4914 2.41171 25.4957C2.41297 25.4978 2.41387 25.4995 2.41446 25.5007C2.41505 25.5019 2.41532 25.5025 2.41531 25.5025C2.41528 25.5024 2.41086 25.4917 2.40683 25.466L1.66587 25.5821ZM2.14506 26.1636L1.9283 26.8816C2.10676 26.9355 2.23206 27.0099 2.32343 27.0934L2.82947 26.5398L3.3355 25.9863C3.05746 25.7321 2.7265 25.5557 2.36183 25.4456L2.14506 26.1636ZM2.82947 26.5398L2.32343 27.0934C2.36877 27.1349 2.42603 27.2126 2.46034 27.3827L3.19554 27.2344L3.93073 27.0862C3.84636 26.6678 3.65958 26.2825 3.3355 25.9863L2.82947 26.5398ZM3.19554 27.2344L2.46034 27.3827C2.5177 27.6671 2.65713 27.9488 2.91718 28.1578C3.16957 28.3607 3.46542 28.4386 3.73656 28.4556L3.78356 27.7071L3.83055 26.9586C3.76903 26.9547 3.80053 26.9434 3.85692 26.9887C3.88441 27.0108 3.90523 27.0368 3.91859 27.0604C3.9311 27.0826 3.93234 27.0941 3.93073 27.0862L3.19554 27.2344ZM3.78356 27.7071L3.73656 28.4556C3.82338 28.4611 3.85157 28.4774 3.84775 28.4754C3.84525 28.474 3.83815 28.4696 3.82988 28.4614C3.82159 28.4532 3.8169 28.4459 3.81526 28.443L4.47148 28.0798L5.12771 27.7167C4.84284 27.2019 4.33728 26.9904 3.83055 26.9586L3.78356 27.7071ZM4.47148 28.0798L3.81526 28.443C3.93592 28.661 4.05267 28.8832 4.16551 29.1097L4.83678 28.7752L5.50806 28.4407C5.38573 28.1952 5.25895 27.9538 5.12771 27.7167L4.47148 28.0798ZM4.83678 28.7752L4.16551 29.1097C4.37416 29.5284 4.71889 29.8204 5.15207 29.975L5.40405 29.2686L5.65604 28.5622C5.56803 28.5308 5.53458 28.4939 5.50806 28.4407L4.83678 28.7752ZM5.40405 29.2686L5.15207 29.975C5.32754 30.0376 5.45973 30.1194 5.56173 30.2136L6.07063 29.6627L6.57952 29.1117C6.31395 28.8664 6.00175 28.6855 5.65604 28.5622L5.40405 29.2686ZM6.07063 29.6627L5.56173 30.2136C5.58018 30.2306 5.63374 30.2887 5.6553 30.4782L6.40049 30.3934L7.14568 30.3086C7.09501 29.8633 6.92865 29.4342 6.57952 29.1117L6.07063 29.6627ZM6.40049 30.3934L5.6553 30.4782C5.68991 30.7823 5.81936 31.1104 6.12192 31.342C6.40849 31.5614 6.74382 31.6113 7.0236 31.603L7.00128 30.8533L6.97896 30.1036C6.89434 30.1062 6.94734 30.0849 7.03365 30.1509C7.07773 30.1847 7.10953 30.2262 7.1286 30.2642C7.14608 30.299 7.1468 30.3184 7.14568 30.3086L6.40049 30.3934ZM7.00128 30.8533L7.0236 31.603C7.09977 31.6007 7.01433 31.6222 6.90899 31.5264C6.79659 31.4242 6.80613 31.3217 6.80699 31.3713L7.55688 31.3584L8.30676 31.3454C8.30163 31.0475 8.21557 30.687 7.91798 30.4165C7.62744 30.1524 7.26719 30.0951 6.97896 30.1036L7.00128 30.8533ZM7.55688 31.3584L6.80699 31.3713C6.81539 31.8588 6.97001 32.3721 7.42563 32.7084L7.871 32.1049L8.31637 31.5015C8.32122 31.5051 8.32646 31.5101 8.33053 31.5154C8.33441 31.5204 8.33398 31.5214 8.3312 31.5148C8.32487 31.4998 8.30857 31.4499 8.30676 31.3454L7.55688 31.3584ZM7.871 32.1049L7.42563 32.7084C7.77937 32.9694 8.20298 33.0828 8.63712 33.1068L8.67861 32.358L8.72011 31.6091C8.48427 31.596 8.36946 31.5407 8.31637 31.5015L7.871 32.1049ZM8.67861 32.358L8.63712 33.1068C8.84856 33.1185 8.89748 33.1736 8.89947 33.1757L9.44074 32.6565L9.982 32.1373C9.63781 31.7785 9.17865 31.6345 8.72011 31.6091L8.67861 32.358ZM9.44074 32.6565L8.89947 33.1757C8.91884 33.1959 8.97427 33.2667 8.99045 33.4772L9.73825 33.4197L10.486 33.3621C10.4517 32.916 10.3088 32.4781 9.982 32.1373L9.44074 32.6565ZM9.73825 33.4197L8.99045 33.4772C9.03001 33.9916 9.26107 34.4925 9.79174 34.7596L10.1289 34.0897L10.4661 33.4197C10.4678 33.4206 10.4752 33.4247 10.4845 33.4334C10.4938 33.4421 10.4998 33.4506 10.5028 33.4556C10.5081 33.4648 10.4923 33.4433 10.486 33.3621L9.73825 33.4197ZM10.1289 34.0897L9.79174 34.7596C9.96594 34.8473 10.1146 34.9514 10.2417 35.0707L10.7552 34.5241L11.2686 33.9774C11.0311 33.7543 10.7622 33.5688 10.4661 33.4197L10.1289 34.0897ZM10.7552 34.5241L10.2417 35.0707C10.389 35.2091 10.523 35.3614 10.644 35.5285L11.2514 35.0885L11.8588 34.6485C11.6828 34.4055 11.486 34.1815 11.2686 33.9774L10.7552 34.5241ZM11.2514 35.0885L10.644 35.5285C10.7978 35.7408 10.955 35.9498 11.1157 36.1554L11.7068 35.6938L12.2978 35.2321C12.1484 35.0408 12.002 34.8462 11.8588 34.6485L11.2514 35.0885ZM11.7068 35.6938L11.1157 36.1554C11.4774 36.6186 12.007 36.7411 12.5125 36.653L12.3838 35.9141L12.255 35.1752C12.1959 35.1855 12.1938 35.1746 12.2244 35.1846C12.2397 35.1895 12.2566 35.1978 12.2722 35.2089C12.2875 35.2199 12.2957 35.2294 12.2978 35.2321L11.7068 35.6938ZM12.3838 35.9141L12.5125 36.653C12.6936 36.6214 13.0404 36.5397 13.2703 36.2423C13.5779 35.8443 13.4493 35.4103 13.3231 35.183L12.6674 35.5471L12.0117 35.9112C12.0029 35.8954 11.9652 35.8236 11.9606 35.7086C11.9553 35.5759 11.9969 35.437 12.0835 35.325C12.1592 35.2269 12.2399 35.1873 12.2632 35.1769C12.2882 35.1658 12.2908 35.169 12.255 35.1752L12.3838 35.9141ZM12.6674 35.5471L13.3231 35.183C13.2162 34.9904 13.0998 34.7804 12.974 34.553L12.3178 34.9161L11.6615 35.2791C11.7876 35.507 11.9043 35.7177 12.0117 35.9112L12.6674 35.5471ZM12.3178 34.9161L12.974 34.553C12.7536 34.1546 12.4104 33.8788 11.9894 33.7288L11.7378 34.4354L11.4862 35.1419C11.5866 35.1777 11.63 35.2223 11.6615 35.2791L12.3178 34.9161ZM11.7378 34.4354L11.9894 33.7288C11.9797 33.7254 11.9794 33.7241 11.9847 33.7276C11.9871 33.7293 11.9903 33.7317 11.9937 33.7349C11.9971 33.738 12.0003 33.7414 12.003 33.7447C12.0088 33.7517 12.0099 33.7553 12.0083 33.7517C12.0065 33.7476 12.0013 33.7344 11.9963 33.7088L11.2601 33.8524L10.524 33.996C10.627 34.5238 10.9501 34.951 11.4862 35.1419L11.7378 34.4354ZM11.2601 33.8524L11.9963 33.7088C11.9092 33.2626 11.6912 32.8566 11.3 32.5773L10.8641 33.1877L10.4283 33.7981C10.4497 33.8133 10.4956 33.8505 10.524 33.996L11.2601 33.8524ZM10.8641 33.1877L11.3 32.5773C11.1247 32.4522 10.9619 32.3159 10.8112 32.1684L10.2867 32.7045L9.76217 33.2406C9.96886 33.4428 10.1911 33.6287 10.4283 33.7981L10.8641 33.1877ZM10.2867 32.7045L10.8112 32.1684C10.5823 31.9445 10.3241 31.7542 10.0396 31.5971L9.67699 32.2535L9.31435 32.91C9.48538 33.0045 9.63368 33.1149 9.76217 33.2406L10.2867 32.7045ZM9.67699 32.2535L10.0396 31.5971C9.89555 31.5175 9.78066 31.4196 9.68782 31.3028L9.10058 31.7693L8.51334 32.2358C8.73356 32.513 9.00294 32.738 9.31435 32.91L9.67699 32.2535ZM9.10058 31.7693L9.68782 31.3028C9.53228 31.107 9.37728 30.9106 9.22285 30.7137L8.63269 31.1765L8.04253 31.6394C8.1989 31.8387 8.35584 32.0376 8.51334 32.2358L9.10058 31.7693ZM8.63269 31.1765L9.22285 30.7137C9.05964 30.5056 8.89159 30.3022 8.71871 30.1034L8.15287 30.5957L7.58702 31.0879C7.74311 31.2674 7.89495 31.4512 8.04253 31.6394L8.63269 31.1765ZM8.15287 30.5957L8.71871 30.1034C8.509 29.8624 8.26901 29.6529 8.0008 29.4754L7.58698 30.1009L7.17315 30.7264C7.3305 30.8305 7.46777 30.9509 7.58702 31.0879L8.15287 30.5957ZM7.58698 30.1009L8.0008 29.4754C7.79036 29.3362 7.58094 29.196 7.37255 29.0547L6.95173 29.6755L6.53091 30.2963C6.74396 30.4407 6.95803 30.5841 7.17315 30.7264L7.58698 30.1009ZM6.95173 29.6755L7.37255 29.0547C7.20844 28.9434 7.06192 28.8175 6.93167 28.6766L6.38092 29.1857L5.83016 29.6947C6.03957 29.9213 6.27359 30.1219 6.53091 30.2963L6.95173 29.6755ZM6.38092 29.1857L6.93167 28.6766C6.77358 28.5055 6.62111 28.3287 6.47424 28.1461L5.88979 28.6161L5.30534 29.0862C5.47365 29.2954 5.6486 29.4983 5.83016 29.6947L6.38092 29.1857ZM5.88979 28.6161L6.47424 28.1461C6.40716 28.0627 6.3426 27.9357 6.30394 27.7355L5.56755 27.8777L4.83116 28.0199C4.90696 28.4124 5.05723 28.7776 5.30534 29.0862L5.88979 28.6161ZM5.56755 27.8777L6.30394 27.7355C6.2187 27.2942 6.00802 26.8906 5.62937 26.6061L5.17888 27.2057L4.72838 27.8054C4.7535 27.8242 4.80193 27.8686 4.83116 28.0199L5.56755 27.8777ZM5.17888 27.2057L5.62937 26.6061C5.33485 26.3848 4.99602 26.2354 4.62925 26.1453L4.45031 26.8736L4.27138 27.602C4.47226 27.6513 4.61914 27.7233 4.72838 27.8054L5.17888 27.2057ZM4.45031 26.8736L4.62925 26.1453C4.45367 26.1021 4.34915 26.037 4.2818 25.9709L3.75677 26.5065L3.23175 27.0421C3.52146 27.3261 3.87931 27.5056 4.27138 27.602L4.45031 26.8736ZM3.75677 26.5065L4.2818 25.9709C4.18146 25.8726 4.09521 25.7469 4.02735 25.5825L3.33406 25.8686L2.64076 26.1546C2.77946 26.4908 2.97502 26.7904 3.23175 27.0421L3.75677 26.5065ZM3.33406 25.8686L4.02735 25.5825C3.9046 25.285 3.75456 25.0072 3.57584 24.7514L2.96102 25.1809L2.34621 25.6105C2.45832 25.7709 2.55697 25.9516 2.64076 26.1546L3.33406 25.8686ZM2.96102 25.1809L3.57584 24.7514C3.41979 24.528 3.2563 24.3117 3.08535 24.1024L2.50448 24.5768L1.92361 25.0513C2.07056 25.2312 2.21143 25.4176 2.34621 25.6105L2.96102 25.1809ZM2.50448 24.5768L3.08535 24.1024C2.91445 23.8931 2.65642 23.62 2.31173 23.5146L2.09239 24.2318L1.87305 24.949C1.83396 24.9371 1.80937 24.9235 1.80016 24.918C1.79073 24.9124 1.79094 24.9114 1.80078 24.9197C1.82204 24.9375 1.8631 24.9772 1.92361 25.0513L2.50448 24.5768ZM2.09239 24.2318L2.31173 23.5146C2.40436 23.5429 2.55215 23.6158 2.65909 23.7809C2.76416 23.9431 2.76966 24.1018 2.76114 24.1868C2.75688 24.2294 2.74873 24.2611 2.74313 24.2795C2.73741 24.2983 2.73241 24.3096 2.73112 24.3125C2.72917 24.3168 2.73452 24.3044 2.75547 24.2727L2.12968 23.8593L1.5039 23.4459C1.42268 23.5689 1.29412 23.7826 1.26861 24.0374C1.25387 24.1845 1.26918 24.3942 1.40009 24.5963C1.53287 24.8013 1.72253 24.903 1.87305 24.949L2.09239 24.2318ZM2.12968 23.8593L2.75547 24.2727C2.85827 24.1171 2.9776 23.982 3.11407 23.8652L2.62643 23.2954L2.1388 22.7256C1.89423 22.9349 1.68239 23.1757 1.5039 23.4459L2.12968 23.8593ZM2.62643 23.2954L3.11407 23.8652C3.27113 23.7308 3.44223 23.6082 3.62816 23.4976L3.24474 22.8531L2.86132 22.2085C2.60387 22.3616 2.36277 22.5339 2.1388 22.7256L2.62643 23.2954ZM3.24474 22.8531L3.62816 23.4976C4.06926 23.2353 4.31087 22.8128 4.39726 22.3429L3.65962 22.2073L2.92197 22.0717C2.90894 22.1426 2.89122 22.1756 2.88372 22.1873C2.87797 22.1963 2.87305 22.2015 2.86132 22.2085L3.24474 22.8531ZM3.65962 22.2073L4.39726 22.3429C4.44173 22.1009 4.50798 21.8981 4.59001 21.7286L3.9149 21.4019L3.23979 21.0752C3.09123 21.3822 2.98729 21.7163 2.92197 22.0717L3.65962 22.2073ZM3.9149 21.4019L4.59001 21.7286C4.64149 21.6222 4.70825 21.5522 4.7992 21.4997L4.42395 20.8503L4.0487 20.2009C3.69151 20.4073 3.4189 20.7051 3.23979 21.0752L3.9149 21.4019ZM4.42395 20.8503L4.7992 21.4997C5.06401 21.3466 5.31022 21.1713 5.53666 20.9733L5.04301 20.4087L4.54936 19.844C4.39853 19.9759 4.23203 20.095 4.0487 20.2009L4.42395 20.8503ZM5.04301 20.4087L5.53666 20.9733C5.75467 20.7827 5.95679 20.5761 6.14278 20.3537L5.56752 19.8725L4.99225 19.3913C4.85616 19.554 4.70861 19.7048 4.54936 19.844L5.04301 20.4087ZM5.56752 19.8725L6.14278 20.3537C6.29361 20.1734 6.44967 19.9985 6.611 19.829L6.06764 19.312L5.52429 18.795C5.34085 18.9878 5.1635 19.1866 4.99225 19.3913L5.56752 19.8725ZM6.06764 19.312L6.611 19.829C6.6686 19.7684 6.7618 19.7058 6.9305 19.6646L6.75234 18.936L6.57418 18.2075C6.1747 18.3052 5.81145 18.4932 5.52429 18.795L6.06764 19.312ZM6.75234 18.936L6.9305 19.6646C7.45659 19.5359 7.85296 19.1857 8.02113 18.6566L7.30636 18.4294L6.59159 18.2022C6.58712 18.2163 6.58417 18.2203 6.58562 18.2179C6.58629 18.2168 6.5877 18.2147 6.58995 18.212C6.59222 18.2093 6.59487 18.2064 6.59777 18.2038C6.60066 18.2012 6.60323 18.1992 6.60514 18.1979C6.60702 18.1966 6.60773 18.1963 6.60682 18.1967C6.60504 18.1977 6.59532 18.2023 6.57418 18.2075L6.75234 18.936ZM7.30636 18.4294L8.02113 18.6566C8.06665 18.5133 8.12914 18.4337 8.19557 18.3811L7.73043 17.7928L7.26528 17.2045C6.93682 17.4642 6.7166 17.8089 6.59159 18.2022L7.30636 18.4294ZM7.73043 17.7928L8.19557 18.3811C8.42379 18.2007 8.63624 18.0038 8.83259 17.7905L8.2808 17.2825L7.72901 16.7745C7.58642 16.9294 7.43196 17.0727 7.26528 17.2045L7.73043 17.7928ZM8.2808 17.2825L8.83259 17.7905C8.98135 17.6289 9.1396 17.4767 9.30749 17.334L8.82158 16.7626L8.33568 16.1913C8.12145 16.3735 7.91918 16.568 7.72901 16.7745L8.2808 17.2825ZM8.82158 16.7626L9.30749 17.334C9.43619 17.2245 9.58954 17.1296 9.77303 17.052L9.48087 16.3613L9.18871 15.6705C8.87527 15.8031 8.5891 15.9758 8.33568 16.1913L8.82158 16.7626ZM9.48087 16.3613L9.77303 17.052C10.0488 16.9354 10.2746 16.7364 10.4203 16.4658C10.5588 16.2087 10.6029 15.9294 10.6022 15.67L9.85221 15.6719L9.10221 15.6738C9.10233 15.7194 9.09833 15.7469 9.09557 15.76C9.09291 15.7727 9.09216 15.7685 9.09976 15.7544C9.10796 15.7392 9.12196 15.7197 9.14224 15.7015C9.16228 15.6835 9.18006 15.6742 9.18871 15.6705L9.48087 16.3613ZM9.85221 15.6719L10.6022 15.67C10.6021 15.6141 10.6156 15.7246 10.4953 15.8342C10.3826 15.9369 10.2899 15.9117 10.3721 15.9156L10.4073 15.1664L10.4425 14.4172C10.1537 14.4037 9.78308 14.454 9.48532 14.7252C9.17995 15.0033 9.10145 15.3754 9.10221 15.6738L9.85221 15.6719ZM10.4073 15.1664L10.3721 15.9156C10.8562 15.9383 11.3925 15.8368 11.7721 15.4165L11.2154 14.9139L10.6588 14.4112C10.6759 14.3923 10.6872 14.3932 10.6639 14.4005C10.6347 14.4096 10.5665 14.423 10.4425 14.4172L10.4073 15.1664ZM11.2154 14.9139L11.7721 15.4165C12.0149 15.1476 12.1924 14.8322 12.312 14.4839L11.6026 14.2404L10.8933 13.9969C10.8321 14.175 10.7515 14.3086 10.6588 14.4112L11.2154 14.9139ZM11.6026 14.2404L12.312 14.4839C12.3964 14.2381 12.488 14.0007 12.5866 13.7717L11.8978 13.4749L11.2091 13.1782C11.0948 13.4433 10.9896 13.7163 10.8933 13.9969L11.6026 14.2404ZM11.8978 13.4749L12.5866 13.7717C12.6581 13.6059 12.7477 13.4761 12.852 13.3725L12.3237 12.8402L11.7954 12.3078C11.5449 12.5564 11.3506 12.8498 11.2091 13.1782L11.8978 13.4749ZM12.3237 12.8402L12.852 13.3725C12.9115 13.3134 12.974 13.2459 13.0291 13.1722C13.0767 13.1084 13.1577 12.9897 13.2004 12.831C13.2489 12.6506 13.2606 12.3397 13.024 12.0773C12.8306 11.8628 12.5881 11.8202 12.492 11.8084L12.401 12.5529L12.3099 13.2974C12.2768 13.2933 12.0783 13.2685 11.91 13.0817C11.6984 12.8471 11.7162 12.5741 11.7518 12.4415C11.7684 12.38 11.7901 12.3365 11.8021 12.3147C11.8148 12.2915 11.825 12.2776 11.8276 12.2741C11.832 12.2683 11.8246 12.2788 11.7954 12.3078L12.3237 12.8402ZM12.401 12.5529L12.492 11.8084C12.5948 11.821 12.736 11.8681 12.8569 11.9896C12.9728 12.1059 13.0127 12.2331 13.0257 12.3049C13.0323 12.3409 13.0334 12.3687 13.0333 12.385C13.0333 12.4015 13.032 12.4112 13.0319 12.4125C13.0317 12.4137 13.034 12.3973 13.0454 12.3589L12.3266 12.1449L11.6078 11.9309C11.5618 12.0853 11.5047 12.3251 11.55 12.5738C11.5755 12.7136 11.6404 12.8937 11.794 13.0479C11.9526 13.2072 12.1442 13.2771 12.3099 13.2974L12.401 12.5529ZM12.3266 12.1449L13.0454 12.3589C13.0675 12.2848 13.0874 12.2112 13.1023 12.1425C13.1143 12.0871 13.1347 11.9841 13.1324 11.8709C13.1314 11.8214 13.1259 11.6912 13.0591 11.5465C12.976 11.3667 12.777 11.1393 12.4422 11.1054C12.1873 11.0795 12.0044 11.1877 11.9489 11.2226C11.8743 11.2694 11.8204 11.3201 11.7909 11.3497L12.3212 11.88L12.8515 12.4103C12.8419 12.4199 12.8056 12.4559 12.7461 12.4932C12.7057 12.5186 12.5355 12.6225 12.2908 12.5977C11.9663 12.5648 11.775 12.3437 11.6973 12.1755C11.6358 12.0424 11.6333 11.929 11.6327 11.9015C11.6313 11.8325 11.6428 11.7947 11.6362 11.8255C11.6324 11.843 11.6239 11.8767 11.6078 11.9309L12.3266 12.1449ZM12.3212 11.88L11.7909 11.3497C11.642 11.4986 11.4956 11.7166 11.3599 11.9395L12.0004 12.3296L12.641 12.7197C12.7018 12.6198 12.7518 12.5436 12.7915 12.488C12.8339 12.4287 12.8532 12.4086 12.8515 12.4103L12.3212 11.88ZM35.46 12.1915L35.0909 11.5386C34.9175 11.6367 34.6149 11.8502 34.5331 12.2474C34.4443 12.6788 34.6757 13.0006 34.831 13.1601L35.3683 12.6369L35.9057 12.1136C35.9071 12.1151 35.942 12.1503 35.9723 12.222C36.0062 12.3022 36.0294 12.4184 36.0023 12.5498C35.9511 12.7986 35.7766 12.8741 35.8291 12.8444L35.46 12.1915ZM35.3683 12.6369L34.831 13.1601C35.0283 13.3627 35.2469 13.5495 35.4853 13.7213L35.9237 13.1127L36.3621 12.5042C36.1895 12.3798 36.0379 12.2494 35.9057 12.1136L35.3683 12.6369ZM35.9237 13.1127L35.4853 13.7213C35.4745 13.7135 35.4639 13.7031 35.4557 13.692C35.4477 13.6814 35.446 13.6755 35.4475 13.6794C35.4516 13.6903 35.467 13.7421 35.4628 13.858L36.2123 13.8848L36.9619 13.9115C36.9796 13.415 36.8524 12.8575 36.3621 12.5042L35.9237 13.1127ZM36.2123 13.8848L35.4628 13.858C35.4456 14.3404 35.5537 14.8684 35.9694 15.2432L36.4716 14.6861L36.9738 14.1291C36.9902 14.1439 36.9886 14.1529 36.9809 14.1292C36.9715 14.0999 36.9575 14.0328 36.9619 13.9115L36.2123 13.8848ZM36.4716 14.6861L35.9694 15.2432C36.192 15.4439 36.4341 15.6225 36.6948 15.7794L37.0816 15.1369L37.4684 14.4943C37.2876 14.3855 37.1231 14.2637 36.9738 14.1291L36.4716 14.6861ZM37.0816 15.1369L36.6948 15.7794C36.9503 15.9332 37.221 16.068 37.506 16.1842L37.7893 15.4898L38.0726 14.7953C37.8554 14.7067 37.6543 14.6062 37.4684 14.4943L37.0816 15.1369ZM37.7893 15.4898L37.506 16.1842C37.5907 16.2188 37.6321 16.261 37.6647 16.3281L38.3394 16.0004L39.014 15.6727C38.8154 15.2639 38.4902 14.9657 38.0726 14.7953L37.7893 15.4898ZM38.3394 16.0004L37.6647 16.3281C37.9099 16.833 38.3657 17.0939 38.8701 17.1663L38.9765 16.4239L39.083 15.6815C39.0144 15.6716 38.9953 15.6567 39.0005 15.6601C39.0029 15.6617 39.0072 15.6652 39.0114 15.6701C39.0155 15.6748 39.0159 15.6767 39.014 15.6727L38.3394 16.0004ZM38.9765 16.4239L38.8701 17.1663C38.8959 17.17 38.9057 17.1742 38.9043 17.1736C38.9021 17.1727 38.8906 17.1676 38.8756 17.1551C38.8603 17.1425 38.8483 17.128 38.8404 17.1153C38.833 17.1034 38.8328 17.0989 38.8353 17.1077L39.5571 16.904L40.2789 16.7002C40.2046 16.4371 40.0617 16.1895 39.8315 15.9992C39.6053 15.8121 39.3411 15.7185 39.083 15.6815L38.9765 16.4239ZM39.5571 16.904L38.8353 17.1077C38.9866 17.6438 39.3718 18.014 39.9065 18.1528L40.0949 17.4268L40.2833 16.7009C40.2648 16.6961 40.2577 16.6921 40.2584 16.6925C40.2587 16.6926 40.2605 16.6936 40.2633 16.6957C40.2661 16.6977 40.2693 16.7004 40.2727 16.7037C40.2761 16.707 40.2791 16.7103 40.2814 16.7134C40.2838 16.7165 40.2852 16.7187 40.2857 16.7197C40.2869 16.7217 40.2835 16.7165 40.2789 16.7002L39.5571 16.904ZM40.0949 17.4268L39.9065 18.1528C39.916 18.1552 39.9227 18.1575 39.9269 18.1591C39.9311 18.1607 39.933 18.1617 39.933 18.1618C39.933 18.1618 39.9315 18.161 39.929 18.1591C39.9265 18.1573 39.9234 18.1548 39.9203 18.1518C39.9171 18.1487 39.9143 18.1456 39.912 18.1427C39.9098 18.1398 39.9085 18.1377 39.908 18.1368C39.9069 18.135 39.9103 18.1402 39.9149 18.1561L40.6352 17.9472L41.3555 17.7382C41.2008 17.205 40.815 16.8388 40.2833 16.7009L40.0949 17.4268ZM40.6352 17.9472L39.9149 18.1561C40.0645 18.6719 40.4276 19.0428 40.9436 19.1994L41.1614 18.4817L41.3791 17.764C41.3619 17.7588 41.3545 17.7546 41.3537 17.7541C41.3533 17.7539 41.3566 17.7558 41.3609 17.7602C41.3652 17.7646 41.3668 17.7676 41.3662 17.7665C41.3654 17.765 41.3609 17.7567 41.3555 17.7382L40.6352 17.9472ZM41.1614 18.4817L40.9436 19.1994C40.9531 19.2023 40.9508 19.2028 40.9416 19.197C40.9319 19.1908 40.9203 19.1811 40.9101 19.1689C40.9053 19.1631 40.9017 19.158 40.8993 19.1539C40.8969 19.1499 40.8959 19.1476 40.8959 19.1476C40.896 19.1478 40.9004 19.1583 40.9046 19.1833L41.6443 19.0594L42.384 18.9356C42.3415 18.6819 42.2442 18.4261 42.061 18.2069C41.8751 17.9845 41.6358 17.8419 41.3791 17.764L41.1614 18.4817ZM41.6443 19.0594L40.9046 19.1833C40.9493 19.4503 41.0595 19.7218 41.2747 19.9435C41.4907 20.166 41.7599 20.2843 42.0281 20.3347L42.1667 19.5977L42.3053 18.8606C42.2891 18.8575 42.29 18.8557 42.3015 18.8614C42.3141 18.8677 42.3326 18.8797 42.3511 18.8988C42.3695 18.9178 42.3802 18.9358 42.3852 18.9465C42.3897 18.9562 42.3872 18.9546 42.384 18.9356L41.6443 19.0594ZM42.1667 19.5977L42.0281 20.3347C42.0311 20.3353 42.0107 20.3319 41.9791 20.3132C41.9454 20.2932 41.9125 20.2637 41.8871 20.2277C41.838 20.1582 41.857 20.1248 41.8558 20.209L42.6058 20.2193L43.3557 20.2295C43.3594 19.9553 43.3077 19.639 43.1123 19.3623C42.9054 19.0694 42.6061 18.9171 42.3053 18.8606L42.1667 19.5977ZM42.6058 20.2193L41.8558 20.209C41.8492 20.6975 41.9823 21.2279 42.4364 21.581L42.8968 20.9889L43.3571 20.3968C43.3643 20.4024 43.3708 20.4093 43.3755 20.4157C43.3799 20.4219 43.3793 20.423 43.3764 20.4153C43.3696 20.3974 43.3542 20.3421 43.3557 20.2295L42.6058 20.2193ZM42.8968 20.9889L42.4364 21.581C42.7197 21.8013 43.0446 21.9581 43.3981 22.0603L43.6065 21.3399L43.8149 20.6194C43.6199 20.563 43.4716 20.4858 43.3571 20.3968L42.8968 20.9889ZM43.6065 21.3399L43.3981 22.0603C43.4094 22.0636 43.4085 22.0648 43.4004 22.0598C43.3917 22.0545 43.3805 22.0457 43.3701 22.0337C43.3599 22.022 43.3554 22.013 43.3547 22.0114C43.3543 22.0104 43.3584 22.0194 43.3627 22.0426L44.1003 21.9067L44.8379 21.7709C44.7912 21.5173 44.6887 21.2637 44.5011 21.0484C44.3114 20.8307 44.0706 20.6934 43.8149 20.6194L43.6065 21.3399ZM44.1003 21.9067L43.3627 22.0426C43.441 22.4674 43.6255 22.8616 43.9566 23.1622L44.4607 22.6069L44.9649 22.0517C44.9254 22.0158 44.8696 21.9432 44.8379 21.7709L44.1003 21.9067ZM44.4607 22.6069L43.9566 23.1622C44.2255 23.4063 44.5413 23.5845 44.8901 23.7042L45.1336 22.9948L45.377 22.2854C45.1994 22.2244 45.0666 22.144 44.9649 22.0517L44.4607 22.6069ZM45.1336 22.9948L44.8901 23.7042C44.908 23.7103 44.9176 23.7156 44.9216 23.7181C44.9254 23.7204 44.926 23.7213 44.9255 23.7207C44.9249 23.7201 44.9262 23.7212 44.9289 23.7259C44.9318 23.7309 44.9375 23.7418 44.9438 23.7613L45.6576 23.5314L46.3715 23.3014C46.2137 22.8115 45.8663 22.4533 45.377 22.2854L45.1336 22.9948ZM45.6576 23.5314L44.9438 23.7613C45.0589 24.1186 45.2541 24.4732 45.5894 24.7141L46.0271 24.105L46.4647 23.496C46.4797 23.5068 46.4287 23.4789 46.3715 23.3014L45.6576 23.5314ZM46.0271 24.105L45.5894 24.7141C45.573 24.7023 45.5113 24.6554 45.4582 24.5602C45.3974 24.4514 45.3666 24.3118 45.3908 24.1669C45.4126 24.0364 45.4701 23.9543 45.4955 23.9227C45.5211 23.8908 45.5358 23.8832 45.5183 23.8959L45.9608 24.5015L46.4033 25.1071C46.5386 25.0082 46.8082 24.7857 46.8703 24.414C46.9492 23.9422 46.6533 23.6315 46.4647 23.496L46.0271 24.105ZM45.9608 24.5015L45.5183 23.8959C45.3389 24.0271 45.1488 24.1491 44.9477 24.2618L45.3146 24.916L45.6815 25.5701C45.9335 25.4288 46.1742 25.2745 46.4033 25.1071L45.9608 24.5015ZM45.3146 24.916L44.9477 24.2618C44.6053 24.4539 44.3297 24.724 44.1317 25.063L44.7793 25.4413L45.4269 25.8196C45.4896 25.7123 45.5708 25.6322 45.6815 25.5701L45.3146 24.916ZM44.7793 25.4413L44.1317 25.063C43.9773 25.3273 43.8462 25.6093 43.7374 25.9076L44.4419 26.1646L45.1465 26.4217C45.2267 26.2019 45.3205 26.0017 45.4269 25.8196L44.7793 25.4413ZM44.4419 26.1646L43.7374 25.9076C43.7335 25.9183 43.7315 25.9201 43.7338 25.9167C43.7364 25.9129 43.7409 25.9076 43.7465 25.903C43.7519 25.8985 43.7541 25.8981 43.7497 25.9001C43.7449 25.9023 43.7315 25.9077 43.7065 25.9131L43.8632 26.6465L44.0198 27.38C44.5393 27.2691 44.9553 26.9458 45.1465 26.4217L44.4419 26.1646ZM43.8632 26.6465L43.7065 25.9131C43.4431 25.9693 43.1833 26.091 42.9743 26.3082C42.766 26.5245 42.6544 26.7875 42.6056 27.0498L43.343 27.187L44.0803 27.3242C44.0838 27.3052 44.0867 27.302 44.0832 27.3093C44.0793 27.3174 44.0705 27.3323 44.055 27.3484C44.0394 27.3646 44.0239 27.3749 44.0136 27.3803C44.0041 27.3852 44.0043 27.3833 44.0198 27.38L43.8632 26.6465ZM43.343 27.187L42.6056 27.0498C42.6052 27.0518 42.6091 27.0297 42.6291 26.9963C42.6504 26.9607 42.6816 26.9266 42.7191 26.9009C42.7906 26.8516 42.8237 26.8721 42.735 26.8697L42.7147 27.6194L42.6945 28.3691C42.9691 28.3765 43.2886 28.3298 43.5696 28.1364C43.8687 27.9305 44.0238 27.6281 44.0803 27.3242L43.343 27.187ZM42.7147 27.6194L42.735 26.8697C42.4701 26.8625 42.177 26.9017 41.9086 27.0501C41.6226 27.2082 41.4268 27.4563 41.3242 27.7482L42.0317 27.997L42.7392 28.2459C42.736 28.255 42.7263 28.2774 42.7046 28.3036C42.6825 28.3305 42.6569 28.3504 42.6343 28.3628C42.5936 28.3854 42.596 28.3665 42.6945 28.3691L42.7147 27.6194ZM42.0317 27.997L41.3242 27.7482C41.2197 28.0453 41.1352 28.3573 41.0697 28.6832L41.805 28.831L42.5403 28.9787C42.5931 28.7159 42.6597 28.4719 42.7392 28.2459L42.0317 27.997ZM41.805 28.831L41.0697 28.6832C41.0694 28.6843 41.0737 28.6626 41.0935 28.6304C41.1146 28.5962 41.1448 28.5639 41.1803 28.5397C41.2482 28.4934 41.278 28.5131 41.1903 28.5112L41.1744 29.2611L41.1585 30.0109C41.432 30.0167 41.7475 29.9685 42.0256 29.7789C42.3213 29.5771 42.4795 29.2809 42.5403 28.9787L41.805 28.831ZM41.1744 29.2611L41.1903 28.5112C40.726 28.5014 40.2437 28.5967 39.8619 28.9176L40.3445 29.4918L40.827 30.0659C40.8294 30.0639 40.9005 30.0054 41.1585 30.0109L41.1744 29.2611ZM40.3445 29.4918L39.8619 28.9176C39.6354 29.108 39.4275 29.3173 39.2385 29.5452L39.8159 30.0239L40.3933 30.5026C40.5249 30.3439 40.6693 30.1984 40.827 30.0659L40.3445 29.4918ZM39.8159 30.0239L39.2385 29.5452C39.0241 29.8039 38.8549 30.0963 38.7277 30.4162L39.4247 30.6933L40.1216 30.9704C40.1956 30.7844 40.2873 30.6305 40.3933 30.5026L39.8159 30.0239ZM39.4247 30.6933L38.7277 30.4162C38.6729 30.554 38.6012 30.6438 38.5168 30.7086L38.9739 31.3032L39.4311 31.8978C39.7465 31.6553 39.9752 31.3385 40.1216 30.9704L39.4247 30.6933ZM38.9739 31.3032L38.5168 30.7086C38.3423 30.8428 38.157 30.9675 37.9604 31.0828L38.3398 31.7298L38.7192 32.3767C38.9684 32.2306 39.2058 32.071 39.4311 31.8978L38.9739 31.3032ZM38.3398 31.7298L37.9604 31.0828C37.4271 31.3955 37.2555 31.9456 37.255 32.4549L38.005 32.4556L38.755 32.4563C38.7551 32.3544 38.7718 32.3196 38.77 32.3234C38.7685 32.3266 38.7631 32.3369 38.7517 32.3496C38.7401 32.3625 38.7281 32.3715 38.7192 32.3767L38.3398 31.7298ZM38.005 32.4556L37.255 32.4549C37.2549 32.5627 37.2389 32.6128 37.2334 32.6264C37.2311 32.6321 37.2313 32.6296 37.2365 32.6228C37.2419 32.6158 37.2487 32.6091 37.2554 32.6043L37.6983 33.2095L38.1412 33.8148C38.6075 33.4736 38.7546 32.9471 38.755 32.4563L38.005 32.4556ZM37.6983 33.2095L37.2554 32.6043C37.2176 32.632 37.1108 32.6867 36.8592 32.6894L36.8675 33.4394L36.8757 34.1893C37.3235 34.1844 37.7707 34.0859 38.1412 33.8148L37.6983 33.2095ZM36.8675 33.4394L36.8592 32.6894C36.5949 32.6923 36.3053 32.7453 36.0447 32.908C35.7703 33.0793 35.5913 33.3331 35.5 33.6188L36.2145 33.8471L36.9289 34.0753C36.9277 34.0792 36.921 34.0974 36.9032 34.1212C36.8847 34.1459 36.8618 34.1662 36.8391 34.1804C36.7962 34.2072 36.7903 34.1903 36.8757 34.1893L36.8675 33.4394ZM36.2145 33.8471L35.5 33.6188C35.4397 33.8078 35.3594 33.9531 35.2667 34.0666L35.8477 34.541L36.4287 35.0153C36.6538 34.7395 36.8181 34.4223 36.9289 34.0753L36.2145 33.8471ZM35.8477 34.541L35.2667 34.0666C35.1217 34.2443 34.9585 34.4281 34.7765 34.6181L35.3181 35.137L35.8597 35.6558C36.066 35.4404 36.2559 35.2269 36.4287 35.0153L35.8477 34.541ZM35.3181 35.137L34.7765 34.6181C34.6975 34.7006 34.5949 34.8239 34.5275 34.9857C34.4543 35.1616 34.4075 35.4298 34.5415 35.7069C34.6643 35.961 34.8749 36.0855 35.0062 36.1433C35.1429 36.2035 35.2824 36.2314 35.3965 36.2466L35.4951 35.5031L35.5937 34.7596C35.5517 34.754 35.5668 34.7512 35.6107 34.7705C35.6492 34.7875 35.7986 34.861 35.892 35.0541C35.9964 35.2702 35.9518 35.4673 35.9124 35.562C35.8788 35.6426 35.8416 35.6746 35.8597 35.6558L35.3181 35.137ZM35.4951 35.5031L35.3965 36.2466C35.5575 36.2679 35.6953 36.2839 35.8046 36.2928C35.8588 36.2972 35.9146 36.3007 35.9674 36.3014C36.0027 36.3019 36.0994 36.3032 36.2043 36.2799L36.0415 35.5478L35.8786 34.8157C35.9271 34.8049 35.9628 34.8027 35.9719 34.8022C35.9849 34.8014 35.9914 34.8016 35.9887 34.8016C35.9828 34.8015 35.9639 34.8008 35.927 34.7978C35.8542 34.7918 35.7448 34.7796 35.5937 34.7596L35.4951 35.5031ZM36.0415 35.5478L36.2043 36.2799C36.3651 36.2442 36.5101 36.1563 36.5612 36.1261C36.6469 36.0753 36.7473 36.0096 36.8581 35.9338L36.4344 35.3149L36.0107 34.696C35.9116 34.7639 35.8416 34.8089 35.7964 34.8357C35.7735 34.8493 35.7647 34.8535 35.7668 34.8525C35.7681 34.8519 35.7768 34.8476 35.7914 34.8419C35.804 34.837 35.835 34.8254 35.8786 34.8157L36.0415 35.5478ZM36.4344 35.3149L36.8581 35.9338C37.1391 35.7414 37.3806 35.5061 37.5797 35.2303L36.9715 34.7914L36.3634 34.3524C36.266 34.4873 36.1495 34.601 36.0107 34.696L36.4344 35.3149ZM36.9715 34.7914L37.5797 35.2303C37.6803 35.0908 37.7995 34.972 37.9396 34.8717L37.5028 34.262L37.066 33.6523C36.7941 33.8471 36.5591 34.0812 36.3634 34.3524L36.9715 34.7914ZM37.5028 34.262L37.9396 34.8717C38.3114 34.6053 38.5383 34.2267 38.6456 33.7991L37.9181 33.6166L37.1907 33.4342C37.1561 33.5719 37.1062 33.6235 37.066 33.6523L37.5028 34.262ZM37.9181 33.6166L38.6456 33.7991C38.6754 33.6803 38.7152 33.6506 38.7437 33.6333L38.3544 32.9923L37.9651 32.3512C37.5536 32.6011 37.3026 32.9877 37.1907 33.4342L37.9181 33.6166ZM38.3544 32.9923L38.7437 33.6333C38.9278 33.5215 39.1276 33.4212 39.3439 33.3332L39.0613 32.6385L38.7787 31.9438C38.4924 32.0602 38.2209 32.1958 37.9651 32.3512L38.3544 32.9923ZM39.0613 32.6385L39.3439 33.3332C39.7536 33.1666 40.0787 32.8792 40.2851 32.4832L39.62 32.1365L38.9549 31.7899C38.9191 31.8587 38.8716 31.906 38.7787 31.9438L39.0613 32.6385ZM39.62 32.1365L40.2851 32.4832C40.2898 32.4742 40.2932 32.47 40.2945 32.4684C40.2958 32.4669 40.2974 32.4653 40.3007 32.463C40.3065 32.4588 40.3317 32.4426 40.3945 32.4293L40.2396 31.6955L40.0847 30.9616C39.6075 31.0624 39.1948 31.3296 38.9549 31.7899L39.62 32.1365ZM40.2396 31.6955L40.3945 32.4293C40.6731 32.3705 40.9475 32.234 41.1552 31.9849C41.3582 31.7414 41.4442 31.454 41.4687 31.1851L40.7218 31.117L39.9749 31.0489C39.9699 31.104 39.9608 31.0751 40.003 31.0244C40.0232 31.0002 40.0463 30.9822 40.0665 30.9709C40.0853 30.9603 40.0941 30.9597 40.0847 30.9616L40.2396 31.6955ZM40.7218 31.117L41.4687 31.1851C41.4754 31.112 41.4898 31.1022 41.4775 31.1212C41.4713 31.1308 41.4618 31.1419 41.45 31.1516C41.4384 31.1612 41.4304 31.1646 41.4307 31.1645L41.139 30.4736L40.8474 29.7826C40.2864 30.0194 40.0234 30.517 39.9749 31.0489L40.7218 31.117ZM41.139 30.4736L41.4307 31.1645C41.73 31.0382 42.0081 30.8821 42.2622 30.6948L41.8172 30.0911L41.3722 29.4874C41.2192 29.6002 41.0452 29.6991 40.8474 29.7826L41.139 30.4736ZM41.8172 30.0911L42.2622 30.6948C42.5864 30.4558 42.8213 30.1385 42.9704 29.767L42.2744 29.4876L41.5784 29.2082C41.525 29.3413 41.4551 29.4263 41.3722 29.4874L41.8172 30.0911ZM42.2744 29.4876L42.9704 29.767C43.0256 29.6295 43.0978 29.5395 43.1828 29.4743L42.7265 28.8791L42.2702 28.2839C41.955 28.5255 41.7257 28.8412 41.5784 29.2082L42.2744 29.4876ZM42.7265 28.8791L43.1828 29.4743C43.2836 29.397 43.4243 29.3278 43.6249 29.2822L43.4589 28.5508L43.2929 27.8194C42.9172 27.9047 42.5696 28.0543 42.2702 28.2839L42.7265 28.8791ZM43.4589 28.5508L43.6249 29.2822C43.8874 29.2226 44.1439 29.0977 44.3493 28.8799C44.5536 28.6634 44.6632 28.4018 44.7113 28.1411L43.9737 28.005L43.2362 27.8689C43.2325 27.8888 43.2294 27.893 43.2323 27.887C43.2356 27.88 43.2436 27.8661 43.2581 27.8507C43.2728 27.8352 43.2876 27.8249 43.2978 27.8194C43.3072 27.8144 43.3074 27.8161 43.2929 27.8194L43.4589 28.5508ZM43.9737 28.005L44.7113 28.1411C44.7427 27.9708 44.7978 27.9012 44.8356 27.8676L44.3369 27.3075L43.8381 26.7474C43.5019 27.0468 43.3149 27.4423 43.2362 27.8689L43.9737 28.005ZM44.3369 27.3075L44.8356 27.8676C44.9099 27.8015 45.0248 27.7364 45.2126 27.6955L45.0527 26.9627L44.8929 26.2299C44.5002 26.3156 44.1379 26.4804 43.8381 26.7474L44.3369 27.3075ZM45.0527 26.9627L45.2126 27.6955C45.6119 27.6084 45.9795 27.4355 46.2773 27.1512L45.7594 26.6087L45.2415 26.0662C45.1776 26.1272 45.0741 26.1904 44.8929 26.2299L45.0527 26.9627ZM45.7594 26.6087L46.2773 27.1512C46.5045 26.9343 46.7022 26.6904 46.8706 26.4215L46.2349 26.0235L45.5992 25.6255C45.4953 25.7915 45.3761 25.9377 45.2415 26.0662L45.7594 26.6087ZM46.2349 26.0235L46.8706 26.4215C46.9607 26.2775 47.0691 26.158 47.1972 26.0588L46.7379 25.4659L46.2786 24.873C46.0083 25.0824 45.7813 25.3346 45.5992 25.6255L46.2349 26.0235ZM46.7379 25.4659L47.1972 26.0588C47.492 25.8304 47.7211 25.542 47.8847 25.2059L47.2104 24.8777L46.536 24.5494C46.4681 24.6889 46.3823 24.7927 46.2786 24.873L46.7379 25.4659ZM47.2104 24.8777L47.8847 25.2059C47.9881 24.9936 48.1006 24.7929 48.222 24.6036L47.5908 24.1986L46.9595 23.7936C46.8053 24.0341 46.6642 24.2862 46.536 24.5494L47.2104 24.8777ZM47.5908 24.1986L48.222 24.6036C48.354 24.3979 48.445 24.1503 48.443 23.8717C48.441 23.5931 48.3463 23.3468 48.2112 23.143L47.5861 23.5575L46.9611 23.972C46.9669 23.9807 46.9435 23.9475 46.943 23.8826C46.9426 23.8178 46.9654 23.7845 46.9595 23.7936L47.5908 24.1986ZM47.5861 23.5575L48.2112 23.143C47.9153 22.6968 47.4525 22.4926 46.9732 22.4422L46.8948 23.1881L46.8164 23.934C46.9017 23.943 46.9415 23.9605 46.9542 23.9672C46.9625 23.9717 46.961 23.9718 46.9611 23.972L47.5861 23.5575ZM46.8948 23.1881L46.9732 22.4422C46.9628 22.4411 46.9825 22.4416 47.0181 22.4592C47.0571 22.4784 47.1 22.5109 47.1349 22.5564C47.2031 22.6454 47.1809 22.7007 47.184 22.6144L46.4344 22.5878L45.6849 22.5612C45.675 22.8415 45.723 23.1802 45.9446 23.4692C46.1789 23.7748 46.5114 23.9019 46.8164 23.934L46.8948 23.1881ZM46.4344 22.5878L47.184 22.6144C47.1936 22.3434 47.153 22.0326 46.9797 21.7536C46.7939 21.4545 46.5104 21.2796 46.2066 21.2051L46.0281 21.9335L45.8495 22.662C45.8456 22.661 45.8214 22.6543 45.7889 22.6321C45.7549 22.6087 45.7259 22.5778 45.7055 22.545C45.6677 22.4841 45.6883 22.4657 45.6849 22.5612L46.4344 22.5878ZM46.0281 21.9335L46.2066 21.2051C45.9366 21.1389 45.6738 21.0663 45.4182 20.9874L45.1969 21.704L44.9757 22.4206C45.2604 22.5085 45.5517 22.589 45.8495 22.662L46.0281 21.9335ZM45.1969 21.704L45.4182 20.9874C45.2541 20.9367 45.1484 20.8664 45.0751 20.7896L44.5327 21.3076L43.9903 21.8255C44.2623 22.1105 44.5995 22.3045 44.9757 22.4206L45.1969 21.704ZM44.5327 21.3076L45.0751 20.7896C44.9665 20.6759 44.8729 20.5369 44.7971 20.3654L44.1111 20.6685L43.4251 20.9717C43.566 21.2905 43.7535 21.5776 43.9903 21.8255L44.5327 21.3076ZM44.1111 20.6685L44.7971 20.3654C44.6805 20.1014 44.5545 19.8456 44.419 19.598L43.761 19.9579L43.1031 20.3179C43.2177 20.5274 43.325 20.7452 43.4251 20.9717L44.1111 20.6685ZM43.761 19.9579L44.419 19.598C44.2146 19.2243 43.908 18.9435 43.5227 18.7667L43.21 19.4483L42.8972 20.13C42.9966 20.1756 43.0574 20.2345 43.1031 20.3179L43.761 19.9579ZM43.21 19.4483L43.5227 18.7667C43.4726 18.7437 43.4425 18.7179 43.4148 18.6396L42.7078 18.8898L42.0008 19.14C42.1579 19.5841 42.4626 19.9306 42.8972 20.13L43.21 19.4483ZM42.7078 18.8898L43.4148 18.6396C43.3246 18.3847 43.1691 18.1549 42.9401 17.9816C42.7157 17.8119 42.4595 17.7254 42.2079 17.6902L42.104 18.433L42 19.1758C42.0293 19.1799 42.0441 19.1849 42.0482 19.1864C42.0516 19.1878 42.0456 19.1859 42.035 19.1779C42.0241 19.1696 42.0141 19.1591 42.0067 19.1487C41.9996 19.1388 41.9987 19.1342 42.0008 19.14L42.7078 18.8898ZM42.104 18.433L42.2079 17.6902C42.1879 17.6874 42.1872 17.6849 42.1991 17.6901C42.2122 17.6959 42.2338 17.7083 42.2564 17.73C42.279 17.7519 42.2933 17.7741 42.3009 17.7897C42.3078 17.8041 42.3062 17.8067 42.3035 17.7905L41.5635 17.9128L40.8236 18.0351C40.8688 18.3088 40.9851 18.5883 41.2161 18.8107C41.4461 19.0321 41.7283 19.1377 42 19.1758L42.104 18.433ZM41.5635 17.9128L42.3035 17.7905C42.243 17.4247 42.1385 17.0811 41.9813 16.7681L41.311 17.1046L40.6408 17.4412C40.7199 17.5989 40.7837 17.7941 40.8236 18.0351L41.5635 17.9128ZM41.311 17.1046L41.9813 16.7681C41.8145 16.4361 41.584 16.1517 41.29 15.9263L40.8336 16.5214L40.3772 17.1166C40.4834 17.198 40.5711 17.3025 40.6408 17.4412L41.311 17.1046ZM40.8336 16.5214L41.29 15.9263C40.9866 15.6936 40.6332 15.5457 40.2522 15.4646L40.0961 16.1982L39.9401 16.9318C40.1421 16.9748 40.2803 17.0423 40.3772 17.1166L40.8336 16.5214ZM40.0961 16.1982L40.2522 15.4646C40.0139 15.4139 39.81 15.3434 39.6358 15.2574L39.3038 15.9299L38.9717 16.6024C39.271 16.7501 39.5953 16.8584 39.9401 16.9318L40.0961 16.1982ZM39.3038 15.9299L39.6358 15.2574C39.5664 15.2231 39.5219 15.179 39.4859 15.0923L38.7932 15.3798L38.1005 15.6673C38.2719 16.0803 38.5678 16.4029 38.9717 16.6024L39.3038 15.9299ZM38.7932 15.3798L39.4859 15.0923C39.4003 14.8858 39.3285 14.6581 39.2723 14.4076L38.5405 14.5719L37.8087 14.7362C37.8821 15.0631 37.9788 15.374 38.1005 15.6673L38.7932 15.3798ZM38.5405 14.5719L39.2723 14.4076C39.2127 14.1423 39.0856 13.8826 38.8622 13.6767C38.6407 13.4725 38.3742 13.367 38.1117 13.3233L37.9886 14.0631L37.8655 14.803C37.8865 14.8065 37.8912 14.8097 37.8848 14.8068C37.8775 14.8035 37.8625 14.7952 37.8455 14.7796C37.8284 14.7638 37.8169 14.7475 37.8104 14.7355C37.8043 14.7244 37.8056 14.7226 37.8087 14.7362L38.5405 14.5719ZM37.9886 14.0631L38.1117 13.3233C37.8972 13.2876 37.7545 13.2243 37.658 13.1558L37.2238 13.7673L36.7895 14.3788C37.1065 14.6039 37.4736 14.7378 37.8655 14.803L37.9886 14.0631ZM37.2238 13.7673L37.658 13.1558C37.6209 13.1294 37.5721 13.0808 37.5386 12.9432L36.8099 13.1205L36.0811 13.2978C36.186 13.729 36.4131 14.1115 36.7895 14.3788L37.2238 13.7673ZM36.8099 13.1205L37.5386 12.9432C37.4288 12.4918 37.1758 12.1007 36.757 11.8516L36.3736 12.4962L35.9901 13.1407C36.0147 13.1553 36.0526 13.1805 36.0811 13.2978L36.8099 13.1205ZM36.3736 12.4962L36.757 11.8516C36.4951 11.6958 36.2043 11.5636 35.9028 11.523L35.8028 12.2663L35.7028 13.0096C35.7189 13.0118 35.8086 13.0328 35.9901 13.1407L36.3736 12.4962ZM35.8028 12.2663L35.9028 11.523C35.8913 11.5215 35.9153 11.5234 35.958 11.5386C35.9871 11.549 36.1198 11.5975 36.2357 11.7403C36.3886 11.9287 36.4265 12.173 36.3647 12.3826C36.3178 12.5413 36.2295 12.6299 36.212 12.6475L35.6817 12.1171L35.1513 11.5868C35.0948 11.6434 34.9822 11.7675 34.926 11.9581C34.8547 12.1997 34.898 12.4724 35.0711 12.6857C35.2072 12.8533 35.3748 12.9231 35.4538 12.9513C35.5462 12.9843 35.6348 13.0005 35.7028 13.0096L35.8028 12.2663ZM35.6817 12.1171L36.212 12.6475C36.2318 12.6277 36.2654 12.5929 36.2993 12.5486C36.3162 12.5266 36.344 12.4883 36.3711 12.4373C36.3926 12.3972 36.4475 12.2883 36.4594 12.1367C36.4739 11.9524 36.4202 11.6851 36.1843 11.4928C35.9947 11.3382 35.7943 11.3247 35.7246 11.3229C35.5787 11.3192 35.4643 11.3601 35.4462 11.3662C35.3282 11.4057 35.1884 11.4836 35.0909 11.5386L35.46 12.1915L35.8291 12.8444C35.9575 12.7718 35.9676 12.7734 35.9235 12.7882C35.9113 12.7923 35.8877 12.7998 35.8563 12.8066C35.8301 12.8123 35.7677 12.8245 35.6862 12.8224C35.621 12.8208 35.4239 12.8082 35.2364 12.6553C35.0026 12.4647 34.9498 12.2 34.9641 12.019C34.9757 11.8707 35.0292 11.766 35.048 11.7308C35.0725 11.6848 35.0965 11.6522 35.1083 11.6367C35.1323 11.6055 35.1511 11.5871 35.1513 11.5868L35.6817 12.1171ZM23.675 24.7384L23.5985 25.4845C23.8819 25.5136 24.2461 25.5175 24.5625 25.359L24.2265 24.6884L23.8906 24.0179C23.918 24.0042 23.9373 23.9988 23.9434 23.9973C23.9496 23.9957 23.9469 23.9969 23.9327 23.9982C23.9024 24.001 23.8445 24.0019 23.7515 23.9924L23.675 24.7384ZM24.2265 24.6884L24.5625 25.359C25.0197 25.1299 25.1575 24.6473 25.2111 24.365L24.4743 24.225L23.7375 24.0851C23.7303 24.1229 23.7233 24.1489 23.7181 24.165C23.7129 24.1814 23.7109 24.1831 23.7154 24.1748C23.7233 24.1599 23.7715 24.0775 23.8906 24.0179L24.2265 24.6884ZM24.4743 24.225L25.2111 24.365C25.2649 24.0818 25.2941 23.7993 25.2693 23.5413L24.5228 23.613L23.7762 23.6847C23.7818 23.7427 23.7787 23.8682 23.7375 24.0851L24.4743 24.225ZM24.5228 23.613L25.2693 23.5413C25.2397 23.2332 25.0753 22.9595 24.8014 22.7931C24.5704 22.6528 24.3195 22.6237 24.1343 22.6214L24.125 23.3713L24.1157 24.1212C24.1805 24.122 24.1209 24.1348 24.0225 24.075C23.9655 24.0404 23.9018 23.9847 23.8518 23.9039C23.802 23.8236 23.782 23.7447 23.7762 23.6847L24.5228 23.613ZM24.125 23.3713L24.1343 22.6214C23.8047 22.6173 23.4817 22.6662 23.1801 22.7876L23.4603 23.4833L23.7406 24.179C23.8252 24.1449 23.9453 24.1191 24.1157 24.1212L24.125 23.3713ZM23.4603 23.4833L23.1801 22.7876C22.6863 22.9865 22.4408 23.4135 22.3708 23.8585L23.1117 23.975L23.8526 24.0915C23.8589 24.0519 23.8641 24.0646 23.8402 24.0984C23.8281 24.1154 23.8118 24.1331 23.7917 24.1488C23.7718 24.1644 23.7535 24.1738 23.7406 24.179L23.4603 23.4833ZM23.1117 23.975L22.3708 23.8585C22.3227 24.165 22.3086 24.5964 22.5638 24.9577L23.1764 24.525L23.789 24.0923C23.8133 24.1267 23.8271 24.1577 23.8347 24.1794C23.8384 24.1902 23.8405 24.1986 23.8418 24.2041C23.8424 24.2068 23.8427 24.2089 23.843 24.2103C23.8432 24.2117 23.8433 24.2124 23.8433 24.2124C23.8433 24.2124 23.8432 24.2118 23.8431 24.2104C23.843 24.2091 23.8429 24.207 23.8428 24.2044C23.8426 24.1989 23.8426 24.1911 23.843 24.1807C23.8439 24.1595 23.8466 24.1301 23.8526 24.0915L23.1117 23.975ZM23.1764 24.525L22.5638 24.9577C22.8392 25.3475 23.2873 25.4526 23.5985 25.4845L23.675 24.7384L23.7515 23.9924C23.7151 23.9886 23.6895 23.984 23.6731 23.9802C23.6565 23.9763 23.6526 23.9741 23.658 23.9764C23.6689 23.981 23.7314 24.0108 23.789 24.0923L23.1764 24.525ZM14.375 24.7175L14.34 25.4667C14.6443 25.4809 14.9401 25.4613 15.2233 25.4011L15.0673 24.6675L14.9112 23.9339C14.7714 23.9637 14.6057 23.9774 14.4099 23.9683L14.375 24.7175ZM15.0673 24.6675L15.2233 25.4011C15.4758 25.3474 15.7421 25.2105 15.9229 24.9411C16.0936 24.6868 16.1252 24.4072 16.1132 24.1845L15.3643 24.225L14.6154 24.2655C14.6169 24.2928 14.6058 24.2119 14.6775 24.1051C14.7593 23.9832 14.8703 23.9426 14.9112 23.9339L15.0673 24.6675ZM15.3643 24.225L16.1132 24.1845C16.0978 23.9001 16.0629 23.616 16.0087 23.3322L15.272 23.4729L14.5353 23.6136C14.5771 23.8326 14.6037 24.0499 14.6154 24.2655L15.3643 24.225ZM15.272 23.4729L16.0087 23.3322C15.9718 23.1391 15.8155 22.6123 15.2345 22.5259C15.0001 22.4911 14.8031 22.5558 14.6781 22.6137C14.5491 22.6735 14.4375 22.7535 14.3465 22.8289L14.825 23.4065L15.3034 23.984C15.3374 23.9558 15.3382 23.961 15.3089 23.9746C15.2838 23.9862 15.1738 24.0334 15.014 24.0096C14.8262 23.9817 14.6867 23.8743 14.6085 23.7657C14.5746 23.7186 14.5566 23.678 14.5476 23.6542C14.5385 23.6301 14.5356 23.6151 14.5353 23.6136L15.272 23.4729ZM14.825 23.4065L14.3465 22.8289C14.2959 22.8708 14.2553 22.9016 14.224 22.9234C14.2086 22.9342 14.1966 22.9419 14.1879 22.9472C14.1791 22.9526 14.1752 22.9546 14.1756 22.9543C14.1759 22.9542 14.1834 22.9504 14.1973 22.9454C14.2109 22.9405 14.2357 22.9325 14.2701 22.9263C14.3345 22.9149 14.4743 22.9033 14.6344 22.9767L14.3221 23.6585L14.0098 24.3404C14.392 24.5154 14.7433 24.3477 14.8479 24.2953C15.0063 24.2158 15.1615 24.1016 15.3034 23.984L14.825 23.4065ZM14.3221 23.6585L14.6344 22.9767C14.5517 22.9388 14.1737 22.7849 13.8143 23.0639C13.5071 23.3023 13.5081 23.648 13.5079 23.7055C13.5072 23.8975 13.5697 24.0947 13.6104 24.215L14.3209 23.975L15.0315 23.735C15.0149 23.6859 15.0068 23.6562 15.0034 23.6421C14.9982 23.6199 15.0081 23.6509 15.0079 23.7112C15.0078 23.7422 15.0052 23.8118 14.9781 23.8987C14.9504 23.9875 14.8848 24.1318 14.7339 24.2489C14.3959 24.5112 14.05 24.3588 14.0098 24.3404L14.3221 23.6585ZM14.3209 23.975L13.6104 24.215C13.6281 24.2676 13.6085 24.2427 13.6214 24.1695C13.6284 24.1298 13.644 24.0832 13.6722 24.0366C13.7002 23.9903 13.7332 23.9565 13.7618 23.9342L14.2238 24.525L14.6858 25.1158C14.9034 24.9456 15.0495 24.7079 15.0985 24.4305C15.1438 24.174 15.0982 23.9324 15.0315 23.735L14.3209 23.975ZM14.2238 24.525L13.7618 23.9342C13.7002 23.9823 13.5778 24.0844 13.4911 24.2431C13.4435 24.3302 13.389 24.4666 13.3902 24.639C13.3914 24.8246 13.457 24.9929 13.5599 25.1239C13.733 25.3443 13.9674 25.4074 14.0414 25.4261C14.1479 25.453 14.254 25.4627 14.34 25.4667L14.375 24.7175L14.4099 23.9683C14.371 23.9665 14.377 23.9638 14.4085 23.9717C14.4252 23.9759 14.4661 23.9873 14.5181 24.0138C14.568 24.0392 14.658 24.0936 14.7395 24.1973C14.8298 24.3123 14.889 24.4629 14.8901 24.6292C14.8911 24.7823 14.8428 24.8977 14.8075 24.9622C14.7722 25.0268 14.7354 25.0677 14.7185 25.0854C14.6998 25.1049 14.6869 25.1149 14.6858 25.1158L14.2238 24.525ZM32.975 24.7869L32.8056 25.5176C33.1901 25.6067 33.5873 25.5894 33.9622 25.4211L33.655 24.7369L33.3479 24.0527C33.316 24.067 33.2599 24.0831 33.1443 24.0563L32.975 24.7869ZM33.655 24.7369L33.9622 25.4211C34.4084 25.2208 34.6721 24.8427 34.7824 24.4104L34.0557 24.225L33.329 24.0396C33.3235 24.0612 33.3183 24.0736 33.3158 24.079C33.3134 24.0842 33.3133 24.083 33.3171 24.0782C33.321 24.0732 33.3269 24.0671 33.3341 24.0615C33.3413 24.0559 33.3466 24.0533 33.3479 24.0527L33.655 24.7369ZM34.0557 24.225L34.7824 24.4104C34.8256 24.2414 34.862 24.0216 34.8225 23.794C34.7773 23.5332 34.6245 23.247 34.3073 23.0907L33.9757 23.7634L33.6441 24.4361C33.5596 24.3944 33.4828 24.3294 33.4263 24.2463C33.3725 24.1672 33.3522 24.0942 33.3446 24.0502C33.3318 23.9765 33.3497 23.9586 33.329 24.0396L34.0557 24.225ZM33.9757 23.7634L34.3073 23.0907C34.265 23.0698 34.1344 22.9872 33.884 22.7934L33.425 23.3866L32.966 23.9797C33.2156 24.1729 33.4521 24.3414 33.6441 24.4361L33.9757 23.7634ZM33.425 23.3866L33.884 22.7934C33.8018 22.7298 33.7106 22.6664 33.6135 22.6144C33.525 22.5669 33.3827 22.5019 33.2074 22.4853C33.0085 22.4663 32.7395 22.5116 32.525 22.7277C32.3377 22.9163 32.2901 23.1395 32.2759 23.2624L33.021 23.3482L33.7661 23.434C33.7616 23.473 33.7381 23.6348 33.5893 23.7847C33.4132 23.9619 33.1972 23.991 33.0656 23.9785C33.0067 23.9729 32.964 23.9599 32.9418 23.9521C32.9188 23.9439 32.906 23.937 32.9047 23.9363C32.9039 23.9359 32.9232 23.9466 32.966 23.9797L33.425 23.3866ZM33.021 23.3482L32.2759 23.2624C32.277 23.253 32.2758 23.2744 32.2503 23.3332C32.2257 23.3903 32.1845 23.4681 32.1198 23.5683L32.75 23.975L33.3802 24.3817C33.5633 24.0979 33.7271 23.7727 33.7661 23.434L33.021 23.3482ZM32.75 23.975L32.1198 23.5683C32.0225 23.7192 31.9329 23.8816 31.8735 24.0482C31.8186 24.2024 31.7579 24.4467 31.8286 24.7157L32.554 24.525L33.2794 24.3343C33.3005 24.4149 33.2978 24.4784 33.294 24.5111C33.2903 24.5436 33.2841 24.5585 33.2865 24.5518C33.2886 24.5459 33.2955 24.5283 33.3116 24.4976C33.3274 24.4674 33.3497 24.429 33.3802 24.3817L32.75 23.975ZM32.554 24.525L31.8286 24.7157C31.9083 25.0188 32.1143 25.2079 32.2861 25.3148C32.4537 25.4191 32.6397 25.4791 32.8056 25.5176L32.975 24.7869L33.1443 24.0563C33.0603 24.0368 33.0511 24.0242 33.0784 24.0412C33.1099 24.0607 33.2303 24.1479 33.2794 24.3343L32.554 24.525Z" fill="#030302"/>
</g>
<defs>
<clipPath id="clip0_1_284">
<rect width="48" height="48" fill="white"/>
</clipPath>
</defs>
</svg>
