<svg width="48" height="48" viewBox="0 0 48 48" fill="none" xmlns="http://www.w3.org/2000/svg">
<path d="M39.4335 17.3925L38.6861 17.4545L39.4335 17.3925ZM40.0718 18.7758L40.5993 18.2428L40.0718 18.7758ZM40.4317 19.4442L39.6936 19.5773L40.4317 19.4442ZM40.3547 20.2543L41.0651 20.4946L40.3547 20.2543ZM40.646 20.9678L41.0542 20.3386L40.646 20.9678ZM41.0338 21.6472L41.7781 21.7394L41.0338 21.6472ZM41.0716 24.686L41.8147 24.5844L41.0716 24.686ZM41.2192 25.4622L40.4902 25.6384L41.2192 25.4622ZM40.7227 26.9265L40.0962 27.3387L40.7227 26.9265ZM39.9644 29.0219L39.6135 28.3591L39.9644 29.0219ZM39.7426 29.7641L39.0483 30.0477L39.7426 29.7641ZM39.6691 30.5613L39.1385 30.0312L39.6691 30.5613ZM38.7225 31.7752L38.0678 31.4094L38.7225 31.7752ZM38.0922 32.2341L37.8873 31.5126L38.0922 32.2341ZM37.5557 32.7718L36.8237 32.6082L37.5557 32.7718ZM37.2129 33.4648L37.7729 33.9637L37.2129 33.4648ZM36.5209 33.8133L36.6335 34.5548L36.5209 33.8133ZM36.0015 34.3722L35.2608 34.2543L36.0015 34.3722ZM34.1878 35.6722L34.8041 36.0996L34.1878 35.6722ZM32.1563 36.6293L31.4658 36.3367L32.1563 36.6293ZM31.4786 36.8959L31.1389 37.5645L31.4786 36.8959ZM30.6718 36.8025L30.3829 36.1104L30.6718 36.8025ZM30.0212 37.345L30.615 37.8032L30.0212 37.345ZM29.3286 37.7875L29.4117 38.5329L29.3286 37.7875ZM28.5441 37.5384L28.1023 38.1444L28.5441 37.5384ZM27.7744 37.3779L27.5228 36.6714L27.7744 37.3779ZM24.0302 37.4655L23.5681 36.8748L24.0302 37.4655ZM23.2802 37.651L23.4876 36.9302V36.9302L23.2802 37.651ZM19.5302 37.6356L19.738 38.3562L19.5302 37.6356ZM15.4065 36.792L15.8766 37.3764L15.4065 36.792ZM16.1449 36.4697L16.2872 37.2061L16.1449 36.4697ZM17.149 35.3524L16.4206 35.1735L17.149 35.3524ZM19.4457 33.4065L19.9202 33.9874L19.4457 33.4065ZM19.7647 31.6118L20.0608 30.9228L19.7647 31.6118ZM17.2152 34.074L17.7088 34.6386L17.2152 34.074ZM16.6906 34.6101L16.1154 34.1288L16.6906 34.6101ZM16.1905 35.1706L16.7338 35.6876L16.1905 35.1706ZM15.5057 35.5465L15.3276 34.8179L15.5057 35.5465ZM14.9517 36.0531L14.2369 35.8259L14.9517 36.0531ZM13.4363 37.7197L13.9222 38.2911L13.4363 37.7197ZM15.3672 40.4696L15.1237 41.179L15.3672 40.4696ZM16.1326 40.7648L15.8359 41.4536L16.1326 40.7648ZM16.7675 41.1906L17.2998 40.6622L16.7675 41.1906ZM18.5529 43.6479L17.9194 44.0494L18.5529 43.6479ZM19.8893 43.3343L19.1393 43.3262L19.8893 43.3343ZM19.4295 42.7334L19.3262 43.4762L19.4295 42.7334ZM18.7703 42.332L18.1202 42.7059L18.7703 42.332ZM18.3361 41.7055L17.759 42.1846L18.3361 41.7055ZM17.664 41.317L17.4966 42.048L17.664 41.317ZM17.103 40.8173L16.3893 41.0478L17.103 40.8173ZM15.6928 38.5233L15.4272 39.2247L15.6928 38.5233ZM16.4428 38.7419L16.593 38.0071L16.4428 38.7419ZM17.9428 38.5611L18.2266 39.2553L17.9428 38.5611ZM18.6928 38.3446L18.5682 37.6051L18.6928 38.3446ZM20.1928 38.5057L19.6836 39.0564L20.1928 38.5057ZM21.6928 38.2472L21.509 38.9743L21.6928 38.2472ZM22.4428 38.3293L22.4681 39.0789L22.4428 38.3293ZM28.466 38.8525L28.3413 38.1129L28.466 38.8525ZM29.174 38.3597L28.5773 37.9053L29.174 38.3597ZM29.8714 37.933L29.8749 37.183L29.8714 37.933ZM30.6386 38.0046L30.769 37.266L30.6386 38.0046ZM32.176 37.9548L32.6935 38.4977L32.176 37.9548ZM34.1737 36.8598L34.6195 37.4629L34.1737 36.8598ZM36.2745 35.9296L36.0168 35.2252L36.2745 35.9296ZM37.3598 34.8461L37.1955 34.1143V34.1143L37.3598 34.8461ZM38.5358 33.8735L39.0451 34.4241L38.5358 33.8735ZM38.9366 33.2197L39.6547 33.4362L38.9366 33.2197ZM39.3785 31.6939L38.7466 31.2899L39.3785 31.6939ZM40.3337 30.5447L41.0801 30.6178L40.3337 30.5447ZM41.0501 29.2248L40.3077 29.1183L41.0501 29.2248ZM41.835 25.5674L42.4581 25.9847L41.835 25.5674ZM42.107 24.0841L42.8545 24.1462L42.107 24.0841ZM41.8429 23.3482L41.2644 23.8254L41.8429 23.3482ZM41.7953 22.5923L41.1588 22.1957L41.7953 22.5923ZM41.7391 21.8638L41.1868 22.3711L41.7391 21.8638ZM41.4337 18.815L42.122 18.517L41.4337 18.815ZM40.8413 18.2421L40.5061 18.913L40.8413 18.2421ZM40.4099 17.6026L39.6601 17.5884L40.4099 17.6026ZM38.7763 15.1764L38.4451 15.8493L38.7763 15.1764ZM22.125 10.4096L22.5767 11.0083L22.125 10.4096ZM22.875 10.3953L22.4383 11.005L22.875 10.3953ZM23.625 10.7882L23.3891 11.5001L23.625 10.7882ZM25.125 10.5701L25.5334 11.1991L25.125 10.5701ZM25.875 10.1995L26.1158 10.9099L25.875 10.1995ZM28.125 10.5895L28.5611 11.1997L28.125 10.5895ZM30.375 10.5556L30.1904 9.82866L30.375 10.5556ZM31.5156 10.3249L32.2619 10.2507L31.5156 10.3249ZM31.2993 10.7797L30.7069 10.3198L31.2993 10.7797ZM30.8217 11.3627L30.2543 10.8721L30.8217 11.3627ZM30.2735 11.8752L29.8216 11.2767L30.2735 11.8752ZM27.5911 14.4961L26.9453 14.1148L27.5911 14.4961ZM26.9471 15.571L27.621 15.242L26.9471 15.571ZM27.7034 16.2244L27.5094 15.5L27.7034 16.2244ZM28.4173 15.8777L28.8837 16.465L28.4173 15.8777ZM29.4099 14.749L29.9988 15.2135L29.4099 14.749ZM30.8304 12.9875L30.2076 12.5697L30.8304 12.9875ZM31.264 12.3604L30.6532 11.9252L31.264 12.3604ZM33.2016 9.28099L32.6957 9.83464L33.2016 9.28099ZM32.3475 8.01371L31.7737 8.49669L32.3475 8.01371ZM31.6684 7.63222L31.5113 8.36559L31.6684 7.63222ZM30.5887 6.59056L30.9994 5.963V5.963L30.5887 6.59056ZM27.2739 3.82275L27.1272 4.55826L27.2739 3.82275ZM28.5682 6.25307L28.2488 6.93166L28.5682 6.25307ZM29.1056 6.77636L28.4348 7.11177L29.1056 6.77636ZM30.6425 8.42147L29.902 8.54072L30.6425 8.42147ZM31.1162 9.00846L31.3482 8.29525L31.1162 9.00846ZM31.6478 9.21508L31.271 9.86353L31.6478 9.21508ZM27.6544 9.40559L27.4774 10.1344L27.6544 9.40559ZM26.9044 9.31685L26.8998 8.56687L26.9044 9.31685ZM20.9044 9.72622L20.7092 10.4504L20.9044 9.72622ZM19.4016 9.45409L19.6327 8.74059L19.4016 9.45409ZM17.2004 9.89558L16.918 9.2008L17.2004 9.89558ZM16.4853 10.0967L16.6039 10.8372L16.4853 10.0967ZM14.9997 10.3076L15.3055 9.62272L14.9997 10.3076ZM14.1745 10.2168L14.3984 10.9326L14.1745 10.2168ZM12.9069 11.0798L13.4648 11.581L12.9069 11.0798ZM12.3399 11.6026L11.8898 11.0027L12.3399 11.6026ZM11.6811 11.9536L11.9306 12.6609L11.6811 11.9536ZM9.35663 13.8066L9.46589 14.5486L9.35663 13.8066ZM8.33606 14.8896L8.12212 14.1708L8.33606 14.8896ZM7.72839 16.2625L8.37024 16.6505L7.72839 16.2625ZM7.01467 16.7006L7.18975 17.4299L7.01467 16.7006ZM6.44765 17.2333L7.19369 17.3102L6.44765 17.2333ZM6.27682 17.9939L5.57206 17.7374L6.27682 17.9939ZM5.73822 19.3871L5.04542 19.6743L5.73822 19.3871ZM5.85583 20.2066L6.59086 20.3557L5.85583 20.2066ZM4.79305 22.2879L5.52729 22.4409L4.79305 22.2879ZM4.86936 23.0544L4.17222 23.3309L4.86936 23.0544ZM4.94919 23.8199L5.68471 23.9665L4.94919 23.8199ZM5.02824 24.5643L4.33609 24.8531V24.8531L5.02824 24.5643ZM5.13771 26.0595L5.79818 25.7042L5.13771 26.0595ZM6.17368 29.6469L5.79544 30.2946L6.17368 29.6469ZM7.59784 32.2762L7.43583 33.0085L7.59784 32.2762ZM8.77424 32.2631L9.4513 32.5857L8.77424 32.2631ZM8.63378 31.7309L8.10749 32.2652L8.63378 31.7309ZM7.43119 29.8488L7.03727 30.4871L7.43119 29.8488ZM6.77314 29.3197L6.2294 29.8363L6.77314 29.3197ZM6.60361 27.7732L6.06422 28.2943L6.60361 27.7732ZM6.27621 27.0905L5.5293 27.1584L6.27621 27.0905ZM6.14283 26.3457L6.86678 26.1498L6.14283 26.3457ZM5.87205 25.6169L5.19405 25.9376L5.87205 25.6169ZM6.03348 24.8565L5.45914 24.3741L6.03348 24.8565ZM5.76325 22.5652L6.50454 22.4512L5.76325 22.5652ZM6.05765 21.8469L6.56539 22.3989L6.05765 21.8469ZM6.42734 21.1435L5.67794 21.1136L6.42734 21.1435ZM6.69351 19.6649L5.94506 19.7131L6.69351 19.6649ZM7.18889 18.2563L7.51116 18.9335L7.18889 18.2563ZM8.25769 17.138L8.7503 17.7035L8.25769 17.138ZM8.73014 16.5708L8.08168 16.194L8.73014 16.5708ZM9.12678 15.96L8.5187 15.5209L9.12678 15.96ZM10.7639 13.3991L11.2817 13.9417L10.7639 13.3991ZM11.4167 13.0066L11.1744 12.2969L11.4167 13.0066ZM12.2007 12.8251L12.1037 12.0814L12.2007 12.8251ZM12.9165 12.5724L12.5086 11.943L12.9165 12.5724ZM13.5812 12.2702L13.3738 11.5494L13.5812 12.2702ZM14.1923 11.8276L13.5917 11.3784L14.1923 11.8276ZM15.4107 10.8145L15.3842 10.065L15.4107 10.8145ZM16.2273 10.9365L16.4586 10.223L16.2273 10.9365ZM18.4364 10.4331L18.5831 11.1686L18.4364 10.4331ZM19.1549 10.4352L18.9923 11.1674L19.1549 10.4352ZM19.5 10.5059L18.75 10.5053L19.5 10.5059ZM38.5026 15.1264L37.862 14.7364C37.7096 14.9867 37.5822 15.2368 37.484 15.4866L38.182 15.7609L38.88 16.0353C38.9417 15.8785 39.028 15.7057 39.1432 15.5165L38.5026 15.1264ZM38.182 15.7609L37.484 15.4866C37.3784 15.7553 37.3602 16.0868 37.5344 16.3997C37.6886 16.6764 37.9372 16.8344 38.1375 16.927L38.4523 16.2463L38.7672 15.5656C38.7074 15.538 38.7809 15.5549 38.8449 15.6698C38.8802 15.7332 38.9015 15.808 38.9037 15.8847C38.9057 15.9577 38.8899 16.0102 38.88 16.0353L38.182 15.7609ZM38.4523 16.2463L38.1375 16.927C38.3263 17.0144 38.4752 17.1185 38.5931 17.2353L39.1208 16.7024L39.6485 16.1695C39.3954 15.9188 39.0986 15.7189 38.7672 15.5656L38.4523 16.2463ZM39.1208 16.7024L38.5931 17.2353C38.6433 17.2851 38.6769 17.3443 38.6861 17.4545L39.4335 17.3925L40.1809 17.3305C40.1442 16.888 39.9694 16.4872 39.6485 16.1695L39.1208 16.7024ZM39.4335 17.3925L38.6861 17.4545C38.7154 17.8081 38.7982 18.1459 38.9426 18.4602L39.6241 18.1472L40.3057 17.8342C40.2417 17.695 40.1975 17.5296 40.1809 17.3305L39.4335 17.3925ZM39.6241 18.1472L38.9426 18.4602C39.0878 18.7765 39.2918 19.0591 39.5442 19.3089L40.0718 18.7758L40.5993 18.2428C40.4631 18.1079 40.3687 17.9715 40.3057 17.8342L39.6241 18.1472ZM40.0718 18.7758L39.5442 19.3089C39.636 19.3998 39.677 19.4854 39.6936 19.5773L40.4317 19.4442L41.1698 19.3112C41.095 18.8964 40.8961 18.5364 40.5993 18.2428L40.0718 18.7758ZM40.4317 19.4442L39.6936 19.5773C39.7131 19.6854 39.7078 19.8261 39.6442 20.014L40.3547 20.2543L41.0651 20.4946C41.1956 20.109 41.2416 19.7096 41.1698 19.3112L40.4317 19.4442ZM40.3547 20.2543L39.6442 20.014C39.5488 20.2961 39.5318 20.6164 39.6604 20.9313C39.784 21.2339 40.008 21.4479 40.2379 21.597L40.646 20.9678L41.0542 20.3386C40.9928 20.2987 41.0226 20.2993 41.0491 20.3642C41.0623 20.3966 41.0683 20.4305 41.0683 20.46C41.0683 20.4878 41.0631 20.5006 41.0651 20.4946L40.3547 20.2543ZM40.646 20.9678L40.2379 21.597C40.2751 21.6212 40.2964 21.6396 40.307 21.6501C40.3173 21.6603 40.3157 21.6611 40.31 21.6511C40.3038 21.6402 40.2964 21.6229 40.2921 21.6011C40.2878 21.5794 40.2885 21.5629 40.2895 21.555L41.0338 21.6472L41.7781 21.7394C41.8573 21.1002 41.4993 20.6273 41.0542 20.3386L40.646 20.9678ZM41.0338 21.6472L40.2895 21.555C40.2377 21.9729 40.3133 22.3777 40.506 22.7506L41.1723 22.4064L41.8387 22.0622C41.7812 21.951 41.7645 21.8497 41.7781 21.7394L41.0338 21.6472ZM41.1723 22.4064L40.506 22.7506C40.509 22.7566 40.5075 22.7551 40.5058 22.7471C40.504 22.7388 40.5034 22.7294 40.504 22.7212C40.5046 22.7134 40.5058 22.7123 40.5033 22.7193C40.5007 22.7269 40.4938 22.7435 40.4777 22.7694L41.1153 23.1643L41.753 23.5592C42.0322 23.1083 42.1032 22.5743 41.8387 22.0622L41.1723 22.4064ZM41.1153 23.1643L40.4777 22.7694C40.2379 23.1567 40.1151 23.6045 40.2096 24.0789L40.9452 23.9323L41.6807 23.7857C41.6761 23.7626 41.6667 23.6984 41.753 23.5592L41.1153 23.1643ZM40.9452 23.9323L40.2096 24.0789C40.2562 24.3126 40.2958 24.5488 40.3285 24.7876L41.0716 24.686L41.8147 24.5844C41.7779 24.3158 41.7333 24.0495 41.6807 23.7857L40.9452 23.9323ZM41.0716 24.686L40.3285 24.7876C40.3668 25.0679 40.4209 25.3515 40.4902 25.6384L41.2192 25.4622L41.9482 25.2861C41.8901 25.0455 41.8457 24.8117 41.8147 24.5844L41.0716 24.686ZM41.2192 25.4622L40.4902 25.6384C40.4876 25.6278 40.4843 25.6057 40.4874 25.5761C40.4905 25.5461 40.499 25.5209 40.5076 25.5036C40.5155 25.4877 40.52 25.4852 40.5111 25.4948C40.5018 25.5047 40.4809 25.5244 40.4421 25.5514L40.8706 26.1669L41.2991 26.7825C41.5138 26.6331 41.7208 26.4342 41.8521 26.1687C41.9911 25.8876 42.0198 25.5823 41.9482 25.2861L41.2192 25.4622ZM40.8706 26.1669L40.4421 25.5514C40.1985 25.721 39.95 25.9848 39.8754 26.3681C39.8006 26.7521 39.9326 27.0901 40.0962 27.3387L40.7227 26.9265L41.3493 26.5143C41.3153 26.4626 41.3732 26.5239 41.3477 26.6548C41.3224 26.7849 41.2466 26.819 41.2991 26.7825L40.8706 26.1669ZM40.7227 26.9265L40.0962 27.3387C40.1458 27.4142 40.1189 27.4076 40.1194 27.3363C40.1197 27.2984 40.1281 27.258 40.1442 27.2215C40.1595 27.1867 40.1759 27.1688 40.1785 27.1661L40.7169 27.6883L41.2553 28.2105C41.4701 27.9889 41.6167 27.6949 41.6194 27.3478C41.6219 27.0226 41.4971 26.739 41.3493 26.5143L40.7227 26.9265ZM40.7169 27.6883L40.1785 27.1661C39.859 27.4956 39.6667 27.9072 39.6556 28.3788L40.4054 28.3966L41.1552 28.4144C41.1565 28.3569 41.172 28.2963 41.2553 28.2105L40.7169 27.6883ZM40.4054 28.3966L39.6556 28.3788C39.6556 28.3771 39.6562 28.3675 39.6608 28.3533C39.6655 28.3389 39.672 28.327 39.6775 28.3191C39.6882 28.304 39.6811 28.3233 39.6135 28.3591L39.9644 29.0219L40.3153 29.6847C40.7779 29.4398 41.1409 29.0166 41.1552 28.4144L40.4054 28.3966ZM39.9644 29.0219L39.6135 28.3591C39.3409 28.5034 39.0832 28.7434 38.9746 29.107C38.8713 29.4526 38.941 29.7849 39.0483 30.0477L39.7426 29.7641L40.437 29.4806C40.4044 29.4009 40.4411 29.4382 40.4118 29.5364C40.3969 29.5864 40.3712 29.628 40.3449 29.6572C40.3207 29.6838 40.305 29.6902 40.3153 29.6847L39.9644 29.0219ZM39.7426 29.7641L39.0483 30.0477C39.0678 30.0956 39.0763 30.1279 39.0798 30.1463C39.0832 30.1643 39.0811 30.1647 39.0823 30.1513C39.0836 30.1367 39.0885 30.1132 39.101 30.0866C39.1134 30.0599 39.1284 30.0414 39.1385 30.0312L39.6691 30.5613L40.1996 31.0915C40.6849 30.6058 40.6387 29.9747 40.437 29.4806L39.7426 29.7641ZM39.6691 30.5613L39.1385 30.0312C38.9309 30.2389 38.7383 30.4537 38.561 30.6757L39.147 31.1437L39.7331 31.6118C39.874 31.4353 40.0294 31.2618 40.1996 31.0915L39.6691 30.5613ZM39.147 31.1437L38.561 30.6757C38.3763 30.9069 38.2118 31.1516 38.0678 31.4094L38.7225 31.7752L39.3773 32.1409C39.481 31.9553 39.5995 31.779 39.7331 31.6118L39.147 31.1437ZM38.7225 31.7752L38.0678 31.4094C38.0608 31.4219 38.0359 31.4704 37.8873 31.5126L38.0922 32.2341L38.2971 32.9555C38.7412 32.8294 39.1365 32.5719 39.3773 32.1409L38.7225 31.7752ZM38.0922 32.2341L37.8873 31.5126C37.6424 31.5822 37.4025 31.7039 37.2049 31.9019C37.0043 32.1029 36.8819 32.3482 36.8237 32.6082L37.5557 32.7718L38.2876 32.9354C38.2897 32.9259 38.2906 32.9271 38.2865 32.9348C38.2846 32.9385 38.2818 32.943 38.2782 32.9479C38.2746 32.9528 38.2707 32.9574 38.2667 32.9613C38.2584 32.9697 38.2531 32.9723 38.2556 32.971C38.2586 32.9693 38.271 32.9629 38.2971 32.9555L38.0922 32.2341ZM37.5557 32.7718L36.8237 32.6082C36.7869 32.7729 36.7255 32.8844 36.6529 32.9659L37.2129 33.4648L37.7729 33.9637C38.0347 33.6699 38.2018 33.3193 38.2876 32.9354L37.5557 32.7718ZM37.2129 33.4648L36.6529 32.9659C36.6225 33 36.5627 33.0484 36.4083 33.0718L36.5209 33.8133L36.6335 34.5548C37.0673 34.489 37.4688 34.305 37.7729 33.9637L37.2129 33.4648ZM36.5209 33.8133L36.4083 33.0718C36.1235 33.1151 35.8419 33.2384 35.6211 33.4759C35.4064 33.7069 35.3032 33.9877 35.2608 34.2543L36.0015 34.3722L36.7422 34.49C36.752 34.4287 36.7614 34.4524 36.7199 34.4971C36.6997 34.5188 36.6764 34.5353 36.6553 34.5457C36.6355 34.5555 36.6257 34.556 36.6335 34.5548L36.5209 33.8133ZM36.0015 34.3722L35.2608 34.2543C35.2478 34.3361 35.2304 34.3531 35.2396 34.3401C35.2446 34.3331 35.2536 34.3229 35.2666 34.313C35.2794 34.3033 35.2898 34.2987 35.2938 34.2972L35.554 35.0006L35.8142 35.704C36.3844 35.4931 36.6606 35.0029 36.7422 34.49L36.0015 34.3722ZM35.554 35.0006L35.2938 34.2972C35.0718 34.3793 34.8466 34.4496 34.6181 34.5082L34.8042 35.2347L34.9903 35.9613C35.2691 35.8898 35.5438 35.8041 35.8142 35.704L35.554 35.0006ZM34.8042 35.2347L34.6181 34.5082C34.1798 34.6204 33.8256 34.8785 33.5716 35.2447L34.1878 35.6722L34.8041 36.0996C34.8645 36.0125 34.9212 35.979 34.9903 35.9613L34.8042 35.2347ZM34.1878 35.6722L33.5716 35.2447C33.4741 35.3852 33.3689 35.4773 33.2577 35.5386L33.6198 36.1954L33.982 36.8521C34.3137 36.6692 34.5871 36.4125 34.8041 36.0996L34.1878 35.6722ZM33.6198 36.1954L33.2577 35.5386C33.2483 35.5438 33.1952 35.5754 33.027 35.5293L32.8285 36.2526L32.6301 36.9758C33.0741 37.0977 33.5486 37.0912 33.982 36.8521L33.6198 36.1954ZM32.8285 36.2526L33.027 35.5293C32.7312 35.4481 32.3868 35.4487 32.0642 35.6295C31.7575 35.8014 31.5753 36.0783 31.4658 36.3367L32.1563 36.6293L32.8469 36.9219C32.8794 36.8452 32.8802 36.8917 32.7976 36.938C32.7555 36.9616 32.711 36.9736 32.673 36.9766C32.6379 36.9793 32.6214 36.9735 32.6301 36.9758L32.8285 36.2526ZM32.1563 36.6293L31.4658 36.3367C31.4345 36.4106 31.4553 36.3085 31.6059 36.2493C31.7664 36.1862 31.8667 36.2518 31.8184 36.2272L31.4786 36.8959L31.1389 37.5645C31.4003 37.6973 31.7685 37.7972 32.1549 37.6452C32.5313 37.4972 32.7362 37.1832 32.8469 36.9219L32.1563 36.6293ZM31.4786 36.8959L31.8184 36.2272C31.3954 36.0123 30.8862 35.9003 30.3829 36.1104L30.6718 36.8025L30.9606 37.4947C30.9452 37.5011 30.9389 37.4972 30.9584 37.4995C30.9834 37.5024 31.0419 37.5152 31.1389 37.5645L31.4786 36.8959ZM30.6718 36.8025L30.3829 36.1104C29.9988 36.2707 29.685 36.553 29.4274 36.8868L30.0212 37.345L30.615 37.8032C30.7686 37.6041 30.8885 37.5247 30.9606 37.4947L30.6718 36.8025ZM30.0212 37.345L29.4274 36.8868C29.3658 36.9667 29.3181 37.0056 29.29 37.0235C29.2651 37.0394 29.2523 37.0414 29.2456 37.0421L29.3286 37.7875L29.4117 38.5329C29.9266 38.4755 30.3249 38.1791 30.615 37.8032L30.0212 37.345ZM29.3286 37.7875L29.2456 37.0421C29.2237 37.0446 29.1456 37.0488 28.9859 36.9323L28.5441 37.5384L28.1023 38.1444C28.4765 38.4172 28.9214 38.5875 29.4117 38.5329L29.3286 37.7875ZM28.5441 37.5384L28.9859 36.9323C28.5782 36.6351 28.0643 36.4786 27.5228 36.6714L27.7744 37.3779L28.026 38.0845C28.026 38.0845 28.0259 38.0845 28.0257 38.0846C28.0255 38.0846 28.0253 38.0847 28.0249 38.0848C28.0241 38.085 28.0231 38.0853 28.0217 38.0856C28.0189 38.0862 28.0156 38.0867 28.0118 38.0869C28.0081 38.0872 28.0048 38.0871 28.0021 38.087C27.9995 38.0868 27.9981 38.0865 27.9984 38.0865C27.999 38.0866 28.0331 38.094 28.1023 38.1444L28.5441 37.5384ZM27.7744 37.3779L27.5228 36.6714C27.3468 36.7341 27.1755 36.7662 27.0068 36.7715L27.0302 37.5211L27.0537 38.2708C27.3849 38.2604 27.7098 38.1971 28.026 38.0845L27.7744 37.3779ZM27.0302 37.5211L27.0068 36.7715C26.8048 36.7778 26.6023 36.7649 26.3986 36.7324L26.2802 37.473L26.1618 38.2136C26.4582 38.2609 26.7557 38.2801 27.0537 38.2708L27.0302 37.5211ZM26.2802 37.473L26.3986 36.7324C26.1397 36.691 25.8808 36.6544 25.6217 36.6225L25.5302 37.3669L25.4387 38.1113C25.6797 38.1409 25.9207 38.175 26.1618 38.2136L26.2802 37.473ZM25.5302 37.3669L25.6217 36.6225C25.3902 36.594 25.1583 36.5568 24.9261 36.5108L24.7802 37.2465L24.6344 37.9822C24.9022 38.0352 25.1703 38.0783 25.4387 38.1113L25.5302 37.3669ZM24.7802 37.2465L24.9261 36.5108C24.4109 36.4087 23.9443 36.5805 23.5681 36.8748L24.0302 37.4655L24.4923 38.0562C24.5583 38.0046 24.5995 37.9887 24.6155 37.984C24.6274 37.9805 24.6303 37.9813 24.6344 37.9822L24.7802 37.2465ZM24.0302 37.4655L23.5681 36.8748C23.5075 36.9222 23.4766 36.9301 23.4752 36.9305C23.4746 36.9306 23.4777 36.9299 23.4829 36.93C23.488 36.9301 23.4901 36.9309 23.4876 36.9302L23.2802 37.651L23.0729 38.3717C23.6058 38.5251 24.0999 38.3633 24.4923 38.0562L24.0302 37.4655ZM23.2802 37.651L23.4876 36.9302C23.05 36.8043 22.6122 36.852 22.2085 37.0437L22.5302 37.7212L22.8519 38.3987C22.9482 38.3529 23.0105 38.3538 23.0729 38.3717L23.2802 37.651ZM22.5302 37.7212L22.2085 37.0437C22.1992 37.0481 22.1981 37.0473 22.2043 37.0462C22.2073 37.0456 22.2112 37.0451 22.2159 37.0449C22.2205 37.0447 22.2251 37.0448 22.2294 37.0452C22.2384 37.0461 22.2418 37.0479 22.2381 37.0464C22.2339 37.0448 22.2209 37.0392 22.1992 37.0246L21.7802 37.6467L21.3613 38.2687C21.8073 38.5692 22.3379 38.6428 22.8519 38.3987L22.5302 37.7212ZM21.7802 37.6467L22.1992 37.0246C21.8221 36.7706 21.3809 36.6378 20.9068 36.7169L21.0302 37.4567L21.1537 38.1965C21.1795 38.1921 21.2383 38.1859 21.3613 38.2687L21.7802 37.6467ZM21.0302 37.4567L20.9068 36.7169C20.6944 36.7524 20.4829 36.7711 20.272 36.7734L20.2802 37.5234L20.2884 38.2733C20.5776 38.2702 20.8661 38.2444 21.1537 38.1965L21.0302 37.4567ZM20.2802 37.5234L20.272 36.7734C19.9518 36.7769 19.6347 36.8249 19.3224 36.9149L19.5302 37.6356L19.738 38.3562C19.9258 38.3021 20.1087 38.2753 20.2884 38.2733L20.2802 37.5234ZM19.5302 37.6356L19.3224 36.9149C19.1643 36.9605 19.0139 36.9726 18.8656 36.9556L18.7802 37.7007L18.6949 38.4459C19.0466 38.4862 19.3962 38.4548 19.738 38.3562L19.5302 37.6356ZM18.7802 37.7007L18.8656 36.9556C18.6171 36.9272 18.3687 36.8979 18.1203 36.8679L18.0302 37.6124L17.9402 38.357C18.1918 38.3874 18.4433 38.4171 18.6949 38.4459L18.7802 37.7007ZM18.0302 37.6124L18.1203 36.8679C17.8577 36.8361 17.595 36.8111 17.3323 36.7928L17.2802 37.541L17.2282 38.2892C17.4654 38.3057 17.7028 38.3283 17.9402 38.357L18.0302 37.6124ZM17.2802 37.541L17.3323 36.7928C17.0135 36.7707 16.6957 36.7922 16.3806 36.8564L16.5302 37.5913L16.6799 38.3262C16.8648 38.2886 17.0469 38.2766 17.2282 38.2892L17.2802 37.541ZM16.5302 37.5913L16.3806 36.8564C16.1333 36.9067 15.8861 36.9557 15.6388 37.0031L15.7802 37.7397L15.9216 38.4762C16.1744 38.4277 16.4272 38.3777 16.6799 38.3262L16.5302 37.5913ZM15.7802 37.7397L15.6388 37.0031C15.6499 37.001 15.7448 36.9892 15.8544 37.0564C15.9546 37.1178 15.973 37.1883 15.9615 37.1575L15.2589 37.42L14.5563 37.6825C14.6424 37.9128 14.7964 38.1672 15.0704 38.3351C15.3537 38.5089 15.6606 38.5263 15.9216 38.4762L15.7802 37.7397ZM15.2589 37.42L15.9615 37.1575C15.9494 37.1251 15.9708 37.1621 15.9528 37.2388C15.944 37.2761 15.9286 37.3097 15.9107 37.3365C15.8935 37.3622 15.8788 37.3746 15.8766 37.3764L15.4065 36.792L14.9365 36.2075C14.7312 36.3726 14.5616 36.6016 14.4925 36.8956C14.4253 37.1816 14.4709 37.4538 14.5563 37.6825L15.2589 37.42ZM15.4065 36.792L15.8766 37.3764C15.96 37.3093 16.087 37.2448 16.2872 37.2061L16.1449 36.4697L16.0027 35.7333C15.6102 35.8091 15.245 35.9594 14.9365 36.2075L15.4065 36.792ZM16.1449 36.4697L16.2872 37.2061C16.7285 37.1208 17.1321 36.9101 17.4166 36.5315L16.8169 36.081L16.2173 35.6305C16.1984 35.6556 16.154 35.7041 16.0027 35.7333L16.1449 36.4697ZM16.8169 36.081L17.4166 36.5315C17.6378 36.2369 17.7872 35.8981 17.8773 35.5313L17.149 35.3524L16.4206 35.1735C16.3713 35.3744 16.2993 35.5213 16.2173 35.6305L16.8169 36.081ZM17.149 35.3524L17.8773 35.5313C17.9205 35.3557 17.9856 35.2512 18.0517 35.1839L17.5161 34.6589L16.9805 34.1339C16.6965 34.4236 16.5169 34.7814 16.4206 35.1735L17.149 35.3524ZM17.5161 34.6589L18.0517 35.1839C18.15 35.0835 18.2757 34.9973 18.4401 34.9294L18.154 34.2361L17.8679 33.5428C17.5318 33.6816 17.2321 33.8771 16.9805 34.1339L17.5161 34.6589ZM18.154 34.2361L18.4401 34.9294C18.7376 34.8067 19.0154 34.6566 19.2712 34.4779L18.8416 33.8631L18.4121 33.2483C18.2516 33.3604 18.071 33.459 17.8679 33.5428L18.154 34.2361ZM18.8416 33.8631L19.2712 34.4779C19.4945 34.3218 19.7109 34.1583 19.9202 33.9874L19.4457 33.4065L18.9713 32.8257C18.7913 32.9726 18.605 33.1135 18.4121 33.2483L18.8416 33.8631ZM19.4457 33.4065L19.9202 33.9874C20.1131 33.8298 20.3068 33.673 20.5013 33.5169L20.0318 32.932L19.5624 32.347C19.3646 32.5058 19.1675 32.6653 18.9713 32.8257L19.4457 33.4065ZM20.0318 32.932L20.5013 33.5169C20.9551 33.1527 21.0745 32.6271 20.9954 32.1267L20.2546 32.2438L19.5138 32.3608C19.524 32.4251 19.5135 32.4342 19.5211 32.4109C19.5249 32.399 19.5316 32.3846 19.5414 32.3707C19.551 32.357 19.5596 32.3493 19.5624 32.347L20.0318 32.932ZM20.2546 32.2438L20.9954 32.1267C20.9079 31.5725 20.5778 31.145 20.0608 30.9228L19.7647 31.6118L19.4685 32.3009C19.4894 32.3098 19.4997 32.3169 19.5033 32.3195C19.5064 32.3219 19.5057 32.3218 19.5037 32.3193C19.5017 32.3167 19.502 32.3162 19.5037 32.3204C19.5057 32.3251 19.5101 32.3375 19.5138 32.3608L20.2546 32.2438ZM19.7647 31.6118L20.0608 30.9228C19.6058 30.7272 19.0967 30.7077 18.6303 30.9851L19.0137 31.6297L19.397 32.2743C19.4008 32.2721 19.4001 32.2731 19.3955 32.2744C19.3908 32.2758 19.3869 32.2761 19.3856 32.2762C19.3825 32.2762 19.4075 32.2746 19.4685 32.3009L19.7647 31.6118ZM19.0137 31.6297L18.6303 30.9851C18.1892 31.2475 17.9475 31.6699 17.8611 32.1398L18.5987 32.2755L19.3364 32.4111C19.3494 32.3402 19.3671 32.3072 19.3746 32.2955C19.3804 32.2865 19.3853 32.2813 19.397 32.2743L19.0137 31.6297ZM18.5987 32.2755L17.8611 32.1398C17.8166 32.3818 17.7503 32.5846 17.6683 32.7541L18.3434 33.0808L19.0185 33.4076C19.167 33.1006 19.271 32.7665 19.3364 32.4111L18.5987 32.2755ZM18.3434 33.0808L17.6683 32.7541C17.6168 32.8605 17.55 32.9305 17.4591 32.983L17.8343 33.6324L18.2095 34.2818C18.5667 34.0754 18.8393 33.7777 19.0185 33.4076L18.3434 33.0808ZM17.8343 33.6324L17.4591 32.983C17.1943 33.136 16.948 33.3113 16.7216 33.5093L17.2152 34.074L17.7088 34.6386C17.8596 34.5068 18.0261 34.3877 18.2095 34.2818L17.8343 33.6324ZM17.2152 34.074L16.7216 33.5093C16.5036 33.6999 16.3014 33.9065 16.1154 34.1288L16.6906 34.6101L17.2659 35.0913C17.402 34.9287 17.5495 34.7779 17.7088 34.6386L17.2152 34.074ZM16.6906 34.6101L16.1154 34.1288C15.9646 34.3091 15.8085 34.484 15.6472 34.6535L16.1905 35.1706L16.7338 35.6876C16.9172 35.4948 17.0946 35.296 17.2659 35.0913L16.6906 34.6101ZM16.1905 35.1706L15.6472 34.6535C15.5895 34.7141 15.4963 34.7767 15.3276 34.8179L15.5057 35.5465L15.6839 36.275C16.0833 36.1774 16.4466 35.9894 16.7338 35.6876L16.1905 35.1706ZM15.5057 35.5465L15.3276 34.8179C14.8015 34.9465 14.4051 35.2967 14.2369 35.8259L14.9517 36.0531L15.6664 36.2803C15.6709 36.2662 15.6739 36.2622 15.6724 36.2646C15.6717 36.2657 15.6703 36.2678 15.6681 36.2705C15.6658 36.2733 15.6632 36.2761 15.6603 36.2787C15.6574 36.2814 15.6548 36.2833 15.6529 36.2846C15.651 36.2859 15.6503 36.2862 15.6512 36.2858C15.653 36.2849 15.6627 36.2802 15.6839 36.275L15.5057 35.5465ZM14.9517 36.0531L14.2369 35.8259C14.1914 35.9691 14.1289 36.0487 14.0625 36.1013L14.5276 36.6896L14.9927 37.278C15.3212 37.0183 15.5414 36.6736 15.6664 36.2803L14.9517 36.0531ZM14.5276 36.6896L14.0625 36.1013C13.8342 36.2817 13.6218 36.4786 13.4254 36.6919L13.9772 37.1999L14.5289 37.7079C14.6715 37.553 14.826 37.4098 14.9927 37.278L14.5276 36.6896ZM13.9772 37.1999L13.4254 36.6919C13.2766 36.8535 13.1184 37.0056 12.9505 37.1484L13.4363 37.7197L13.9222 38.2911C14.1364 38.1089 14.3387 37.9145 14.5289 37.7079L13.9772 37.1999ZM13.4363 37.7197L12.9505 37.1484C12.7577 37.3123 12.598 37.5326 12.5266 37.8109C12.4563 38.0853 12.4885 38.3506 12.5657 38.5806L13.2768 38.3421L13.9878 38.1035C13.9803 38.0811 13.9968 38.1164 13.9796 38.1834C13.9715 38.2151 13.9585 38.2424 13.9448 38.2633C13.9316 38.2832 13.9214 38.2918 13.9222 38.2911L13.4363 37.7197ZM13.2768 38.3421L12.5657 38.5806C12.6632 38.8711 12.8541 39.1172 13.1322 39.2765C13.3928 39.4257 13.6788 39.47 13.9374 39.4693L13.9355 38.7193L13.9335 37.9693C13.8377 37.9695 13.8367 37.9514 13.8777 37.9748C13.9005 37.9879 13.9268 38.0087 13.9499 38.0375C13.9726 38.0657 13.9835 38.0907 13.9878 38.1035L13.2768 38.3421ZM13.9355 38.7193L13.9374 39.4693C13.9934 39.4691 13.8828 39.4827 13.7732 39.3624C13.6706 39.2497 13.6957 39.157 13.6919 39.2392L14.4411 39.2744L15.1902 39.3095C15.2038 39.0207 15.1534 38.6501 14.8822 38.3523C14.6041 38.047 14.232 37.9685 13.9335 37.9693L13.9355 38.7193ZM14.4411 39.2744L13.6919 39.2392C13.6692 39.7233 13.7707 40.2596 14.1911 40.6391L14.6937 40.0825L15.1963 39.5258C15.2152 39.5429 15.2143 39.5542 15.207 39.5309C15.1979 39.5016 15.1844 39.4335 15.1902 39.3095L14.4411 39.2744ZM14.6937 40.0825L14.1911 40.6391C14.46 40.882 14.7754 41.0595 15.1237 41.179L15.3672 40.4696L15.6106 39.7602C15.4325 39.6991 15.2989 39.6185 15.1963 39.5258L14.6937 40.0825ZM15.3672 40.4696L15.1237 41.179C15.3695 41.2633 15.6069 41.3549 15.8359 41.4536L16.1326 40.7648L16.4294 40.076C16.1642 39.9617 15.8912 39.8565 15.6106 39.7602L15.3672 40.4696ZM16.1326 40.7648L15.8359 41.4536C16.0017 41.525 16.1316 41.6146 16.2352 41.7189L16.7675 41.1906L17.2998 40.6622C17.0511 40.4117 16.7578 40.2174 16.4294 40.076L16.1326 40.7648ZM16.7675 41.1906L16.2352 41.7189C16.4235 41.9087 16.6184 42.0919 16.8199 42.2685L17.3142 41.7045L17.8086 41.1405C17.6332 40.9867 17.4636 40.8273 17.2998 40.6622L16.7675 41.1906ZM17.3142 41.7045L16.8199 42.2685C16.8158 42.2649 16.8216 42.2666 16.8315 42.292C16.8431 42.3215 16.8594 42.3826 16.8626 42.4896L17.6123 42.4671L18.362 42.4446C18.3478 41.973 18.2049 41.4879 17.8086 41.1405L17.3142 41.7045ZM17.6123 42.4671L16.8626 42.4896C16.8785 43.0169 17.0943 43.559 17.6659 43.8302L17.9874 43.1526L18.3089 42.4751C18.315 42.4779 18.3278 42.4853 18.3423 42.4989C18.3569 42.5126 18.3665 42.5264 18.3718 42.5359C18.3811 42.553 18.3647 42.5342 18.362 42.4446L17.6123 42.4671ZM17.9874 43.1526L17.6659 43.8302C17.7826 43.8856 17.8609 43.9571 17.9194 44.0494L18.5529 43.6479L19.1863 43.2463C18.9705 42.9059 18.6718 42.6472 18.3089 42.4751L17.9874 43.1526ZM18.5529 43.6479L17.9194 44.0494C18.1292 44.3804 18.4146 44.6389 18.762 44.8193L19.1077 44.1537L19.4533 43.4882C19.3353 43.4269 19.2508 43.3481 19.1863 43.2463L18.5529 43.6479ZM19.1077 44.1537L18.762 44.8193C19.1049 44.9975 19.4969 45.0916 19.9074 45.0103L19.7616 44.2746L19.6158 43.5389C19.6136 43.5393 19.6042 43.5412 19.582 43.5371C19.5578 43.5326 19.5155 43.5204 19.4533 43.4882L19.1077 44.1537ZM19.7616 44.2746L19.9074 45.0103C20.0378 44.9844 20.3131 44.9187 20.5197 44.6937C20.6437 44.5588 20.7337 44.3755 20.745 44.1607C20.7555 43.9608 20.6946 43.7979 20.637 43.6897L19.975 44.0423L19.3131 44.3949C19.2859 44.344 19.2391 44.2337 19.2471 44.0819C19.2558 43.915 19.3268 43.775 19.4151 43.6789C19.4926 43.5946 19.5685 43.5589 19.5937 43.5481C19.6221 43.536 19.6334 43.5354 19.6158 43.5389L19.7616 44.2746ZM19.975 44.0423L20.637 43.6897C20.6584 43.73 20.6637 43.7546 20.662 43.7479C20.6608 43.7435 20.6568 43.7254 20.6524 43.6892C20.6435 43.6157 20.6375 43.5029 20.6392 43.3424L19.8893 43.3343L19.1393 43.3262C19.1372 43.5232 19.1436 43.7071 19.1633 43.8696C19.181 44.016 19.2168 44.2141 19.3131 44.3949L19.975 44.0423ZM19.8893 43.3343L20.6392 43.3424C20.6422 43.0644 20.5862 42.739 20.3729 42.4602C20.1487 42.1673 19.8334 42.0323 19.5328 41.9905L19.4295 42.7334L19.3262 43.4762C19.3345 43.4774 19.3163 43.4761 19.2842 43.4592C19.2494 43.441 19.212 43.4115 19.1816 43.3717C19.1215 43.2932 19.1402 43.2467 19.1393 43.3262L19.8893 43.3343ZM19.4295 42.7334L19.5328 41.9905C19.4576 41.9801 19.4274 41.9633 19.422 41.9601C19.4193 41.9584 19.4198 41.9584 19.4215 41.9601C19.4231 41.9617 19.4226 41.9618 19.4204 41.958L18.7703 42.332L18.1202 42.7059C18.3894 43.1739 18.8401 43.4086 19.3262 43.4762L19.4295 42.7334ZM18.7703 42.332L19.4204 41.958C19.2707 41.6976 19.1016 41.4535 18.9131 41.2264L18.3361 41.7055L17.759 42.1846C17.8913 42.3439 18.0117 42.5173 18.1202 42.7059L18.7703 42.332ZM18.3361 41.7055L18.9131 41.2264C18.6298 40.8853 18.2503 40.6818 17.8314 40.5859L17.664 41.317L17.4966 42.048C17.6529 42.0838 17.7215 42.1394 17.759 42.1846L18.3361 41.7055ZM17.664 41.317L17.8314 40.5859C17.8092 40.5808 17.7989 40.5761 17.797 40.5751C17.796 40.5746 17.7967 40.5749 17.7988 40.5763C17.8008 40.5776 17.8036 40.5797 17.8069 40.5826C17.8101 40.5855 17.8131 40.5886 17.8157 40.5917C17.8184 40.5948 17.8202 40.5974 17.8212 40.599C17.8234 40.6025 17.8209 40.5997 17.8167 40.5867L17.103 40.8173L16.3893 41.0478C16.5618 41.5817 16.9673 41.9268 17.4966 42.048L17.664 41.317ZM17.103 40.8173L17.8167 40.5867C17.7037 40.237 17.5344 39.9183 17.3008 39.6438L16.7297 40.1299L16.1586 40.6161C16.2501 40.7236 16.3297 40.8631 16.3893 41.0478L17.103 40.8173ZM16.7297 40.1299L17.3008 39.6438C17.2042 39.5303 17.1206 39.3868 17.0563 39.2029L16.3484 39.4505L15.6404 39.6982C15.7593 40.0381 15.93 40.3476 16.1586 40.6161L16.7297 40.1299ZM16.3484 39.4505L17.0563 39.2029C16.9648 38.9415 16.8034 38.7071 16.5641 38.5346C16.3312 38.3667 16.0671 38.2879 15.8121 38.2605L15.732 39.0062L15.652 39.7519C15.7162 39.7588 15.7145 39.7712 15.687 39.7514C15.6735 39.7417 15.6607 39.729 15.6509 39.7155C15.6415 39.7024 15.6393 39.6948 15.6404 39.6982L16.3484 39.4505ZM15.732 39.0062L15.8121 38.2605C15.7673 38.2557 15.7488 38.2501 15.7493 38.2503C15.7502 38.2506 15.7588 38.2533 15.7728 38.2601C15.7868 38.2669 15.8084 38.2789 15.8337 38.2981C15.8876 38.3389 15.9513 38.4073 15.993 38.5069C16.0342 38.6053 16.0373 38.6941 16.0308 38.752L15.2855 38.668L14.5402 38.5841C14.5009 38.9329 14.6351 39.2719 14.9282 39.4939C15.1637 39.6722 15.4425 39.7294 15.652 39.7519L15.732 39.0062ZM15.2855 38.668L16.0308 38.752C16.0273 38.7829 16.0132 38.8669 15.9499 38.9633C15.8792 39.0708 15.7737 39.1528 15.6547 39.1951C15.5483 39.233 15.4658 39.2271 15.4372 39.2237C15.4074 39.2201 15.4019 39.2151 15.4272 39.2247L15.6928 38.5233L15.9583 37.8218C15.7922 37.759 15.4808 37.665 15.1522 37.7818C14.722 37.9347 14.5704 38.3158 14.5402 38.5841L15.2855 38.668ZM15.6928 38.5233L15.4272 39.2247C15.7129 39.3328 16.0015 39.4172 16.2925 39.4767L16.4428 38.7419L16.593 38.0071C16.3841 37.9644 16.1726 37.903 15.9583 37.8218L15.6928 38.5233ZM16.4428 38.7419L16.2925 39.4767C16.625 39.5447 16.9607 39.5559 17.2959 39.5093L17.1928 38.7665L17.0896 38.0236C16.9248 38.0465 16.7605 38.0413 16.593 38.0071L16.4428 38.7419ZM17.1928 38.7665L17.2959 39.5093C17.6121 39.4654 17.9227 39.3796 18.2266 39.2553L17.9428 38.5611L17.6589 37.8669C17.4629 37.947 17.2734 37.9981 17.0896 38.0236L17.1928 38.7665ZM17.9428 38.5611L18.2266 39.2553C18.4286 39.1727 18.6253 39.1166 18.8173 39.0842L18.6928 38.3446L18.5682 37.6051C18.2602 37.6569 17.9569 37.7451 17.6589 37.8669L17.9428 38.5611ZM18.6928 38.3446L18.8173 39.0842C19.0661 39.0423 19.3149 39.0011 19.5637 38.9604L19.4428 38.2202L19.3218 37.48C19.0706 37.5211 18.8194 37.5628 18.5682 37.6051L18.6928 38.3446ZM19.4428 38.2202L19.5637 38.9604C19.56 38.961 19.5545 38.9613 19.5493 38.9607C19.5443 38.9602 19.5445 38.9594 19.551 38.9619C19.5655 38.9674 19.6106 38.9889 19.6836 39.0564L20.1928 38.5057L20.7019 37.955C20.3449 37.6249 19.8725 37.3901 19.3218 37.48L19.4428 38.2202ZM20.1928 38.5057L19.6836 39.0564C19.8968 39.2535 20.1963 39.4298 20.571 39.4282C20.945 39.4266 21.2428 39.2483 21.4545 39.0507L20.9428 38.5024L20.431 37.9541C20.3927 37.9899 20.4405 37.9287 20.5645 37.9282C20.6892 37.9277 20.7387 37.989 20.7019 37.955L20.1928 38.5057ZM20.9428 38.5024L21.4545 39.0507C21.5238 38.986 21.5598 38.9735 21.5594 38.9736C21.5582 38.974 21.5505 38.9763 21.5381 38.9769C21.5255 38.9774 21.5151 38.9759 21.509 38.9743L21.6928 38.2472L21.8765 37.5201C21.3011 37.3746 20.7995 37.6102 20.431 37.9541L20.9428 38.5024ZM21.6928 38.2472L21.509 38.9743C21.8252 39.0542 22.1455 39.0898 22.4681 39.0789L22.4428 38.3293L22.4174 37.5797C22.24 37.5857 22.0603 37.5665 21.8765 37.5201L21.6928 38.2472ZM22.4428 38.3293L22.4681 39.0789C22.6303 39.0734 22.7965 39.0954 22.9701 39.1494L23.1928 38.4332L23.4154 37.717C23.089 37.6155 22.7552 37.5683 22.4174 37.5797L22.4428 38.3293ZM23.1928 38.4332L22.9701 39.1494C23.3486 39.2671 23.738 39.2803 24.1232 39.1848L23.9428 38.4569L23.7623 37.7289C23.6475 37.7574 23.5369 37.7548 23.4154 37.717L23.1928 38.4332ZM23.9428 38.4569L24.1232 39.1848C24.2047 39.1646 24.2873 39.1675 24.3959 39.2143L24.6928 38.5255L24.9896 37.8368C24.5982 37.6681 24.1808 37.6251 23.7623 37.7289L23.9428 38.4569ZM24.6928 38.5255L24.3959 39.2143C24.8035 39.3899 25.2381 39.4197 25.6665 39.2858L25.4428 38.5699L25.2191 37.8541C25.1474 37.8765 25.082 37.8766 24.9896 37.8368L24.6928 38.5255ZM25.4428 38.5699L25.6665 39.2858C25.6869 39.2794 25.6971 39.28 25.7055 39.2813C25.7162 39.2829 25.7468 39.2897 25.7997 39.3223L26.1928 38.6835L26.5858 38.0447C26.176 37.7926 25.7025 37.703 25.2191 37.8541L25.4428 38.5699ZM26.1928 38.6835L25.7997 39.3223C26.0557 39.4798 26.3658 39.5634 26.7002 39.5034C27.0184 39.4463 27.2728 39.2745 27.4661 39.0862L26.9428 38.5489L26.4194 38.0117C26.3627 38.0669 26.3671 38.0392 26.4353 38.027C26.4703 38.0207 26.5071 38.0217 26.54 38.0288C26.5711 38.0356 26.5868 38.0453 26.5858 38.0447L26.1928 38.6835ZM26.9428 38.5489L27.4661 39.0862C27.5051 39.0482 27.4527 39.1168 27.3186 39.1166C27.1867 39.1164 27.1382 39.0497 27.1827 39.0922L27.701 38.5502L28.2194 38.0082C28.0084 37.8064 27.7058 37.6173 27.3211 37.6166C26.9341 37.6159 26.6304 37.8061 26.4194 38.0117L26.9428 38.5489ZM27.701 38.5502L27.1827 39.0922C27.5412 39.4352 28.0232 39.6877 28.5907 39.592L28.466 38.8525L28.3413 38.1129C28.3464 38.1121 28.3532 38.1118 28.3597 38.1125C28.3659 38.1132 28.3662 38.1142 28.3595 38.1116C28.3443 38.1055 28.2965 38.0819 28.2194 38.0082L27.701 38.5502ZM28.466 38.8525L28.5907 39.592C29.0958 39.5069 29.4832 39.1915 29.7706 38.8141L29.174 38.3597L28.5773 37.9053C28.4297 38.0991 28.345 38.1123 28.3413 38.1129L28.466 38.8525ZM29.174 38.3597L29.7706 38.8141C29.84 38.7231 29.8867 38.6885 29.9029 38.6786C29.9098 38.6743 29.9088 38.676 29.9002 38.6786C29.8911 38.6812 29.8796 38.683 29.8679 38.683L29.8714 37.933L29.8749 37.183C29.2995 37.1803 28.87 37.521 28.5773 37.9053L29.174 38.3597ZM29.8714 37.933L29.8679 38.683C30.0694 38.6839 30.2826 38.7034 30.5083 38.7432L30.6386 38.0046L30.769 37.266C30.4665 37.2127 30.1682 37.1844 29.8749 37.183L29.8714 37.933ZM30.6386 38.0046L30.5083 38.7432C30.7655 38.7886 31.0306 38.8391 31.3036 38.8946L31.4532 38.1597L31.6028 37.4248C31.3178 37.3668 31.0398 37.3138 30.769 37.266L30.6386 38.0046ZM31.4532 38.1597L31.3036 38.8946C31.8184 38.9995 32.3098 38.8636 32.6935 38.4977L32.176 37.9548L31.6584 37.412C31.6456 37.4243 31.6378 37.4292 31.6358 37.4304C31.634 37.4314 31.6353 37.4305 31.6386 37.4295C31.6419 37.4286 31.6426 37.429 31.6388 37.4291C31.6345 37.4291 31.623 37.4289 31.6028 37.4248L31.4532 38.1597ZM32.176 37.9548L32.6935 38.4977C32.8172 38.3797 32.9345 38.3166 33.0471 38.2852L32.8454 37.5628L32.6437 36.8404C32.2694 36.9449 31.9404 37.1432 31.6584 37.412L32.176 37.9548ZM32.8454 37.5628L33.0471 38.2852C33.3498 38.2007 33.6383 38.0803 33.9113 37.9245L33.5395 37.2731L33.1678 36.6217C33.0021 36.7163 32.8278 36.789 32.6437 36.8404L32.8454 37.5628ZM33.5395 37.2731L33.9113 37.9245C34.1563 37.7847 34.3924 37.6308 34.6195 37.4629L34.1737 36.8598L33.7279 36.2567C33.5481 36.3896 33.3614 36.5112 33.1678 36.6217L33.5395 37.2731ZM34.1737 36.8598L34.6195 37.4629C34.7362 37.3767 34.8702 37.3145 35.0299 37.2782L34.8638 36.5468L34.6978 35.8154C34.3442 35.8957 34.018 36.0422 33.7279 36.2567L34.1737 36.8598ZM34.8638 36.5468L35.0299 37.2782C35.3616 37.2029 35.6736 37.079 35.9617 36.9052L35.5743 36.263L35.1868 35.6208C35.041 35.7088 34.8794 35.7742 34.6978 35.8154L34.8638 36.5468ZM35.5743 36.263L35.9617 36.9052C36.1356 36.8003 36.3252 36.7096 36.5321 36.634L36.2745 35.9296L36.0168 35.2252C35.7241 35.3323 35.447 35.4639 35.1868 35.6208L35.5743 36.263ZM36.2745 35.9296L36.5321 36.634C37.0246 36.4538 37.3456 36.0746 37.5029 35.6053L36.7917 35.3671L36.0806 35.1288C36.0608 35.1879 36.0425 35.209 36.039 35.2128C36.0369 35.2151 36.0355 35.2162 36.0339 35.2172C36.0323 35.2183 36.0273 35.2214 36.0168 35.2252L36.2745 35.9296ZM36.7917 35.3671L37.5029 35.6053C37.5101 35.5837 37.516 35.5735 37.5176 35.571C37.5189 35.5689 37.5172 35.572 37.5119 35.5768C37.5066 35.5817 37.5021 35.5843 37.501 35.5848C37.5004 35.5851 37.5069 35.5817 37.524 35.5779L37.3598 34.8461L37.1955 34.1143C36.6468 34.2374 36.256 34.6051 36.0806 35.1288L36.7917 35.3671ZM37.3598 34.8461L37.524 35.5779C37.9568 35.4808 38.3396 35.2606 38.6164 34.8966L38.0193 34.4427L37.4222 33.9888C37.3869 34.0353 37.3301 34.0841 37.1955 34.1143L37.3598 34.8461ZM38.0193 34.4427L38.6164 34.8966C38.7462 34.7258 38.889 34.5685 39.0451 34.4241L38.5358 33.8735L38.0265 33.323C37.806 33.5269 37.6045 33.749 37.4222 33.9888L38.0193 34.4427ZM38.5358 33.8735L39.0451 34.4241C39.338 34.1531 39.5398 33.8171 39.6547 33.4362L38.9366 33.2197L38.2185 33.0031C38.1756 33.1456 38.1102 33.2456 38.0265 33.323L38.5358 33.8735ZM38.9366 33.2197L39.6547 33.4362C39.7439 33.1401 39.8122 32.8374 39.8595 32.5282L39.1181 32.4147L38.3768 32.3012C38.3399 32.5419 38.2871 32.7757 38.2185 33.0031L38.9366 33.2197ZM39.1181 32.4147L39.8595 32.5282C39.888 32.3423 39.9426 32.2039 40.0104 32.0979L39.3785 31.6939L38.7466 31.2899C38.5514 31.5952 38.4325 31.9373 38.3768 32.3012L39.1181 32.4147ZM39.3785 31.6939L40.0104 32.0979C40.0723 32.0011 40.1701 31.9003 40.3282 31.803L39.9352 31.1642L39.5421 30.5255C39.2209 30.7232 38.9476 30.9755 38.7466 31.2899L39.3785 31.6939ZM39.9352 31.1642L40.3282 31.803C40.7549 31.5404 41.0298 31.1313 41.0801 30.6178L40.3337 30.5447L39.5873 30.4715C39.5859 30.4854 39.5838 30.4921 39.5833 30.4936C39.5829 30.4948 39.5831 30.4941 39.5838 30.493C39.5864 30.4889 39.5802 30.502 39.5421 30.5255L39.9352 31.1642ZM40.3337 30.5447L41.0801 30.6178C41.0868 30.5495 41.1082 30.5012 41.1754 30.4429L40.684 29.8763L40.1926 29.3097C39.8448 29.6114 39.6326 30.0087 39.5873 30.4715L40.3337 30.5447ZM40.684 29.8763L41.1754 30.4429C41.509 30.1536 41.7285 29.7772 41.7925 29.3314L41.0501 29.2248L40.3077 29.1183C40.2987 29.1811 40.2741 29.239 40.1926 29.3097L40.684 29.8763ZM41.0501 29.2248L41.7925 29.3314C41.823 29.1188 41.8703 28.916 41.9338 28.7221L41.2212 28.4885L40.5085 28.2548C40.4169 28.5341 40.3502 28.8222 40.3077 29.1183L41.0501 29.2248ZM41.2212 28.4885L41.9338 28.7221C42.0263 28.4402 42.0913 28.1513 42.1291 27.8561L41.3851 27.761L40.6412 27.6659C40.6154 27.8675 40.5712 28.0636 40.5085 28.2548L41.2212 28.4885ZM41.3851 27.761L42.1291 27.8561C42.1702 27.5341 42.1637 27.2089 42.1124 26.883L41.3716 26.9996L40.6307 27.1163C40.661 27.3087 40.6635 27.4912 40.6412 27.6659L41.3851 27.761ZM41.3716 26.9996L42.1124 26.883C42.0922 26.7545 42.1068 26.6505 42.1474 26.5536L41.4556 26.2639L40.7638 25.9743C40.6107 26.3399 40.5693 26.7264 40.6307 27.1163L41.3716 26.9996ZM41.4556 26.2639L42.1474 26.5536C42.2235 26.3719 42.3259 26.1822 42.4581 25.9847L41.835 25.5674L41.2118 25.1501C41.0319 25.4187 40.8814 25.6934 40.7638 25.9743L41.4556 26.2639ZM41.835 25.5674L42.4581 25.9847C42.6861 25.6443 42.8188 25.2609 42.8223 24.8463L42.0724 24.8398L41.3224 24.8333C41.3216 24.9227 41.296 25.0244 41.2118 25.1501L41.835 25.5674ZM42.0724 24.8398L42.8223 24.8463C42.8244 24.6129 42.8351 24.3795 42.8545 24.1462L42.107 24.0841L41.3596 24.022C41.3372 24.2922 41.3247 24.5627 41.3224 24.8333L42.0724 24.8398ZM42.107 24.0841L42.8545 24.1462C42.895 23.6575 42.7133 23.2247 42.4215 22.871L41.8429 23.3482L41.2644 23.8254C41.3666 23.9493 41.3608 24.0071 41.3596 24.022L42.107 24.0841ZM41.8429 23.3482L42.4215 22.871C42.4101 22.8571 42.4119 22.8559 42.4172 22.8682C42.4231 22.8817 42.43 22.9043 42.4318 22.9329C42.4336 22.9615 42.4296 22.984 42.4259 22.9968C42.4226 23.0082 42.4214 23.0057 42.4318 22.989L41.7953 22.5923L41.1588 22.1957C41.0134 22.429 40.9149 22.7116 40.9348 23.0273C40.9547 23.3437 41.0885 23.6122 41.2644 23.8254L41.8429 23.3482ZM41.7953 22.5923L42.4318 22.989C42.575 22.7592 42.6777 22.4745 42.6529 22.1537C42.6279 21.8291 42.4797 21.5613 42.2915 21.3564L41.7391 21.8638L41.1868 22.3711C41.1952 22.3803 41.1891 22.376 41.1799 22.3566C41.1699 22.3357 41.1602 22.3053 41.1574 22.269C41.1514 22.191 41.1808 22.1603 41.1588 22.1957L41.7953 22.5923ZM41.7391 21.8638L42.2915 21.3564C42.1458 21.1978 42.0709 21.0622 42.0352 20.952L41.3218 21.1836L40.6085 21.4152C40.7239 21.7707 40.9273 22.0886 41.1868 22.3711L41.7391 21.8638ZM41.3218 21.1836L42.0352 20.952C41.9794 20.7801 41.9456 20.6022 41.9342 20.4166L41.1856 20.4625L40.437 20.5085C40.456 20.8185 40.5131 21.1213 40.6085 21.4152L41.3218 21.1836ZM41.1856 20.4625L41.9342 20.4166C41.9288 20.3288 41.9487 20.1768 42.0562 19.9428L41.3747 19.6296L40.6933 19.3163C40.5182 19.6973 40.412 20.1006 40.437 20.5085L41.1856 20.4625ZM41.3747 19.6296L42.0562 19.9428C42.2566 19.5068 42.3334 19.0053 42.122 18.517L41.4337 18.815L40.7454 19.113C40.7456 19.1133 40.7491 19.1185 40.7474 19.1412C40.7455 19.1685 40.7352 19.2252 40.6933 19.3163L41.3747 19.6296ZM41.4337 18.815L42.122 18.517C41.9323 18.079 41.5829 17.7742 41.1766 17.5712L40.8413 18.2421L40.5061 18.913C40.6856 19.0027 40.7311 19.0798 40.7454 19.113L41.4337 18.815ZM40.8413 18.2421L41.1766 17.5712C41.1147 17.5402 41.118 17.527 41.1355 17.553C41.1442 17.5658 41.1515 17.5814 41.156 17.5972C41.1602 17.6125 41.1597 17.6203 41.1598 17.6168L40.4099 17.6026L39.6601 17.5884C39.6547 17.8683 39.7261 18.1459 39.8921 18.3919C40.0534 18.631 40.275 18.7975 40.5061 18.913L40.8413 18.2421ZM40.4099 17.6026L41.1598 17.6168C41.1661 17.2859 41.1386 16.9613 41.076 16.6441L40.3402 16.7895L39.6044 16.9348C39.6453 17.142 39.6644 17.3595 39.6601 17.5884L40.4099 17.6026ZM40.3402 16.7895L41.076 16.6441C40.9831 16.174 40.7162 15.7966 40.3208 15.5396L39.9121 16.1684L39.5034 16.7973C39.5752 16.844 39.5937 16.8806 39.6044 16.9348L40.3402 16.7895ZM39.9121 16.1684L40.3208 15.5396C40.1524 15.4301 40.0277 15.3124 39.9358 15.1902L39.3363 15.6409L38.7369 16.0916C38.9455 16.3691 39.2046 16.6031 39.5034 16.7973L39.9121 16.1684ZM39.3363 15.6409L39.9358 15.1902C39.7152 14.8968 39.4369 14.6656 39.1076 14.5035L38.7763 15.1764L38.4451 15.8493C38.562 15.9069 38.657 15.9853 38.7369 16.0916L39.3363 15.6409ZM38.7763 15.1764L39.1076 14.5035C39.0725 14.4863 39.0606 14.478 39.0636 14.4801C39.0658 14.4815 39.076 14.4887 39.0909 14.502C39.1053 14.5149 39.1306 14.5394 39.1584 14.5764C39.2117 14.6476 39.3087 14.8154 39.281 15.0498C39.2531 15.285 39.1187 15.4261 39.0486 15.4837L38.5725 14.9043L38.0963 14.3248C37.9826 14.4182 37.8241 14.5976 37.7914 14.8733C37.7588 15.1483 37.8705 15.3591 37.9578 15.4756C38.1073 15.6754 38.3252 15.7903 38.4451 15.8493L38.7763 15.1764ZM38.5725 14.9043L39.0486 15.4837C39.0458 15.486 39.0215 15.5063 38.9817 15.5298C38.9616 15.5417 38.9234 15.5629 38.8712 15.5823C38.8254 15.5994 38.7235 15.6324 38.5889 15.6273C38.436 15.6216 38.2345 15.5638 38.0737 15.3917C37.9273 15.2349 37.8893 15.0621 37.8788 14.9706C37.8603 14.8094 37.9026 14.6885 37.905 14.6809C37.9215 14.6284 37.9375 14.604 37.9208 14.6353C37.9103 14.655 37.8916 14.6877 37.862 14.7364L38.5026 15.1264L39.1432 15.5165C39.1983 15.4259 39.2916 15.2718 39.3358 15.1312C39.344 15.1051 39.3886 14.9702 39.3691 14.7996C39.358 14.7035 39.3186 14.5271 39.17 14.3679C39.007 14.1933 38.8023 14.1343 38.6454 14.1284C38.4062 14.1194 38.2354 14.2285 38.2183 14.2386C38.1637 14.2709 38.1209 14.3046 38.0963 14.3248L38.5725 14.9043ZM19.875 10.5564L19.7635 11.2981C20.1458 11.3556 20.5237 11.3112 20.8859 11.1769L20.625 10.4737L20.3642 9.77053C20.2263 9.82167 20.1043 9.83246 19.9866 9.81476L19.875 10.5564ZM20.625 10.4737L20.8859 11.1769C20.9376 11.1577 20.9771 11.1547 21.052 11.1904L21.375 10.5136L21.6981 9.8367C21.273 9.63383 20.8125 9.60423 20.3642 9.77053L20.625 10.4737ZM21.375 10.5136L21.052 11.1904C21.296 11.3069 21.5685 11.3594 21.853 11.32C22.1317 11.2813 22.3739 11.1613 22.5767 11.0083L22.125 10.4096L21.6733 9.8109C21.6497 9.82871 21.6357 9.8356 21.6318 9.83738C21.6284 9.8389 21.6339 9.83599 21.6471 9.83417C21.6607 9.83227 21.6752 9.83258 21.6878 9.83471C21.6998 9.83675 21.7036 9.83934 21.6981 9.8367L21.375 10.5136ZM22.125 10.4096L22.5767 11.0083C22.5929 10.9962 22.5951 10.9975 22.5831 11.0021C22.5697 11.0073 22.5457 11.0139 22.5144 11.0145C22.4829 11.0151 22.4571 11.0094 22.4407 11.0037C22.4256 10.9984 22.4249 10.9954 22.4383 11.005L22.875 10.3953L23.3118 9.78558C23.0862 9.62402 22.8064 9.5086 22.4857 9.51472C22.1666 9.52081 21.8924 9.64566 21.6733 9.8109L22.125 10.4096ZM22.875 10.3953L22.4383 11.005C22.7397 11.2209 23.0566 11.3899 23.3891 11.5001L23.625 10.7882L23.861 10.0763C23.6935 10.0208 23.5104 9.92785 23.3118 9.78558L22.875 10.3953ZM23.625 10.7882L23.3891 11.5001C23.7417 11.617 24.1058 11.655 24.4732 11.6065L24.375 10.863L24.2769 10.1194C24.1443 10.1369 24.0084 10.1251 23.861 10.0763L23.625 10.7882ZM24.375 10.863L24.4732 11.6065C24.8522 11.5565 25.2067 11.4112 25.5334 11.1991L25.125 10.5701L24.7167 9.941C24.5434 10.0535 24.3979 10.1035 24.2769 10.1194L24.375 10.863ZM25.125 10.5701L25.5334 11.1991C25.7377 11.0665 25.9318 10.9722 26.1158 10.9099L25.875 10.1995L25.6343 9.48923C25.3182 9.59635 25.0123 9.74906 24.7167 9.941L25.125 10.5701ZM25.875 10.1995L26.1158 10.9099C26.1891 10.885 26.2518 10.8847 26.3385 10.9206L26.625 10.2275L26.9116 9.5344C26.4983 9.36352 26.061 9.34462 25.6343 9.48923L25.875 10.1995ZM26.625 10.2275L26.3385 10.9206C26.5451 11.006 26.7568 11.1163 26.9737 11.2537L27.375 10.62L27.7763 9.98643C27.4932 9.80713 27.205 9.65571 26.9116 9.5344L26.625 10.2275ZM27.375 10.62L26.9737 11.2537C27.2035 11.3991 27.477 11.4929 27.7805 11.4806C28.0816 11.4683 28.3446 11.3545 28.5611 11.1997L28.125 10.5895L27.6889 9.97936C27.6716 9.99178 27.666 9.99279 27.6725 9.99032C27.68 9.9875 27.6965 9.98273 27.7196 9.98179C27.7428 9.98084 27.7625 9.98422 27.7756 9.98811C27.7878 9.9917 27.7881 9.99387 27.7763 9.98643L27.375 10.62ZM28.125 10.5895L28.5611 11.1997C28.738 11.0733 28.8837 11.0172 29.0004 10.9974L28.875 10.2579L28.7497 9.51849C28.3664 9.58348 28.0121 9.7484 27.6889 9.97936L28.125 10.5895ZM28.875 10.2579L29.0004 10.9974C29.0452 10.9898 29.1142 10.9896 29.2351 11.0633L29.625 10.4226L30.015 9.78193C29.6359 9.55123 29.2048 9.44131 28.7497 9.51849L28.875 10.2579ZM29.625 10.4226L29.2351 11.0633C29.632 11.3048 30.0874 11.4025 30.5597 11.2825L30.375 10.5556L30.1904 9.82866C30.1627 9.83569 30.1181 9.84471 30.015 9.78193L29.625 10.4226ZM30.375 10.5556L30.5597 11.2825C30.8404 11.2112 31.1195 11.1214 31.3968 11.0135L31.125 10.3145L30.8533 9.61548C30.6306 9.70206 30.4097 9.77296 30.1904 9.82866L30.375 10.5556ZM31.125 10.3145L31.3968 11.0135C31.4394 10.997 31.4625 10.9904 31.4696 10.9887C31.4811 10.9858 31.4494 10.9955 31.3902 10.9939C31.3358 10.9925 31.1839 10.9795 31.0294 10.8612C30.8522 10.7255 30.7831 10.5386 30.7692 10.3991L31.5156 10.3249L32.2619 10.2507C32.2429 10.0592 32.1536 9.8328 31.9413 9.67021C31.7517 9.52502 31.5496 9.49766 31.4302 9.49448C31.2067 9.48853 30.9936 9.56093 30.8533 9.61548L31.125 10.3145ZM31.5156 10.3249L30.7692 10.3991C30.7617 10.323 30.7716 10.2657 30.7788 10.2359C30.786 10.206 30.7935 10.1914 30.7919 10.1947C30.7907 10.1972 30.7846 10.2094 30.7698 10.2323C30.7553 10.2547 30.7349 10.2838 30.7069 10.3198L31.2993 10.7797L31.8918 11.2396C31.9875 11.1163 32.0789 10.9812 32.1466 10.8388C32.2093 10.707 32.2864 10.4975 32.2619 10.2507L31.5156 10.3249ZM31.2993 10.7797L30.7069 10.3198C30.5604 10.5085 30.4096 10.6926 30.2543 10.8721L30.8217 11.3627L31.389 11.8532C31.5616 11.6536 31.7292 11.449 31.8918 11.2396L31.2993 10.7797ZM30.8217 11.3627L30.2543 10.8721C30.1252 11.0215 29.9812 11.1562 29.8216 11.2767L30.2735 11.8752L30.7255 12.4738C30.9688 12.2901 31.1902 12.0831 31.389 11.8532L30.8217 11.3627ZM30.2735 11.8752L29.8216 11.2767C29.6243 11.4256 29.4251 11.5728 29.2241 11.7181L29.6636 12.3259L30.103 12.9337C30.3124 12.7823 30.5199 12.629 30.7255 12.4738L30.2735 11.8752ZM29.6636 12.3259L29.2241 11.7181C28.7508 12.0604 28.606 12.5933 28.6088 13.086L29.3588 13.0818L30.1088 13.0776C30.1082 12.9687 30.1241 12.9189 30.1291 12.9066C30.1311 12.9017 30.1303 12.9051 30.1244 12.9128C30.1183 12.9208 30.1105 12.9283 30.103 12.9337L29.6636 12.3259ZM29.3588 13.0818L28.6088 13.086C28.6091 13.1343 28.6052 13.1661 28.6016 13.1846C28.5981 13.2027 28.5955 13.205 28.5994 13.1971C28.6037 13.1883 28.613 13.1732 28.6287 13.1571C28.6446 13.141 28.66 13.131 28.6699 13.126L29.0105 13.7942L29.3511 14.4623C29.927 14.1688 30.1117 13.6004 30.1088 13.0776L29.3588 13.0818ZM29.0105 13.7942L28.6699 13.126C28.5 13.2126 28.2998 13.2839 28.0643 13.3351L28.2236 14.0679L28.383 14.8008C28.7283 14.7257 29.0526 14.6145 29.3511 14.4623L29.0105 13.7942ZM28.2236 14.0679L28.0643 13.3351C27.6037 13.4352 27.1991 13.6849 26.9453 14.1148L27.5911 14.4961L28.237 14.8774C28.2456 14.8627 28.2627 14.827 28.383 14.8008L28.2236 14.0679ZM27.5911 14.4961L26.9453 14.1148C26.8542 14.269 26.7457 14.3986 26.6195 14.5076L27.1096 15.0753L27.5998 15.643C27.853 15.4243 28.0655 15.1678 28.237 14.8774L27.5911 14.4961ZM27.1096 15.0753L26.6195 14.5076C26.4645 14.6414 26.2984 14.8313 26.214 15.0883C26.1218 15.3696 26.153 15.6541 26.2731 15.9L26.9471 15.571L27.621 15.242C27.637 15.2747 27.6539 15.3235 27.659 15.3851C27.6641 15.4477 27.6555 15.5064 27.6393 15.5558C27.6092 15.6476 27.5651 15.6729 27.5998 15.643L27.1096 15.0753ZM26.9471 15.571L26.2731 15.9C26.3481 16.0537 26.4189 16.2099 26.4854 16.3686L27.1771 16.0787L27.8688 15.7889C27.7913 15.6039 27.7087 15.4216 27.621 15.242L26.9471 15.571ZM27.1771 16.0787L26.4854 16.3686C26.6078 16.6607 26.8473 16.8795 27.1625 16.9668C27.4337 17.0419 27.6974 17.0025 27.8974 16.9489L27.7034 16.2244L27.5094 15.5C27.4305 15.5211 27.4671 15.4947 27.5628 15.5212C27.6186 15.5367 27.6863 15.5683 27.7493 15.6244C27.8119 15.6802 27.8489 15.7414 27.8688 15.7889L27.1771 16.0787ZM27.7034 16.2244L27.8974 16.9489C28.261 16.8515 28.5952 16.6941 28.8837 16.465L28.4173 15.8777L27.9509 15.2903C27.8453 15.3742 27.7035 15.448 27.5094 15.5L27.7034 16.2244ZM28.4173 15.8777L28.8837 16.465C29.1279 16.2711 29.346 16.0504 29.5372 15.8038L28.9445 15.3442L28.3518 14.8847C28.2342 15.0364 28.1008 15.1713 27.9509 15.2903L28.4173 15.8777ZM28.9445 15.3442L29.5372 15.8038C29.6904 15.6063 29.8442 15.4095 29.9988 15.2135L29.4099 14.749L28.8211 14.2846C28.6639 14.4838 28.5074 14.6839 28.3518 14.8847L28.9445 15.3442ZM29.4099 14.749L29.9988 15.2135C30.0881 15.1003 30.1999 15.0059 30.3426 14.9298L29.9896 14.268L29.6367 13.6063C29.3182 13.7762 29.0436 14.0024 28.8211 14.2846L29.4099 14.749ZM29.9896 14.268L30.3426 14.9298C30.7466 14.7143 31.0284 14.3728 31.1817 13.9497L30.4765 13.6943L29.7713 13.4388C29.7366 13.5348 29.6938 13.5758 29.6367 13.6063L29.9896 14.268ZM30.4765 13.6943L31.1817 13.9497C31.2566 13.7427 31.348 13.5623 31.4533 13.4053L30.8304 12.9875L30.2076 12.5697C30.029 12.8359 29.8844 13.1267 29.7713 13.4388L30.4765 13.6943ZM30.8304 12.9875L31.4533 13.4053C31.5913 13.1996 31.7318 12.9963 31.8748 12.7957L31.264 12.3604L30.6532 11.9252C30.502 12.1374 30.3534 12.3523 30.2076 12.5697L30.8304 12.9875ZM31.264 12.3604L31.8748 12.7957C31.9745 12.6557 32.0928 12.5368 32.2317 12.4364L31.7926 11.8284L31.3535 11.2204C31.0819 11.4165 30.8477 11.6523 30.6532 11.9252L31.264 12.3604ZM31.7926 11.8284L32.2317 12.4364C32.5186 12.2293 32.756 11.9718 32.9415 11.6696L32.3022 11.2773L31.663 10.8851C31.5795 11.0211 31.4773 11.131 31.3535 11.2204L31.7926 11.8284ZM32.3022 11.2773L32.9415 11.6696C33.0581 11.4795 33.185 11.3016 33.3221 11.1355L32.7437 10.6581L32.1652 10.1807C31.9826 10.402 31.8152 10.6369 31.663 10.8851L32.3022 11.2773ZM32.7437 10.6581L33.3221 11.1355C33.417 11.0205 33.5345 10.9237 33.6821 10.845L33.3294 10.1832L32.9766 9.52131C32.663 9.68846 32.39 9.9083 32.1652 10.1807L32.7437 10.6581ZM33.3294 10.1832L33.6821 10.845C33.851 10.755 34.0669 10.6091 34.209 10.37C34.3779 10.0859 34.389 9.76073 34.2677 9.47418L33.577 9.7665L32.8863 10.0588C32.8643 10.0068 32.8443 9.92988 32.8497 9.83632C32.8551 9.74161 32.8849 9.6619 32.9195 9.60364C32.9791 9.50346 33.0384 9.48841 32.9766 9.52131L33.3294 10.1832ZM33.577 9.7665L34.2677 9.47418C34.1447 9.18353 33.9364 8.9365 33.7075 8.72734L33.2016 9.28099L32.6957 9.83464C32.8363 9.96311 32.8783 10.0398 32.8863 10.0588L33.577 9.7665ZM33.2016 9.28099L33.7075 8.72734C33.6013 8.63027 33.5108 8.50804 33.4384 8.35083L32.7572 8.66472L32.076 8.9786C32.2267 9.30546 32.4324 9.59408 32.6957 9.83464L33.2016 9.28099ZM32.7572 8.66472L33.4384 8.35083C33.3005 8.05166 33.1287 7.7771 32.9213 7.53074L32.3475 8.01371L31.7737 8.49669C31.8895 8.63426 31.9908 8.79371 32.076 8.9786L32.7572 8.66472ZM32.3475 8.01371L32.9213 7.53074C32.6334 7.1887 32.248 6.98934 31.8254 6.89885L31.6684 7.63222L31.5113 8.36559C31.6712 8.39982 31.7385 8.45478 31.7737 8.49669L32.3475 8.01371ZM31.6684 7.63222L31.8254 6.89885C31.7699 6.88697 31.7556 6.87359 31.7595 6.87663C31.7609 6.87769 31.7626 6.87944 31.7636 6.88072C31.7644 6.8818 31.762 6.879 31.7578 6.86944L31.0704 7.16951L30.3831 7.46958C30.5988 7.96368 31.0138 8.25904 31.5113 8.36559L31.6684 7.63222ZM31.0704 7.16951L31.7578 6.86944C31.5951 6.49681 31.3417 6.18699 30.9994 5.963L30.5887 6.59056L30.178 7.21812C30.2632 7.27382 30.3309 7.34997 30.3831 7.46958L31.0704 7.16951ZM30.5887 6.59056L30.9994 5.963C30.8582 5.87061 30.7404 5.75973 30.6423 5.62836L30.0414 6.07721L29.4405 6.52606C29.6448 6.79945 29.8918 7.03081 30.178 7.21812L30.5887 6.59056ZM30.0414 6.07721L30.6423 5.62836C30.4617 5.38662 30.2594 5.16511 30.0358 4.96455L29.5351 5.52291L29.0343 6.08127C29.1835 6.21503 29.3188 6.36305 29.4405 6.52606L30.0414 6.07721ZM29.5351 5.52291L30.0358 4.96455C29.8991 4.84198 29.7786 4.70157 29.674 4.54134L29.046 4.95129L28.418 5.36125C28.5926 5.62886 28.7982 5.86952 29.0343 6.08127L29.5351 5.52291ZM29.046 4.95129L29.674 4.54134C29.5145 4.29691 29.3389 4.06674 29.1473 3.85129L28.5869 4.34972L28.0265 4.84815C28.1677 5.00695 28.2982 5.17783 28.418 5.36125L29.046 4.95129ZM28.5869 4.34972L29.1473 3.85129C28.8624 3.53089 28.4922 3.33493 28.084 3.23721L27.9094 3.9666L27.7348 4.69599C27.8971 4.73485 27.9786 4.7943 28.0265 4.84815L28.5869 4.34972ZM27.9094 3.9666L28.084 3.23721C27.7971 3.16854 27.5738 3.1178 27.4207 3.08725L27.2739 3.82275L27.1272 4.55826C27.2508 4.58293 27.4512 4.6281 27.7348 4.69599L27.9094 3.9666ZM27.2739 3.82275L27.4207 3.08725C26.7688 2.95719 26.38 3.46768 26.2278 3.72174L26.8713 4.10705L27.5147 4.49236C27.5522 4.42987 27.5538 4.44924 27.5021 4.48578C27.472 4.50703 27.4212 4.53576 27.3503 4.55322C27.2769 4.57129 27.1999 4.57277 27.1272 4.55826L27.2739 3.82275ZM26.8713 4.10705L26.2278 3.72174C26.1028 3.93059 25.9792 4.26255 26.1055 4.63452C26.2277 4.99414 26.5151 5.18451 26.7242 5.28119L27.0389 4.6004L27.3536 3.91962C27.321 3.90454 27.4595 3.9568 27.5258 4.15197C27.5587 4.24873 27.5575 4.33818 27.5448 4.40309C27.5389 4.43351 27.5311 4.45617 27.5253 4.4703C27.5195 4.48437 27.5151 4.49178 27.5147 4.49236L26.8713 4.10705ZM27.0389 4.6004L26.7242 5.28119C26.9382 5.3801 27.1396 5.48907 27.3288 5.60781L27.7274 4.9725L28.126 4.33719C27.8808 4.18333 27.6232 4.04423 27.3536 3.91962L27.0389 4.6004ZM27.7274 4.9725L27.3288 5.60781C27.3392 5.61432 27.3448 5.61979 27.3517 5.63103C27.3603 5.64512 27.3784 5.68149 27.3911 5.75605L28.1305 5.63015L28.8698 5.50425C28.7902 5.03637 28.5595 4.60913 28.126 4.33719L27.7274 4.9725ZM28.1305 5.63015L27.3911 5.75605C27.4764 6.25717 27.7499 6.69682 28.2488 6.93166L28.5682 6.25307L28.8876 5.57449C28.8815 5.57161 28.8816 5.57084 28.8848 5.5735C28.8881 5.57628 28.8908 5.57943 28.8921 5.58126C28.8952 5.58557 28.8807 5.56792 28.8698 5.50425L28.1305 5.63015ZM28.5682 6.25307L28.2488 6.93166C28.3382 6.97374 28.3929 7.02799 28.4348 7.11177L29.1056 6.77636L29.7764 6.44096C29.5826 6.05331 29.279 5.7587 28.8876 5.57449L28.5682 6.25307ZM29.1056 6.77636L28.4348 7.11177C28.6754 7.59301 29.1061 7.86018 29.5969 7.94943L29.7311 7.21153L29.8653 6.47363C29.8009 6.46192 29.7791 6.44659 29.7787 6.44628C29.7782 6.44591 29.7793 6.4467 29.7804 6.44808C29.7815 6.44935 29.7799 6.44784 29.7764 6.44096L29.1056 6.77636ZM29.7311 7.21153L29.5969 7.94943C29.667 7.96217 29.6983 7.97951 29.708 7.98584C29.7149 7.99033 29.719 7.99386 29.7254 8.00494L30.3743 7.62889L31.0233 7.25285C30.7636 6.80475 30.3388 6.55974 29.8653 6.47363L29.7311 7.21153ZM30.3743 7.62889L29.7254 8.00494C29.8013 8.13586 29.8648 8.30966 29.902 8.54072L30.6425 8.42147L31.3829 8.30223C31.3221 7.9242 31.2068 7.56962 31.0233 7.25285L30.3743 7.62889ZM30.6425 8.42147L29.902 8.54072C29.9426 8.79285 30.0364 9.04751 30.214 9.26762C30.3946 9.49137 30.6291 9.63869 30.8841 9.72166L31.1162 9.00846L31.3482 8.29525C31.34 8.29257 31.3428 8.29245 31.3519 8.29848C31.3615 8.30485 31.3722 8.31426 31.3813 8.32562C31.3903 8.33668 31.3932 8.34398 31.3927 8.34274C31.3919 8.34088 31.3872 8.32871 31.3829 8.30223L30.6425 8.42147ZM31.1162 9.00846L30.8841 9.72166C31.0098 9.76254 31.1065 9.79668 31.1775 9.82427C31.2553 9.85452 31.2783 9.86777 31.271 9.86353L31.6478 9.21508L32.0247 8.56664C31.858 8.46976 31.6066 8.37932 31.3482 8.29525L31.1162 9.00846ZM31.6478 9.21508L31.271 9.86353C31.1571 9.79737 30.9466 9.61645 30.9327 9.29498C30.9215 9.03823 31.051 8.87912 31.0715 8.85399C31.1222 8.79179 31.1428 8.79688 31.0221 8.86837L31.4044 9.51366L31.7866 10.1589C31.9159 10.0824 32.1021 9.96364 32.234 9.80191C32.2951 9.72702 32.444 9.52422 32.4312 9.22984C32.4156 8.87075 32.1824 8.65828 32.0247 8.56664L31.6478 9.21508ZM31.4044 9.51366L31.0221 8.86837C30.9998 8.88162 30.9842 8.88804 30.9753 8.89108C30.9708 8.8926 30.9677 8.89336 30.966 8.89373C30.9643 8.8941 30.9635 8.89417 30.9635 8.89417C30.9635 8.89417 30.9637 8.89416 30.964 8.89417C30.9642 8.89418 30.964 8.89419 30.9631 8.89405C30.9617 8.8938 30.955 8.89257 30.9424 8.88733L30.6544 9.57983L30.3664 10.2723C30.8527 10.4746 31.3504 10.4173 31.7866 10.1589L31.4044 9.51366ZM30.6544 9.57983L30.9424 8.88733C30.707 8.78943 30.471 8.68255 30.2344 8.56661L29.9044 9.24008L29.5743 9.91355C29.8377 10.0427 30.1018 10.1623 30.3664 10.2723L30.6544 9.57983ZM29.9044 9.24008L30.2344 8.56661C29.9889 8.44627 29.7128 8.39123 29.4238 8.4323C29.1413 8.47246 28.8975 8.59703 28.6952 8.75369L29.1544 9.34669L29.6136 9.93968C29.6373 9.92129 29.6511 9.91444 29.6543 9.91295C29.6569 9.91174 29.65 9.91523 29.6349 9.91738C29.6193 9.9196 29.6028 9.91925 29.5883 9.91673C29.5745 9.91432 29.5694 9.91115 29.5743 9.91355L29.9044 9.24008ZM29.1544 9.34669L28.6952 8.75369C28.6288 8.80507 28.5864 8.82193 28.5681 8.82729C28.5537 8.83153 28.5483 8.83077 28.5424 8.82966L28.4044 9.56685L28.2663 10.304C28.7764 10.3996 29.2386 10.23 29.6136 9.93968L29.1544 9.34669ZM28.4044 9.56685L28.5424 8.82966C28.3056 8.78532 28.0686 8.73436 27.8313 8.67676L27.6544 9.40559L27.4774 10.1344C27.7402 10.1982 28.0031 10.2548 28.2663 10.304L28.4044 9.56685ZM27.6544 9.40559L27.8313 8.67676C27.5236 8.60206 27.2127 8.56494 26.8998 8.56687L26.9044 9.31685L26.909 10.0668C27.0961 10.0657 27.2851 10.0877 27.4774 10.1344L27.6544 9.40559ZM26.9044 9.31685L26.8998 8.56687C26.6672 8.5683 26.4346 8.56163 26.2019 8.54684L26.1544 9.29533L26.1068 10.0438C26.3741 10.0608 26.6416 10.0685 26.909 10.0668L26.9044 9.31685ZM26.1544 9.29533L26.2019 8.54684C25.9454 8.53053 25.6887 8.51763 25.4321 8.50813L25.4044 9.25762L25.3766 10.0071C25.62 10.0161 25.8634 10.0284 26.1068 10.0438L26.1544 9.29533ZM25.4044 9.25762L25.4321 8.50813C25.2271 8.50055 25.0209 8.47455 24.813 8.42955L24.6544 9.16258L24.4957 9.89561C24.7878 9.95883 25.0816 9.99619 25.3766 10.0071L25.4044 9.25762ZM24.6544 9.16258L24.813 8.42955C24.494 8.3605 24.1717 8.33739 23.8483 8.36165L23.9044 9.10955L23.9605 9.85745C24.1371 9.8442 24.3148 9.85645 24.4957 9.89561L24.6544 9.16258ZM23.9044 9.10955L23.8483 8.36165C23.4527 8.39132 23.0844 8.53213 22.7489 8.74772L23.1544 9.37867L23.5599 10.0096C23.7244 9.90389 23.856 9.86528 23.9605 9.85745L23.9044 9.10955ZM23.1544 9.37867L22.7489 8.74772C22.7309 8.75932 22.7223 8.7621 22.7233 8.76178C22.7237 8.76162 22.7262 8.76083 22.7304 8.76C22.7347 8.75918 22.74 8.75847 22.7462 8.75819C22.7524 8.75792 22.7585 8.75812 22.7642 8.75872C22.7699 8.75932 22.7743 8.76022 22.7772 8.76095C22.7831 8.76248 22.7802 8.76267 22.7679 8.75584L22.4044 9.41185L22.0408 10.0679C22.2693 10.1945 22.5304 10.2692 22.8125 10.2567C23.0928 10.2443 23.3444 10.1481 23.5599 10.0096L23.1544 9.37867ZM22.4044 9.41185L22.7679 8.75584C22.5206 8.61882 22.2333 8.54853 21.9265 8.59098C21.6284 8.63225 21.3771 8.77092 21.175 8.93883L21.6544 9.51566L22.1337 10.0925C22.1817 10.0527 22.1804 10.0701 22.1322 10.0768C22.1087 10.0801 22.0848 10.079 22.0642 10.0747C22.0447 10.0706 22.0365 10.0655 22.0408 10.0679L22.4044 9.41185ZM21.6544 9.51566L21.175 8.93883C21.1113 8.99183 21.0782 9.00161 21.0767 9.00203C21.0763 9.00213 21.0805 9.00101 21.0877 9.00097C21.0909 9.00095 21.0939 9.00117 21.0962 9.00148C21.0986 9.00179 21.0997 9.00211 21.0995 9.00205L20.9044 9.72622L20.7092 10.4504C21.2548 10.5974 21.7498 10.4115 22.1337 10.0925L21.6544 9.51566ZM20.9044 9.72622L21.0995 9.00205C20.8032 8.9222 20.5041 8.87194 20.203 8.85239L20.1544 9.60081L20.1058 10.3492C20.3046 10.3621 20.5056 10.3955 20.7092 10.4504L20.9044 9.72622ZM20.1544 9.60081L20.203 8.85239C20.0184 8.84041 19.8287 8.8041 19.6327 8.74059L19.4016 9.45409L19.1704 10.1676C19.4781 10.2673 19.7903 10.3288 20.1058 10.3492L20.1544 9.60081ZM19.4016 9.45409L19.6327 8.74059C19.2345 8.61162 18.824 8.60813 18.424 8.73637L18.653 9.45056L18.882 10.1648C18.9763 10.1345 19.0648 10.1334 19.1704 10.1676L19.4016 9.45409ZM18.653 9.45056L18.424 8.73637C18.1917 8.81086 17.9619 8.87658 17.7344 8.93365L17.917 9.6611L18.0996 10.3885C18.3592 10.3234 18.62 10.2487 18.882 10.1648L18.653 9.45056ZM17.917 9.6611L17.7344 8.93365C17.4566 9.00337 17.1844 9.09248 16.918 9.2008L17.2004 9.89558L17.4829 10.5904C17.6848 10.5083 17.8903 10.4411 18.0996 10.3885L17.917 9.6611ZM17.2004 9.89558L16.918 9.2008C16.735 9.2752 16.5514 9.32652 16.3666 9.35614L16.4853 10.0967L16.6039 10.8372C16.9043 10.7891 17.1976 10.7064 17.4829 10.5904L17.2004 9.89558ZM16.4853 10.0967L16.3666 9.35614C16.039 9.40864 15.7271 9.51556 15.4338 9.67407L15.7904 10.3339L16.1469 10.9937C16.295 10.9137 16.4464 10.8625 16.6039 10.8372L16.4853 10.0967ZM15.7904 10.3339L15.4338 9.67407C15.4377 9.67193 15.4437 9.66955 15.45 9.66811C15.4561 9.66671 15.4576 9.66734 15.4521 9.66716C15.4397 9.66674 15.3933 9.66192 15.3055 9.62272L14.9997 10.3076L14.694 10.9924C15.1356 11.1896 15.6568 11.2586 16.1469 10.9937L15.7904 10.3339ZM14.9997 10.3076L15.3055 9.62272C14.8856 9.43529 14.4175 9.35492 13.9506 9.50095L14.1745 10.2168L14.3984 10.9326C14.419 10.9261 14.501 10.9063 14.694 10.9924L14.9997 10.3076ZM14.1745 10.2168L13.9506 9.50095C13.6307 9.60101 13.3325 9.74958 13.0581 9.9444L13.4922 10.556L13.9264 11.1675C14.0743 11.0625 14.2309 10.985 14.3984 10.9326L14.1745 10.2168ZM13.4922 10.556L13.0581 9.9444C12.8002 10.1275 12.5638 10.3394 12.349 10.5786L12.9069 11.0798L13.4648 11.581C13.6081 11.4215 13.762 11.2842 13.9264 11.1675L13.4922 10.556ZM12.9069 11.0798L12.349 10.5786C12.2 10.7443 12.0468 10.8849 11.8898 11.0027L12.3399 11.6026L12.79 12.2026C13.0308 12.0219 13.2556 11.8139 13.4648 11.581L12.9069 11.0798ZM12.3399 11.6026L11.8898 11.0027C11.7534 11.105 11.6018 11.1863 11.4317 11.2463L11.6811 11.9536L11.9306 12.6609C12.241 12.5514 12.5285 12.3987 12.79 12.2026L12.3399 11.6026ZM11.6811 11.9536L11.4317 11.2463C11.1256 11.3542 10.8405 11.5023 10.5791 11.6906L11.0174 12.2992L11.4558 12.9077C11.5988 12.8047 11.7562 12.7224 11.9306 12.6609L11.6811 11.9536ZM11.0174 12.2992L10.5791 11.6906C10.3024 11.8899 10.0677 12.1347 9.87538 12.4195L10.497 12.8392L11.1185 13.2589C11.2157 13.115 11.328 12.9998 11.4558 12.9077L11.0174 12.2992ZM10.497 12.8392L9.87538 12.4195C9.74186 12.6173 9.60429 12.8039 9.4628 12.9797L10.047 13.45L10.6312 13.9203C10.8002 13.7105 10.9626 13.4899 11.1185 13.2589L10.497 12.8392ZM10.047 13.45L9.4628 12.9797C9.45328 12.9915 9.41347 13.0401 9.24737 13.0646L9.35663 13.8066L9.46589 14.5486C9.90983 14.4832 10.3303 14.2941 10.6312 13.9203L10.047 13.45ZM9.35663 13.8066L9.24737 13.0646C8.98013 13.104 8.70022 13.2096 8.47304 13.4315C8.24395 13.6552 8.13188 13.9353 8.09157 14.2078L8.83351 14.3175L9.57544 14.4273C9.57739 14.414 9.57823 14.4198 9.57008 14.4372C9.56129 14.456 9.54551 14.4808 9.52113 14.5046C9.46833 14.5561 9.42811 14.5542 9.46589 14.5486L9.35663 13.8066ZM8.83351 14.3175L8.09157 14.2078C8.08896 14.2255 8.0864 14.229 8.08902 14.2229C8.09197 14.216 8.09866 14.2037 8.11038 14.1902C8.12208 14.1768 8.13314 14.1687 8.13892 14.1651C8.14398 14.1621 8.14015 14.1654 8.12212 14.1708L8.33606 14.8896L8.55 15.6085C8.80436 15.5328 9.04959 15.3961 9.24231 15.1745C9.43522 14.9526 9.53651 14.6905 9.57544 14.4273L8.83351 14.3175ZM8.33606 14.8896L8.12212 14.1708C7.85646 14.2498 7.59247 14.4025 7.4038 14.6662C7.21694 14.9274 7.15697 15.2235 7.16069 15.4946L7.91062 15.4843L8.66055 15.474C8.66 15.4343 8.6688 15.476 8.62375 15.5389C8.60286 15.5681 8.57942 15.5885 8.56097 15.6007C8.54388 15.612 8.53728 15.6122 8.55 15.6085L8.33606 14.8896ZM7.91062 15.4843L7.16069 15.4946C7.16357 15.7037 7.12208 15.8158 7.08655 15.8745L7.72839 16.2625L8.37024 16.6505C8.58622 16.2932 8.66622 15.8864 8.66055 15.474L7.91062 15.4843ZM7.72839 16.2625L7.08655 15.8745C7.10539 15.8434 7.088 15.9117 6.83959 15.9714L7.01467 16.7006L7.18975 17.4299C7.64146 17.3215 8.09989 17.0977 8.37024 16.6505L7.72839 16.2625ZM7.01467 16.7006L6.83959 15.9714C6.58466 16.0326 6.31624 16.1441 6.09687 16.3502C5.86379 16.5691 5.73306 16.8513 5.7016 17.1563L6.44765 17.2333L7.19369 17.3102C7.19257 17.321 7.18821 17.3447 7.17399 17.3741C7.15952 17.404 7.14075 17.4276 7.12386 17.4435C7.09351 17.472 7.09462 17.4528 7.18975 17.4299L7.01467 16.7006ZM6.44765 17.2333L5.7016 17.1563C5.67945 17.3712 5.6352 17.5639 5.57206 17.7374L6.27682 17.9939L6.98158 18.2505C7.0903 17.9518 7.15994 17.6375 7.19369 17.3102L6.44765 17.2333ZM6.27682 17.9939L5.57206 17.7374C5.52913 17.8553 5.45388 17.9756 5.32693 18.0981L5.84778 18.6377L6.36862 19.1774C6.64187 18.9137 6.85264 18.6047 6.98158 18.2505L6.27682 17.9939ZM5.84778 18.6377L5.32693 18.0981C5.12031 18.2975 4.97294 18.5554 4.92821 18.8614C4.88513 19.1561 4.94591 19.4343 5.04542 19.6743L5.73822 19.3871L6.43103 19.0998C6.40348 19.0333 6.41899 19.0335 6.41243 19.0784C6.4091 19.1012 6.40134 19.1252 6.38989 19.1466C6.38454 19.1566 6.37933 19.1643 6.37522 19.1696C6.37116 19.1749 6.36859 19.1774 6.36862 19.1774L5.84778 18.6377ZM5.73822 19.3871L5.04542 19.6743C5.13508 19.8905 5.13092 20.0076 5.12079 20.0576L5.85583 20.2066L6.59086 20.3557C6.67805 19.9257 6.59549 19.4964 6.43103 19.0998L5.73822 19.3871ZM5.85583 20.2066L5.12079 20.0576C5.12923 20.0159 5.14214 20.0809 4.93096 20.2116L5.32547 20.8494L5.71999 21.4873C6.11862 21.2407 6.4851 20.8772 6.59086 20.3557L5.85583 20.2066ZM5.32547 20.8494L4.93096 20.2116C4.49792 20.4794 4.11714 20.9104 4.11979 21.5251L4.86979 21.5219L5.61978 21.5186C5.61982 21.5285 5.61823 21.5423 5.61368 21.5569C5.61156 21.5637 5.60923 21.5693 5.6072 21.5734C5.60621 21.5755 5.60535 21.577 5.60473 21.5781C5.60442 21.5786 5.60417 21.579 5.604 21.5793C5.60392 21.5794 5.60385 21.5795 5.60381 21.5796C5.60377 21.5797 5.60374 21.5797 5.60374 21.5797C5.60448 21.5786 5.62972 21.5431 5.71999 21.4873L5.32547 20.8494ZM4.86979 21.5219L4.11979 21.5251C4.12069 21.7331 4.10025 21.936 4.05881 22.135L4.79305 22.2879L5.52729 22.4409C5.59041 22.1378 5.62112 21.8301 5.61978 21.5186L4.86979 21.5219ZM4.79305 22.2879L4.05881 22.135C3.97388 22.5427 4.02007 22.9475 4.17222 23.3309L4.86936 23.0544L5.56649 22.7778C5.51235 22.6413 5.50767 22.5351 5.52729 22.4409L4.79305 22.2879ZM4.86936 23.0544L4.17222 23.3309C4.22733 23.4699 4.23263 23.5781 4.21367 23.6732L4.94919 23.8199L5.68471 23.9665C5.7656 23.5609 5.71767 23.1588 5.56649 22.7778L4.86936 23.0544ZM4.94919 23.8199L4.21367 23.6732C4.13326 24.0764 4.1787 24.4759 4.33609 24.8531L5.02824 24.5643L5.72039 24.2754C5.67254 24.1607 5.66527 24.064 5.68471 23.9665L4.94919 23.8199ZM5.02824 24.5643L4.33609 24.8531C4.37089 24.9365 4.37561 25.0097 4.34728 25.1035L5.06525 25.3203L5.78323 25.5371C5.91079 25.1147 5.89084 24.6839 5.72039 24.2754L5.02824 24.5643ZM5.06525 25.3203L4.34728 25.1035C4.21248 25.5499 4.2553 26.0024 4.47724 26.4149L5.13771 26.0595L5.79818 25.7042C5.76761 25.6473 5.76212 25.607 5.78323 25.5371L5.06525 25.3203ZM5.13771 26.0595L4.47724 26.4149C4.5103 26.4763 4.52176 26.5344 4.49735 26.6301L5.22409 26.8155L5.95083 27.0008C6.06376 26.5579 6.01763 26.112 5.79818 25.7042L5.13771 26.0595ZM5.22409 26.8155L4.49735 26.6301C4.40915 26.976 4.37766 27.3252 4.40978 27.6738L5.15661 27.6049L5.90345 27.5361C5.8882 27.3706 5.90169 27.1935 5.95083 27.0008L5.22409 26.8155ZM5.15661 27.6049L4.40978 27.6738C4.45125 28.1238 4.65278 28.5118 4.96404 28.8237L5.49493 28.2939L6.02581 27.7641C5.93336 27.6715 5.90935 27.6001 5.90345 27.5361L5.15661 27.6049ZM5.49493 28.2939L4.96404 28.8237C5.02806 28.8878 5.03621 28.927 5.03446 28.9792L5.78404 29.0044L6.53362 29.0295C6.55009 28.539 6.3655 28.1045 6.02581 27.7641L5.49493 28.2939ZM5.78404 29.0044L5.03446 28.9792C5.01455 29.5718 5.33096 30.0233 5.79544 30.2946L6.17368 29.6469L6.55192 28.9993C6.52582 28.984 6.5132 28.9733 6.50912 28.9695C6.50548 28.9661 6.50957 28.9692 6.51592 28.9796C6.52253 28.9905 6.52794 29.0035 6.53109 29.0161C6.53412 29.0283 6.53347 29.0338 6.53362 29.0295L5.78404 29.0044ZM6.17368 29.6469L5.79544 30.2946C5.81282 30.3047 5.81416 30.3082 5.8074 30.3013C5.79981 30.2935 5.78744 30.278 5.77676 30.2552C5.76606 30.2323 5.76179 30.2121 5.76053 30.1997C5.75938 30.1884 5.76131 30.1899 5.75818 30.2077L6.49681 30.3377L7.23545 30.4678C7.28314 30.197 7.26746 29.9018 7.13547 29.6196C7.0038 29.3381 6.78796 29.1371 6.55192 28.9993L6.17368 29.6469ZM6.49681 30.3377L5.75818 30.2077C5.71326 30.4627 5.71993 30.7421 5.8281 31.0145C5.93818 31.2917 6.13 31.5027 6.35673 31.6527L6.77057 31.0272L7.1844 30.4017C7.17764 30.3972 7.1828 30.3995 7.19279 30.4113C7.20336 30.4237 7.21426 30.4409 7.22222 30.461C7.23914 30.5036 7.22691 30.5163 7.23545 30.4678L6.49681 30.3377ZM6.77057 31.0272L6.35673 31.6527C6.36832 31.6603 6.37122 31.6641 6.3696 31.6623C6.36768 31.6602 6.36432 31.6557 6.36147 31.65C6.3587 31.6445 6.3589 31.6427 6.35989 31.6477C6.36098 31.6531 6.36315 31.6675 6.36245 31.6932L7.11217 31.7137L7.86189 31.7341C7.87661 31.1944 7.65303 30.7117 7.1844 30.4017L6.77057 31.0272ZM7.11217 31.7137L6.36245 31.6932C6.3544 31.9882 6.43123 32.306 6.65973 32.5706C6.87931 32.8249 7.16979 32.9496 7.43583 33.0085L7.59784 32.2762L7.75985 31.5439C7.69388 31.5293 7.73741 31.5235 7.7951 31.5903C7.82382 31.6236 7.84304 31.6606 7.85341 31.6936C7.86308 31.7244 7.86171 31.7408 7.86189 31.7341L7.11217 31.7137ZM7.59784 32.2762L7.43583 33.0085C7.66961 33.0602 7.74392 33.1304 7.7614 33.151L8.33288 32.6653L8.90436 32.1796C8.60579 31.8283 8.19007 31.6391 7.75985 31.5439L7.59784 32.2762ZM8.33288 32.6653L7.7614 33.151C7.81611 33.2154 7.88156 33.2856 7.9563 33.3484C8.01975 33.4018 8.14825 33.5005 8.32963 33.5482C8.55764 33.6081 8.86169 33.5785 9.09836 33.3494C9.27986 33.1736 9.32902 32.9641 9.34565 32.8744L8.60822 32.7376L7.87079 32.6009C7.87466 32.58 7.90278 32.4191 8.05495 32.2717C8.14164 32.1878 8.25679 32.1208 8.39236 32.0914C8.52234 32.0631 8.63411 32.0773 8.71084 32.0974C8.84634 32.133 8.92067 32.1995 8.92167 32.2003C8.93396 32.2107 8.92867 32.2082 8.90436 32.1796L8.33288 32.6653ZM8.60822 32.7376L9.34565 32.8744C9.35547 32.8214 9.3837 32.7275 9.4513 32.5857L8.77424 32.2631L8.09718 31.9404C7.99449 32.1559 7.91203 32.3785 7.87079 32.6009L8.60822 32.7376ZM8.77424 32.2631L9.4513 32.5857C9.56374 32.3497 9.60057 32.079 9.52815 31.8046C9.46002 31.5465 9.31145 31.3457 9.16007 31.1966L8.63378 31.7309L8.10749 32.2652C8.13489 32.2922 8.09912 32.2681 8.07782 32.1874C8.06674 32.1454 8.06241 32.0978 8.06766 32.049C8.07282 32.0011 8.0859 31.9641 8.09718 31.9404L8.77424 32.2631ZM8.63378 31.7309L9.16007 31.1966C9.06642 31.1043 8.99944 30.9977 8.95575 30.8672L8.24458 31.1055L7.53341 31.3437C7.65109 31.695 7.84358 32.0053 8.10749 32.2652L8.63378 31.7309ZM8.24458 31.1055L8.95575 30.8672C8.86571 30.5984 8.76122 30.339 8.642 30.0893L7.96518 30.4124L7.28836 30.7355C7.3803 30.9281 7.46209 31.1307 7.53341 31.3437L8.24458 31.1055ZM7.96518 30.4124L8.642 30.0893C8.46283 29.714 8.17324 29.4255 7.82511 29.2106L7.43119 29.8488L7.03727 30.4871C7.18995 30.5813 7.25635 30.6685 7.28836 30.7355L7.96518 30.4124ZM7.43119 29.8488L7.82511 29.2106C7.6255 29.0874 7.45742 28.9511 7.31687 28.8031L6.77314 29.3197L6.2294 29.8363C6.46544 30.0847 6.73607 30.3012 7.03727 30.4871L7.43119 29.8488ZM6.77314 29.3197L7.31687 28.8031C7.32004 28.8065 7.3304 28.8186 7.34046 28.8399C7.35074 28.8616 7.35621 28.8836 7.35806 28.9014C7.36154 28.9351 7.34958 28.9226 7.38286 28.845L6.69358 28.5494L6.0043 28.2537C5.90233 28.4915 5.836 28.7651 5.86599 29.0555C5.89732 29.3589 6.02832 29.6246 6.2294 29.8363L6.77314 29.3197ZM6.69358 28.5494L7.38286 28.845C7.48619 28.6041 7.55166 28.3267 7.51755 28.0324C7.48206 27.7263 7.34543 27.4616 7.143 27.2521L6.60361 27.7732L6.06422 28.2943C6.06365 28.2937 6.05471 28.2841 6.04524 28.2647C6.03547 28.2447 6.02966 28.2236 6.02752 28.2051C6.0234 28.1696 6.03624 28.1793 6.0043 28.2537L6.69358 28.5494ZM6.60361 27.7732L7.143 27.2521C7.05318 27.1591 7.029 27.087 7.02313 27.0225L6.27621 27.0905L5.5293 27.1584C5.56947 27.6 5.76355 27.9831 6.06422 28.2943L6.60361 27.7732ZM6.27621 27.0905L7.02313 27.0225C6.9962 26.7266 6.94411 26.4355 6.86678 26.1498L6.14283 26.3457L5.41887 26.5416C5.47335 26.7429 5.51018 26.9483 5.5293 27.1584L6.27621 27.0905ZM6.14283 26.3457L6.86678 26.1498C6.78858 25.8608 6.68246 25.5763 6.55004 25.2963L5.87205 25.6169L5.19405 25.9376C5.29087 26.1423 5.36527 26.3436 5.41887 26.5416L6.14283 26.3457ZM5.87205 25.6169L6.55004 25.2963C6.55312 25.3028 6.55925 25.3186 6.56209 25.3418C6.56496 25.3653 6.56322 25.3861 6.56009 25.4008C6.55438 25.4277 6.55044 25.4071 6.60782 25.3388L6.03348 24.8565L5.45914 24.3741C5.29428 24.5705 5.15231 24.8089 5.09279 25.0893C5.03054 25.3825 5.06915 25.6735 5.19405 25.9376L5.87205 25.6169ZM6.03348 24.8565L6.60782 25.3388C6.80271 25.1067 6.96553 24.7837 6.92844 24.3944C6.89238 24.0158 6.6814 23.7304 6.46705 23.5338L5.96014 24.0866L5.45324 24.6393C5.51001 24.6914 5.44682 24.6586 5.4352 24.5366C5.42955 24.4773 5.44003 24.4268 5.45269 24.3934C5.464 24.3636 5.47304 24.3576 5.45914 24.3741L6.03348 24.8565ZM5.96014 24.0866L6.46705 23.5338C6.42951 23.4994 6.40851 23.4742 6.39792 23.4596C6.38756 23.4453 6.38955 23.4444 6.39417 23.4572C6.39925 23.4713 6.40479 23.4944 6.40483 23.5234C6.40486 23.5523 6.39938 23.5748 6.39481 23.5876L5.68849 23.3354L4.98217 23.0832C4.75206 23.7276 5.05903 24.2778 5.45324 24.6393L5.96014 24.0866ZM5.68849 23.3354L6.39481 23.5876C6.52617 23.2197 6.56389 22.8372 6.50454 22.4512L5.76325 22.5652L5.02196 22.6792C5.04298 22.8158 5.03087 22.9468 4.98217 23.0832L5.68849 23.3354ZM5.76325 22.5652L6.50454 22.4512C6.50418 22.4489 6.5049 22.4523 6.50407 22.4595C6.50323 22.4668 6.50145 22.4721 6.50068 22.474C6.49922 22.4776 6.50904 22.4507 6.56539 22.3989L6.05765 21.8469L5.54991 21.2949C5.17469 21.64 4.93531 22.1157 5.02196 22.6792L5.76325 22.5652ZM6.05765 21.8469L6.56539 22.3989C6.906 22.0856 7.15677 21.6752 7.17675 21.1733L6.42734 21.1435L5.67794 21.1136C5.6779 21.1146 5.68221 21.1732 5.54991 21.2949L6.05765 21.8469ZM6.42734 21.1435L7.17675 21.1733C7.1834 21.0061 7.21703 20.8482 7.27775 20.6957L6.58098 20.4182L5.8842 20.1407C5.76009 20.4524 5.6913 20.7779 5.67794 21.1136L6.42734 21.1435ZM6.58098 20.4182L7.27775 20.6957C7.41471 20.3518 7.4659 19.9885 7.44196 19.6168L6.69351 19.6649L5.94506 19.7131C5.95591 19.8817 5.93208 20.0205 5.8842 20.1407L6.58098 20.4182ZM6.69351 19.6649L7.44196 19.6168C7.42716 19.3869 7.43114 19.1608 7.45351 18.9381L6.70726 18.8631L5.96102 18.7882C5.93027 19.0942 5.92508 19.4027 5.94506 19.7131L6.69351 19.6649ZM6.70726 18.8631L7.45351 18.9381C7.45351 18.9381 7.45271 18.9449 7.44844 18.9556C7.44411 18.9664 7.43876 18.9747 7.43505 18.9794C7.42798 18.9883 7.44081 18.967 7.51116 18.9335L7.18889 18.2563L6.86662 17.5791C6.39774 17.8022 6.02006 18.2004 5.96102 18.7882L6.70726 18.8631ZM7.18889 18.2563L7.51116 18.9335C7.9058 18.7457 8.25739 18.4673 8.46638 18.0613L7.79952 17.718L7.13267 17.3748C7.11653 17.4062 7.06103 17.4866 6.86662 17.5791L7.18889 18.2563ZM7.79952 17.718L8.46638 18.0613C8.53373 17.9304 8.62614 17.8117 8.7503 17.7035L8.25769 17.138L7.76507 16.5724C7.50347 16.8003 7.29044 17.0683 7.13267 17.3748L7.79952 17.718ZM8.25769 17.138L8.7503 17.7035C9.00183 17.4844 9.21311 17.2324 9.3786 16.9476L8.73014 16.5708L8.08168 16.194C8.00299 16.3294 7.89931 16.4555 7.76507 16.5724L8.25769 17.138ZM8.73014 16.5708L9.3786 16.9476C9.48825 16.759 9.60699 16.5761 9.73486 16.399L9.12678 15.96L8.5187 15.5209C8.36189 15.7381 8.21621 15.9625 8.08168 16.194L8.73014 16.5708ZM9.12678 15.96L9.73486 16.399C9.98246 16.056 10.0922 15.6508 10.1154 15.2351L9.36657 15.1933L8.61774 15.1515C8.60589 15.3637 8.55576 15.4696 8.5187 15.5209L9.12678 15.96ZM9.36657 15.1933L10.1154 15.2351C10.1197 15.1589 10.1339 15.1289 10.1356 15.1255C10.1365 15.1238 10.1357 15.1256 10.1331 15.1285C10.1305 15.1315 10.1293 15.1319 10.1318 15.1302L9.71467 14.507L9.29749 13.8837C8.84401 14.1872 8.6452 14.6597 8.61774 15.1515L9.36657 15.1933ZM9.71467 14.507L10.1318 15.1302C10.421 14.9367 10.6685 14.6972 10.8712 14.4146L10.2618 13.9774L9.65237 13.5403C9.55465 13.6765 9.43743 13.79 9.29749 13.8837L9.71467 14.507ZM10.2618 13.9774L10.8712 14.4146C10.9946 14.2426 11.1313 14.0852 11.2817 13.9417L10.7639 13.3991L10.2461 12.8566C10.0275 13.0652 9.8295 13.2933 9.65237 13.5403L10.2618 13.9774ZM10.7639 13.3991L11.2817 13.9417C11.3845 13.8436 11.5071 13.7683 11.6589 13.7164L11.4167 13.0066L11.1744 12.2969C10.8249 12.4161 10.5123 12.6025 10.2461 12.8566L10.7639 13.3991ZM11.4167 13.0066L11.6589 13.7164C11.8608 13.6475 12.0733 13.5981 12.2977 13.5688L12.2007 12.8251L12.1037 12.0814C11.784 12.1231 11.4739 12.1946 11.1744 12.2969L11.4167 13.0066ZM12.2007 12.8251L12.2977 13.5688C12.6669 13.5206 13.0145 13.4026 13.3244 13.2018L12.9165 12.5724L12.5086 11.943C12.408 12.0082 12.2784 12.0586 12.1037 12.0814L12.2007 12.8251ZM12.9165 12.5724L13.3244 13.2018C13.4668 13.1094 13.6207 13.0392 13.7886 12.9909L13.5812 12.2702L13.3738 11.5494C13.0658 11.6381 12.7766 11.7693 12.5086 11.943L12.9165 12.5724ZM13.5812 12.2702L13.7886 12.9909C14.2057 12.8709 14.5401 12.6148 14.7929 12.2768L14.1923 11.8276L13.5917 11.3784C13.5056 11.4936 13.4326 11.5325 13.3738 11.5494L13.5812 12.2702ZM14.1923 11.8276L14.7929 12.2768C14.9519 12.0642 15.1205 11.8543 15.2986 11.6472L14.7301 11.1581L14.1615 10.669C13.9616 10.9013 13.7716 11.1378 13.5917 11.3784L14.1923 11.8276ZM14.7301 11.1581L15.2986 11.6472C15.3655 11.5695 15.4026 11.5653 15.4372 11.564L15.4107 10.8145L15.3842 10.065C14.8894 10.0825 14.4727 10.3073 14.1615 10.669L14.7301 11.1581ZM15.4107 10.8145L15.4372 11.564C15.6055 11.5581 15.7904 11.5832 15.996 11.6499L16.2273 10.9365L16.4586 10.223C16.1049 10.1083 15.7454 10.0522 15.3842 10.065L15.4107 10.8145ZM16.2273 10.9365L15.996 11.6499C16.2674 11.7379 16.5668 11.7531 16.8638 11.6506C17.1532 11.5508 17.3755 11.3619 17.5422 11.1531L16.9562 10.6851L16.3701 10.217C16.3306 10.2665 16.3283 10.2486 16.3747 10.2326C16.3972 10.2249 16.4203 10.2216 16.44 10.2218C16.4587 10.2221 16.4658 10.2253 16.4586 10.223L16.2273 10.9365ZM16.9562 10.6851L17.5422 11.1531C17.588 11.0958 17.5996 11.1039 17.5658 11.1174C17.5485 11.1242 17.5278 11.129 17.5066 11.13C17.486 11.131 17.4739 11.1281 17.4733 11.1279L17.6642 10.4026L17.8552 9.67733C17.5804 9.60498 17.2896 9.61259 17.01 9.72411C16.7401 9.83176 16.5306 10.016 16.3701 10.217L16.9562 10.6851ZM17.6642 10.4026L17.4733 11.1279C17.8401 11.2245 18.2132 11.2424 18.5831 11.1686L18.4364 10.4331L18.2896 9.69757C18.1616 9.72311 18.02 9.72071 17.8552 9.67733L17.6642 10.4026ZM18.4364 10.4331L18.5831 11.1686C18.7378 11.1377 18.8717 11.1406 18.9923 11.1674L19.1549 10.4352L19.3175 9.70305C18.978 9.62764 18.6328 9.62909 18.2896 9.69757L18.4364 10.4331ZM19.1549 10.4352L18.9923 11.1674C19.1082 11.1931 19.1994 11.2129 19.2632 11.226C19.2937 11.2322 19.3252 11.2384 19.3524 11.2431C19.3631 11.2449 19.3889 11.2492 19.4187 11.2523C19.4278 11.2532 19.4711 11.2578 19.5255 11.2559C19.5437 11.2552 19.6246 11.2528 19.7222 11.2224C19.7693 11.2078 19.8789 11.1694 19.9891 11.0747C20.1183 10.9635 20.2498 10.7686 20.25 10.5065L19.5 10.5059L18.75 10.5053C18.7502 10.2434 18.8817 10.0486 19.0109 9.93752C19.1209 9.84286 19.2303 9.80455 19.2772 9.79C19.3744 9.7598 19.4546 9.75745 19.4719 9.75683C19.5245 9.75495 19.5651 9.75942 19.5706 9.75998C19.5841 9.76135 19.5939 9.76278 19.5974 9.76329C19.6017 9.76393 19.6043 9.76438 19.6045 9.76441C19.6048 9.76446 19.6017 9.76392 19.594 9.76242C19.5866 9.761 19.5768 9.75905 19.5643 9.75649C19.5131 9.74599 19.4317 9.72841 19.3175 9.70305L19.1549 10.4352ZM19.5 10.5059L20.25 10.5065C20.2498 10.7882 20.0995 10.9811 19.9844 11.0784C19.8824 11.1647 19.7828 11.2018 19.7418 11.2157C19.6546 11.2453 19.5825 11.2512 19.5664 11.2526C19.5184 11.2568 19.4813 11.255 19.4762 11.2548C19.4556 11.254 19.4422 11.2525 19.4467 11.2529C19.4502 11.2533 19.4642 11.2549 19.4937 11.2589C19.5503 11.2665 19.6393 11.2794 19.7635 11.2981L19.875 10.5564L19.9866 9.81476C19.8608 9.79583 19.7623 9.78151 19.6938 9.77229C19.6609 9.76786 19.628 9.76366 19.6003 9.76081C19.5891 9.75965 19.564 9.75714 19.5356 9.75601C19.5266 9.75566 19.4865 9.75391 19.4366 9.75825C19.4195 9.75973 19.3467 9.76574 19.259 9.79552C19.2178 9.80954 19.118 9.8467 19.0158 9.93308C18.9006 10.0305 18.7503 10.2236 18.75 10.5053L19.5 10.5059Z" fill="#030302"/>
</svg>
