<svg width="48" height="48" viewBox="0 0 48 48" fill="none" xmlns="http://www.w3.org/2000/svg">
<path d="M29.3602 11.6014L28.7222 11.2071V11.2071L29.3602 11.6014ZM29.949 11.1295L29.6868 10.4268L29.949 11.1295ZM30.6057 10.7257L30.0864 10.1846L30.6057 10.7257ZM32.251 9.18898L32.384 9.92709L32.251 9.18898ZM32.7099 8.58725L31.9601 8.57326L32.7099 8.58725ZM33.5784 7.33425L34.2634 7.63964L33.5784 7.33425ZM34.8662 6.50093L34.2454 6.08018L34.8662 6.50093ZM35.2011 5.87475L35.9001 6.14664L35.2011 5.87475ZM35.1386 5.45433L35.5258 4.81201L35.1386 5.45433ZM31.0952 4.57259L30.5037 4.1115L31.0952 4.57259ZM29.6296 4.91767L29.5676 4.17023L29.6296 4.91767ZM28.1189 5.08839L27.9073 5.80792L28.1189 5.08839ZM26.8073 5.81025L27.1773 6.46263L26.8073 5.81025ZM25.4495 6.44125L26.176 6.62734L25.4495 6.44125ZM24.9671 7.07193L24.6864 6.37642L24.9671 7.07193ZM23.3773 8.61264L23.9659 9.07744L23.3773 8.61264ZM22.6815 9.0281L22.4877 8.30357L22.6815 9.0281ZM22.3429 9.68519L21.6136 9.86002L22.3429 9.68519ZM21.4124 11.7292L22.1166 11.4713L21.4124 11.7292ZM21.4645 12.5407L20.7572 12.2914L21.4645 12.5407ZM20.9404 13.1621L21.3681 13.7782L20.9404 13.1621ZM20.6056 14.6055L19.8587 14.5381V14.5381L20.6056 14.6055ZM20.491 15.3503L21.2238 15.5098L20.491 15.3503ZM20.3674 16.1019L19.6221 16.0182L20.3674 16.1019ZM20.2791 16.8692L19.5342 16.7815L20.2791 16.8692ZM20.8883 18.3044L21.636 18.3635L20.8883 18.3044ZM21.1275 18.9955L20.564 19.4904L21.1275 18.9955ZM21.2805 19.7351L22.0046 19.9303L21.2805 19.7351ZM21.3646 20.4932L20.7261 20.8868L21.3646 20.4932ZM21.0776 21.8248L21.7341 22.1874L21.0776 21.8248ZM20.0006 22.8691L19.5378 22.2789L20.0006 22.8691ZM18.925 23.9148L19.5505 24.3286L18.925 23.9148ZM18.0097 25.1209L18.5188 25.6716L18.0097 25.1209ZM14.6926 28.1677L14.9787 28.861L14.6926 28.1677ZM12.3095 30.0273L12.9353 30.4407L12.3095 30.0273ZM11.8128 30.5912L12.3004 31.161L11.8128 30.5912ZM11.1945 31.0336L11.5779 31.6781L11.1945 31.0336ZM10.5243 32.4847L11.1994 32.8114L10.5243 32.4847ZM9.39623 33.4779L8.90258 32.9133L9.39623 33.4779ZM8.87172 34.0141L9.44699 34.4953L8.87172 34.0141ZM7.13288 35.4572L6.41811 35.2301L7.13288 35.4572ZM6.70881 36.0938L6.24366 35.5055L6.70881 36.0938ZM6.15844 36.6041L5.60665 36.0961L6.15844 36.6041ZM5.62401 37.1305L6.1236 37.6899L5.62401 37.1305ZM5.00165 37.6222L4.56926 37.0094V37.0094L5.00165 37.6222ZM4.86826 38.3457L4.18 38.6437L4.86826 38.3457ZM4.60551 39.1171L4.2133 38.4779L4.60551 39.1171ZM4.15911 39.8169L3.41051 39.8627L4.15911 39.8169ZM4.98766 41.1792L4.47032 41.7222L4.98766 41.1792ZM5.4645 41.7263L4.85065 42.1572L5.4645 41.7263ZM5.92596 42.2216L6.39877 41.6394L5.92596 42.2216ZM6.32326 42.9316L5.5988 43.1256L6.32326 42.9316ZM7.66179 43.5921L7.39497 44.293L7.66179 43.5921ZM8.41503 43.5975L8.66817 44.3035L8.41503 43.5975ZM9.17684 43.4189L9.09432 42.6735L9.17684 43.4189ZM11.5374 41.6507L11.9113 42.3009L11.5374 41.6507ZM13.0523 39.9836L13.2828 40.6974L13.0523 39.9836ZM13.7397 39.6104L13.2536 39.0392L13.7397 39.6104ZM14.8635 38.6129L15.6092 38.693L14.8635 38.6129ZM15.1986 37.8873L14.7064 37.3214L15.1986 37.8873ZM15.8478 37.4758L16.156 38.1596L15.8478 37.4758ZM16.5327 37.1001L16.1194 36.4743L16.5327 37.1001ZM17.4655 35.9116L16.774 35.6214L17.4655 35.9116ZM18.2852 34.6099L17.6763 34.1721L18.2852 34.6099ZM19.0173 34.2814L19.0467 35.0308L19.0173 34.2814ZM19.8952 33.038L19.511 32.3939L19.8952 33.038ZM21.0874 32.1089L20.7385 31.445L21.0874 32.1089ZM22.2134 31.1135L21.9362 30.4166L22.2134 31.1135ZM22.7751 30.6146L23.4395 30.9626L22.7751 30.6146ZM25.6515 27.127L25.2178 26.5151L25.6515 27.127ZM30.6385 27.473L30.3287 28.1561L30.6385 27.473ZM31.378 27.6716L31.4476 26.9249L31.378 27.6716ZM32.892 27.6536L32.4459 27.0507L32.892 27.6536ZM33.6605 27.5455L33.934 26.8471L33.6605 27.5455ZM34.4343 27.5758L34.6831 28.2833L34.4343 27.5758ZM36.4455 26.4454L35.8681 25.9667L36.4455 26.4454ZM40.625 23.4408L41.2549 23.8479V23.8479L40.625 23.4408ZM42.7794 19.5886L42.0687 19.8281L42.7794 19.5886ZM43.0009 18.8624L42.541 18.27L43.0009 18.8624ZM43.1171 16.6632L42.3908 16.4762L43.1171 16.6632ZM43.5475 15.926L42.988 15.4265L43.5475 15.926ZM43.838 15.1626L44.5823 15.0704L43.838 15.1626ZM41.9159 12.8297L42.4287 13.377L41.9159 12.8297ZM41.4923 13.465L42.1894 13.7417L41.4923 13.465ZM41.1088 14.1422L40.5181 13.6801L41.1088 14.1422ZM38.6431 15.919L39.1035 16.5111L38.6431 15.919ZM37.4358 16.833L36.8489 16.3661L37.4358 16.833ZM36.9437 17.4016L36.3974 16.8878L36.9437 17.4016ZM36.4957 18.0143L37.1494 18.3821L36.4957 18.0143ZM36.1646 18.7439L36.8704 18.9975L36.1646 18.7439ZM35.712 19.4227L35.2031 18.8718L35.712 19.4227ZM34.9678 19.7403L34.9176 18.992L34.9678 19.7403ZM33.3524 19.8265L32.9678 20.4704L33.3524 19.8265ZM32.6003 19.4558L32.3266 20.154L32.6003 19.4558ZM32.0833 18.8933L32.7962 18.6601L32.0833 18.8933ZM31.5426 18.356L31.7627 17.639L31.5426 18.356ZM30.188 16.5286L29.4887 16.7996L30.188 16.5286ZM29.1543 15.4743L29.6463 14.9082L29.1543 15.4743ZM28.8597 14.8985L29.6072 14.8364V14.8364L28.8597 14.8985ZM28.6539 14.2784L29.2847 13.8726L28.6539 14.2784ZM29.3444 14.4026L28.5952 14.4375L29.3444 14.4026ZM31.2921 16.6437L32.0166 16.4498L31.2921 16.6437ZM31.6388 17.3576L32.2262 16.8913L31.6388 17.3576ZM32.7935 18.347L33.2294 17.7366L32.7935 18.347ZM33.4996 18.8163L33.103 19.4528L33.4996 18.8163ZM34.2661 18.8082L34.6724 19.4386L34.2661 18.8082ZM34.8945 18.2753L34.3253 17.787L34.8945 18.2753ZM35.3605 17.6798L35.9712 18.1151L35.3605 17.6798ZM37.4262 15.5029L37.7788 16.1648L37.4262 15.5029ZM38.6911 14.6465L39.2446 15.1525L38.6911 14.6465ZM40.3402 13.1136L41.0735 13.2709L40.3402 13.1136ZM40.8031 12.5158L41.103 13.2032L40.8031 12.5158ZM41.988 11.704L41.8672 10.9638L41.988 11.704ZM42.6969 11.6672L42.6507 12.4157L42.6969 11.6672ZM43.2834 11.9363L43.8264 11.419L43.2834 11.9363ZM43.6501 12.4693L42.9684 12.782L43.6501 12.4693ZM44.3212 14.5252L43.5725 14.4821L44.3212 14.5252ZM44.4594 15.2685L45.1465 14.968L44.4594 15.2685ZM44.2036 18.2294L43.547 17.867L44.2036 18.2294ZM44.1764 19.0003L43.4754 19.2669L44.1764 19.0003ZM44.1308 19.7619L43.4939 19.3657L44.1308 19.7619ZM43.5388 20.347L43.1288 19.719L43.5388 20.347ZM43.1791 21.0109L42.4304 21.0548L43.1791 21.0109ZM42.9653 21.7185L43.5485 22.1901L42.9653 21.7185ZM42.3802 23.1083L41.97 22.4805L42.3802 23.1083ZM41.2717 24.1561L40.5229 24.1144L41.2717 24.1561ZM40.9305 24.8444L40.5031 24.2281L40.9305 24.8444ZM40.2775 25.2434L40.6309 25.905L40.2775 25.2434ZM39.0477 26.0785L39.4371 26.7195L39.0477 26.0785ZM38.4112 26.4509L38.7791 27.1044L38.4112 26.4509ZM36.4748 27.545L37.083 27.9838L36.4748 27.545ZM35.7979 27.8199L35.65 28.5551L35.7979 27.8199ZM34.4129 28.4983L34.4641 27.7501L34.4129 28.4983ZM33.641 28.4963L33.5915 27.748L33.641 28.4963ZM32.8817 28.4216L32.692 29.1473L32.8817 28.4216ZM30.6109 28.6299L30.6916 29.3756L30.6109 28.6299ZM27.82 27.4814L27.5155 28.1668L27.82 27.4814ZM26.5214 28.17L27.2068 28.4746L26.5214 28.17ZM26.1246 28.8339L26.7139 29.2978L26.1246 28.8339ZM24.9681 29.7986L24.4393 29.2667L24.9681 29.7986ZM24.5175 30.4088L25.1791 30.762L24.5175 30.4088ZM24.1102 31.0621L24.7177 31.502L24.1102 31.0621ZM22.8797 31.9529L22.1444 31.8051V31.8051L22.8797 31.9529ZM22.3467 32.4806L22.204 31.7443L22.3467 32.4806ZM19.6145 35.0517L20.1843 35.5395L19.6145 35.0517ZM18.9821 35.48L19.2409 36.1839L18.9821 35.48ZM18.2793 36.8984L18.8451 37.3907L18.2793 36.8984ZM16.7397 37.4802L17.3547 37.9095L16.7397 37.4802ZM14.3309 40.3747L14.6237 41.0652L14.3309 40.3747ZM13.2306 41.3957L13.4805 42.1029L13.2306 41.3957ZM11.6071 42.9443L11.3252 42.2493L11.6071 42.9443ZM9.77085 44.1819L10.3202 44.6926L9.77085 44.1819ZM8.30762 44.4811L7.78894 43.9394L8.30762 44.4811ZM7.53867 44.7935L7.46499 45.5398L7.53867 44.7935ZM5.60457 43.4979L5.28756 44.1776L5.60457 43.4979ZM3.67392 38.3022L4.40594 38.4654L3.67392 38.3022ZM3.81993 37.5217L4.56116 37.6361L3.81993 37.5217ZM5.17566 35.6498L4.82726 34.9857L5.17566 35.6498ZM5.7177 35.1312L5.06827 34.756L5.7177 35.1312ZM6.3883 34.7411L6.30394 33.9959L6.3883 34.7411ZM7.08349 34.3756L6.4697 33.9446L7.08349 34.3756ZM7.59627 33.8278L8.06615 34.4123L7.59627 33.8278ZM8.38919 32.4994L9.04789 32.858L8.38919 32.4994ZM10.4154 31.3436L10.7658 32.0067L10.4154 31.3436ZM11.0077 30.8752L10.4392 30.386L11.0077 30.8752ZM11.8266 29.5729L11.0829 29.4765L11.8266 29.5729ZM13.1974 27.7617L13.7656 28.2512L13.1974 27.7617ZM13.7923 27.2959L14.137 27.962L13.7923 27.2959ZM16.1719 25.4328L16.8938 25.6363L16.1719 25.4328ZM20.2182 21.0307L19.6253 20.5713L20.2182 21.0307ZM19.9216 19.7438L19.2128 19.4986L19.9216 19.7438ZM19.709 18.998L20.1851 18.4185L19.709 18.998ZM19.4348 18.2908L20.1662 18.4567L19.4348 18.2908ZM19.3556 17.5205L18.677 17.8398L19.3556 17.5205ZM19.5509 16.7594L20.1019 17.2682L19.5509 16.7594ZM19.7162 15.2586L20.4361 15.0485L19.7162 15.2586ZM19.8001 13.7778L20.5439 13.6817L19.8001 13.7778ZM19.8175 13.0199L19.0795 12.8859L19.8175 13.0199ZM20.1101 12.3281L20.724 12.759L20.1101 12.3281ZM20.3924 11.6312L19.6509 11.5187L20.3924 11.6312ZM20.9371 10.2332L21.6636 10.0469L20.9371 10.2332ZM21.8142 9.03117L22.5485 9.18367L21.8142 9.03117ZM21.9923 8.23257L22.7219 8.40619L21.9923 8.23257ZM22.5563 7.73583L22.6993 8.47207L22.5563 7.73583ZM23.0679 7.15853L22.3209 7.0908L23.0679 7.15853ZM24.9126 5.88383L24.355 5.38219L24.9126 5.88383ZM27.5122 4.46892L27.0399 3.88633L27.5122 4.46892ZM28.898 3.92346L28.6762 3.207V3.207L28.898 3.92346ZM31.0875 3.3805L30.6797 4.00995L31.0875 3.3805ZM32.621 3.36008L32.2324 2.71858L32.621 3.36008ZM35.471 4.19069L35.8114 3.52242L35.471 4.19069ZM36.1061 5.20345L35.3652 5.0874L36.1061 5.20345ZM36.3105 5.94986L35.6659 6.33338L36.3105 5.94986ZM36.3614 6.76303L35.6979 6.41326L36.3614 6.76303ZM35.5976 7.11851L35.557 7.86741L35.5976 7.11851ZM35.0772 7.65877L35.8253 7.60635L35.0772 7.65877ZM33.4696 9.23321L33.4682 8.48321V8.48321L33.4696 9.23321ZM31.6548 10.6002L32.0778 11.2195L31.6548 10.6002ZM30.7785 11.8454L31.3973 12.2692L30.7785 11.8454ZM30.4057 12.5333L29.7145 12.2422L30.4057 12.5333ZM29.3858 13.6088L30.0511 13.955L29.3858 13.6088ZM29.266 13.9784L28.9804 14.6719L29.266 13.9784ZM28.2947 13.6067L29.0425 13.5481C29.042 13.5422 29.043 13.5473 29.0406 13.5603C29.0379 13.5739 29.0326 13.5898 29.0244 13.6053C29.0163 13.6205 29.0087 13.6289 29.0066 13.631C29.005 13.6326 29.0106 13.6265 29.0286 13.6152L28.6293 12.9804L28.23 12.3455C28.0215 12.4766 27.8305 12.6566 27.7013 12.8985C27.5702 13.144 27.5269 13.4081 27.547 13.6653L28.2947 13.6067ZM28.6293 12.9804L29.0286 13.6152C29.4407 13.356 29.7162 12.9688 29.812 12.4856L29.0763 12.3398L28.3406 12.194C28.3279 12.2582 28.3054 12.2981 28.23 12.3455L28.6293 12.9804ZM29.0763 12.3398L29.812 12.4856C29.8503 12.2922 29.9143 12.1315 29.9982 11.9957L29.3602 11.6014L28.7222 11.2071C28.5361 11.5083 28.4108 11.8399 28.3406 12.194L29.0763 12.3398ZM29.3602 11.6014L29.9982 11.9957C30.0394 11.929 30.0981 11.8744 30.2111 11.8322L29.949 11.1295L29.6868 10.4268C29.2849 10.5768 28.9511 10.8367 28.7222 11.2071L29.3602 11.6014ZM29.949 11.1295L30.2111 11.8322C30.5549 11.7039 30.8638 11.5175 31.1251 11.2669L30.6057 10.7257L30.0864 10.1846C29.9868 10.2802 29.8579 10.363 29.6868 10.4268L29.949 11.1295ZM30.6057 10.7257L31.1251 11.2669C31.3876 11.0149 31.5858 10.7125 31.7245 10.3723L31.03 10.0892L30.3354 9.80612C30.2693 9.96834 30.1848 10.0902 30.0864 10.1846L30.6057 10.7257ZM31.03 10.0892L31.7245 10.3723C31.7774 10.2425 31.8464 10.1603 31.9291 10.101L31.4926 9.49116L31.0561 8.88127C30.7267 9.11702 30.4873 9.43345 30.3354 9.80612L31.03 10.0892ZM31.4926 9.49116L31.9291 10.101C32.0284 10.03 32.1722 9.96526 32.384 9.92709L32.251 9.18898L32.118 8.45087C31.7307 8.52066 31.3689 8.65738 31.0561 8.88127L31.4926 9.49116ZM32.251 9.18898L32.384 9.92709C32.678 9.87411 32.974 9.73171 33.1867 9.45292C33.3904 9.18583 33.4547 8.87555 33.4598 8.60124L32.7099 8.58725L31.9601 8.57326C31.9587 8.64613 31.9433 8.60973 31.994 8.54322C32.0195 8.50985 32.0507 8.48407 32.0804 8.46735C32.1082 8.45173 32.1243 8.44973 32.118 8.45087L32.251 9.18898ZM32.7099 8.58725L33.4598 8.60124C33.4616 8.5062 33.4783 8.47988 33.4728 8.49064C33.4695 8.49716 33.4619 8.50931 33.449 8.52249C33.4359 8.53571 33.4235 8.5438 33.4162 8.54768L33.0672 7.88379L32.7183 7.21989C32.1653 7.51054 31.9697 8.05533 31.9601 8.57326L32.7099 8.58725ZM33.0672 7.88379L33.4162 8.54768C33.8007 8.34561 34.0875 8.03425 34.2634 7.63964L33.5784 7.33425L32.8934 7.02887C32.8512 7.12339 32.7973 7.17839 32.7183 7.21989L33.0672 7.88379ZM33.5784 7.33425L34.2634 7.63964C34.266 7.63368 34.2664 7.63463 34.2628 7.63912C34.259 7.64381 34.2545 7.64795 34.2508 7.65054C34.2428 7.65626 34.2569 7.64249 34.3192 7.6322L34.197 6.89223L34.0747 6.15226C33.5657 6.23635 33.1216 6.51689 32.8934 7.02887L33.5784 7.33425ZM34.197 6.89223L34.3192 7.6322C34.7801 7.55606 35.2054 7.33739 35.4871 6.92169L34.8662 6.50093L34.2454 6.08018C34.2414 6.08597 34.2205 6.12817 34.0747 6.15226L34.197 6.89223ZM34.8662 6.50093L35.4871 6.92169C35.6569 6.67109 35.7965 6.41277 35.9001 6.14664L35.2011 5.87475L34.5021 5.60286C34.4448 5.75014 34.3612 5.90927 34.2454 6.08018L34.8662 6.50093ZM35.2011 5.87475L35.9001 6.14664C35.9632 5.98426 36.0251 5.75653 35.9876 5.50438C35.9441 5.2114 35.7772 4.96356 35.5258 4.81201L35.1386 5.45433L34.7514 6.09665C34.6979 6.0644 34.6374 6.01327 34.5877 5.93883C34.5378 5.86428 34.5133 5.78818 34.5039 5.72486C34.4873 5.61285 34.5193 5.55853 34.5021 5.60286L35.2011 5.87475ZM35.1386 5.45433L35.5258 4.81201C35.5449 4.82352 35.5585 4.83379 35.5667 4.84054C35.575 4.84731 35.5794 4.85172 35.58 4.85235C35.5806 4.85296 35.5719 4.84396 35.5547 4.82001C35.5192 4.77058 35.4685 4.68645 35.4045 4.55579L34.731 4.88585L34.0575 5.21592C34.1432 5.39067 34.2352 5.55399 34.3356 5.69406C34.4299 5.82547 34.5649 5.98424 34.7514 6.09665L35.1386 5.45433ZM34.731 4.88585L35.4045 4.55579C35.2812 4.30433 35.0426 3.98223 34.6148 3.88793C34.202 3.7969 33.8525 3.97324 33.6334 4.12982L34.0695 4.74001L34.5056 5.35021C34.5778 5.29861 34.4843 5.39516 34.2919 5.35275C34.0847 5.30706 34.0311 5.16197 34.0575 5.21592L34.731 4.88585ZM34.0695 4.74001L33.6334 4.12982C33.5583 4.18353 33.5483 4.16845 33.5953 4.1646C33.6206 4.16253 33.6509 4.16495 33.6813 4.17396C33.7108 4.18272 33.7283 4.19408 33.7331 4.19759L33.2915 4.80378L32.8498 5.40998C33.0961 5.58937 33.3939 5.68614 33.7178 5.65959C34.0241 5.63448 34.2894 5.50468 34.5056 5.35021L34.0695 4.74001ZM33.2915 4.80378L33.7331 4.19759C33.3407 3.91175 32.8714 3.80029 32.382 3.93012L32.5743 4.65504L32.7666 5.37997C32.7781 5.37692 32.7842 5.37654 32.786 5.37648C32.7877 5.37642 32.7883 5.37652 32.7893 5.37672C32.7896 5.37678 32.8093 5.38043 32.8498 5.40998L33.2915 4.80378ZM32.5743 4.65504L32.382 3.93012C32.3817 3.9302 32.3852 3.92933 32.3909 3.92937C32.3966 3.92941 32.3991 3.9303 32.3969 3.92969C32.3917 3.92825 32.3557 3.91679 32.2893 3.86299L31.8169 4.44544L31.3444 5.0279C31.7305 5.34113 32.2242 5.52386 32.7666 5.37997L32.5743 4.65504ZM31.8169 4.44544L32.2893 3.86299C32.0541 3.67213 31.7164 3.51332 31.3156 3.58392C30.9386 3.65036 30.6747 3.89216 30.5037 4.1115L31.0952 4.57259L31.6868 5.03367C31.7426 4.96201 31.7124 5.03712 31.5759 5.06117C31.5056 5.07356 31.4409 5.06522 31.393 5.04935C31.3498 5.03507 31.3339 5.01941 31.3444 5.0279L31.8169 4.44544ZM31.0952 4.57259L30.5037 4.1115C30.4698 4.15498 30.4426 4.18309 30.4232 4.20036C30.404 4.21752 30.3953 4.22163 30.398 4.22019C30.4016 4.21831 30.4151 4.21206 30.437 4.2083C30.4594 4.20445 30.4808 4.20487 30.498 4.20764L30.378 4.94798L30.258 5.68832C30.8922 5.79112 31.3757 5.43272 31.6868 5.03367L31.0952 4.57259ZM30.378 4.94798L30.498 4.20764C30.188 4.15739 29.8774 4.14454 29.5676 4.17023L29.6296 4.91767L29.6916 5.6651C29.8769 5.64973 30.0652 5.65708 30.258 5.68832L30.378 4.94798ZM29.6296 4.91767L29.5676 4.17023C29.2476 4.19678 28.9371 4.26881 28.6384 4.38595L28.9122 5.08418L29.186 5.78242C29.3487 5.7186 29.5165 5.67962 29.6916 5.6651L29.6296 4.91767ZM28.9122 5.08418L28.6384 4.38595C28.5984 4.40163 28.5102 4.42171 28.3305 4.36886L28.1189 5.08839L27.9073 5.80792C28.3238 5.93041 28.7645 5.94769 29.186 5.78242L28.9122 5.08418ZM28.1189 5.08839L28.3305 4.36886C28.0796 4.29509 27.7976 4.27079 27.5116 4.3518C27.2207 4.43421 26.99 4.60747 26.818 4.82066L27.4018 5.29149L27.9856 5.76233C27.9912 5.7554 27.9886 5.76037 27.9755 5.76945C27.9616 5.7791 27.9425 5.78877 27.9204 5.79503C27.8734 5.80833 27.86 5.79402 27.9073 5.80792L28.1189 5.08839ZM27.4018 5.29149L26.818 4.82066C26.6885 4.98131 26.5602 5.08813 26.4373 5.15786L26.8073 5.81025L27.1773 6.46263C27.4872 6.28683 27.7554 6.04782 27.9856 5.76233L27.4018 5.29149ZM26.8073 5.81025L26.4373 5.15786C26.3675 5.19742 26.2539 5.23376 26.0608 5.22538L26.0283 5.97468L25.9958 6.72397C26.4085 6.74188 26.8141 6.6686 27.1773 6.46263L26.8073 5.81025ZM26.0283 5.97468L26.0608 5.22538C25.7696 5.21274 25.4542 5.28116 25.1858 5.49754C24.9258 5.70712 24.7907 5.99059 24.7229 6.25515L25.4495 6.44125L26.176 6.62734C26.1913 6.56771 26.1942 6.61132 26.1271 6.66538C26.0943 6.69183 26.059 6.70864 26.0288 6.71731C26.0007 6.72537 25.9871 6.7236 25.9958 6.72397L26.0283 5.97468ZM25.4495 6.44125L24.7229 6.25515C24.7001 6.34441 24.6761 6.37959 24.6709 6.3864C24.6687 6.3893 24.6698 6.38721 24.6748 6.38338C24.6799 6.37947 24.6845 6.37718 24.6864 6.37642L24.9671 7.07193L25.2477 7.76744C25.7716 7.55606 26.0534 7.10626 26.176 6.62734L25.4495 6.44125ZM24.9671 7.07193L24.6864 6.37642C24.4412 6.47537 24.1938 6.57931 23.9441 6.68821L24.244 7.37564L24.5439 8.06308C24.7812 7.95957 25.0158 7.86103 25.2477 7.76744L24.9671 7.07193ZM24.244 7.37564L23.9441 6.68821C23.499 6.8824 23.1897 7.233 23.034 7.68345L23.7429 7.92842L24.4517 8.17339C24.4774 8.09922 24.5021 8.0813 24.5439 8.06308L24.244 7.37564ZM23.7429 7.92842L23.034 7.68345C22.9674 7.87599 22.8836 8.02764 22.7887 8.14784L23.3773 8.61264L23.9659 9.07744C24.1771 8.80996 24.337 8.50547 24.4517 8.17339L23.7429 7.92842ZM23.3773 8.61264L22.7887 8.14784C22.7624 8.18115 22.6896 8.24956 22.4877 8.30357L22.6815 9.0281L22.8753 9.75263C23.295 9.64038 23.6861 9.43182 23.9659 9.07744L23.3773 8.61264ZM22.6815 9.0281L22.4877 8.30357C22.194 8.38212 21.8778 8.56048 21.697 8.9112C21.5266 9.24193 21.5487 9.58958 21.6136 9.86002L22.3429 9.68519L23.0723 9.51037C23.052 9.42588 23.088 9.48654 23.0305 9.59824C23.0009 9.6556 22.9597 9.69895 22.921 9.72653C22.8859 9.7516 22.8645 9.7555 22.8753 9.75263L22.6815 9.0281ZM22.3429 9.68519L21.6136 9.86002C21.6305 9.93074 21.5977 9.86829 21.6554 9.7625C21.6831 9.71168 21.7185 9.67725 21.7455 9.65797C21.7696 9.64077 21.7786 9.64143 21.7565 9.648L21.971 10.3667L22.1855 11.0854C22.4747 10.9991 22.7865 10.8212 22.9721 10.481C23.1538 10.1481 23.1404 9.79458 23.0723 9.51037L22.3429 9.68519ZM21.971 10.3667L21.7565 9.648C21.274 9.792 20.8152 10.1008 20.6397 10.6642L21.3558 10.8872L22.0719 11.1103C22.0702 11.1157 22.0666 11.1241 22.0607 11.1329C22.0549 11.1415 22.0506 11.145 22.0519 11.1439C22.056 11.1405 22.0902 11.1138 22.1855 11.0854L21.971 10.3667ZM21.3558 10.8872L20.6397 10.6642C20.5011 11.1093 20.553 11.5636 20.7081 11.9871L21.4124 11.7292L22.1166 11.4713C22.042 11.2675 22.0562 11.1605 22.0719 11.1103L21.3558 10.8872ZM21.4124 11.7292L20.7081 11.9871C20.786 12.1997 20.7606 12.2818 20.7572 12.2914L21.4645 12.5407L22.1719 12.79C22.3287 12.3449 22.2685 11.886 22.1166 11.4713L21.4124 11.7292ZM21.4645 12.5407L20.7572 12.2914C20.7453 12.3251 20.6983 12.4172 20.5128 12.546L20.9404 13.1621L21.3681 13.7782C21.7211 13.5332 22.0235 13.211 22.1719 12.79L21.4645 12.5407ZM20.9404 13.1621L20.5128 12.546C20.0776 12.848 19.7646 13.3229 19.8442 13.9343L20.5879 13.8375L21.3316 13.7408C21.332 13.7437 21.333 13.7555 21.33 13.7731C21.3269 13.7911 21.3211 13.8068 21.3152 13.8181C21.3039 13.8399 21.305 13.822 21.3681 13.7782L20.9404 13.1621ZM20.5879 13.8375L19.8442 13.9343C19.8718 14.1467 19.8759 14.3475 19.8587 14.5381L20.6056 14.6055L21.3526 14.673C21.3803 14.3663 21.3725 14.0552 21.3316 13.7408L20.5879 13.8375ZM20.6056 14.6055L19.8587 14.5381C19.839 14.7553 19.8056 14.9728 19.7581 15.1909L20.491 15.3503L21.2238 15.5098C21.2843 15.2321 21.3273 14.9531 21.3526 14.673L20.6056 14.6055ZM20.491 15.3503L19.7581 15.1909C19.6987 15.4639 19.6534 15.7397 19.6221 16.0182L20.3674 16.1019L21.1127 16.1856C21.1383 15.9578 21.1753 15.7326 21.2238 15.5098L20.491 15.3503ZM20.3674 16.1019L19.6221 16.0182C19.5938 16.2699 19.5645 16.5243 19.5342 16.7815L20.2791 16.8692L21.0239 16.957C21.0545 16.6972 21.0841 16.4401 21.1127 16.1856L20.3674 16.1019ZM20.2791 16.8692L19.5342 16.7815C19.4703 17.3241 19.6995 17.7838 20.0544 18.1274L20.5761 17.5885L21.0977 17.0496C21.0412 16.9949 21.0262 16.9626 21.0237 16.9567C21.0226 16.9538 21.0231 16.9544 21.0235 16.9573C21.0239 16.9602 21.0235 16.9606 21.0239 16.957L20.2791 16.8692ZM20.5761 17.5885L20.0544 18.1274C20.1134 18.1845 20.1327 18.2211 20.138 18.2332C20.1415 18.2412 20.1409 18.2417 20.1407 18.2453L20.8883 18.3044L21.636 18.3635C21.678 17.8322 21.4451 17.386 21.0977 17.0496L20.5761 17.5885ZM20.8883 18.3044L20.1407 18.2453C20.1034 18.7165 20.2596 19.1438 20.564 19.4904L21.1275 18.9955L21.6911 18.5006C21.6361 18.438 21.6327 18.4045 21.636 18.3635L20.8883 18.3044ZM21.1275 18.9955L20.564 19.4904C20.571 19.4984 20.5719 19.5012 20.5704 19.4983C20.5688 19.4952 20.5671 19.4905 20.5661 19.4858C20.5652 19.4813 20.566 19.4817 20.5656 19.4892C20.5652 19.497 20.5635 19.5135 20.5564 19.5398L21.2805 19.7351L22.0046 19.9303C22.1403 19.4272 22.0546 18.9145 21.6911 18.5006L21.1275 18.9955ZM21.2805 19.7351L20.5564 19.5398C20.4348 19.9907 20.4651 20.4633 20.7261 20.8868L21.3646 20.4932L22.003 20.0997C21.9965 20.089 21.9707 20.0563 22.0046 19.9303L21.2805 19.7351ZM21.3646 20.4932L20.7261 20.8868C20.7337 20.8991 20.7351 20.904 20.7342 20.9016C20.7332 20.8987 20.7309 20.8907 20.73 20.8787C20.7291 20.8666 20.7299 20.8555 20.7315 20.8472C20.733 20.8392 20.7344 20.8376 20.7319 20.8432L21.4158 21.151L22.0997 21.4588C22.3074 20.9973 22.2596 20.5159 22.003 20.0997L21.3646 20.4932ZM21.4158 21.151L20.7319 20.8432C20.6412 21.0447 20.5377 21.2511 20.4211 21.4622L21.0776 21.8248L21.7341 22.1874C21.8691 21.943 21.9911 21.7002 22.0997 21.4588L21.4158 21.151ZM21.0776 21.8248L20.4211 21.4622C20.3415 21.6062 20.2437 21.7211 20.1268 21.814L20.5934 22.4012L21.0599 22.9884C21.3371 22.7682 21.5621 22.4989 21.7341 22.1874L21.0776 21.8248ZM20.5934 22.4012L20.1268 21.814C19.931 21.9695 19.7347 22.1245 19.5378 22.2789L20.0006 22.8691L20.4634 23.4593C20.6628 23.3029 20.8616 23.146 21.0599 22.9884L20.5934 22.4012ZM20.0006 22.8691L19.5378 22.2789C19.3296 22.4422 19.1262 22.6102 18.9275 22.7831L19.4198 23.3489L19.912 23.9148C20.0914 23.7587 20.2752 23.6068 20.4634 23.4593L20.0006 22.8691ZM19.4198 23.3489L18.9275 22.7831C18.6864 22.9928 18.4769 23.2328 18.2995 23.501L18.925 23.9148L19.5505 24.3286C19.6546 24.1713 19.7749 24.034 19.912 23.9148L19.4198 23.3489ZM18.925 23.9148L18.2995 23.501C18.1603 23.7114 18.02 23.9208 17.8788 24.1292L18.4996 24.5501L19.1204 24.9709C19.2648 24.7578 19.4082 24.5438 19.5505 24.3286L18.925 23.9148ZM18.4996 24.5501L17.8788 24.1292C17.7675 24.2933 17.6416 24.4399 17.5006 24.5701L18.0097 25.1209L18.5188 25.6716C18.7454 25.4622 18.946 25.2282 19.1204 24.9709L18.4996 24.5501ZM18.0097 25.1209L17.5006 24.5701C17.3296 24.7282 17.1528 24.8807 16.9702 25.0275L17.4402 25.612L17.9102 26.1964C18.1195 26.0281 18.3224 25.8532 18.5188 25.6716L18.0097 25.1209ZM17.4402 25.612L16.9702 25.0275C16.8868 25.0946 16.7597 25.1592 16.5595 25.1978L16.7018 25.9342L16.844 26.6706C17.2365 26.5948 17.6017 26.4446 17.9102 26.1964L17.4402 25.612ZM16.7018 25.9342L16.5595 25.1978C16.1182 25.2831 15.7146 25.4938 15.4302 25.8724L16.0298 26.3229L16.6294 26.7734C16.6483 26.7483 16.6927 26.6999 16.844 26.6706L16.7018 25.9342ZM16.0298 26.3229L15.4302 25.8724C15.2089 26.1669 15.0594 26.5058 14.9693 26.8725L15.6977 27.0515L16.426 27.2304C16.4754 27.0295 16.5473 26.8826 16.6294 26.7734L16.0298 26.3229ZM15.6977 27.0515L14.9693 26.8725C14.9262 27.0481 14.861 27.1526 14.795 27.22L15.3306 27.745L15.8661 28.27C16.1502 27.9803 16.3297 27.6225 16.426 27.2304L15.6977 27.0515ZM15.3306 27.745L14.795 27.22C14.6966 27.3203 14.571 27.4066 14.4065 27.4744L14.6926 28.1677L14.9787 28.861C15.3148 28.7223 15.6145 28.5268 15.8661 28.27L15.3306 27.745ZM14.6926 28.1677L14.4065 27.4744C14.1091 27.5972 13.8313 27.7472 13.5755 27.9259L14.005 28.5408L14.4345 29.1556C14.595 29.0435 14.7756 28.9448 14.9787 28.861L14.6926 28.1677ZM14.005 28.5408L13.5755 27.9259C13.3521 28.082 13.1357 28.2455 12.9264 28.4164L13.4009 28.9973L13.8753 29.5782C14.0552 29.4312 14.2416 29.2904 14.4345 29.1556L14.005 28.5408ZM13.4009 28.9973L12.9264 28.4164C12.7335 28.574 12.5398 28.7308 12.3453 28.8869L12.8147 29.4718L13.2841 30.0568C13.482 29.898 13.679 29.7385 13.8753 29.5782L13.4009 28.9973ZM12.8147 29.4718L12.3453 28.8869C12.0876 29.0937 11.8667 29.337 11.6838 29.6139L12.3095 30.0273L12.9353 30.4407C13.0337 30.2918 13.1496 30.1647 13.2841 30.0568L12.8147 29.4718ZM12.3095 30.0273L11.6838 29.6139C11.581 29.7695 11.4616 29.9046 11.3252 30.0214L11.8128 30.5912L12.3004 31.161C12.545 30.9518 12.7568 30.7109 12.9353 30.4407L12.3095 30.0273ZM11.8128 30.5912L11.3252 30.0214C11.1681 30.1558 10.997 30.2784 10.8111 30.389L11.1945 31.0336L11.5779 31.6781C11.8354 31.525 12.0765 31.3527 12.3004 31.161L11.8128 30.5912ZM11.1945 31.0336L10.8111 30.389C10.37 30.6514 10.1284 31.0738 10.042 31.5438L10.7796 31.6793L11.5173 31.8149C11.5303 31.744 11.548 31.711 11.5555 31.6993C11.5613 31.6903 11.5662 31.6851 11.5779 31.6781L11.1945 31.0336ZM10.7796 31.6793L10.042 31.5438C9.9975 31.7857 9.93125 31.9885 9.84922 32.158L10.5243 32.4847L11.1994 32.8114C11.348 32.5044 11.4519 32.1703 11.5173 31.8149L10.7796 31.6793ZM10.5243 32.4847L9.84922 32.158C9.79774 32.2644 9.73099 32.3344 9.64003 32.387L10.0153 33.0363L10.3905 33.6857C10.7477 33.4793 11.0203 33.1815 11.1994 32.8114L10.5243 32.4847ZM10.0153 33.0363L9.64003 32.387C9.37522 32.54 9.12902 32.7153 8.90258 32.9133L9.39623 33.4779L9.88988 34.0426C10.0407 33.9107 10.2072 33.7916 10.3905 33.6857L10.0153 33.0363ZM9.39623 33.4779L8.90258 32.9133C8.68456 33.1039 8.48244 33.3105 8.29645 33.5329L8.87172 34.0141L9.44699 34.4953C9.58307 34.3326 9.73063 34.1818 9.88988 34.0426L9.39623 33.4779ZM8.87172 34.0141L8.29645 33.5329C8.14563 33.7132 7.98956 33.8881 7.82824 34.0576L8.37159 34.5746L8.91494 35.0916C9.09838 34.8988 9.27573 34.7 9.44699 34.4953L8.87172 34.0141ZM8.37159 34.5746L7.82824 34.0576C7.77063 34.1182 7.67743 34.1808 7.50874 34.2221L7.6869 34.9506L7.86506 35.6791C8.26453 35.5814 8.62779 35.3934 8.91494 35.0916L8.37159 34.5746ZM7.6869 34.9506L7.50874 34.2221C6.98264 34.3507 6.58627 34.7009 6.41811 35.2301L7.13288 35.4572L7.84765 35.6844C7.85212 35.6703 7.85507 35.6663 7.85361 35.6687C7.85294 35.6698 7.85153 35.6719 7.84928 35.6746C7.84701 35.6774 7.84436 35.6802 7.84147 35.6828C7.83858 35.6855 7.836 35.6874 7.8341 35.6887C7.83222 35.69 7.8315 35.6903 7.83241 35.6899C7.83419 35.689 7.84391 35.6843 7.86506 35.6791L7.6869 34.9506ZM7.13288 35.4572L6.41811 35.2301C6.37259 35.3733 6.31009 35.453 6.24366 35.5055L6.70881 36.0938L7.17396 36.6822C7.50242 36.4225 7.72264 36.0777 7.84765 35.6844L7.13288 35.4572ZM6.70881 36.0938L6.24366 35.5055C6.01545 35.6859 5.803 35.8829 5.60665 36.0961L6.15844 36.6041L6.71023 37.1121C6.85281 36.9572 7.00727 36.8139 7.17396 36.6822L6.70881 36.0938ZM6.15844 36.6041L5.60665 36.0961C5.45375 36.2622 5.29303 36.4205 5.12442 36.5711L5.62401 37.1305L6.1236 37.6899C6.32862 37.5068 6.52419 37.3142 6.71023 37.1121L6.15844 36.6041ZM5.62401 37.1305L5.12442 36.5711C4.96122 36.7169 4.77656 36.8631 4.56926 37.0094L5.00165 37.6222L5.43405 38.235C5.68292 38.0594 5.91316 37.8778 6.1236 37.6899L5.62401 37.1305ZM5.00165 37.6222L4.56926 37.0094C4.3191 37.1859 4.12242 37.4474 4.05967 37.7878C4.0012 38.105 4.07552 38.4024 4.18 38.6437L4.86826 38.3457L5.55653 38.0477C5.52185 37.9676 5.54882 37.9838 5.53481 38.0597C5.52731 38.1004 5.51055 38.1423 5.48585 38.1787C5.46222 38.2136 5.44002 38.2308 5.43405 38.235L5.00165 37.6222ZM4.86826 38.3457L4.18 38.6437C4.18931 38.6652 4.18504 38.6633 4.18308 38.6413C4.18089 38.6167 4.18285 38.5794 4.197 38.5378C4.22687 38.4501 4.27471 38.4402 4.2133 38.4779L4.60551 39.1171L4.99772 39.7564C5.25065 39.6012 5.49944 39.3663 5.61689 39.0215C5.73655 38.6702 5.67807 38.3285 5.55653 38.0477L4.86826 38.3457ZM4.60551 39.1171L4.2133 38.4779C3.75663 38.758 3.37106 39.2174 3.41051 39.8627L4.15911 39.8169L4.90771 39.7711C4.90813 39.778 4.90774 39.7916 4.90337 39.8083C4.89903 39.825 4.89304 39.836 4.89046 39.8401C4.88691 39.8456 4.90666 39.8123 4.99772 39.7564L4.60551 39.1171ZM4.15911 39.8169L3.41051 39.8627C3.43677 40.2924 3.58965 40.6846 3.84996 41.0253L4.44589 40.5699L5.04183 40.1145C4.95322 39.9986 4.9149 39.8888 4.90771 39.7711L4.15911 39.8169ZM4.44589 40.5699L3.84996 41.0253C4.04562 41.2813 4.25215 41.5143 4.47032 41.7222L4.98766 41.1792L5.50501 40.6362C5.34974 40.4883 5.19509 40.3151 5.04183 40.1145L4.44589 40.5699ZM4.98766 41.1792L4.47032 41.7222C4.62578 41.8703 4.75125 42.0156 4.85065 42.1572L5.4645 41.7263L6.07835 41.2954C5.9154 41.0633 5.72299 40.8439 5.50501 40.6362L4.98766 41.1792ZM5.4645 41.7263L4.85065 42.1572C5.02145 42.4005 5.22268 42.6166 5.45315 42.8038L5.92596 42.2216L6.39877 41.6394C6.2763 41.5399 6.16989 41.4258 6.07835 41.2954L5.4645 41.7263ZM5.92596 42.2216L5.45315 42.8038C5.45922 42.8087 5.53184 42.8756 5.5988 43.1256L6.32326 42.9316L7.04772 42.7375C6.93788 42.3274 6.74564 41.9211 6.39877 41.6394L5.92596 42.2216ZM6.32326 42.9316L5.5988 43.1256C5.66654 43.3785 5.79044 43.6467 6.0182 43.8569C6.25848 44.0787 6.55362 44.1796 6.8512 44.1881L6.87242 43.4384L6.89365 42.6887C6.89835 42.6888 6.91977 42.6902 6.95056 42.702C6.98253 42.7143 7.01211 42.733 7.03549 42.7546C7.08019 42.7959 7.06837 42.8146 7.04772 42.7375L6.32326 42.9316ZM6.87242 43.4384L6.8512 44.1881C7.0487 44.1936 7.22848 44.2296 7.39497 44.293L7.66179 43.5921L7.9286 42.8911C7.59805 42.7653 7.25158 42.6988 6.89365 42.6887L6.87242 43.4384ZM7.66179 43.5921L7.39497 44.293C7.81309 44.4521 8.24861 44.454 8.66817 44.3035L8.41503 43.5975L8.16188 42.8916C8.07417 42.923 8.00753 42.9212 7.9286 42.8911L7.66179 43.5921ZM8.41503 43.5975L8.66817 44.3035C8.86961 44.2313 9.06636 44.1857 9.25936 44.1644L9.17684 43.4189L9.09432 42.6735C8.77884 42.7084 8.46772 42.7819 8.16188 42.8916L8.41503 43.5975ZM9.17684 43.4189L9.25936 44.1644C9.78081 44.1066 10.1751 43.8069 10.4246 43.3855L9.77922 43.0034L9.13387 42.6213C9.10535 42.6695 9.0883 42.6793 9.09228 42.6765C9.09381 42.6755 9.09665 42.6739 9.09959 42.6728C9.10237 42.6718 9.1013 42.6727 9.09432 42.6735L9.17684 43.4189ZM9.77922 43.0034L10.4246 43.3855C10.4247 43.3853 10.4184 43.3958 10.4028 43.4094C10.3867 43.4235 10.3687 43.4339 10.353 43.4402C10.3231 43.452 10.3344 43.4364 10.4223 43.4491L10.5298 42.7068L10.6373 41.9646C10.3722 41.9262 10.0818 41.9344 9.80177 42.0451C9.50989 42.1604 9.28558 42.3651 9.13387 42.6213L9.77922 43.0034ZM10.5298 42.7068L10.4223 43.4491C10.6932 43.4883 11.0423 43.4794 11.3554 43.2745C11.6873 43.0572 11.8272 42.7212 11.8717 42.4256L11.1301 42.3139L10.3884 42.2023C10.3868 42.2127 10.3886 42.1895 10.4107 42.1498C10.4351 42.106 10.476 42.0573 10.5339 42.0194C10.6469 41.9455 10.7194 41.9765 10.6373 41.9646L10.5298 42.7068ZM11.1301 42.3139L11.8717 42.4256C11.8835 42.3472 11.9014 42.314 11.9063 42.3059C11.9087 42.302 11.9095 42.3016 11.9084 42.3026C11.9073 42.3037 11.9076 42.3031 11.9113 42.3009L11.5374 41.6507L11.1636 41.0006C10.6966 41.2691 10.4612 41.7187 10.3884 42.2023L11.1301 42.3139ZM11.5374 41.6507L11.9113 42.3009C12.1717 42.1512 12.4159 41.9822 12.643 41.7936L12.1639 41.2166L11.6849 40.6395C11.5256 40.7717 11.3521 40.8922 11.1636 41.0006L11.5374 41.6507ZM12.1639 41.2166L12.643 41.7936C12.9841 41.5105 13.1876 41.131 13.2836 40.7121L12.5526 40.5445L11.8215 40.377C11.7857 40.5334 11.7301 40.602 11.6849 40.6395L12.1639 41.2166ZM12.5526 40.5445L13.2836 40.7121C13.2887 40.6899 13.2934 40.6796 13.2944 40.6776C13.2949 40.6766 13.2946 40.6774 13.2932 40.6794C13.2919 40.6815 13.2898 40.6843 13.2869 40.6875C13.284 40.6907 13.2809 40.6937 13.2778 40.6964C13.2746 40.699 13.2721 40.7008 13.2705 40.7018C13.267 40.704 13.2698 40.7015 13.2828 40.6974L13.0523 39.9836L12.8219 39.2699C12.288 39.4423 11.9428 39.8478 11.8215 40.377L12.5526 40.5445ZM13.0523 39.9836L13.2828 40.6974C13.6325 40.5844 13.9513 40.4152 14.2258 40.1815L13.7397 39.6104L13.2536 39.0392C13.1461 39.1307 13.0066 39.2103 12.8219 39.2699L13.0523 39.9836ZM13.7397 39.6104L14.2258 40.1815C14.3393 40.085 14.4827 40.0014 14.6667 39.9371L14.4191 39.2291L14.1715 38.5212C13.8316 38.6401 13.5221 38.8107 13.2536 39.0392L13.7397 39.6104ZM14.4191 39.2291L14.6667 39.9371C14.9281 39.8457 15.1625 39.6843 15.335 39.445C15.503 39.2121 15.5818 38.948 15.6092 38.693L14.8635 38.6129L14.1178 38.5327C14.1109 38.597 14.0985 38.5952 14.1184 38.5677C14.1281 38.5542 14.1408 38.5415 14.1543 38.5317C14.1673 38.5223 14.1749 38.52 14.1715 38.5212L14.4191 39.2291ZM14.8635 38.6129L15.6092 38.693C15.6292 38.5071 15.6812 38.4616 15.6908 38.4532L15.1986 37.8873L14.7064 37.3214C14.3379 37.642 14.1665 38.0802 14.1178 38.5327L14.8635 38.6129ZM15.1986 37.8873L15.6908 38.4532C15.8211 38.3399 15.9746 38.2413 16.156 38.1596L15.8478 37.4758L15.5396 36.7921C15.2336 36.93 14.9543 37.1058 14.7064 37.3214L15.1986 37.8873ZM15.8478 37.4758L16.156 38.1596C16.4345 38.034 16.6982 37.8896 16.9461 37.7259L16.5327 37.1001L16.1194 36.4743C15.9414 36.5918 15.7485 36.6979 15.5396 36.7921L15.8478 37.4758ZM16.5327 37.1001L16.9461 37.7259C17.2292 37.5389 17.4745 37.3095 17.6787 37.0395L17.0804 36.5872L16.4822 36.1348C16.3819 36.2675 16.2621 36.38 16.1194 36.4743L16.5327 37.1001ZM17.0804 36.5872L17.6787 37.0395C17.8712 36.7849 18.0301 36.5046 18.1571 36.2018L17.4655 35.9116L16.774 35.6214C16.692 35.8167 16.5941 35.9868 16.4822 36.1348L17.0804 36.5872ZM17.4655 35.9116L18.1571 36.2018C18.2416 36.0005 18.341 35.8217 18.4538 35.6631L17.8428 35.2282L17.2318 34.7933C17.0507 35.0478 16.8985 35.3246 16.774 35.6214L17.4655 35.9116ZM17.8428 35.2282L18.4538 35.6631C18.6002 35.4576 18.7469 35.2525 18.8941 35.0478L18.2852 34.6099L17.6763 34.1721C17.5277 34.3787 17.3795 34.5858 17.2318 34.7933L17.8428 35.2282ZM18.2852 34.6099L18.8941 35.0478C18.8919 35.0509 18.8882 35.0549 18.8841 35.0582C18.8802 35.0613 18.8798 35.0607 18.8862 35.0578C18.9004 35.0515 18.9474 35.0347 19.0467 35.0308L19.0173 34.2814L18.988 33.532C18.5022 33.551 18.0021 33.719 17.6763 34.1721L18.2852 34.6099ZM19.0173 34.2814L19.0467 35.0308C19.3369 35.0195 19.6734 34.9324 19.9371 34.6663C20.2004 34.4007 20.2849 34.064 20.2949 33.7747L19.5454 33.7488L18.7958 33.7229C18.794 33.7753 18.7846 33.6983 18.8719 33.6102C18.9597 33.5217 19.038 33.53 18.988 33.532L19.0173 34.2814ZM19.5454 33.7488L20.2949 33.7747C20.2982 33.6798 20.3148 33.6456 20.3146 33.646C20.314 33.6471 20.3102 33.6542 20.3018 33.6634C20.2933 33.6726 20.2848 33.6789 20.2795 33.6821L19.8952 33.038L19.511 32.3939C19.0013 32.698 18.8132 33.2192 18.7958 33.7229L19.5454 33.7488ZM19.8952 33.038L20.2795 33.6821C20.5595 33.515 20.8112 33.3136 21.0316 33.0778L20.4836 32.5657L19.9357 32.0536C19.8145 32.1833 19.6738 32.2968 19.511 32.3939L19.8952 33.038ZM20.4836 32.5657L21.0316 33.0778C21.1424 32.9593 21.2755 32.8573 21.4364 32.7727L21.0874 32.1089L20.7385 31.445C20.4359 31.604 20.1665 31.8066 19.9357 32.0536L20.4836 32.5657ZM21.0874 32.1089L21.4364 32.7727C21.7873 32.5883 22.072 32.3223 22.2768 31.9824L21.6345 31.5953L20.9921 31.2081C20.9311 31.3094 20.8511 31.3858 20.7385 31.445L21.0874 32.1089ZM21.6345 31.5953L22.2768 31.9824C22.3202 31.9105 22.3806 31.8541 22.4905 31.8104L22.2134 31.1135L21.9362 30.4166C21.5402 30.574 21.2147 30.8388 20.9921 31.2081L21.6345 31.5953ZM22.2134 31.1135L22.4905 31.8104C22.9029 31.6464 23.2312 31.3601 23.4395 30.9626L22.7751 30.6146L22.1107 30.2665C22.0759 30.333 22.0297 30.3794 21.9362 30.4166L22.2134 31.1135ZM22.7751 30.6146L23.4395 30.9626C23.4494 30.9436 23.457 30.9368 23.4639 30.9318C23.4726 30.9253 23.4991 30.9085 23.5595 30.8941L23.3857 30.1645L23.212 29.4349C22.7439 29.5464 22.3458 29.8179 22.1107 30.2665L22.7751 30.6146ZM23.3857 30.1645L23.5595 30.8941C23.8519 30.8245 24.1303 30.6644 24.3243 30.3855C24.509 30.1201 24.5673 29.8187 24.5708 29.5489L23.8209 29.539L23.071 29.5292C23.0699 29.6083 23.0535 29.5857 23.093 29.5288C23.1134 29.4996 23.14 29.4743 23.1683 29.4561C23.1952 29.4388 23.2131 29.4347 23.212 29.4349L23.3857 30.1645ZM23.8209 29.539L24.5708 29.5489C24.5716 29.4928 24.5837 29.5829 24.4835 29.6812C24.3846 29.7783 24.2977 29.7639 24.3589 29.7636L24.3562 29.0136L24.3534 28.2636C24.0624 28.2647 23.7101 28.3385 23.4328 28.6107C23.1542 28.8841 23.0748 29.2363 23.071 29.5292L23.8209 29.539ZM24.3562 29.0136L24.3589 29.7636C24.8417 29.7619 25.3543 29.6235 25.7048 29.1905L25.1218 28.7186L24.5389 28.2467C24.5497 28.2334 24.5583 28.2329 24.5421 28.2391C24.5203 28.2475 24.4633 28.2632 24.3534 28.2636L24.3562 29.0136ZM25.1218 28.7186L25.7048 29.1905C26.0129 28.8099 26.1077 28.335 26.1 27.8738L25.3501 27.8863L24.6002 27.8987C24.6045 28.1566 24.5471 28.2366 24.5389 28.2467L25.1218 28.7186ZM25.3501 27.8863L26.1 27.8738C26.0982 27.7629 26.114 27.7137 26.1181 27.7035C26.1196 27.6997 26.118 27.7048 26.1108 27.7141C26.1034 27.7238 26.0941 27.7326 26.0852 27.7389L25.6515 27.127L25.2178 26.5151C24.7324 26.8591 24.592 27.4031 24.6002 27.8987L25.3501 27.8863ZM25.6515 27.127L26.0852 27.7389C26.2438 27.6265 26.4227 27.5277 26.6244 27.4438L26.3365 26.7513L26.0485 26.0588C25.7508 26.1826 25.4731 26.3342 25.2178 26.5151L25.6515 27.127ZM26.3365 26.7513L26.6244 27.4438C26.6816 27.42 26.6976 27.4239 26.6809 27.4238C26.6718 27.4238 26.6565 27.4226 26.6375 27.4174C26.6184 27.4122 26.6009 27.4044 26.5865 27.3957L26.9729 26.753L27.3593 26.1102C26.9173 25.8444 26.4396 25.8962 26.0485 26.0588L26.3365 26.7513ZM26.9729 26.753L26.5865 27.3957C26.9307 27.6027 27.3226 27.6566 27.6982 27.6353L27.6558 26.8865L27.6133 26.1377C27.4275 26.1482 27.3642 26.1131 27.3593 26.1102L26.9729 26.753ZM27.6558 26.8865L27.6982 27.6353C27.8734 27.6254 28.0088 27.653 28.1197 27.7022L28.4238 27.0166L28.7279 26.331C28.3761 26.175 27.9995 26.1158 27.6133 26.1377L27.6558 26.8865ZM28.4238 27.0166L28.1197 27.7022C28.4104 27.8311 28.7135 27.9208 29.0275 27.9708L29.1455 27.2302L29.2634 26.4895C29.0779 26.46 28.8999 26.4073 28.7279 26.331L28.4238 27.0166ZM29.1455 27.2302L29.0275 27.9708C29.3098 28.0158 29.5939 28.0421 29.8796 28.0496L29.8994 27.2999L29.9191 26.5501C29.6992 26.5443 29.4807 26.5241 29.2634 26.4895L29.1455 27.2302ZM29.8994 27.2999L29.8796 28.0496C30.0282 28.0535 30.1762 28.0869 30.3287 28.1561L30.6385 27.473L30.9483 26.79C30.621 26.6416 30.2763 26.5595 29.9191 26.5501L29.8994 27.2999ZM30.6385 27.473L30.3287 28.1561C30.6418 28.2981 30.9692 28.3868 31.3084 28.4184L31.378 27.6716L31.4476 26.9249C31.2805 26.9093 31.115 26.8656 30.9483 26.79L30.6385 27.473ZM31.378 27.6716L31.3084 28.4184C31.5151 28.4377 31.7268 28.4767 31.9438 28.5368L32.1441 27.8141L32.3443 27.0913C32.0461 27.0087 31.7471 26.9528 31.4476 26.9249L31.378 27.6716ZM32.1441 27.8141L31.9438 28.5368C32.453 28.6779 32.9373 28.5531 33.3381 28.2565L32.892 27.6536L32.4459 27.0507C32.3963 27.0874 32.3704 27.0934 32.3669 27.0942C32.3646 27.0947 32.3635 27.0947 32.3622 27.0946C32.3607 27.0946 32.3551 27.0943 32.3443 27.0913L32.1441 27.8141ZM32.892 27.6536L33.3381 28.2565C33.357 28.2425 33.3686 28.2369 33.3726 28.2352C33.3762 28.2337 33.3747 28.2347 33.3694 28.2355C33.3641 28.2362 33.3606 28.2358 33.3609 28.2359C33.3616 28.236 33.37 28.2372 33.3869 28.2438L33.6605 27.5455L33.934 26.8471C33.414 26.6434 32.887 26.7243 32.4459 27.0507L32.892 27.6536ZM33.6605 27.5455L33.3869 28.2438C33.8035 28.407 34.2478 28.4364 34.6831 28.2833L34.4343 27.5758L34.1854 26.8683C34.1316 26.8872 34.06 26.8965 33.934 26.8471L33.6605 27.5455ZM34.4343 27.5758L34.6831 28.2833C34.8903 28.2105 35.1008 28.1548 35.3151 28.1161L35.1818 27.378L35.0485 26.64C34.7553 26.6929 34.4675 26.7691 34.1854 26.8683L34.4343 27.5758ZM35.1818 27.378L35.3151 28.1161C35.7119 28.0444 36.0652 27.866 36.3667 27.6005L35.8712 27.0375L35.3756 26.4746C35.2656 26.5714 35.1593 26.62 35.0485 26.64L35.1818 27.378ZM35.8712 27.0375L36.3667 27.6005C36.6023 27.3931 36.821 27.1675 37.0228 26.924L36.4455 26.4454L35.8681 25.9667C35.7157 26.1505 35.5516 26.3197 35.3756 26.4746L35.8712 27.0375ZM36.4455 26.4454L37.0228 26.924C37.1445 26.7773 37.2638 26.6843 37.3772 26.6261L37.0347 25.9588L36.6923 25.2916C36.3742 25.4549 36.1006 25.6862 35.8681 25.9667L36.4455 26.4454ZM37.0347 25.9588L37.3772 26.6261C37.4808 26.5729 37.6184 26.5338 37.8065 26.527L37.7793 25.7775L37.7521 25.028C37.3789 25.0415 37.0201 25.1233 36.6923 25.2916L37.0347 25.9588ZM37.7793 25.7775L37.8065 26.527C38.3104 26.5087 38.7525 26.2836 39.0451 25.8542L38.4252 25.4319L37.8054 25.0097C37.7979 25.0206 37.7935 25.0247 37.7933 25.0249C37.7933 25.0249 37.7949 25.0235 37.7975 25.0221C37.7999 25.0208 37.7994 25.0216 37.7937 25.023C37.7877 25.0246 37.7745 25.0272 37.7521 25.028L37.7793 25.7775ZM38.4252 25.4319L39.0451 25.8542C39.0854 25.795 39.1303 25.7606 39.2199 25.7399L39.0514 25.0091L38.8828 24.2783C38.4376 24.381 38.0651 24.6284 37.8054 25.0097L38.4252 25.4319ZM39.0514 25.0091L39.2199 25.7399C39.6534 25.6399 40.0248 25.4061 40.2873 25.0357L39.6754 24.602L39.0635 24.1683C39.0288 24.2173 38.9842 24.2549 38.8828 24.2783L39.0514 25.0091ZM39.6754 24.602L40.2873 25.0357C40.4135 24.8577 40.5493 24.6952 40.6946 24.5475L40.16 24.0215L39.6253 23.4956C39.4218 23.7024 39.2346 23.9269 39.0635 24.1683L39.6754 24.602ZM40.16 24.0215L40.6946 24.5475C40.9049 24.3337 41.0918 24.1003 41.2549 23.8479L40.625 23.4408L39.9952 23.0336C39.887 23.201 39.7638 23.3547 39.6253 23.4956L40.16 24.0215ZM40.625 23.4408L41.2549 23.8479C41.4329 23.5724 41.5664 23.2729 41.6568 22.953L40.935 22.749L40.2133 22.5451C40.1617 22.7277 40.0885 22.8893 39.9952 23.0336L40.625 23.4408ZM40.935 22.749L41.6568 22.953C41.6925 22.8265 41.7497 22.7364 41.8271 22.6639L41.3142 22.1166L40.8014 21.5694C40.5151 21.8376 40.3195 22.1691 40.2133 22.5451L40.935 22.749ZM41.3142 22.1166L41.8271 22.6639C41.9724 22.5277 42.1448 22.3935 42.347 22.2628L41.9399 21.6329L41.5328 21.003C41.2644 21.1765 41.0196 21.3648 40.8014 21.5694L41.3142 22.1166ZM41.9399 21.6329L42.347 22.2628C42.6939 22.0386 42.9675 21.7348 43.1312 21.3494L42.4409 21.0562L41.7505 20.7631C41.7168 20.8424 41.6565 20.9231 41.5328 21.003L41.9399 21.6329ZM42.4409 21.0562L43.1312 21.3494C43.224 21.131 43.3234 20.9152 43.4295 20.7021L42.7582 20.3678L42.0868 20.0334C41.9672 20.2735 41.8551 20.5167 41.7505 20.7631L42.4409 21.0562ZM42.7582 20.3678L43.4295 20.7021C43.6501 20.2591 43.6375 19.7865 43.4902 19.3491L42.7794 19.5886L42.0687 19.8281C42.1187 19.9764 42.0919 20.0232 42.0868 20.0334L42.7582 20.3678ZM42.7794 19.5886L43.4902 19.3491C43.4844 19.3321 43.4864 19.3311 43.487 19.3437C43.4876 19.3576 43.4862 19.38 43.4782 19.4063C43.4702 19.4324 43.4591 19.4512 43.4517 19.4611C43.4451 19.4701 43.4452 19.4671 43.4608 19.4549L43.0009 18.8624L42.541 18.27C42.3243 18.4382 42.1351 18.668 42.0434 18.9686C41.9515 19.2698 41.9806 19.5667 42.0687 19.8281L42.7794 19.5886ZM43.0009 18.8624L43.4608 19.4549C43.6746 19.2889 43.8708 19.0561 43.9569 18.7436C44.0442 18.4272 43.9927 18.1235 43.8831 17.8678L43.1938 18.1632L42.5044 18.4585C42.5092 18.4698 42.5045 18.4628 42.5021 18.4401C42.4995 18.4157 42.5006 18.382 42.5109 18.3448C42.5328 18.2654 42.5736 18.2447 42.541 18.27L43.0009 18.8624ZM43.1938 18.1632L43.8831 17.8678C43.7972 17.6671 43.7696 17.5119 43.7709 17.3942L43.021 17.3861L42.271 17.3781C42.267 17.7465 42.3547 18.1093 42.5044 18.4585L43.1938 18.1632ZM43.021 17.3861L43.7709 17.3942C43.7729 17.2124 43.7968 17.0315 43.8434 16.8501L43.1171 16.6632L42.3908 16.4762C42.3145 16.7728 42.2743 17.0738 42.271 17.3781L43.021 17.3861ZM43.1171 16.6632L43.8434 16.8501C43.8661 16.7622 43.9332 16.6202 44.1069 16.4255L43.5475 15.926L42.988 15.4265C42.711 15.7369 42.4911 16.0863 42.3908 16.4762L43.1171 16.6632ZM43.5475 15.926L44.1069 16.4255C44.429 16.0648 44.6483 15.6033 44.5823 15.0704L43.838 15.1626L43.0937 15.2549C43.0937 15.2551 43.0955 15.2599 43.0882 15.2791C43.0792 15.3027 43.054 15.3526 42.988 15.4265L43.5475 15.926ZM43.838 15.1626L44.5823 15.0704C44.5229 14.5916 44.2686 14.1993 43.929 13.8921L43.4259 14.4484L42.9228 15.0047C43.069 15.1369 43.0894 15.2207 43.0937 15.2549L43.838 15.1626ZM43.4259 14.4484L43.929 13.8921C43.8773 13.8454 43.8821 13.8318 43.8912 13.8584C43.8956 13.8715 43.8984 13.8869 43.8986 13.9019C43.8988 13.9164 43.8965 13.9229 43.8976 13.9191L43.176 13.7147L42.4544 13.5103C42.3784 13.7786 42.3764 14.0635 42.4713 14.342C42.5636 14.6132 42.7316 14.8317 42.9228 15.0047L43.4259 14.4484ZM43.176 13.7147L43.8976 13.9191C44.0082 13.5285 44.0191 13.1243 43.9469 12.7181L43.2085 12.8493L42.4701 12.9805C42.5072 13.1893 42.4964 13.3621 42.4544 13.5103L43.176 13.7147ZM43.2085 12.8493L43.9469 12.7181C43.8989 12.448 43.7684 12.1182 43.4467 11.9031C43.1283 11.6902 42.7764 11.6928 42.5118 11.7453L42.6577 12.481L42.8036 13.2167C42.8515 13.2072 42.7477 13.2401 42.613 13.1501C42.4748 13.0577 42.4634 12.9431 42.4701 12.9805L43.2085 12.8493ZM42.6577 12.481L42.5118 11.7453C42.0995 11.8271 41.7122 11.9928 41.4031 12.2824L41.9159 12.8297L42.4287 13.377C42.4835 13.3257 42.5907 13.2589 42.8036 13.2167L42.6577 12.481ZM41.9159 12.8297L41.4031 12.2824C41.1334 12.5351 40.9326 12.8421 40.7952 13.1883L41.4923 13.465L42.1894 13.7417C42.2529 13.5817 42.3346 13.4652 42.4287 13.377L41.9159 12.8297ZM41.4923 13.465L40.7952 13.1883C40.719 13.3802 40.6257 13.5425 40.5181 13.6801L41.1088 14.1422L41.6995 14.6044C41.9022 14.3452 42.0646 14.056 42.1894 13.7417L41.4923 13.465ZM41.1088 14.1422L40.5181 13.6801C40.5253 13.6708 40.5341 13.6627 40.5423 13.6569C40.5501 13.6515 40.5525 13.6516 40.545 13.6542C40.5274 13.6605 40.4701 13.6754 40.3526 13.6714L40.327 14.421L40.3014 15.1706C40.7922 15.1873 41.3378 15.0666 41.6995 14.6044L41.1088 14.1422ZM40.327 14.421L40.3526 13.6714C39.8651 13.6548 39.3262 13.771 38.9596 14.2162L39.5384 14.693L40.1173 15.1699C40.1001 15.1909 40.0848 15.1938 40.0999 15.1886C40.1218 15.1811 40.1826 15.1665 40.3014 15.1706L40.327 14.421ZM39.5384 14.693L38.9596 14.2162C38.7635 14.4542 38.5944 14.7146 38.4516 14.9955L39.1202 15.3354L39.7887 15.6753C39.8842 15.4874 39.994 15.3196 40.1173 15.1699L39.5384 14.693ZM39.1202 15.3354L38.4516 14.9955C38.3802 15.136 38.2906 15.243 38.1827 15.327L38.6431 15.919L39.1035 16.5111C39.3933 16.2857 39.6218 16.0037 39.7887 15.6753L39.1202 15.3354ZM38.6431 15.919L38.1827 15.327C38.0122 15.4595 37.8297 15.5819 37.6346 15.6938L38.0078 16.3443L38.3809 16.9949C38.6352 16.8491 38.8762 16.6878 39.1035 16.5111L38.6431 15.919ZM38.0078 16.3443L37.6346 15.6938C37.3302 15.8684 37.0663 16.0928 36.8489 16.3661L37.4358 16.833L38.0227 17.3C38.1186 17.1794 38.236 17.078 38.3809 16.9949L38.0078 16.3443ZM37.4358 16.833L36.8489 16.3661C36.705 16.5469 36.5545 16.7208 36.3974 16.8878L36.9437 17.4016L37.4901 17.9155C37.6757 17.7182 37.8532 17.5129 38.0227 17.3L37.4358 16.833ZM36.9437 17.4016L36.3974 16.8878C36.183 17.1158 35.998 17.3695 35.8421 17.6466L36.4957 18.0143L37.1494 18.3821C37.2481 18.2067 37.3618 18.0519 37.4901 17.9155L36.9437 17.4016ZM36.4957 18.0143L35.8421 17.6466C35.693 17.9116 35.5655 18.1933 35.4588 18.4904L36.1646 18.7439L36.8704 18.9975C36.9506 18.7743 37.0439 18.5696 37.1494 18.3821L36.4957 18.0143ZM36.1646 18.7439L35.4588 18.4904C35.4072 18.634 35.3252 18.7591 35.2031 18.8718L35.712 19.4227L36.221 19.9736C36.5154 19.7016 36.7351 19.3741 36.8704 18.9975L36.1646 18.7439ZM35.712 19.4227L35.2031 18.8718C35.1231 18.9458 35.0378 18.9839 34.9176 18.992L34.9678 19.7403L35.018 20.4886C35.4736 20.458 35.8844 20.2845 36.221 19.9736L35.712 19.4227ZM34.9678 19.7403L34.9176 18.992C34.5646 19.0157 34.2204 19.0846 33.8866 19.1987L34.1292 19.9084L34.3718 20.618C34.5805 20.5467 34.7953 20.5036 35.018 20.4886L34.9678 19.7403ZM34.1292 19.9084L33.8866 19.1987C33.8245 19.2199 33.7949 19.2172 33.7369 19.1826L33.3524 19.8265L32.9678 20.4704C33.4032 20.7305 33.8915 20.7823 34.3718 20.618L34.1292 19.9084ZM33.3524 19.8265L33.7369 19.1826C33.4567 19.0152 33.169 18.8731 32.8741 18.7575L32.6003 19.4558L32.3266 20.154C32.5411 20.2381 32.7548 20.3432 32.9678 20.4704L33.3524 19.8265ZM32.6003 19.4558L32.8741 18.7575C32.8448 18.746 32.8357 18.7364 32.8323 18.7327C32.8279 18.728 32.8124 18.7097 32.7962 18.6601L32.0833 18.8933L31.3705 19.1264C31.5254 19.6001 31.8499 19.9671 32.3266 20.154L32.6003 19.4558ZM32.0833 18.8933L32.7962 18.6601C32.6325 18.1596 32.2727 17.7956 31.7627 17.639L31.5426 18.356L31.3225 19.0729C31.34 19.0783 31.3487 19.0829 31.3515 19.0846C31.354 19.086 31.3535 19.086 31.352 19.0846C31.3506 19.0831 31.3515 19.0836 31.3543 19.0883C31.3574 19.0934 31.3635 19.1051 31.3705 19.1264L32.0833 18.8933ZM31.5426 18.356L31.7627 17.639C31.6465 17.6033 31.6007 17.5566 31.571 17.5086L30.9337 17.9042L30.2965 18.2997C30.5375 18.688 30.8977 18.9425 31.3225 19.0729L31.5426 18.356ZM30.9337 17.9042L31.571 17.5086C31.4383 17.2949 31.3076 17.0793 31.1787 16.8617L30.5334 17.2438L29.888 17.626C30.0222 17.8525 30.1583 18.0771 30.2965 18.2997L30.9337 17.9042ZM30.5334 17.2438L31.1787 16.8617C31.0694 16.6771 30.972 16.4761 30.8873 16.2575L30.188 16.5286L29.4887 16.7996C29.6015 17.0906 29.7343 17.3664 29.888 17.626L30.5334 17.2438ZM30.188 16.5286L30.8873 16.2575C30.7399 15.8771 30.5003 15.5535 30.1648 15.3148L29.73 15.9259L29.2952 16.537C29.3729 16.5922 29.4386 16.6704 29.4887 16.7996L30.188 16.5286ZM29.73 15.9259L30.1648 15.3148C29.9765 15.1808 29.8038 15.0452 29.6463 14.9082L29.1543 15.4743L28.6623 16.0404C28.8592 16.2116 29.0704 16.377 29.2952 16.537L29.73 15.9259ZM29.1543 15.4743L29.6463 14.9082C29.6235 14.8885 29.6171 14.8765 29.6154 14.8733C29.6139 14.8703 29.6092 14.8607 29.6072 14.8364L28.8597 14.8985L28.1123 14.9606C28.1479 15.3893 28.3405 15.7607 28.6623 16.0404L29.1543 15.4743ZM28.8597 14.8985L29.6072 14.8364C29.5785 14.4913 29.473 14.1653 29.2847 13.8726L28.6539 14.2784L28.0232 14.6842C28.0711 14.7587 28.1028 14.8461 28.1123 14.9606L28.8597 14.8985ZM28.6539 14.2784L29.2847 13.8726C29.2169 13.7673 29.1395 13.6571 29.0548 13.5649C29.0131 13.5193 28.9504 13.4569 28.8681 13.4007C28.797 13.3522 28.6318 13.253 28.4013 13.253V14.003V14.753C28.2939 14.753 28.2073 14.7288 28.149 14.706C28.0909 14.6833 28.0483 14.6573 28.0226 14.6398C27.9962 14.6217 27.9778 14.6059 27.9677 14.5967C27.9573 14.5873 27.9512 14.5807 27.9495 14.5789C27.9491 14.5784 27.9728 14.6059 28.0232 14.6842L28.6539 14.2784ZM28.4013 14.003V13.253C28.763 13.253 28.9494 13.4991 28.9953 13.5697C29.0247 13.6149 29.0408 13.6524 29.0483 13.6713C29.0564 13.6917 29.0602 13.7055 29.0612 13.7093C29.0619 13.7118 29.0519 13.6684 29.0425 13.5481L28.2947 13.6067L27.547 13.6653C27.5583 13.8091 27.5764 13.964 27.6126 14.0986C27.6292 14.1603 27.6636 14.2732 27.7374 14.3868C27.8047 14.4904 28.0144 14.753 28.4013 14.753V14.003ZM29.3444 14.4026L28.5952 14.4375C28.6145 14.8512 28.7497 15.2341 28.9943 15.5682L29.5995 15.1252L30.2046 14.6821C30.134 14.5857 30.0991 14.4868 30.0936 14.3677L29.3444 14.4026ZM29.5995 15.1252L28.9943 15.5682C29.2738 15.95 29.6679 16.1792 30.1171 16.2748L30.2732 15.5413L30.4294 14.8077C30.2955 14.7792 30.2404 14.731 30.2046 14.6821L29.5995 15.1252ZM30.2732 15.5413L30.1171 16.2748C30.2712 16.3076 30.3291 16.3599 30.3581 16.3964L30.9453 15.9299L31.5325 15.4633C31.2485 15.1058 30.8584 14.899 30.4294 14.8077L30.2732 15.5413ZM30.9453 15.9299L30.3581 16.3964C30.442 16.5019 30.5157 16.6435 30.5676 16.8376L31.2921 16.6437L32.0166 16.4498C31.9193 16.0861 31.7618 15.7518 31.5325 15.4633L30.9453 15.9299ZM31.2921 16.6437L30.5676 16.8376C30.6649 17.2012 30.8223 17.5354 31.0513 17.8239L31.6388 17.3576L32.2262 16.8913C32.1423 16.7857 32.0686 16.644 32.0166 16.4498L31.2921 16.6437ZM31.6388 17.3576L31.0513 17.8239C31.2452 18.0682 31.4659 18.2864 31.7125 18.4776L32.1721 17.8849L32.6318 17.2923C32.4801 17.1746 32.3452 17.0413 32.2262 16.8913L31.6388 17.3576ZM32.1721 17.8849L31.7125 18.4776C31.9198 18.6384 32.1349 18.7983 32.3577 18.9574L32.7935 18.347L33.2294 17.7366C33.0219 17.5885 32.8227 17.4404 32.6318 17.2923L32.1721 17.8849ZM32.7935 18.347L32.3577 18.9574C32.5872 19.1213 32.8358 19.2864 33.103 19.4528L33.4996 18.8163L33.8962 18.1797C33.6522 18.0277 33.4301 17.88 33.2294 17.7366L32.7935 18.347ZM33.4996 18.8163L33.103 19.4528C33.33 19.5943 33.5963 19.6868 33.8908 19.6837C34.1848 19.6806 34.4486 19.5829 34.6724 19.4386L34.2661 18.8082L33.8598 18.1778C33.8429 18.1887 33.8367 18.19 33.8411 18.1886C33.8462 18.1869 33.8583 18.1839 33.875 18.1837C33.8917 18.1836 33.9045 18.1863 33.9109 18.1882C33.9165 18.19 33.9117 18.1894 33.8962 18.1797L33.4996 18.8163ZM34.2661 18.8082L34.6724 19.4386C34.9764 19.2427 35.2444 19.0194 35.4638 18.7637L34.8945 18.2753L34.3253 17.787C34.2176 17.9125 34.0667 18.0445 33.8598 18.1778L34.2661 18.8082ZM34.8945 18.2753L35.4638 18.7637C35.642 18.5559 35.8112 18.3397 35.9712 18.1151L35.3605 17.6798L34.7498 17.2445C34.6155 17.4328 34.474 17.6136 34.3253 17.787L34.8945 18.2753ZM35.3605 17.6798L35.9712 18.1151C36.071 17.9752 36.1892 17.8563 36.3282 17.7559L35.8892 17.1478L35.4502 16.5397C35.1785 16.7359 34.9443 16.9716 34.7498 17.2445L35.3605 17.6798ZM35.8892 17.1478L36.3282 17.7559C36.6151 17.5488 36.8526 17.2914 37.0381 16.9892L36.3989 16.5969L35.7597 16.2045C35.6762 16.3405 35.5739 16.4504 35.4502 16.5397L35.8892 17.1478ZM36.3989 16.5969L37.0381 16.9892C37.1547 16.7991 37.2817 16.6213 37.4188 16.4552L36.8404 15.9777L36.262 15.5002C36.0794 15.7215 35.912 15.9564 35.7597 16.2045L36.3989 16.5969ZM36.8404 15.9777L37.4188 16.4552C37.5137 16.3402 37.6312 16.2434 37.7788 16.1648L37.4262 15.5029L37.0736 14.8409C36.7599 15.008 36.4869 15.2278 36.262 15.5002L36.8404 15.9777ZM37.4262 15.5029L37.7788 16.1648C38.0195 16.0366 38.2558 15.9036 38.4878 15.766L38.105 15.121L37.7222 14.4761C37.5104 14.6018 37.2942 14.7234 37.0736 14.8409L37.4262 15.5029ZM38.105 15.121L38.4878 15.766C38.7711 15.5979 39.0244 15.3934 39.2446 15.1525L38.6911 14.6465L38.1375 14.1404C38.02 14.269 37.8826 14.3809 37.7222 14.4761L38.105 15.121ZM38.6911 14.6465L39.2446 15.1525C39.3417 15.0463 39.464 14.9559 39.6212 14.8834L39.3074 14.2022L38.9937 13.521C38.6668 13.6715 38.3782 13.8772 38.1375 14.1404L38.6911 14.6465ZM39.3074 14.2022L39.6212 14.8834C39.9204 14.7457 40.195 14.5739 40.4414 14.3666L39.9585 13.7927L39.4757 13.2188C39.3381 13.3346 39.1786 13.4358 38.9937 13.521L39.3074 14.2022ZM39.9585 13.7927L40.4414 14.3666C40.7835 14.0788 40.9829 13.6934 41.0735 13.2709L40.3402 13.1136L39.6069 12.9564C39.5726 13.1162 39.5176 13.1835 39.4757 13.2188L39.9585 13.7927ZM40.3402 13.1136L41.0735 13.2709C41.0854 13.2154 41.0988 13.201 41.0958 13.205C41.0947 13.2063 41.093 13.208 41.0917 13.209C41.0906 13.2099 41.0934 13.2074 41.103 13.2032L40.8031 12.5158L40.5031 11.8284C40.009 12.044 39.7135 12.4589 39.6069 12.9564L40.3402 13.1136ZM40.8031 12.5158L41.103 13.2032C41.4556 13.0494 41.7591 12.8219 41.9946 12.5171L41.401 12.0586L40.8075 11.6001C40.7379 11.6902 40.6428 11.7674 40.5031 11.8284L40.8031 12.5158ZM41.401 12.0586L41.9946 12.5171C42.0349 12.4649 42.0639 12.4515 42.1088 12.4442L41.988 11.704L41.8672 10.9638C41.4344 11.0344 41.0722 11.2574 40.8075 11.6001L41.401 12.0586ZM41.988 11.704L42.1088 12.4442C42.2942 12.4139 42.4745 12.4049 42.6507 12.4157L42.6969 11.6672L42.743 10.9186C42.4516 10.9006 42.1593 10.9161 41.8672 10.9638L41.988 11.704ZM42.6969 11.6672L42.6507 12.4157C42.7015 12.4189 42.7176 12.4298 42.7403 12.4536L43.2834 11.9363L43.8264 11.419C43.5347 11.1128 43.1599 10.9443 42.743 10.9186L42.6969 11.6672ZM43.2834 11.9363L42.7403 12.4536C42.8453 12.5638 42.9186 12.6734 42.9684 12.782L43.6501 12.4693L44.3318 12.1566C44.207 11.8845 44.0358 11.6388 43.8264 11.419L43.2834 11.9363ZM43.6501 12.4693L42.9684 12.782C43.1054 13.0807 43.3177 13.351 43.5668 13.5964L44.093 13.062L44.6192 12.5275C44.4524 12.3633 44.3694 12.2386 44.3318 12.1566L43.6501 12.4693ZM44.093 13.062L43.5668 13.5964C43.6096 13.6385 43.6212 13.664 43.6237 13.6703C43.6253 13.6742 43.6278 13.6802 43.6264 13.6988L44.374 13.7583L45.1216 13.8179C45.1622 13.309 44.9636 12.8666 44.6192 12.5275L44.093 13.062ZM44.374 13.7583L43.6264 13.6988C43.6053 13.9635 43.5873 14.2247 43.5725 14.4821L44.3212 14.5252L45.07 14.5684C45.0842 14.3222 45.1014 14.0721 45.1216 13.8179L44.374 13.7583ZM44.3212 14.5252L43.5725 14.4821C43.5508 14.8582 43.621 15.2233 43.7723 15.5691L44.4594 15.2685L45.1465 14.968C45.0846 14.8263 45.0626 14.6959 45.07 14.5684L44.3212 14.5252ZM44.4594 15.2685L43.7723 15.5691C43.8601 15.7699 43.9269 15.9734 43.9733 16.1799L44.705 16.0154L45.4368 15.8509C45.3689 15.5491 45.2719 15.2546 45.1465 14.968L44.4594 15.2685ZM44.705 16.0154L43.9733 16.1799C43.9741 16.1835 43.9744 16.1859 43.9745 16.1872C43.9747 16.1885 43.9747 16.1891 43.9747 16.1892C43.9747 16.1893 43.9747 16.1895 43.9746 16.1899C43.9745 16.1903 43.9744 16.1914 43.9738 16.1934C43.972 16.2001 43.962 16.2313 43.9176 16.2866L44.5027 16.7558L45.0879 17.2249C45.3941 16.843 45.5531 16.3684 45.4368 15.8509L44.705 16.0154ZM44.5027 16.7558L43.9176 16.2866C43.6084 16.6723 43.4532 17.1505 43.5734 17.6695L44.3041 17.5003L45.0347 17.331C45.0328 17.3229 45.0329 17.3194 45.0329 17.3192C45.0329 17.3191 45.0329 17.318 45.0337 17.3148C45.0353 17.309 45.0446 17.279 45.0879 17.2249L44.5027 16.7558ZM44.3041 17.5003L43.5734 17.6695C43.5915 17.7477 43.5833 17.8012 43.547 17.867L44.2036 18.2294L44.8603 18.5918C45.0769 18.1992 45.1356 17.7667 45.0347 17.331L44.3041 17.5003ZM44.2036 18.2294L43.547 17.867C43.2961 18.3217 43.303 18.8136 43.4754 19.2669L44.1764 19.0003L44.8774 18.7337C44.8523 18.6678 44.8511 18.6323 44.8515 18.6205C44.8518 18.6119 44.8529 18.6052 44.8603 18.5918L44.2036 18.2294ZM44.1764 19.0003L43.4754 19.2669C43.4991 19.3293 43.4977 19.3573 43.4975 19.3594C43.4975 19.3608 43.4974 19.3599 43.4979 19.3585C43.4983 19.3571 43.4979 19.3594 43.4939 19.3657L44.1308 19.7619L44.7676 20.1581C45.0508 19.7028 45.0538 19.1976 44.8774 18.7337L44.1764 19.0003ZM44.1308 19.7619L43.4939 19.3657C43.4217 19.4817 43.308 19.6019 43.1288 19.719L43.5388 20.347L43.9488 20.975C44.2814 20.7578 44.5623 20.488 44.7676 20.1581L44.1308 19.7619ZM43.5388 20.347L43.1288 19.719C42.6769 20.0139 42.3965 20.4776 42.4304 21.0548L43.1791 21.0109L43.9278 20.9671C43.9273 20.9585 43.9283 20.9597 43.9266 20.9677C43.9258 20.9716 43.9246 20.9763 43.9227 20.9814C43.9208 20.9865 43.9186 20.9913 43.9163 20.9955C43.9115 21.0044 43.9083 21.0071 43.9113 21.004C43.9147 21.0005 43.9256 20.9901 43.9488 20.975L43.5388 20.347ZM43.1791 21.0109L42.4304 21.0548C42.4367 21.1629 42.4119 21.2101 42.3821 21.2469L42.9653 21.7185L43.5485 22.1901C43.836 21.8346 43.9538 21.41 43.9278 20.9671L43.1791 21.0109ZM42.9653 21.7185L42.3821 21.2469C42.1006 21.5951 41.9773 22.0107 41.9747 22.4443L42.7247 22.4489L43.4746 22.4535C43.4755 22.3057 43.5127 22.2344 43.5485 22.1901L42.9653 21.7185ZM42.7247 22.4489L41.9747 22.4443C41.9745 22.4683 41.9721 22.4816 41.971 22.4867C41.9699 22.4913 41.9698 22.4897 41.9724 22.4846C41.9752 22.4793 41.9785 22.475 41.9805 22.4728C41.9824 22.4708 41.9801 22.4739 41.97 22.4805L42.3802 23.1083L42.7904 23.7362C43.2455 23.4389 43.4715 22.9754 43.4746 22.4535L42.7247 22.4489ZM42.3802 23.1083L41.97 22.4805C41.7699 22.6112 41.5614 22.7285 41.3442 22.8325L41.6681 23.509L41.9921 24.1854C42.2686 24.053 42.5348 23.9033 42.7904 23.7362L42.3802 23.1083ZM41.6681 23.509L41.3442 22.8325C40.8098 23.0885 40.5528 23.5763 40.5229 24.1144L41.2717 24.1561L42.0206 24.1977C42.0223 24.1668 42.0262 24.1498 42.028 24.1435C42.0297 24.1378 42.0292 24.1418 42.0235 24.1512C42.0207 24.1557 42.0172 24.1606 42.013 24.1656C42.0088 24.1707 42.0044 24.175 42.0003 24.1786C41.9918 24.1862 41.9874 24.1876 41.9921 24.1854L41.6681 23.509ZM41.2717 24.1561L40.5229 24.1144C40.5186 24.1919 40.5043 24.2242 40.5014 24.23C40.5 24.2327 40.5002 24.2318 40.5023 24.2294C40.5044 24.227 40.5054 24.2266 40.5031 24.2281L40.9305 24.8444L41.358 25.4607C41.8012 25.1533 41.9936 24.6837 42.0206 24.1977L41.2717 24.1561ZM40.9305 24.8444L40.5031 24.2281C40.3168 24.3573 40.1239 24.4752 39.9242 24.5819L40.2775 25.2434L40.6309 25.905C40.8817 25.771 41.1241 25.6229 41.358 25.4607L40.9305 24.8444ZM40.2775 25.2434L39.9242 24.5819C39.6594 24.7234 39.4116 24.8861 39.1819 25.0705L39.6516 25.6553L40.1212 26.24C40.2757 26.116 40.4452 26.0042 40.6309 25.905L40.2775 25.2434ZM39.6516 25.6553L39.1819 25.0705C39.0154 25.2043 38.8409 25.3266 38.6583 25.4375L39.0477 26.0785L39.4371 26.7195C39.6756 26.5746 39.9037 26.4147 40.1212 26.24L39.6516 25.6553ZM39.0477 26.0785L38.6583 25.4375C38.4548 25.5611 38.2498 25.6811 38.0433 25.7973L38.4112 26.4509L38.7791 27.1044C39.0001 26.98 39.2194 26.8517 39.4371 26.7195L39.0477 26.0785ZM38.4112 26.4509L38.0433 25.7973C37.883 25.8876 37.7121 25.9582 37.5293 26.0091L37.7305 26.7316L37.9317 27.4541C38.2289 27.3713 38.5119 27.2548 38.7791 27.1044L38.4112 26.4509ZM37.7305 26.7316L37.5293 26.0091C37.2339 26.0914 36.9527 26.206 36.6875 26.3535L37.0521 27.009L37.4167 27.6644C37.576 27.5758 37.7471 27.5055 37.9317 27.4541L37.7305 26.7316ZM37.0521 27.009L36.6875 26.3535C36.3607 26.5353 36.0899 26.7965 35.8665 27.1062L36.4748 27.545L37.083 27.9838C37.2049 27.8149 37.319 27.7187 37.4167 27.6644L37.0521 27.009ZM36.4748 27.545L35.8665 27.1062C35.8553 27.1218 35.851 27.1241 35.8561 27.1199C35.8618 27.1152 35.8746 27.1062 35.8939 27.0983C35.9135 27.0904 35.9314 27.087 35.9442 27.0861C35.9561 27.0852 35.9575 27.087 35.9458 27.0846L35.7979 27.8199L35.65 28.5551C35.9089 28.6072 36.1876 28.598 36.4583 28.4881C36.7269 28.379 36.9318 28.1934 37.083 27.9838L36.4748 27.545ZM35.7979 27.8199L35.9458 27.0846C35.6719 27.0295 35.3842 27.0484 35.1102 27.1693C34.843 27.2871 34.6394 27.4793 34.4864 27.69L35.0934 28.1306L35.7004 28.5711C35.7384 28.5187 35.7478 28.5275 35.7154 28.5417C35.6997 28.5487 35.6823 28.5531 35.6662 28.5546C35.6509 28.556 35.6445 28.554 35.65 28.5551L35.7979 27.8199ZM35.0934 28.1306L34.4864 27.69C34.4402 27.7537 34.4157 27.7643 34.4234 27.7601C34.4275 27.7578 34.4357 27.7543 34.4464 27.752C34.4513 27.751 34.4557 27.7504 34.4591 27.7502C34.4625 27.75 34.4642 27.7501 34.4641 27.7501L34.4129 28.4983L34.3617 29.2466C34.9449 29.2865 35.3987 28.9867 35.7004 28.5711L35.0934 28.1306ZM34.4129 28.4983L34.4641 27.7501C34.1694 27.7299 33.8784 27.729 33.5915 27.748L33.641 28.4963L33.6904 29.2447C33.9075 29.2304 34.1311 29.2308 34.3617 29.2466L34.4129 28.4983ZM33.641 28.4963L33.5915 27.748C33.4232 27.7591 33.2508 27.7429 33.0713 27.696L32.8817 28.4216L32.692 29.1473C33.021 29.2333 33.3548 29.2669 33.6904 29.2447L33.641 28.4963ZM32.8817 28.4216L33.0713 27.696C32.6936 27.5973 32.3094 27.5966 31.9323 27.699L32.1287 28.4228L32.3251 29.1466C32.4434 29.1145 32.5613 29.1131 32.692 29.1473L32.8817 28.4216ZM32.1287 28.4228L31.9323 27.699C31.7276 27.7545 31.5219 27.7909 31.3147 27.8084L31.378 28.5558L31.4414 29.3031C31.7396 29.2778 32.0344 29.2255 32.3251 29.1466L32.1287 28.4228ZM31.378 28.5558L31.3147 27.8084C31.056 27.8304 30.7944 27.8557 30.5301 27.8843L30.6109 28.6299L30.6916 29.3756C30.9447 29.3482 31.1946 29.324 31.4414 29.3031L31.378 28.5558ZM30.6109 28.6299L30.5301 27.8843C30.3522 27.9036 30.1814 27.8937 30.0141 27.8559L29.8487 28.5874L29.6833 29.3189C30.0148 29.3939 30.3521 29.4124 30.6916 29.3756L30.6109 28.6299ZM29.8487 28.5874L30.0141 27.8559C29.7116 27.7874 29.4025 27.752 29.0881 27.7487L29.0802 28.4986L29.0723 29.2486C29.2837 29.2508 29.4871 29.2745 29.6833 29.3189L29.8487 28.5874ZM29.0802 28.4986L29.0881 27.7487C29.0912 27.7487 29.0998 27.7494 29.111 27.7528C29.1223 27.7563 29.1295 27.7605 29.1318 27.762C29.1352 27.7642 29.1067 27.7464 29.06 27.6704L28.4208 28.0626L27.7815 28.4548C28.0494 28.8915 28.4777 29.2423 29.0723 29.2486L29.0802 28.4986ZM28.4208 28.0626L29.06 27.6704C28.8333 27.3007 28.5306 26.9765 28.1246 26.7961L27.82 27.4814L27.5155 28.1668C27.5571 28.1853 27.6549 28.2485 27.7815 28.4548L28.4208 28.0626ZM27.82 27.4814L28.1246 26.7961C27.6218 26.5727 27.1181 26.6775 26.7041 26.9212L27.0844 27.5676L27.4648 28.2139C27.5303 28.1754 27.559 28.1729 27.5555 28.1733C27.5533 28.1736 27.5462 28.174 27.5363 28.1725C27.5263 28.171 27.5189 28.1684 27.5155 28.1668L27.82 27.4814ZM27.0844 27.5676L26.7041 26.9212C26.3243 27.1447 26.0179 27.4564 25.8361 27.8654L26.5214 28.17L27.2068 28.4746C27.2426 28.3941 27.3115 28.3042 27.4648 28.2139L27.0844 27.5676ZM26.5214 28.17L25.8361 27.8654C25.751 28.0569 25.6502 28.224 25.5353 28.3699L26.1246 28.8339L26.7139 29.2978C26.9105 29.0481 27.0743 28.7727 27.2068 28.4746L26.5214 28.17ZM26.1246 28.8339L25.5353 28.3699C25.4355 28.4968 25.3151 28.6042 25.1698 28.6934L25.5625 29.3324L25.9552 29.9714C26.2479 29.7915 26.5023 29.5666 26.7139 29.2978L26.1246 28.8339ZM25.5625 29.3324L25.1698 28.6934C24.9029 28.8575 24.6589 29.0485 24.4393 29.2667L24.9681 29.7986L25.4968 30.3306C25.6319 30.1963 25.7841 30.0765 25.9552 29.9714L25.5625 29.3324ZM24.9681 29.7986L24.4393 29.2667C24.2067 29.4979 24.0125 29.7622 23.8559 30.0555L24.5175 30.4088L25.1791 30.762C25.2686 30.5943 25.3748 30.4519 25.4968 30.3306L24.9681 29.7986ZM24.5175 30.4088L23.8559 30.0555C23.7484 30.2569 23.6306 30.4456 23.5028 30.6222L24.1102 31.0621L24.7177 31.502C24.8868 31.2684 25.0405 31.0216 25.1791 30.762L24.5175 30.4088ZM24.1102 31.0621L23.5028 30.6222C23.4972 30.6299 23.4693 30.6753 23.3137 30.6992L23.428 31.4405L23.5422 32.1817C23.9993 32.1113 24.4263 31.9044 24.7177 31.502L24.1102 31.0621ZM23.428 31.4405L23.3137 30.6992C23.0474 30.7403 22.7744 30.8454 22.549 31.056C22.3219 31.2683 22.1985 31.5359 22.1444 31.8051L22.8797 31.9529L23.615 32.1007C23.6179 32.0863 23.6192 32.0887 23.6126 32.1013C23.6055 32.115 23.5927 32.1338 23.5732 32.152C23.5539 32.17 23.5362 32.1799 23.5267 32.1841C23.5182 32.1879 23.5214 32.1849 23.5422 32.1817L23.428 31.4405ZM22.8797 31.9529L22.1444 31.8051C22.141 31.8219 22.1387 31.823 22.1432 31.8141C22.1482 31.8043 22.1581 31.7887 22.1744 31.7726C22.1906 31.7565 22.206 31.747 22.2153 31.7424C22.2236 31.7383 22.2217 31.7408 22.204 31.7443L22.3467 32.4806L22.4894 33.2169C22.7526 33.1658 23.0154 33.0507 23.2297 32.8386C23.4443 32.6262 23.562 32.3642 23.615 32.1007L22.8797 31.9529ZM22.3467 32.4806L22.204 31.7443C21.9326 31.7969 21.6614 31.9202 21.4473 32.1509C21.235 32.3795 21.132 32.6564 21.0936 32.9243L21.8361 33.0306L22.5785 33.1368C22.5816 33.1155 22.5845 33.1125 22.5805 33.1216C22.5761 33.1319 22.5657 33.1508 22.5466 33.1714C22.5273 33.1922 22.5072 33.2059 22.4922 33.2137C22.4784 33.2208 22.4752 33.2196 22.4894 33.2169L22.3467 32.4806ZM21.8361 33.0306L21.0936 32.9243C21.0656 33.1203 21.0078 33.2127 20.9648 33.2589L21.5143 33.7694L22.0637 34.2799C22.3613 33.9596 22.518 33.5595 22.5785 33.1368L21.8361 33.0306ZM21.5143 33.7694L20.9648 33.2589C20.9751 33.2478 20.9784 33.2522 20.9509 33.2613C20.9187 33.2721 20.8509 33.2864 20.7325 33.2842L20.7182 34.034L20.7039 34.7839C21.1816 34.793 21.6935 34.6784 22.0637 34.2799L21.5143 33.7694ZM20.7182 34.034L20.7325 33.2842C20.4721 33.2792 20.19 33.318 19.9292 33.4525C19.6536 33.5946 19.4489 33.82 19.3291 34.0992L20.0184 34.3949L20.7076 34.6906C20.7031 34.7011 20.6925 34.7206 20.6729 34.7419C20.6531 34.7634 20.6323 34.7777 20.6166 34.7857C20.6022 34.7932 20.5984 34.7921 20.6125 34.7894C20.6269 34.7866 20.6562 34.783 20.7039 34.7839L20.7182 34.034ZM20.0184 34.3949L19.3291 34.0992C19.2507 34.282 19.1551 34.4352 19.0448 34.5639L19.6145 35.0517L20.1843 35.5395C20.4002 35.2873 20.5738 35.0025 20.7076 34.6906L20.0184 34.3949ZM19.6145 35.0517L19.0448 34.5639C18.9732 34.6476 18.8736 34.7208 18.7234 34.776L18.9821 35.48L19.2409 36.1839C19.6077 36.0491 19.9297 35.8368 20.1843 35.5395L19.6145 35.0517ZM18.9821 35.48L18.7234 34.776C18.4566 34.8741 18.2227 35.0467 18.057 35.2975C17.897 35.5396 17.8296 35.8102 17.8119 36.0671L18.5602 36.1187L19.3084 36.1702C19.3135 36.0963 19.3278 36.0951 19.3085 36.1243C19.2987 36.1392 19.2848 36.1546 19.2684 36.1672C19.2608 36.1731 19.254 36.1773 19.2489 36.1801C19.2438 36.1829 19.2409 36.1839 19.2409 36.1839L18.9821 35.48ZM18.5602 36.1187L17.8119 36.0671C17.7968 36.2875 17.7408 36.3747 17.7134 36.4061L18.2793 36.8984L18.8451 37.3907C19.1467 37.044 19.278 36.6114 19.3084 36.1702L18.5602 36.1187ZM18.2793 36.8984L17.7134 36.4061C17.7251 36.3927 17.7321 36.3944 17.7104 36.402C17.6833 36.4116 17.6204 36.4265 17.505 36.425L17.4951 37.1749L17.4853 37.9249C17.966 37.9312 18.482 37.808 18.8451 37.3907L18.2793 36.8984ZM17.4951 37.1749L17.505 36.425C17.0086 36.4185 16.4657 36.5625 16.1247 37.0509L16.7397 37.4802L17.3547 37.9095C17.3486 37.9183 17.3399 37.9276 17.3301 37.9352C17.3206 37.9427 17.3153 37.9444 17.3186 37.9431C17.3277 37.9394 17.3756 37.9234 17.4853 37.9249L17.4951 37.1749ZM16.7397 37.4802L16.1247 37.0509C16.0173 37.2048 15.8934 37.3396 15.7525 37.4568L16.2322 38.0334L16.7119 38.6099C16.957 38.406 17.1715 38.172 17.3547 37.9095L16.7397 37.4802ZM16.2322 38.0334L15.7525 37.4568C15.445 37.7127 15.2295 38.0416 15.0972 38.4169L15.8045 38.6663L16.5118 38.9157C16.5638 38.7683 16.6335 38.6751 16.7119 38.6099L16.2322 38.0334ZM15.8045 38.6663L15.0972 38.4169C15.053 38.5423 14.9944 38.6094 14.9278 38.655L15.3514 39.2739L15.775 39.8928C16.1282 39.651 16.3717 39.313 16.5118 38.9157L15.8045 38.6663ZM15.3514 39.2739L14.9278 38.655C14.6 38.8793 14.353 39.1808 14.1881 39.5407L14.87 39.8531L15.5518 40.1654C15.6091 40.0404 15.683 39.9557 15.775 39.8928L15.3514 39.2739ZM14.87 39.8531L14.1881 39.5407C14.1559 39.6109 14.1162 39.6511 14.0382 39.6842L14.3309 40.3747L14.6237 41.0652C15.0422 40.8877 15.3618 40.5802 15.5518 40.1654L14.87 39.8531ZM14.3309 40.3747L14.0382 39.6842C13.621 39.861 13.3014 40.1668 13.1101 40.5795L13.7905 40.8949L14.4709 41.2104C14.5036 41.14 14.5442 41.0989 14.6237 41.0652L14.3309 40.3747ZM13.7905 40.8949L13.1101 40.5795C13.0868 40.6296 13.0603 40.6605 12.9808 40.6886L13.2306 41.3957L13.4805 42.1029C13.9235 41.9464 14.2702 41.6433 14.4709 41.2104L13.7905 40.8949ZM13.2306 41.3957L12.9808 40.6886C12.6578 40.8027 12.3594 40.9554 12.0909 41.1503L12.5315 41.7573L12.9721 42.3642C13.1133 42.2617 13.2809 42.1734 13.4805 42.1029L13.2306 41.3957ZM12.5315 41.7573L12.0909 41.1503C11.738 41.4065 11.5069 41.7615 11.3831 42.1695L12.1008 42.3872L12.8185 42.6049C12.8593 42.4704 12.9153 42.4054 12.9721 42.3642L12.5315 41.7573ZM12.1008 42.3872L11.3831 42.1695C11.3689 42.2164 11.3554 42.2313 11.3544 42.2325C11.3532 42.2338 11.3518 42.2352 11.3489 42.2372C11.3459 42.2393 11.3387 42.2438 11.3252 42.2493L11.6071 42.9443L11.889 43.6393C12.3608 43.4479 12.6753 43.0769 12.8185 42.6049L12.1008 42.3872ZM11.6071 42.9443L11.3252 42.2493C10.8274 42.4512 10.5246 42.8577 10.3864 43.3358L11.1069 43.5441L11.8273 43.7524C11.8475 43.6828 11.8679 43.6558 11.8729 43.6497C11.8756 43.6465 11.877 43.6455 11.8775 43.6451C11.878 43.6447 11.8811 43.6425 11.889 43.6393L11.6071 42.9443ZM11.1069 43.5441L10.3864 43.3358C10.3763 43.3705 10.3882 43.302 10.4808 43.2408C10.5743 43.179 10.6444 43.1945 10.613 43.1904L10.5167 43.9342L10.4204 44.678C10.6957 44.7136 11.0176 44.684 11.3079 44.4921C11.5972 44.3009 11.7507 44.0175 11.8273 43.7524L11.1069 43.5441ZM10.5167 43.9342L10.613 43.1904C10.0956 43.1234 9.59624 43.2682 9.22155 43.6712L9.77085 44.1819L10.3202 44.6926C10.3292 44.6828 10.3344 44.6793 10.3354 44.6787C10.3361 44.6782 10.336 44.6783 10.3365 44.6781C10.3373 44.6779 10.3427 44.6761 10.3552 44.6751C10.368 44.6741 10.3892 44.674 10.4204 44.678L10.5167 43.9342ZM9.77085 44.1819L9.22155 43.6712C9.21637 43.6768 9.22198 43.6694 9.2405 43.6585C9.26014 43.647 9.28732 43.6357 9.31944 43.6298C9.38786 43.6172 9.41789 43.6385 9.38482 43.6238L9.08021 44.3092L8.77559 44.9945C9.01252 45.0998 9.29265 45.16 9.59128 45.1049C9.89408 45.0491 10.1371 44.8894 10.3202 44.6926L9.77085 44.1819ZM9.08021 44.3092L9.38482 43.6238C9.12146 43.5068 8.82585 43.4624 8.52162 43.5301C8.22594 43.5959 7.98261 43.754 7.78894 43.9394L8.30762 44.4811L8.8263 45.0229C8.87769 44.9736 8.88566 44.9857 8.84751 44.9942C8.82882 44.9984 8.80896 44.9992 8.79155 44.9972C8.77503 44.9952 8.76912 44.9916 8.77559 44.9945L9.08021 44.3092ZM8.30762 44.4811L7.78894 43.9394C7.71982 44.0056 7.67232 44.031 7.64934 44.0403C7.6305 44.048 7.62149 44.048 7.61236 44.0471L7.53867 44.7935L7.46499 45.5398C8.00529 45.5932 8.46783 45.3661 8.8263 45.0229L8.30762 44.4811ZM7.53867 44.7935L7.61236 44.0471C7.44025 44.0301 7.27891 43.9822 7.12353 43.9015L6.77778 44.5671L6.43203 45.2326C6.75604 45.4009 7.10196 45.504 7.46499 45.5398L7.53867 44.7935ZM6.77778 44.5671L7.12353 43.9015C7.00558 43.8402 6.89921 43.7475 6.80425 43.6037L6.17835 44.0169L5.55246 44.4302C5.77735 44.7708 6.07059 45.0448 6.43203 45.2326L6.77778 44.5671ZM6.17835 44.0169L6.80425 43.6037C6.582 43.2671 6.29103 42.9905 5.92158 42.8182L5.60457 43.4979L5.28756 44.1776C5.36331 44.2129 5.45487 44.2824 5.55246 44.4302L6.17835 44.0169ZM5.60457 43.4979L5.92158 42.8182C5.83292 42.7768 5.76757 42.7194 5.71342 42.6317L5.07528 43.0257L4.43714 43.4198C4.64352 43.754 4.93102 44.0113 5.28756 44.1776L5.60457 43.4979ZM5.07528 43.0257L5.71342 42.6317C5.5804 42.4163 5.44837 42.2075 5.31733 42.0055L4.68812 42.4137L4.05892 42.8219C4.18357 43.014 4.30965 43.2133 4.43714 43.4198L5.07528 43.0257ZM4.68812 42.4137L5.31733 42.0055C5.11054 41.6867 4.82109 41.4398 4.48862 41.2499L4.11656 41.9011L3.74451 42.5523C3.91843 42.6517 4.01002 42.7465 4.05892 42.8219L4.68812 42.4137ZM4.11656 41.9011L4.48862 41.2499C4.31515 41.1508 4.17379 41.0293 4.05838 40.8847L3.47217 41.3525L2.88595 41.8203C3.12335 42.1178 3.41159 42.3621 3.74451 42.5523L4.11656 41.9011ZM3.47217 41.3525L4.05838 40.8847C4.05971 40.8864 4.0703 40.9003 4.07981 40.9268C4.08968 40.9543 4.09422 40.9838 4.09367 41.0106C4.0926 41.0622 4.07463 41.0602 4.11838 40.9923L3.48803 40.5859L2.85768 40.1795C2.71444 40.4017 2.60034 40.6724 2.59399 40.9796C2.58733 41.3016 2.70083 41.5884 2.88595 41.8203L3.47217 41.3525ZM3.48803 40.5859L4.11838 40.9923C4.41197 40.5369 4.52472 39.9738 4.23115 39.4273L3.57044 39.7822L2.90973 40.1371C2.91035 40.1382 2.90706 40.1322 2.90463 40.1203C2.90215 40.1081 2.90212 40.0974 2.90278 40.091C2.904 40.079 2.90461 40.1067 2.85768 40.1795L3.48803 40.5859ZM3.57044 39.7822L4.23115 39.4273C4.18374 39.339 4.18917 39.2962 4.20084 39.2567L3.48163 39.044L2.76242 38.8313C2.62843 39.2845 2.69307 39.7337 2.90973 40.1371L3.57044 39.7822ZM3.48163 39.044L4.20084 39.2567C4.27846 38.9943 4.34684 38.7305 4.40594 38.4654L3.67392 38.3022L2.9419 38.139C2.89028 38.3704 2.83047 38.6012 2.76242 38.8313L3.48163 39.044ZM3.67392 38.3022L4.40594 38.4654C4.46519 38.1997 4.51686 37.9232 4.56116 37.6361L3.81993 37.5217L3.0787 37.4074C3.03905 37.6643 2.99338 37.9081 2.9419 38.139L3.67392 38.3022ZM3.81993 37.5217L4.56116 37.6361C4.56027 37.6419 4.5562 37.6615 4.54232 37.6878C4.52803 37.7148 4.50911 37.7379 4.48997 37.7547C4.45384 37.7866 4.44692 37.7711 4.52959 37.7556L4.39146 37.0184L4.25334 36.2812C3.99696 36.3293 3.72525 36.4294 3.49861 36.629C3.26004 36.8391 3.12405 37.1134 3.0787 37.4074L3.81993 37.5217ZM4.39146 37.0184L4.52959 37.7556C4.82795 37.6997 5.14555 37.5567 5.3675 37.2557C5.58486 36.9609 5.63168 36.6209 5.61229 36.3281L4.86393 36.3777L4.11557 36.4273C4.12026 36.4981 4.10036 36.4467 4.16024 36.3655C4.18883 36.3267 4.22164 36.3014 4.24623 36.2877C4.26825 36.2754 4.27479 36.2772 4.25334 36.2812L4.39146 37.0184ZM4.86393 36.3777L5.61229 36.3281C5.60893 36.2774 5.61099 36.2443 5.61345 36.2256C5.61586 36.2073 5.6181 36.2069 5.61323 36.2183C5.60786 36.2308 5.59665 36.251 5.57717 36.2721C5.55764 36.2933 5.53782 36.3068 5.52407 36.314L5.17566 35.6498L4.82726 34.9857C4.2298 35.2991 4.08091 35.904 4.11557 36.4273L4.86393 36.3777ZM5.17566 35.6498L5.52407 36.314C5.88006 36.1272 6.16581 35.8549 6.36713 35.5063L5.7177 35.1312L5.06827 34.756C5.01069 34.8557 4.93509 34.9291 4.82726 34.9857L5.17566 35.6498ZM5.7177 35.1312L6.36713 35.5063C6.36809 35.5047 6.36703 35.5068 6.36361 35.5102C6.36019 35.5137 6.35802 35.5148 6.35954 35.5139C6.36295 35.5119 6.39339 35.4953 6.47265 35.4864L6.3883 34.7411L6.30394 33.9959C5.81199 34.0516 5.34484 34.2773 5.06827 34.756L5.7177 35.1312ZM6.3883 34.7411L6.47265 35.4864C6.94411 35.433 7.3974 35.2337 7.69728 34.8066L7.08349 34.3756L6.4697 33.9446C6.46748 33.9478 6.4651 33.9517 6.4513 33.9589C6.43382 33.9681 6.39007 33.9861 6.30394 33.9959L6.3883 34.7411ZM7.08349 34.3756L7.69728 34.8066C7.80299 34.6561 7.92561 34.5253 8.06615 34.4123L7.59627 33.8278L7.12638 33.2432C6.87492 33.4453 6.65568 33.6798 6.4697 33.9446L7.08349 34.3756ZM7.59627 33.8278L8.06615 34.4123C8.36715 34.1704 8.59006 33.8619 8.73855 33.5056L8.04626 33.2171L7.35396 32.9286C7.29447 33.0714 7.21738 33.1701 7.12638 33.2432L7.59627 33.8278ZM8.04626 33.2171L8.73855 33.5056C8.83294 33.2791 8.93612 33.0633 9.04789 32.858L8.38919 32.4994L7.73049 32.1408C7.593 32.3933 7.46756 32.656 7.35396 32.9286L8.04626 33.2171ZM8.38919 32.4994L9.04789 32.858C9.04796 32.8579 9.04725 32.8592 9.04558 32.8615C9.04389 32.8638 9.04161 32.8665 9.03879 32.8694C9.03265 32.8757 9.02737 32.8792 9.02583 32.8801C9.02335 32.8815 9.04992 32.8654 9.13066 32.8579L9.06157 32.1111L8.99247 31.3643C8.48955 31.4108 8.00463 31.6372 7.73049 32.1408L8.38919 32.4994ZM9.06157 32.1111L9.13066 32.8579C9.57829 32.8165 10.0149 32.6612 10.3469 32.3179L9.80771 31.7966L9.26856 31.2752C9.25288 31.2914 9.19208 31.3458 8.99247 31.3643L9.06157 32.1111ZM9.80771 31.7966L10.3469 32.3179C10.4631 32.1977 10.6012 32.0937 10.7658 32.0067L10.4154 31.3436L10.065 30.6805C9.76695 30.838 9.49992 31.0359 9.26856 31.2752L9.80771 31.7966ZM10.4154 31.3436L10.7658 32.0067C11.0764 31.8426 11.3488 31.6286 11.5762 31.3644L11.0077 30.8752L10.4392 30.386C10.3395 30.5018 10.2171 30.6001 10.065 30.6805L10.4154 31.3436ZM11.0077 30.8752L11.5762 31.3644C11.7329 31.1823 11.8931 31.0037 12.0569 30.8288L11.5094 30.3162L10.9619 29.8037C10.7837 29.9939 10.6095 30.188 10.4392 30.386L11.0077 30.8752ZM11.5094 30.3162L12.0569 30.8288C12.3605 30.5045 12.515 30.097 12.5704 29.6693L11.8266 29.5729L11.0829 29.4765C11.0572 29.6747 11.0002 29.7627 10.9619 29.8037L11.5094 30.3162ZM11.8266 29.5729L12.5704 29.6693C12.5809 29.5885 12.5985 29.5506 12.6056 29.5381C12.6106 29.5293 12.6124 29.5283 12.6164 29.5258L12.2099 28.8955L11.8034 28.2652C11.3603 28.5509 11.1446 29.0004 11.0829 29.4765L11.8266 29.5729ZM12.2099 28.8955L12.6164 29.5258C12.9194 29.3303 13.1722 29.0795 13.3696 28.7778L12.7421 28.367L12.1146 27.9562C12.0323 28.082 11.9303 28.1834 11.8034 28.2652L12.2099 28.8955ZM12.7421 28.367L13.3696 28.7778C13.4918 28.5912 13.6238 28.4157 13.7656 28.2512L13.1974 27.7617L12.6292 27.2721C12.4437 27.4874 12.2722 27.7156 12.1146 27.9562L12.7421 28.367ZM13.1974 27.7617L13.7656 28.2512C13.8638 28.1372 13.9851 28.0406 14.137 27.962L13.7923 27.2959L13.4476 26.6298C13.1336 26.7924 12.8583 27.0063 12.6292 27.2721L13.1974 27.7617ZM13.7923 27.2959L14.137 27.962C14.3382 27.8579 14.5537 27.7647 14.7842 27.6828L14.5331 26.976L14.282 26.2693C13.9908 26.3728 13.7125 26.4928 13.4476 26.6298L13.7923 27.2959ZM14.5331 26.976L14.7842 27.6828C15.1497 27.5529 15.4732 27.3484 15.7328 27.0605L15.1759 26.5582L14.619 26.0558C14.5433 26.1398 14.4383 26.2138 14.282 26.2693L14.5331 26.976ZM15.1759 26.5582L15.7328 27.0605C15.8608 26.9187 16.0051 26.7921 16.1671 26.6804L15.7414 26.0629L15.3156 25.4455C15.0591 25.6224 14.8264 25.8259 14.619 26.0558L15.1759 26.5582ZM15.7414 26.0629L16.1671 26.6804C16.5386 26.4242 16.775 26.0577 16.8938 25.6363L16.1719 25.4328L15.45 25.2293C15.4133 25.3596 15.3626 25.4131 15.3156 25.4455L15.7414 26.0629ZM16.1719 25.4328L16.8938 25.6363C16.9716 25.3604 17.0493 25.0844 17.1269 24.8083L16.405 24.6052L15.683 24.4022C15.6054 24.6779 15.5278 24.9537 15.45 25.2293L16.1719 25.4328ZM16.405 24.6052L17.1269 24.8083C17.1571 24.701 17.1948 24.6721 17.2294 24.6524L16.8601 23.9997L16.4907 23.347C16.0738 23.5829 15.808 23.9576 15.683 24.4022L16.405 24.6052ZM16.8601 23.9997L17.2294 24.6524C17.385 24.5644 17.5726 24.4911 17.7989 24.4385L17.6291 23.708L17.4593 22.9775C17.1118 23.0583 16.7867 23.1794 16.4907 23.347L16.8601 23.9997ZM17.6291 23.708L17.7989 24.4385C18.0788 24.3735 18.3496 24.2285 18.5502 23.9738C18.7451 23.7264 18.8242 23.4386 18.8443 23.1709L18.0964 23.1147L17.3485 23.0586C17.3439 23.1197 17.3328 23.0952 17.3719 23.0456C17.391 23.0214 17.4137 23.0023 17.435 22.9896C17.4551 22.9776 17.4659 22.976 17.4593 22.9775L17.6291 23.708ZM18.0964 23.1147L18.8443 23.1709C18.85 23.0954 18.8647 23.0874 18.8504 23.1098C18.8431 23.1213 18.8321 23.1343 18.8183 23.1456C18.8048 23.1567 18.7949 23.161 18.794 23.1614L18.5097 22.4673L18.2254 21.7733C17.9657 21.8797 17.7432 22.0565 17.5861 22.3027C17.4341 22.5409 17.3676 22.8052 17.3485 23.0586L18.0964 23.1147ZM18.5097 22.4673L18.794 23.1614C19.1556 23.0132 19.4675 22.787 19.7092 22.4788L19.119 22.016L18.5288 21.5532C18.4597 21.6413 18.3654 21.716 18.2254 21.7733L18.5097 22.4673ZM19.119 22.016L19.7092 22.4788C19.8105 22.3496 19.9318 22.2399 20.0772 22.1483L19.6774 21.5137L19.2776 20.8792C18.9892 21.0609 18.7383 21.286 18.5288 21.5532L19.119 22.016ZM19.6774 21.5137L20.0772 22.1483C20.3613 21.9693 20.609 21.7508 20.811 21.49L20.2182 21.0307L19.6253 20.5713C19.5401 20.6813 19.4273 20.7848 19.2776 20.8792L19.6774 21.5137ZM20.2182 21.0307L20.811 21.49C20.9839 21.267 21.1055 20.9548 21.0305 20.5976C20.9628 20.275 20.7603 20.0465 20.5854 19.8983L20.1007 20.4706L19.6159 21.0429C19.663 21.0828 19.591 21.0416 19.5625 20.9057C19.5472 20.8326 19.5504 20.7568 19.5695 20.6887C19.5875 20.6245 19.6143 20.5855 19.6253 20.5713L20.2182 21.0307ZM20.1007 20.4706L20.5854 19.8983C20.578 19.892 20.583 19.8947 20.5921 19.9087C20.6019 19.9236 20.6117 19.9443 20.6176 19.9685C20.6303 20.0199 20.6142 20.0356 20.6304 19.9889L19.9216 19.7438L19.2128 19.4986C19.1263 19.7485 19.0888 20.0336 19.1612 20.3273C19.2348 20.6261 19.4051 20.8643 19.6159 21.0429L20.1007 20.4706ZM19.9216 19.7438L20.6304 19.9889C20.721 19.7268 20.7525 19.4308 20.6666 19.1294C20.5809 18.8284 20.3985 18.5937 20.1851 18.4185L19.709 18.998L19.233 19.5776C19.2493 19.591 19.2507 19.5954 19.2457 19.5882C19.24 19.58 19.2307 19.5637 19.2241 19.5405C19.2174 19.5172 19.2166 19.4979 19.2172 19.4868C19.2178 19.4769 19.2192 19.4801 19.2128 19.4986L19.9216 19.7438ZM19.709 18.998L20.1851 18.4185C20.1616 18.3992 20.1515 18.387 20.149 18.3837C20.1468 18.3809 20.1513 18.3862 20.1565 18.3996C20.1619 18.4135 20.1652 18.4289 20.1661 18.443C20.1669 18.4566 20.165 18.4619 20.1662 18.4567L19.4348 18.2908L18.7033 18.125C18.643 18.3911 18.653 18.6712 18.758 18.942C18.8607 19.2067 19.0358 19.4156 19.233 19.5776L19.709 18.998ZM19.4348 18.2908L20.1662 18.4567C20.2632 18.029 20.2223 17.6009 20.0342 17.2012L19.3556 17.5205L18.677 17.8398C18.7173 17.9255 18.7292 18.011 18.7033 18.125L19.4348 18.2908ZM19.3556 17.5205L20.0342 17.2012C20.0393 17.212 20.047 17.2333 20.0499 17.2626C20.0528 17.2921 20.0496 17.3174 20.0452 17.3346C20.0412 17.3505 20.0378 17.3526 20.0452 17.3403C20.0527 17.3277 20.0695 17.3034 20.1019 17.2682L19.5509 16.7594L18.9998 16.2507C18.8234 16.4417 18.6651 16.678 18.5923 16.9618C18.5153 17.262 18.5475 17.5647 18.677 17.8398L19.3556 17.5205ZM19.5509 16.7594L20.1019 17.2682C20.4235 16.9199 20.6849 16.4549 20.6159 15.9052L19.8717 15.9987L19.1276 16.0922C19.1244 16.0668 19.1322 16.0583 19.1233 16.0793C19.1122 16.1056 19.0803 16.1635 18.9998 16.2507L19.5509 16.7594ZM19.8717 15.9987L20.6159 15.9052C20.5802 15.6206 20.5198 15.3349 20.4361 15.0485L19.7162 15.2586L18.9962 15.4688C19.0591 15.6841 19.1024 15.8918 19.1276 16.0922L19.8717 15.9987ZM19.7162 15.2586L20.4361 15.0485C20.4045 14.94 20.4085 14.8528 20.4383 14.7648L19.7282 14.5236L19.0181 14.2823C18.8855 14.6727 18.8814 15.0755 18.9962 15.4688L19.7162 15.2586ZM19.7282 14.5236L20.4383 14.7648C20.5575 14.414 20.5914 14.0498 20.5439 13.6817L19.8001 13.7778L19.0563 13.8738C19.0754 14.0218 19.0614 14.1549 19.0181 14.2823L19.7282 14.5236ZM19.8001 13.7778L20.5439 13.6817C20.5201 13.4974 20.5248 13.3225 20.5554 13.1539L19.8175 13.0199L19.0795 12.8859C19.0204 13.2117 19.0134 13.542 19.0563 13.8738L19.8001 13.7778ZM19.8175 13.0199L20.5554 13.1539C20.5801 13.0179 20.6335 12.8879 20.724 12.759L20.1101 12.3281L19.4962 11.8973C19.2863 12.1964 19.1446 12.5276 19.0795 12.8859L19.8175 13.0199ZM20.1101 12.3281L20.724 12.759C20.9386 12.4532 21.078 12.1125 21.1339 11.7436L20.3924 11.6312L19.6509 11.5187C19.6308 11.6511 19.582 11.775 19.4962 11.8973L20.1101 12.3281ZM20.3924 11.6312L21.1339 11.7436C21.1434 11.681 21.1685 11.6228 21.2492 11.5523L20.7557 10.9875L20.2621 10.4228C19.9345 10.7092 19.7174 11.08 19.6509 11.5187L20.3924 11.6312ZM20.7557 10.9875L21.2492 11.5523C21.7207 11.1402 21.7973 10.5682 21.6636 10.0469L20.9371 10.2332L20.2106 10.4195C20.2305 10.4971 20.2194 10.5129 20.225 10.4897C20.2279 10.4776 20.2338 10.4621 20.2432 10.4468C20.2524 10.4318 20.2607 10.4241 20.2621 10.4228L20.7557 10.9875ZM20.9371 10.2332L21.6636 10.0469C21.6504 9.9955 21.6808 10.0641 21.6247 10.1725C21.5664 10.285 21.4856 10.3052 21.5206 10.2929L21.2725 9.58514L21.0243 8.87738C20.7526 8.97266 20.4625 9.15458 20.2925 9.48312C20.1246 9.80754 20.1406 10.1464 20.2106 10.4195L20.9371 10.2332ZM21.2725 9.58514L21.5206 10.2929C22.0131 10.1202 22.4284 9.76179 22.5485 9.18367L21.8142 9.03117L21.0798 8.87867C21.0796 8.87965 21.0809 8.87354 21.086 8.86377C21.0913 8.85382 21.0974 8.8461 21.1017 8.84164C21.1102 8.83295 21.0963 8.85216 21.0243 8.87738L21.2725 9.58514ZM21.8142 9.03117L22.5485 9.18367C22.6013 8.92924 22.6591 8.67009 22.7219 8.40619L21.9923 8.23257L21.2627 8.05895C21.1967 8.33632 21.1357 8.60956 21.0798 8.87867L21.8142 9.03117ZM21.9923 8.23257L22.7219 8.40619C22.7229 8.40212 22.7215 8.41019 22.7129 8.42491C22.7041 8.44026 22.6916 8.45563 22.6773 8.46824C22.6479 8.49418 22.64 8.48359 22.6993 8.47207L22.5563 7.73583L22.4133 6.99958C22.1611 7.04858 21.9034 7.15105 21.6859 7.34257C21.4628 7.53903 21.3266 7.79024 21.2627 8.05895L21.9923 8.23257ZM22.5563 7.73583L22.6993 8.47207C22.9782 8.4179 23.261 8.28982 23.4792 8.0435C23.696 7.7989 23.7895 7.50493 23.8148 7.22626L23.0679 7.15853L22.3209 7.0908C22.3188 7.11422 22.3157 7.11717 22.3199 7.10645C22.3245 7.09432 22.3356 7.0724 22.3566 7.04872C22.3777 7.02488 22.3997 7.00966 22.4151 7.00156C22.4291 6.9942 22.4312 6.99612 22.4133 6.99958L22.5563 7.73583ZM23.0679 7.15853L23.8148 7.22626C23.8324 7.03208 23.8866 6.96455 23.9125 6.93936L23.3893 6.40199L22.8661 5.86462C22.5222 6.19946 22.3621 6.6363 22.3209 7.0908L23.0679 7.15853ZM23.3893 6.40199L23.9125 6.93936C23.9187 6.93329 23.9286 6.92505 23.9543 6.91666C23.9835 6.90712 24.0402 6.89543 24.1363 6.89878L24.1624 6.14924L24.1886 5.39969C23.7143 5.38317 23.236 5.5045 22.8661 5.86462L23.3893 6.40199ZM24.1624 6.14924L24.1363 6.89878C24.6161 6.9155 25.1098 6.78594 25.4701 6.38547L24.9126 5.88383L24.355 5.38219C24.3549 5.3823 24.3559 5.38128 24.3572 5.38046C24.3583 5.37974 24.3559 5.38155 24.3477 5.38448C24.3302 5.39067 24.2822 5.40296 24.1886 5.39969L24.1624 6.14924ZM24.9126 5.88383L25.4701 6.38547C25.5101 6.34103 25.5584 6.30921 25.659 6.29702L25.5689 5.55246L25.4787 4.8079C25.0434 4.86063 24.6541 5.04972 24.355 5.38219L24.9126 5.88383ZM25.5689 5.55246L25.659 6.29702C26.2599 6.22425 26.6509 5.82323 26.8479 5.32821L26.151 5.05095L25.4541 4.77369C25.4271 4.84176 25.4101 4.84815 25.4259 4.83452C25.4339 4.82762 25.4453 4.82009 25.4585 4.81437C25.4714 4.80879 25.4794 4.80781 25.4787 4.8079L25.5689 5.55246ZM26.151 5.05095L26.8479 5.32821C26.8686 5.27617 26.866 5.31567 26.799 5.35834C26.7665 5.37907 26.7326 5.39118 26.704 5.3965C26.6772 5.40148 26.6645 5.39881 26.6719 5.39978L26.7703 4.65627L26.8687 3.91275C26.585 3.87518 26.2741 3.91414 25.9928 4.09339C25.7194 4.26762 25.5535 4.52385 25.4541 4.77369L26.151 5.05095ZM26.7703 4.65627L26.6719 5.39978C27.1383 5.46153 27.6001 5.36317 27.9846 5.0515L27.5122 4.46892L27.0399 3.88633C27.0206 3.90199 26.9878 3.92852 26.8687 3.91275L26.7703 4.65627ZM27.5122 4.46892L27.9846 5.0515C28.1068 4.9524 28.2329 4.88951 28.367 4.85452L28.1776 4.12882L27.9882 3.40311C27.6389 3.49427 27.3214 3.65812 27.0399 3.88633L27.5122 4.46892ZM28.1776 4.12882L28.367 4.85452C28.6196 4.78861 28.8705 4.71708 29.1197 4.63993L28.898 3.92346L28.6762 3.207C28.4484 3.2775 28.2191 3.34287 27.9882 3.40311L28.1776 4.12882ZM28.898 3.92346L29.1197 4.63993C29.4027 4.55235 29.6796 4.43792 29.9502 4.29801L29.6057 3.63178L29.2613 2.96556C29.0653 3.0669 28.8703 3.14692 28.6762 3.207L28.898 3.92346ZM29.6057 3.63178L29.9502 4.29801C30.171 4.18387 30.3973 4.07477 30.6291 3.97074L30.3221 3.28645L30.0152 2.60216C29.7585 2.71732 29.5072 2.83844 29.2613 2.96556L29.6057 3.63178ZM30.3221 3.28645L30.6291 3.97074C30.633 3.96901 30.6307 3.97051 30.6235 3.97164C30.616 3.9728 30.6093 3.97266 30.6052 3.97216C30.5968 3.97113 30.6203 3.97149 30.6797 4.00995L31.0875 3.3805L31.4953 2.75106C31.0613 2.46988 30.537 2.36802 30.0152 2.60216L30.3221 3.28645ZM31.0875 3.3805L30.6797 4.00995C31.0418 4.24455 31.4541 4.39193 31.8996 4.36702L31.8577 3.61819L31.8159 2.86936C31.7663 2.87213 31.6651 2.86105 31.4953 2.75106L31.0875 3.3805ZM31.8577 3.61819L31.8996 4.36702C32.295 4.34492 32.6672 4.2089 33.0095 4.00159L32.621 3.36008L32.2324 2.71858C32.0522 2.82774 31.9156 2.86379 31.8159 2.86936L31.8577 3.61819ZM32.621 3.36008L33.0095 4.00159C33.0296 3.98945 33.0382 3.98713 33.0358 3.98789C33.0325 3.98889 33.0206 3.99192 33.0024 3.99188C32.9838 3.99183 32.9674 3.98861 32.9557 3.98478C32.9448 3.9812 32.9439 3.97905 32.9533 3.98529L33.3703 3.36196L33.7874 2.73863C33.5641 2.58918 33.2999 2.49262 33.0061 2.49188C32.7159 2.49116 32.4545 2.58404 32.2324 2.71858L32.621 3.36008ZM33.3703 3.36196L32.9533 3.98529C33.2715 4.19826 33.6195 4.34332 33.9939 4.39683L34.1 3.65438L34.2061 2.91192C34.0843 2.89451 33.9459 2.84463 33.7874 2.73863L33.3703 3.36196ZM34.1 3.65438L33.9939 4.39683C34.1666 4.42151 34.3337 4.47162 34.4975 4.54898L34.8178 3.8708L35.1381 3.19263C34.8411 3.05234 34.5297 2.95817 34.2061 2.91192L34.1 3.65438ZM34.8178 3.8708L34.4975 4.54898C34.7219 4.65493 34.9328 4.75826 35.1305 4.85896L35.471 4.19069L35.8114 3.52242C35.5991 3.41424 35.3746 3.30431 35.1381 3.19263L34.8178 3.8708ZM35.471 4.19069L35.1305 4.85896C35.2323 4.91084 35.3019 4.97348 35.3538 5.04729L35.9673 4.61587L36.5808 4.18444C36.3809 3.90023 36.1196 3.67943 35.8114 3.52242L35.471 4.19069ZM35.9673 4.61587L35.3538 5.04729C35.3606 5.05699 35.3639 5.06334 35.3652 5.06631C35.3665 5.06916 35.3667 5.07006 35.3665 5.06951C35.3664 5.06894 35.3665 5.06912 35.3666 5.07088C35.3666 5.07275 35.3666 5.07802 35.3652 5.0874L36.1061 5.20345L36.8471 5.3195C36.9111 4.91117 36.8165 4.5196 36.5808 4.18444L35.9673 4.61587ZM36.1061 5.20345L35.3652 5.0874C35.2936 5.54452 35.453 5.97549 35.6659 6.33338L36.3105 5.94986L36.955 5.56634C36.8955 5.46631 36.8676 5.39543 36.8556 5.35157C36.8441 5.30951 36.8498 5.30245 36.8471 5.3195L36.1061 5.20345ZM36.3105 5.94986L35.6659 6.33338C35.703 6.39574 35.7022 6.42047 35.7018 6.41367C35.7016 6.41084 35.7019 6.40663 35.7027 6.40319C35.7034 6.40008 35.7032 6.40317 35.6979 6.41326L36.3614 6.76303L37.0248 7.11279C37.3012 6.58854 37.2359 6.03837 36.955 5.56634L36.3105 5.94986ZM36.3614 6.76303L35.6979 6.41326C35.6985 6.41205 35.7042 6.4021 35.7171 6.38966C35.7303 6.37701 35.7435 6.3689 35.7522 6.36484C35.7674 6.3578 35.7413 6.37519 35.6381 6.3696L35.5976 7.11851L35.557 7.86741C35.8275 7.88205 36.1155 7.8503 36.3852 7.72477C36.6667 7.59375 36.8835 7.38091 37.0248 7.11279L36.3614 6.76303ZM35.5976 7.11851L35.6381 6.3696C35.3431 6.35363 34.9473 6.40648 34.6471 6.71809C34.3505 7.02603 34.3086 7.42015 34.329 7.71119L35.0772 7.65877L35.8253 7.60635C35.8191 7.51699 35.8506 7.63087 35.7274 7.75872C35.6007 7.89024 35.4785 7.86316 35.557 7.86741L35.5976 7.11851ZM35.0772 7.65877L34.329 7.71119C34.3378 7.83697 34.3235 7.89427 34.3192 7.907C34.3178 7.91145 34.3196 7.90423 34.3288 7.89106C34.3384 7.87732 34.3513 7.86387 34.3657 7.85322L34.8128 8.45535L35.26 9.05747C35.7591 8.6868 35.8602 8.10371 35.8253 7.60635L35.0772 7.65877ZM34.8128 8.45535L34.3657 7.85322C34.126 8.03125 33.9049 8.22937 33.7032 8.44737L34.2536 8.95678L34.8041 9.46618C34.9422 9.31693 35.094 9.18076 35.26 9.05747L34.8128 8.45535ZM34.2536 8.95678L33.7032 8.44737C33.7096 8.44043 33.7091 8.44631 33.6808 8.45629C33.6482 8.46779 33.5821 8.483 33.4682 8.48321L33.4696 9.23321L33.471 9.98321C33.9448 9.98232 34.4424 9.85701 34.8041 9.46618L34.2536 8.95678ZM33.4696 9.23321L33.4682 8.48321C33.1978 8.48372 32.8935 8.53835 32.6247 8.72184C32.3411 8.91545 32.1789 9.1964 32.1094 9.49138L32.8393 9.66348L33.5693 9.83558C33.5694 9.83519 33.5649 9.85442 33.5466 9.88262C33.5274 9.91235 33.5008 9.93994 33.4704 9.96071C33.4117 10.0008 33.3888 9.98336 33.471 9.98321L33.4696 9.23321ZM32.8393 9.66348L32.1094 9.49138C32.1035 9.51603 32.0978 9.52996 32.0948 9.53609C32.0921 9.54183 32.0914 9.54162 32.0941 9.5384C32.0969 9.53505 32.1 9.53249 32.1016 9.53141C32.1029 9.53052 32.0992 9.53337 32.0874 9.53786L32.354 10.2389L32.6207 10.9399C33.1289 10.7466 33.4497 10.343 33.5693 9.83558L32.8393 9.66348ZM32.354 10.2389L32.0874 9.53786C31.7804 9.65464 31.4942 9.80165 31.2318 9.98085L31.6548 10.6002L32.0778 11.2195C32.2356 11.1118 32.4155 11.0179 32.6207 10.9399L32.354 10.2389ZM31.6548 10.6002L31.2318 9.98085C30.909 10.2014 30.6615 10.4953 30.4917 10.8467L31.167 11.173L31.8422 11.4993C31.9028 11.3739 31.9806 11.2859 32.0778 11.2195L31.6548 10.6002ZM31.167 11.173L30.4917 10.8467C30.3922 11.0526 30.2814 11.244 30.1598 11.4215L30.7785 11.8454L31.3973 12.2692C31.5631 12.0271 31.7113 11.7702 31.8422 11.4993L31.167 11.173ZM30.7785 11.8454L30.1598 11.4215C29.9858 11.6755 29.8377 11.9497 29.7145 12.2422L30.4057 12.5333L31.0969 12.8245C31.1833 12.6194 31.2838 12.4349 31.3973 12.2692L30.7785 11.8454ZM30.4057 12.5333L29.7145 12.2422C29.6737 12.3392 29.6244 12.3866 29.5593 12.4206L29.9069 13.0852L30.2545 13.7498C30.6449 13.5456 30.9281 13.2252 31.0969 12.8245L30.4057 12.5333ZM29.9069 13.0852L29.5593 12.4206C29.1943 12.6115 28.9103 12.8978 28.7205 13.2626L29.3858 13.6088L30.0511 13.955C30.1006 13.8599 30.164 13.7971 30.2545 13.7498L29.9069 13.0852ZM29.3858 13.6088L28.7205 13.2626C28.6565 13.3857 28.5926 13.5192 28.5526 13.6426C28.5354 13.6957 28.5012 13.8093 28.5011 13.9457C28.5011 14.0565 28.5355 14.4887 28.9804 14.6719L29.266 13.9784L29.5517 13.2849C29.74 13.3625 29.8678 13.5056 29.9358 13.6529C29.9951 13.7813 30.0011 13.8934 30.0011 13.9465C30.0011 14.0047 29.9933 14.0477 29.9893 14.0669C29.9849 14.0884 29.9806 14.1018 29.9796 14.1049C29.9795 14.105 29.9954 14.062 30.0511 13.955L29.3858 13.6088ZM29.266 13.9784L28.9804 14.6719C28.8238 14.6074 28.7303 14.5059 28.6844 14.4458C28.6373 14.3841 28.6124 14.3299 28.6014 14.3034C28.5798 14.2519 28.5756 14.2198 28.578 14.233C28.5817 14.2531 28.5895 14.3148 28.5952 14.4375L29.3444 14.4026L30.0936 14.3677C30.0869 14.224 30.0754 14.0818 30.053 13.9605C30.0424 13.903 30.0234 13.8159 29.9853 13.7249C29.9662 13.6791 29.8583 13.4112 29.5517 13.2849L29.266 13.9784Z" fill="#030302"/>
</svg>
