<svg width="48" height="48" viewBox="0 0 48 48" fill="none" xmlns="http://www.w3.org/2000/svg">
<path d="M27.7217 9.20924L28.2772 9.71313L27.7217 9.20924ZM27.2389 10.6297L26.492 10.6971L27.2389 10.6297ZM27.1025 11.3734L27.7702 11.7148L27.1025 11.3734ZM26.4415 13.5243L27.0562 13.9539L26.4415 13.5243ZM25.893 14.9238L25.4447 14.3225L25.893 14.9238ZM24.8878 17.7521L24.5561 17.0794L24.8878 17.7521ZM24.6698 18.4362L25.3132 18.0507L24.6698 18.4362ZM28.5149 20.0132L28.5877 20.7596L28.5149 20.0132ZM29.2649 20.25L29.7067 19.6439L29.2649 20.25ZM30.7649 20.1044L30.7985 20.8536L30.7649 20.1044ZM31.5149 20.3367L31.9299 19.712L31.5149 20.3367ZM32.2649 20.2551L31.7688 19.6926L32.2649 20.2551ZM33.7649 20.2656L33.5267 20.9768L33.7649 20.2656ZM36.7649 20.2046L37.3107 20.7189L36.7649 20.2046ZM37.4662 20.1978L38.0421 19.7174L37.4662 20.1978ZM38.1068 20.6709L37.9176 21.3967L38.1068 20.6709ZM39.6245 21.2249L38.9439 21.5401L39.6245 21.2249ZM39.5368 22.0464L40.164 22.4576L39.5368 22.0464ZM37.416 24.9916L37.8423 25.6086L37.416 24.9916ZM36.1895 26.9367L36.8997 27.1777L36.1895 26.9367ZM35.6137 27.423L35.7683 28.1569L35.6137 27.423ZM34.4805 28.4135L33.9366 27.8971L34.4805 28.4135ZM33.5631 29.6134L33.0878 29.0332L33.5631 29.6134ZM32.9774 30.0901L33.4489 30.6733L32.9774 30.0901ZM32.4037 30.5785L32.9044 31.137L32.4037 30.5785ZM31.5016 31.7933L32.1286 32.2048L31.5016 31.7933ZM30.4582 32.8709L30.9369 33.4483L30.4582 32.8709ZM29.7246 33.2041L29.5714 32.47L29.7246 33.2041ZM29.0585 33.6028L28.4523 33.1613L29.0585 33.6028ZM24.2941 38.3851L24.6871 39.0239L24.2941 38.3851ZM23.1449 40.4052L22.76 39.7615L23.1449 40.4052ZM22.5045 40.8421L22.0456 40.2489L22.5045 40.8421ZM20.5805 40.6554L21.325 40.564L20.5805 40.6554ZM20.4848 38.526L21.2081 38.7242L20.4848 38.526ZM21.1421 36.374L20.4766 36.7197L21.1421 36.374ZM21.9518 33.4833L21.2036 33.5356L21.9518 33.4833ZM22.0389 32.7239L21.3253 32.4932L22.0389 32.7239ZM22.7857 31.3876L22.4218 30.7318L22.7857 31.3876ZM23.3868 28.5017L22.6701 28.7227L23.3868 28.5017ZM22.1371 27.8294L21.5731 28.3238L22.1371 27.8294ZM21.4207 27.7233L21.8728 28.3216L21.4207 27.7233ZM19.9207 27.7695L19.8514 28.5163L19.9207 27.7695ZM16.1707 27.7017L16.6413 28.2857L16.1707 27.7017ZM11.6707 27.9883L11.7952 28.7279L11.6707 27.9883ZM10.9123 28.1105L11.0265 28.8518L10.9123 28.1105ZM10.2422 27.7538L9.62479 28.1796L10.2422 27.7538ZM8.77707 27.1268L8.09599 27.4408L8.77707 27.1268ZM8.46494 26.3591L7.75725 26.6074L8.46494 26.3591ZM8.46159 25.5993L9.17117 25.8422L8.46159 25.5993ZM10.6554 22.6414L9.90542 22.6428L10.6554 22.6414ZM12.4498 20.2023L12.0071 19.5969L12.4498 20.2023ZM13.1291 19.8164L12.8309 19.1283L13.1291 19.8164ZM14.436 18.9946L13.7256 18.754L14.436 18.9946ZM14.8584 18.3593L15.3396 18.9346L14.8584 18.3593ZM15.8386 17.2203L15.225 16.789L15.8386 17.2203ZM16.4038 16.7238L16.0495 16.0627L16.4038 16.7238ZM18.0666 15.2021L18.8012 15.3531L18.0666 15.2021ZM19.7244 13.6757L20.2098 14.2474L19.7244 13.6757ZM20.4371 12.277L19.7206 12.0553L20.4371 12.277ZM20.8211 11.6045L20.2799 11.0852L20.8211 11.6045ZM22.5905 10.1863L22.3227 9.48572L22.5905 10.1863ZM23.1761 9.70957L23.8176 10.0982L23.1761 9.70957ZM23.6369 9.1116L23.0991 8.58885L23.6369 9.1116ZM24.1226 8.53781L23.5184 8.09336L24.1226 8.53781ZM24.5062 7.86499L25.1944 8.16304L24.5062 7.86499ZM26.2114 6.92282L25.5677 6.53795L26.2114 6.92282ZM26.2044 8.12401L25.6188 7.65545L26.2044 8.12401ZM23.323 10.5443L22.8549 9.95829L23.323 10.5443ZM22.8594 11.1395L23.5386 11.4576L22.8594 11.1395ZM22.4258 11.7638L21.8957 11.2332L22.4258 11.7638ZM21.4858 12.9418L22.2328 13.0091L21.4858 12.9418ZM20.8924 13.4111L20.877 14.1609L20.8924 13.4111ZM20.2443 13.8272L19.5133 13.6595L20.2443 13.8272ZM20.0272 14.6616L20.747 14.8722L20.0272 14.6616ZM19.008 15.7628L19.3214 16.4442L19.008 15.7628ZM16.8027 17.803L16.0584 17.7101V17.7101L16.8027 17.803ZM14.9102 19.1018L15.5121 19.5493L14.9102 19.1018ZM13.7992 21.1589L13.5014 20.4706L13.7992 21.1589ZM12.4947 21.9832L11.7531 21.8711L12.4947 21.9832ZM12.2102 22.7523L12.8282 23.1773L12.2102 22.7523ZM10.952 23.6214L11.6022 23.9951L10.952 23.6214ZM10.6026 24.3274L11.2935 24.6193L10.6026 24.3274ZM9.35334 25.2847L8.61488 25.1536V25.1536L9.35334 25.2847ZM9.45324 26.1253L8.77149 26.4379L9.45324 26.1253ZM9.97824 26.7912L10.4446 26.2038L9.97824 26.7912ZM10.7292 27.1457L10.5836 27.8814L10.7292 27.1457ZM11.5097 26.8467L10.9764 26.3193L11.5097 26.8467ZM13.7597 27.0965L13.5727 26.3702L13.7597 27.0965ZM16.0097 26.6108L15.9245 27.356L16.0097 26.6108ZM17.5097 27.1299L17.5953 26.3848L17.5097 27.1299ZM19.0097 27.0337L19.0977 27.7785L19.0097 27.0337ZM22.0123 26.656L22.1351 27.3959L22.0123 26.656ZM22.7748 26.73L22.5238 27.4368L22.7748 26.73ZM23.556 27.0014L23.3147 27.7115L23.556 27.0014ZM24.5838 28.19L23.8359 28.2461L24.5838 28.19ZM24.3318 29.743L23.604 29.562L24.3318 29.743ZM23.9961 30.4194L23.4047 29.9581L23.9961 30.4194ZM23.6056 31.0821L24.2979 31.3704L23.6056 31.0821ZM23.5781 31.8605L22.8544 32.0574L23.5781 31.8605ZM22.9427 34.0196L23.6172 34.3476L22.9427 34.0196ZM22.3988 35.4205L21.7465 35.0505L22.3988 35.4205ZM22.0453 36.8822L21.317 37.0617L22.0453 36.8822ZM21.9411 37.6362L22.5726 38.0408L21.9411 37.6362ZM21.5542 38.3L22.2177 38.6497L21.5542 38.3ZM21.7829 39.9607L21.5632 40.6778L21.7829 39.9607ZM22.2509 39.6907L22.9341 40L22.2509 39.6907ZM22.7661 39.1456L22.4208 38.4798L22.7661 39.1456ZM23.5997 37.8643L23.9853 38.5076L23.5997 37.8643ZM24.3882 37.5844L24.5184 38.3231L24.3882 37.5844ZM24.9681 37.1021L25.6847 37.3235L24.9681 37.1021ZM26.2991 35.2584L26.5955 35.9474L26.2991 35.2584ZM27.8754 33.6528L27.4425 33.0404L27.8754 33.6528ZM29.6372 32.2273L29.1332 31.6719L29.6372 32.2273ZM30.1866 31.7153L29.6681 31.1735L30.1866 31.7153ZM30.7772 31.2433L30.3616 30.619L30.7772 31.2433ZM31.6667 30.0164L32.4019 30.1649L31.6667 30.0164ZM32.6131 28.8446L33.3609 28.9023L32.6131 28.8446ZM33.5966 27.7088L33.0934 27.1528L33.5966 27.7088ZM35.6113 25.4836L34.9716 25.0922L35.6113 25.4836ZM36.5626 24.3165L37.2039 24.7055L36.5626 24.3165ZM38.0491 23.6689L37.5469 23.1119L38.0491 23.6689ZM38.48 23.0084L39.1832 23.2695L38.48 23.0084ZM38.0268 21.6973L37.559 22.2835V22.2835L38.0268 21.6973ZM36.033 21.3234L36.251 22.041L36.033 21.3234ZM35.283 21.4974L35.4015 22.2379L35.283 21.4974ZM34.533 21.2825L34.9764 20.6776L34.533 21.2825ZM30.033 20.9605L30.3113 21.6569L30.033 20.9605ZM29.283 21.1393L29.2251 20.3916L29.283 21.1393ZM24.2935 20.4193L24.4983 19.6978V19.6978L24.2935 20.4193ZM23.8171 19.9585L24.5369 19.7479L23.8171 19.9585ZM23.5294 19.2487L24.1953 18.9038L23.5294 19.2487ZM23.5717 18.5552L24.1955 18.9715L23.5717 18.5552ZM24.0485 17.1155L23.502 16.6018L24.0485 17.1155ZM24.5038 16.4735L23.8339 16.1364L24.5038 16.4735ZM24.7795 14.987L24.2033 14.5069L24.7795 14.987ZM24.8864 14.2339L24.1773 14.478V14.478L24.8864 14.2339ZM25.6844 12.1267L25.2158 11.5412L25.6844 12.1267ZM25.8206 11.3829L25.1408 11.6998V11.6998L25.8206 11.3829ZM25.9862 9.86131L26.6433 10.2228L25.9862 9.86131ZM26.6509 7.86823L27.2111 7.36962L26.6509 7.86823ZM26.6561 6.80301L26.7459 7.54761C26.7527 7.54679 26.6813 7.55505 26.5928 7.49903C26.5075 7.44505 26.4904 7.38436 26.4988 7.40733L27.2029 7.14901L27.907 6.89069C27.819 6.65066 27.6625 6.4008 27.3949 6.23149C27.1241 6.06014 26.8276 6.02689 26.5663 6.05841L26.6561 6.80301ZM27.2029 7.14901L26.4988 7.40733C26.6392 7.78996 26.8671 8.11934 27.1803 8.38025L27.6603 7.80399L28.1404 7.22774C28.0366 7.14133 27.9596 7.03405 27.907 6.89069L27.2029 7.14901ZM27.6603 7.80399L27.1803 8.38025C27.218 8.41161 27.234 8.43401 27.2362 8.50708L27.9858 8.48421L28.7355 8.46135C28.7207 7.97477 28.5197 7.54369 28.1404 7.22774L27.6603 7.80399ZM27.9858 8.48421L27.2362 8.50708C27.2389 8.59688 27.2176 8.64864 27.1662 8.70534L27.7217 9.20924L28.2772 9.71313C28.595 9.36278 28.7498 8.9312 28.7355 8.46135L27.9858 8.48421ZM27.7217 9.20924L27.1662 8.70534C26.9197 8.97708 26.7308 9.28452 26.6138 9.62713L27.3236 9.86948L28.0334 10.1118C28.078 9.98117 28.1545 9.84844 28.2772 9.71313L27.7217 9.20924ZM27.3236 9.86948L26.6138 9.62713C26.4963 9.97146 26.459 10.3312 26.492 10.6971L27.2389 10.6297L27.9859 10.5623C27.9702 10.3879 27.9893 10.2408 28.0334 10.1118L27.3236 9.86948ZM27.2389 10.6297L26.492 10.6971C26.5046 10.8366 26.481 10.9414 26.4347 11.032L27.1025 11.3734L27.7702 11.7148C27.9546 11.3542 28.0221 10.9632 27.9859 10.5623L27.2389 10.6297ZM27.1025 11.3734L26.4347 11.032C26.3791 11.1407 26.2811 11.2642 26.1105 11.3953L26.5675 11.99L27.0245 12.5847C27.3365 12.3449 27.5951 12.0573 27.7702 11.7148L27.1025 11.3734ZM26.5675 11.99L26.1105 11.3953C25.8736 11.5774 25.676 11.8398 25.615 12.1851C25.5567 12.5159 25.642 12.821 25.7634 13.0671L26.436 12.7353L27.1086 12.4034C27.0763 12.3381 27.1067 12.3633 27.0922 12.4457C27.0849 12.487 27.069 12.5243 27.0503 12.5528C27.0328 12.5794 27.0194 12.5886 27.0245 12.5847L26.5675 11.99ZM26.436 12.7353L25.7634 13.0671C25.8054 13.1523 25.8027 13.1834 25.8026 13.1713C25.8025 13.164 25.8037 13.1497 25.8091 13.1321C25.8146 13.1144 25.8219 13.1015 25.8267 13.0946L26.4415 13.5243L27.0562 13.9539C27.4141 13.4418 27.3378 12.868 27.1086 12.4034L26.436 12.7353ZM26.4415 13.5243L25.8267 13.0946C25.5779 13.4507 25.466 13.8589 25.4909 14.2903L26.2397 14.2471L26.9884 14.2039C26.9825 14.1006 27.0051 14.027 27.0562 13.9539L26.4415 13.5243ZM26.2397 14.2471L25.4909 14.2903C25.4913 14.2968 25.4905 14.2961 25.4917 14.2905C25.4929 14.2846 25.495 14.2788 25.497 14.2748C25.5015 14.2661 25.4954 14.2848 25.4447 14.3225L25.893 14.9238L26.3413 15.525C26.7549 15.2167 27.0207 14.7636 26.9884 14.2039L26.2397 14.2471ZM25.893 14.9238L25.4447 14.3225C25.0702 14.6017 24.7928 14.9912 24.7334 15.4899L25.4781 15.5786L26.2228 15.6674C26.2236 15.6605 26.2229 15.6134 26.3413 15.525L25.893 14.9238ZM25.4781 15.5786L24.7334 15.4899C24.7033 15.7418 24.6729 15.9937 24.642 16.2454L25.3864 16.3366L26.1309 16.4279C26.1619 16.1745 26.1926 15.921 26.2228 15.6674L25.4781 15.5786ZM25.3864 16.3366L24.642 16.2454C24.6059 16.5401 24.5945 16.8401 24.6069 17.1447L25.3562 17.1142L26.1056 17.0838C26.0964 16.8567 26.1051 16.6383 26.1309 16.4279L25.3864 16.3366ZM25.3562 17.1142L24.6069 17.1447C24.6064 17.1326 24.6076 17.1114 24.6154 17.0857C24.6232 17.0599 24.6343 17.0406 24.6427 17.0291C24.6504 17.0187 24.6521 17.0199 24.639 17.0301C24.6256 17.0405 24.5997 17.0579 24.5561 17.0794L24.8878 17.7521L25.2196 18.4247C25.6967 18.1894 26.1328 17.7532 26.1056 17.0838L25.3562 17.1142ZM24.8878 17.7521L24.5561 17.0794C24.3034 17.204 24 17.4272 23.8764 17.8149C23.7499 18.2119 23.8774 18.5727 24.0265 18.8216L24.6698 18.4362L25.3132 18.0507C25.2846 18.0029 25.3595 18.1013 25.3056 18.2703C25.2547 18.43 25.1491 18.4594 25.2196 18.4247L24.8878 17.7521ZM24.6698 18.4362L24.0265 18.8216C24.0812 18.913 24.0909 18.9595 24.092 18.9664C24.0923 18.9683 24.0909 18.9602 24.0927 18.945C24.0947 18.9292 24.0993 18.9125 24.1061 18.8975L24.7895 19.2064L25.4729 19.5154C25.7129 18.9846 25.5563 18.4564 25.3132 18.0507L24.6698 18.4362ZM24.7895 19.2064L24.1061 18.8975C24.0118 19.106 23.9351 19.4092 24.0498 19.7354C24.1667 20.0679 24.4229 20.2567 24.6386 20.357L24.9549 19.6769L25.2711 18.9969C25.2786 19.0004 25.4031 19.0623 25.4649 19.2379C25.4934 19.3191 25.4957 19.3921 25.4898 19.4433C25.487 19.4678 25.4825 19.4862 25.4791 19.4978C25.4757 19.5093 25.473 19.5153 25.4729 19.5154L24.7895 19.2064ZM24.9549 19.6769L24.6386 20.357C24.7215 20.3956 24.8484 20.4843 25.0113 20.6727L25.5786 20.1821L26.1458 19.6915C25.8937 19.4 25.6048 19.152 25.2711 18.9969L24.9549 19.6769ZM25.5786 20.1821L25.0113 20.6727C25.2063 20.8981 25.5262 21.1286 25.9586 21.0981C26.3521 21.0703 26.6381 20.8361 26.8173 20.641L26.2649 20.1337L25.7125 19.6264C25.6417 19.7035 25.6882 19.6134 25.853 19.6018C25.9419 19.5955 26.0219 19.6167 26.0805 19.6467C26.1327 19.6735 26.1524 19.6991 26.1458 19.6915L25.5786 20.1821ZM26.2649 20.1337L26.8173 20.641C26.8533 20.6017 26.8808 20.5782 26.8985 20.5651C26.916 20.5521 26.921 20.5515 26.9131 20.5546C26.9041 20.5581 26.8852 20.5637 26.8591 20.5648C26.8328 20.566 26.8103 20.562 26.7951 20.5574L27.0149 19.8403L27.2346 19.1232C26.5973 18.9279 26.0647 19.2428 25.7125 19.6264L26.2649 20.1337ZM27.0149 19.8403L26.7951 20.5574C27.0847 20.6461 27.3768 20.7095 27.671 20.7466L27.7649 20.0025L27.8587 19.2584C27.6529 19.2324 27.445 19.1877 27.2346 19.1232L27.0149 19.8403ZM27.7649 20.0025L27.671 20.7466C27.9762 20.7851 28.2821 20.7894 28.5877 20.7596L28.5149 20.0132L28.442 19.2667C28.2477 19.2857 28.0536 19.2829 27.8587 19.2584L27.7649 20.0025ZM28.5149 20.0132L28.5877 20.7596C28.6149 20.757 28.6857 20.7559 28.823 20.856L29.2649 20.25L29.7067 19.6439C29.3441 19.3795 28.9149 19.2206 28.442 19.2667L28.5149 20.0132ZM29.2649 20.25L28.823 20.856C29.0315 21.008 29.2815 21.1237 29.5679 21.1513C29.8589 21.1794 30.1312 21.1109 30.3693 20.9833L30.0149 20.3223L29.6605 19.6613C29.6523 19.6657 29.6545 19.6633 29.6663 19.6607C29.6788 19.6579 29.6949 19.6566 29.7119 19.6582C29.7198 19.659 29.7263 19.6602 29.7312 19.6615C29.7335 19.6621 29.7354 19.6626 29.7366 19.6631C29.7379 19.6635 29.7385 19.6637 29.7385 19.6637C29.7384 19.6637 29.7277 19.6593 29.7067 19.6439L29.2649 20.25ZM30.0149 20.3223L30.3693 20.9833C30.5336 20.8952 30.6748 20.8592 30.7985 20.8536L30.7649 20.1044L30.7313 19.3551C30.3549 19.372 29.9962 19.4813 29.6605 19.6613L30.0149 20.3223ZM30.7649 20.1044L30.7985 20.8536C30.8598 20.8509 30.9553 20.8654 31.0999 20.9614L31.5149 20.3367L31.9299 19.712C31.5744 19.4758 31.1699 19.3355 30.7313 19.3551L30.7649 20.1044ZM31.5149 20.3367L31.0999 20.9614C31.3415 21.1219 31.6393 21.2225 31.971 21.1865C32.2929 21.1514 32.5572 20.9973 32.7609 20.8176L32.2649 20.2551L31.7688 19.6926C31.7226 19.7334 31.7368 19.7031 31.8088 19.6953C31.8438 19.6914 31.8769 19.6951 31.9031 19.7024C31.9276 19.7092 31.9367 19.7165 31.9299 19.712L31.5149 20.3367ZM32.2649 20.2551L32.7609 20.8176C32.8262 20.7601 32.8577 20.7517 32.8535 20.753C32.8508 20.7538 32.8426 20.7557 32.831 20.7557C32.8193 20.7558 32.8109 20.754 32.8076 20.753L33.0149 20.0322L33.2221 19.3114C32.6567 19.1489 32.1496 19.3568 31.7688 19.6926L32.2649 20.2551ZM33.0149 20.0322L32.8076 20.753C33.0471 20.8219 33.2868 20.8965 33.5267 20.9768L33.7649 20.2656L34.003 19.5544C33.7429 19.4673 33.4826 19.3863 33.2221 19.3114L33.0149 20.0322ZM33.7649 20.2656L33.5267 20.9768C33.9704 21.1254 34.4206 21.0881 34.8362 20.8911L34.5149 20.2134L34.1936 19.5357C34.1091 19.5757 34.0594 19.5733 34.003 19.5544L33.7649 20.2656ZM34.5149 20.2134L34.8362 20.8911C35.0045 20.8112 35.1558 20.7756 35.2946 20.7701L35.2649 20.0207L35.2352 19.2713C34.8739 19.2856 34.5252 19.3784 34.1936 19.5357L34.5149 20.2134ZM35.2649 20.0207L35.2946 20.7701C35.3197 20.7691 35.3986 20.7723 35.5479 20.8911L36.0149 20.3042L36.4818 19.7173C36.1311 19.4382 35.7101 19.2525 35.2352 19.2713L35.2649 20.0207ZM36.0149 20.3042L35.5479 20.8911C35.7874 21.0816 36.1109 21.2221 36.4886 21.1719C36.8464 21.1244 37.1188 20.9226 37.3107 20.7189L36.7649 20.2046L36.219 19.6902C36.1609 19.7519 36.1833 19.6993 36.2911 19.685C36.3461 19.6777 36.398 19.6846 36.4383 19.6979C36.4753 19.7102 36.4895 19.7234 36.4818 19.7173L36.0149 20.3042ZM36.7649 20.2046L37.3107 20.7189C37.3724 20.6534 37.312 20.7521 37.135 20.7538C36.9393 20.7557 36.8581 20.6396 36.8902 20.6781L37.4662 20.1978L38.0421 19.7174C37.8567 19.4951 37.5499 19.2497 37.1204 19.2539C36.7096 19.2579 36.4073 19.4904 36.219 19.6902L36.7649 20.2046ZM37.4662 20.1978L36.8902 20.6781C37.1551 20.9957 37.4927 21.2859 37.9176 21.3967L38.1068 20.6709L38.296 19.9452C38.302 19.9468 38.2818 19.9429 38.2351 19.9084C38.1877 19.8734 38.1226 19.8139 38.0421 19.7174L37.4662 20.1978ZM38.1068 20.6709L37.9176 21.3967C38.1905 21.4678 38.5162 21.5111 38.8787 21.5357L38.9295 20.7874L38.9803 20.0391C38.665 20.0177 38.4423 19.9833 38.296 19.9452L38.1068 20.6709ZM38.9295 20.7874L38.8787 21.5357C38.9536 21.5407 38.9694 21.556 38.9578 21.5487C38.9524 21.5453 38.9465 21.5403 38.9421 21.5351C38.938 21.5303 38.9394 21.5304 38.9439 21.5401L39.6245 21.2249L40.305 20.9098C40.0464 20.3512 39.5438 20.0773 38.9803 20.0391L38.9295 20.7874ZM39.6245 21.2249L38.9439 21.5401C38.9497 21.5526 38.9504 21.558 38.9503 21.5571C38.9501 21.5558 38.95 21.5535 38.9501 21.5522C38.9505 21.5483 38.9494 21.5745 38.9096 21.6353L39.5368 22.0464L40.164 22.4576C40.4676 21.9945 40.5537 21.4468 40.305 20.9098L39.6245 21.2249ZM39.5368 22.0464L38.9096 21.6353C38.6651 22.0081 38.507 22.4393 38.5497 22.9057L39.2966 22.8372L40.0435 22.7688C40.0407 22.7387 40.0427 22.6427 40.164 22.4576L39.5368 22.0464ZM39.2966 22.8372L38.5497 22.9057C38.5572 22.9877 38.5421 23.0527 38.4957 23.1259L39.129 23.5276L39.7624 23.9292C39.9849 23.5785 40.0814 23.1832 40.0435 22.7688L39.2966 22.8372ZM39.129 23.5276L38.4957 23.1259C38.4105 23.2602 38.3046 23.3747 38.1742 23.4722L38.6232 24.0729L39.0722 24.6737C39.3474 24.468 39.5787 24.2189 39.7624 23.9292L39.129 23.5276ZM38.6232 24.0729L38.1742 23.4722C37.9642 23.6291 37.7576 23.7894 37.5543 23.9531L38.0247 24.5372L38.4952 25.1214C38.6843 24.9691 38.8766 24.8198 39.0722 24.6737L38.6232 24.0729ZM38.0247 24.5372L37.5543 23.9531C37.3726 24.0995 37.1844 24.2399 36.9896 24.3745L37.416 24.9916L37.8423 25.6086C38.0669 25.4534 38.2845 25.291 38.4952 25.1214L38.0247 24.5372ZM37.416 24.9916L36.9896 24.3745C36.5576 24.673 36.3559 25.1276 36.305 25.6025L37.0508 25.6823L37.7965 25.7621C37.8054 25.6789 37.8226 25.6382 37.8304 25.6234C37.8362 25.6125 37.8389 25.611 37.8423 25.6086L37.416 24.9916ZM37.0508 25.6823L36.305 25.6025C36.2968 25.6789 36.281 25.7067 36.2803 25.7079C36.28 25.7085 36.2816 25.7057 36.2853 25.7021C36.2889 25.6985 36.291 25.6976 36.2887 25.6989L36.6615 26.3496L37.0343 27.0004C37.5155 26.7248 37.7435 26.2576 37.7965 25.7621L37.0508 25.6823ZM36.6615 26.3496L36.2887 25.6989C35.8936 25.9252 35.6229 26.2725 35.4793 26.6957L36.1895 26.9367L36.8997 27.1777C36.934 27.0768 36.9779 27.0327 37.0343 27.0004L36.6615 26.3496ZM36.1895 26.9367L35.4793 26.6957C35.476 26.7054 35.4747 26.7057 35.4782 26.7004C35.4798 26.698 35.4822 26.6948 35.4853 26.6913C35.4884 26.6878 35.4917 26.6846 35.4949 26.6819C35.5019 26.676 35.5055 26.6748 35.5019 26.6765C35.4978 26.6783 35.4847 26.6837 35.4591 26.6891L35.6137 27.423L35.7683 28.1569C36.2945 28.0461 36.7169 27.7166 36.8997 27.1777L36.1895 26.9367ZM35.6137 27.423L35.4591 26.6891C35.0143 26.7828 34.6116 27.0069 34.3382 27.4022L34.955 27.8289L35.5718 28.2555C35.5868 28.234 35.6233 28.1875 35.7683 28.1569L35.6137 27.423ZM34.955 27.8289L34.3382 27.4022C34.2157 27.5794 34.0818 27.7442 33.9366 27.8971L34.4805 28.4135L35.0244 28.93C35.2235 28.7203 35.406 28.4953 35.5718 28.2555L34.955 27.8289ZM34.4805 28.4135L33.9366 27.8971C33.7161 28.1293 33.5297 28.3903 33.3768 28.677L34.0387 29.0299L34.7005 29.3827C34.7924 29.2102 34.9006 29.0603 35.0244 28.93L34.4805 28.4135ZM34.0387 29.0299L33.3768 28.677C33.2994 28.8223 33.2033 28.9386 33.0878 29.0332L33.5631 29.6134L34.0383 30.1936C34.3122 29.9693 34.5332 29.6966 34.7005 29.3827L34.0387 29.0299ZM33.5631 29.6134L33.0878 29.0332C32.8944 29.1917 32.7004 29.3496 32.5058 29.5069L32.9774 30.0901L33.4489 30.6733C33.646 30.514 33.8424 30.3541 34.0383 30.1936L33.5631 29.6134ZM32.9774 30.0901L32.5058 29.5069C32.3001 29.6732 32.0992 29.8443 31.9031 30.0201L32.4037 30.5785L32.9044 31.137C33.0815 30.9782 33.263 30.8237 33.4489 30.6733L32.9774 30.0901ZM32.4037 30.5785L31.9031 30.0201C31.6652 30.2334 31.4593 30.4765 31.2859 30.7473L31.9175 31.1518L32.5491 31.5562C32.6508 31.3973 32.7691 31.2583 32.9044 31.137L32.4037 30.5785ZM31.9175 31.1518L31.2859 30.7473C31.1498 30.9598 31.0127 31.1713 30.8746 31.3818L31.5016 31.7933L32.1286 32.2048C32.2698 31.9896 32.41 31.7734 32.5491 31.5562L31.9175 31.1518ZM31.5016 31.7933L30.8746 31.3818C30.7658 31.5475 30.642 31.6959 30.5031 31.8282L31.0203 32.3713L31.5376 32.9144C31.761 32.7017 31.958 32.4647 32.1286 32.2048L31.5016 31.7933ZM31.0203 32.3713L30.5031 31.8282C30.3344 31.9889 30.1599 32.144 29.9795 32.2935L30.4582 32.8709L30.9369 33.4483C31.1436 33.2769 31.3439 33.0989 31.5376 32.9144L31.0203 32.3713ZM30.4582 32.8709L29.9795 32.2935C29.8971 32.3619 29.771 32.4283 29.5714 32.47L29.7246 33.2041L29.8779 33.9383C30.2691 33.8567 30.6321 33.701 30.9369 33.4483L30.4582 32.8709ZM29.7246 33.2041L29.5714 32.47C29.1314 32.5618 28.731 32.7785 28.4523 33.1613L29.0585 33.6028L29.6648 34.0443C29.6833 34.0189 29.727 33.9698 29.8779 33.9383L29.7246 33.2041ZM29.0585 33.6028L28.4523 33.1613C28.2354 33.4591 28.091 33.8001 28.0064 34.1682L28.7373 34.3362L29.4683 34.5043C29.5146 34.3027 29.5844 34.1547 29.6648 34.0443L29.0585 33.6028ZM28.7373 34.3362L28.0064 34.1682C27.9659 34.3444 27.9023 34.4499 27.8373 34.5182L28.3806 35.0352L28.924 35.5522C29.2036 35.2582 29.3778 34.8977 29.4683 34.5043L28.7373 34.3362ZM28.3806 35.0352L27.8373 34.5182C27.7404 34.62 27.6161 34.7081 27.4527 34.7784L27.7491 35.4674L28.0455 36.1563C28.3795 36.0126 28.6762 35.8126 28.924 35.5522L28.3806 35.0352ZM27.7491 35.4674L27.4527 34.7784C27.157 34.9056 26.8815 35.0598 26.6284 35.2423L27.0671 35.8506L27.5057 36.459C27.6645 36.3445 27.8437 36.2431 28.0455 36.1563L27.7491 35.4674ZM27.0671 35.8506L26.6284 35.2423C26.4074 35.4016 26.1935 35.5684 25.9868 35.7424L26.4698 36.3161L26.9529 36.8899C27.1306 36.7402 27.3149 36.5966 27.5057 36.459L27.0671 35.8506ZM26.4698 36.3161L25.9868 35.7424C25.7962 35.9028 25.6049 36.0625 25.4128 36.2215L25.8908 36.7993L26.3689 37.3772C26.5644 37.2155 26.759 37.0531 26.9529 36.8899L26.4698 36.3161ZM25.8908 36.7993L25.4128 36.2215C25.1581 36.4321 24.9409 36.6787 24.7621 36.9583L25.394 37.3623L26.0259 37.7663C26.122 37.6159 26.236 37.4872 26.3689 37.3772L25.8908 36.7993ZM25.394 37.3623L24.7621 36.9583C24.6616 37.1154 24.5443 37.2523 24.4096 37.3711L24.9057 37.9336L25.4018 38.496C25.6432 38.2831 25.8514 38.0391 26.0259 37.7663L25.394 37.3623ZM24.9057 37.9336L24.4096 37.3711C24.2546 37.5078 24.0853 37.6329 23.9011 37.7463L24.2941 38.3851L24.6871 39.0239C24.9422 38.8669 25.1807 38.691 25.4018 38.496L24.9057 37.9336ZM24.2941 38.3851L23.9011 37.7463C23.464 38.0152 23.2287 38.4412 23.1493 38.9124L23.8889 39.037L24.6285 39.1616C24.6405 39.0905 24.6577 39.0571 24.665 39.0454C24.6706 39.0363 24.6755 39.031 24.6871 39.0239L24.2941 38.3851ZM23.8889 39.037L23.1493 38.9124C23.1084 39.155 23.0452 39.3588 22.9657 39.5295L23.6457 39.8461L24.3256 40.1627C24.4695 39.8535 24.5685 39.5178 24.6285 39.1616L23.8889 39.037ZM23.6457 39.8461L22.9657 39.5295C22.9159 39.6366 22.8502 39.7076 22.76 39.7615L23.1449 40.4052L23.5298 41.0489C23.8839 40.8372 24.152 40.5354 24.3256 40.1627L23.6457 39.8461ZM23.1449 40.4052L22.76 39.7615C22.5122 39.9097 22.274 40.0722 22.0456 40.2489L22.5045 40.8421L22.9635 41.4353C23.1446 41.2952 23.3334 41.1664 23.5298 41.0489L23.1449 40.4052ZM22.5045 40.8421L22.0456 40.2489C21.9133 40.3513 21.7611 40.4315 21.5832 40.4882L21.8107 41.2028L22.0381 41.9175C22.3758 41.8101 22.6861 41.6499 22.9635 41.4353L22.5045 40.8421ZM21.8107 41.2028L21.5832 40.4882C21.4786 40.5214 21.3778 40.5228 21.2582 40.4842L21.0277 41.1979L20.7972 41.9116C21.206 42.0436 21.6272 42.0483 22.0381 41.9175L21.8107 41.2028ZM21.0277 41.1979L21.2582 40.4842C21.2462 40.4803 21.2477 40.4793 21.2572 40.4854C21.2675 40.492 21.2821 40.5038 21.2965 40.5212C21.3108 40.5386 21.3195 40.555 21.3239 40.566C21.3279 40.5762 21.3266 40.5771 21.325 40.564L20.5805 40.6554L19.8361 40.7467C19.8671 40.9996 19.9578 41.2554 20.139 41.4753C20.3203 41.6952 20.5543 41.8331 20.7972 41.9116L21.0277 41.1979ZM20.5805 40.6554L21.325 40.564C21.2772 40.1749 21.1452 39.8124 20.9229 39.4907L20.3059 39.9172L19.689 40.3437C19.765 40.4536 19.8161 40.5831 19.8361 40.7467L20.5805 40.6554ZM20.3059 39.9172L20.9229 39.4907C20.915 39.4793 20.9141 39.4756 20.9157 39.4796C20.9174 39.484 20.9204 39.4936 20.9218 39.5069C20.9233 39.5202 20.9225 39.5316 20.9212 39.5392C20.92 39.5463 20.9191 39.5458 20.9229 39.537L20.2339 39.2408L19.5449 38.9446C19.3387 39.424 19.3974 39.9219 19.689 40.3437L20.3059 39.9172ZM20.2339 39.2408L20.9229 39.537C21.0374 39.2707 21.1326 38.9997 21.2081 38.7242L20.4848 38.526L19.7614 38.3278C19.7047 38.5349 19.6326 38.7404 19.5449 38.9446L20.2339 39.2408ZM20.4848 38.526L21.2081 38.7242C21.2661 38.5123 21.337 38.3045 21.4206 38.1006L20.7268 37.8159L20.0329 37.5312C19.9261 37.7914 19.8356 38.057 19.7614 38.3278L20.4848 38.526ZM20.7268 37.8159L21.4206 38.1006C21.4848 37.9443 21.5775 37.7897 21.7049 37.6365L21.1284 37.1568L20.5519 36.6771C20.3342 36.9387 20.1592 37.2234 20.0329 37.5312L20.7268 37.8159ZM21.1284 37.1568L21.7049 37.6365C21.8964 37.4064 22.0058 37.126 22.0111 36.8187C22.0162 36.5267 21.9272 36.2583 21.8076 36.0282L21.1421 36.374L20.4766 36.7197C20.4976 36.7602 20.5066 36.7864 20.5102 36.7994C20.5136 36.8118 20.5111 36.8085 20.5114 36.7924C20.5117 36.7752 20.5152 36.7514 20.5248 36.7259C20.5344 36.7007 20.5459 36.6843 20.5519 36.6771L21.1284 37.1568ZM21.1421 36.374L21.8076 36.0282C21.7818 35.9785 21.8446 36.0705 21.788 36.2231C21.7349 36.366 21.641 36.3862 21.7159 36.3519L21.4034 35.6701L21.091 34.9883C20.8281 35.1087 20.5219 35.3235 20.3817 35.7011C20.238 36.0883 20.339 36.4549 20.4766 36.7197L21.1421 36.374ZM21.4034 35.6701L21.7159 36.3519C22.1564 36.15 22.5864 35.8138 22.7308 35.2662L22.0056 35.0749L21.2804 34.8837C21.2869 34.8591 21.2973 34.8546 21.28 34.8718C21.2582 34.8933 21.2038 34.9365 21.091 34.9883L21.4034 35.6701ZM22.0056 35.0749L22.7308 35.2662C22.8232 34.9158 22.8362 34.5541 22.7827 34.1898L22.0406 34.2989L21.2986 34.408C21.326 34.5943 21.3156 34.75 21.2804 34.8837L22.0056 35.0749ZM22.0406 34.2989L22.7827 34.1898C22.7449 33.9327 22.7173 33.6797 22.6999 33.431L21.9518 33.4833L21.2036 33.5356C21.2237 33.8236 21.2555 34.1144 21.2986 34.408L22.0406 34.2989ZM21.9518 33.4833L22.6999 33.431C22.6873 33.2509 22.7074 33.0944 22.7526 32.9545L22.0389 32.7239L21.3253 32.4932C21.2167 32.8291 21.1786 33.1789 21.2036 33.5356L21.9518 33.4833ZM22.0389 32.7239L22.7526 32.9545C22.8348 32.7001 22.9082 32.4428 22.9727 32.1829L22.2447 32.0023L21.5168 31.8217C21.4606 32.0481 21.3968 32.2719 21.3253 32.4932L22.0389 32.7239ZM22.2447 32.0023L22.9727 32.1829C22.9714 32.1881 22.9702 32.1822 22.9882 32.1617C23.0092 32.1379 23.0559 32.0954 23.1495 32.0434L22.7857 31.3876L22.4218 30.7318C22.0092 30.9607 21.6437 31.3102 21.5168 31.8217L22.2447 32.0023ZM22.7857 31.3876L23.1495 32.0434C23.6108 31.7875 23.9935 31.347 23.9723 30.7146L23.2228 30.7398L22.4732 30.7649C22.4729 30.7583 22.4736 30.7435 22.479 30.7244C22.4845 30.7051 22.4924 30.6902 22.4984 30.6812C22.5093 30.665 22.5002 30.6883 22.4218 30.7318L22.7857 31.3876ZM23.2228 30.7398L23.9723 30.7146C23.968 30.5856 23.9956 30.4832 24.0508 30.3888L23.4034 30.0102L22.756 29.6315C22.5525 29.9795 22.4597 30.3635 22.4732 30.7649L23.2228 30.7398ZM23.4034 30.0102L24.0508 30.3888C24.2673 30.0187 24.3444 29.6086 24.2943 29.1876L23.5496 29.2763L22.8048 29.3649C22.8185 29.4802 22.7983 29.5593 22.756 29.6315L23.4034 30.0102ZM23.5496 29.2763L24.2943 29.1876C24.2572 28.8763 24.1939 28.5737 24.1035 28.2806L23.3868 28.5017L22.6701 28.7227C22.7329 28.9261 22.778 29.1399 22.8048 29.3649L23.5496 29.2763ZM23.3868 28.5017L24.1035 28.2806C24.0281 28.036 23.8787 27.7766 23.6059 27.602C23.3356 27.4289 23.0402 27.4007 22.7911 27.4289L22.8752 28.1741L22.9594 28.9194C22.9748 28.9177 22.8969 28.9292 22.7971 28.8652C22.6948 28.7998 22.669 28.7191 22.6701 28.7227L23.3868 28.5017ZM22.8752 28.1741L22.7911 27.4289C22.792 27.4288 22.7969 27.4285 22.8036 27.4296C22.8101 27.4307 22.8126 27.4321 22.8097 27.4308C22.8027 27.4275 22.7643 27.4072 22.7011 27.335L22.1371 27.8294L21.5731 28.3238C21.9091 28.7072 22.38 28.9848 22.9594 28.9194L22.8752 28.1741ZM22.1371 27.8294L22.7011 27.335C22.5197 27.1281 22.2549 26.9192 21.8972 26.8662C21.5243 26.811 21.204 26.947 20.9685 27.1249L21.4207 27.7233L21.8728 28.3216C21.8816 28.315 21.8677 28.3276 21.8308 28.3392C21.7906 28.3518 21.7366 28.3588 21.6774 28.35C21.5585 28.3324 21.5269 28.2711 21.5731 28.3238L22.1371 27.8294ZM21.4207 27.7233L20.9685 27.1249C20.9079 27.1707 20.8747 27.1802 20.8686 27.1817C20.8656 27.1825 20.8659 27.1821 20.8682 27.1821C20.8706 27.1821 20.8703 27.1825 20.8661 27.1814L20.6707 27.9055L20.4753 28.6296C20.9966 28.7702 21.4813 28.6175 21.8728 28.3216L21.4207 27.7233ZM20.6707 27.9055L20.8661 27.1814C20.576 27.1031 20.2839 27.05 19.99 27.0227L19.9207 27.7695L19.8514 28.5163C20.0575 28.5354 20.2653 28.5729 20.4753 28.6296L20.6707 27.9055ZM19.9207 27.7695L19.99 27.0227C19.5485 26.9817 19.1363 27.1062 18.7722 27.3345L19.1707 27.9699L19.5692 28.6053C19.7051 28.52 19.7928 28.5108 19.8514 28.5163L19.9207 27.7695ZM19.1707 27.9699L18.7722 27.3345C18.7529 27.3466 18.7423 27.3505 18.7402 27.3512C18.7392 27.3516 18.7399 27.3513 18.7423 27.3508C18.7447 27.3503 18.7482 27.3498 18.7525 27.3495C18.7568 27.3493 18.7611 27.3494 18.7652 27.3497C18.7693 27.35 18.7724 27.3506 18.7743 27.351C18.7782 27.3519 18.7745 27.3517 18.7624 27.3455L18.4207 28.0131L18.0789 28.6808C18.5783 28.9364 19.1092 28.8937 19.5692 28.6053L19.1707 27.9699ZM18.4207 28.0131L18.7624 27.3455C18.4352 27.178 18.0901 27.0723 17.7308 27.0434L17.6707 27.791L17.6105 28.5386C17.7512 28.5499 17.9061 28.5923 18.0789 28.6808L18.4207 28.0131ZM17.6707 27.791L17.7308 27.0434C17.5823 27.0315 17.4218 26.9891 17.2462 26.9045L16.9207 27.5801L16.5951 28.2558C16.9195 28.4121 17.2591 28.5103 17.6105 28.5386L17.6707 27.791ZM16.9207 27.5801L17.2462 26.9045C16.9967 26.7843 16.7168 26.7327 16.4257 26.7799C16.1422 26.8258 15.8997 26.9568 15.7 27.1177L16.1707 27.7017L16.6413 28.2857C16.6916 28.2451 16.6991 28.2551 16.6656 28.2605C16.6492 28.2632 16.6313 28.2632 16.6148 28.2606C16.5989 28.2581 16.5919 28.2543 16.5951 28.2558L16.9207 27.5801ZM16.1707 27.7017L15.7 27.1177C15.5544 27.2351 15.4855 27.2305 15.4728 27.2296L15.4207 27.9778L15.3686 28.726C15.8559 28.7599 16.2869 28.5713 16.6413 28.2857L16.1707 27.7017ZM15.4207 27.9778L15.4728 27.2296C15.3005 27.2176 15.1223 27.1787 14.9362 27.1083L14.6707 27.8097L14.4051 28.5111C14.719 28.63 15.0408 28.7031 15.3686 28.726L15.4207 27.9778ZM14.6707 27.8097L14.9362 27.1083C14.6505 27.0001 14.362 26.9158 14.0709 26.8563L13.9207 27.5911L13.7704 28.3259C13.9794 28.3686 14.1908 28.43 14.4051 28.5111L14.6707 27.8097ZM13.9207 27.5911L14.0709 26.8563C13.7384 26.7883 13.4028 26.7771 13.0675 26.8236L13.1707 27.5665L13.2738 28.3093C13.4386 28.2865 13.6029 28.2916 13.7704 28.3259L13.9207 27.5911ZM13.1707 27.5665L13.0675 26.8236C12.7513 26.8675 12.4408 26.9534 12.1368 27.0776L12.4207 27.7719L12.7045 28.4661C12.9006 28.3859 13.09 28.3349 13.2738 28.3093L13.1707 27.5665ZM12.4207 27.7719L12.1368 27.0776C11.9348 27.1602 11.7381 27.2164 11.5461 27.2487L11.6707 27.9883L11.7952 28.7279C12.1032 28.676 12.4065 28.5879 12.7045 28.4661L12.4207 27.7719ZM11.6707 27.9883L11.5461 27.2487C11.2996 27.2902 11.0503 27.3304 10.7981 27.3693L10.9123 28.1105L11.0265 28.8518C11.2855 28.8119 11.5417 28.7706 11.7952 28.7279L11.6707 27.9883ZM10.9123 28.1105L10.7981 27.3693C10.8076 27.3678 10.8259 27.3666 10.8495 27.3705C10.8732 27.3744 10.8926 27.382 10.9055 27.3888C10.929 27.4013 10.9087 27.3992 10.8597 27.3281L10.2422 27.7538L9.62479 28.1796C9.92065 28.6086 10.3974 28.9487 11.0265 28.8518L10.9123 28.1105ZM10.2422 27.7538L10.8597 27.3281C10.6977 27.0932 10.4777 26.8913 10.1906 26.7717C9.90372 26.6522 9.60572 26.6382 9.32537 26.6877L9.4557 27.4263L9.58603 28.1649C9.61376 28.16 9.62715 28.1608 9.62906 28.161C9.63011 28.1611 9.62376 28.1605 9.61392 28.1564C9.60406 28.1523 9.59884 28.1481 9.59907 28.1483C9.59996 28.149 9.6094 28.1573 9.62479 28.1796L10.2422 27.7538ZM9.4557 27.4263L9.32537 26.6877C9.25273 26.7005 9.27438 26.6809 9.33894 26.7094C9.37202 26.724 9.40257 26.7455 9.4265 26.7704C9.4493 26.794 9.45777 26.8119 9.45815 26.8127L8.77707 27.1268L8.09599 27.4408C8.21981 27.7094 8.42791 27.9469 8.73329 28.0817C9.02406 28.21 9.32544 28.2109 9.58603 28.1649L9.4557 27.4263ZM8.77707 27.1268L9.45815 26.8127C9.34827 26.5744 9.25325 26.3405 9.17263 26.1107L8.46494 26.3591L7.75725 26.6074C7.85443 26.8843 7.96749 27.1622 8.09599 27.4408L8.77707 27.1268ZM8.46494 26.3591L9.17263 26.1107C9.13929 26.0157 9.13923 25.9355 9.17117 25.8422L8.46159 25.5993L7.75202 25.3564C7.61062 25.7694 7.61279 26.1957 7.75725 26.6074L8.46494 26.3591ZM8.46159 25.5993L9.17117 25.8422C9.272 25.5476 9.34578 25.2484 9.39179 24.9449L8.65026 24.8325L7.90873 24.7201C7.87652 24.9326 7.82452 25.1446 7.75202 25.3564L8.46159 25.5993ZM8.65026 24.8325L9.39179 24.9449C9.39342 24.9341 9.39498 24.9315 9.39378 24.9345C9.39323 24.9358 9.39224 24.938 9.39071 24.9407C9.38918 24.9434 9.38741 24.9461 9.38551 24.9486C9.38141 24.954 9.37882 24.9558 9.3806 24.9544C9.38269 24.9528 9.39097 24.9466 9.40878 24.9378L9.07881 24.2643L8.74884 23.5908C8.29506 23.8131 7.98694 24.2042 7.90873 24.7201L8.65026 24.8325ZM9.07881 24.2643L9.40878 24.9378C9.79445 24.7489 10.0999 24.4575 10.2953 24.0705L9.62579 23.7324L8.9563 23.3943C8.91559 23.475 8.85635 23.5381 8.74884 23.5908L9.07881 24.2643ZM9.62579 23.7324L10.2953 24.0705C10.3049 24.0514 10.3124 24.0445 10.3192 24.0393C10.3279 24.0327 10.354 24.0155 10.4143 24.0002L10.2296 23.2733L10.045 22.5464C9.57861 22.6648 9.1846 22.9422 8.9563 23.3943L9.62579 23.7324ZM10.2296 23.2733L10.4143 24.0002C10.7056 23.9262 10.9816 23.762 11.1714 23.4802C11.3521 23.2121 11.4059 22.9099 11.4054 22.64L10.6554 22.6414L9.90542 22.6428C9.90556 22.7219 9.88876 22.6995 9.92747 22.642C9.94736 22.6125 9.97363 22.5868 10.0017 22.5682C10.0282 22.5506 10.0461 22.5461 10.045 22.5464L10.2296 23.2733ZM10.6554 22.6414L11.4054 22.64C11.4053 22.5839 11.4188 22.6739 11.3201 22.7736C11.2226 22.8722 11.1355 22.8591 11.1967 22.8579L11.1828 22.1081L11.1688 21.3582C10.8779 21.3636 10.5267 21.4426 10.2535 21.719C9.97902 21.9965 9.90489 22.3499 9.90542 22.6428L10.6554 22.6414ZM11.1828 22.1081L11.1967 22.8579C11.6794 22.849 12.1899 22.7029 12.5339 22.2648L11.9439 21.8017L11.354 21.3385C11.3646 21.3251 11.3732 21.3244 11.3572 21.3308C11.3355 21.3396 11.2787 21.3562 11.1688 21.3582L11.1828 22.1081ZM11.9439 21.8017L12.5339 22.2648C12.8363 21.8796 12.924 21.4034 12.9094 20.9423L12.1598 20.966L11.4102 20.9896C11.4183 21.2474 11.3621 21.3283 11.354 21.3385L11.9439 21.8017ZM12.1598 20.966L12.9094 20.9423C12.9059 20.8315 12.921 20.7821 12.9249 20.7718C12.9264 20.768 12.9249 20.773 12.9179 20.7825C12.9105 20.7923 12.9014 20.8012 12.8926 20.8077L12.4498 20.2023L12.0071 19.5969C11.5268 19.9482 11.3945 20.4942 11.4102 20.9896L12.1598 20.966ZM12.4498 20.2023L12.8926 20.8077C13.0495 20.6929 13.2269 20.5914 13.4273 20.5046L13.1291 19.8164L12.8309 19.1283C12.535 19.2565 12.2596 19.4123 12.0071 19.5969L12.4498 20.2023ZM13.1291 19.8164L13.4273 20.5046C13.6547 20.406 13.8919 20.3155 14.1393 20.233L13.9021 19.5215L13.6648 18.81C13.3779 18.9057 13.0998 19.0117 12.8309 19.1283L13.1291 19.8164ZM13.9021 19.5215L14.1393 20.233C14.6247 20.0712 14.9808 19.7242 15.1464 19.2351L14.436 18.9946L13.7256 18.754C13.7198 18.7714 13.7146 18.7808 13.7122 18.7847C13.711 18.7868 13.7101 18.7879 13.7097 18.7884C13.7094 18.7889 13.7092 18.789 13.7091 18.7891C13.709 18.7892 13.7087 18.7895 13.7078 18.7902C13.707 18.7909 13.7053 18.7921 13.7024 18.7938C13.6967 18.7972 13.6851 18.8032 13.6648 18.81L13.9021 19.5215ZM14.436 18.9946L15.1464 19.2351C15.1956 19.0897 15.263 18.9986 15.3396 18.9346L14.8584 18.3593L14.3771 17.7841C14.0682 18.0426 13.854 18.375 13.7256 18.754L14.436 18.9946ZM14.8584 18.3593L15.3396 18.9346C15.5699 18.7419 15.7795 18.5285 15.9678 18.2948L15.3839 17.8242L14.7999 17.3535C14.6731 17.5108 14.5324 17.6542 14.3771 17.7841L14.8584 18.3593ZM15.3839 17.8242L15.9678 18.2948C16.1358 18.0864 16.2972 17.872 16.4521 17.6516L15.8386 17.2203L15.225 16.789C15.0888 16.9828 14.9471 17.1709 14.7999 17.3535L15.3839 17.8242ZM15.8386 17.2203L16.4521 17.6516C16.5279 17.5438 16.6261 17.4555 16.7581 17.3848L16.4038 16.7238L16.0495 16.0627C15.719 16.2399 15.4404 16.4826 15.225 16.789L15.8386 17.2203ZM16.4038 16.7238L16.7581 17.3848C17.0457 17.2307 17.3072 17.0435 17.5395 16.8226L17.0226 16.2792L16.5057 15.7358C16.3754 15.8597 16.2244 15.969 16.0495 16.0627L16.4038 16.7238ZM17.0226 16.2792L17.5395 16.8226C17.6737 16.6949 17.8273 16.5816 18.0026 16.4833L17.6358 15.8291L17.2689 15.175C16.9893 15.3318 16.7341 15.5185 16.5057 15.7358L17.0226 16.2792ZM17.6358 15.8291L18.0026 16.4833C18.447 16.234 18.7044 15.8242 18.8012 15.3531L18.0666 15.2021L17.3319 15.051C17.3189 15.1145 17.3023 15.1427 17.2959 15.1519C17.2911 15.159 17.2854 15.1657 17.2689 15.175L17.6358 15.8291ZM18.0666 15.2021L18.8012 15.3531C18.8053 15.3332 18.8089 15.3264 18.8079 15.3286C18.8065 15.3314 18.8017 15.3402 18.7921 15.3507C18.7876 15.3557 18.7828 15.3602 18.7781 15.364C18.7734 15.3678 18.7695 15.3703 18.7669 15.3719C18.7616 15.375 18.7639 15.3726 18.7783 15.3685L18.572 14.6474L18.3656 13.9264C18.114 13.9984 17.8749 14.1302 17.6833 14.3405C17.4927 14.5497 17.3839 14.7984 17.3319 15.051L18.0666 15.2021ZM18.572 14.6474L18.7783 15.3685C19.1909 15.2504 19.554 15.0242 19.8159 14.6694L19.2125 14.224L18.6091 13.7786C18.5713 13.8297 18.5075 13.8858 18.3656 13.9264L18.572 14.6474ZM19.2125 14.224L19.8159 14.6694C19.9316 14.5127 20.0627 14.3724 20.2098 14.2474L19.7244 13.6757L19.239 13.1039C19.0033 13.3041 18.7931 13.5293 18.6091 13.7786L19.2125 14.224ZM19.7244 13.6757L20.2098 14.2474C20.5015 13.9998 20.7164 13.6894 20.8586 13.3338L20.1622 13.0553L19.4658 12.7769C19.4073 12.9232 19.3303 13.0264 19.239 13.1039L19.7244 13.6757ZM20.1622 13.0553L20.8586 13.3338C20.9667 13.0635 21.065 12.7851 21.1536 12.4987L20.4371 12.277L19.7206 12.0553C19.6434 12.3047 19.5584 12.5452 19.4658 12.7769L20.1622 13.0553ZM20.4371 12.277L21.1536 12.4987C21.2062 12.3285 21.2793 12.2101 21.3623 12.1237L20.8211 11.6045L20.2799 11.0852C20.0166 11.3596 19.8337 11.6896 19.7206 12.0553L20.4371 12.277ZM20.8211 11.6045L21.3623 12.1237C21.4376 12.0451 21.5463 11.9727 21.7137 11.9194L21.4861 11.2048L21.2585 10.4901C20.8853 10.609 20.5506 10.803 20.2799 11.0852L20.8211 11.6045ZM21.4861 11.2048L21.7137 11.9194C22.1793 11.7712 22.5442 11.4583 22.739 10.9961L22.0478 10.7048L21.3567 10.4135C21.3448 10.4417 21.3351 10.451 21.3306 10.455C21.3252 10.4598 21.3067 10.4748 21.2585 10.4901L21.4861 11.2048ZM22.0478 10.7048L22.739 10.9961C22.7613 10.9431 22.7858 10.9146 22.8582 10.8869L22.5905 10.1863L22.3227 9.48572C21.8801 9.6549 21.5428 9.97207 21.3567 10.4135L22.0478 10.7048ZM22.5905 10.1863L22.8582 10.8869C23.2591 10.7336 23.5916 10.4712 23.8176 10.0982L23.1761 9.70957L22.5347 9.32093C22.4948 9.38669 22.4369 9.44208 22.3227 9.48572L22.5905 10.1863ZM23.1761 9.70957L23.8176 10.0982C23.9219 9.92605 24.041 9.77193 24.1747 9.63435L23.6369 9.1116L23.0991 8.58885C22.8843 8.80981 22.6962 9.05434 22.5347 9.32093L23.1761 9.70957ZM23.6369 9.1116L24.1747 9.63435C24.373 9.4303 24.5571 9.21284 24.7267 8.98227L24.1226 8.53781L23.5184 8.09336C23.389 8.26929 23.2492 8.43437 23.0991 8.58885L23.6369 9.1116ZM24.1226 8.53781L24.7267 8.98227C24.9116 8.73092 25.0671 8.45709 25.1944 8.16304L24.5062 7.86499L23.818 7.56694C23.7329 7.76348 23.6326 7.93819 23.5184 8.09336L24.1226 8.53781ZM24.5062 7.86499L25.1944 8.16304C25.244 8.04859 25.3093 7.97518 25.3946 7.92046L24.9898 7.28914L24.5849 6.65781C24.2379 6.88032 23.9809 7.19082 23.818 7.56694L24.5062 7.86499ZM24.9898 7.28914L25.3946 7.92046C25.5007 7.85243 25.6359 7.80231 25.8174 7.78382L25.7414 7.03768L25.6654 6.29154C25.277 6.3311 24.9111 6.44861 24.5849 6.65781L24.9898 7.28914ZM25.7414 7.03768L25.8174 7.78382C25.9723 7.76804 26.1225 7.74706 26.2506 7.71576C26.3132 7.70046 26.3965 7.6766 26.4816 7.63717C26.5423 7.60902 26.7292 7.51838 26.8552 7.3077L26.2114 6.92282L25.5677 6.53795C25.629 6.43545 25.7016 6.3725 25.7457 6.33955C25.7913 6.30539 25.8302 6.28577 25.8506 6.27632C25.8894 6.25835 25.9103 6.25478 25.8946 6.25863C25.866 6.26561 25.7955 6.27829 25.6654 6.29154L25.7414 7.03768ZM26.2114 6.92282L26.8552 7.3077C26.7983 7.40281 26.732 7.46309 26.6897 7.4962C26.6461 7.53023 26.6087 7.55045 26.5881 7.56069C26.5488 7.58013 26.5264 7.5848 26.539 7.58139C26.5621 7.57517 26.6252 7.56218 26.7459 7.54761L26.6561 6.80301L26.5663 6.05841C26.4191 6.07617 26.274 6.09932 26.1488 6.13304C26.0874 6.14959 26.0058 6.17518 25.9224 6.21649C25.8588 6.24799 25.6865 6.33921 25.5677 6.53795L26.2114 6.92282ZM26.2044 8.12401L25.6188 7.65545C25.4889 7.81777 25.3459 7.97075 25.1893 8.11447L25.6963 8.66707L26.2034 9.21968C26.4158 9.02478 26.6115 8.81572 26.79 8.59257L26.2044 8.12401ZM25.6963 8.66707L25.1893 8.11447C25.116 8.18169 25.0021 8.24842 24.8149 8.29219L24.9857 9.02249L25.1564 9.75279C25.5478 9.66129 25.9076 9.49108 26.2034 9.21968L25.6963 8.66707ZM24.9857 9.02249L24.8149 8.29219C24.417 8.38524 24.052 8.56355 23.7584 8.85231L24.2844 9.38699L24.8103 9.92167C24.8733 9.8597 24.9758 9.79502 25.1564 9.75279L24.9857 9.02249ZM24.2844 9.38699L23.7584 8.85231C23.5345 9.07254 23.3404 9.31933 23.1761 9.59075L23.8177 9.97919L24.4592 10.3676C24.5606 10.2002 24.6777 10.0522 24.8103 9.92167L24.2844 9.38699ZM23.8177 9.97919L23.1761 9.59075C23.0881 9.73602 22.9816 9.85712 22.8549 9.95829L23.323 10.5443L23.7911 11.1303C24.0583 10.9169 24.2815 10.6612 24.4592 10.3676L23.8177 9.97919ZM23.323 10.5443L22.8549 9.95829C22.5636 10.191 22.3388 10.4828 22.1802 10.8213L22.8594 11.1395L23.5386 11.4576C23.6044 11.3171 23.6887 11.2121 23.7911 11.1303L23.323 10.5443ZM22.8594 11.1395L22.1802 10.8213C22.1028 10.9865 22.0074 11.1216 21.8957 11.2332L22.4258 11.7638L22.9559 12.2944C23.1979 12.0525 23.3916 11.7714 23.5386 11.4576L22.8594 11.1395ZM22.4258 11.7638L21.8957 11.2332C21.7521 11.3767 21.5942 11.5077 21.421 11.6263L21.8448 12.2451L22.2686 12.8639C22.5163 12.6942 22.7457 12.5043 22.9559 12.2944L22.4258 11.7638ZM21.8448 12.2451L21.421 11.6263C20.9793 11.9288 20.7821 12.3946 20.7388 12.8745L21.4858 12.9418L22.2328 13.0091C22.2405 12.9237 22.2574 12.8836 22.2639 12.8708C22.2683 12.8624 22.2684 12.8639 22.2686 12.8639L21.8448 12.2451ZM21.4858 12.9418L20.7388 12.8745C20.7379 12.885 20.7381 12.8652 20.7551 12.8294C20.7738 12.7901 20.8056 12.7467 20.8506 12.7111C20.9385 12.6416 20.9941 12.663 20.9079 12.6612L20.8924 13.4111L20.877 14.1609C21.1574 14.1667 21.4953 14.1136 21.781 13.8877C22.083 13.6489 22.2053 13.3145 22.2328 13.0091L21.4858 12.9418ZM20.8924 13.4111L20.9079 12.6612C20.6367 12.6556 20.3266 12.7009 20.0502 12.8783C19.7539 13.0685 19.5832 13.3546 19.5133 13.6595L20.2443 13.8272L20.9753 13.9949C20.9744 13.9988 20.9681 14.0231 20.9463 14.0559C20.9235 14.0902 20.893 14.1197 20.8605 14.1406C20.8002 14.1793 20.7815 14.1589 20.877 14.1609L20.8924 13.4111ZM20.2443 13.8272L19.5133 13.6595C19.4511 13.9305 19.3824 14.1943 19.3073 14.451L20.0272 14.6616L20.747 14.8722C20.8307 14.5862 20.9067 14.2937 20.9753 13.9949L20.2443 13.8272ZM20.0272 14.6616L19.3073 14.451C19.2591 14.6159 19.1904 14.7226 19.1147 14.7971L19.6407 15.3317L20.1667 15.8663C20.4475 15.59 20.6365 15.25 20.747 14.8722L20.0272 14.6616ZM19.6407 15.3317L19.1147 14.7971C19.0026 14.9073 18.8651 15.003 18.6946 15.0814L19.008 15.7628L19.3214 16.4442C19.638 16.2985 19.9223 16.1068 20.1667 15.8663L19.6407 15.3317ZM19.008 15.7628L18.6946 15.0814C18.4324 15.202 18.1785 15.3318 17.933 15.4709L18.3027 16.1234L18.6724 16.7759C18.8802 16.6582 19.0964 16.5476 19.3214 16.4442L19.008 15.7628ZM18.3027 16.1234L17.933 15.4709C17.5624 15.6809 17.2862 15.9915 17.1151 16.3795L17.8014 16.682L18.4877 16.9846C18.5318 16.8845 18.5897 16.8228 18.6724 16.7759L18.3027 16.1234ZM17.8014 16.682L17.1151 16.3795C17.0929 16.4299 17.0676 16.4604 16.9897 16.4892L17.2504 17.1924L17.5111 17.8957C17.9528 17.7319 18.2948 17.4221 18.4877 16.9846L17.8014 16.682ZM17.2504 17.1924L16.9897 16.4892C16.7362 16.5832 16.5087 16.7422 16.3389 16.9738C16.1725 17.2006 16.0899 17.4581 16.0584 17.7101L16.8027 17.803L17.5469 17.8959C17.5505 17.8665 17.5553 17.8517 17.5569 17.8476C17.5581 17.8441 17.5563 17.8501 17.5485 17.8608C17.5403 17.8719 17.5301 17.8821 17.5198 17.8896C17.5099 17.8969 17.5054 17.8978 17.5111 17.8957L17.2504 17.1924ZM16.8027 17.803L16.0584 17.7101C16.0559 17.7302 16.0534 17.7309 16.0585 17.719C16.0641 17.7058 16.0761 17.684 16.0975 17.6611C16.119 17.6381 16.141 17.6235 16.1565 17.6157C16.1708 17.6086 16.1735 17.6102 16.1572 17.6131L16.2906 18.3512L16.4239 19.0892C16.6969 19.0399 16.9747 18.9195 17.1936 18.6851C17.4115 18.4519 17.5129 18.1681 17.5469 17.8959L16.8027 17.803ZM16.2906 18.3512L16.1572 17.6131C15.7924 17.679 15.4504 17.7887 15.1398 17.9506L15.4863 18.6157L15.8328 19.2809C15.9893 19.1993 16.1835 19.1327 16.4239 19.0892L16.2906 18.3512ZM15.4863 18.6157L15.1398 17.9506C14.8103 18.1222 14.5294 18.357 14.3084 18.6543L14.9102 19.1018L15.5121 19.5493C15.592 19.4419 15.6951 19.3526 15.8328 19.2809L15.4863 18.6157ZM14.9102 19.1018L14.3084 18.6543C14.0803 18.9611 13.9376 19.3167 13.8622 19.6989L14.5981 19.844L15.3339 19.9891C15.3739 19.7864 15.4393 19.6472 15.5121 19.5493L14.9102 19.1018ZM14.5981 19.844L13.8622 19.6989C13.8151 19.9379 13.7476 20.1429 13.6642 20.3183L14.3416 20.6402L15.019 20.9622C15.1622 20.6608 15.2657 20.3349 15.3339 19.9891L14.5981 19.844ZM14.3416 20.6402L13.6642 20.3183C13.631 20.3882 13.5875 20.4333 13.5014 20.4706L13.7992 21.1589L14.0969 21.8473C14.5074 21.6697 14.8256 21.3691 15.019 20.9622L14.3416 20.6402ZM13.7992 21.1589L13.5014 20.4706C13.2962 20.5593 13.0696 20.6345 12.82 20.6945L12.9951 21.4237L13.1703 22.153C13.4961 22.0747 13.8055 21.9734 14.0969 21.8473L13.7992 21.1589ZM12.9951 21.4237L12.82 20.6945C12.5556 20.758 12.2978 20.8889 12.0952 21.1154C11.8943 21.3399 11.7928 21.6079 11.7531 21.8711L12.4947 21.9832L13.2362 22.0952C13.2394 22.0741 13.2426 22.0694 13.2398 22.0758C13.2366 22.0831 13.2285 22.0983 13.2132 22.1155C13.1977 22.1328 13.1815 22.1446 13.1696 22.1513C13.1586 22.1575 13.1568 22.1562 13.1703 22.153L12.9951 21.4237ZM12.4947 21.9832L11.7531 21.8711C11.7206 22.086 11.6594 22.2297 11.5923 22.3272L12.2102 22.7523L12.8282 23.1773C13.0485 22.857 13.1769 22.488 13.2362 22.0952L12.4947 21.9832ZM12.2102 22.7523L11.5923 22.3272C11.5665 22.3647 11.5187 22.4142 11.3816 22.4498L11.5697 23.1758L11.7579 23.9018C12.1874 23.7905 12.5665 23.5577 12.8282 23.1773L12.2102 22.7523ZM11.5697 23.1758L11.3816 22.4498C10.9319 22.5663 10.5446 22.8251 10.3017 23.2476L10.952 23.6214L11.6022 23.9951C11.6164 23.9704 11.641 23.9321 11.7579 23.9018L11.5697 23.1758ZM10.952 23.6214L10.3017 23.2476C10.1574 23.4987 10.0275 23.7615 9.91168 24.0356L10.6026 24.3274L11.2935 24.6193C11.3864 24.3992 11.4894 24.1913 11.6022 23.9951L10.952 23.6214ZM10.6026 24.3274L9.91168 24.0356C9.91252 24.0336 9.9163 24.0258 9.92439 24.016C9.93253 24.0061 9.94032 24 9.9442 23.9974C9.95082 23.993 9.92623 24.0118 9.83856 24.0237L9.93951 24.7669L10.0405 25.51C10.5589 25.4396 11.0574 25.178 11.2935 24.6193L10.6026 24.3274ZM9.93951 24.7669L9.83856 24.0237C9.56738 24.0605 9.28143 24.1582 9.04319 24.3686C8.79804 24.5852 8.66592 24.866 8.61488 25.1536L9.35334 25.2847L10.0918 25.4157C10.0934 25.4066 10.0931 25.415 10.0835 25.4334C10.0732 25.4529 10.0571 25.4744 10.0363 25.4928C9.99341 25.5307 9.97398 25.5191 10.0405 25.51L9.93951 24.7669ZM9.35334 25.2847L8.61488 25.1536C8.53674 25.5939 8.58437 26.0298 8.77149 26.4379L9.45324 26.1253L10.135 25.8127C10.0827 25.6986 10.0637 25.5741 10.0918 25.4157L9.35334 25.2847ZM9.45324 26.1253L8.77149 26.4379C8.94159 26.8089 9.19146 27.1242 9.5119 27.3786L9.97824 26.7912L10.4446 26.2038C10.3045 26.0926 10.2043 25.964 10.135 25.8127L9.45324 26.1253ZM9.97824 26.7912L9.5119 27.3786C9.82933 27.6306 10.1883 27.8032 10.5836 27.8814L10.7292 27.1457L10.8747 26.4099C10.7294 26.3812 10.5877 26.3174 10.4446 26.2038L9.97824 26.7912ZM10.7292 27.1457L10.5836 27.8814C11.1718 27.9978 11.6737 27.7475 12.043 27.374L11.5097 26.8467L10.9764 26.3193C10.9065 26.3901 10.8658 26.408 10.8588 26.4107C10.856 26.4118 10.8586 26.4105 10.865 26.4099C10.8715 26.4093 10.8755 26.4101 10.8747 26.4099L10.7292 27.1457ZM11.5097 26.8467L12.043 27.374C12.077 27.3397 12.1022 27.3199 12.1178 27.3094C12.1331 27.299 12.1366 27.2992 12.1282 27.3021C12.119 27.3053 12.1017 27.3094 12.0792 27.3096C12.0566 27.3098 12.0387 27.306 12.0281 27.3026L12.2597 26.5892L12.4913 25.8759C11.8766 25.6763 11.3441 25.9476 10.9764 26.3193L11.5097 26.8467ZM12.2597 26.5892L12.0281 27.3026C12.2095 27.3614 12.4015 27.4526 12.6042 27.5829L13.0097 26.952L13.4153 26.3211C13.118 26.13 12.81 25.9793 12.4913 25.8759L12.2597 26.5892ZM13.0097 26.952L12.6042 27.5829C13.0007 27.8378 13.4633 27.9473 13.9468 27.8228L13.7597 27.0965L13.5727 26.3702C13.5561 26.3744 13.5188 26.3876 13.4153 26.3211L13.0097 26.952ZM13.7597 27.0965L13.9468 27.8228C14.1202 27.7781 14.2886 27.7632 14.4549 27.7754L14.5097 27.0274L14.5646 26.2794C14.2309 26.2549 13.8992 26.2861 13.5727 26.3702L13.7597 27.0965ZM14.5097 27.0274L14.4549 27.7754C14.8974 27.8078 15.3076 27.6745 15.6681 27.4405L15.2597 26.8114L14.8513 26.1824C14.7118 26.2729 14.6221 26.2836 14.5646 26.2794L14.5097 27.0274ZM15.2597 26.8114L15.6681 27.4405C15.8002 27.3547 15.8782 27.3507 15.9245 27.356L16.0097 26.6108L16.0949 25.8657C15.6412 25.8138 15.2192 25.9435 14.8513 26.1824L15.2597 26.8114ZM16.0097 26.6108L15.9245 27.356C16.0584 27.3713 16.2107 27.4193 16.3846 27.5197L16.7597 26.8703L17.1348 26.2208C16.8088 26.0325 16.461 25.9075 16.0949 25.8657L16.0097 26.6108ZM16.7597 26.8703L16.3846 27.5197C16.7106 27.708 17.0582 27.833 17.4242 27.875L17.5097 27.1299L17.5953 26.3848C17.4613 26.3694 17.3089 26.3213 17.1348 26.2208L16.7597 26.8703ZM17.5097 27.1299L17.4242 27.875C17.734 27.9106 18.0443 27.9087 18.3539 27.8695L18.2597 27.1255L18.1655 26.3814C17.9751 26.4055 17.7854 26.4066 17.5953 26.3848L17.5097 27.1299ZM18.2597 27.1255L18.3539 27.8695C18.6018 27.8381 18.8498 27.8078 19.0977 27.7785L19.0097 27.0337L18.9218 26.2889C18.6697 26.3186 18.4176 26.3495 18.1655 26.3814L18.2597 27.1255ZM19.0097 27.0337L19.0977 27.7785C19.2409 27.7616 19.3867 27.7739 19.5414 27.821L19.7597 27.1035L19.9781 26.386C19.6328 26.2809 19.2786 26.2467 18.9218 26.2889L19.0097 27.0337ZM19.7597 27.1035L19.5414 27.821C19.9794 27.9543 20.4202 27.9121 20.8277 27.7213L20.5097 27.042L20.1917 26.3628C20.0993 26.4061 20.04 26.4049 19.9781 26.386L19.7597 27.1035ZM20.5097 27.042L20.8277 27.7213C21.0271 27.6279 21.2192 27.565 21.4047 27.5284L21.2597 26.7926L21.1147 26.0567C20.8002 26.1187 20.4923 26.2221 20.1917 26.3628L20.5097 27.042ZM21.2597 26.7926L21.4047 27.5284C21.6473 27.4806 21.8908 27.4364 22.1351 27.3959L22.0123 26.656L21.8895 25.9161C21.6304 25.9592 21.3721 26.006 21.1147 26.0567L21.2597 26.7926ZM22.0123 26.656L22.1351 27.3959C22.253 27.3763 22.3787 27.3853 22.5238 27.4368L22.7748 26.73L23.0257 26.0233C22.6577 25.8926 22.275 25.8522 21.8895 25.9161L22.0123 26.656ZM22.7748 26.73L22.5238 27.4368C22.7837 27.5291 23.0473 27.6207 23.3147 27.7115L23.556 27.0014L23.7974 26.2913C23.5363 26.2026 23.2791 26.1132 23.0257 26.0233L22.7748 26.73ZM23.556 27.0014L23.3147 27.7115C23.4616 27.7615 23.592 27.8433 23.7114 27.9675L24.2519 27.4476L24.7925 26.9277C24.5124 26.6365 24.1788 26.4209 23.7974 26.2913L23.556 27.0014ZM24.2519 27.4476L23.7114 27.9675C23.7902 28.0494 23.8274 28.1328 23.8359 28.2461L24.5838 28.19L25.3317 28.1339C25.2972 27.6726 25.1132 27.2611 24.7925 26.9277L24.2519 27.4476ZM24.5838 28.19L23.8359 28.2461C23.852 28.4602 23.835 28.6484 23.7923 28.8155L24.5189 29.0013L25.2455 29.1871C25.3325 28.8471 25.3588 28.4943 25.3317 28.1339L24.5838 28.19ZM24.5189 29.0013L23.7923 28.8155C23.727 29.0706 23.6643 29.3194 23.604 29.562L24.3318 29.743L25.0596 29.9239C25.1191 29.6848 25.1811 29.4392 25.2455 29.1871L24.5189 29.0013ZM24.3318 29.743L23.604 29.562C23.5712 29.6935 23.5089 29.8246 23.4047 29.9581L23.9961 30.4194L24.5875 30.8807C24.8112 30.5939 24.9725 30.2741 25.0596 29.9239L24.3318 29.743ZM23.9961 30.4194L23.4047 29.9581C23.2021 30.2179 23.037 30.4965 22.9132 30.7938L23.6056 31.0821L24.2979 31.3704C24.3671 31.2044 24.4623 31.0412 24.5875 30.8807L23.9961 30.4194ZM23.6056 31.0821L22.9132 30.7938C22.7413 31.2065 22.741 31.6405 22.8544 32.0574L23.5781 31.8605L24.3018 31.6637C24.2589 31.506 24.2769 31.4209 24.2979 31.3704L23.6056 31.0821ZM23.5781 31.8605L22.8544 32.0574C22.8693 32.1122 22.864 32.1311 22.8649 32.1262C22.8652 32.1245 22.866 32.1221 22.8667 32.1207C22.8672 32.1194 22.8659 32.1229 22.8593 32.131L23.4412 32.6041L24.0232 33.0772C24.3633 32.6589 24.4354 32.1547 24.3018 31.6637L23.5781 31.8605ZM23.4412 32.6041L22.8593 32.131C22.6028 32.4465 22.4438 32.8138 22.4017 33.2207L23.1478 33.2977L23.8938 33.3748C23.9043 33.2736 23.9409 33.1785 24.0232 33.0772L23.4412 32.6041ZM23.1478 33.2977L22.4017 33.2207C22.3844 33.3885 22.3399 33.5441 22.2682 33.6915L22.9427 34.0196L23.6172 34.3476C23.7664 34.0407 23.8587 33.715 23.8938 33.3748L23.1478 33.2977ZM22.9427 34.0196L22.2682 33.6915C22.1363 33.9629 22.0322 34.2442 21.9566 34.535L22.6824 34.7238L23.4083 34.9126C23.4587 34.7187 23.5282 34.5305 23.6172 34.3476L22.9427 34.0196ZM22.6824 34.7238L21.9566 34.535C21.9104 34.7126 21.8409 34.8841 21.7465 35.0505L22.3988 35.4205L23.0512 35.7905C23.2089 35.5126 23.3284 35.2195 23.4083 34.9126L22.6824 34.7238ZM22.3988 35.4205L21.7465 35.0505C21.6025 35.3044 21.4785 35.566 21.3749 35.8351L22.0749 36.1044L22.7749 36.3738C22.8512 36.1754 22.9432 35.9811 23.0512 35.7905L22.3988 35.4205ZM22.0749 36.1044L21.3749 35.8351C21.2209 36.2353 21.2166 36.6541 21.317 37.0617L22.0453 36.8822L22.7735 36.7028C22.7336 36.5407 22.749 36.441 22.7749 36.3738L22.0749 36.1044ZM22.0453 36.8822L21.317 37.0617C21.3452 37.176 21.323 37.2108 21.3096 37.2316L21.9411 37.6362L22.5726 38.0408C22.8385 37.6259 22.8856 37.158 22.7735 36.7028L22.0453 36.8822ZM21.9411 37.6362L21.3096 37.2316C21.1588 37.467 21.0191 37.7066 20.8907 37.9504L21.5542 38.3L22.2177 38.6497C22.326 38.4441 22.4443 38.2412 22.5726 38.0408L21.9411 37.6362ZM21.5542 38.3L20.8907 37.9504C20.7072 38.2985 20.6276 38.6767 20.6447 39.0688L21.394 39.0362L22.1433 39.0035C22.1372 38.8634 22.1644 38.7509 22.2177 38.6497L21.5542 38.3ZM21.394 39.0362L20.6447 39.0688C20.6567 39.3441 20.6752 39.5821 20.7044 39.7678L21.4453 39.6515L22.1862 39.5352C22.1701 39.4326 22.1545 39.2604 22.1433 39.0035L21.394 39.0362ZM21.4453 39.6515L20.7044 39.7678C20.7905 40.3165 21.2272 40.5749 21.5632 40.6778L21.7829 39.9607L22.0026 39.2436C21.9692 39.2334 22.0019 39.2368 22.0533 39.2839C22.0809 39.3091 22.1114 39.3449 22.1372 39.3921C22.1632 39.4397 22.179 39.489 22.1862 39.5352L21.4453 39.6515ZM21.7829 39.9607L21.5632 40.6778C21.8253 40.7581 22.1365 40.7567 22.4265 40.5893C22.6911 40.4367 22.8439 40.1993 22.9341 40L22.2509 39.6907L21.5676 39.3814C21.5483 39.4242 21.5683 39.3528 21.6769 39.2901C21.7345 39.2569 21.8007 39.2362 21.8676 39.231C21.9317 39.226 21.979 39.2364 22.0026 39.2436L21.7829 39.9607ZM22.2509 39.6907L22.9341 40C22.9749 39.91 23.0283 39.8545 23.1115 39.8114L22.7661 39.1456L22.4208 38.4798C22.0361 38.6794 21.746 38.9873 21.5676 39.3814L22.2509 39.6907ZM22.7661 39.1456L23.1115 39.8114C23.5891 39.5636 23.8498 39.129 23.9318 38.6369L23.1919 38.5137L22.4521 38.3905C22.4414 38.4551 22.4264 38.477 22.4261 38.4775C22.4257 38.478 22.4265 38.4769 22.4278 38.4757C22.4291 38.4746 22.4276 38.4763 22.4208 38.4798L22.7661 39.1456ZM23.1919 38.5137L23.9318 38.6369C23.9435 38.5667 23.9603 38.5351 23.9665 38.5253C23.9709 38.5183 23.9744 38.5142 23.9853 38.5076L23.5997 37.8643L23.2141 37.2211C22.7699 37.4874 22.5312 37.9158 22.4521 38.3905L23.1919 38.5137ZM23.5997 37.8643L23.9853 38.5076C24.1151 38.4298 24.288 38.3637 24.5184 38.3231L24.3882 37.5844L24.258 36.8458C23.8809 36.9123 23.5281 37.0328 23.2141 37.2211L23.5997 37.8643ZM24.3882 37.5844L24.5184 38.3231C24.7699 38.2787 25.0232 38.1812 25.2406 38.0003C25.4617 37.8164 25.6055 37.5797 25.6847 37.3235L24.9681 37.1021L24.2515 36.8807C24.249 36.889 24.2488 36.8861 24.2547 36.877C24.2609 36.8673 24.2702 36.8564 24.2814 36.8471C24.2923 36.838 24.2996 36.8349 24.2983 36.8355C24.2965 36.8363 24.2844 36.8412 24.258 36.8458L24.3882 37.5844ZM24.9681 37.1021L25.6847 37.3235C25.723 37.1995 25.7755 37.1404 25.8325 37.1012L25.4074 36.4833L24.9823 35.8654C24.6192 36.1152 24.3788 36.4686 24.2515 36.8807L24.9681 37.1021ZM25.4074 36.4833L25.8325 37.1012C26.2165 36.837 26.4489 36.4535 26.5535 36.0178L25.8242 35.8427L25.095 35.6676C25.0639 35.797 25.0184 35.8406 24.9823 35.8654L25.4074 36.4833ZM25.8242 35.8427L26.5535 36.0178C26.5596 35.9925 26.5658 35.9769 26.5699 35.9684C26.5719 35.9641 26.5735 35.9614 26.5744 35.9599C26.5753 35.9584 26.5758 35.9578 26.5759 35.9577C26.5759 35.9577 26.5757 35.9579 26.5755 35.9581C26.5753 35.9583 26.5755 35.9581 26.5762 35.9576C26.5774 35.9567 26.5829 35.9528 26.5955 35.9474L26.2991 35.2584L26.0027 34.5695C25.5189 34.7776 25.2133 35.1747 25.095 35.6676L25.8242 35.8427ZM26.2991 35.2584L26.5955 35.9474C26.8296 35.8466 27.0707 35.7517 27.3186 35.6627L27.0652 34.9568L26.8118 34.2509C26.5357 34.3501 26.266 34.4562 26.0027 34.5695L26.2991 35.2584ZM27.0652 34.9568L27.3186 35.6627C27.576 35.5703 27.8078 35.4105 27.9796 35.1745C28.1475 34.9438 28.2279 34.6821 28.2564 34.4278L27.5111 34.3444L26.7657 34.2609C26.7624 34.2908 26.7577 34.3054 26.7565 34.3088C26.7555 34.3115 26.7579 34.3041 26.7668 34.2918C26.7761 34.279 26.7879 34.2674 26.7998 34.2588C26.8111 34.2505 26.8169 34.2491 26.8118 34.2509L27.0652 34.9568ZM27.5111 34.3444L28.2564 34.4278C28.2657 34.3444 28.2832 34.3022 28.2921 34.2854C28.2991 34.2721 28.3034 34.2688 28.3083 34.2653L27.8754 33.6528L27.4425 33.0404C27.0187 33.3399 26.8185 33.7896 26.7657 34.2609L27.5111 34.3444ZM27.8754 33.6528L28.3083 34.2653C28.505 34.1262 28.7067 33.9916 28.9132 33.8615L28.5134 33.2269L28.1137 32.5924C27.8849 32.7365 27.6612 32.8858 27.4425 33.0404L27.8754 33.6528ZM28.5134 33.2269L28.9132 33.8615C29.1811 33.6927 29.4243 33.4954 29.6409 33.2695L29.0995 32.7505L28.558 32.2315C28.4286 32.3666 28.2811 32.4869 28.1137 32.5924L28.5134 33.2269ZM29.0995 32.7505L29.6409 33.2695C29.8018 33.1016 29.9686 32.9394 30.1412 32.7827L29.6372 32.2273L29.1332 31.6719C28.9349 31.8519 28.7431 32.0384 28.558 32.2315L29.0995 32.7505ZM29.6372 32.2273L30.1412 32.7827C30.3316 32.6099 30.5196 32.4348 30.7051 32.2572L30.1866 31.7153L29.6681 31.1735C29.4921 31.3418 29.3138 31.508 29.1332 31.6719L29.6372 32.2273ZM30.1866 31.7153L30.7051 32.2572C30.8533 32.1154 31.0156 31.9855 31.1927 31.8677L30.7772 31.2433L30.3616 30.619C30.1128 30.7845 29.8814 30.9694 29.6681 31.1735L30.1866 31.7153ZM30.7772 31.2433L31.1927 31.8677C31.4644 31.6868 31.7055 31.4716 31.9133 31.2227L31.3375 30.742L30.7618 30.2614C30.6483 30.3974 30.5157 30.5164 30.3616 30.619L30.7772 31.2433ZM31.3375 30.742L31.9133 31.2227C32.1675 30.9181 32.323 30.5557 32.4019 30.1649L31.6667 30.0164L30.9316 29.868C30.8929 30.0597 30.8289 30.181 30.7618 30.2614L31.3375 30.742ZM31.6667 30.0164L32.4019 30.1649C32.4062 30.1438 32.4101 30.1358 32.4097 30.1367C32.4095 30.1371 32.4083 30.1394 32.406 30.143C32.4036 30.1467 32.4004 30.151 32.3963 30.1556C32.3921 30.1603 32.3877 30.1645 32.3834 30.1682C32.379 30.1718 32.3753 30.1744 32.3727 30.1759C32.3675 30.1791 32.3694 30.1769 32.3828 30.1728L32.1653 29.4551L31.9477 28.7373C31.6977 28.8131 31.4622 28.9484 31.2747 29.1596C31.0884 29.3693 30.9823 29.6169 30.9316 29.868L31.6667 30.0164ZM32.1653 29.4551L32.3828 30.1728C32.6534 30.0908 32.904 29.9335 33.0871 29.6839C33.2651 29.4412 33.3406 29.1643 33.3609 28.9023L32.6131 28.8446L31.8653 28.7868C31.8605 28.849 31.8489 28.8359 31.8776 28.7967C31.8917 28.7775 31.9091 28.7611 31.9265 28.7494C31.943 28.7381 31.9524 28.7359 31.9477 28.7373L32.1653 29.4551ZM32.6131 28.8446L33.3609 28.9023C33.3673 28.8196 33.3833 28.7891 33.384 28.7877C33.3842 28.7874 33.3821 28.7912 33.3771 28.7963C33.3749 28.7987 33.3727 28.8006 33.3708 28.8021C33.3689 28.8036 33.3679 28.8042 33.3681 28.8041L32.9843 28.1597L32.6006 27.5153C32.1151 27.8044 31.9038 28.2892 31.8653 28.7868L32.6131 28.8446ZM32.9843 28.1597L33.3681 28.8041C33.6318 28.6471 33.8761 28.4675 34.0999 28.2649L33.5966 27.7088L33.0934 27.1528C32.9457 27.2864 32.7818 27.4074 32.6006 27.5153L32.9843 28.1597ZM33.5966 27.7088L34.0999 28.2649C34.2349 28.1427 34.3908 28.0348 34.5705 27.9422L34.227 27.2755L33.8836 26.6088C33.5943 26.7578 33.3299 26.9387 33.0934 27.1528L33.5966 27.7088ZM34.227 27.2755L34.5705 27.9422C34.9314 27.7563 35.221 27.4821 35.4222 27.1283L34.7702 26.7576L34.1183 26.3868C34.0642 26.482 33.9916 26.5531 33.8836 26.6088L34.227 27.2755ZM34.7702 26.7576L35.4222 27.1283C35.5356 26.9288 35.6582 26.7399 35.79 26.5611L35.1862 26.1161L34.5825 25.6712C34.4149 25.8986 34.2602 26.1373 34.1183 26.3868L34.7702 26.7576ZM35.1862 26.1161L35.79 26.5611C35.9527 26.3404 36.1064 26.1116 36.2511 25.875L35.6113 25.4836L34.9716 25.0922C34.8489 25.2927 34.7192 25.4857 34.5825 25.6712L35.1862 26.1161ZM35.6113 25.4836L36.2511 25.875C36.3498 25.7137 36.465 25.5732 36.597 25.451L36.0875 24.9006L35.578 24.3502C35.3426 24.5681 35.1404 24.8163 34.9716 25.0922L35.6113 25.4836ZM36.0875 24.9006L36.597 25.451C36.8332 25.2323 37.0356 24.983 37.2039 24.7055L36.5626 24.3165L35.9213 23.9276C35.8236 24.0887 35.7093 24.2287 35.578 24.3502L36.0875 24.9006ZM36.5626 24.3165L37.2039 24.7055C37.2018 24.7089 37.1974 24.7149 37.1908 24.7209C37.1844 24.7269 37.1802 24.7289 37.1817 24.7281C37.1862 24.7258 37.2231 24.7086 37.3158 24.7024L37.266 23.9541L37.2163 23.2057C36.7206 23.2387 36.2194 23.4362 35.9213 23.9276L36.5626 24.3165ZM37.266 23.9541L37.3158 24.7024C37.7622 24.6727 38.2032 24.5398 38.5513 24.226L38.0491 23.6689L37.5469 23.1119C37.5229 23.1335 37.4418 23.1907 37.2163 23.2057L37.266 23.9541ZM38.0491 23.6689L38.5513 24.226C38.8407 23.9651 39.0466 23.6372 39.1832 23.2695L38.48 23.0084L37.7769 22.7474C37.7111 22.9248 37.6297 23.0372 37.5469 23.1119L38.0491 23.6689ZM38.48 23.0084L39.1832 23.2695C39.349 22.8227 39.3457 22.3488 39.1209 21.9067L38.4524 22.2467L37.7838 22.5866C37.7983 22.6151 37.8134 22.6491 37.7769 22.7474L38.48 23.0084ZM38.4524 22.2467L39.1209 21.9067C38.9648 21.5998 38.761 21.3237 38.4946 21.1111L38.0268 21.6973L37.559 22.2835C37.6207 22.3328 37.7006 22.4229 37.7838 22.5866L38.4524 22.2467ZM38.0268 21.6973L38.4946 21.1111C38.2798 20.9397 38.0422 20.7954 37.7853 20.6761L37.4694 21.3563L37.1534 22.0366C37.3116 22.11 37.4456 22.1931 37.559 22.2835L38.0268 21.6973ZM37.4694 21.3563L37.7853 20.6761C37.4706 20.53 37.1335 20.4617 36.7853 20.4606L36.783 21.2106L36.7807 21.9606C36.9325 21.9611 37.053 21.9899 37.1534 22.0366L37.4694 21.3563ZM36.783 21.2106L36.7853 20.4606C36.4573 20.4596 36.1331 20.5091 35.815 20.6058L36.033 21.3234L36.251 22.041C36.4329 21.9858 36.6087 21.9601 36.7807 21.9606L36.783 21.2106ZM36.033 21.3234L35.815 20.6058C35.5966 20.6722 35.3798 20.7223 35.1645 20.7568L35.283 21.4974L35.4015 22.2379C35.6862 22.1924 35.9695 22.1266 36.251 22.041L36.033 21.3234ZM35.283 21.4974L35.1645 20.7568C35.1552 20.7583 35.1034 20.7707 34.9764 20.6776L34.533 21.2825L34.0896 21.8874C34.4626 22.1608 34.9108 22.3164 35.4015 22.2379L35.283 21.4974ZM34.533 21.2825L34.9764 20.6776C34.7591 20.5183 34.4917 20.3996 34.1834 20.3891C33.8728 20.3786 33.5962 20.4806 33.3676 20.6326L33.783 21.2571L34.1984 21.8815C34.2106 21.8734 34.2099 21.876 34.1963 21.8803C34.1816 21.885 34.1592 21.8892 34.1326 21.8883C34.1062 21.8874 34.0867 21.8818 34.077 21.8781C34.0683 21.8748 34.0726 21.8749 34.0896 21.8874L34.533 21.2825ZM33.783 21.2571L33.3676 20.6326C33.3533 20.6421 33.3509 20.6413 33.3604 20.6382C33.3708 20.6347 33.3889 20.6308 33.4118 20.6309C33.4346 20.631 33.4523 20.6351 33.462 20.6385C33.4708 20.6414 33.4677 20.6419 33.4527 20.6318L33.033 21.2533L32.6133 21.8749C32.8354 22.0249 33.1027 22.1293 33.4042 22.1309C33.7061 22.1324 33.9746 22.0304 34.1984 21.8815L33.783 21.2571ZM33.033 21.2533L33.4527 20.6318C33.2237 20.4771 32.9447 20.3725 32.6302 20.3842C32.3184 20.3957 32.0498 20.5187 31.8332 20.681L32.283 21.2811L32.7328 21.8813C32.7501 21.8684 32.7543 21.8683 32.745 21.8719C32.7346 21.876 32.7139 21.8821 32.6858 21.8831C32.6575 21.8842 32.6335 21.8797 32.6175 21.8746C32.6027 21.8699 32.6013 21.8668 32.6133 21.8749L33.033 21.2533ZM32.283 21.2811L31.8332 20.681C31.6748 20.7997 31.5686 20.8242 31.5055 20.8265L31.533 21.576L31.5605 22.3255C31.9975 22.3095 32.3912 22.1374 32.7328 21.8813L32.283 21.2811ZM31.533 21.576L31.5055 20.8265C31.5207 20.8259 31.5199 20.8314 31.494 20.8184C31.4636 20.8031 31.4055 20.7654 31.3233 20.6801L30.783 21.2002L30.2427 21.7203C30.574 22.0645 31.017 22.3454 31.5605 22.3255L31.533 21.576ZM30.783 21.2002L31.3233 20.6801C31.1427 20.4924 30.9158 20.3204 30.6364 20.2311C30.3409 20.1366 30.0369 20.1513 29.7547 20.264L30.033 20.9605L30.3113 21.6569C30.3007 21.6612 30.2794 21.6675 30.2505 21.6686C30.2212 21.6698 30.1964 21.6652 30.1797 21.6599C30.1642 21.6549 30.1623 21.6515 30.1741 21.6595C30.1863 21.6678 30.2096 21.6859 30.2427 21.7203L30.783 21.2002ZM30.033 20.9605L29.7547 20.264C29.57 20.3378 29.3941 20.3785 29.2251 20.3916L29.283 21.1393L29.3409 21.8871C29.6719 21.8615 29.996 21.7829 30.3113 21.6569L30.033 20.9605ZM29.283 21.1393L29.2251 20.3916C29.1153 20.4001 28.9931 20.3814 28.8478 20.3142L28.533 20.995L28.2182 21.6757C28.5729 21.8397 28.9507 21.9173 29.3409 21.8871L29.283 21.1393ZM28.533 20.995L28.8478 20.3142C28.5898 20.1949 28.3024 20.1516 28.0079 20.2117C27.7236 20.2698 27.4846 20.4135 27.2904 20.5827L27.783 21.1482L28.2756 21.7137C28.3315 21.6651 28.3425 21.6744 28.3081 21.6814C28.2907 21.6849 28.27 21.686 28.2495 21.6833C28.2399 21.6821 28.2322 21.6803 28.2265 21.6786C28.221 21.677 28.2181 21.6757 28.2182 21.6757L28.533 20.995ZM27.783 21.1482L27.2904 20.5827C27.1239 20.7277 27.0226 20.7498 26.981 20.7527L27.033 21.5009L27.085 22.2491C27.5434 22.2172 27.9422 22.0042 28.2756 21.7137L27.783 21.1482ZM27.033 21.5009L26.981 20.7527C26.9987 20.7515 27.0025 20.7576 26.9818 20.7477C26.9559 20.7353 26.9008 20.7013 26.8203 20.6186L26.283 21.1419L25.7458 21.6652C26.0812 22.0096 26.5332 22.2874 27.085 22.2491L27.033 21.5009ZM26.283 21.1419L26.8203 20.6186C26.501 20.2908 26.0439 19.9852 25.4779 20.0533L25.5674 20.7979L25.657 21.5425C25.6352 21.5452 25.6158 21.5439 25.6015 21.5412C25.5881 21.5386 25.5844 21.5359 25.5916 21.5394C25.6092 21.5478 25.6618 21.579 25.7458 21.6652L26.283 21.1419ZM25.5674 20.7979L25.4779 20.0533C25.3972 20.063 25.3515 20.0492 25.3127 20.0275L24.9465 20.6819L24.5802 21.3364C24.9153 21.524 25.2836 21.5875 25.657 21.5425L25.5674 20.7979ZM24.9465 20.6819L25.3127 20.0275C25.0656 19.8892 24.7919 19.7811 24.4983 19.6978L24.2935 20.4193L24.0887 21.1408C24.2919 21.1984 24.4534 21.2655 24.5802 21.3364L24.9465 20.6819ZM24.2935 20.4193L24.4983 19.6978C24.4848 19.6939 24.4817 19.6916 24.4856 19.6937C24.49 19.6961 24.499 19.7019 24.5095 19.7121C24.5201 19.7223 24.5281 19.7331 24.5333 19.742C24.5383 19.7506 24.5386 19.7537 24.5369 19.7479L23.8171 19.9585L23.0973 20.1692C23.243 20.6671 23.6064 21.0039 24.0887 21.1408L24.2935 20.4193ZM23.8171 19.9585L24.5369 19.7479C24.453 19.4613 24.3383 19.1798 24.1953 18.9038L23.5294 19.2487L22.8634 19.5937C22.9655 19.7907 23.0426 19.9825 23.0973 20.1692L23.8171 19.9585ZM23.5294 19.2487L24.1953 18.9038C24.1904 18.8942 24.1917 18.8942 24.1937 18.903C24.1959 18.9123 24.1977 18.9266 24.1967 18.9436C24.1956 18.9605 24.1922 18.9733 24.1898 18.98C24.1875 18.9862 24.1876 18.9834 24.1955 18.9715L23.5717 18.5552L22.9479 18.1388C22.8117 18.3429 22.7159 18.583 22.6995 18.8523C22.683 19.1224 22.7493 19.3735 22.8634 19.5937L23.5294 19.2487ZM23.5717 18.5552L24.1955 18.9715C24.4327 18.6162 24.5484 18.2138 24.5302 17.7855L23.7808 17.8174L23.0315 17.8493C23.0359 17.953 23.0122 18.0424 22.9479 18.1388L23.5717 18.5552ZM23.7808 17.8174L24.5302 17.7855C24.5278 17.7302 24.5372 17.6906 24.595 17.6292L24.0485 17.1155L23.502 16.6018C23.1802 16.9442 23.0112 17.3725 23.0315 17.8493L23.7808 17.8174ZM24.0485 17.1155L24.595 17.6292C24.8296 17.3796 25.0247 17.107 25.1738 16.8106L24.5038 16.4735L23.8339 16.1364C23.7554 16.2922 23.647 16.4476 23.502 16.6018L24.0485 17.1155ZM24.5038 16.4735L25.1738 16.8106C25.3698 16.421 25.4123 15.9996 25.3351 15.5803L24.5975 15.7161L23.8599 15.852C23.8853 15.9902 23.8654 16.0737 23.8339 16.1364L24.5038 16.4735ZM24.5975 15.7161L25.3351 15.5803C25.3262 15.5324 25.3309 15.5112 25.3321 15.5065C25.333 15.5028 25.336 15.4907 25.3558 15.467L24.7795 14.987L24.2033 14.5069C23.8799 14.8951 23.7705 15.3668 23.8599 15.852L24.5975 15.7161ZM24.7795 14.987L25.3558 15.467C25.7251 15.0237 25.7667 14.487 25.5956 13.9898L24.8864 14.2339L24.1773 14.478C24.1981 14.5384 24.191 14.5537 24.1932 14.5378C24.1943 14.5303 24.1968 14.5212 24.2006 14.5129C24.2042 14.5049 24.2066 14.503 24.2033 14.5069L24.7795 14.987ZM24.8864 14.2339L25.5956 13.9898C25.5893 13.9715 25.5914 13.9705 25.5921 13.984C25.5929 13.999 25.5915 14.0241 25.5823 14.054C25.5731 14.084 25.5599 14.1063 25.5498 14.1195C25.5406 14.1316 25.5381 14.1308 25.552 14.1206L25.1068 13.517L24.6617 12.9134C24.4391 13.0775 24.2426 13.3072 24.1486 13.6132C24.0547 13.9184 24.0878 14.218 24.1773 14.478L24.8864 14.2339ZM25.1068 13.517L25.552 14.1206C25.7586 13.9682 25.943 13.7663 26.0563 13.5044C26.1714 13.2383 26.1914 12.9602 26.1448 12.6952L25.4061 12.8252L24.6674 12.9551C24.669 12.964 24.6675 12.9615 24.6686 12.9502C24.6698 12.9381 24.6733 12.9234 24.6796 12.9088C24.6857 12.8947 24.6915 12.8877 24.6914 12.8878C24.6908 12.8885 24.6828 12.8978 24.6617 12.9134L25.1068 13.517ZM25.4061 12.8252L26.1448 12.6952C26.1427 12.6834 26.1439 12.6822 26.1432 12.6893C26.1429 12.6928 26.1423 12.6974 26.141 12.703C26.1397 12.7086 26.1379 12.7143 26.1357 12.7197C26.1336 12.7251 26.1314 12.7294 26.1296 12.7325C26.1278 12.7356 26.1267 12.7369 26.127 12.7365C26.1277 12.7357 26.1346 12.7271 26.1531 12.7123L25.6844 12.1267L25.2158 11.5412C25.0172 11.7001 24.8455 11.9055 24.7423 12.1644C24.6381 12.426 24.622 12.6968 24.6674 12.9551L25.4061 12.8252ZM25.6844 12.1267L26.1531 12.7123C26.383 12.5283 26.5708 12.2694 26.632 11.9351C26.691 11.6129 26.6154 11.3128 26.5003 11.066L25.8206 11.3829L25.1408 11.6998C25.1695 11.7613 25.143 11.7393 25.1566 11.665C25.1633 11.6281 25.1774 11.5949 25.1938 11.5693C25.2092 11.5453 25.2208 11.5371 25.2158 11.5412L25.6844 12.1267ZM25.8206 11.3829L26.5003 11.066C26.4046 10.8607 26.4225 10.7728 26.4272 10.7551L25.7035 10.5584L24.9798 10.3616C24.8533 10.8269 24.9492 11.2887 25.1408 11.6998L25.8206 11.3829ZM25.7035 10.5584L26.4272 10.7551C26.477 10.5721 26.5486 10.3949 26.6433 10.2228L25.9862 9.86131L25.329 9.49985C25.1781 9.77422 25.0613 10.0618 24.9798 10.3616L25.7035 10.5584ZM25.9862 9.86131L26.6433 10.2228C26.7198 10.0838 26.8327 9.94077 26.9947 9.79634L26.4955 9.23653L25.9964 8.67672C25.7249 8.91884 25.4982 9.19235 25.329 9.49985L25.9862 9.86131ZM26.4955 9.23653L26.9947 9.79634C27.3323 9.49535 27.5569 9.10693 27.6123 8.64506L26.8677 8.55562L26.123 8.46619C26.1159 8.52564 26.0924 8.59116 25.9964 8.67672L26.4955 9.23653ZM26.8677 8.55562L27.6123 8.64506C27.6695 8.16917 27.5286 7.72637 27.2111 7.36962L26.6509 7.86823L26.0906 8.36685C26.1153 8.39465 26.1205 8.41004 26.1217 8.41389C26.1229 8.41761 26.1272 8.43184 26.123 8.46619L26.8677 8.55562ZM26.6509 7.86823L27.2111 7.36962C27.1293 7.27771 27.0096 7.14726 26.8844 7.06107C26.8494 7.037 26.7772 6.99011 26.6787 6.95606C26.5986 6.92837 26.3487 6.8561 26.074 6.99749C25.7677 7.15513 25.6871 7.43924 25.6681 7.56608C25.6492 7.69239 25.6657 7.79562 25.6739 7.83976L26.4114 7.70337L27.1489 7.56699C27.153 7.5892 27.1685 7.67496 27.1515 7.78827C27.1345 7.90211 27.0588 8.17766 26.7605 8.33121C26.4937 8.46851 26.2548 8.3966 26.1886 8.37374C26.1041 8.34451 26.0488 8.3069 26.0338 8.29657C25.9884 8.26534 25.9965 8.26116 26.0906 8.36685L26.6509 7.86823ZM26.4114 7.70337L25.6739 7.83976C25.6544 7.73415 25.6672 7.65181 25.6769 7.60977C25.6868 7.56715 25.6986 7.54363 25.6989 7.54316C25.6998 7.54133 25.6954 7.55044 25.6811 7.57168C25.6673 7.59235 25.6471 7.62012 25.6188 7.65545L26.2044 8.12401L26.79 8.59257C26.884 8.47512 26.9766 8.34403 27.0448 8.20544C27.1028 8.08743 27.2013 7.85029 27.1489 7.56699L26.4114 7.70337Z" fill="#030302"/>
</svg>
