<svg width="48" height="48" viewBox="0 0 48 48" fill="none" xmlns="http://www.w3.org/2000/svg">
<path d="M38.3873 4.93838L38.2694 4.19769L38.3873 4.93838ZM39.0844 5.18491L38.5555 5.71666L39.0844 5.18491ZM39.8162 5.4305L39.9262 6.17239L39.8162 5.4305ZM40.6219 5.48823L40.3975 6.20388L40.6219 5.48823ZM41.2002 5.98304L40.5347 6.32892L41.2002 5.98304ZM41.6422 6.63655L42.2034 6.13906L41.6422 6.63655ZM42.9358 9.30514L42.477 9.89839L42.9358 9.30514ZM43.2715 10.7736L43.9718 10.505L43.2715 10.7736ZM42.9506 12.2736L43.6871 12.1319L42.9506 12.2736ZM43.2246 16.0236L43.8809 16.3866L43.2246 16.0236ZM43.0333 18.2736L43.5406 17.7212L43.0333 18.2736ZM43.1347 25.0236L42.4139 24.8164L43.1347 25.0236ZM42.9013 25.7736L43.6125 26.0118L42.9013 25.7736ZM42.8553 28.0059L43.4251 28.4936L42.8553 28.0059ZM42.8839 28.792L42.2925 29.2532L42.8839 28.792ZM42.2 30.0584L42.9173 30.2775L42.2 30.0584ZM42.1544 30.9027L42.8994 30.8162L42.1544 30.9027ZM41.1482 31.9696L41.123 32.7192L41.1482 31.9696ZM39.7888 32.6749L40.0791 33.3664L39.7888 32.6749ZM38.3205 32.8423L38.2766 33.5911L38.3205 32.8423ZM37.5778 32.7465L37.4319 33.4822L37.5778 32.7465ZM35.3278 33.2212L35.0061 32.5437L35.3278 33.2212ZM34.5778 33.1467L34.1588 33.7687L34.5778 33.1467ZM33.0778 33.0234L33.0859 33.7733L33.0778 33.0234ZM30.8278 33.1124L30.9178 32.3679L30.8278 33.1124ZM27.8278 33.2969L27.8572 32.5475L27.8278 33.2969ZM24.8278 33.0272L25.2162 33.6688L24.8278 33.0272ZM18.742 35.6859L19.4552 35.9179L18.742 35.6859ZM17.3124 37.4256L17.9477 37.8242L17.3124 37.4256ZM16.2658 38.5144L15.9903 37.8168L16.2658 38.5144ZM15.7857 39.0916L16.5247 39.2195L15.7857 39.0916ZM14.9761 40.3602L14.3604 39.9319L14.9761 40.3602ZM14.5109 40.9487L15.0699 41.4487L14.5109 40.9487ZM13.7822 40.9346L13.3877 41.5724L13.7822 40.9346ZM13.8587 39.3766L13.1378 39.5837L13.8587 39.3766ZM12.9974 38.0371L13.6132 37.6091L12.9974 38.0371ZM12.4906 36.615L13.2083 36.3973L12.4906 36.615ZM12.6404 35.81L11.992 35.4331L12.6404 35.81ZM12.6841 35.0298L12.0532 35.4352L12.6841 35.0298ZM10.3821 32.9902L10.9181 32.4657L10.3821 32.9902ZM9.63205 32.8903L10.0842 33.4887L9.63205 32.8903ZM5.78606 31.5907L5.04273 31.6905L5.78606 31.5907ZM5.02325 29.5946L4.32183 29.3291L5.02325 29.5946ZM5.26648 28.0946L4.5236 28.1978L5.26648 28.0946ZM5.06109 27.3446L5.75532 27.0608L5.06109 27.3446ZM5.00566 25.0946L4.45497 24.5855L5.00566 25.0946ZM4.95686 21.3446L4.2289 21.5251L4.95686 21.3446ZM5.06994 19.8446L5.78581 19.6209L5.06994 19.8446ZM5.1835 19.0946L4.54473 18.7016L5.1835 19.0946ZM5.0559 17.5946L4.52364 17.0662L5.0559 17.5946ZM5.20572 13.8446L5.87149 14.19L5.20572 13.8446ZM4.99261 10.8446L4.25192 10.9624L4.99261 10.8446ZM5.05632 10.0996L4.34482 9.86239L5.05632 10.0996ZM5.5088 8.71203L6.13255 9.12849L5.5088 8.71203ZM5.64773 7.97821L6.38904 7.86437L5.64773 7.97821ZM6.53571 6.88652L5.91159 6.47062L6.53571 6.88652ZM7.02596 6.39646L7.44136 7.02092L7.02596 6.39646ZM8.06448 5.24443L8.6268 5.74071L8.06448 5.24443ZM8.73752 4.82457L8.55524 4.09706L8.73752 4.82457ZM9.52783 4.89218L9.8125 4.1983L9.52783 4.89218ZM11.054 4.93861L10.7377 5.61868L11.054 4.93861ZM11.804 5.02686L11.6361 4.29588L11.804 5.02686ZM12.554 4.94101L12.5534 5.69101L12.554 4.94101ZM23.804 4.91371L23.46 5.58017L23.804 4.91371ZM25.304 5.18224L24.9873 4.50238L25.304 5.18224ZM26.054 4.99644L26.0318 4.24677L26.054 4.99644ZM32.804 5.25515L32.827 6.00479L32.804 5.25515ZM35.804 4.72428L36.0406 4.01259L35.804 4.72428ZM36.875 4.18549L37.1468 4.88452L36.875 4.18549ZM32.375 3.98627L31.8417 3.45892L32.375 3.98627ZM13.625 3.91259L13.7783 4.64675L13.625 3.91259ZM5.76284 5.62565L5.09091 5.29247L5.76284 5.62565ZM5.24806 6.20689L4.83773 5.57909L5.24806 6.20689ZM4.72546 7.62008L4.14872 7.14063L4.72546 7.62008ZM3.86041 8.90277L4.5814 8.69619L3.86041 8.90277ZM3.87867 18.7004L3.24772 19.1059L3.87867 18.7004ZM3.92115 23.2004L3.1951 23.3885L3.92115 23.2004ZM4.13482 30.7L4.86447 30.8735L4.13482 30.7ZM4.88675 32.5973L4.37931 33.1496L4.88675 32.5973ZM6.53982 33.8546L7.06461 33.3188L6.53982 33.8546ZM7.23408 33.8842L6.78881 33.2806L7.23408 33.8842ZM10.6727 34.2111L9.95071 34.4142L10.6727 34.2111ZM11.1263 34.7272L10.6684 35.3212L11.1263 34.7272ZM11.6193 35.3935L12.3427 35.1958L11.6193 35.3935ZM11.4144 36.1993L10.7959 35.7751L11.4144 36.1993ZM11.9716 39.1473L12.7215 39.1381L11.9716 39.1473ZM12.4735 42.8711L11.7241 42.9011L12.4735 42.8711ZM13.6331 43.1749L14.3827 43.2008L13.6331 43.1749ZM14.6226 42.0455L13.8864 41.9025L14.6226 42.0455ZM15.1325 41.493L14.9045 40.7785L15.1325 41.493ZM15.7117 40.0354L16.3171 40.4782L15.7117 40.0354ZM16.2251 39.4857L15.7409 38.9129L16.2251 39.4857ZM16.9244 39.0846L17.1901 39.786L16.9244 39.0846ZM17.5154 38.5969L16.8583 38.2352L17.5154 38.5969ZM18.5618 37.5131L19.1174 38.0168L18.5618 37.5131ZM19.0341 35.97L19.7495 36.195L19.0341 35.97ZM19.6621 35.512L19.7708 36.2541L19.6621 35.512ZM20.2511 35.0227L19.5152 34.878L20.2511 35.0227ZM20.6085 34.3481L20.0943 33.8021L20.6085 34.3481ZM24.9836 33.6842L24.7897 32.9597L24.9836 33.6842ZM25.7336 33.8825L25.2662 34.4691L25.7336 33.8825ZM26.4836 34.1157L26.6128 34.8545L26.4836 34.1157ZM27.9836 33.9773L27.6981 33.2838L27.9836 33.9773ZM30.2336 34.2184L30.221 33.4686L30.2336 34.2184ZM33.2336 34.0737L32.7758 33.4796L33.2336 34.0737ZM33.9836 33.8658L33.8253 34.5989L33.9836 33.8658ZM36.2336 33.8538L36.4608 33.139L36.2336 33.8538ZM37.7362 34.31L37.6969 33.561L37.7362 34.31ZM39.2543 34.0789L38.7709 33.5055L39.2543 34.0789ZM40.5056 33.0988L40.3775 32.3598L40.5056 33.0988ZM42.2625 31.8801L41.9561 31.1955L42.2625 31.8801ZM42.7967 31.393L43.4575 31.7478L42.7967 31.393ZM43.2212 30.78L42.6552 30.2879L43.2212 30.78ZM43.5982 30.1407L42.8931 29.8852L43.5982 30.1407ZM43.6063 29.3866L44.3251 29.1723L43.6063 29.3866ZM43.805 28.6539L44.3457 29.1737L43.805 28.6539ZM43.7642 26.4409L44.475 26.2015L43.7642 26.4409ZM44.028 25.6909L43.5082 25.1502L44.028 25.6909ZM44.3725 24.9409L45.1171 24.8505L44.3725 24.9409ZM44.1949 24.1909L44.9022 23.9417L44.1949 24.1909ZM44.1908 19.6909L43.5082 19.3803L44.1908 19.6909ZM44.0024 18.1909L44.579 18.6706L44.0024 18.1909ZM43.9331 15.1909L44.5105 14.7123L43.9331 15.1909ZM44.2319 12.1909L43.5481 11.8828L44.2319 12.1909ZM44.0863 11.4409L44.6609 10.9589L44.0863 11.4409ZM44.1175 9.94088L43.4071 10.1813L44.1175 9.94088ZM43.816 8.45493L43.1015 8.68283L43.816 8.45493ZM41.7044 5.49945L41.6488 6.24739L41.7044 5.49945ZM40.5171 4.5977L40.2192 5.28599L40.5171 4.5977ZM39.1316 3.97746L38.9594 4.7074L39.1316 3.97746ZM38.379 3.84587L38.4643 3.10074L38.379 3.84587ZM38.3873 4.93838L38.5051 5.67906C38.5137 5.67769 38.516 5.67827 38.5135 5.67806C38.5107 5.67783 38.5075 5.67711 38.5051 5.67628C38.4991 5.67417 38.5168 5.6782 38.5555 5.71666L39.0844 5.18491L39.6133 4.65315C39.2593 4.3011 38.7938 4.11426 38.2694 4.19769L38.3873 4.93838ZM39.0844 5.18491L38.5555 5.71666C38.9251 6.08429 39.404 6.2498 39.9262 6.17239L39.8162 5.4305L39.7062 4.68861C39.6868 4.69148 39.675 4.69123 39.6694 4.69079C39.664 4.69038 39.6617 4.68965 39.6609 4.68935C39.6599 4.68904 39.6564 4.68781 39.6496 4.68347C39.6425 4.67895 39.6302 4.66996 39.6133 4.65315L39.0844 5.18491ZM39.8162 5.4305L39.9262 6.17239C40.1025 6.14625 40.2563 6.15961 40.3975 6.20388L40.6219 5.48823L40.8463 4.77258C40.4759 4.65646 40.0926 4.63133 39.7062 4.68861L39.8162 5.4305ZM40.6219 5.48823L40.3975 6.20388C40.4526 6.22116 40.4919 6.24646 40.5347 6.32892L41.2002 5.98304L41.8657 5.63716C41.649 5.22026 41.3027 4.91568 40.8463 4.77258L40.6219 5.48823ZM41.2002 5.98304L40.5347 6.32892C40.6892 6.62617 40.8703 6.89639 41.0809 7.13405L41.6422 6.63655L42.2034 6.13906C42.0844 6.00473 41.9708 5.83927 41.8657 5.63716L41.2002 5.98304ZM41.6422 6.63655L41.0809 7.13405C41.2935 7.37386 41.542 7.58505 41.8207 7.76995L42.2353 7.14496L42.6499 6.51997C42.4675 6.39898 42.3206 6.27123 42.2034 6.13906L41.6422 6.63655ZM42.2353 7.14496L41.8207 7.76995C41.9124 7.83079 41.9526 7.89178 41.9752 7.96777L42.6941 7.75393L43.4129 7.5401C43.285 7.11001 43.0193 6.76501 42.6499 6.51997L42.2353 7.14496ZM42.6941 7.75393L41.9752 7.96777C42.001 8.0545 42.0065 8.16538 41.9537 8.32475L42.6658 8.56028L43.3778 8.79582C43.5134 8.38613 43.5377 7.95944 43.4129 7.5401L42.6941 7.75393ZM42.6658 8.56028L41.9537 8.32475C41.8613 8.60419 41.8476 8.91199 41.9576 9.21551C42.064 9.50898 42.2619 9.73204 42.477 9.89839L42.9358 9.30514L43.3947 8.7119C43.3356 8.6662 43.3514 8.65909 43.3678 8.70428C43.3759 8.72673 43.3799 8.75096 43.3797 8.77267C43.3796 8.79323 43.3758 8.80195 43.3778 8.79582L42.6658 8.56028ZM42.9358 9.30514L42.477 9.89839C42.5473 9.95278 42.5418 9.96961 42.5271 9.93528C42.5192 9.91663 42.5124 9.89142 42.5108 9.86295C42.5092 9.83496 42.5133 9.81506 42.5157 9.80674L43.2374 10.0109L43.959 10.2151C44.0398 9.92971 44.0277 9.62962 43.9065 9.34597C43.7913 9.07638 43.5985 8.86955 43.3947 8.7119L42.9358 9.30514ZM43.2374 10.0109L42.5157 9.80674C42.3986 10.2205 42.4172 10.6406 42.5713 11.0423L43.2715 10.7736L43.9718 10.505C43.934 10.4066 43.9298 10.3183 43.959 10.2151L43.2374 10.0109ZM43.2715 10.7736L42.5713 11.0423C42.5736 11.0484 42.5727 11.0479 42.5721 11.0422C42.5715 11.0362 42.5717 11.0301 42.5725 11.0257C42.5741 11.016 42.5739 11.0357 42.5371 11.087L43.1469 11.5236L43.7567 11.9602C44.0571 11.5407 44.1726 11.0283 43.9718 10.505L43.2715 10.7736ZM43.1469 11.5236L42.5371 11.087C42.2652 11.4668 42.1192 11.9222 42.2141 12.4153L42.9506 12.2736L43.6871 12.1319C43.6858 12.125 43.6707 12.0804 43.7567 11.9602L43.1469 11.5236ZM42.9506 12.2736L42.2141 12.4153C42.2621 12.6645 42.3096 12.9137 42.3567 13.1629L43.0936 13.0236L43.8306 12.8843C43.7832 12.6335 43.7354 12.3827 43.6871 12.1319L42.9506 12.2736ZM43.0936 13.0236L42.3567 13.1629C42.4118 13.4546 42.4921 13.7439 42.5965 14.0304L43.3012 13.7736L44.0058 13.5169C43.928 13.3033 43.87 13.0926 43.8306 12.8843L43.0936 13.0236ZM43.3012 13.7736L42.5965 14.0304C42.5923 14.019 42.5871 13.9984 42.5867 13.9715C42.5863 13.9446 42.591 13.9228 42.5955 13.9094C42.5997 13.8971 42.6016 13.8977 42.5922 13.9114C42.5826 13.9254 42.5633 13.9498 42.5282 13.9836L43.0487 14.5236L43.5692 15.0636C43.9522 14.6944 44.2352 14.1464 44.0058 13.5169L43.3012 13.7736ZM43.0487 14.5236L42.5282 13.9836C42.3175 14.1867 42.105 14.4928 42.1035 14.8957C42.1019 15.2995 42.3128 15.6072 42.5233 15.8117L43.0458 15.2736L43.5683 14.7355C43.5214 14.69 43.604 14.7478 43.6034 14.9015C43.6028 15.0544 43.5205 15.1105 43.5692 15.0636L43.0487 14.5236ZM43.0458 15.2736L42.5233 15.8117C42.5887 15.8752 42.5679 15.8808 42.5541 15.8225C42.5466 15.7914 42.5447 15.7552 42.5503 15.7195C42.5557 15.6852 42.5659 15.6649 42.5683 15.6606L43.2246 16.0236L43.8809 16.3866C44.0296 16.1177 44.0913 15.8023 44.0132 15.4747C43.9397 15.1665 43.7604 14.9221 43.5683 14.7355L43.0458 15.2736ZM43.2246 16.0236L42.5683 15.6606C42.3403 16.0729 42.2737 16.5353 42.4211 17.0002L43.136 16.7736L43.851 16.5471C43.8399 16.512 43.8324 16.4744 43.8809 16.3866L43.2246 16.0236ZM43.136 16.7736L42.4211 17.0002C42.4208 16.9993 42.4189 16.9926 42.4186 16.9819C42.4183 16.9711 42.4198 16.9627 42.4208 16.9589C42.4226 16.9519 42.4174 16.9796 42.3656 17.0413L42.9399 17.5236L43.5142 18.006C43.843 17.6145 44.0273 17.1034 43.851 16.5471L43.136 16.7736ZM42.9399 17.5236L42.3656 17.0413C42.1684 17.2761 42.0131 17.6025 42.0615 17.9913C42.1073 18.3592 42.3184 18.6354 42.5259 18.826L43.0333 18.2736L43.5406 17.7212C43.4759 17.6618 43.5353 17.6881 43.55 17.806C43.5575 17.8662 43.5488 17.9218 43.5338 17.9637C43.5202 18.0018 43.5063 18.0154 43.5142 18.006L42.9399 17.5236ZM43.0333 18.2736L42.5259 18.826C42.5652 18.862 42.5887 18.8895 42.6018 18.9073C42.6148 18.9248 42.6154 18.9298 42.6123 18.9218C42.6088 18.9128 42.6032 18.8939 42.6021 18.8679C42.601 18.8415 42.6049 18.8191 42.6096 18.8039L43.3267 19.0236L44.0437 19.2434C44.2391 18.606 43.9241 18.0735 43.5406 17.7212L43.0333 18.2736ZM43.3267 19.0236L42.6096 18.8039C42.5208 19.0934 42.4575 19.3855 42.4203 19.6798L43.1645 19.7736L43.9086 19.8674C43.9345 19.6617 43.9793 19.4538 44.0437 19.2434L43.3267 19.0236ZM43.1645 19.7736L42.4203 19.6798C42.3819 19.9849 42.3775 20.2908 42.4073 20.5965L43.1538 20.5236L43.9002 20.4508C43.8813 20.2564 43.884 20.0623 43.9086 19.8674L43.1645 19.7736ZM43.1538 20.5236L42.4073 20.5965C42.41 20.6236 42.4111 20.6944 42.3109 20.8318L42.917 21.2736L43.523 21.7155C43.7874 21.3528 43.9464 20.9236 43.9002 20.4508L43.1538 20.5236ZM42.917 21.2736L42.3109 20.8318C42.159 21.0402 42.0433 21.2902 42.0156 21.5766C41.9876 21.8677 42.056 22.1399 42.1837 22.378L42.8446 22.0236L43.5056 21.6692C43.5012 21.661 43.5037 21.6633 43.5063 21.675C43.509 21.6875 43.5104 21.7037 43.5087 21.7206C43.508 21.7285 43.5067 21.735 43.5055 21.7399C43.5048 21.7423 43.5043 21.7441 43.5039 21.7454C43.5034 21.7466 43.5032 21.7473 43.5032 21.7473C43.5032 21.7472 43.5077 21.7365 43.523 21.7155L42.917 21.2736ZM42.8446 22.0236L42.1837 22.378C42.2718 22.5423 42.3077 22.6835 42.3133 22.8072L43.0625 22.7736L43.8118 22.74C43.7949 22.3637 43.6856 22.0049 43.5056 21.6692L42.8446 22.0236ZM43.0625 22.7736L42.3133 22.8072C42.316 22.8686 42.3016 22.9641 42.2055 23.1086L42.8302 23.5236L43.455 23.9386C43.6911 23.5832 43.8315 23.1786 43.8118 22.74L43.0625 22.7736ZM42.8302 23.5236L42.2055 23.1086C42.045 23.3502 41.9444 23.648 41.9805 23.9797C42.0155 24.3016 42.1696 24.5659 42.3493 24.7697L42.9118 24.2736L43.4743 23.7776C43.4336 23.7313 43.4639 23.7456 43.4717 23.8175C43.4755 23.8526 43.4718 23.8857 43.4646 23.9118C43.4578 23.9363 43.4505 23.9454 43.455 23.9386L42.8302 23.5236ZM42.9118 24.2736L42.3493 24.7697C42.4068 24.8349 42.4152 24.8664 42.414 24.8623C42.4132 24.8595 42.4113 24.8514 42.4112 24.8397C42.4112 24.8281 42.413 24.8196 42.4139 24.8164L43.1347 25.0236L43.8555 25.2309C44.0181 24.6654 43.8102 24.1584 43.4743 23.7776L42.9118 24.2736ZM43.1347 25.0236L42.4139 24.8164C42.345 25.0559 42.2705 25.2956 42.1901 25.5355L42.9013 25.7736L43.6125 26.0118C43.6996 25.7517 43.7806 25.4914 43.8555 25.2309L43.1347 25.0236ZM42.9013 25.7736L42.1901 25.5355C42.0416 25.9791 42.0788 26.4294 42.2759 26.8449L42.9536 26.5236L43.6312 26.2023C43.5912 26.1179 43.5936 26.0681 43.6125 26.0118L42.9013 25.7736ZM42.9536 26.5236L42.2759 26.8449C42.3557 27.0133 42.3913 27.1646 42.3968 27.3033L43.1462 27.2736L43.8956 27.2439C43.8813 26.8826 43.7885 26.534 43.6312 26.2023L42.9536 26.5236ZM43.1462 27.2736L42.3968 27.3033C42.3975 27.3198 42.3989 27.3857 42.2855 27.5181L42.8553 28.0059L43.4251 28.4936C43.7194 28.1497 43.9148 27.7274 43.8956 27.2439L43.1462 27.2736ZM42.8553 28.0059L42.2855 27.5181C42.0865 27.7506 41.9471 28.0535 41.9601 28.4083C41.9724 28.7471 42.1203 29.0323 42.2925 29.2532L42.8839 28.792L43.4754 28.3307C43.4247 28.2657 43.4563 28.2769 43.4591 28.3537C43.4605 28.3926 43.4533 28.4302 43.4415 28.4605C43.4305 28.4889 43.42 28.4995 43.4251 28.4936L42.8553 28.0059ZM42.8839 28.792L42.2925 29.2532C42.3477 29.3239 42.2475 29.2351 42.2825 29.042C42.3198 28.8361 42.4601 28.7793 42.4031 28.8104L42.7612 29.4693L43.1193 30.1283C43.3671 29.9936 43.6802 29.7412 43.7585 29.3095C43.8344 28.8906 43.6432 28.5459 43.4754 28.3307L42.8839 28.792ZM42.7612 29.4693L42.4031 28.8104C42.0048 29.0268 41.6313 29.3526 41.4827 29.8393L42.2 30.0584L42.9173 30.2775C42.9073 30.31 42.908 30.2432 43.1193 30.1283L42.7612 29.4693ZM42.2 30.0584L41.4827 29.8393C41.3732 30.1978 41.3632 30.591 41.4094 30.9892L42.1544 30.9027L42.8994 30.8162C42.8677 30.5428 42.8881 30.3731 42.9173 30.2775L42.2 30.0584ZM42.1544 30.9027L41.4094 30.9892C41.4201 31.0812 41.4111 31.1296 41.4058 31.1483C41.4018 31.1624 41.3986 31.1664 41.3931 31.172L41.9293 31.6964L42.4655 32.2208C42.8515 31.8261 42.9573 31.3152 42.8994 30.8162L42.1544 30.9027ZM41.9293 31.6964L41.3931 31.172C41.3839 31.1814 41.3462 31.2258 41.1734 31.22L41.1482 31.9696L41.123 32.7192C41.6136 32.7357 42.0966 32.5979 42.4655 32.2208L41.9293 31.6964ZM41.1482 31.9696L41.1734 31.22C40.6885 31.2038 40.1943 31.338 39.834 31.7414L40.3933 32.2411L40.9526 32.7407C40.9534 32.7398 40.9537 32.7395 40.9536 32.7396C40.9535 32.7397 40.9534 32.7398 40.9534 32.7398C40.9535 32.7398 40.9541 32.7393 40.9557 32.7386C40.9572 32.7378 40.96 32.7365 40.9645 32.7349C40.9822 32.7285 41.03 32.7161 41.123 32.7192L41.1482 31.9696ZM40.3933 32.2411L39.834 31.7414C39.7346 31.8526 39.6243 31.9305 39.4985 31.9833L39.7888 32.6749L40.0791 33.3664C40.4161 33.225 40.7087 33.0137 40.9526 32.7407L40.3933 32.2411ZM39.7888 32.6749L39.4985 31.9833C39.3459 32.0474 39.1882 32.0839 39.0219 32.0935L39.0649 32.8422L39.108 33.591C39.444 33.5717 39.7689 33.4966 40.0791 33.3664L39.7888 32.6749ZM39.0649 32.8422L39.0219 32.0935C38.799 32.1063 38.5798 32.1063 38.3643 32.0936L38.3205 32.8423L38.2766 33.5911C38.5514 33.6072 38.8286 33.6071 39.108 33.591L39.0649 32.8422ZM38.3205 32.8423L38.3643 32.0936C38.1547 32.0814 37.9412 32.0539 37.7236 32.0108L37.5778 32.7465L37.4319 33.4822C37.7143 33.5381 37.996 33.5746 38.2766 33.5911L38.3205 32.8423ZM37.5778 32.7465L37.7236 32.0108C37.2085 31.9087 36.7418 32.0805 36.3657 32.3748L36.8278 32.9655L37.2899 33.5562C37.3558 33.5046 37.397 33.4887 37.413 33.484C37.4249 33.4805 37.4278 33.4813 37.4319 33.4822L37.5778 32.7465ZM36.8278 32.9655L36.3657 32.3748C36.3051 32.4222 36.2741 32.4301 36.2727 32.4305C36.2721 32.4306 36.2752 32.4299 36.2804 32.43C36.2855 32.4301 36.2876 32.4309 36.2851 32.4302L36.0778 33.151L35.8704 33.8717C36.4034 34.0251 36.8974 33.8633 37.2899 33.5562L36.8278 32.9655ZM36.0778 33.151L36.2851 32.4302C35.8475 32.3043 35.4098 32.352 35.0061 32.5437L35.3278 33.2212L35.6495 33.8987C35.7458 33.8529 35.808 33.8538 35.8704 33.8717L36.0778 33.151ZM35.3278 33.2212L35.0061 32.5437C34.9968 32.5481 34.9957 32.5473 35.0019 32.5462C35.0048 32.5456 35.0087 32.5451 35.0134 32.5449C35.018 32.5447 35.0226 32.5448 35.0269 32.5452C35.0359 32.5461 35.0393 32.5479 35.0356 32.5464C35.0314 32.5448 35.0184 32.5392 34.9967 32.5246L34.5778 33.1467L34.1588 33.7687C34.6049 34.0692 35.1354 34.1428 35.6495 33.8987L35.3278 33.2212ZM34.5778 33.1467L34.9967 32.5246C34.6197 32.2706 34.1785 32.1378 33.7043 32.2169L33.8278 32.9567L33.9512 33.6965C33.9771 33.6921 34.0359 33.6859 34.1588 33.7687L34.5778 33.1467ZM33.8278 32.9567L33.7043 32.2169C33.4919 32.2524 33.2804 32.2711 33.0696 32.2734L33.0778 33.0234L33.0859 33.7733C33.3751 33.7702 33.6636 33.7444 33.9512 33.6965L33.8278 32.9567ZM33.0778 33.0234L33.0696 32.2734C32.7493 32.2769 32.4322 32.3249 32.12 32.4149L32.3278 33.1356L32.5355 33.8562C32.7233 33.8021 32.9062 33.7753 33.0859 33.7733L33.0778 33.0234ZM32.3278 33.1356L32.12 32.4149C31.9618 32.4605 31.8114 32.4726 31.6631 32.4556L31.5778 33.2007L31.4924 33.9459C31.8441 33.9862 32.1937 33.9548 32.5355 33.8562L32.3278 33.1356ZM31.5778 33.2007L31.6631 32.4556C31.4147 32.4272 31.1662 32.3979 30.9178 32.3679L30.8278 33.1124L30.7377 33.857C30.9893 33.8874 31.2408 33.9171 31.4924 33.9459L31.5778 33.2007ZM30.8278 33.1124L30.9178 32.3679C30.6552 32.3361 30.3925 32.3111 30.1298 32.2928L30.0778 33.041L30.0257 33.7892C30.263 33.8057 30.5003 33.8283 30.7377 33.857L30.8278 33.1124ZM30.0778 33.041L30.1298 32.2928C29.811 32.2707 29.4932 32.2922 29.1781 32.3564L29.3278 33.0913L29.4774 33.8262C29.6623 33.7886 29.8445 33.7766 30.0257 33.7892L30.0778 33.041ZM29.3278 33.0913L29.1781 32.3564C28.9308 32.4067 28.6836 32.4557 28.4363 32.5031L28.5778 33.2397L28.7192 33.9762C28.9719 33.9277 29.2247 33.8777 29.4774 33.8262L29.3278 33.0913ZM28.5778 33.2397L28.4363 32.5031C28.2416 32.5405 28.049 32.555 27.8572 32.5475L27.8278 33.2969L27.7983 34.0464C28.1066 34.0585 28.4139 34.0348 28.7192 33.9762L28.5778 33.2397ZM27.8278 33.2969L27.8572 32.5475C27.6245 32.5384 27.3917 32.5212 27.1587 32.4959L27.0778 33.2415L26.9968 33.9871C27.2639 34.0161 27.531 34.0358 27.7983 34.0464L27.8278 33.2969ZM27.0778 33.2415L27.1587 32.4959C27.0523 32.4843 26.9168 32.4401 26.7479 32.3259L26.3278 32.9472L25.9076 33.5685C26.2387 33.7924 26.6033 33.9444 26.9968 33.9871L27.0778 33.2415ZM26.3278 32.9472L26.7479 32.3259C26.3756 32.0741 25.9412 31.9377 25.4723 32.0043L25.5778 32.7469L25.6832 33.4894C25.7143 33.485 25.78 33.4822 25.9076 33.5685L26.3278 32.9472ZM25.5778 32.7469L25.4723 32.0043C25.1076 32.0561 24.7623 32.19 24.4393 32.3857L24.8278 33.0272L25.2162 33.6688C25.3932 33.5616 25.5479 33.5086 25.6832 33.4894L25.5778 32.7469ZM24.8278 33.0272L24.4393 32.3857C24.2846 32.4793 24.1646 32.5071 24.0703 32.5081L24.0778 33.258L24.0852 34.008C24.4909 34.004 24.8709 33.8779 25.2162 33.6688L24.8278 33.0272ZM24.0778 33.258L24.0703 32.5081C23.9298 32.5095 23.78 32.4816 23.6157 32.4133L23.3278 33.1058L23.0398 33.7984C23.3756 33.938 23.7257 34.0116 24.0852 34.008L24.0778 33.258ZM23.3278 33.1058L23.6157 32.4133C23.3185 32.2898 23.016 32.1994 22.7088 32.1449L22.5778 32.8834L22.4467 33.6219C22.6395 33.656 22.837 33.714 23.0398 33.7984L23.3278 33.1058ZM22.5778 32.8834L22.7088 32.1449C22.4405 32.0973 22.1719 32.0599 21.903 32.0328L21.8278 32.779L21.7525 33.5252C21.9836 33.5486 22.215 33.5807 22.4467 33.6219L22.5778 32.8834ZM21.8278 32.779L21.903 32.0328C21.6552 32.0078 21.4073 31.9817 21.1595 31.9546L21.0778 32.7001L20.9961 33.4457C21.2482 33.4733 21.5003 33.4998 21.7525 33.5252L21.8278 32.779ZM21.0778 32.7001L21.1595 31.9546C20.6183 31.8953 20.1647 32.1365 19.8254 32.4774L20.357 33.0064L20.8886 33.5355C20.9521 33.4716 20.9917 33.4514 21.0034 33.4464C21.0088 33.4441 21.009 33.4447 21.0051 33.4453C21.001 33.4459 20.9974 33.4458 20.9961 33.4457L21.0778 32.7001ZM20.357 33.0064L19.8254 32.4774C19.5877 32.7161 19.379 32.9361 19.2008 33.1366L19.7613 33.635L20.3218 34.1333C20.4768 33.959 20.6652 33.7599 20.8886 33.5355L20.357 33.0064ZM19.7613 33.635L19.2008 33.1366C19.0634 33.2911 18.9106 33.4358 18.7414 33.5707L19.2088 34.1572L19.6762 34.7437C19.9105 34.557 20.1259 34.3536 20.3218 34.1333L19.7613 33.635ZM19.2088 34.1572L18.7414 33.5707C18.34 33.8905 18.158 34.3419 18.1363 34.8192L18.8855 34.8533L19.6347 34.8875C19.638 34.8155 19.6511 34.7803 19.6569 34.7677C19.6614 34.7581 19.6656 34.7522 19.6762 34.7437L19.2088 34.1572ZM18.8855 34.8533L18.1363 34.8192C18.1251 35.065 18.087 35.2749 18.0287 35.454L18.742 35.6859L19.4552 35.9179C19.5607 35.5936 19.6183 35.2484 19.6347 34.8875L18.8855 34.8533ZM18.742 35.6859L18.0287 35.454C17.9922 35.5664 17.9356 35.6448 17.8526 35.7092L18.3126 36.3016L18.7726 36.894C19.0984 36.641 19.328 36.3089 19.4552 35.9179L18.742 35.6859ZM18.3126 36.3016L17.8526 35.7092C17.611 35.8968 17.3909 36.1039 17.1935 36.3308L17.7592 36.8232L18.325 37.3155C18.4565 37.1644 18.6053 37.0238 18.7726 36.894L18.3126 36.3016ZM17.7592 36.8232L17.1935 36.3308C17.0034 36.5493 16.8312 36.7814 16.6771 37.027L17.3124 37.4256L17.9477 37.8242C18.0604 37.6446 18.1861 37.4751 18.325 37.3155L17.7592 36.8232ZM17.3124 37.4256L16.6771 37.027C16.5522 37.2261 16.4213 37.4206 16.2845 37.6105L16.8931 38.0489L17.5016 38.4873C17.6572 38.2713 17.8059 38.0503 17.9477 37.8242L17.3124 37.4256ZM16.8931 38.0489L16.2845 37.6105C16.2357 37.6783 16.1518 37.753 15.9903 37.8168L16.2658 38.5144L16.5413 39.212C16.9238 39.0609 17.2581 38.8253 17.5016 38.4873L16.8931 38.0489ZM16.2658 38.5144L15.9903 37.8168C15.4866 38.0157 15.1415 38.4165 15.0467 38.9636L15.7857 39.0916L16.5247 39.2195C16.5272 39.205 16.5296 39.2006 16.5285 39.2032C16.528 39.2043 16.5269 39.2066 16.525 39.2096C16.5231 39.2127 16.5209 39.2158 16.5184 39.2188C16.5159 39.2218 16.5136 39.2241 16.5119 39.2257C16.5102 39.2272 16.5095 39.2276 16.5104 39.227C16.512 39.2259 16.521 39.2199 16.5413 39.212L16.2658 38.5144ZM15.7857 39.0916L15.0467 38.9636C15.0211 39.1117 14.97 39.1991 14.9113 39.2602L15.4521 39.7799L15.9928 40.2996C16.283 39.9977 16.4543 39.6262 16.5247 39.2195L15.7857 39.0916ZM15.4521 39.7799L14.9113 39.2602C14.7097 39.4699 14.526 39.6939 14.3604 39.9319L14.9761 40.3602L15.5918 40.7885C15.712 40.6157 15.8456 40.4528 15.9928 40.2996L15.4521 39.7799ZM14.9761 40.3602L14.3604 39.9319C14.235 40.1122 14.0989 40.2844 13.9519 40.4487L14.5109 40.9487L15.0699 41.4487C15.2574 41.2391 15.4314 41.019 15.5918 40.7885L14.9761 40.3602ZM14.5109 40.9487L13.9519 40.4487C13.8698 40.5405 13.8138 40.6013 13.7801 40.6361C13.7614 40.6556 13.7599 40.6561 13.7692 40.6478C13.7706 40.6466 13.7964 40.623 13.8364 40.5962C13.8529 40.5851 13.9058 40.55 13.9822 40.5209C14.0209 40.5061 14.0938 40.4818 14.1893 40.4742C14.285 40.4667 14.4494 40.4729 14.6208 40.5714L14.2473 41.2217L13.8737 41.8721C14.1948 42.0565 14.4943 41.931 14.5174 41.9221C14.5961 41.8921 14.6519 41.8554 14.672 41.8419C14.7191 41.8103 14.7545 41.779 14.7679 41.7671C14.8013 41.7372 14.8339 41.7042 14.8591 41.6782C14.9133 41.622 14.9849 41.5438 15.0699 41.4487L14.5109 40.9487ZM14.2473 41.2217L14.6208 40.5714C14.6315 40.5775 14.635 40.5798 14.6063 40.5622C14.5864 40.5499 14.5572 40.5319 14.5186 40.5081C14.4413 40.4604 14.3275 40.39 14.1768 40.2968L13.7822 40.9346L13.3877 41.5724C13.6767 41.7513 13.851 41.859 13.8737 41.8721L14.2473 41.2217ZM13.7822 40.9346L14.1768 40.2968C14.1292 40.2673 14.2302 40.3142 14.2597 40.4743C14.2873 40.6242 14.217 40.6896 14.2637 40.6218L13.6462 40.1962L13.0287 39.7706C12.8646 40.0086 12.7116 40.35 12.7845 40.746C12.8594 41.1522 13.1338 41.4154 13.3877 41.5724L13.7822 40.9346ZM13.6462 40.1962L14.2637 40.6218C14.5387 40.2228 14.7359 39.7139 14.5795 39.1696L13.8587 39.3766L13.1378 39.5837C13.1308 39.5593 13.1375 39.5501 13.1314 39.5738C13.1237 39.6034 13.0991 39.6684 13.0287 39.7706L13.6462 40.1962ZM13.8587 39.3766L14.5795 39.1696C14.4794 38.8213 14.3054 38.5039 14.0728 38.2184L13.4914 38.6921L12.9099 39.1658C13.0288 39.3118 13.0996 39.4509 13.1378 39.5837L13.8587 39.3766ZM13.4914 38.6921L14.0728 38.2184C13.9087 38.017 13.7555 37.8138 13.6132 37.6091L12.9974 38.0371L12.3815 38.4652C12.5463 38.7023 12.7225 38.9358 12.9099 39.1658L13.4914 38.6921ZM12.9974 38.0371L13.6132 37.6091C13.5102 37.4608 13.4472 37.3161 13.4144 37.1728L12.6834 37.3402L11.9523 37.5075C12.031 37.8516 12.1774 38.1716 12.3815 38.4652L12.9974 38.0371ZM12.6834 37.3402L13.4144 37.1728C13.3548 36.9122 13.2861 36.6537 13.2083 36.3973L12.4906 36.615L11.7729 36.8327C11.8406 37.0559 11.9004 37.2808 11.9523 37.5075L12.6834 37.3402ZM12.4906 36.615L13.2083 36.3973C13.2099 36.4025 13.2059 36.398 13.2109 36.3712C13.2167 36.34 13.235 36.2795 13.2888 36.187L12.6404 35.81L11.992 35.4331C11.7549 35.8409 11.6199 36.3284 11.7729 36.8327L12.4906 36.615ZM12.6404 35.81L13.2888 36.187C13.5539 35.7309 13.6571 35.1566 13.3151 34.6243L12.6841 35.0298L12.0532 35.4352C12.0496 35.4296 12.0426 35.4166 12.0374 35.3974C12.0323 35.378 12.0314 35.3612 12.032 35.3504C12.0331 35.3309 12.0371 35.3556 11.992 35.4331L12.6404 35.81ZM12.6841 35.0298L13.3151 34.6243C13.2453 34.5157 13.2166 34.4136 13.2157 34.3043L12.4657 34.3106L11.7157 34.3169C11.7191 34.7199 11.836 35.0973 12.0532 35.4352L12.6841 35.0298ZM12.4657 34.3106L13.2157 34.3043C13.2124 33.9124 13.1066 33.5422 12.907 33.2055L12.2619 33.588L11.6168 33.9704C11.6846 34.0848 11.7147 34.1963 11.7157 34.3169L12.4657 34.3106ZM12.2619 33.588L12.907 33.2055C12.7255 32.8993 12.4907 32.6342 12.192 32.4407L11.7842 33.0701L11.3763 33.6995C11.4472 33.7454 11.5309 33.8256 11.6168 33.9704L12.2619 33.588ZM11.7842 33.0701L12.192 32.4407C11.6711 32.1031 11.1207 32.2472 10.726 32.5014L11.1321 33.132L11.5381 33.7625C11.597 33.7246 11.5994 33.738 11.5535 33.7424C11.5285 33.7448 11.496 33.7437 11.4601 33.7348C11.4242 33.726 11.3958 33.7121 11.3763 33.6995L11.7842 33.0701ZM11.1321 33.132L10.726 32.5014C10.7254 32.5018 10.7431 32.4904 10.7782 32.4824C10.8153 32.4739 10.8569 32.4729 10.8964 32.4804C10.9722 32.4947 10.9778 32.5267 10.9181 32.4657L10.3821 32.9902L9.84596 33.5147C10.0363 33.7093 10.2919 33.8927 10.6177 33.9542C10.963 34.0195 11.2808 33.9283 11.5381 33.7625L11.1321 33.132ZM10.3821 32.9902L10.9181 32.4657C10.7237 32.267 10.454 32.0765 10.1061 32.0302C9.74042 31.9815 9.42201 32.109 9.17987 32.292L9.63205 32.8903L10.0842 33.4887C10.0909 33.4836 10.0771 33.4956 10.0424 33.5064C10.005 33.5181 9.9577 33.5236 9.90803 33.517C9.81006 33.504 9.79037 33.4579 9.84596 33.5147L10.3821 32.9902ZM9.63205 32.8903L9.17987 32.292C9.11928 32.3378 9.08611 32.3473 9.08 32.3488C9.07696 32.3495 9.07731 32.3491 9.07964 32.3491C9.08194 32.3492 9.08166 32.3496 9.07744 32.3484L8.88205 33.0725L8.68666 33.7966C9.20798 33.9373 9.69267 33.7846 10.0842 33.4887L9.63205 32.8903ZM8.88205 33.0725L9.07744 32.3484C8.79094 32.2711 8.50348 32.2167 8.21536 32.1861L8.136 32.9318L8.05663 33.6776C8.26326 33.6996 8.47316 33.739 8.68666 33.7966L8.88205 33.0725ZM8.136 32.9318L8.21536 32.1861C7.83706 32.1458 7.45808 32.2049 7.08949 32.3322L7.3344 33.0411L7.57931 33.75C7.78478 33.679 7.9402 33.6652 8.05663 33.6776L8.136 32.9318ZM7.3344 33.0411L7.08949 32.3322C7.0542 32.3444 7.08318 32.3265 7.14602 32.3441C7.17497 32.3522 7.19796 32.3645 7.2131 32.3753C7.22719 32.3854 7.22898 32.3901 7.22131 32.3804L6.63184 32.8441L6.04237 33.3078C6.21064 33.5217 6.44135 33.7043 6.74096 33.7884C7.03799 33.8717 7.32757 33.837 7.57931 33.75L7.3344 33.0411ZM6.63184 32.8441L7.22131 32.3804C7.02517 32.131 6.8282 31.9057 6.63007 31.7068L6.09868 32.2361L5.56729 32.7653C5.71735 32.916 5.87583 33.0961 6.04237 33.3078L6.63184 32.8441ZM6.09868 32.2361L6.63007 31.7068C6.57707 31.6536 6.54292 31.5917 6.52938 31.4908L5.78606 31.5907L5.04273 31.6905C5.09781 32.1006 5.27207 32.469 5.56729 32.7653L6.09868 32.2361ZM5.78606 31.5907L6.52938 31.4908C6.45691 30.9513 6.1222 30.5649 5.69171 30.3252L5.32688 30.9805L4.96205 31.6358C5.02625 31.6715 5.0451 31.696 5.04625 31.6975C5.04682 31.6982 5.04531 31.6963 5.04371 31.6924C5.04213 31.6885 5.04228 31.6872 5.04273 31.6905L5.78606 31.5907ZM5.32688 30.9805L5.69171 30.3252C5.63275 30.2924 5.62563 30.2747 5.63386 30.2866C5.63793 30.2925 5.6426 30.3013 5.64598 30.3115C5.64928 30.3214 5.64944 30.327 5.64936 30.3254L4.90023 30.3616L4.1511 30.3978C4.17877 30.9704 4.5138 31.3862 4.96205 31.6358L5.32688 30.9805ZM4.90023 30.3616L5.64936 30.3254C5.64181 30.1691 5.66565 30.0161 5.72468 29.8602L5.02325 29.5946L4.32183 29.3291C4.19158 29.6732 4.1334 30.0314 4.1511 30.3978L4.90023 30.3616ZM5.02325 29.5946L5.72468 29.8602C5.83284 29.5744 5.91717 29.2859 5.97668 28.9949L5.24188 28.8446L4.50708 28.6944C4.46437 28.9033 4.40295 29.1148 4.32183 29.3291L5.02325 29.5946ZM5.24188 28.8446L5.97668 28.9949C6.04465 28.6624 6.0559 28.3267 6.00935 27.9915L5.26648 28.0946L4.5236 28.1978C4.54648 28.3625 4.54133 28.5269 4.50708 28.6944L5.24188 28.8446ZM5.26648 28.0946L6.00935 27.9915C5.96544 27.6753 5.87957 27.3647 5.75532 27.0608L5.06109 27.3446L4.36687 27.6284C4.44703 27.8245 4.49808 28.014 4.5236 28.1978L5.26648 28.0946ZM5.06109 27.3446L5.75532 27.0608C5.67271 26.8587 5.61655 26.6621 5.58424 26.4701L4.84465 26.5946L4.10505 26.7191C4.15692 27.0272 4.24506 27.3305 4.36687 27.6284L5.06109 27.3446ZM4.84465 26.5946L5.58424 26.4701C5.54235 26.2213 5.50107 25.9725 5.46041 25.7237L4.72023 25.8446L3.98005 25.9656C4.0211 26.2168 4.06276 26.468 4.10505 26.7191L4.84465 26.5946ZM4.72023 25.8446L5.46041 25.7237C5.46103 25.7274 5.46128 25.7328 5.46071 25.7381C5.46017 25.7431 5.45942 25.7429 5.4619 25.7364C5.46744 25.7219 5.48888 25.6768 5.55636 25.6038L5.00566 25.0946L4.45497 24.5855C4.12493 24.9424 3.89005 25.4148 3.98005 25.9656L4.72023 25.8446ZM5.00566 25.0946L5.55636 25.6038C5.7535 25.3906 5.92982 25.091 5.92819 24.7164C5.92657 24.3424 5.74826 24.0446 5.55072 23.8329L5.0024 24.3446L4.45409 24.8563C4.48985 24.8947 4.42875 24.8469 4.42821 24.7229C4.42767 24.5982 4.48896 24.5487 4.45497 24.5855L5.00566 25.0946ZM5.0024 24.3446L5.55072 23.8329C5.48599 23.7636 5.47349 23.7276 5.47364 23.728C5.47403 23.7292 5.47635 23.7369 5.4769 23.7493C5.47745 23.7619 5.47587 23.7723 5.47434 23.7784L4.7472 23.5946L4.02006 23.4109C3.87464 23.9863 4.11023 24.4879 4.45409 24.8563L5.0024 24.3446ZM4.7472 23.5946L5.47434 23.7784C5.55424 23.4622 5.58976 23.1419 5.57886 22.8193L4.82929 22.8446L4.07972 22.87C4.08572 23.0474 4.06651 23.227 4.02006 23.4109L4.7472 23.5946ZM4.82929 22.8446L5.57886 22.8193C5.57338 22.6571 5.59543 22.4909 5.6494 22.3173L4.93322 22.0946L4.21704 21.8719C4.11554 22.1984 4.0683 22.5321 4.07972 22.87L4.82929 22.8446ZM4.93322 22.0946L5.6494 22.3173C5.7671 21.9388 5.78033 21.5494 5.68483 21.1642L4.95686 21.3446L4.2289 21.5251C4.25735 21.6399 4.25482 21.7505 4.21704 21.8719L4.93322 22.0946ZM4.95686 21.3446L5.68483 21.1642C5.66463 21.0827 5.66746 21.0001 5.71428 20.8915L5.02552 20.5946L4.33675 20.2978C4.16808 20.6892 4.12515 21.1066 4.2289 21.5251L4.95686 21.3446ZM5.02552 20.5946L5.71428 20.8915C5.88994 20.4838 5.91967 20.0493 5.78581 19.6209L5.06994 19.8446L4.35408 20.0683C4.37646 20.1399 4.37657 20.2054 4.33675 20.2978L5.02552 20.5946ZM5.06994 19.8446L5.78581 19.6209C5.77943 19.6005 5.78002 19.5903 5.78129 19.5819C5.78292 19.5711 5.78971 19.5406 5.82227 19.4877L5.1835 19.0946L4.54473 18.7016C4.29257 19.1114 4.20301 19.5849 4.35408 20.0683L5.06994 19.8446ZM5.1835 19.0946L5.82227 19.4877C5.97976 19.2317 6.06343 18.9216 6.00343 18.5872C5.94634 18.269 5.77448 18.0146 5.58616 17.8213L5.04893 18.3446L4.5117 18.868C4.56692 18.9246 4.53925 18.9203 4.52701 18.8521C4.52073 18.8171 4.52165 18.7803 4.52881 18.7474C4.53561 18.7162 4.54534 18.7006 4.54473 18.7016L5.1835 19.0946ZM5.04893 18.3446L5.58616 17.8213C5.54701 17.7811 5.6193 17.8363 5.61799 17.9766C5.6167 18.1152 5.54502 18.1665 5.58817 18.123L5.0559 17.5946L4.52364 17.0662C4.31861 17.2728 4.12167 17.5741 4.11806 17.9627C4.11443 18.353 4.30732 18.6582 4.5117 18.868L5.04893 18.3446ZM5.0559 17.5946L5.58817 18.123C5.92827 17.7804 6.19289 17.3201 6.13459 16.7661L5.38871 16.8446L4.64283 16.9231C4.64104 16.9061 4.64672 16.8996 4.6397 16.9154C4.63021 16.9368 4.60106 16.9882 4.52364 17.0662L5.0559 17.5946ZM5.38871 16.8446L6.13459 16.7661C6.08332 16.2791 5.81454 15.8763 5.48299 15.5556L4.96155 16.0946L4.44012 16.6337C4.62548 16.813 4.64147 16.9102 4.64283 16.9231L5.38871 16.8446ZM4.96155 16.0946L5.48299 15.5556C5.40326 15.4784 5.37971 15.4325 5.37535 15.4224C5.37374 15.4186 5.37621 15.4233 5.37774 15.435C5.37933 15.4471 5.37897 15.4598 5.37713 15.4707L4.63779 15.3446L3.89846 15.2186C3.79847 15.8051 4.08384 16.2891 4.44012 16.6337L4.96155 16.0946ZM4.63779 15.3446L5.37713 15.4707C5.40979 15.2791 5.46643 15.0826 5.54975 14.8807L4.85646 14.5946L4.16317 14.3085C4.04017 14.6066 3.95103 14.9102 3.89846 15.2186L4.63779 15.3446ZM4.85646 14.5946L5.54975 14.8807C5.64427 14.6517 5.75143 14.4214 5.87149 14.19L5.20572 13.8446L4.53996 13.4993C4.40066 13.7678 4.27498 14.0376 4.16317 14.3085L4.85646 14.5946ZM5.20572 13.8446L5.87149 14.19C6.10707 13.7358 6.12096 13.2388 5.89918 12.7725L5.22188 13.0946L4.54458 13.4168C4.55246 13.4333 4.55534 13.4436 4.55637 13.4482C4.5569 13.4505 4.55708 13.4519 4.55714 13.4525C4.5572 13.4531 4.5572 13.4534 4.55719 13.4535C4.55719 13.4536 4.55718 13.4541 4.55702 13.4551C4.55687 13.4562 4.5565 13.4583 4.55563 13.4615C4.55391 13.4679 4.54978 13.4804 4.53996 13.4993L5.20572 13.8446ZM5.22188 13.0946L5.89918 12.7725C5.83325 12.6339 5.81818 12.5215 5.82851 12.4222L5.08254 12.3446L4.33656 12.267C4.29488 12.6677 4.3727 13.0554 4.54458 13.4168L5.22188 13.0946ZM5.08254 12.3446L5.82851 12.4222C5.85958 12.1236 5.86133 11.8245 5.83372 11.5256L5.0869 11.5946L4.34009 11.6636C4.35867 11.8648 4.35751 12.0657 4.33656 12.267L5.08254 12.3446ZM5.0869 11.5946L5.83372 11.5256C5.8091 11.2592 5.77562 10.9929 5.7333 10.7268L4.99261 10.8446L4.25192 10.9624C4.28913 11.1964 4.31851 11.4301 4.34009 11.6636L5.0869 11.5946ZM4.99261 10.8446L5.7333 10.7268C5.71298 10.5991 5.7226 10.4724 5.76782 10.3368L5.05632 10.0996L4.34482 9.86239C4.22555 10.2201 4.1927 10.5902 4.25192 10.9624L4.99261 10.8446ZM5.05632 10.0996L5.76782 10.3368C5.86087 10.0577 5.9323 9.77977 5.98071 9.50338L5.24196 9.37399L4.5032 9.2446C4.46858 9.44229 4.41625 9.64812 4.34482 9.86239L5.05632 10.0996ZM5.24196 9.37399L5.98071 9.50338C6.00388 9.37112 6.05281 9.24792 6.13255 9.12849L5.5088 8.71203L4.88505 8.29558C4.69204 8.58466 4.56307 8.90277 4.5032 9.2446L5.24196 9.37399ZM5.5088 8.71203L6.13255 9.12849C6.39075 8.74177 6.45599 8.30033 6.38904 7.86437L5.64773 7.97821L4.90642 8.09205C4.92699 8.226 4.8996 8.27378 4.88505 8.29558L5.5088 8.71203ZM5.64773 7.97821L6.38904 7.86437C6.38486 7.83714 6.39711 7.8821 6.36096 7.95282C6.32381 8.02548 6.2759 8.04665 6.28983 8.03985L5.96078 7.36588L5.63174 6.69192C5.3932 6.80838 5.16689 6.99323 5.02539 7.27C4.88488 7.54482 4.86684 7.83432 4.90642 8.09205L5.64773 7.97821ZM5.96078 7.36588L6.28983 8.03985C6.63888 7.86943 6.94231 7.62884 7.15983 7.30242L6.53571 6.88652L5.91159 6.47062C5.86747 6.53683 5.78762 6.61581 5.63174 6.69192L5.96078 7.36588ZM6.53571 6.88652L7.15983 7.30242C7.23569 7.18858 7.32822 7.09618 7.44136 7.02092L7.02596 6.39646L6.61056 5.77201C6.33167 5.95753 6.09737 6.19183 5.91159 6.47062L6.53571 6.88652ZM7.02596 6.39646L7.44136 7.02092C7.71937 6.83598 7.95696 6.60005 8.15698 6.32432L7.54989 5.88393L6.9428 5.44355C6.83627 5.5904 6.72457 5.69616 6.61056 5.77201L7.02596 6.39646ZM7.54989 5.88393L8.15698 6.32432C8.29494 6.13413 8.45129 5.93957 8.6268 5.74071L8.06448 5.24443L7.50216 4.74814C7.2981 4.97936 7.11139 5.21113 6.9428 5.44355L7.54989 5.88393ZM8.06448 5.24443L8.6268 5.74071C8.72408 5.63049 8.81917 5.57729 8.91979 5.55209L8.73752 4.82457L8.55524 4.09706C8.13806 4.20158 7.78446 4.42829 7.50216 4.74814L8.06448 5.24443ZM8.73752 4.82457L8.91979 5.55209C9.01002 5.52948 9.10993 5.53139 9.24317 5.58605L9.52783 4.89218L9.8125 4.1983C9.40979 4.03309 8.98282 3.98993 8.55524 4.09706L8.73752 4.82457ZM9.52783 4.89218L9.24317 5.58605C9.67384 5.76274 10.1329 5.78295 10.5774 5.60919L10.3044 4.91066L10.0313 4.21213C9.9764 4.2336 9.91778 4.24149 9.8125 4.1983L9.52783 4.89218ZM10.3044 4.91066L10.5774 5.60919C10.6304 5.58846 10.6675 5.58602 10.7377 5.61868L11.054 4.93861L11.3702 4.25853C10.9404 4.0587 10.4778 4.03763 10.0313 4.21213L10.3044 4.91066ZM11.054 4.93861L10.7377 5.61868C11.1269 5.79963 11.5468 5.85544 11.9718 5.75783L11.804 5.02686L11.6361 4.29588C11.5612 4.3131 11.481 4.31008 11.3702 4.25853L11.054 4.93861ZM11.804 5.02686L11.9718 5.75783C12.168 5.71277 12.3616 5.69087 12.5534 5.69101L12.554 4.94101L12.5545 4.19101C12.2464 4.19079 11.9399 4.22612 11.6361 4.29588L11.804 5.02686ZM12.554 4.94101L12.5534 5.69101C12.838 5.69122 13.1222 5.67182 13.4058 5.63295L13.304 4.8899L13.2021 4.14684C12.9857 4.17649 12.7699 4.19117 12.5545 4.19101L12.554 4.94101ZM13.304 4.8899L13.4058 5.63295C13.7149 5.59059 14.0197 5.51146 14.3194 5.39804L14.054 4.69659L13.7885 3.99514C13.5882 4.07095 13.393 4.12069 13.2021 4.14684L13.304 4.8899ZM14.054 4.69659L14.3194 5.39804C14.4361 5.35389 14.5342 5.34962 14.6329 5.37274L14.804 4.6425L14.975 3.91226C14.5737 3.81827 14.1718 3.85006 13.7885 3.99514L14.054 4.69659ZM14.804 4.6425L14.6329 5.37274C14.8167 5.41579 15.0083 5.48681 15.2083 5.59066L15.554 4.92504L15.8996 4.25942C15.5996 4.10366 15.2912 3.98632 14.975 3.91226L14.804 4.6425ZM15.554 4.92504L15.2083 5.59066C15.5611 5.77382 15.9422 5.87001 16.3408 5.85041L16.304 5.10131L16.2671 4.35222C16.1658 4.3572 16.0468 4.33588 15.8996 4.25942L15.554 4.92504ZM16.304 5.10131L16.3408 5.85041C16.559 5.83968 16.7773 5.84281 16.9957 5.85983L17.054 5.1121L17.1122 4.36436C16.8306 4.34242 16.5489 4.33836 16.2671 4.35222L16.304 5.10131ZM17.054 5.1121L16.9957 5.85983C17.4671 5.89656 17.8925 5.73125 18.2514 5.46448L17.804 4.86256L17.3565 4.26065C17.2154 4.36555 17.1408 4.36659 17.1122 4.36436L17.054 5.1121ZM17.804 4.86256L18.2514 5.46448C18.2657 5.45386 18.2653 5.45686 18.25 5.4625C18.2331 5.46868 18.2059 5.47515 18.1722 5.47485C18.1385 5.47454 18.1122 5.46762 18.0969 5.46171C18.083 5.45635 18.0841 5.45419 18.0996 5.46605L18.554 4.86932L19.0083 4.2726C18.788 4.10489 18.5101 3.97783 18.1857 3.97491C17.8606 3.97198 17.5799 4.0946 17.3565 4.26065L17.804 4.86256ZM18.554 4.86932L18.0996 5.46605C18.3148 5.62988 18.5826 5.75562 18.8948 5.76984C19.2104 5.78422 19.491 5.681 19.7215 5.52649L19.304 4.90349L18.8864 4.28049C18.875 4.28811 18.8772 4.2846 18.8929 4.27972C18.9097 4.27444 18.9344 4.27009 18.9631 4.2714C19.0253 4.27423 19.0431 4.29911 19.0083 4.2726L18.554 4.86932ZM19.304 4.90349L19.7215 5.52649C19.8908 5.41303 20.0276 5.36827 20.1361 5.35632L20.054 4.61083L19.9718 3.86534C19.5803 3.90846 19.2171 4.05881 18.8864 4.28049L19.304 4.90349ZM20.054 4.61083L20.1361 5.35632C20.3113 5.33701 20.4867 5.34375 20.6645 5.37741L20.804 4.64049L20.9434 3.90358C20.6213 3.8426 20.2966 3.82956 19.9718 3.86534L20.054 4.61083ZM20.804 4.64049L20.6645 5.37741C20.7407 5.39184 20.8695 5.44358 21.0496 5.60727L21.554 5.05215L22.0583 4.49702C21.7385 4.20647 21.3672 3.98378 20.9434 3.90358L20.804 4.64049ZM21.554 5.05215L21.0496 5.60727C21.3946 5.92065 21.832 6.1491 22.3441 6.12165L22.304 5.37272L22.2638 4.6238C22.2632 4.62383 22.2524 4.62522 22.2237 4.61298C22.1916 4.59926 22.1358 4.56745 22.0583 4.49702L21.554 5.05215ZM22.304 5.37272L22.3441 6.12165C22.8008 6.09717 23.201 5.89351 23.5375 5.60974L23.054 5.03639L22.5705 4.46304C22.407 4.60091 22.3071 4.62147 22.2638 4.6238L22.304 5.37272ZM23.054 5.03639L23.5375 5.60974C23.5885 5.56673 23.5923 5.58086 23.55 5.58777C23.5291 5.59119 23.5067 5.591 23.4863 5.58741C23.4667 5.58396 23.4575 5.57889 23.46 5.58017L23.804 4.91371L24.148 4.24725C23.8965 4.11746 23.6093 4.05813 23.3079 4.10744C23.0157 4.15524 22.7695 4.29523 22.5705 4.46304L23.054 5.03639ZM23.804 4.91371L23.46 5.58017C23.7421 5.72581 24.0279 5.84743 24.3171 5.9437L24.554 5.23209L24.7908 4.52048C24.58 4.45031 24.3658 4.35968 24.148 4.24725L23.804 4.91371ZM24.554 5.23209L24.3171 5.9437C24.7581 6.09049 25.2059 6.05529 25.6207 5.86209L25.304 5.18224L24.9873 4.50238C24.902 4.5421 24.8499 4.54013 24.7908 4.52048L24.554 5.23209ZM25.304 5.18224L25.6207 5.86209C25.7878 5.78423 25.9381 5.75021 26.0762 5.74611L26.054 4.99644L26.0318 4.24677C25.6699 4.25749 25.3201 4.34733 24.9873 4.50238L25.304 5.18224ZM26.054 4.99644L26.0762 5.74611C26.429 5.73566 26.772 5.65413 27.1013 5.51194L26.804 4.8234L26.5066 4.13486C26.3359 4.20859 26.1789 4.24241 26.0318 4.24677L26.054 4.99644ZM26.804 4.8234L27.1013 5.51194C27.2909 5.43008 27.4716 5.38127 27.645 5.36008L27.554 4.61562L27.463 3.87116C27.1363 3.91109 26.8171 4.0008 26.5066 4.13486L26.804 4.8234ZM27.554 4.61562L27.645 5.36008C27.6334 5.3615 27.6214 5.36105 27.6115 5.35931C27.6021 5.35766 27.6005 5.35589 27.6077 5.35929C27.6246 5.36732 27.6757 5.39728 27.7559 5.48318L28.304 4.97118L28.852 4.45919C28.5168 4.10032 28.0456 3.79994 27.463 3.87116L27.554 4.61562ZM28.304 4.97118L27.7559 5.48318C28.0889 5.83965 28.5522 6.13837 29.1262 6.0828L29.054 5.33629L28.9817 4.58978C29.0087 4.58716 29.0216 4.59583 29.0072 4.58882C28.9864 4.57868 28.9331 4.546 28.852 4.45919L28.304 4.97118ZM29.054 5.33629L29.1262 6.0828C29.4332 6.05308 29.7369 5.98844 30.0365 5.89075L29.804 5.1777L29.5714 4.46465C29.371 4.53 29.1747 4.57109 28.9817 4.58978L29.054 5.33629ZM29.804 5.1777L30.0365 5.89075C30.1863 5.84189 30.3253 5.82953 30.461 5.84648L30.554 5.10226L30.6469 4.35805C30.2827 4.31254 29.9216 4.35047 29.5714 4.46465L29.804 5.1777ZM30.554 5.10226L30.461 5.84648C30.6753 5.87325 30.8908 5.91579 31.108 5.97458L31.304 5.25065L31.5 4.52671C31.2171 4.45012 30.9327 4.39374 30.6469 4.35805L30.554 5.10226ZM31.304 5.25065L31.108 5.97458C31.4467 6.0663 31.792 6.09416 32.1389 6.05461L32.054 5.30944L31.969 4.56426C31.816 4.58171 31.6612 4.57038 31.5 4.52671L31.304 5.25065ZM32.054 5.30944L32.1389 6.05461C32.3685 6.02844 32.5978 6.01185 32.827 6.00479L32.804 5.25515L32.7809 4.5055C32.5101 4.51384 32.2395 4.53343 31.969 4.56426L32.054 5.30944ZM32.804 5.25515L32.827 6.00479C33.1399 5.99516 33.4501 5.94654 33.7562 5.86079L33.554 5.13858L33.3517 4.41637C33.1579 4.47065 32.968 4.49974 32.7809 4.5055L32.804 5.25515ZM33.554 5.13858L33.7562 5.86079C34.0491 5.77876 34.3384 5.66969 34.6239 5.53506L34.304 4.8567L33.9841 4.17835C33.7696 4.27951 33.5588 4.35836 33.3517 4.41637L33.554 5.13858ZM34.304 4.8567L34.6239 5.53506C34.8056 5.44933 34.9749 5.40247 35.1338 5.38547L35.054 4.63973L34.9742 3.89399C34.6331 3.93049 34.3023 4.02828 33.9841 4.17835L34.304 4.8567ZM35.054 4.63973L35.1338 5.38547C35.272 5.37068 35.4142 5.38505 35.5673 5.43597L35.804 4.72428L36.0406 4.01259C35.6938 3.89727 35.336 3.85527 34.9742 3.89399L35.054 4.63973ZM35.804 4.72428L35.5673 5.43597C35.966 5.56855 36.3775 5.57275 36.7787 5.4467L36.554 4.73117L36.3292 4.01564C36.2304 4.04666 36.1419 4.04627 36.0406 4.01259L35.804 4.72428ZM36.554 4.73117L36.7787 5.4467C36.8766 5.41595 36.9644 5.4164 37.0652 5.45027L37.304 4.73928L37.5427 4.02828C37.1436 3.89428 36.7313 3.88932 36.3292 4.01564L36.554 4.73117ZM37.304 4.73928L37.0652 5.45027C37.314 5.5338 37.4697 5.59076 37.5491 5.6241L37.8395 4.93259L38.1299 4.24109C37.9952 4.18455 37.7939 4.11264 37.5427 4.02828L37.304 4.73928ZM37.8395 4.93259L37.5491 5.6241C37.7285 5.69944 37.9098 5.71623 38.0488 5.7177C38.1959 5.71925 38.3506 5.70365 38.5051 5.67906L38.3873 4.93838L38.2694 4.19769C38.1658 4.21419 38.1001 4.21816 38.0646 4.21778C38.0478 4.21761 38.0453 4.21649 38.0537 4.21786C38.0615 4.21912 38.0898 4.22425 38.1299 4.24109L37.8395 4.93259ZM37.625 4.01985L37.5854 3.27089C37.2503 3.28862 36.9222 3.36247 36.6032 3.48646L36.875 4.18549L37.1468 4.88452C37.3278 4.81412 37.4997 4.77753 37.6646 4.7688L37.625 4.01985ZM36.875 4.18549L36.6032 3.48646C36.6049 3.48583 36.6147 3.48239 36.631 3.48116C36.6475 3.47991 36.6625 3.48158 36.6734 3.48415C36.6942 3.48909 36.6745 3.49089 36.6153 3.43978L36.125 4.00731L35.6347 4.57484C36.0369 4.92231 36.5737 5.10733 37.1468 4.88452L36.875 4.18549ZM36.125 4.00731L36.6153 3.43978C36.2573 3.13052 35.8028 2.92075 35.2812 2.98647L35.375 3.73059L35.4688 4.4747C35.4702 4.47453 35.4708 4.47453 35.4721 4.47469C35.4735 4.47487 35.4793 4.4757 35.4904 4.47977C35.5134 4.48827 35.5621 4.51209 35.6347 4.57484L36.125 4.00731ZM35.375 3.73059L35.2812 2.98647C35.0443 3.01633 34.8075 3.03985 34.5707 3.05703L34.625 3.80506L34.6793 4.55309C34.9425 4.53399 35.2057 4.50785 35.4688 4.4747L35.375 3.73059ZM34.625 3.80506L34.5707 3.05703C34.3738 3.07132 34.1767 3.06477 33.9787 3.03713L33.875 3.77993L33.7713 4.52272C34.0733 4.56487 34.3762 4.57509 34.6793 4.55309L34.625 3.80506ZM33.875 3.77993L33.9787 3.03713C33.7338 3.00295 33.4889 2.96617 33.244 2.92681L33.125 3.66731L33.006 4.40781C33.2611 4.4488 33.5162 4.48711 33.7713 4.52272L33.875 3.77993ZM33.125 3.66731L33.244 2.92681C32.6673 2.83412 32.1881 3.1086 31.8417 3.45892L32.375 3.98627L32.9083 4.51362C32.9848 4.43621 33.0313 4.41229 33.0435 4.4071C33.0485 4.40499 33.0455 4.40689 33.0359 4.40817C33.0258 4.40949 33.0151 4.40928 33.006 4.40781L33.125 3.66731ZM32.375 3.98627L31.8417 3.45892C31.8077 3.49326 31.7825 3.51304 31.7669 3.52359C31.7516 3.53394 31.7482 3.53374 31.7565 3.53089C31.7658 3.5277 31.783 3.52355 31.8055 3.52334C31.8281 3.52313 31.8461 3.52697 31.8566 3.5304L31.625 4.24374L31.3934 4.95708C32.0082 5.15668 32.5407 4.88539 32.9083 4.51362L32.375 3.98627ZM31.625 4.24374L31.8566 3.5304C31.6753 3.47152 31.4833 3.38035 31.2805 3.25004L30.875 3.88095L30.4695 4.51186C30.7667 4.70292 31.0747 4.85362 31.3934 4.95708L31.625 4.24374ZM30.875 3.88095L31.2805 3.25004C30.884 2.99518 30.4214 2.88567 29.9379 3.01019L30.125 3.73649L30.3121 4.46279C30.3286 4.45853 30.366 4.44533 30.4695 4.51186L30.875 3.88095ZM30.125 3.73649L29.9379 3.01019C29.7645 3.05487 29.5961 3.06977 29.4298 3.05758L29.375 3.80557L29.3202 4.55356C29.6539 4.57803 29.9855 4.54689 30.3121 4.46279L30.125 3.73649ZM29.375 3.80557L29.4298 3.05758C28.9874 3.02513 28.5771 3.15844 28.2166 3.39248L28.625 4.02153L29.0334 4.65059C29.1729 4.56001 29.2626 4.54935 29.3202 4.55356L29.375 3.80557ZM28.625 4.02153L28.2166 3.39248C28.0845 3.47825 28.0065 3.48227 27.9602 3.47698L27.875 4.22212L27.7898 4.96727C28.2435 5.01913 28.6655 4.88943 29.0334 4.65059L28.625 4.02153ZM27.875 4.22212L27.9602 3.47698C27.8263 3.46168 27.6741 3.4137 27.5001 3.31322L27.125 3.96269L26.7499 4.61216C27.0759 4.80044 27.4237 4.92542 27.7898 4.96727L27.875 4.22212ZM27.125 3.96269L27.5001 3.31322C27.1742 3.12499 26.8265 2.99998 26.4605 2.95797L26.375 3.70307L26.2895 4.44818C26.4235 4.46356 26.5758 4.51163 26.7499 4.61216L27.125 3.96269ZM26.375 3.70307L26.4605 2.95797C26.1507 2.9224 25.8404 2.92424 25.5308 2.96343L25.625 3.70749L25.7192 4.45156C25.9096 4.42745 26.0993 4.42635 26.2895 4.44818L26.375 3.70307ZM25.625 3.70749L25.5308 2.96343C25.2829 2.99481 25.035 3.02515 24.787 3.05443L24.875 3.79925L24.963 4.54408C25.215 4.5143 25.4671 4.48346 25.7192 4.45156L25.625 3.70749ZM24.875 3.79925L24.787 3.05443C24.6438 3.07134 24.4981 3.05901 24.3433 3.01192L24.125 3.72944L23.9067 4.44696C24.2519 4.55202 24.6062 4.58622 24.963 4.54408L24.875 3.79925ZM24.125 3.72944L24.3433 3.01192C23.9053 2.87865 23.4645 2.92086 23.057 3.11168L23.375 3.79091L23.693 4.47015C23.7855 4.42687 23.8447 4.4281 23.9067 4.44696L24.125 3.72944ZM23.375 3.79091L23.057 3.11168C22.8576 3.20503 22.6655 3.26797 22.48 3.30452L22.625 4.04038L22.77 4.77623C23.0845 4.71426 23.3924 4.6109 23.693 4.47015L23.375 3.79091ZM22.625 4.04038L22.48 3.30452C22.2369 3.35242 21.9939 3.39676 21.7509 3.43755L21.875 4.1772L21.9991 4.91686C22.2561 4.87372 22.5131 4.82685 22.77 4.77623L22.625 4.04038ZM21.875 4.1772L21.7509 3.43755C21.5814 3.46599 21.4137 3.46652 21.2445 3.43922L21.125 4.17964L21.0055 4.92006C21.3363 4.97343 21.6686 4.97233 21.9991 4.91686L21.875 4.1772ZM21.125 4.17964L21.2445 3.43922C20.8951 3.38285 20.5452 3.39698 20.2003 3.47958L20.375 4.20895L20.5497 4.93832C20.7048 4.90117 20.8549 4.89575 21.0055 4.92006L21.125 4.17964ZM20.375 4.20895L20.2003 3.47958C19.9835 3.53151 19.7679 3.56755 19.5535 3.58808L19.625 4.33467L19.6965 5.08125C19.9821 5.05391 20.2665 5.00614 20.5497 4.93832L20.375 4.20895ZM19.625 4.33467L19.5535 3.58808C19.4051 3.60229 19.2536 3.58764 19.0936 3.53888L18.875 4.25633L18.6564 4.97377C18.9964 5.07735 19.3449 5.11492 19.6965 5.08125L19.625 4.33467ZM18.875 4.25633L19.0936 3.53888C18.8327 3.4594 18.5716 3.38634 18.3103 3.31972L18.125 4.04647L17.9397 4.77322C18.1784 4.83407 18.4173 4.90092 18.6564 4.97377L18.875 4.25633ZM18.125 4.04647L18.3103 3.31972C17.991 3.23832 17.6673 3.20382 17.3413 3.21847L17.375 3.96772L17.4087 4.71696C17.5827 4.70914 17.759 4.72714 17.9397 4.77322L18.125 4.04647ZM17.375 3.96772L17.3413 3.21847C17.1976 3.22494 17.0471 3.2025 16.8848 3.14255L16.625 3.84613L16.3652 4.54971C16.7029 4.67436 17.0524 4.73298 17.4087 4.71696L17.375 3.96772ZM16.625 3.84613L16.8848 3.14255C16.5757 3.02846 16.2601 2.95578 15.9393 2.92818L15.875 3.67543L15.8107 4.42267C15.9899 4.43808 16.1743 4.4792 16.3652 4.54971L16.625 3.84613ZM15.875 3.67543L15.9393 2.92818C15.4938 2.88987 15.0803 3.02143 14.7175 3.25618L15.125 3.88584L15.5325 4.5155C15.6697 4.42669 15.7562 4.41797 15.8107 4.42267L15.875 3.67543ZM15.125 3.88584L14.7175 3.25618C14.6699 3.28701 14.6503 3.28771 14.6552 3.28708C14.6569 3.28686 14.6594 3.28688 14.661 3.28709C14.6623 3.28727 14.6586 3.28701 14.6489 3.2832L14.375 3.9814L14.1011 4.6796C14.603 4.87649 15.1053 4.79195 15.5325 4.5155L15.125 3.88584ZM14.375 3.9814L14.6489 3.2832C14.2704 3.13472 13.8721 3.09481 13.4717 3.17842L13.625 3.91259L13.7783 4.64675C13.8779 4.62596 13.9796 4.63193 14.1011 4.6796L14.375 3.9814ZM13.625 3.91259L13.4717 3.17842C13.3065 3.2129 13.1448 3.21781 12.9825 3.1943L12.875 3.93655L12.7675 4.6788C13.1052 4.72773 13.4434 4.71667 13.7783 4.64675L13.625 3.91259ZM12.875 3.93655L12.9825 3.1943C12.6839 3.15103 12.3843 3.1374 12.0843 3.1537L12.125 3.90259L12.1657 4.65149C12.3657 4.64062 12.5661 4.64962 12.7675 4.6788L12.875 3.93655ZM12.125 3.90259L12.0843 3.1537C11.901 3.16366 11.7165 3.14954 11.5293 3.11018L11.375 3.84415L11.2207 4.57811C11.5335 4.64384 11.849 4.66869 12.1657 4.65149L12.125 3.90259ZM11.375 3.84415L11.5293 3.11018C11.2436 3.05015 10.9567 3.01151 10.6689 2.99463L10.625 3.74335L10.5811 4.49206C10.7933 4.5045 11.0064 4.53306 11.2207 4.57811L11.375 3.84415ZM10.625 3.74335L10.6689 2.99463C10.2325 2.96905 9.82821 3.10107 9.47225 3.33391L9.88282 3.96155L10.2934 4.5892C10.427 4.50179 10.5175 4.48833 10.5811 4.49206L10.625 3.74335ZM9.88282 3.96155L9.47225 3.33391C9.35218 3.41246 9.27724 3.41813 9.22388 3.41179L9.13536 4.15654L9.04684 4.9013C9.50052 4.95522 9.92389 4.8309 10.2934 4.5892L9.88282 3.96155ZM9.13536 4.15654L9.22388 3.41179C8.91637 3.37523 8.60747 3.37219 8.29813 3.40239L8.37101 4.14884L8.44389 4.89529C8.64665 4.8755 8.84732 4.87759 9.04684 4.9013L9.13536 4.15654ZM8.37101 4.14884L8.29813 3.40239C7.8727 3.44393 7.49503 3.61968 7.18384 3.9078L7.69338 4.45814L8.20292 5.00848C8.28314 4.9342 8.35723 4.90376 8.44389 4.89529L8.37101 4.14884ZM7.69338 4.45814L7.18384 3.9078C6.98705 4.09001 6.79765 4.26646 6.61565 4.43714L7.1287 4.9842L7.64175 5.53127C7.82124 5.36293 8.0083 5.18867 8.20292 5.00848L7.69338 4.45814ZM7.1287 4.9842L6.61565 4.43714C6.59789 4.45379 6.54539 4.49672 6.37949 4.50126L6.4 5.25098L6.4205 6.0007C6.86471 5.98855 7.29801 5.85363 7.64175 5.53127L7.1287 4.9842ZM6.4 5.25098L6.37949 4.50126C6.13012 4.50808 5.87032 4.56411 5.63175 4.7044C5.3882 4.84761 5.2092 5.05392 5.09091 5.29247L5.76284 5.62565L6.43477 5.95883C6.43673 5.95488 6.43455 5.96035 6.42566 5.97016C6.41641 5.98037 6.40459 5.99006 6.39209 5.99741C6.37998 6.00453 6.37303 6.00606 6.3756 6.0054C6.37877 6.00458 6.39266 6.00146 6.4205 6.0007L6.4 5.25098ZM5.76284 5.62565L5.09091 5.29247C5.02999 5.41532 4.9482 5.50689 4.83773 5.57909L5.24806 6.20689L5.65838 6.83469C5.99486 6.61477 6.25626 6.31884 6.43477 5.95883L5.76284 5.62565ZM5.24806 6.20689L4.83773 5.57909C4.35568 5.89416 4.15976 6.39489 4.19048 6.92222L4.93921 6.87861L5.68794 6.835C5.68632 6.8071 5.68814 6.79199 5.68893 6.78712C5.68963 6.7828 5.68933 6.78752 5.68466 6.79767C5.68243 6.80254 5.67956 6.80783 5.67606 6.8132C5.67256 6.81858 5.66891 6.8233 5.66544 6.82723C5.6582 6.83544 5.65428 6.83737 5.65838 6.83469L5.24806 6.20689ZM4.93921 6.87861L4.19048 6.92222C4.19942 7.07569 4.16299 7.12346 4.14872 7.14063L4.72546 7.62008L5.3022 8.09953C5.60808 7.73157 5.71415 7.28503 5.68794 6.835L4.93921 6.87861ZM4.72546 7.62008L4.14872 7.14063C4.03108 7.28213 3.86928 7.43735 3.65398 7.60401L4.11306 8.19709L4.57215 8.79017C4.85321 8.5726 5.09968 8.34314 5.3022 8.09953L4.72546 7.62008ZM4.11306 8.19709L3.65398 7.60401C3.44563 7.76529 3.25895 7.98186 3.15765 8.26479C3.05455 8.55276 3.06341 8.84406 3.13942 9.10935L3.86041 8.90277L4.5814 8.69619C4.57882 8.6872 4.58145 8.69225 4.58131 8.70863C4.58116 8.72603 4.5779 8.74795 4.56987 8.7704C4.55279 8.81811 4.53231 8.82101 4.57215 8.79017L4.11306 8.19709ZM3.86041 8.90277L3.13942 9.10935C3.1872 9.27613 3.18547 9.4066 3.15811 9.51622L3.88578 9.69786L4.61345 9.8795C4.71176 9.48568 4.69311 9.08609 4.5814 8.69619L3.86041 8.90277ZM3.88578 9.69786L3.15811 9.51622C3.04157 9.9831 3.13287 10.4351 3.36837 10.8327L4.01366 10.4504L4.65895 10.0682C4.59828 9.96578 4.60433 9.91606 4.61345 9.8795L3.88578 9.69786ZM4.01366 10.4504L3.36837 10.8327C3.38162 10.855 3.38804 10.8706 3.39108 10.8795C3.3926 10.884 3.39336 10.8871 3.39373 10.8888C3.3941 10.8905 3.39417 10.8913 3.39417 10.8914C3.39417 10.8914 3.39416 10.8911 3.39417 10.8909C3.39418 10.8906 3.39419 10.8908 3.39405 10.8917C3.3938 10.8932 3.39257 10.8998 3.38733 10.9124L4.07983 11.2004L4.77232 11.4884C4.97457 11.0022 4.91731 10.5044 4.65895 10.0682L4.01366 10.4504ZM4.07983 11.2004L3.38733 10.9124C3.28943 11.1478 3.18255 11.3838 3.06661 11.6204L3.74008 11.9504L4.41355 12.2805C4.54266 12.0171 4.66228 11.753 4.77232 11.4884L4.07983 11.2004ZM3.74008 11.9504L3.06661 11.6204C2.94627 11.8659 2.89123 12.142 2.9323 12.431C2.97246 12.7135 3.09703 12.9573 3.25369 13.1596L3.84669 12.7004L4.43968 12.2412C4.42129 12.2175 4.41444 12.2038 4.41295 12.2005C4.41174 12.1979 4.41523 12.2048 4.41738 12.2199C4.4196 12.2355 4.41925 12.252 4.41673 12.2665C4.41432 12.2803 4.41115 12.2854 4.41355 12.2805L3.74008 11.9504ZM3.84669 12.7004L3.25369 13.1596C3.30507 13.226 3.32193 13.2685 3.32729 13.2867C3.33153 13.3011 3.33077 13.3065 3.32966 13.3124L4.06685 13.4504L4.80404 13.5885C4.89955 13.0784 4.73002 12.6162 4.43968 12.2412L3.84669 12.7004ZM4.06685 13.4504L3.32966 13.3124C3.28532 13.5492 3.23436 13.7862 3.17676 14.0235L3.90559 14.2004L4.63441 14.3774C4.6982 14.1146 4.75475 13.8517 4.80404 13.5885L4.06685 13.4504ZM3.90559 14.2004L3.17676 14.0235C3.10206 14.3312 3.06494 14.6421 3.06687 14.9551L3.81685 14.9504L4.56684 14.9458C4.56569 14.7587 4.58773 14.5697 4.63441 14.3774L3.90559 14.2004ZM3.81685 14.9504L3.06687 14.9551C3.0683 15.1876 3.06163 15.4202 3.04684 15.6529L3.79533 15.7004L4.54382 15.748C4.56081 15.4807 4.56849 15.2133 4.56684 14.9458L3.81685 14.9504ZM3.79533 15.7004L3.04684 15.6529C3.03053 15.9095 3.01763 16.1661 3.00813 16.4227L3.75762 16.4504L4.50711 16.4782C4.51611 16.2348 4.52835 15.9914 4.54382 15.748L3.79533 15.7004ZM3.75762 16.4504L3.00813 16.4227C3.00055 16.6277 2.97455 16.8339 2.92955 17.0418L3.66258 17.2004L4.39561 17.3591C4.45883 17.067 4.49619 16.7732 4.50711 16.4782L3.75762 16.4504ZM3.66258 17.2004L2.92955 17.0418C2.8605 17.3608 2.83739 17.6832 2.86165 18.0065L3.60955 17.9504L4.35745 17.8943C4.3442 17.7177 4.35645 17.54 4.39561 17.3591L3.66258 17.2004ZM3.60955 17.9504L2.86165 18.0065C2.89132 18.4021 3.03213 18.7704 3.24772 19.1059L3.87867 18.7004L4.50961 18.295C4.40389 18.1305 4.36528 17.9988 4.35745 17.8943L3.60955 17.9504ZM3.87867 18.7004L3.24772 19.1059C3.25932 19.124 3.2621 19.1325 3.26178 19.1316C3.26162 19.1311 3.26082 19.1286 3.26 19.1244C3.25918 19.1201 3.25847 19.1148 3.25819 19.1086C3.25792 19.1024 3.25812 19.0963 3.25872 19.0906C3.25932 19.0849 3.26022 19.0805 3.26095 19.0777C3.26248 19.0717 3.26267 19.0746 3.25584 19.0869L3.91185 19.4504L4.56786 19.814C4.69448 19.5855 4.76921 19.3244 4.75673 19.0423C4.74433 18.762 4.64808 18.5104 4.50961 18.295L3.87867 18.7004ZM3.91185 19.4504L3.25584 19.0869C3.11882 19.3342 3.04853 19.6216 3.09098 19.9283C3.13225 20.2264 3.27092 20.4777 3.43883 20.6798L4.01566 20.2004L4.59249 19.7211C4.55266 19.6732 4.57015 19.6744 4.57682 19.7226C4.58007 19.7461 4.57898 19.77 4.57471 19.7906C4.57065 19.8101 4.56547 19.8183 4.56786 19.814L3.91185 19.4504ZM4.01566 20.2004L3.43883 20.6798C3.49183 20.7436 3.50161 20.7767 3.50203 20.7782C3.50213 20.7785 3.50101 20.7743 3.50097 20.7672C3.50095 20.7639 3.50117 20.761 3.50148 20.7586C3.50179 20.7562 3.50211 20.7551 3.50205 20.7553L4.22622 20.9504L4.95038 21.1456C5.09741 20.6 4.91148 20.105 4.59249 19.7211L4.01566 20.2004ZM4.22622 20.9504L3.50205 20.7553C3.4222 21.0516 3.37194 21.3507 3.35239 21.6519L4.10081 21.7004L4.84924 21.749C4.86215 21.5502 4.8955 21.3493 4.95038 21.1456L4.22622 20.9504ZM4.10081 21.7004L3.35239 21.6519C3.34059 21.8336 3.30393 22.0196 3.23943 22.2112L3.95025 22.4504L4.66106 22.6897C4.76487 22.3813 4.82858 22.0673 4.84924 21.749L4.10081 21.7004ZM3.95025 22.4504L3.23943 22.2112C3.10991 22.596 3.09304 22.9944 3.1951 23.3885L3.92115 23.2004L4.64719 23.0124C4.61975 22.9065 4.62229 22.8049 4.66106 22.6897L3.95025 22.4504ZM3.92115 23.2004L3.1951 23.3885C3.25261 23.6106 3.29622 23.8316 3.32618 24.0516L4.06932 23.9504L4.81247 23.8493C4.77435 23.5693 4.71917 23.2903 4.64719 23.0124L3.92115 23.2004ZM4.06932 23.9504L3.32618 24.0516C3.36317 24.3233 3.41218 24.5945 3.47312 24.8652L4.2048 24.7004L4.93649 24.5357C4.88486 24.3064 4.84355 24.0776 4.81247 23.8493L4.06932 23.9504ZM4.2048 24.7004L3.47312 24.8652C3.51464 25.0496 3.52983 25.2307 3.52021 25.4103L4.26913 25.4504L5.01806 25.4906C5.03523 25.1702 5.00754 24.8513 4.93649 24.5357L4.2048 24.7004ZM4.26913 25.4504L3.52021 25.4103C3.50298 25.7317 3.53142 26.0516 3.6039 26.3679L4.33496 26.2004L5.06601 26.0329C5.02394 25.8493 5.00849 25.6692 5.01806 25.4906L4.26913 25.4504ZM4.33496 26.2004L3.6039 26.3679C3.60301 26.3641 3.602 26.3567 3.60248 26.3477C3.60296 26.3389 3.60454 26.3346 3.60399 26.3362C3.60239 26.341 3.58796 26.3791 3.5257 26.4481L4.08259 26.9504L4.63947 27.4528C4.97223 27.0839 5.19437 26.5932 5.06601 26.0329L4.33496 26.2004ZM4.08259 26.9504L3.5257 26.4481C3.22602 26.7803 3.00216 27.1827 2.9709 27.6504L3.71924 27.7004L4.46757 27.7505C4.46973 27.7181 4.4881 27.6206 4.63947 27.4528L4.08259 26.9504ZM3.71924 27.7004L2.9709 27.6504C2.94966 27.9683 2.97146 28.2853 3.03521 28.5995L3.77024 28.4504L4.50527 28.3013C4.4676 28.1156 4.45539 27.9326 4.46757 27.7505L3.71924 27.7004ZM3.77024 28.4504L3.03521 28.5995C3.09463 28.8925 3.1801 29.1826 3.29048 29.4696L3.99051 29.2004L4.69054 28.9313C4.60866 28.7183 4.54728 28.5084 4.50527 28.3013L3.77024 28.4504ZM3.99051 29.2004L3.29048 29.4696C3.36569 29.6652 3.41263 29.8547 3.43456 30.039L4.17931 29.9504L4.92406 29.8619C4.88652 29.5462 4.8076 29.2357 4.69054 28.9313L3.99051 29.2004ZM4.17931 29.9504L3.43456 30.039C3.45367 30.1997 3.44456 30.3608 3.40518 30.5264L4.13482 30.7L4.86447 30.8735C4.94386 30.5397 4.96441 30.2012 4.92406 29.8619L4.17931 29.9504ZM4.13482 30.7L3.40518 30.5264C3.32475 30.8646 3.30714 31.207 3.3574 31.5484L4.09941 31.4392L4.84141 31.33C4.82011 31.1852 4.82611 31.0348 4.86447 30.8735L4.13482 30.7ZM4.09941 31.4392L3.3574 31.5484C3.41403 31.9331 3.57333 32.2799 3.82623 32.5746L4.39536 32.0861L4.96449 31.5977C4.89435 31.5159 4.85635 31.4315 4.84141 31.33L4.09941 31.4392ZM4.39536 32.0861L3.82623 32.5746C4.00516 32.7831 4.18941 32.9751 4.37931 33.1496L4.88675 32.5973L5.39418 32.045C5.25194 31.9143 5.1086 31.7656 4.96449 31.5977L4.39536 32.0861ZM4.88675 32.5973L4.37931 33.1496C4.40815 33.1761 4.47093 33.2528 4.52138 33.4497L5.24791 33.2635L5.97444 33.0773C5.87547 32.6911 5.69748 32.3237 5.39418 32.045L4.88675 32.5973ZM5.24791 33.2635L4.52138 33.4497C4.58711 33.7062 4.72955 34.0015 5.02644 34.1978C5.32704 34.3965 5.65803 34.4093 5.92469 34.3614L5.79215 33.6232L5.65961 32.885C5.63816 32.8889 5.73438 32.8676 5.85356 32.9464C5.96904 33.0228 5.98342 33.1124 5.97444 33.0773L5.24791 33.2635ZM5.79215 33.6232L5.92469 34.3614C5.94616 34.3576 5.95929 34.3575 5.96554 34.3578C5.96874 34.3579 5.97072 34.3582 5.9717 34.3584C5.97267 34.3585 5.97317 34.3587 5.97342 34.3588C5.97367 34.3588 5.97425 34.359 5.9753 34.3595C5.97636 34.36 5.97837 34.361 5.98138 34.3628C5.98727 34.3665 5.99872 34.3745 6.01503 34.3904L6.53982 33.8546L7.06461 33.3188C6.68203 32.9441 6.18831 32.7901 5.65961 32.885L5.79215 33.6232ZM6.53982 33.8546L6.01503 34.3904C6.21544 34.5867 6.49251 34.7511 6.83926 34.7658C7.17798 34.7802 7.46404 34.6465 7.67936 34.4877L7.23408 33.8842L6.78881 33.2806C6.75161 33.3081 6.7957 33.2626 6.903 33.2672C6.95466 33.2694 6.99891 33.2829 7.03077 33.2985C7.06033 33.3129 7.07081 33.3249 7.06461 33.3188L6.53982 33.8546ZM7.23408 33.8842L7.67936 34.4877C7.84145 34.3681 7.9505 34.3428 8.01536 34.3404L7.98786 33.5909L7.96037 32.8414C7.52523 32.8574 7.13176 33.0276 6.78881 33.2806L7.23408 33.8842ZM7.98786 33.5909L8.01536 34.3404C8.00021 34.341 8.00098 34.3356 8.02687 34.3485C8.05729 34.3638 8.11539 34.4016 8.19753 34.4869L8.73786 33.9668L9.2782 33.4466C8.94688 33.1024 8.50387 32.8215 7.96037 32.8414L7.98786 33.5909ZM8.73786 33.9668L8.19753 34.4869C8.37814 34.6745 8.60505 34.8465 8.88451 34.9359C9.17994 35.0303 9.48399 35.0157 9.76614 34.903L9.48786 34.2065L9.20959 33.51C9.22022 33.5058 9.24148 33.4994 9.27042 33.4983C9.29963 33.4971 9.32445 33.5017 9.34121 33.5071C9.3567 33.512 9.35857 33.5154 9.34677 33.5074C9.33457 33.4991 9.31131 33.481 9.2782 33.4466L8.73786 33.9668ZM9.48786 34.2065L9.76614 34.903C9.95089 34.8291 10.1268 34.7885 10.2958 34.7754L10.2379 34.0276L10.1799 33.2798C9.84895 33.3055 9.52484 33.3841 9.20959 33.51L9.48786 34.2065ZM10.2379 34.0276L10.2958 34.7754C10.3649 34.77 10.327 34.7856 10.2425 34.75C10.1934 34.7292 10.1287 34.6909 10.0687 34.625C10.0076 34.5579 9.97 34.4828 9.95071 34.4142L10.6727 34.2111L11.3946 34.0079C11.3081 33.7006 11.0916 33.4802 10.8256 33.3679C10.5962 33.2711 10.3608 33.2658 10.1799 33.2798L10.2379 34.0276ZM10.6727 34.2111L9.95071 34.4142C10.0133 34.6365 10.1401 34.8134 10.2526 34.9415C10.3708 35.0759 10.5142 35.2023 10.6684 35.3212L11.1263 34.7272L11.5843 34.1332C11.4758 34.0497 11.4124 33.9889 11.3793 33.9512C11.3635 33.9333 11.3605 33.9271 11.364 33.9329C11.3672 33.9382 11.3822 33.9637 11.3946 34.0079L10.6727 34.2111ZM11.1263 34.7272L10.6684 35.3212C10.8433 35.456 10.8848 35.551 10.8958 35.5912L11.6193 35.3935L12.3427 35.1958C12.2216 34.7525 11.9345 34.4033 11.5843 34.1332L11.1263 34.7272ZM11.6193 35.3935L10.8958 35.5912C10.8911 35.5741 10.8964 35.5691 10.8907 35.5914C10.8836 35.6192 10.8611 35.6799 10.7959 35.7751L11.4144 36.1993L12.0329 36.6235C12.3048 36.227 12.4885 35.7294 12.3427 35.1958L11.6193 35.3935ZM11.4144 36.1993L10.7959 35.7751C10.5151 36.1845 10.3337 36.7161 10.551 37.2707L11.2493 36.9972L11.9476 36.7236C11.9515 36.7336 11.9545 36.746 11.9554 36.7584C11.9563 36.7704 11.9548 36.7758 11.9556 36.7723C11.9576 36.7627 11.9708 36.714 12.0329 36.6235L11.4144 36.1993ZM11.2493 36.9972L10.551 37.2707C10.6194 37.4455 10.6629 37.6233 10.6822 37.8056L11.428 37.7263L12.1738 37.6469C12.1401 37.33 12.0644 37.0217 11.9476 36.7236L11.2493 36.9972ZM11.428 37.7263L10.6822 37.8056C10.7246 38.2034 10.8787 38.5651 11.1175 38.8834L11.7174 38.4333L12.3173 37.9831C12.2234 37.8581 12.1846 37.7484 12.1738 37.6469L11.428 37.7263ZM11.7174 38.4333L11.1175 38.8834C11.1973 38.9898 11.2206 39.0757 11.2216 39.1564L11.9716 39.1473L12.7215 39.1381C12.7163 38.7102 12.5701 38.3201 12.3173 37.9831L11.7174 38.4333ZM11.9716 39.1473L11.2216 39.1564C11.2265 39.5536 11.3403 39.9264 11.5483 40.2632L12.1864 39.8692L12.8246 39.4751C12.7523 39.3581 12.7229 39.2496 12.7215 39.1381L11.9716 39.1473ZM12.1864 39.8692L11.5483 40.2632C11.5888 40.3289 11.6002 40.3842 11.5845 40.4676L12.3214 40.607L13.0583 40.7465C13.1428 40.2998 13.0642 39.8633 12.8246 39.4751L12.1864 39.8692ZM12.3214 40.607L11.5845 40.4676C11.5002 40.9127 11.5773 41.3483 11.8145 41.7364L12.4545 41.3453L13.0944 40.9541C13.0539 40.8879 13.0423 40.8313 13.0583 40.7465L12.3214 40.607ZM12.4545 41.3453L11.8145 41.7364C11.8434 41.7836 11.8543 41.8228 11.8336 41.9045L12.5606 42.0889L13.2876 42.2733C13.4031 41.8179 13.3433 41.3613 13.0944 40.9541L12.4545 41.3453ZM12.5606 42.0889L11.8336 41.9045C11.7494 42.2365 11.7109 42.5695 11.7241 42.9011L12.4735 42.8711L13.2229 42.8412C13.216 42.6669 13.2355 42.4784 13.2876 42.2733L12.5606 42.0889ZM12.4735 42.8711L11.7241 42.9011C11.7415 43.3368 11.9087 43.726 12.1795 44.0553L12.7588 43.579L13.338 43.1026C13.2488 42.994 13.2257 42.9113 13.2229 42.8412L12.4735 42.8711ZM12.7588 43.579L12.1795 44.0553C12.3219 44.2285 12.5205 44.4075 12.7889 44.5006C13.0794 44.6015 13.3738 44.5746 13.6312 44.4585L13.3229 43.7748L13.0146 43.0911C13.039 43.0801 13.0793 43.0668 13.1323 43.0636C13.1864 43.0604 13.2377 43.0686 13.2808 43.0836C13.3611 43.1115 13.3757 43.1484 13.338 43.1026L12.7588 43.579ZM13.3229 43.7748L13.6312 44.4585C14.1981 44.2029 14.3671 43.6521 14.3827 43.2008L13.6331 43.1749L12.8836 43.149C12.8807 43.2338 12.8663 43.2431 12.8813 43.214C12.89 43.1972 12.9061 43.1726 12.9324 43.1473C12.959 43.1217 12.988 43.1031 13.0146 43.0911L13.3229 43.7748ZM13.6331 43.1749L14.3827 43.2008C14.3834 43.1815 14.3857 43.1813 14.3815 43.1942C14.3769 43.2084 14.3666 43.2314 14.3473 43.256C14.328 43.2807 14.3076 43.2968 14.2935 43.3056C14.2805 43.3136 14.2785 43.3119 14.2952 43.3073L14.0956 42.5844L13.896 41.8614C13.6293 41.935 13.3637 42.0791 13.1663 42.3312C12.9695 42.5826 12.8931 42.8742 12.8836 43.149L13.6331 43.1749ZM14.0956 42.5844L14.2952 43.3073C14.5427 43.239 14.7871 43.1165 14.9866 42.9125C15.1894 42.7052 15.3075 42.4527 15.3588 42.1886L14.6226 42.0455L13.8864 41.9025C13.8847 41.9114 13.8842 41.9084 13.8893 41.8983C13.8947 41.8875 13.9032 41.8749 13.9143 41.8636C13.9251 41.8526 13.933 41.8481 13.9328 41.8482C13.932 41.8487 13.9213 41.8544 13.896 41.8614L14.0956 42.5844ZM14.6226 42.0455L15.3588 42.1886C15.3611 42.1768 15.3627 42.1761 15.3595 42.1825C15.358 42.1856 15.3558 42.1898 15.3525 42.1945C15.3493 42.1993 15.3456 42.2039 15.3417 42.2082C15.3377 42.2125 15.3341 42.2157 15.3313 42.218C15.3286 42.2202 15.3271 42.2211 15.3275 42.2208C15.3284 42.2203 15.338 42.2147 15.3605 42.2075L15.1325 41.493L14.9045 40.7785C14.6623 40.8558 14.4283 40.9861 14.2393 41.191C14.0484 41.3979 13.9364 41.645 13.8864 41.9025L14.6226 42.0455ZM15.1325 41.493L15.3605 42.2075C15.641 42.118 15.9091 41.9435 16.0859 41.6532C16.2563 41.3735 16.2931 41.0662 16.274 40.7946L15.5259 40.8472L14.7777 40.8998C14.7825 40.9675 14.7656 40.9374 14.8049 40.8729C14.8244 40.8409 14.8494 40.8149 14.8739 40.7969C14.8969 40.78 14.9106 40.7765 14.9045 40.7785L15.1325 41.493ZM15.5259 40.8472L16.274 40.7946C16.2581 40.5686 16.3063 40.4929 16.3171 40.4782L15.7117 40.0354L15.1063 39.5926C14.8217 39.9818 14.7459 40.4473 14.7777 40.8998L15.5259 40.8472ZM15.7117 40.0354L16.3171 40.4782C16.4291 40.325 16.5594 40.1852 16.7094 40.0584L16.2251 39.4857L15.7409 38.9129C15.5018 39.1151 15.2898 39.3418 15.1063 39.5926L15.7117 40.0354ZM16.2251 39.4857L16.7094 40.0584C16.8305 39.956 16.9871 39.8629 17.1901 39.786L16.9244 39.0846L16.6587 38.3832C16.3185 38.5121 16.0089 38.6864 15.7409 38.9129L16.2251 39.4857ZM16.9244 39.0846L17.1901 39.786C17.6027 39.6297 17.9517 39.3594 18.1724 38.9586L17.5154 38.5969L16.8583 38.2352C16.8343 38.2789 16.7893 38.3338 16.6587 38.3832L16.9244 39.0846ZM17.5154 38.5969L18.1724 38.9586C18.2445 38.8276 18.3395 38.7163 18.4629 38.6208L18.0042 38.0275L17.5454 37.4342C17.2618 37.6534 17.0309 37.9217 16.8583 38.2352L17.5154 38.5969ZM18.0042 38.0275L18.4629 38.6208C18.7004 38.4372 18.9188 38.2359 19.1174 38.0168L18.5618 37.5131L18.0061 37.0094C17.8683 37.1614 17.715 37.303 17.5454 37.4342L18.0042 38.0275ZM18.5618 37.5131L19.1174 38.0168C19.4093 37.6949 19.5616 37.2993 19.6091 36.8783L18.8638 36.7942L18.1185 36.7102C18.0998 36.8765 18.0507 36.9602 18.0061 37.0094L18.5618 37.5131ZM18.8638 36.7942L19.6091 36.8783C19.6373 36.6276 19.6849 36.4005 19.7495 36.195L19.0341 35.97L18.3186 35.7451C18.2224 36.0512 18.1565 36.3735 18.1185 36.7102L18.8638 36.7942ZM19.0341 35.97L19.7495 36.195C19.7478 36.2004 19.7424 36.2143 19.7303 36.2315C19.718 36.2488 19.7042 36.2617 19.6933 36.2696C19.6733 36.2843 19.6851 36.2666 19.7708 36.2541L19.6621 35.512L19.5535 34.7699C19.0241 34.8474 18.5105 35.1347 18.3186 35.7451L19.0341 35.97ZM19.6621 35.512L19.7708 36.2541C20.0314 36.2159 20.308 36.1241 20.5423 35.9294C20.7873 35.726 20.9303 35.4562 20.987 35.1674L20.2511 35.0227L19.5152 34.878C19.5155 34.8765 19.519 34.8605 19.5322 34.8374C19.5459 34.8134 19.5642 34.7919 19.5839 34.7756C19.6219 34.744 19.6311 34.7585 19.5535 34.7699L19.6621 35.512ZM20.2511 35.0227L20.987 35.1674C21.0149 35.0257 21.066 34.9475 21.1226 34.8941L20.6085 34.3481L20.0943 33.8021C19.7833 34.0949 19.5962 34.4665 19.5152 34.878L20.2511 35.0227ZM20.6085 34.3481L21.1226 34.8941C21.2165 34.8057 21.3186 34.7495 21.4379 34.718L21.2464 33.9928L21.0549 33.2677C20.6912 33.3637 20.368 33.5443 20.0943 33.8021L20.6085 34.3481ZM21.2464 33.9928L21.4379 34.718C21.6971 34.6495 21.9595 34.57 22.225 34.4797L21.9836 33.7697L21.7421 33.0596C21.5077 33.1393 21.2786 33.2086 21.0549 33.2677L21.2464 33.9928ZM21.9836 33.7697L22.225 34.4797C22.2178 34.4822 22.2031 34.4858 22.1833 34.4862C22.1634 34.4865 22.1475 34.4833 22.1382 34.4804C22.1297 34.4778 22.1322 34.4772 22.1458 34.4858C22.1597 34.4946 22.1833 34.5118 22.2156 34.5427L22.7336 34.0002L23.2515 33.4578C22.8724 33.0958 22.3403 32.8562 21.7421 33.0596L21.9836 33.7697ZM22.7336 34.0002L22.2156 34.5427C22.4324 34.7496 22.7512 34.941 23.1543 34.9164C23.5451 34.8926 23.8376 34.6754 24.0332 34.4648L23.4836 33.9545L22.934 33.4441C22.8795 33.5028 22.922 33.4278 23.0629 33.4192C23.216 33.4099 23.2848 33.4896 23.2515 33.4578L22.7336 34.0002ZM23.4836 33.9545L24.0332 34.4648C24.0688 34.4264 24.0959 34.4036 24.1132 34.3909C24.1302 34.3785 24.1348 34.3782 24.1265 34.3813C24.1172 34.3849 24.0983 34.3903 24.0725 34.3912C24.0466 34.3921 24.0247 34.3881 24.0103 34.3836L24.2336 33.6676L24.4569 32.9516C23.8225 32.7537 23.2889 33.0619 22.934 33.4441L23.4836 33.9545ZM24.2336 33.6676L24.0103 34.3836C24.394 34.5033 24.7887 34.5127 25.1775 34.4087L24.9836 33.6842L24.7897 32.9597C24.6784 32.9894 24.5731 32.9878 24.4569 32.9516L24.2336 33.6676ZM24.9836 33.6842L25.1775 34.4087C25.1794 34.4082 25.1771 34.4089 25.1723 34.4089C25.1674 34.4089 25.1651 34.4082 25.1668 34.4086C25.1706 34.4096 25.2039 34.4194 25.2662 34.4691L25.7336 33.8825L26.2009 33.2959C25.8137 32.9874 25.3238 32.8167 24.7897 32.9597L24.9836 33.6842ZM25.7336 33.8825L25.2662 34.4691C25.6373 34.7648 26.0988 34.9444 26.6128 34.8545L26.4836 34.1157L26.3544 33.3769C26.3505 33.3776 26.3461 33.3786 26.3312 33.374C26.3124 33.3682 26.2687 33.35 26.2009 33.2959L25.7336 33.8825ZM26.4836 34.1157L26.6128 34.8545C26.794 34.8228 26.9732 34.817 27.1525 34.8365L27.2336 34.0909L27.3147 33.3453C26.9939 33.3104 26.6731 33.3212 26.3544 33.3769L26.4836 34.1157ZM27.2336 34.0909L27.1525 34.8365C27.5364 34.8783 27.9121 34.8178 28.2691 34.6708L27.9836 33.9773L27.6981 33.2838C27.555 33.3427 27.4308 33.3579 27.3147 33.3453L27.2336 34.0909ZM27.9836 33.9773L28.2691 34.6708C28.496 34.5774 28.7215 34.4978 28.9457 34.4317L28.7336 33.7123L28.5214 32.993C28.2456 33.0743 27.9712 33.1714 27.6981 33.2838L27.9836 33.9773ZM28.7336 33.7123L28.9457 34.4317C28.9459 34.4317 28.9445 34.4321 28.9417 34.4325C28.9388 34.4329 28.9353 34.4333 28.9312 34.4333C28.9224 34.4335 28.9162 34.4322 28.9145 34.4317C28.9118 34.431 28.942 34.4383 29.0043 34.4901L29.4836 33.9132L29.9628 33.3363C29.5743 33.0136 29.0713 32.8308 28.5214 32.993L28.7336 33.7123ZM29.4836 33.9132L29.0043 34.4901C29.3501 34.7774 29.7687 34.9763 30.2461 34.9683L30.2336 34.2184L30.221 33.4686C30.1985 33.4689 30.117 33.4644 29.9628 33.3363L29.4836 33.9132ZM30.2336 34.2184L30.2461 34.9683C30.4134 34.9655 30.5846 34.9897 30.7624 35.0445L30.9836 34.3279L31.2047 33.6112C30.8826 33.5118 30.5538 33.463 30.221 33.4686L30.2336 34.2184ZM30.9836 34.3279L30.7624 35.0445C31.0981 35.1481 31.442 35.1894 31.7896 35.1634L31.7336 34.4155L31.6775 33.6676C31.5251 33.679 31.3691 33.6619 31.2047 33.6112L30.9836 34.3279ZM31.7336 34.4155L31.7896 35.1634C32.0292 35.1454 32.2688 35.1325 32.5083 35.1246L32.4836 34.375L32.4589 33.6254C32.1984 33.634 31.9379 33.6481 31.6775 33.6676L31.7336 34.4155ZM32.4836 34.375L32.5083 35.1246C32.9522 35.11 33.3496 34.9311 33.6913 34.6679L33.2336 34.0737L32.7758 33.4796C32.6175 33.6016 32.5149 33.6236 32.4589 33.6254L32.4836 34.375ZM33.2336 34.0737L33.6913 34.6679C33.7558 34.6182 33.7951 34.6039 33.809 34.6C33.8188 34.5973 33.8207 34.5979 33.8253 34.5989L33.9836 33.8658L34.1419 33.1327C33.6265 33.0214 33.1561 33.1867 32.7758 33.4796L33.2336 34.0737ZM33.9836 33.8658L33.8253 34.5989C34.1777 34.675 34.5339 34.6763 34.8868 34.6027L34.7336 33.8685L34.5804 33.1343C34.4333 33.165 34.2894 33.1645 34.1419 33.1327L33.9836 33.8658ZM34.7336 33.8685L34.8868 34.6027C35.1052 34.5571 35.3226 34.5264 35.5392 34.5103L35.4836 33.7624L35.428 33.0144C35.1446 33.0355 34.862 33.0756 34.5804 33.1343L34.7336 33.8685ZM35.4836 33.7624L35.5392 34.5103C35.6892 34.4992 35.8433 34.5167 36.0063 34.5685L36.2336 33.8538L36.4608 33.139C36.1239 33.0319 35.7779 32.9884 35.428 33.0144L35.4836 33.7624ZM36.2336 33.8538L36.0063 34.5685C36.2221 34.6371 36.4404 34.7236 36.6614 34.8287L36.9836 34.1514L37.3058 33.4741C37.0267 33.3414 36.745 33.2294 36.4608 33.139L36.2336 33.8538ZM36.9836 34.1514L36.6614 34.8287C37.0127 34.9958 37.3872 35.0793 37.7755 35.059L37.7362 34.31L37.6969 33.561C37.5817 33.5671 37.4544 33.5449 37.3058 33.4741L36.9836 34.1514ZM37.7362 34.31L37.7755 35.059C37.9892 35.0478 38.213 35.0523 38.4473 35.0737L38.5154 34.3268L38.5835 33.5799C38.2824 33.5524 37.9868 33.5458 37.6969 33.561L37.7362 34.31ZM38.5154 34.3268L38.4473 35.0737C38.9346 35.1181 39.3756 34.9577 39.7378 34.6522L39.2543 34.0789L38.7709 33.5055C38.6832 33.5794 38.6315 33.5843 38.5835 33.5799L38.5154 34.3268ZM39.2543 34.0789L39.7378 34.6522C39.9909 34.4389 40.2228 34.2115 40.4326 33.9698L39.8662 33.4782L39.2998 32.9866C39.1437 33.1664 38.9678 33.3395 38.7709 33.5055L39.2543 34.0789ZM39.8662 33.4782L40.4326 33.9698C40.5179 33.8716 40.5827 33.8466 40.6337 33.8378L40.5056 33.0988L40.3775 32.3598C39.9419 32.4353 39.5804 32.6633 39.2998 32.9866L39.8662 33.4782ZM40.5056 33.0988L40.6337 33.8378C40.8351 33.8029 41.0674 33.7806 41.3331 33.7736L41.3133 33.0239L41.2935 32.2741C40.9688 32.2827 40.6627 32.3104 40.3775 32.3598L40.5056 33.0988ZM41.3133 33.0239L41.3331 33.7736C41.6217 33.766 41.9333 33.6754 42.1841 33.4339C42.426 33.2009 42.531 32.9043 42.5713 32.6389L41.8298 32.5265L41.0882 32.414C41.0794 32.4724 41.0738 32.4207 41.1435 32.3535C41.1779 32.3203 41.2165 32.298 41.2505 32.2853C41.2822 32.2736 41.2997 32.274 41.2935 32.2741L41.3133 33.0239ZM41.8298 32.5265L42.5713 32.6389C42.5835 32.5582 42.6012 32.5345 42.598 32.5392C42.5962 32.542 42.5913 32.5481 42.5835 32.5548C42.5756 32.5614 42.5696 32.5643 42.5688 32.5647L42.2625 31.8801L41.9561 31.1955C41.4245 31.4334 41.1647 31.9096 41.0882 32.414L41.8298 32.5265ZM42.2625 31.8801L42.5688 32.5647C42.9495 32.3943 43.2572 32.1209 43.4575 31.7478L42.7967 31.393L42.1359 31.0383C42.1026 31.1004 42.0541 31.1517 41.9561 31.1955L42.2625 31.8801ZM42.7967 31.393L43.4575 31.7478C43.5473 31.5806 43.6567 31.4221 43.7871 31.2721L43.2212 30.78L42.6552 30.2879C42.4534 30.52 42.2798 30.7703 42.1359 31.0383L42.7967 31.393ZM43.2212 30.78L43.7871 31.2721C44.0131 31.0123 44.1863 30.7192 44.3033 30.3962L43.5982 30.1407L42.8931 29.8852C42.8397 30.0325 42.7616 30.1656 42.6552 30.2879L43.2212 30.78ZM43.5982 30.1407L44.3033 30.3962C44.4496 29.9925 44.4451 29.5751 44.3251 29.1723L43.6063 29.3866L42.8876 29.6008C42.9271 29.7333 42.9172 29.8186 42.8931 29.8852L43.5982 30.1407ZM43.6063 29.3866L44.3251 29.1723C44.3222 29.1629 44.3234 29.1628 44.3236 29.1704C44.3237 29.174 44.3235 29.1786 44.3229 29.1839C44.3223 29.1892 44.3213 29.1943 44.32 29.199C44.3173 29.2089 44.3147 29.2125 44.3166 29.2092C44.3189 29.2055 44.3269 29.1933 44.3457 29.1737L43.805 28.6539L43.2643 28.1342C42.8869 28.5268 42.7219 29.0452 42.8876 29.6008L43.6063 29.3866ZM43.805 28.6539L44.3457 29.1737C44.5391 28.9724 44.704 28.6965 44.7227 28.3514C44.7411 28.0093 44.6094 27.7187 44.4462 27.4982L43.8433 27.9443L43.2404 28.3905C43.264 28.4223 43.2191 28.3761 43.2248 28.2705C43.2307 28.1619 43.2831 28.1146 43.2643 28.1342L43.805 28.6539ZM43.8433 27.9443L44.4462 27.4982C44.4274 27.4727 44.4188 27.4562 44.4155 27.4488C44.4124 27.4419 44.4141 27.4434 44.4154 27.4523C44.4169 27.4616 44.417 27.4726 44.4156 27.4828C44.4142 27.4927 44.4122 27.4958 44.4143 27.4909L43.7269 27.1909L43.0395 26.891C42.8051 27.4282 42.9229 27.9614 43.2404 28.3905L43.8433 27.9443ZM43.7269 27.1909L44.4143 27.4909C44.5951 27.0766 44.6208 26.6344 44.475 26.2015L43.7642 26.4409L43.0535 26.6804C43.0761 26.7474 43.0769 26.8053 43.0395 26.891L43.7269 27.1909ZM43.7642 26.4409L44.475 26.2015C44.479 26.2135 44.4835 26.2337 44.4833 26.259C44.4831 26.2842 44.4784 26.3038 44.4745 26.3147C44.471 26.3246 44.4703 26.322 44.4808 26.3068C44.4915 26.2914 44.512 26.266 44.5478 26.2316L44.028 25.6909L43.5082 25.1502C43.1289 25.5149 42.8424 26.0539 43.0535 26.6804L43.7642 26.4409ZM44.028 25.6909L44.5478 26.2316C44.9002 25.8928 45.1867 25.4239 45.1171 24.8505L44.3725 24.9409L43.628 25.0313C43.6268 25.0217 43.6272 25.0116 43.6286 25.0035C43.6299 24.9957 43.6312 24.9952 43.6276 25.0028C43.6195 25.0205 43.5905 25.0711 43.5082 25.1502L44.028 25.6909ZM44.3725 24.9409L45.1171 24.8505C45.0798 24.5436 45.0075 24.2404 44.9022 23.9417L44.1949 24.1909L43.4875 24.4402C43.5584 24.6414 43.6045 24.8382 43.628 25.0313L44.3725 24.9409ZM44.1949 24.1909L44.9022 23.9417C44.8579 23.8157 44.8521 23.7048 44.8752 23.5941L44.141 23.4409L43.4068 23.2878C43.3256 23.6771 43.3557 24.0661 43.4875 24.4402L44.1949 24.1909ZM44.141 23.4409L44.8752 23.5941C44.9543 23.2148 44.9325 22.8343 44.816 22.4651L44.1008 22.6909L43.3856 22.9167C43.4269 23.0475 43.4319 23.1671 43.4068 23.2878L44.141 23.4409ZM44.1008 22.6909L44.816 22.4651C44.7547 22.271 44.7196 22.0816 44.7084 21.8958L43.9598 21.9409L43.2111 21.9861C43.2301 22.3003 43.289 22.6109 43.3856 22.9167L44.1008 22.6909ZM43.9598 21.9409L44.7084 21.8958C44.6992 21.7431 44.7184 21.5862 44.7717 21.4204L44.0577 21.1909L43.3436 20.9614C43.2362 21.2957 43.1902 21.6387 43.2111 21.9861L43.9598 21.9409ZM44.0577 21.1909L44.7717 21.4204C44.8908 21.0499 44.9134 20.6675 44.8331 20.2863L44.0992 20.4409L43.3653 20.5956C43.3903 20.7143 43.3853 20.832 43.3436 20.9614L44.0577 21.1909ZM44.0992 20.4409L44.8331 20.2863C44.8159 20.2049 44.8207 20.1175 44.8734 20.0016L44.1908 19.6909L43.5082 19.3803C43.3334 19.7643 43.2771 20.177 43.3653 20.5956L44.0992 20.4409ZM44.1908 19.6909L44.8734 20.0016C44.9923 19.7404 45.0324 19.4503 44.9675 19.1549C44.905 18.8706 44.7569 18.6331 44.5849 18.4409L44.026 18.9409L43.467 19.441C43.5187 19.4988 43.51 19.5112 43.5024 19.4769C43.4985 19.4592 43.4971 19.4377 43.4997 19.4158C43.5022 19.3945 43.5074 19.382 43.5082 19.3803L44.1908 19.6909ZM44.026 18.9409L44.5849 18.4409C44.5504 18.4022 44.5987 18.4388 44.602 18.5424C44.6035 18.591 44.5937 18.6311 44.5832 18.6571C44.5738 18.6808 44.5671 18.6849 44.579 18.6706L44.0024 18.1909L43.4259 17.7113C43.2407 17.9339 43.0915 18.2318 43.1027 18.5895C43.1138 18.9431 43.2779 19.2296 43.467 19.441L44.026 18.9409ZM44.0024 18.1909L44.579 18.6706C44.9215 18.2589 45.0858 17.7195 44.8535 17.1554L44.16 17.4409L43.4665 17.7265C43.4667 17.7269 43.4634 17.7187 43.4618 17.7037C43.4603 17.6882 43.4614 17.6733 43.4638 17.6617C43.4687 17.6388 43.4725 17.6553 43.4259 17.7113L44.0024 18.1909ZM44.16 17.4409L44.8535 17.1554C44.7467 16.8958 44.6336 16.6365 44.5144 16.3774L43.833 16.6909L43.1517 17.0045C43.2626 17.2454 43.3675 17.486 43.4665 17.7265L44.16 17.4409ZM43.833 16.6909L44.5144 16.3774C44.5125 16.3734 44.5154 16.3786 44.5174 16.3917C44.5195 16.4054 44.5194 16.4203 44.5173 16.4336C44.5152 16.4465 44.5124 16.4512 44.5145 16.4466C44.517 16.4414 44.5249 16.4262 44.5442 16.4015L43.9522 15.9409L43.3603 15.4804C43.2045 15.6806 43.08 15.9206 43.0358 16.1982C42.9907 16.4825 43.0379 16.757 43.1517 17.0045L43.833 16.6909ZM43.9522 15.9409L44.5442 16.4015C44.7189 16.1769 44.8518 15.8871 44.8431 15.5468C44.8345 15.2092 44.6892 14.9278 44.5105 14.7123L43.9331 15.1909L43.3557 15.6696C43.3843 15.704 43.3458 15.6726 43.3436 15.585C43.3425 15.5445 43.3503 15.511 43.3585 15.4893C43.366 15.4695 43.3709 15.4667 43.3603 15.4804L43.9522 15.9409ZM43.9331 15.1909L44.5105 14.7123C44.3766 14.5507 44.3575 14.4524 44.3557 14.4091L43.6063 14.4409L42.857 14.4727C42.8764 14.9294 43.0751 15.3311 43.3557 15.6696L43.9331 15.1909ZM43.6063 14.4409L44.3557 14.4091C44.3554 14.4031 44.3504 14.3321 44.4814 14.1794L43.9123 13.6909L43.3433 13.2024C43.0451 13.5498 42.8361 13.9788 42.857 14.4727L43.6063 14.4409ZM43.9123 13.6909L44.4814 14.1794C44.8023 13.8056 45.0045 13.3199 44.8797 12.7738L44.1486 12.9409L43.4174 13.108C43.4171 13.1068 43.4164 13.1022 43.4166 13.0961C43.4169 13.09 43.4179 13.0877 43.417 13.0906C43.4148 13.0975 43.4009 13.1353 43.3433 13.2024L43.9123 13.6909ZM44.1486 12.9409L44.8797 12.7738C44.8616 12.6946 44.8652 12.6111 44.9156 12.4991L44.2319 12.1909L43.5481 11.8828C43.3732 12.2708 43.3213 12.6873 43.4174 13.108L44.1486 12.9409ZM44.2319 12.1909L44.9156 12.4991C45.0305 12.2442 45.0723 11.9621 45.0163 11.6731C44.9619 11.3928 44.8251 11.1546 44.6609 10.9589L44.0863 11.4409L43.5117 11.9229C43.5573 11.9772 43.5496 11.9891 43.5437 11.9588C43.5408 11.9436 43.54 11.9256 43.5422 11.908C43.5444 11.8908 43.5485 11.8819 43.5481 11.8828L44.2319 12.1909ZM44.0863 11.4409L44.6609 10.9589C44.6238 10.9147 44.6489 10.9257 44.6554 10.9881C44.6586 11.0182 44.6556 11.0467 44.6497 11.0692C44.6441 11.0903 44.6382 11.0977 44.6426 11.0908L44.0081 10.6909L43.3736 10.291C43.2216 10.5322 43.1301 10.8233 43.1635 11.1437C43.1961 11.4561 43.3391 11.7172 43.5117 11.9229L44.0863 11.4409ZM44.0081 10.6909L44.6426 11.0908C44.9043 10.6756 44.9943 10.1918 44.8279 9.70042L44.1175 9.94088L43.4071 10.1813C43.4107 10.192 43.4115 10.198 43.4117 10.2003C43.4119 10.2024 43.412 10.2045 43.4115 10.2077C43.4107 10.2129 43.4059 10.2398 43.3736 10.291L44.0081 10.6909ZM44.1175 9.94088L44.8279 9.70042C44.7621 9.50596 44.723 9.31632 44.7082 9.13036L43.9606 9.19L43.213 9.24964C43.2381 9.56478 43.3037 9.87573 43.4071 10.1813L44.1175 9.94088ZM43.9606 9.19L44.7082 9.13036C44.6837 8.82263 44.6244 8.52115 44.5306 8.22703L43.816 8.45493L43.1015 8.68283C43.1605 8.86769 43.1975 9.05625 43.213 9.24964L43.9606 9.19ZM43.816 8.45493L44.5306 8.22703C44.4255 7.89757 44.2621 7.59604 44.0444 7.32562L43.4601 7.79586L42.8759 8.26609C42.98 8.39546 43.0538 8.53331 43.1015 8.68283L43.816 8.45493ZM43.4601 7.79586L44.0444 7.32562C43.8614 7.09823 43.665 6.88703 43.4552 6.69264L42.9455 7.24286L42.4358 7.79308C42.5904 7.93624 42.7371 8.09371 42.8759 8.26609L43.4601 7.79586ZM42.9455 7.24286L43.4552 6.69264C43.4538 6.69136 43.4525 6.69119 43.449 6.68146C43.444 6.66786 43.433 6.62803 43.4354 6.54822L42.6857 6.52642L41.936 6.50461C41.9224 6.97273 42.0572 7.44238 42.4358 7.79308L42.9455 7.24286ZM42.6857 6.52642L43.4354 6.54822C43.4491 6.07682 43.3119 5.61207 42.9446 5.25791L42.424 5.7978L41.9034 6.33769C41.9111 6.34513 41.9159 6.3517 41.9211 6.36614C41.9275 6.38381 41.9383 6.42584 41.936 6.50461L42.6857 6.52642ZM42.424 5.7978L42.9446 5.25791C42.6148 4.93993 42.2004 4.78423 41.76 4.75151L41.7044 5.49945L41.6488 6.24739C41.801 6.25869 41.8663 6.30189 41.9034 6.33769L42.424 5.7978ZM41.7044 5.49945L41.76 4.75151C41.734 4.74958 41.7191 4.74595 41.7127 4.74403C41.7067 4.74223 41.7073 4.74172 41.7117 4.74437C41.7162 4.74713 41.72 4.75044 41.7221 4.75266C41.7239 4.75462 41.7211 4.75222 41.7153 4.74182L41.0598 5.10618L40.4042 5.47054C40.6718 5.9519 41.1251 6.20848 41.6488 6.24739L41.7044 5.49945ZM41.0598 5.10618L41.7153 4.74182C41.5105 4.3732 41.2109 4.08077 40.8151 3.90942L40.5171 4.5977L40.2192 5.28599C40.2799 5.31226 40.3421 5.35881 40.4042 5.47054L41.0598 5.10618ZM40.5171 4.5977L40.8151 3.90942C40.6134 3.82211 40.4127 3.7214 40.2131 3.60693L39.84 4.25757L39.4669 4.9082C39.7136 5.04962 39.9643 5.17567 40.2192 5.28599L40.5171 4.5977ZM39.84 4.25757L40.2131 3.60693C39.9275 3.44319 39.6238 3.32301 39.3039 3.24751L39.1316 3.97746L38.9594 4.7074C39.1377 4.74949 39.3062 4.81605 39.4669 4.9082L39.84 4.25757ZM39.1316 3.97746L39.3039 3.24751C39.0264 3.18199 38.7464 3.13304 38.4643 3.10074L38.379 3.84587L38.2937 4.591C38.5169 4.61656 38.7387 4.65533 38.9594 4.7074L39.1316 3.97746ZM38.379 3.84587L38.4643 3.10074C38.3239 3.08467 38.1496 3.07204 37.9863 3.09589C37.91 3.10705 37.7583 3.13617 37.6074 3.23688C37.4203 3.36172 37.25 3.59249 37.25 3.90124H38H38.75C38.75 4.01882 38.7201 4.14318 38.6533 4.25744C38.5888 4.36767 38.5068 4.44003 38.44 4.48461C38.3206 4.56424 38.2164 4.57821 38.2032 4.58014C38.1662 4.58553 38.1814 4.57815 38.2937 4.591L38.379 3.84587ZM38 3.90124H37.25C37.25 3.64439 37.3842 3.46411 37.4932 3.37226C37.585 3.29485 37.6673 3.26924 37.6801 3.26519C37.7104 3.25561 37.6933 3.26518 37.5854 3.27089L37.625 4.01985L37.6646 4.7688C37.8067 4.76128 37.9771 4.74447 38.1324 4.69536C38.2077 4.67153 38.3369 4.62287 38.46 4.51911C38.6002 4.40092 38.75 4.191 38.75 3.90124H38Z" fill="#030302"/>
</svg>
