<svg width="48" height="48" viewBox="0 0 48 48" fill="none" xmlns="http://www.w3.org/2000/svg">
<path fill-rule="evenodd" clip-rule="evenodd" d="M8.4833 25.2471C8.73256 25.2569 8.98232 25.2748 9.23134 25.3018C9.59843 25.3417 9.93908 25.4837 10.2479 25.6924C10.366 25.7722 10.4276 25.7707 10.4569 25.7667C10.5831 25.7487 10.7284 25.6986 10.8935 25.5987C11.2155 25.4037 11.5708 25.2861 11.9491 25.2823C12.2843 25.279 12.6116 25.3485 12.9247 25.4786C13.1137 25.5571 13.2988 25.6107 13.4784 25.6426C13.6944 25.6809 13.9105 25.7117 14.1259 25.7335C14.361 25.7572 14.5968 25.7819 14.8319 25.8077C14.9918 25.8252 15.1523 25.8175 15.3153 25.7842C15.6112 25.7238 15.9106 25.7044 16.2099 25.7276C16.484 25.7489 16.7574 25.7946 17.0282 25.8633C17.0402 25.8664 17.0472 25.8663 17.0565 25.8643C17.0692 25.8616 17.103 25.8514 17.1581 25.8135C17.4356 25.6222 17.7257 25.4699 18.0263 25.3653C18.3884 25.2394 18.765 25.223 19.1366 25.3223C19.3273 25.3733 19.5166 25.4045 19.703 25.417C19.8997 25.4302 20.097 25.4277 20.2938 25.4102C20.4267 25.3984 20.5712 25.3921 20.704 25.4063C20.7696 25.4133 20.864 25.4289 20.9638 25.4678C21.0457 25.4999 21.1888 25.5711 21.3026 25.7198L21.3495 25.7891L21.3935 25.8721C21.4326 25.9556 21.4585 26.0387 21.4735 26.0879C21.5006 26.1767 21.5297 26.2857 21.5595 26.4083C21.6663 26.8482 21.5702 27.2698 21.3446 27.6368C21.5037 27.9179 21.6228 28.21 21.6942 28.5118C21.7877 28.9072 21.7392 29.2999 21.5731 29.6641C21.5026 29.819 21.4723 29.9593 21.4696 30.0879C21.4671 30.2148 21.4923 30.3517 21.5556 30.502C21.7012 30.8479 21.7519 31.2153 21.6903 31.5879C21.6395 31.8949 21.5174 32.1806 21.3505 32.4483C21.6555 32.7915 21.8536 33.2555 21.6903 33.7813C21.6658 33.8605 21.6667 33.9327 21.7011 34.0225C21.8885 34.511 21.7802 34.9894 21.4999 35.3809C21.4216 35.4904 21.4337 35.5333 21.4354 35.5411C21.4805 35.775 21.525 36.0093 21.5692 36.2432C21.6059 36.4374 21.6608 36.6349 21.7333 36.834C21.9177 37.3408 21.7448 37.7898 21.4647 38.1251C21.5861 38.2736 21.6901 38.4515 21.7401 38.6612C21.8129 38.9668 21.7547 39.261 21.6161 39.5118C21.571 39.5933 21.5785 39.6295 21.5888 39.6622C21.7531 40.1812 21.581 40.6582 21.2743 41.0235C21.11 41.2191 21.0226 41.3704 20.9813 41.4776C20.8937 41.706 20.7177 41.9555 20.4061 42.0772C20.1153 42.1906 19.8329 42.1419 19.6317 42.0733C19.4221 42.0019 19.2151 41.9445 19.0116 41.9014C18.8187 41.8606 18.6236 41.8363 18.4276 41.8292C17.9697 41.8124 17.5877 41.596 17.2929 41.2842C17.2893 41.2805 17.2851 41.2773 17.2821 41.2745C16.9382 41.3643 16.5873 41.3792 16.2411 41.2969C15.8608 41.2064 15.5514 40.9901 15.3114 40.7032C14.8682 40.8525 14.3655 40.8418 13.9481 40.4893C13.7443 40.3171 13.5486 40.1352 13.3622 39.9444C13.3168 39.898 13.2646 39.8679 13.1679 39.8604C12.8155 39.8332 12.4807 39.736 12.1776 39.5586C11.8326 39.3565 11.6111 39.0459 11.4823 38.6973C11.2357 38.7193 10.9357 38.6916 10.6718 38.4952C10.3627 38.2647 10.2578 37.9246 10.2333 37.6514C10.2242 37.5516 10.2059 37.4998 10.1962 37.4795C10.1954 37.4782 10.1938 37.4767 10.1933 37.4756C10.1317 37.4357 10.0117 37.3853 9.79091 37.3672C9.35145 37.3311 8.91758 37.1715 8.61025 36.8018C8.31814 36.45 8.22098 36.0175 8.23818 35.5879C8.24031 35.5332 8.23263 35.5027 8.22939 35.4893C7.97944 35.3034 7.76425 35.0827 7.58974 34.8282C7.42602 34.5892 7.29154 34.3324 7.18838 34.0606C7.1038 33.8377 7.02109 33.615 6.94033 33.3936C6.85062 33.1476 6.77649 32.8956 6.71767 32.6397C6.71642 32.6345 6.71354 32.6265 6.70205 32.6124C6.68768 32.5949 6.65374 32.5615 6.58388 32.5206C6.17399 32.2803 5.86457 31.8916 5.83779 31.3604C5.83386 31.2835 5.80899 31.209 5.7333 31.1221C5.57155 30.9363 5.45381 30.7097 5.41298 30.4493C5.3729 30.1924 5.41413 29.9452 5.49697 29.7237C5.54986 29.582 5.53523 29.5121 5.52236 29.4766C5.42614 29.2109 5.35679 28.9377 5.31631 28.6592C5.29037 28.4813 5.24329 28.301 5.17373 28.1182C5.05133 27.7964 5.00053 27.4598 5.02627 27.1172C5.04922 26.8124 5.11607 26.5168 5.22646 26.2335L5.30068 26.0733C5.38714 25.9162 5.51183 25.768 5.68642 25.6573C5.91958 25.5096 6.17539 25.4706 6.4042 25.4864C6.57319 25.4981 6.74354 25.4873 6.91591 25.4522C7.15168 25.4042 7.38814 25.3578 7.62392 25.3126C7.90867 25.2579 8.19578 25.2359 8.4833 25.2471ZM24.2499 25.4815C24.3903 25.4444 24.5203 25.4557 24.621 25.4835C24.6979 25.5048 24.7619 25.5376 24.8124 25.5694C24.8286 25.5747 24.8517 25.5825 24.8817 25.5909C24.9172 25.6007 24.9606 25.6119 25.0116 25.6241C25.2469 25.6803 25.481 25.7388 25.7118 25.7989C25.8411 25.8325 25.9743 25.8387 26.1171 25.8155C26.4093 25.7679 26.7024 25.757 26.994 25.7823C27.3441 25.8127 27.672 25.9276 27.9686 26.1163C27.9718 26.1161 27.9778 26.1168 27.9862 26.1153C28.0004 26.1127 28.0231 26.1068 28.0536 26.0948C28.4157 25.9521 28.7967 25.8908 29.1806 25.9502C29.6891 26.0292 30.0441 26.3599 30.2665 26.7608C30.284 26.7924 30.2989 26.8128 30.3085 26.8243C30.5636 26.8382 30.8195 26.8614 31.0751 26.8926C31.4041 26.9328 31.7172 27.0291 32.0067 27.1836C32.2703 27.3244 32.5132 27.4986 32.7333 27.7032C32.9355 27.8913 33.1242 28.0949 33.2978 28.3126C33.4523 28.5065 33.6047 28.7004 33.7528 28.8926C33.8101 28.9668 33.8834 29.0218 33.9931 29.0586C34.387 29.1906 34.7044 29.4456 34.913 29.8086C34.929 29.8366 34.9552 29.8727 35.0604 29.9004C35.4077 29.9918 35.7265 30.1438 35.9999 30.3672C36.45 30.7355 36.5234 31.2774 36.456 31.7461C36.4394 31.8611 36.4437 31.9309 36.4501 31.9659C36.4514 31.9732 36.453 31.9789 36.454 31.9825C36.5735 32.1283 36.7072 32.269 36.8544 32.4034C37.0095 32.5449 37.1796 32.6848 37.3642 32.8213C37.7114 33.0781 37.9336 33.4376 37.9999 33.8682C38.0002 33.8703 38.0007 33.8722 38.0009 33.8731C38.0042 33.8773 38.0247 33.9003 38.0829 33.9317C38.2992 34.0481 38.5049 34.2191 38.6415 34.4639C38.7804 34.7131 38.8165 34.9827 38.787 35.2383C38.7854 35.2524 38.7857 35.2621 38.786 35.2667C38.7886 35.2701 38.7956 35.2794 38.8104 35.292C38.993 35.4471 39.1463 35.6463 39.2323 35.8926C39.3185 36.1399 39.3224 36.3926 39.2733 36.629C39.2693 36.6485 39.2684 36.6614 39.2685 36.668C39.2685 36.6726 39.2692 36.6756 39.2694 36.6768C39.2695 36.6772 39.27 36.6802 39.2724 36.6846C39.2752 36.6896 39.2822 36.6998 39.2948 36.7139C39.4634 36.9027 39.5869 37.1384 39.6229 37.4131C39.657 37.6739 39.604 37.9189 39.5116 38.1348C39.6936 38.3427 39.826 38.6199 39.8095 38.9502C39.7932 39.2733 39.6402 39.537 39.4755 39.7325C39.4061 39.8149 39.3798 39.8686 39.371 39.8926C39.3706 39.8936 39.3694 39.8947 39.369 39.8956C39.3946 40.0291 39.4484 40.1789 39.5429 40.3448C39.5879 40.4238 39.6455 40.5358 39.6776 40.6631C39.7021 40.7604 39.7652 41.079 39.5302 41.3624C39.2893 41.6525 38.9565 41.6423 38.8515 41.6329C38.7178 41.6208 38.5968 41.5796 38.5126 41.5469C38.3492 41.4836 38.2078 41.4628 38.0839 41.4688C37.956 41.475 37.8151 41.5093 37.6581 41.586C37.2283 41.7961 36.7669 41.7906 36.3427 41.5772C36.3395 41.5791 36.3358 41.5815 36.3319 41.584C35.9814 41.8122 35.5761 41.9298 35.1425 41.8624C34.881 41.8216 34.6196 41.7654 34.3603 41.6924C34.2467 41.6606 34.14 41.6592 34.0282 41.6885C33.838 41.7385 33.6431 41.8093 33.4452 41.9014C32.9887 42.1136 32.518 42.0611 32.1112 41.8135C31.8789 41.963 31.5909 42.0508 31.2733 41.9922C30.9627 41.9347 30.7217 41.756 30.5458 41.5713C30.3792 41.6567 30.2091 41.7544 30.038 41.8682C29.7985 42.0275 29.498 42.1187 29.1698 42.0567C28.8616 41.9982 28.6217 41.8218 28.4452 41.6377C28.2788 41.4643 28.1923 41.4554 28.1894 41.4551C27.9981 41.4386 27.8065 41.4392 27.6151 41.4571C27.4609 41.4716 27.2983 41.5131 27.1269 41.587C26.7876 41.7331 26.4274 41.7913 26.0595 41.7432C25.8125 41.7109 25.5663 41.6616 25.3212 41.5997C25.3048 41.6107 25.2793 41.6309 25.245 41.6651C25.0621 41.8476 24.7558 42.0644 24.3505 42.0264C23.9483 41.9884 23.687 41.7218 23.5399 41.5118C23.3815 41.2851 23.2626 40.9962 23.287 40.6651C23.3114 40.336 23.4697 40.0694 23.662 39.8702C23.5346 39.5987 23.4495 39.3152 23.4198 39.0215C23.3879 38.7047 23.412 38.3885 23.4911 38.0782L23.4921 38.0772L23.4911 38.0752C23.4889 38.0671 23.4785 38.034 23.4354 37.9776C23.133 37.5824 23.0125 37.0844 23.2274 36.5782L23.2831 36.4366C23.3345 36.296 23.372 36.1578 23.3974 36.0225C23.4189 35.9071 23.4261 35.7931 23.4179 35.6788L23.3769 35.3331C23.3582 35.1014 23.367 34.8688 23.4052 34.6377C23.4126 34.5923 23.4116 34.5246 23.3436 34.4112C23.1231 34.0428 23.034 33.6218 23.1405 33.1856C23.2068 32.9144 23.2961 32.6455 23.4081 32.3799C23.4443 32.2939 23.4443 32.231 23.4228 32.1622C23.2879 31.7334 23.3623 31.3158 23.5722 30.9532C23.2783 30.5763 23.142 30.0937 23.3476 29.5879L23.3993 29.4502C23.4463 29.313 23.479 29.1784 23.4989 29.0469C23.5132 28.952 23.5026 28.8496 23.4501 28.7266C23.3053 28.3874 23.2483 28.0274 23.2968 27.6602C23.3429 27.3114 23.4735 26.9827 23.6649 26.6788C23.7288 26.5774 23.7404 26.5245 23.7421 26.5088C23.7278 26.4124 23.7107 26.2795 23.7167 26.1622C23.7184 26.1287 23.7231 26.0722 23.7392 26.0069C23.7511 25.9583 23.7915 25.8072 23.9247 25.671C24.0006 25.5935 24.1091 25.5189 24.2499 25.4815ZM25.6073 27.8428C25.8083 28.2083 25.8828 28.6179 25.7802 29.0381C25.7491 29.1656 25.7483 29.2887 25.7772 29.4151C25.8796 29.8615 25.7482 30.2658 25.5126 30.5967C25.6397 30.7546 25.7476 30.9412 25.7997 31.1592C25.866 31.4372 25.8316 31.7123 25.7196 31.96C25.6378 32.141 25.5859 32.3149 25.5595 32.4815C25.5233 32.7096 25.4892 32.938 25.4579 33.1661C25.453 33.202 25.4532 33.2686 25.5311 33.3877C25.6764 33.6093 25.7686 33.8798 25.7431 34.1807C25.7208 34.4424 25.6123 34.6646 25.4765 34.8477C25.7044 35.2011 25.8059 35.6203 25.6796 36.0635C25.6185 36.2776 25.5674 36.4913 25.5263 36.7042C25.4922 36.8807 25.4806 37.0559 25.4911 37.2295C25.5006 37.3861 25.5358 37.5492 25.6015 37.7198C25.7129 38.0091 25.7846 38.3059 25.8124 38.6075C25.8457 38.9697 25.7622 39.3126 25.5985 39.6251C25.7434 39.6301 25.8886 39.6431 26.0331 39.6631C26.09 39.6711 26.1684 39.6653 26.287 39.5967C26.6493 39.3873 27.0585 39.2999 27.4833 39.3907C27.6864 39.4342 27.8894 39.4639 28.0907 39.4795C28.2277 39.4901 28.3694 39.4739 28.5194 39.4249C28.8612 39.3131 29.2148 39.2872 29.5683 39.3545C29.7021 39.3801 29.8345 39.3771 29.9716 39.3438C30.2808 39.2686 30.5952 39.2463 30.9101 39.2794C31.224 39.3124 31.53 39.4 31.8251 39.5333C31.8761 39.5563 31.901 39.5556 31.9511 39.5333C32.2984 39.3777 32.6705 39.3195 33.0497 39.3809C33.2905 39.42 33.5317 39.4643 33.7724 39.5118C34.0313 39.5629 34.29 39.6283 34.5468 39.709C34.6202 39.7321 34.6869 39.7317 34.7743 39.6963C35.0741 39.5749 35.3843 39.5028 35.7011 39.4864C36.0175 39.4701 36.3311 39.5099 36.6376 39.6016C36.8975 39.6795 37.1572 39.7744 37.414 39.8848C37.4157 39.8856 37.4181 39.8861 37.4198 39.8868C37.4179 39.6573 37.4356 39.4362 37.4804 39.2276C37.4739 39.2194 37.4643 39.2073 37.4501 39.1934C37.1341 38.8853 36.9212 38.4796 36.9481 37.9971C36.9665 37.6703 37.0565 37.3447 37.1942 37.0254C36.973 36.7988 36.7924 36.5441 36.6708 36.2579C36.5254 35.9152 36.4875 35.548 36.5302 35.1788C36.5355 35.1321 36.5301 35.1123 36.5292 35.1094C36.5288 35.1082 36.5283 35.1062 36.5272 35.1045C36.5256 35.1021 36.5208 35.096 36.5126 35.0879C36.2971 34.8741 36.1105 34.6407 35.9579 34.3877C35.9073 34.3042 35.8269 34.2207 35.6903 34.1446C35.251 33.8996 34.9952 33.4891 34.9569 32.9932C34.6164 32.8276 34.3324 32.5819 34.1405 32.2481C34.0398 32.0728 33.9272 31.905 33.8046 31.7461C33.6828 31.5885 33.5506 31.44 33.4081 31.3018C33.2083 31.1079 33.0267 30.8934 32.8642 30.6602C32.7471 30.4924 32.619 30.3346 32.4804 30.1885C32.4688 30.1853 32.4293 30.1776 32.3515 30.1856C32.0868 30.2126 31.7884 30.1762 31.5204 30.001C31.2871 29.8482 31.1439 29.6309 31.0565 29.4102C30.8243 29.4115 30.5846 29.3549 30.3681 29.2081C30.1174 29.0378 29.964 28.7943 29.872 28.5557C29.8364 28.4635 29.8028 28.4121 29.7811 28.3868C29.7621 28.3646 29.7504 28.3599 29.747 28.3585C29.6902 28.3345 29.5999 28.3167 29.4433 28.3555C29.2047 28.4146 28.9458 28.4227 28.6884 28.3428C28.43 28.2625 28.2199 28.1082 28.0575 27.92C27.9595 27.8065 27.8758 27.7612 27.8075 27.7422C27.8052 27.7428 27.8018 27.744 27.7978 27.7452C27.7697 27.7535 27.7097 27.7783 27.6181 27.8467C27.4116 28.001 27.143 28.1387 26.8261 28.1465C26.4865 28.1548 26.2008 28.0121 25.9892 27.8086C25.8842 27.708 25.7998 27.6671 25.7362 27.6504C25.7001 27.7026 25.6561 27.7656 25.6073 27.8428ZM19.4647 27.3135C19.3862 27.3164 19.2932 27.339 19.1806 27.3995C18.8941 27.5531 18.5967 27.6651 18.2899 27.7276C17.8538 27.8163 17.4389 27.7122 17.079 27.4874C17.0354 27.4603 17.0128 27.4565 17.0097 27.4561C17.0084 27.456 17.0068 27.456 17.0058 27.4561C17.0036 27.4563 16.9979 27.4568 16.9892 27.46C16.7703 27.5397 16.5509 27.6284 16.331 27.7247C16.0517 27.8469 15.7658 27.9363 15.4755 27.9893C15.1303 28.0523 14.7844 28.0309 14.4481 27.9297C14.3055 27.8869 14.1703 27.8758 14.038 27.8926C13.7551 27.9286 13.4709 27.9345 13.1874 27.9092C12.937 27.8869 12.6863 27.8546 12.4364 27.8135C12.2839 27.7885 12.1319 27.7898 11.9784 27.8184C11.7538 27.8604 11.5284 27.9074 11.3036 27.9581C10.9484 28.038 10.5906 28.0217 10.2431 27.9141C10.1019 27.8705 9.96872 27.8595 9.83877 27.876C9.59335 27.9073 9.34708 27.9322 9.10146 27.9502C8.70415 27.9793 8.34258 27.8534 8.03115 27.6446C7.84143 27.7936 7.61481 27.9119 7.36318 27.9542C7.33596 28.0757 7.30021 28.1963 7.25381 28.3145C7.23765 28.3556 7.23796 28.3763 7.23818 28.3809C7.23836 28.3841 7.23894 28.3957 7.25185 28.419C7.41746 28.7159 7.52286 29.0344 7.55849 29.3692C7.57492 29.5234 7.61748 29.6717 7.68642 29.8155C7.81305 30.0794 7.90762 30.3545 7.96865 30.6387C8.02391 30.8963 8.04517 31.1621 8.03994 31.4336C8.29757 31.5345 8.57699 31.7204 8.72646 32.0499C8.85192 32.3271 8.8366 32.6063 8.77529 32.8428C9.04712 32.9867 9.29054 33.1711 9.48037 33.4102C9.6794 33.6612 9.82746 33.945 9.92568 34.253C9.99205 34.4612 10.0689 34.666 10.1561 34.8663C10.1853 34.9332 10.229 34.9834 10.3153 35.0274C10.7192 35.2324 10.9618 35.5796 11.0644 35.9844C11.5099 36.0133 11.9536 36.1958 12.2186 36.6456C12.3286 36.8323 12.4392 37.0243 12.5507 37.2198C12.8298 37.1772 13.1653 37.207 13.456 37.4249C13.7122 37.6173 13.8355 37.8878 13.8964 38.1338C14.2129 38.145 14.5211 38.2202 14.8026 38.376C15.0029 38.4869 15.2055 38.5962 15.4091 38.7042C15.5483 38.778 15.6966 38.8285 15.8563 38.8545C16.0188 38.8809 16.1926 38.8833 16.3788 38.8585C16.7211 38.8128 17.0613 38.8358 17.3876 38.9415C17.792 39.0726 18.1052 39.3587 18.3456 39.6905L18.3466 39.6915C18.5617 39.6355 18.7736 39.5805 18.9813 39.5254C19.0117 39.5174 19.0435 39.5119 19.0741 39.5049C19.0424 39.2489 19.098 39.0029 19.2128 38.7872C19.233 38.749 19.2342 38.7314 19.2343 38.7295C19.2344 38.7273 19.2341 38.7163 19.2235 38.6915C19.0798 38.355 19.0213 37.9982 19.0644 37.6338C19.0833 37.4727 19.0771 37.311 19.0458 37.1475C18.9815 36.8112 18.9932 36.4726 19.079 36.1407C19.1073 36.031 19.1062 35.9265 19.0731 35.8135C18.9662 35.4482 18.9692 35.0737 19.081 34.71C19.1365 34.5291 19.1682 34.3523 19.1776 34.1788C19.1965 33.831 19.3136 33.5077 19.495 33.2149C19.2579 32.9221 19.0836 32.5856 19.0341 32.2071C18.9819 31.8073 19.0716 31.4248 19.2616 31.0792C19.3525 30.9139 19.3987 30.7654 19.4149 30.6319C19.4167 30.6174 19.423 30.56 19.33 30.4356C19.0299 30.0341 18.9219 29.5338 19.1444 29.0323L19.1708 28.961C19.1895 28.894 19.1872 28.8378 19.1737 28.7833C19.044 28.2552 19.2612 27.7988 19.5722 27.4629C19.5707 27.4601 19.569 27.4562 19.5673 27.4532C19.5221 27.3761 19.4855 27.3344 19.4647 27.3135ZM24.9296 25.6612C24.9125 25.6449 24.8966 25.6312 24.8837 25.6211C24.8726 25.6125 24.8622 25.6046 24.8534 25.5987C24.887 25.6232 24.9131 25.6454 24.9296 25.6612ZM18.9257 7.33404C19.3026 7.07069 19.7512 6.97144 20.2138 7.10845C20.304 7.13522 20.3679 7.15245 20.4091 7.16216C20.5789 7.15976 20.709 7.21778 20.7528 7.23931C20.8476 7.28604 20.9179 7.34506 20.955 7.37798C21.0351 7.44917 21.1121 7.53739 21.1776 7.61822C21.4142 7.91008 21.5108 8.25992 21.5204 8.60845C21.5283 8.89867 21.5008 9.18813 21.4394 9.47466C21.3972 9.6711 21.3723 9.86661 21.3632 10.0606C21.3521 10.2952 21.3395 10.5301 21.327 10.7647C21.3123 11.0411 21.264 11.3149 21.1854 11.585C21.1949 11.5991 21.2109 11.6206 21.2362 11.6475C21.5169 11.9451 21.7356 12.2957 21.8104 12.7002C21.8977 13.1731 21.7048 13.5675 21.4403 13.8672C21.7144 14.1612 21.9244 14.5523 21.8544 15.0294C21.8263 15.2202 21.8157 15.4111 21.8231 15.6006C21.8417 16.0777 21.6146 16.4749 21.3202 16.7833C21.5151 17.167 21.5434 17.5961 21.3563 18.0137C21.2726 18.2005 21.2154 18.3816 21.1825 18.5567C21.1623 18.6645 21.1693 18.7742 21.2118 18.8965C21.3042 19.1614 21.3762 19.4293 21.4267 19.6983C21.4612 19.8824 21.5173 20.0716 21.5956 20.2637C21.7557 20.6566 21.7649 21.0712 21.6171 21.4708C21.542 21.6736 21.4836 21.8745 21.4413 22.0733C21.3901 22.314 21.3401 22.5222 21.2929 22.6944C21.2244 22.9441 21.0688 23.1496 20.8524 23.2842C20.6544 23.4073 20.4388 23.4515 20.2558 23.4649C19.9033 23.4905 19.5589 23.427 19.2323 23.2891C19.2273 23.287 19.2228 23.2859 19.2206 23.2852L19.2196 23.2842C19.2126 23.2864 19.1974 23.2935 19.1728 23.3086C18.9688 23.4345 18.7311 23.5188 18.4696 23.5245C18.2076 23.53 17.9665 23.4553 17.7567 23.335C17.7248 23.3168 17.7082 23.3138 17.706 23.3135H17.705C17.7023 23.3141 17.695 23.3163 17.6835 23.3213C17.4499 23.4228 17.2159 23.5241 16.9823 23.6251C16.5603 23.8073 16.116 23.7957 15.704 23.5997C15.532 23.5178 15.3703 23.4711 15.2186 23.4522C15.1586 23.4449 15.0771 23.4523 14.956 23.5225C14.604 23.7264 14.2085 23.8204 13.7938 23.754C13.4866 23.7046 13.1873 23.6065 12.8983 23.4659C12.7091 23.3738 12.5256 23.3092 12.3485 23.2686C12.276 23.2521 12.1985 23.2555 12.0946 23.3028C11.8642 23.4076 11.6337 23.5146 11.4032 23.6231C11.1474 23.7434 10.8601 23.778 10.5722 23.7002C10.3001 23.6266 10.0796 23.4673 9.90713 23.293C9.8365 23.2217 9.78965 23.1936 9.77041 23.1846C9.63221 23.2023 9.48225 23.2472 9.32021 23.3292C9.06022 23.4606 8.79725 23.5721 8.53213 23.6631C7.93263 23.8689 7.42548 23.5773 7.09267 23.2159C7.00579 23.256 6.9219 23.2931 6.8417 23.3213C6.74119 23.3567 6.57717 23.4066 6.39834 23.4004C6.07931 23.3891 5.86202 23.1945 5.77724 23.1124C5.66549 23.0039 5.56457 22.8692 5.47451 22.7344C5.29316 22.463 5.14282 22.1813 5.02724 21.8897C4.87137 21.4961 4.8567 21.0792 5.00771 20.6758C5.1165 20.3854 5.26445 20.1097 5.44814 19.8497C5.56475 19.6846 5.64372 19.5287 5.69228 19.3819C5.74477 19.2231 5.77519 19.0584 5.7831 18.8868C5.8017 18.4838 5.95616 18.1233 6.21572 17.8233C6.23816 17.7974 6.24373 17.7812 6.24599 17.7735C6.2484 17.7652 6.25323 17.7449 6.24795 17.7042C6.2138 17.4421 6.18305 17.1748 6.15615 16.9034C6.11633 16.5008 6.19348 16.1059 6.41591 15.7569C6.56256 15.5268 6.7257 15.3078 6.9042 15.0997C7.02362 14.9604 7.12095 14.8128 7.19716 14.6563C7.28153 14.4831 7.35315 14.2961 7.41103 14.0948C7.53844 13.6517 7.83511 13.3235 8.23623 13.126C8.4541 13.0188 8.65383 12.9069 8.83584 12.7911C8.98878 12.6937 9.1155 12.5847 9.21963 12.4659C9.23987 12.4428 9.29167 12.3667 9.30556 12.1622C9.32246 11.9134 9.39424 11.6433 9.57607 11.4112C9.76379 11.1715 10.0183 11.0366 10.2802 10.9776L10.3895 10.9463C10.4866 10.912 10.5509 10.8686 10.5956 10.8252C10.8465 10.5817 11.1487 10.4196 11.4833 10.3321C11.4864 10.3224 11.4926 10.3105 11.496 10.296C11.6058 9.81873 11.9 9.37101 12.4599 9.22076L12.7948 9.12603C12.9049 9.09341 13.0142 9.06028 13.121 9.02544C13.1447 9.01767 13.2 8.99461 13.2714 8.86529C13.4781 8.49057 13.7898 8.18876 14.2186 8.04888C14.4583 7.9708 14.7 7.89885 14.9423 7.83306C15.1185 7.7852 15.2885 7.71584 15.453 7.62505C15.8296 7.41722 16.2433 7.37447 16.6522 7.46392C16.7589 7.48731 16.8171 7.47105 16.8671 7.44244C17.1635 7.27221 17.4843 7.16719 17.8231 7.13384C18.2011 7.09677 18.5689 7.17351 18.913 7.33208C18.9159 7.33342 18.9193 7.33497 18.9218 7.33599C18.9229 7.33527 18.9245 7.33483 18.9257 7.33404ZM27.497 6.79888C27.9182 6.86058 28.2757 7.08812 28.5722 7.37603C28.7815 7.26835 28.9912 7.16546 29.2011 7.06841C29.4406 6.95767 29.7087 6.91636 29.9823 6.97076C30.2389 7.02193 30.4559 7.14961 30.6347 7.29986C30.8823 7.16991 31.1344 7.06352 31.3915 6.98541C31.7735 6.86943 32.1639 6.88347 32.537 7.02056C32.6468 7.06091 32.7411 7.065 32.8358 7.04302C33.1404 6.97195 33.4501 6.94923 33.7597 6.97759C33.9383 6.99396 34.1172 6.99027 34.2968 6.9649C34.4408 6.94449 34.5843 6.94089 34.7255 6.9522C34.7167 7.03347 34.7111 7.11306 34.7089 7.19048C34.7033 7.38288 34.718 7.57163 34.744 7.75494C34.1149 7.9484 33.5192 8.26154 32.9804 8.71099C32.7064 8.93957 32.4449 9.17622 32.1972 9.42095C32.0528 9.38948 31.91 9.33758 31.7733 9.26177C31.7674 9.25857 31.7615 9.25662 31.7577 9.25494C31.7544 9.25639 31.7499 9.25815 31.745 9.2608C31.3726 9.46161 30.9574 9.52955 30.5351 9.419C30.4327 9.39233 30.3341 9.39402 30.2255 9.42876C29.7672 9.57513 29.3421 9.45803 28.9979 9.21783C28.6562 9.50806 28.1997 9.68778 27.6864 9.51275C27.4033 9.41613 27.1259 9.28574 26.8554 9.12505C26.6911 9.02757 26.5462 8.9798 26.4198 8.96294C26.3928 8.95943 26.3309 8.95697 26.2108 9.04009C26.0399 9.15834 25.8574 9.2507 25.6659 9.31548C25.6887 9.59434 25.625 9.87438 25.4735 10.1358C25.3865 10.2861 25.354 10.411 25.3495 10.5147C25.3401 10.7366 25.3367 10.9589 25.3378 11.1807C25.3387 11.3536 25.3616 11.5295 25.4081 11.7081C25.5132 12.1114 25.4645 12.5125 25.2899 12.8829C25.2502 12.9672 25.2512 13.0213 25.2685 13.0772C25.3743 13.4177 25.3961 13.7682 25.328 14.1182C25.3243 14.1372 25.3163 14.1856 25.3895 14.295C25.6593 14.6974 25.7364 15.1747 25.537 15.6465C25.5411 15.6539 25.5467 15.6652 25.5556 15.6778C25.8248 16.0543 25.9455 16.5128 25.7958 16.9932C25.7518 17.1344 25.7403 17.2669 25.7567 17.3965C25.8102 17.8178 25.6964 18.212 25.4784 18.5577C25.396 18.6883 25.3836 18.7771 25.3876 18.837C25.4052 19.0935 25.4105 19.3508 25.4022 19.6075C25.3974 19.7592 25.4184 19.915 25.4686 20.0772C25.5597 20.371 25.6084 20.6708 25.6132 20.9737C25.6133 20.9804 25.6122 20.9875 25.6122 20.9942C25.9522 20.8228 26.3225 20.7631 26.702 20.8262C26.9504 20.8677 27.2031 20.9305 27.4599 21.0088C27.7354 20.6756 28.1144 20.4391 28.5878 20.4239C28.7465 20.4188 28.8918 20.3877 29.0272 20.3331C29.3462 20.2043 29.6849 20.1705 30.0243 20.2061C30.1984 19.8701 30.4467 19.577 30.7929 19.3926C31.152 19.2016 31.5532 19.1584 31.9481 19.2012C31.9594 19.2024 31.9695 19.201 31.9774 19.2012C32.1244 18.9868 32.278 18.7838 32.4384 18.5928C32.6318 18.3625 32.8529 18.1621 33.0995 17.9932C33.1913 17.9304 33.2669 17.8462 33.327 17.7276C33.5334 17.3205 33.8815 17.0561 34.3026 16.9297C34.3201 16.8577 34.3426 16.7876 34.3671 16.7188C34.4886 16.8638 34.6087 17.0002 34.7284 17.1251C34.7354 17.1828 34.7436 17.259 34.746 17.3555C34.7523 17.6144 34.7738 17.9212 34.8407 18.2286C34.8739 18.381 34.948 18.6801 35.1288 19.0079C35.1 19.0573 35.07 19.1065 35.0419 19.1573C34.8487 19.5054 34.5606 19.7676 34.1952 19.9268C33.9322 20.0414 33.658 20.133 33.3739 20.2002C33.214 20.2382 33.0922 20.2971 32.997 20.3692C33.0125 20.3573 32.9452 20.399 32.8993 20.6534C32.8121 21.137 32.5423 21.6552 31.9306 21.8096C31.6793 21.873 31.4266 21.9295 31.1747 21.9786C30.9472 22.0229 30.7249 22.0719 30.5087 22.126C30.2425 22.1926 29.9698 22.2311 29.6923 22.2442C29.6814 22.2565 29.6641 22.2798 29.6425 22.3174C29.522 22.527 29.3514 22.7305 29.1103 22.8672C28.8589 23.0096 28.5831 23.0499 28.3163 23.0098C28.0562 22.9708 27.7995 22.9283 27.5478 22.8838C27.3647 22.8516 27.199 22.8475 27.0487 22.8663C26.9848 22.8743 26.8898 22.9063 26.7616 23.0157C26.3988 23.3253 25.9389 23.4642 25.4472 23.3282C25.2153 23.264 24.9864 23.2043 24.7626 23.1495C24.6006 23.1099 24.4204 23.092 24.2206 23.0997C24.0163 23.1074 23.6818 23.0785 23.4218 22.8194C23.1423 22.5406 23.1323 22.185 23.1659 21.961L23.203 21.751C23.2452 21.5424 23.3029 21.335 23.3759 21.1299C23.4013 21.0585 23.4015 20.9996 23.371 20.9219C23.2141 20.5235 23.2135 20.1053 23.371 19.7071C23.4725 19.4504 23.5896 19.195 23.7216 18.9415C23.7425 18.9011 23.7455 18.8795 23.746 18.8721C23.7464 18.8656 23.7462 18.8509 23.7353 18.8233C23.5989 18.48 23.5526 18.118 23.6122 17.752C23.616 17.7285 23.6218 17.6733 23.5438 17.5586C23.3936 17.3376 23.2944 17.0632 23.3202 16.7559C23.3396 16.5268 23.4242 16.327 23.536 16.1592C23.4013 16.005 23.2838 15.8196 23.2235 15.5997C23.1451 15.3129 23.1777 15.0259 23.2968 14.7696C23.3996 14.5481 23.4951 14.3271 23.5829 14.1065C23.6247 14.0013 23.6281 13.9148 23.6073 13.8292C23.5685 13.6691 23.4999 13.4982 23.3944 13.3165C23.2681 13.0985 23.1934 12.8441 23.2118 12.5684C23.2302 12.2959 23.3359 12.0568 23.4774 11.8585C23.5864 11.7058 23.6199 11.5916 23.6259 11.5118C23.6411 11.3097 23.6425 11.1072 23.6308 10.9053C23.6141 10.6193 23.6301 10.333 23.6776 10.0489C23.7126 9.83965 23.7362 9.63029 23.7489 9.42193C23.7534 9.34733 23.7373 9.24973 23.6601 9.11724C23.4667 8.78534 23.3396 8.36115 23.4911 7.919L23.5487 7.77642C23.7014 7.45701 23.9668 7.22918 24.246 7.06841C24.4626 6.94372 24.7143 6.87047 24.9872 6.88677C25.2572 6.90304 25.496 7.00407 25.6952 7.14263C25.8383 7.24224 25.9379 7.26384 26.0028 7.2647C26.0457 7.26518 26.1319 7.25234 26.2733 7.14556C26.6179 6.88545 27.0363 6.73169 27.497 6.79888ZM17.6825 9.27837C17.5237 9.31345 17.3693 9.37347 17.2186 9.46197C16.9302 9.63154 16.6187 9.74288 16.289 9.79009C16.2714 9.79259 16.2277 9.79816 16.1552 9.89849C15.9317 10.2075 15.6466 10.4598 15.2899 10.6065C14.9514 10.7457 14.5939 10.7521 14.2499 10.6856C14.1282 10.9957 13.9609 11.281 13.7196 11.504C13.4257 11.7755 13.0651 11.9219 12.6767 11.9659C12.4853 11.9875 12.2977 12.0212 12.1142 12.0635C12.0912 12.3309 11.9999 12.6349 11.7528 12.8702C11.5161 13.0954 11.2244 13.174 10.9628 13.1856C10.8389 13.5609 10.5968 13.8719 10.2343 14.0713C10.0323 14.1825 9.83411 14.3021 9.64052 14.4307C9.62962 14.438 9.62416 14.444 9.62197 14.4463C9.62024 14.4482 9.61899 14.4496 9.61806 14.4512C9.61678 14.4535 9.60671 14.4732 9.60244 14.5235C9.57917 14.8001 9.55341 15.0686 9.52529 15.3282C9.49086 15.646 9.41317 15.9492 9.28701 16.2315C9.11194 16.6231 8.79729 16.8965 8.43447 17.0801C8.24985 17.1735 8.13041 17.2753 8.05361 17.3741C8.00314 17.4391 7.97813 17.5074 7.97939 17.6065C7.9844 17.9795 7.89632 18.3362 7.70986 18.6602C7.6375 18.786 7.59626 18.9156 7.58193 19.0538C7.5718 19.1521 7.58668 19.2796 7.65908 19.4463C7.76896 19.6991 7.81006 19.9929 7.71963 20.293C7.63236 20.5824 7.44583 20.8 7.24697 20.959C7.17348 21.0178 7.14453 21.0587 7.13564 21.0743C7.131 21.0824 7.1329 21.082 7.13369 21.0772C7.13443 21.1802 7.16546 21.3299 7.26748 21.5352C7.29067 21.5818 7.3105 21.609 7.32216 21.6231C7.36053 21.6238 7.42114 21.6137 7.5165 21.5518C7.91964 21.2898 8.39471 21.2142 8.86513 21.4083C9.0564 21.4872 9.24393 21.5431 9.42666 21.5772C9.61295 21.612 9.79847 21.6273 9.98232 21.6231C10.0879 21.6206 10.2119 21.5904 10.3603 21.5088C10.7397 21.3 11.1656 21.2342 11.5956 21.3604C11.7828 21.4154 11.9678 21.4487 12.1493 21.462C12.3269 21.4749 12.5051 21.467 12.6845 21.4376C12.9618 21.392 13.2413 21.3731 13.5204 21.3819C13.59 21.384 13.6875 21.3665 13.8241 21.2803C14.1738 21.0596 14.5753 20.9472 15.0019 21.0108C15.2956 21.0547 15.5847 21.1374 15.8671 21.2549C15.8777 21.2594 15.8845 21.2613 15.8866 21.2618L15.8895 21.2608C15.8911 21.2604 15.894 21.26 15.8974 21.2588C15.9056 21.256 15.9206 21.2496 15.9413 21.2374C16.3257 21.0098 16.7658 20.9356 17.2108 21.0772C17.3997 21.1373 17.5857 21.1759 17.7685 21.1944C18.0454 21.2224 18.3211 21.2773 18.5936 21.3565C18.6821 21.3822 18.765 21.3805 18.8622 21.3458C19.0999 21.2606 19.3579 21.207 19.6298 21.1807C19.6242 21.0271 19.63 20.8727 19.6474 20.7188C19.6578 20.6257 19.6445 20.5207 19.5849 20.3926C19.4058 20.008 19.3762 19.5935 19.5145 19.1885C19.508 19.1776 19.4979 19.1609 19.4813 19.1407C19.1909 18.7859 19.0197 18.3333 19.1405 17.8331L19.1522 17.7608C19.1592 17.6887 19.1503 17.615 19.121 17.5333C18.9932 17.1759 18.9698 16.8031 19.0595 16.4327C19.1037 16.2497 19.1261 16.0691 19.1278 15.8907C19.1312 15.5427 19.217 15.2072 19.371 14.8917C19.3684 14.8864 19.3654 14.8783 19.3603 14.8702C19.2284 14.6606 19.1411 14.4129 19.1444 14.1387C19.1478 13.8651 19.2402 13.6201 19.3749 13.4141C19.477 13.2581 19.5167 13.1318 19.5263 13.0313C19.5428 12.857 19.5374 12.6816 19.5097 12.5059C19.4697 12.2526 19.4409 11.9981 19.4237 11.7442C19.4077 11.5074 19.3938 11.2701 19.3817 11.0333C19.3657 10.717 19.4054 10.4031 19.497 10.0967C19.5009 10.0834 19.4998 10.0783 19.4989 10.0733C19.4973 10.0647 19.4906 10.0351 19.4569 9.98443C19.3549 9.83074 19.2737 9.64867 19.245 9.44537C19.0811 9.54383 18.8909 9.61069 18.6757 9.61724C18.3658 9.62644 18.0958 9.51177 17.8827 9.36626C17.8024 9.31151 17.7472 9.29002 17.7177 9.28228C17.6929 9.27593 17.6836 9.27811 17.6825 9.27837ZM20.1854 7.20123C20.1644 7.20836 20.1414 7.21819 20.1171 7.22955C20.1437 7.21706 20.1703 7.20699 20.1962 7.1983C20.1928 7.19934 20.1889 7.20005 20.1854 7.20123ZM20.2509 7.18267C20.253 7.18215 20.2556 7.18213 20.2577 7.18169H20.2548C20.2536 7.18197 20.2521 7.1824 20.2509 7.18267Z" fill="#030302"/>
<path d="M39.624 8.15055L40.1458 7.61178L39.624 8.15055ZM40.2932 10.2991L39.569 10.4943V10.4943L40.2932 10.2991ZM41.4934 11.8345L42.0764 11.3626L41.4934 11.8345ZM42.2418 11.9472L42.5904 12.6112L42.2418 11.9472ZM43.0304 11.9218L42.6164 12.5472L43.0304 11.9218ZM43.7581 12.1053L43.8201 12.8528L43.7581 12.1053ZM44.4432 12.4348L43.8535 12.8981L44.4432 12.4348ZM44.9395 13.0092L44.4087 13.539L44.9395 13.0092ZM44.2197 13.9446L43.776 13.3399L44.2197 13.9446ZM43.429 13.9121L43.0562 14.5629L43.429 13.9121ZM42.0381 14.5007L42.203 13.769L42.0381 14.5007ZM41.2933 14.6255L41.7108 15.2485L41.2933 14.6255ZM40.5599 14.9656L40.3459 14.2468L40.5599 14.9656ZM40.4405 15.5609L41.0821 15.1725L40.4405 15.5609ZM40.5123 16.363L39.8854 15.9514L40.5123 16.363ZM40.1467 17.0377L40.8349 17.336L40.1467 17.0377ZM39.9266 17.7548L39.1896 17.6158L39.9266 17.7548ZM39.0075 18.9255L38.3342 18.595L39.0075 18.9255ZM38.6964 18.8283L38.0517 19.2115L38.6964 18.8283ZM38.6135 18.0621L39.3393 18.2512L38.6135 18.0621ZM37.8142 15.9577L38.5641 15.9514L37.8142 15.9577ZM37.5222 15.2886L37.0063 15.833L37.5222 15.2886ZM35.6119 14.2235L35.2683 13.5568L35.6119 14.2235ZM34.2873 13.4696L34.4287 12.7331L34.2873 13.4696ZM33.3908 13.5446L33.1889 12.8223L33.3908 13.5446ZM35.6943 11.8899L35.8291 12.6276L35.6943 11.8899ZM36.4368 11.7403L36.5983 12.4727L36.4368 11.7403ZM37.2446 11.4667L36.9437 10.7797L37.2446 11.4667ZM37.5336 10.8113L38.2471 10.5804L37.5336 10.8113ZM38.0214 11.7172L37.2937 11.5356L38.0214 11.7172ZM35.1894 12.5759L35.3192 11.8372L35.1894 12.5759ZM34.4378 12.9457L34.6077 12.2152L34.4378 12.9457ZM35.0715 13.3314L35.6101 12.8096L35.0715 13.3314ZM35.756 13.6577L35.792 12.9085L35.756 13.6577ZM38.3299 15.7866L37.7253 15.3429L38.3299 15.7866ZM38.2527 16.5681L37.6573 17.0242L38.2527 16.5681ZM38.8291 17.9811L38.0893 18.1045L38.8291 17.9811ZM39.0978 18.6191L39.6066 19.1701L39.0978 18.6191ZM39.2889 17.8931L38.5812 18.1416L39.2889 17.8931ZM39.5698 16.4192L38.8824 16.1193L39.5698 16.4192ZM40.0282 15.0263L40.5005 15.609L40.0282 15.0263ZM40.4117 14.3887L39.6689 14.2853L40.4117 14.3887ZM40.8261 13.9717L40.7265 13.2284L40.8261 13.9717ZM42.9248 13.1382L42.8732 13.8864L42.9248 13.1382ZM42.2539 12.7153L42.8581 12.271L42.2539 12.7153ZM41.5651 12.3682L41.4721 11.624L41.5651 12.3682ZM38.2124 9.11269L38.9499 9.24895L38.2124 9.11269ZM39.0718 7.10937L39.3917 7.78775C39.4067 7.78065 39.357 7.80824 39.2627 7.81301C39.1494 7.81875 38.9649 7.78874 38.8082 7.6393C38.6694 7.50695 38.6399 7.36262 38.6336 7.32123C38.6266 7.27607 38.6327 7.26255 38.6279 7.30077L39.3719 7.39546L40.1159 7.49016C40.1303 7.37677 40.1384 7.23762 40.1161 7.0928C40.0943 6.95177 40.0322 6.73377 39.8434 6.55374C39.6367 6.35662 39.3849 6.30491 39.1869 6.31493C39.0079 6.32399 38.8562 6.38184 38.752 6.43099L39.0718 7.10937ZM39.3719 7.39546L38.6279 7.30077C38.5616 7.82133 38.7139 8.3132 39.1022 8.68932L39.624 8.15055L40.1458 7.61178C40.1214 7.58822 40.1181 7.57634 40.1173 7.5741C40.1161 7.57027 40.1086 7.54695 40.1159 7.49016L39.3719 7.39546ZM39.624 8.15055L39.1022 8.68932C39.2636 8.8456 39.3842 9.00162 39.4717 9.15591L40.1241 8.78601L40.7765 8.41611C40.6106 8.12345 40.3978 7.85583 40.1458 7.61178L39.624 8.15055ZM40.1241 8.78601L39.4717 9.15591C39.5103 9.22408 39.53 9.30184 39.5126 9.4212L40.2548 9.52911L40.997 9.63702C41.0587 9.21254 40.9913 8.79489 40.7765 8.41611L40.1241 8.78601ZM40.2548 9.52911L39.5126 9.4212C39.4598 9.78426 39.4748 10.1448 39.569 10.4943L40.2932 10.2991L41.0173 10.1039C40.9814 9.97063 40.9707 9.8178 40.997 9.63702L40.2548 9.52911ZM40.2932 10.2991L39.569 10.4943C39.6354 10.7406 39.7028 10.96 39.7727 11.1207L40.4604 10.8214L41.1481 10.5221C41.1252 10.4693 41.0811 10.3406 41.0173 10.1039L40.2932 10.2991ZM40.4604 10.8214L39.7727 11.1207C39.8498 11.2978 39.9694 11.4363 40.0659 11.5331C40.1698 11.6374 40.2924 11.7379 40.4233 11.8344L40.8682 11.2306L41.313 10.6267C41.2186 10.5571 41.1605 10.5065 41.1285 10.4743C41.113 10.4588 41.1091 10.4531 41.112 10.457C41.1143 10.4599 41.1307 10.4819 41.1481 10.5221L40.4604 10.8214ZM40.8682 11.2306L40.4233 11.8344C40.5929 11.9594 40.7557 12.1152 40.9104 12.3063L41.4934 11.8345L42.0764 11.3626C41.8482 11.0807 41.5941 10.8339 41.313 10.6267L40.8682 11.2306ZM41.4934 11.8345L40.9104 12.3063C41.0984 12.5385 41.3657 12.7295 41.7124 12.7817C42.0446 12.8317 42.3475 12.7387 42.5904 12.6112L42.2418 11.9472L41.8931 11.2831C41.8286 11.317 41.8531 11.286 41.9358 11.2984C41.9773 11.3047 42.0149 11.3196 42.0439 11.3376C42.0709 11.3544 42.0804 11.3676 42.0764 11.3626L41.4934 11.8345ZM42.2418 11.9472L42.5904 12.6112C42.6746 12.567 42.7057 12.569 42.6936 12.5694C42.6863 12.5696 42.672 12.5688 42.6542 12.5638C42.6364 12.5587 42.6233 12.5518 42.6164 12.5472L43.0304 11.9218L43.4444 11.2964C42.9234 10.9515 42.3518 11.0423 41.8931 11.2831L42.2418 11.9472ZM43.0304 11.9218L42.6164 12.5472C42.9785 12.7869 43.3895 12.8885 43.8201 12.8528L43.7581 12.1053L43.6961 11.3579C43.5929 11.3665 43.5187 11.3456 43.4444 11.2964L43.0304 11.9218ZM43.7581 12.1053L43.8201 12.8528C43.8266 12.8522 43.8259 12.853 43.8202 12.852C43.8143 12.8509 43.8085 12.8489 43.8045 12.847C43.7956 12.8428 43.8144 12.8485 43.8535 12.8981L44.4432 12.4348L45.033 11.9715C44.7143 11.5658 44.2547 11.3116 43.6961 11.3579L43.7581 12.1053ZM44.4432 12.4348L43.8535 12.8981C44.0531 13.1522 44.2388 13.3689 44.4087 13.539L44.9395 13.0092L45.4702 12.4793C45.3583 12.3672 45.2133 12.201 45.033 11.9715L44.4432 12.4348ZM44.9395 13.0092L44.4087 13.539C44.3884 13.5187 44.3432 13.4672 44.3106 13.3801C44.2753 13.2859 44.2662 13.1799 44.2871 13.0783C44.3237 12.8996 44.4275 12.8391 44.3775 12.8791L44.8461 13.4647L45.3148 14.0502C45.4678 13.9277 45.6888 13.7099 45.7565 13.3794C45.837 12.9868 45.6613 12.6706 45.4702 12.4793L44.9395 13.0092ZM44.8461 13.4647L44.3775 12.8791C44.1827 13.035 43.9823 13.1886 43.776 13.3399L44.2197 13.9446L44.6633 14.5493C44.8861 14.3859 45.1033 14.2195 45.3148 14.0502L44.8461 13.4647ZM44.2197 13.9446L43.776 13.3399C43.7858 13.3327 43.8041 13.3219 43.8298 13.3141C43.8555 13.3062 43.8777 13.3046 43.8919 13.3052C43.9049 13.3057 43.9048 13.3078 43.889 13.3026C43.8729 13.2973 43.844 13.2855 43.8018 13.2613L43.429 13.9121L43.0562 14.5629C43.5178 14.8273 44.1231 14.9457 44.6633 14.5493L44.2197 13.9446ZM43.429 13.9121L43.8018 13.2613C43.5478 13.1158 43.1945 12.9975 42.8073 13.1087C42.4192 13.2202 42.1827 13.5088 42.0454 13.7681L42.7081 14.1192L43.3709 14.4702C43.4015 14.4124 43.3692 14.508 43.2214 14.5504C43.0744 14.5926 42.9975 14.5293 43.0562 14.5629L43.429 13.9121ZM42.7081 14.1192L42.0454 13.7681C42.0027 13.8486 41.9915 13.8303 42.0436 13.8006C42.0714 13.7848 42.1056 13.7728 42.1414 13.7682C42.1759 13.7638 42.1982 13.7679 42.203 13.769L42.0381 14.5007L41.8732 15.2323C42.173 15.2999 42.493 15.2708 42.7857 15.1042C43.0611 14.9474 43.2456 14.7068 43.3709 14.4702L42.7081 14.1192ZM42.0381 14.5007L42.203 13.769C41.7434 13.6654 41.2809 13.7309 40.8757 14.0024L41.2933 14.6255L41.7108 15.2485C41.7414 15.228 41.7754 15.2103 41.8732 15.2323L42.0381 14.5007ZM41.2933 14.6255L40.8757 14.0024C40.7252 14.1033 40.5503 14.1859 40.3459 14.2468L40.5599 14.9656L40.774 15.6844C41.1117 15.5838 41.4256 15.4396 41.7108 15.2485L41.2933 14.6255ZM40.5599 14.9656L40.3459 14.2468C40.0644 14.3306 39.6869 14.5518 39.5915 15.0274C39.5142 15.4123 39.6779 15.7495 39.7989 15.9493L40.4405 15.5609L41.0821 15.1725C41.0561 15.1295 41.055 15.118 41.0597 15.134C41.0644 15.1499 41.0826 15.2203 41.0621 15.3225C41.0392 15.4367 40.9784 15.5368 40.9011 15.6062C40.8336 15.6669 40.777 15.6835 40.774 15.6844L40.5599 14.9656ZM40.4405 15.5609L39.7989 15.9493C39.8265 15.9949 39.8414 16.0278 39.849 16.0485C39.8566 16.069 39.8557 16.0739 39.855 16.0655C39.8541 16.0558 39.854 16.0361 39.8603 16.0108C39.8666 15.9852 39.8766 15.9647 39.8854 15.9514L40.5123 16.363L41.1393 16.7746C41.5051 16.2174 41.3517 15.618 41.0821 15.1725L40.4405 15.5609ZM40.5123 16.363L39.8854 15.9514C39.7191 16.2046 39.5766 16.4673 39.4586 16.7394L40.1467 17.0377L40.8349 17.336C40.9174 17.1457 41.0185 16.9586 41.1393 16.7746L40.5123 16.363ZM40.1467 17.0377L39.4586 16.7394C39.3363 17.0216 39.2465 17.3141 39.1896 17.6158L39.9266 17.7548L40.6637 17.8937C40.6998 17.7018 40.7568 17.5162 40.8349 17.336L40.1467 17.0377ZM39.9266 17.7548L39.1896 17.6158C39.1846 17.6427 39.1658 17.7109 39.0313 17.8148L39.4895 18.4085L39.9477 19.0023C40.303 18.7281 40.5757 18.3605 40.6637 17.8937L39.9266 17.7548ZM39.4895 18.4085L39.0313 17.8148C38.7561 18.0271 38.4866 18.2845 38.3342 18.595L39.0075 18.9255L39.6807 19.256C39.6772 19.2632 39.687 19.2412 39.7338 19.191C39.7792 19.1423 39.8481 19.0791 39.9477 19.0023L39.4895 18.4085ZM39.0075 18.9255L38.3342 18.595C38.3418 18.5795 38.3922 18.4765 38.5216 18.3879C38.6876 18.2743 38.9017 18.2413 39.0961 18.302C39.2477 18.3493 39.3269 18.4347 39.3392 18.448C39.3588 18.4692 39.3585 18.4743 39.3412 18.4451L38.6964 18.8283L38.0517 19.2115C38.0998 19.2924 38.1616 19.3843 38.2399 19.4686C38.3109 19.5451 38.4454 19.6702 38.6488 19.7337C38.895 19.8106 39.1575 19.7703 39.3686 19.6259C39.543 19.5065 39.635 19.3492 39.6807 19.256L39.0075 18.9255ZM38.6964 18.8283L39.3412 18.4451C39.3301 18.4264 39.3048 18.3835 39.3393 18.2512L38.6135 18.0621L37.8878 17.8729C37.7708 18.3215 37.8009 18.7894 38.0517 19.2115L38.6964 18.8283ZM38.6135 18.0621L39.3393 18.2512C39.4124 17.9705 39.4107 17.6562 39.2686 17.3543C39.1308 17.0613 38.899 16.8615 38.6628 16.7273L38.2923 17.3794L37.9218 18.0315C37.9754 18.062 37.9422 18.0584 37.9113 17.9929C37.8963 17.961 37.889 17.9285 37.8874 17.9014C37.8858 17.876 37.8898 17.8651 37.8878 17.8729L38.6135 18.0621ZM38.2923 17.3794L38.6628 16.7273C38.5872 16.6844 38.569 16.6573 38.5715 16.6608C38.5732 16.6631 38.5776 16.6702 38.5815 16.6812C38.5853 16.6922 38.5864 16.7008 38.5865 16.7042L37.8375 16.7428L37.0885 16.7814C37.1188 17.3689 37.4804 17.7807 37.9218 18.0315L38.2923 17.3794ZM37.8375 16.7428L38.5865 16.7042C38.5737 16.4553 38.5662 16.2044 38.5641 15.9514L37.8142 15.9577L37.0642 15.9639C37.0665 16.2382 37.0746 16.5107 37.0885 16.7814L37.8375 16.7428ZM37.8142 15.9577L38.5641 15.9514C38.5602 15.4827 38.3775 15.0659 38.0381 14.7443L37.5222 15.2886L37.0063 15.833C37.0518 15.8762 37.0637 15.9053 37.0642 15.9639L37.8142 15.9577ZM37.5222 15.2886L38.0381 14.7443C37.7854 14.5048 37.4996 14.3138 37.1782 14.196L36.9201 14.9002L36.662 15.6044C36.7585 15.6397 36.8741 15.7077 37.0063 15.833L37.5222 15.2886ZM36.9201 14.9002L37.1782 14.196C37.1779 14.1959 37.174 14.1945 37.1661 14.1895C37.1581 14.1845 37.1454 14.1754 37.1285 14.1599C37.0938 14.128 37.0453 14.0727 36.988 13.9811L36.3523 14.3791L35.7166 14.7772C35.9372 15.1294 36.2414 15.4502 36.662 15.6044L36.9201 14.9002ZM36.3523 14.3791L36.988 13.9811C36.8256 13.7217 36.5672 13.4816 36.1943 13.4032C35.8411 13.3289 35.5171 13.4286 35.2683 13.5568L35.6119 14.2235L35.9555 14.8902C36.0307 14.8514 35.9921 14.8935 35.8858 14.8711C35.8314 14.8597 35.7848 14.8359 35.7512 14.8099C35.7205 14.7861 35.7114 14.7688 35.7166 14.7772L36.3523 14.3791ZM35.6119 14.2235L35.2683 13.5568C35.2006 13.5917 35.2684 13.5355 35.4047 13.5765C35.5502 13.6201 35.5859 13.7168 35.5637 13.6724L34.8928 14.0076L34.2218 14.3428C34.355 14.6094 34.5882 14.8975 34.9734 15.0131C35.3495 15.126 35.6992 15.0223 35.9555 14.8902L35.6119 14.2235ZM34.8928 14.0076L35.5637 13.6724C35.3457 13.2362 34.9848 12.8399 34.4287 12.7331L34.2873 13.4696L34.1459 14.2062C34.1399 14.2051 34.133 14.2028 34.1271 14.1998C34.1214 14.1969 34.1214 14.1958 34.1267 14.2006C34.1389 14.2114 34.1751 14.2493 34.2218 14.3428L34.8928 14.0076ZM34.2873 13.4696L34.4287 12.7331C34.0278 12.6561 33.6048 12.7061 33.1889 12.8223L33.3908 13.5446L33.5927 14.2669C33.8755 14.1879 34.0501 14.1878 34.1459 14.2062L34.2873 13.4696ZM33.3908 13.5446L33.1889 12.8223C33.161 12.8301 33.1986 12.8141 33.2765 12.8256C33.3718 12.8397 33.4942 12.8914 33.589 13.0022C33.6727 13.1 33.6877 13.1891 33.6897 13.2027C33.6917 13.2168 33.687 13.1972 33.696 13.1285L32.9522 13.032L32.2084 12.9355C32.1761 13.1844 32.1525 13.6304 32.4492 13.9773C32.8128 14.4023 33.3258 14.3415 33.5927 14.2669L33.3908 13.5446ZM32.9522 13.032L33.696 13.1285C33.7047 13.0612 33.7148 13.0355 33.7142 13.0371C33.7134 13.039 33.6924 13.0907 33.627 13.1473C33.5536 13.2108 33.4618 13.2477 33.3748 13.2562C33.299 13.2636 33.2575 13.2467 33.2662 13.2498L33.5171 12.543L33.768 11.8362C33.4581 11.7262 33.0153 11.6928 32.6453 12.0131C32.338 12.2791 32.2439 12.6618 32.2084 12.9355L32.9522 13.032ZM33.5171 12.543L33.2662 13.2498C33.7481 13.4208 34.2998 13.4268 34.7678 13.0647L34.3089 12.4715L33.85 11.8783C33.8522 11.8766 33.8588 11.8722 33.8688 11.8683C33.8787 11.8644 33.8859 11.8634 33.8873 11.8633C33.8888 11.8631 33.8533 11.8665 33.768 11.8362L33.5171 12.543ZM34.3089 12.4715L34.7678 13.0647C34.922 12.9454 35.0801 12.8562 35.2426 12.7931L34.971 12.094L34.6994 11.3949C34.3956 11.5129 34.1123 11.6754 33.85 11.8783L34.3089 12.4715ZM34.971 12.094L35.2426 12.7931C35.431 12.7199 35.6262 12.6647 35.8291 12.6276L35.6943 11.8899L35.5595 11.1521C35.2643 11.206 34.9773 11.2869 34.6994 11.3949L34.971 12.094ZM35.6943 11.8899L35.8291 12.6276C36.087 12.5805 36.3434 12.5288 36.5983 12.4727L36.4368 11.7403L36.2754 11.0078C36.0383 11.0601 35.7996 11.1082 35.5595 11.1521L35.6943 11.8899ZM36.4368 11.7403L36.5983 12.4727C36.9028 12.4055 37.2194 12.2965 37.5455 12.1537L37.2446 11.4667L36.9437 10.7797C36.6847 10.8932 36.4628 10.9665 36.2754 11.0078L36.4368 11.7403ZM37.2446 11.4667L37.5455 12.1537C37.8047 12.0402 38.076 11.8416 38.2225 11.5093C38.368 11.1792 38.3332 10.8465 38.2471 10.5804L37.5336 10.8113L36.82 11.0421C36.8338 11.0849 36.8008 11.0158 36.85 10.9042C36.9001 10.7904 36.9771 10.7651 36.9437 10.7797L37.2446 11.4667ZM37.5336 10.8113L38.2471 10.5804C38.2214 10.5008 38.2231 10.4623 38.2238 10.4548C38.2242 10.4513 38.2244 10.4524 38.2231 10.4559C38.2218 10.4595 38.2206 10.4609 38.2218 10.4592L37.6077 10.0286L36.9937 9.598C36.676 10.051 36.6675 10.5709 36.82 11.0421L37.5336 10.8113ZM37.6077 10.0286L38.2218 10.4592C38.4832 10.0864 38.5806 9.65693 38.5307 9.21284L37.7854 9.29657L37.0401 9.3803C37.052 9.48625 37.031 9.54481 36.9937 9.598L37.6077 10.0286ZM37.7854 9.29657L38.5307 9.21284C38.5296 9.20261 38.5307 9.2018 38.5297 9.20806C38.5293 9.21101 38.5285 9.21489 38.5272 9.21936C38.5259 9.22384 38.5242 9.22814 38.5225 9.23202C38.5187 9.24027 38.5159 9.24288 38.5185 9.23985C38.5214 9.2364 38.5309 9.22595 38.5518 9.2102L38.0999 8.61163L37.648 8.01305C37.2188 8.33708 36.9766 8.81478 37.0401 9.3803L37.7854 9.29657ZM38.0999 8.61163L38.5518 9.2102C38.9146 8.9363 39.1838 8.56234 39.2633 8.08825L38.5236 7.96426L37.7839 7.84027C37.7796 7.86612 37.7663 7.92374 37.648 8.01305L38.0999 8.61163ZM38.5236 7.96426L39.2633 8.08825C39.2824 7.97408 39.3002 7.88505 39.3162 7.8182C39.3241 7.78507 39.3309 7.76003 39.3364 7.74192C39.342 7.72323 39.3449 7.71628 39.3442 7.71799L38.6502 7.43371L37.9561 7.14944C37.8792 7.33718 37.8265 7.58649 37.7839 7.84027L38.5236 7.96426ZM38.6502 7.43371L39.3442 7.71799C39.3175 7.78314 39.2855 7.82514 39.2679 7.84543C39.2503 7.86585 39.2397 7.87319 39.2447 7.8693C39.2492 7.86585 39.2626 7.85618 39.2884 7.84118C39.3139 7.82637 39.3478 7.80844 39.3917 7.78775L39.0718 7.10937L38.752 6.43099C38.6051 6.50023 38.4583 6.58178 38.3302 6.68036C38.2104 6.77254 38.0487 6.92355 37.9561 7.14944L38.6502 7.43371ZM38.0214 11.7172L37.2937 11.5356C37.2884 11.5569 37.305 11.4757 37.407 11.4074C37.5048 11.3419 37.576 11.3591 37.5359 11.3545L37.4505 12.0997L37.3652 12.8448C37.6332 12.8755 37.9537 12.8467 38.2418 12.6536C38.5341 12.4578 38.682 12.1678 38.7491 11.8988L38.0214 11.7172ZM37.4505 12.0997L37.5359 11.3545C37.0612 11.3002 36.5932 11.4019 36.2032 11.716L36.6736 12.3001L37.144 12.8842C37.1735 12.8605 37.2235 12.8286 37.3652 12.8448L37.4505 12.0997ZM36.6736 12.3001L36.2032 11.716C36.0948 11.8033 35.9928 11.8438 35.8876 11.857L35.9814 12.6011L36.0752 13.3452C36.4735 13.295 36.833 13.1348 37.144 12.8842L36.6736 12.3001ZM35.9814 12.6011L35.8876 11.857C35.7176 11.8784 35.5293 11.8742 35.3192 11.8372L35.1894 12.5759L35.0596 13.3146C35.402 13.3748 35.7417 13.3873 36.0752 13.3452L35.9814 12.6011ZM35.1894 12.5759L35.3192 11.8372C34.8939 11.7625 34.4693 11.8157 34.0812 12.026L34.4386 12.6854L34.7959 13.3448C34.8563 13.312 34.9323 13.2922 35.0596 13.3146L35.1894 12.5759ZM34.4386 12.6854L34.0812 12.026C34.0013 12.0693 33.8968 12.1325 33.8022 12.2202C33.7303 12.287 33.5212 12.4977 33.5202 12.8394C33.519 13.2381 33.7892 13.4584 33.9162 13.5373C34.0472 13.6186 34.1823 13.6564 34.2679 13.6763L34.4378 12.9457L34.6077 12.2152C34.5814 12.2091 34.6326 12.2165 34.7077 12.2631C34.7789 12.3073 35.0212 12.4886 35.0202 12.8438C35.0193 13.1422 34.8383 13.3051 34.8225 13.3198C34.784 13.3555 34.7637 13.3622 34.7959 13.3448L34.4386 12.6854ZM34.4378 12.9457L34.2679 13.6763C34.3206 13.6885 34.41 13.7266 34.5328 13.8533L35.0715 13.3314L35.6101 12.8096C35.3355 12.5261 35.0025 12.3071 34.6077 12.2152L34.4378 12.9457ZM35.0715 13.3314L34.5328 13.8533C34.8487 14.1793 35.2509 14.3842 35.7199 14.4068L35.756 13.6577L35.792 12.9085C35.7457 12.9063 35.6916 12.8937 35.6101 12.8096L35.0715 13.3314ZM35.756 13.6577L35.7199 14.4068C36.0133 14.4209 36.3108 14.4143 36.6121 14.3874L36.5456 13.6404L36.4791 12.8933C36.2428 12.9144 36.0139 12.9192 35.792 12.9085L35.756 13.6577ZM36.5456 13.6404L36.6121 14.3874C36.7833 14.3722 36.9525 14.3895 37.1247 14.4418L37.3427 13.7241L37.5606 13.0065C37.2075 12.8993 36.8453 12.8607 36.4791 12.8933L36.5456 13.6404ZM37.3427 13.7241L37.1247 14.4418C37.2611 14.4832 37.4114 14.5663 37.5745 14.7187L38.0865 14.1707L38.5986 13.6227C38.2951 13.3392 37.9495 13.1246 37.5606 13.0065L37.3427 13.7241ZM38.0865 14.1707L37.5745 14.7187C37.7161 14.8511 37.7892 14.9806 37.824 15.1106L38.5485 14.9168L39.273 14.7229C39.1583 14.2941 38.9234 13.9262 38.5986 13.6227L38.0865 14.1707ZM38.5485 14.9168L37.824 15.1106C37.8273 15.1229 37.829 15.1355 37.8226 15.161C37.8148 15.1918 37.7918 15.2523 37.7253 15.3429L38.3299 15.7866L38.9346 16.2303C39.2476 15.8038 39.4228 15.2826 39.273 14.7229L38.5485 14.9168ZM38.3299 15.7866L37.7253 15.3429C37.5674 15.5581 37.4295 15.8245 37.3989 16.1335C37.3661 16.4656 37.4649 16.7731 37.6573 17.0242L38.2527 16.5681L38.848 16.112C38.8554 16.1216 38.8705 16.1449 38.8813 16.1812C38.8923 16.2184 38.8943 16.2537 38.8916 16.2812C38.8891 16.3066 38.8835 16.3158 38.8879 16.3059C38.8924 16.2955 38.9053 16.2703 38.9346 16.2303L38.3299 15.7866ZM38.2527 16.5681L37.6573 17.0242C37.7848 17.1906 37.8741 17.3536 37.9326 17.5133L38.6367 17.2549L39.3408 16.9966C39.2252 16.6816 39.0585 16.3867 38.848 16.112L38.2527 16.5681ZM38.6367 17.2549L37.9326 17.5133C38.0038 17.7073 38.0559 17.9042 38.0893 18.1045L38.8291 17.9811L39.5689 17.8577C39.52 17.5644 39.4438 17.2772 39.3408 16.9966L38.6367 17.2549ZM38.8291 17.9811L38.0893 18.1045C38.1186 18.2801 38.1114 18.3994 38.0941 18.4766L38.8259 18.6407L39.5577 18.8048C39.627 18.496 39.6219 18.1756 39.5689 17.8577L38.8291 17.9811ZM38.8259 18.6407L38.0941 18.4766C38.0793 18.5425 38.0393 18.7272 38.0918 18.9331C38.1226 19.0539 38.1994 19.2351 38.3839 19.3734C38.5735 19.5156 38.7786 19.5389 38.9208 19.5277C39.1528 19.5093 39.3235 19.3932 39.3766 19.3571C39.4591 19.3009 39.5374 19.234 39.6066 19.1701L39.0978 18.6191L38.589 18.0681C38.5459 18.1079 38.5287 18.1197 38.5325 18.1171C38.5347 18.1156 38.5541 18.1023 38.5876 18.0869C38.6161 18.0737 38.6926 18.041 38.8021 18.0324C38.9217 18.0229 39.1082 18.0418 39.2836 18.1732C39.4538 18.3008 39.5205 18.4651 39.5453 18.5626C39.5692 18.6563 39.566 18.7286 39.5642 18.755C39.5621 18.7863 39.5578 18.8047 39.5577 18.8048L38.8259 18.6407ZM39.0978 18.6191L39.6066 19.1701C39.8006 18.991 39.9638 18.76 40.0393 18.4729C40.1155 18.1834 40.086 17.8994 39.9965 17.6445L39.2889 17.8931L38.5812 18.1416C38.5857 18.1543 38.5839 18.154 38.5831 18.1424C38.5823 18.1299 38.5833 18.1117 38.5887 18.0912C38.594 18.071 38.6013 18.0576 38.6048 18.0522C38.6077 18.0475 38.6049 18.0534 38.589 18.0681L39.0978 18.6191ZM39.2889 17.8931L39.9965 17.6445C39.9485 17.508 39.9627 17.438 39.9795 17.3944L39.28 17.1239L38.5805 16.8535C38.4148 17.282 38.4348 17.7247 38.5812 18.1416L39.2889 17.8931ZM39.28 17.1239L39.9795 17.3944C40.067 17.1683 40.1595 16.9431 40.2573 16.719L39.5698 16.4192L38.8824 16.1193C38.7762 16.3627 38.6756 16.6075 38.5805 16.8535L39.28 17.1239ZM39.5698 16.4192L40.2573 16.719C40.4045 16.3815 40.4717 16.0244 40.459 15.6561L39.7094 15.682L38.9598 15.7079C38.9649 15.855 38.9391 15.9893 38.8824 16.1193L39.5698 16.4192ZM39.7094 15.682L40.459 15.6561C40.4586 15.6472 40.4595 15.6445 40.4591 15.6463C40.4587 15.6483 40.4578 15.651 40.4569 15.6528C40.4545 15.6578 40.4603 15.6415 40.5005 15.609L40.0282 15.0263L39.556 14.4437C39.174 14.7533 38.9419 15.188 38.9598 15.7079L39.7094 15.682ZM40.0282 15.0263L40.5005 15.609C40.8458 15.329 41.0902 14.9542 41.1545 14.4922L40.4117 14.3887L39.6689 14.2853C39.6648 14.3144 39.6535 14.3646 39.556 14.4437L40.0282 15.0263ZM40.4117 14.3887L41.1545 14.4922C41.1552 14.4871 41.1456 14.5558 41.0729 14.629C40.9992 14.7031 40.9274 14.7149 40.9257 14.7151L40.8261 13.9717L40.7265 13.2284C40.4828 13.261 40.2208 13.3585 40.009 13.5716C39.7981 13.7838 39.7024 14.0448 39.6689 14.2853L40.4117 14.3887ZM40.8261 13.9717L40.9257 14.7151C41.1466 14.6855 41.374 14.6647 41.6081 14.6527L41.5699 13.9037L41.5318 13.1547C41.2583 13.1686 40.9898 13.1931 40.7265 13.2284L40.8261 13.9717ZM41.5699 13.9037L41.6081 14.6527C41.9795 14.6338 42.3317 14.5306 42.6568 14.349L42.2911 13.6942L41.9254 13.0394C41.7966 13.1114 41.668 13.1478 41.5318 13.1547L41.5699 13.9037ZM42.2911 13.6942L42.6568 14.349C42.8423 14.2454 43.0299 14.1636 43.2199 14.1023L42.9896 13.3885L42.7593 12.6748C42.472 12.7675 42.1939 12.8895 41.9254 13.0394L42.2911 13.6942ZM42.9896 13.3885L43.2199 14.1023C43.3501 14.0603 43.4928 14.0451 43.6567 14.0643L43.7439 13.3194L43.831 12.5745C43.4666 12.5318 43.1065 12.5628 42.7593 12.6748L42.9896 13.3885ZM43.7439 13.3194L43.6567 14.0643C43.7257 14.0724 43.7954 14.0795 43.8537 14.0824C43.8754 14.0835 43.9333 14.0863 43.9987 14.08C44.0154 14.0784 44.1222 14.0699 44.2424 14.0158C44.2999 13.9899 44.4532 13.9135 44.5674 13.736C44.7126 13.5099 44.7135 13.2506 44.6321 13.0487C44.568 12.8895 44.4669 12.7959 44.4282 12.7621C44.3799 12.7199 44.3362 12.6926 44.3121 12.6785C44.2633 12.6498 44.2209 12.6321 44.202 12.6245C44.1597 12.6074 44.1194 12.5949 44.0943 12.5874C44.039 12.571 43.9708 12.5535 43.8976 12.5359L43.722 13.265L43.5464 13.9942C43.6126 14.0101 43.6497 14.0201 43.6659 14.025C43.6766 14.0281 43.6636 14.0248 43.6401 14.0153C43.6306 14.0114 43.5954 13.9972 43.5518 13.9715C43.5303 13.9589 43.4886 13.933 43.4419 13.8922C43.4046 13.8597 43.3045 13.7673 43.2408 13.6093C43.1599 13.4085 43.1608 13.1502 43.3054 12.9251C43.4189 12.7484 43.5711 12.6729 43.6269 12.6478C43.7439 12.5952 43.8452 12.5878 43.8543 12.5869C43.8848 12.584 43.9072 12.584 43.9141 12.584C43.919 12.584 43.9226 12.5841 43.9248 12.5842C43.9269 12.5842 43.9282 12.5843 43.9284 12.5843C43.9287 12.5843 43.9266 12.5842 43.9215 12.5838C43.9166 12.5834 43.9099 12.5829 43.9011 12.582C43.8835 12.5804 43.8604 12.5779 43.831 12.5745L43.7439 13.3194ZM43.722 13.265L43.8976 12.5359C43.5833 12.4602 43.2759 12.4106 42.9764 12.39L42.9248 13.1382L42.8732 13.8864C43.0791 13.9006 43.3032 13.9356 43.5464 13.9942L43.722 13.265ZM42.9248 13.1382L42.9764 12.39C42.9756 12.3899 42.9764 12.39 42.9773 12.3903C42.9781 12.3905 42.9749 12.3897 42.9674 12.3849C42.9516 12.375 42.9127 12.3453 42.8581 12.271L42.2539 12.7153L41.6497 13.1597C41.9334 13.5454 42.3392 13.8496 42.8732 13.8864L42.9248 13.1382ZM42.2539 12.7153L42.8581 12.271C42.5464 11.8472 42.0725 11.549 41.4721 11.624L41.5651 12.3682L41.6582 13.1124C41.6569 13.1126 41.6477 13.1135 41.6334 13.1111C41.6188 13.1086 41.6065 13.1041 41.5983 13.1C41.5826 13.092 41.6035 13.0969 41.6497 13.1597L42.2539 12.7153ZM41.5651 12.3682L41.4721 11.624C41.2305 11.6542 40.9788 11.6743 40.7169 11.6839L40.7444 12.4334L40.7718 13.1829C41.075 13.1718 41.3705 13.1484 41.6582 13.1124L41.5651 12.3682ZM40.7444 12.4334L40.7169 11.6839C40.6669 11.6857 40.6149 11.6786 40.5286 11.5908L39.9938 12.1167L39.4591 12.6426C39.8083 12.9977 40.2567 13.2018 40.7718 13.1829L40.7444 12.4334ZM39.9938 12.1167L40.5286 11.5908C40.4212 11.4817 40.3964 11.3993 40.3923 11.3284L39.6435 11.3712L38.8947 11.4139C38.9222 11.8941 39.1308 12.3088 39.4591 12.6426L39.9938 12.1167ZM39.6435 11.3712L40.3923 11.3284C40.3787 11.0909 40.3839 10.8637 40.4067 10.6461L39.6607 10.568L38.9148 10.4899C38.8832 10.7921 38.8768 11.1003 38.8947 11.4139L39.6435 11.3712ZM39.6607 10.568L40.4067 10.6461C40.4348 10.3776 40.4581 10.1098 40.4765 9.84286L39.7283 9.79112L38.9801 9.73937C38.9629 9.98855 38.9411 10.2387 38.9148 10.4899L39.6607 10.568ZM39.7283 9.79112L40.4765 9.84286C40.5058 9.41898 40.3988 9.01862 40.173 8.6623L39.5395 9.06373L38.9059 9.46516C38.9677 9.56257 38.9865 9.64714 38.9801 9.73937L39.7283 9.79112ZM39.5395 9.06373L40.173 8.6623C40.1178 8.57516 40.1028 8.50153 40.1123 8.41535L39.3668 8.33321L38.6213 8.25107C38.5735 8.68519 38.6736 9.09857 38.9059 9.46516L39.5395 9.06373ZM39.3668 8.33321L40.1123 8.41535C40.1459 8.11088 40.1475 7.80428 40.0825 7.5237L39.3519 7.69312L38.6213 7.86253C38.6334 7.91511 38.6451 8.03524 38.6213 8.25107L39.3668 8.33321ZM39.3519 7.69312L40.0825 7.5237C40.0731 7.48339 40.046 7.36374 39.9836 7.24908C39.9647 7.2144 39.9298 7.15568 39.8735 7.0938C39.8211 7.03618 39.7093 6.93044 39.5294 6.87613C39.3203 6.81301 39.1079 6.84614 38.9389 6.94133C38.7948 7.02247 38.7138 7.12973 38.6769 7.18519C38.605 7.29327 38.5765 7.39652 38.5678 7.42858C38.5547 7.47637 38.5466 7.52063 38.5413 7.55384C38.5305 7.62114 38.5234 7.69517 38.5181 7.76718L39.2661 7.82214L40.0141 7.8771C40.0181 7.82281 40.0215 7.79674 40.0225 7.79014C40.0231 7.7864 40.0212 7.80026 40.0146 7.82419C40.0124 7.8324 39.9907 7.91836 39.926 8.01568C39.8927 8.06576 39.8153 8.16929 39.675 8.24832C39.5097 8.34142 39.3011 8.37408 39.0959 8.31213C38.9199 8.259 38.812 8.15607 38.7637 8.10289C38.7115 8.04547 38.6806 7.99283 38.666 7.96587C38.6204 7.88211 38.6113 7.81955 38.6213 7.86253L39.3519 7.69312ZM39.2661 7.82214L38.5181 7.76718C38.5191 7.7539 38.5224 7.73951 38.5275 7.72666C38.5324 7.71428 38.5365 7.70977 38.5339 7.71307C38.5268 7.72224 38.4908 7.76247 38.3898 7.81964L38.7594 8.47223L39.129 9.12483C39.5613 8.87999 39.9698 8.47978 40.0141 7.8771L39.2661 7.82214ZM38.7594 8.47223L38.3898 7.81964C37.9698 8.05752 37.5766 8.42602 37.4749 8.97642L38.2124 9.11269L38.9499 9.24895C38.9459 9.27068 38.9373 9.27402 38.9535 9.25506C38.9736 9.23161 39.0234 9.18466 39.129 9.12483L38.7594 8.47223ZM38.2124 9.11269L37.4749 8.97642C37.4204 9.27113 37.3949 9.57098 37.3977 9.87517L38.1477 9.86832L38.8976 9.86148C38.8957 9.65049 38.9134 9.44658 38.9499 9.24895L38.2124 9.11269ZM38.1477 9.86832L37.3977 9.87517C37.4004 10.1734 37.4274 10.4746 37.4775 10.7783L38.2175 10.6561L38.9575 10.5339C38.9192 10.3024 38.8996 10.0784 38.8976 9.86148L38.1477 9.86832ZM38.2175 10.6561L37.4775 10.7783C37.4863 10.8315 37.4918 10.8743 37.4949 10.9079C37.4981 10.9422 37.4983 10.9618 37.4982 10.9697C37.498 10.9793 37.4973 10.9639 37.5043 10.9325C37.508 10.9158 37.5148 10.8907 37.527 10.86C37.5392 10.8293 37.5583 10.7894 37.5882 10.7457L38.2069 11.1696L38.8256 11.5936C38.9795 11.369 38.9953 11.1222 38.9978 11.0006C39.0009 10.8503 38.9833 10.6901 38.9575 10.5339L38.2175 10.6561ZM38.2069 11.1696L37.5882 10.7457C37.5006 10.8736 37.4458 11.0217 37.4118 11.122C37.3717 11.2402 37.3325 11.3802 37.2937 11.5356L38.0214 11.7172L38.7491 11.8988C38.7828 11.764 38.8107 11.6676 38.8325 11.6033C38.8433 11.5713 38.8503 11.554 38.8531 11.5477C38.8575 11.5377 38.8494 11.5588 38.8256 11.5936L38.2069 11.1696Z" fill="#030302"/>
</svg>
