<svg width="50" height="48" viewBox="0 0 50 48" fill="none" xmlns="http://www.w3.org/2000/svg">
<path d="M44.5028 23.3477L43.7548 23.2925L44.5028 23.3477ZM44.8464 22.6563L44.3209 22.1212L44.8464 22.6563ZM44.8787 17.4244L44.175 17.165L44.8787 17.4244ZM44.5769 16.7508L44.9263 16.0872L44.5769 16.7508ZM44.0847 16.1251L43.3372 16.1866L44.0847 16.1251ZM43.7621 15.4785L44.2655 14.9225L43.7621 15.4785ZM43.2874 14.0356L43.8153 13.5029L43.2874 14.0356ZM42.7284 13.5187L42.2388 14.0868L42.7284 13.5187ZM39.371 10.5636L40.0625 10.2731L39.371 10.5636ZM38.676 10.3375L38.3688 9.65329L38.676 10.3375ZM37.8662 10.3357L37.4166 10.9359L37.8662 10.3357ZM36.5042 9.7855L36.4313 10.5319L36.5042 9.7855ZM35.0624 9.29208L34.7493 8.61056L35.0624 9.29208ZM33.5259 9.30089L33.8813 8.6404V8.6404L33.5259 9.30089ZM32.803 9.47043L32.2278 8.98918L32.803 9.47043ZM27.6943 8.80374L27.3875 9.48814L27.6943 8.80374ZM26.8513 8.75454L26.6879 8.02256L26.8513 8.75454ZM26.0393 8.6957L25.6928 9.36083L26.0393 8.6957ZM25.5005 8.08552L26.1742 7.75603L25.5005 8.08552ZM24.1275 7.51905L24.3234 6.79508L24.1275 7.51905ZM20.4372 7.05594L20.2109 7.771L20.4372 7.05594ZM19.7057 7.12878L19.359 6.46371L19.7057 7.12878ZM18.1964 6.99271L17.9714 6.27724L18.1964 6.99271ZM16.7664 7.45578L17.1469 8.10213L16.7664 7.45578ZM16.0677 7.72122L15.928 6.98435L16.0677 7.72122ZM14.6207 8.09172L14.8725 8.79819L14.6207 8.09172ZM13.3872 8.93467L12.8962 8.36772L13.3872 8.93467ZM12.7876 9.36768L12.4051 8.72252L12.7876 9.36768ZM12.1501 9.73897L11.7776 9.08799L12.1501 9.73897ZM9.39525 12.2023L9.75819 12.8586L9.39525 12.2023ZM8.76986 12.6681L9.29846 13.2001L8.76986 12.6681ZM8.26307 13.2413L7.67013 12.7821L8.26307 13.2413ZM7.21606 15.2692L6.54848 14.9274L7.21606 15.2692ZM6.82326 15.9392L6.19812 15.5248L6.82326 15.9392ZM6.74447 16.7067L7.45883 16.4783L6.74447 16.7067ZM6.9258 17.5336L7.67159 17.4544L6.9258 17.5336ZM6.80287 18.2676L6.12588 17.9448L6.80287 18.2676ZM6.50336 19.7169L5.7535 19.7313L6.50336 19.7169ZM6.51402 20.4604L7.26398 20.4534L6.51402 20.4604ZM6.32002 21.9583L5.68782 22.3618L6.32002 21.9583ZM6.55975 22.6915L5.8101 22.7144L6.55975 22.6915ZM6.25607 23.2537L5.87392 22.6084L6.25607 23.2537ZM4.84557 23.8076L4.98468 24.5446L4.84557 23.8076ZM2.94853 25.1266L2.37413 24.6443L2.94853 25.1266ZM0.927236 29.2466L0.1813 29.3246L0.927236 29.2466ZM1.14038 33.7628L1.59071 33.163L1.14038 33.7628ZM1.56005 34.4302L2.3058 34.3505L1.56005 34.4302ZM2.71832 36.3191L1.97663 36.4304L2.71832 36.3191ZM3.38105 37.7343L2.68043 38.002L3.38105 37.7343ZM5.3442 38.9078L5.91784 38.4247L5.3442 38.9078ZM5.9227 39.4434L6.35856 38.833L5.9227 39.4434ZM6.62415 39.7506L6.77606 39.0162L6.62415 39.7506ZM7.40968 39.7753L7.50968 40.5186L7.40968 39.7753ZM9.66246 40.0029L10.1783 39.4585L9.66246 40.0029ZM11.1562 39.7472L10.9725 40.4743L11.1562 39.7472ZM11.9062 39.8293L11.9316 40.5789L11.9062 39.8293ZM17.1562 40.0559L16.6279 40.5882L17.1562 40.0559ZM17.9062 40.3887L17.9847 41.1346L17.9062 40.3887ZM18.6562 39.9616L19.1953 40.483L18.6562 39.9616ZM20.9062 40.2057L21.2516 39.54L20.9062 40.2057ZM22.4062 40.0825L22.3286 40.8285L22.4062 40.0825ZM23.1562 40.0869L23.2252 40.8337L23.1562 40.0869ZM24.6562 40.0524L24.4287 40.767L24.6562 40.0524ZM26.9062 40.1857L26.503 39.5534L26.9062 40.1857ZM31.4062 39.6567L31.4106 40.4067L31.4062 39.6567ZM32.1562 39.8555L32.5106 39.1945L32.1562 39.8555ZM33.6562 39.9386L33.9725 39.2585L33.6562 39.9386ZM35.1562 39.941L35.1568 39.191L35.1562 39.941ZM41.1511 39.8071L40.7614 40.4479L41.1511 39.8071ZM41.864 39.7306L41.3297 39.2042L41.864 39.7306ZM44.0527 39.1437L43.8468 39.8649L44.0527 39.1437ZM44.8657 39.0642L44.4461 38.4425L44.8657 39.0642ZM47.0631 36.9108L46.3375 36.721L47.0631 36.9108ZM47.3712 36.1877L48.0035 36.5911L47.3712 36.1877ZM47.6113 35.4722L46.8648 35.4001L47.6113 35.4722ZM48.9539 32.0023L48.2193 31.8511L48.9539 32.0023ZM49.1509 30.4727L49.8857 30.3224L49.1509 30.4727ZM48.7121 28.9945L49.3579 28.6131L48.7121 28.9945ZM47.7375 27.7747L48.3776 27.3838L47.7375 27.7747ZM47.4755 27.0894L46.7394 27.2331L47.4755 27.0894ZM47.0975 26.4822L46.6448 27.0802L47.0975 26.4822ZM45.7506 24.7181L46.4498 24.4469L45.7506 24.7181ZM45.1794 24.2707L45.2735 23.5266L45.1794 24.2707ZM44.5947 24.0145L44.0144 24.4896L44.5947 24.0145ZM39.035 38.5799L38.9313 39.3227L39.035 38.5799ZM38.285 38.4673L38.166 39.2078L38.285 38.4673ZM37.535 38.7863L38.0683 39.3136L37.535 38.7863ZM35.285 38.5365L35.4721 39.2628L35.285 38.5365ZM33.785 38.8215L33.3766 38.1925L33.785 38.8215ZM33.035 39.0221L32.9498 39.7673L33.035 39.0221ZM32.285 38.7627L31.9099 39.4122L32.285 38.7627ZM31.535 38.5031L31.4495 39.2482L31.535 38.5031ZM30.035 38.5993L29.947 37.8544L30.035 38.5993ZM25.535 39.009L25.7097 39.7383L25.535 39.009ZM24.035 39.0563L24.2536 38.3389L24.035 39.0563ZM23.285 38.8465L23.4703 38.1197L23.285 38.8465ZM21.035 38.4754L20.9707 39.2227L21.035 38.4754ZM20.285 38.6858L20.6925 39.3155L20.285 38.6858ZM17.285 38.7026L17.3257 39.4515L17.285 38.7026ZM16.535 38.6442L16.6893 37.9102L16.535 38.6442ZM14.285 38.8814L14.0915 39.606L14.285 38.8814ZM13.535 38.7145L13.6665 37.9761L13.535 38.7145ZM11.285 38.8291L11.7189 38.2173L11.285 38.8291ZM9.02013 38.8109L8.6426 38.1629L9.02013 38.8109ZM5.50646 37.593L5.47598 38.3424L5.50646 37.593ZM4.87189 37.2171L4.2161 37.581L4.87189 37.2171ZM4.54261 36.4747L5.25275 36.2335L4.54261 36.4747ZM3.954 35.9952L3.80112 36.7294L3.954 35.9952ZM3.34126 35.5476L2.65455 35.8492L3.34126 35.5476ZM3.08995 34.8268L2.36447 35.017L3.08995 34.8268ZM2.8496 34.1218L2.15991 34.4165L2.8496 34.1218ZM2.62176 33.4299L1.89192 33.6026L2.62176 33.4299ZM2.4862 31.2736L3.23399 31.216L2.4862 31.2736ZM2.42439 29.0416L3.11796 28.7562L2.42439 29.0416ZM2.93021 27.637L3.56358 28.0387L2.93021 27.637ZM3.92825 26.4979L4.60516 26.8209L3.92825 26.4979ZM6.04987 24.302L5.57471 23.7218L6.04987 24.302ZM7.72976 22.7715L7.08372 23.1525L7.72976 22.7715ZM7.43895 22.0518L6.70827 22.2209L7.43895 22.0518ZM7.64572 18.2881L8.15977 18.8342L7.64572 18.2881ZM7.83689 17.5404L8.54487 17.2929L7.83689 17.5404ZM8.04291 16.8298L7.57529 16.2434L8.04291 16.8298ZM8.27162 16.0925L8.99402 15.8909L8.27162 16.0925ZM9.5433 14.2281L10.2837 14.3475L9.5433 14.2281ZM9.79568 13.511L10.4436 13.8887L9.79568 13.511ZM10.9748 11.5343L11.5402 12.0271L10.9748 11.5343ZM12.5442 11.0434L11.9819 10.5471V10.5471L12.5442 11.0434ZM13.1094 10.5849L13.478 11.2381L13.1094 10.5849ZM14.2368 9.59971L14.0136 8.88369L14.2368 9.59971ZM14.8829 9.20406L15.4124 9.73523L14.8829 9.20406ZM16.2902 8.68925L16.7504 9.28148L16.2902 8.68925ZM17.0112 8.52593L16.8636 9.26128V9.26128L17.0112 8.52593ZM18.5 8.3395L18.9394 8.94732L18.5 8.3395ZM19.2228 8.21858L18.988 8.93089L19.2228 8.21858ZM20.7116 8.06742L20.2432 8.65324L20.7116 8.06742ZM25.073 9.09949L24.467 9.54145L25.073 9.09949ZM26.3238 9.93321L26.8445 9.39342L26.3238 9.93321ZM28.4488 10.8505L28.7013 10.1442L28.4488 10.8505ZM28.8739 11.5023L28.1259 11.5581L28.8739 11.5023ZM31.3375 10.9171L30.884 10.3198L31.3375 10.9171ZM32.8661 10.7194L32.2393 10.3076L32.8661 10.7194ZM35.8269 10.86L35.8114 10.1102L35.8269 10.86ZM36.5548 10.9777L36.303 11.6842L36.5548 10.9777ZM37.3117 11.0715L37.2533 10.3238L37.3117 11.0715ZM38.7121 11.5777L38.0254 11.8793L38.7121 11.5777ZM39.2252 12.2115L38.8461 12.8586L39.2252 12.2115ZM39.7671 12.7024L40.3704 12.2568L39.7671 12.7024ZM42.6113 15.0998L42.0655 15.6141L42.6113 15.0998ZM43.0777 15.7113L43.7184 15.3214L43.0777 15.7113ZM43.3476 17.9949L44.0659 17.7791L43.3476 17.9949ZM44.1188 20.1576L43.4599 20.5159L44.1188 20.1576ZM44.1904 20.9187L44.8948 21.1761L44.1904 20.9187ZM43.6876 22.3989L44.3599 22.0664L43.6876 22.3989ZM43.2842 23.8374L44.0162 24.0006L43.2842 23.8374ZM43.3736 24.3996L42.8124 24.8972L43.3736 24.3996ZM44.6361 25.0097L44.7196 24.2644L44.6361 25.0097ZM45.7552 26.0632L45.6243 26.8017L45.7552 26.0632ZM46.8776 27.9914L46.1731 27.7344L46.8776 27.9914ZM46.8597 28.8164L47.5237 28.4676L46.8597 28.8164ZM47.4477 30.1491L46.6987 30.1096L47.4477 30.1491ZM47.5463 32.3555L48.2195 32.686L47.5463 32.3555ZM47.0655 33.7491L46.5322 33.2218L47.0655 33.7491ZM46.9245 34.5169L46.2054 34.7299L46.9245 34.5169ZM46.6066 35.1578L46.3608 34.4492L46.6066 35.1578ZM46.0495 35.7035L46.777 35.8857L46.0495 35.7035ZM45.8204 36.4883L45.1086 36.2519L45.8204 36.4883ZM44.6131 37.4269L43.8875 37.237L44.6131 37.4269ZM43.345 38.1896L43.5492 37.468L43.345 38.1896ZM42.5463 38.2535L42.1502 37.6166L42.5463 38.2535ZM40.4739 38.7803L40.0363 39.3894L40.4739 38.7803ZM22.6065 26.2865L22.0959 26.8359L22.6065 26.2865ZM22.3544 25.4779L23.1038 25.5088L22.3544 25.4779ZM21.8725 24.8992L21.9106 24.1502L21.8725 24.8992ZM19.4852 23.0439L20.0126 22.5107L19.4852 23.0439ZM19.0878 22.3806L19.8006 22.1473L19.0878 22.3806ZM18.3032 22.5188L17.7698 23.0461L18.3032 22.5188ZM18.8724 23.0103L18.4279 23.6144L18.8724 23.0103ZM19.9069 24.0971L20.2765 23.4444L19.9069 24.0971ZM20.3926 24.672L21.0928 24.4032L20.3926 24.672ZM21.7872 26.4594L22.4738 26.1575L21.7872 26.4594ZM22.3725 26.9348L22.1887 27.6619L22.3725 26.9348ZM22.9086 27.4594L23.6326 27.2639L22.9086 27.4594ZM23.4288 28.093L23.7801 27.4304L23.4288 28.093ZM24.4755 27.3571L24.916 27.9641L24.4755 27.3571ZM25.0296 26.8506L25.5953 27.343L25.0296 26.8506ZM25.6095 26.3699L25.2275 25.7245L25.6095 26.3699ZM26.2634 25.9632L25.8532 25.3353L26.2634 25.9632ZM28.2658 23.7229L28.6641 24.3584L28.2658 23.7229ZM31.9001 19.4041L32.4269 18.8703L31.9001 19.4041ZM31.0013 19.394L30.6821 18.7153V18.7153L31.0013 19.394ZM29.908 20.4221L30.2012 21.1124L29.908 20.4221ZM29.4497 21.0244L28.7134 20.8817L29.4497 21.0244ZM29.0989 21.7343L29.6302 22.2637L29.0989 21.7343ZM28.6321 22.3282L27.9934 21.9351L28.6321 22.3282ZM28.1044 22.8612L27.7054 22.2261L28.1044 22.8612ZM26.5449 24.4837L26.0645 23.9077L26.5449 24.4837ZM25.8088 24.8082L25.9462 25.5455L25.8088 24.8082ZM24.682 25.8026L23.952 25.6305L24.682 25.8026ZM44.5028 23.3477L45.2507 23.4029C45.2541 23.358 45.2701 23.2913 45.3718 23.1914L44.8464 22.6563L44.3209 22.1212C44.002 22.4343 43.789 22.8285 43.7548 23.2925L44.5028 23.3477ZM44.8464 22.6563L45.3718 23.1914C45.5577 23.0089 45.7095 22.7771 45.7764 22.4947C45.8436 22.2112 45.8113 21.9348 45.7231 21.6867L45.0165 21.9381L44.3099 22.1895C44.3147 22.2031 44.3134 22.2043 44.3126 22.1949C44.3118 22.1845 44.3122 22.1682 44.3168 22.149C44.3213 22.1299 44.3279 22.1165 44.3318 22.11C44.3353 22.1042 44.3339 22.1084 44.3209 22.1212L44.8464 22.6563ZM45.0165 21.9381L45.7231 21.6867C45.6411 21.4562 45.5896 21.2462 45.5638 21.0554L44.8206 21.1558L44.0774 21.2563C44.1189 21.5639 44.1981 21.8754 44.3099 22.1895L45.0165 21.9381ZM44.8206 21.1558L45.5638 21.0554C45.552 20.968 45.5634 20.8738 45.623 20.755L44.9529 20.4182L44.2828 20.0814C44.0987 20.4478 44.0218 20.8453 44.0774 21.2563L44.8206 21.1558ZM44.9529 20.4182L45.623 20.755C45.7948 20.4132 45.8857 20.0472 45.879 19.6652L45.1291 19.6785L44.3792 19.6918C44.3813 19.811 44.3548 19.9381 44.2828 20.0814L44.9529 20.4182ZM45.1291 19.6785L45.879 19.6652C45.8722 19.2819 45.7671 18.9189 45.5796 18.5845L44.9254 18.9514L44.2713 19.3182C44.3464 19.4522 44.3771 19.574 44.3792 19.6918L45.1291 19.6785ZM44.9254 18.9514L45.5796 18.5845C45.5045 18.4506 45.4754 18.3317 45.4741 18.2191L44.7242 18.2277L43.9742 18.2363C43.9786 18.6202 44.0837 18.9836 44.2713 19.3182L44.9254 18.9514ZM44.7242 18.2277L45.4741 18.2191C45.4725 18.0808 45.5011 17.9046 45.5825 17.6837L44.8787 17.4244L44.175 17.165C44.0446 17.5187 43.9701 17.8781 43.9742 18.2363L44.7242 18.2277ZM44.8787 17.4244L45.5825 17.6837C45.6857 17.4035 45.7161 17.0663 45.5671 16.7338C45.4249 16.4166 45.1687 16.2148 44.9263 16.0872L44.5769 16.7508L44.2274 17.4144C44.2922 17.4486 44.2398 17.4399 44.1983 17.3472C44.1773 17.3005 44.1691 17.2528 44.1695 17.2129C44.1699 17.176 44.1775 17.1584 44.175 17.165L44.8787 17.4244ZM44.5769 16.7508L44.9263 16.0872C44.8835 16.0647 44.8549 16.0453 44.8368 16.031C44.8188 16.0169 44.8127 16.0091 44.8129 16.0094C44.8136 16.0102 44.8188 16.0172 44.8239 16.03C44.8291 16.0431 44.8315 16.0552 44.8322 16.0637L44.0847 16.1251L43.3372 16.1866C43.3863 16.7842 43.7828 17.1803 44.2274 17.4144L44.5769 16.7508ZM44.0847 16.1251L44.8322 16.0637C44.7952 15.614 44.5974 15.223 44.2655 14.9225L43.7621 15.4785L43.2587 16.0345C43.3149 16.0853 43.3322 16.1255 43.3372 16.1866L44.0847 16.1251ZM43.7621 15.4785L44.2655 14.9225C44.2607 14.9182 44.2604 14.917 44.2619 14.9192C44.2635 14.9216 44.2643 14.9236 44.2643 14.9235C44.2641 14.9232 44.2621 14.9172 44.2607 14.9032C44.2593 14.889 44.2587 14.8661 44.2619 14.8331L43.5154 14.7603L42.769 14.6874C42.7206 15.1829 42.8584 15.672 43.2587 16.0345L43.7621 15.4785ZM43.5154 14.7603L44.2619 14.8331C44.3087 14.3532 44.1883 13.8725 43.8153 13.5029L43.2874 14.0356L42.7595 14.5684C42.7635 14.5723 42.7643 14.5739 42.7639 14.5733C42.7635 14.5726 42.7641 14.5732 42.7652 14.5769C42.7675 14.584 42.7759 14.6163 42.769 14.6874L43.5154 14.7603ZM43.2874 14.0356L43.8153 13.5029C43.6215 13.3109 43.4225 13.1267 43.2181 12.9506L42.7284 13.5187L42.2388 14.0868C42.4165 14.24 42.5901 14.4005 42.7595 14.5684L43.2874 14.0356ZM42.7284 13.5187L43.2181 12.9506C42.9801 12.7455 42.7185 12.571 42.4352 12.4268L42.0951 13.0953L41.7549 13.7637C41.934 13.8548 42.0947 13.9626 42.2388 14.0868L42.7284 13.5187ZM42.0951 13.0953L42.4352 12.4268C42.4472 12.4329 42.4636 12.4439 42.4797 12.4603C42.4956 12.4766 42.5043 12.4913 42.5079 12.4986C42.511 12.505 42.5078 12.5008 42.5038 12.4805C42.4997 12.4599 42.4954 12.4258 42.4951 12.3754L41.7451 12.3799L40.9951 12.3843C40.9982 12.9003 41.1798 13.471 41.7549 13.7637L42.0951 13.0953ZM41.7451 12.3799L42.4951 12.3754C42.4934 12.0899 42.4214 11.7098 42.1082 11.4308C41.7943 11.1512 41.4078 11.1241 41.1235 11.1565L41.2084 11.9017L41.2933 12.6469C41.3646 12.6388 41.2454 12.6711 41.1104 12.5509C40.9761 12.4312 40.9947 12.3105 40.9951 12.3843L41.7451 12.3799ZM41.2084 11.9017L41.1235 11.1565C41.0316 11.167 41.0294 11.1491 41.0714 11.168C41.0941 11.1782 41.1192 11.1948 41.1412 11.2171C41.1626 11.2388 41.1723 11.257 41.1749 11.2624L40.4959 11.5809L39.8168 11.8993C39.9461 12.1749 40.16 12.4027 40.4555 12.5357C40.735 12.6616 41.0295 12.6769 41.2933 12.6469L41.2084 11.9017ZM40.4959 11.5809L41.1749 11.2624C40.9683 10.8219 40.609 10.4983 40.1154 10.3789L39.9391 11.1078L39.7627 11.8368C39.774 11.8395 39.7791 11.842 39.7803 11.8426C39.7813 11.843 39.7813 11.8431 39.7816 11.8434C39.782 11.8437 39.7853 11.8465 39.791 11.8543C39.7969 11.8622 39.8061 11.8764 39.8168 11.8993L40.4959 11.5809ZM39.9391 11.1078L40.1154 10.3789C40.115 10.3787 40.1183 10.3796 40.123 10.3822C40.1276 10.3847 40.129 10.3864 40.127 10.3845C40.1224 10.3801 40.0957 10.3522 40.0625 10.2731L39.371 10.5636L38.6796 10.8541C38.8717 11.3114 39.219 11.7052 39.7627 11.8368L39.9391 11.1078ZM39.371 10.5636L40.0625 10.2731C39.9453 9.99414 39.7223 9.69371 39.3342 9.56744C38.9692 9.44869 38.6222 9.53949 38.3688 9.65329L38.676 10.3375L38.9833 11.0216C39.0664 10.9843 39.0035 11.0372 38.8701 10.9938C38.8014 10.9715 38.7477 10.9332 38.7126 10.8963C38.681 10.8631 38.6743 10.8415 38.6796 10.8541L39.371 10.5636ZM38.676 10.3375L38.3688 9.65329C38.3184 9.67593 38.2809 9.68813 38.2554 9.69445C38.2302 9.70073 38.2201 9.70036 38.2228 9.70036C38.2265 9.70037 38.2409 9.70106 38.2618 9.70779C38.2831 9.71468 38.3018 9.72493 38.3158 9.73538L37.8662 10.3357L37.4166 10.9359C37.9293 11.32 38.5228 11.2284 38.9833 11.0216L38.676 10.3375ZM37.8662 10.3357L38.3158 9.73538C38.0637 9.54657 37.7933 9.39147 37.5052 9.27178L37.2174 9.96439L36.9297 10.657C37.0998 10.7277 37.2619 10.8201 37.4166 10.9359L37.8662 10.3357ZM37.2174 9.96439L37.5052 9.27178C37.2077 9.14818 36.8975 9.07036 36.5771 9.03905L36.5042 9.7855L36.4313 10.5319C36.6036 10.5488 36.769 10.5902 36.9297 10.657L37.2174 9.96439ZM36.5042 9.7855L36.5771 9.03905C36.5332 9.03476 36.444 9.01195 36.3062 8.88307L35.794 9.43093L35.2818 9.9788C35.5981 10.2745 35.9825 10.4881 36.4313 10.5319L36.5042 9.7855ZM35.794 9.43093L36.3062 8.88307C36.115 8.70433 35.8734 8.55572 35.5807 8.50015C35.2828 8.44361 34.9985 8.49611 34.7493 8.61056L35.0624 9.29208L35.3755 9.9736C35.3836 9.96989 35.3789 9.97324 35.3628 9.97558C35.3458 9.97807 35.3239 9.9782 35.3009 9.97384C35.252 9.96455 35.2459 9.94524 35.2818 9.9788L35.794 9.43093ZM35.0624 9.29208L34.7493 8.61056C34.5604 8.69737 34.3966 8.73686 34.2541 8.74543L34.2991 9.49408L34.3441 10.2427C34.6982 10.2214 35.0433 10.1263 35.3755 9.9736L35.0624 9.29208ZM34.2991 9.49408L34.2541 8.74543C34.1725 8.75033 34.0527 8.73266 33.8813 8.6404L33.5259 9.30089L33.1706 9.96138C33.5334 10.1566 33.9291 10.2677 34.3441 10.2427L34.2991 9.49408ZM33.5259 9.30089L33.8813 8.6404C33.6245 8.50227 33.3101 8.42637 32.9736 8.5053C32.6477 8.58173 32.4031 8.77965 32.2278 8.98918L32.803 9.47043L33.3782 9.95168C33.4177 9.90446 33.401 9.94575 33.3161 9.96568C33.2745 9.97542 33.2349 9.9752 33.2036 9.96984C33.1745 9.96484 33.1629 9.95724 33.1706 9.96138L33.5259 9.30089ZM32.803 9.47043L32.2278 8.98918C32.1684 9.06016 32.131 9.08221 32.1225 9.08657C32.1188 9.08847 32.1203 9.08723 32.1261 9.08599C32.132 9.08472 32.1368 9.08463 32.1387 9.08474L32.0959 9.83351L32.053 10.5823C32.6151 10.6145 33.0617 10.3301 33.3782 9.95168L32.803 9.47043ZM32.0959 9.83351L32.1387 9.08474C31.8735 9.06956 31.604 9.05872 31.3302 9.0522L31.3124 9.80199L31.2946 10.5518C31.5522 10.5579 31.805 10.5681 32.053 10.5823L32.0959 9.83351ZM31.3124 9.80199L31.3302 9.0522C30.8433 9.04061 30.4143 9.22967 30.084 9.57505L30.6261 10.0934L31.1681 10.6118C31.2215 10.556 31.2501 10.5507 31.2946 10.5518L31.3124 9.80199ZM30.6261 10.0934L30.084 9.57505C29.9423 9.72324 29.802 9.82732 29.665 9.89819L30.0096 10.5644L30.3541 11.2305C30.6554 11.0747 30.9261 10.8648 31.1681 10.6118L30.6261 10.0934ZM30.0096 10.5644L29.665 9.89819C29.6804 9.89024 29.7326 9.86616 29.8147 9.8618C29.904 9.85705 29.9968 9.87762 30.0773 9.92158C30.2176 9.99818 30.231 10.0929 30.196 10.006L29.5003 10.2863L28.8047 10.5666C28.89 10.7784 29.0485 11.0689 29.3585 11.2381C29.7221 11.4367 30.0917 11.3663 30.3541 11.2305L30.0096 10.5644ZM29.5003 10.2863L30.196 10.006C30.0819 9.72287 29.8825 9.46215 29.5735 9.30259C29.2753 9.14862 28.9569 9.13123 28.675 9.17012L28.7775 9.91309L28.88 10.656C28.9597 10.6451 28.9425 10.6649 28.8853 10.6354C28.8569 10.6207 28.8333 10.601 28.8171 10.582C28.802 10.5644 28.8002 10.5556 28.8047 10.5666L29.5003 10.2863ZM28.7775 9.91309L28.675 9.17012C28.6025 9.18013 28.6707 9.15295 28.7728 9.22332C28.822 9.25719 28.8534 9.29727 28.8701 9.32706C28.8851 9.3536 28.8835 9.36296 28.8794 9.34029L28.1416 9.47506L27.4038 9.60984C27.4579 9.9062 27.6009 10.2375 27.922 10.4587C28.2361 10.675 28.591 10.6959 28.88 10.656L28.7775 9.91309ZM28.1416 9.47506L28.8794 9.34029C28.7894 8.84758 28.536 8.35913 28.0011 8.11935L27.6943 8.80374L27.3875 9.48814C27.3823 9.48578 27.3746 9.4813 27.3671 9.47487C27.3598 9.46858 27.3573 9.4645 27.3588 9.46666C27.3627 9.47263 27.3858 9.51121 27.4038 9.60984L28.1416 9.47506ZM27.6943 8.80374L28.0011 8.11935C27.5796 7.93042 27.1254 7.92487 26.6879 8.02256L26.8513 8.75454L27.0148 9.48651C27.2298 9.4385 27.3376 9.46575 27.3875 9.48814L27.6943 8.80374ZM26.8513 8.75454L26.6879 8.02256C26.4692 8.07139 26.3938 8.0347 26.3859 8.03057L26.0393 8.6957L25.6928 9.36083C26.115 9.58085 26.581 9.58338 27.0148 9.48651L26.8513 8.75454ZM26.0393 8.6957L26.3859 8.03057C26.3554 8.0147 26.2724 7.95683 26.1742 7.75603L25.5005 8.08552L24.8267 8.41501C25.0168 8.80363 25.293 9.15254 25.6928 9.36083L26.0393 8.6957ZM25.5005 8.08552L26.1742 7.75603C25.9425 7.2822 25.5243 6.90106 24.9117 6.88059L24.8867 7.63017L24.8616 8.37975C24.8588 8.37966 24.8475 8.37877 24.8314 8.37325C24.815 8.36765 24.8014 8.3599 24.7921 8.353C24.7743 8.33981 24.7927 8.34537 24.8267 8.41501L25.5005 8.08552ZM24.8867 7.63017L24.9117 6.88059C24.7008 6.87354 24.5053 6.8443 24.3234 6.79508L24.1275 7.51905L23.9316 8.24301C24.2317 8.32423 24.5423 8.36908 24.8616 8.37975L24.8867 7.63017ZM24.1275 7.51905L24.3234 6.79508C24.1154 6.73882 23.91 6.66799 23.707 6.58231L23.4154 7.27331L23.1238 7.9643C23.3881 8.07584 23.6574 8.16883 23.9316 8.24301L24.1275 7.51905ZM23.4154 7.27331L23.707 6.58231C23.4522 6.47479 23.1928 6.37905 22.9287 6.2951L22.7015 7.00984L22.4742 7.72458C22.6948 7.7947 22.9113 7.87461 23.1238 7.9643L23.4154 7.27331ZM22.7015 7.00984L22.9287 6.2951C22.6905 6.21934 22.4503 6.14077 22.2084 6.05938L21.9693 6.77024L21.7302 7.48111C21.9799 7.5651 22.2279 7.64625 22.4742 7.72458L22.7015 7.00984ZM21.9693 6.77024L22.2084 6.05938C21.6938 5.88631 21.1987 6.01275 20.789 6.28389L21.2029 6.90932L21.6169 7.53476C21.6832 7.49089 21.7193 7.48239 21.7272 7.48094C21.7311 7.48024 21.7312 7.48063 21.7289 7.48046C21.7266 7.4803 21.7266 7.47991 21.7302 7.48111L21.9693 6.77024ZM21.2029 6.90932L20.789 6.28389C20.7213 6.32872 20.6828 6.33879 20.6717 6.34091C20.6663 6.34194 20.6649 6.34163 20.6662 6.3417C20.6674 6.34177 20.6669 6.34199 20.6634 6.34087L20.4372 7.05594L20.2109 7.771C20.7225 7.93284 21.2116 7.80298 21.6169 7.53476L21.2029 6.90932ZM20.4372 7.05594L20.6634 6.34087C20.2155 6.19916 19.766 6.25156 19.359 6.46371L19.7057 7.12878L20.0523 7.79385C20.1297 7.75355 20.1679 7.75739 20.2109 7.771L20.4372 7.05594ZM19.7057 7.12878L19.359 6.46371C19.3496 6.46859 19.3471 6.46863 19.3507 6.46778C19.3546 6.46685 19.3603 6.46621 19.3658 6.46643C19.3711 6.46664 19.3712 6.46744 19.3646 6.46544C19.3576 6.4633 19.3425 6.45774 19.3188 6.44446L18.9513 7.09823L18.5837 7.752C19.0404 8.00872 19.5612 8.04987 20.0523 7.79385L19.7057 7.12878ZM18.9513 7.09823L19.3188 6.44446C18.9123 6.2159 18.4465 6.12787 17.9714 6.27724L18.1964 6.99271L18.4214 7.70817C18.4313 7.70506 18.4688 7.68737 18.5837 7.752L18.9513 7.09823ZM18.1964 6.99271L17.9714 6.27724C17.7522 6.34617 17.5329 6.4034 17.3133 6.44909L17.4662 7.18336L17.619 7.91762C17.8881 7.86161 18.1556 7.79174 18.4214 7.70817L18.1964 6.99271ZM17.4662 7.18336L17.3133 6.44909C16.9862 6.51718 16.6764 6.63852 16.386 6.80942L16.7664 7.45578L17.1469 8.10213C17.3008 8.01152 17.4574 7.95125 17.619 7.91762L17.4662 7.18336ZM16.7664 7.45578L16.386 6.80942C16.2353 6.89813 16.0834 6.95487 15.928 6.98435L16.0677 7.72122L16.2074 8.45809C16.5393 8.39516 16.8532 8.27494 17.1469 8.10213L16.7664 7.45578ZM16.0677 7.72122L15.928 6.98435C15.6723 7.03285 15.4171 7.08775 15.1625 7.14905L15.338 7.87822L15.5136 8.60738C15.7446 8.55176 15.9759 8.502 16.2074 8.45809L16.0677 7.72122ZM15.338 7.87822L15.1625 7.14905C14.8938 7.21372 14.6293 7.29247 14.369 7.38525L14.6207 8.09172L14.8725 8.79819C15.0829 8.72322 15.2965 8.65963 15.5136 8.60738L15.338 7.87822ZM14.6207 8.09172L14.369 7.38525C14.0555 7.49696 13.7666 7.65764 13.5045 7.86468L13.9694 8.45321L14.4343 9.04173C14.57 8.93454 14.7153 8.85423 14.8725 8.79819L14.6207 8.09172ZM13.9694 8.45321L13.5045 7.86468C13.2968 8.02871 13.0941 8.19638 12.8962 8.36772L13.3872 8.93467L13.8782 9.50162C14.0588 9.34524 14.2441 9.19194 14.4343 9.04173L13.9694 8.45321ZM13.3872 8.93467L12.8962 8.36772C12.7401 8.50298 12.5764 8.62099 12.4051 8.72252L12.7876 9.36768L13.17 10.0128C13.4199 9.86473 13.656 9.69406 13.8782 9.50162L13.3872 8.93467ZM12.7876 9.36768L12.4051 8.72252C12.1979 8.84536 11.9887 8.96718 11.7776 9.08799L12.1501 9.73897L12.5225 10.3899C12.7403 10.2653 12.9561 10.1396 13.17 10.0128L12.7876 9.36768ZM12.1501 9.73897L11.7776 9.08799C11.6749 9.14673 11.5257 9.19762 11.308 9.21758L11.3765 9.96445L11.4449 10.7113C11.8298 10.676 12.1963 10.5766 12.5225 10.3899L12.1501 9.73897ZM11.3765 9.96445L11.308 9.21758C10.8464 9.2599 10.4153 9.44526 10.1014 9.82276L10.678 10.3023L11.2547 10.7819C11.2695 10.7641 11.304 10.7242 11.4449 10.7113L11.3765 9.96445ZM10.678 10.3023L10.1014 9.82276C9.85355 10.1208 9.69116 10.4705 9.60085 10.8518L10.3307 11.0246L11.0605 11.1975C11.1047 11.0109 11.1739 10.8791 11.2547 10.7819L10.678 10.3023ZM10.3307 11.0246L9.60085 10.8518C9.55618 11.0404 9.48968 11.1597 9.42186 11.2381L9.98903 11.7288L10.5562 12.2195C10.8094 11.9269 10.9706 11.5768 11.0605 11.1975L10.3307 11.0246ZM9.98903 11.7288L9.42186 11.2381C9.32446 11.3506 9.1978 11.4544 9.03231 11.5459L9.39525 12.2023L9.75819 12.8586C10.0634 12.6898 10.3326 12.478 10.5562 12.2195L9.98903 11.7288ZM9.39525 12.2023L9.03231 11.5459C8.73934 11.7079 8.47448 11.9043 8.24126 12.136L8.76986 12.6681L9.29846 13.2001C9.42839 13.0711 9.58045 12.9569 9.75819 12.8586L9.39525 12.2023ZM8.76986 12.6681L8.24126 12.136C8.03675 12.3392 7.84632 12.5546 7.67013 12.7821L8.26307 13.2413L8.856 13.7006C8.99238 13.5245 9.13981 13.3578 9.29846 13.2001L8.76986 12.6681ZM8.26307 13.2413L7.67013 12.7821C7.50667 12.9931 7.34778 13.2085 7.19346 13.4281L7.80711 13.8593L8.42077 14.2905C8.56181 14.0897 8.70689 13.8931 8.856 13.7006L8.26307 13.2413ZM7.80711 13.8593L7.19346 13.4281C6.99341 13.7128 6.84927 14.0262 6.76182 14.3638L7.48787 14.5519L8.21391 14.7399C8.25676 14.5745 8.32545 14.4261 8.42077 14.2905L7.80711 13.8593ZM7.48787 14.5519L6.76182 14.3638C6.71018 14.5633 6.63895 14.7507 6.54848 14.9274L7.21606 15.2692L7.88364 15.611C8.02527 15.3344 8.13525 15.0436 8.21391 14.7399L7.48787 14.5519ZM7.21606 15.2692L6.54848 14.9274C6.44566 15.1282 6.329 15.3273 6.19812 15.5248L6.82326 15.9392L7.44839 16.3535C7.60914 16.111 7.75435 15.8635 7.88364 15.611L7.21606 15.2692ZM6.82326 15.9392L6.19812 15.5248C5.90558 15.9661 5.87999 16.4658 6.03011 16.9352L6.74447 16.7067L7.45883 16.4783C7.43775 16.4123 7.43951 16.3801 7.44028 16.3726C7.44069 16.3686 7.44127 16.3669 7.44161 16.3659C7.44197 16.3649 7.44348 16.361 7.44839 16.3535L6.82326 15.9392ZM6.74447 16.7067L6.03011 16.9352C6.11047 17.1865 6.15862 17.4118 6.18 17.6129L6.9258 17.5336L7.67159 17.4544C7.63778 17.1363 7.56504 16.8104 7.45883 16.4783L6.74447 16.7067ZM6.9258 17.5336L6.18 17.6129C6.19334 17.7384 6.1742 17.8435 6.12588 17.9448L6.80287 18.2676L7.47985 18.5904C7.65063 18.2322 7.71344 17.848 7.67159 17.4544L6.9258 17.5336ZM6.80287 18.2676L6.12588 17.9448C5.98978 18.2303 5.89101 18.5273 5.83117 18.8348L6.56736 18.9781L7.30354 19.1213C7.33863 18.9411 7.39686 18.7645 7.47985 18.5904L6.80287 18.2676ZM6.56736 18.9781L5.83117 18.8348C5.77359 19.1307 5.74768 19.4298 5.7535 19.7313L6.50336 19.7169L7.25322 19.7024C7.24944 19.5066 7.2662 19.3132 7.30354 19.1213L6.56736 18.9781ZM6.50336 19.7169L5.7535 19.7313C5.75825 19.9775 5.76177 20.2229 5.76405 20.4674L6.51402 20.4604L7.26398 20.4534C7.26166 20.2039 7.25807 19.9536 7.25322 19.7024L6.50336 19.7169ZM6.51402 20.4604L5.76405 20.4674C5.76494 20.5628 5.73934 20.6882 5.6483 20.8528L6.30461 21.2158L6.96092 21.5788C7.1537 21.2302 7.2677 20.852 7.26398 20.4534L6.51402 20.4604ZM6.30461 21.2158L5.6483 20.8528C5.52521 21.0754 5.44642 21.3309 5.4522 21.6094C5.45801 21.8896 5.54843 22.1434 5.68782 22.3618L6.32002 21.9583L6.95222 21.5548C6.94488 21.5433 6.94502 21.5407 6.947 21.5468C6.94796 21.5497 6.94916 21.5542 6.95014 21.5599C6.95113 21.5657 6.95174 21.5719 6.95188 21.5783C6.95216 21.5918 6.95019 21.6007 6.94959 21.6029C6.94915 21.6045 6.95105 21.5966 6.96092 21.5788L6.30461 21.2158ZM6.32002 21.9583L5.68782 22.3618C5.77686 22.5013 5.80709 22.6159 5.8101 22.7144L6.55975 22.6915L7.3094 22.6686C7.29712 22.2663 7.16753 21.8921 6.95222 21.5548L6.32002 21.9583ZM6.55975 22.6915L5.8101 22.7144C5.8106 22.7309 5.80718 22.705 5.82968 22.6634C5.83999 22.6443 5.85198 22.6292 5.86249 22.6187C5.87257 22.6086 5.87804 22.6059 5.87392 22.6084L6.25607 23.2537L6.63823 23.899C6.84289 23.7778 7.02517 23.6063 7.14945 23.3763C7.27318 23.1472 7.31654 22.9025 7.3094 22.6686L6.55975 22.6915ZM6.25607 23.2537L5.87392 22.6084C5.69384 22.715 5.50406 22.8105 5.30419 22.8946L5.59514 23.5859L5.88609 24.2771C6.14727 24.1672 6.39811 24.0412 6.63823 23.899L6.25607 23.2537ZM5.59514 23.5859L5.30419 22.8946C5.1269 22.9692 4.92845 23.0287 4.70647 23.0706L4.84557 23.8076L4.98468 24.5446C5.30107 24.4849 5.60233 24.3966 5.88609 24.2771L5.59514 23.5859ZM4.84557 23.8076L4.70647 23.0706C4.40787 23.127 4.1352 23.2787 3.9356 23.5333C3.74759 23.7731 3.66374 24.0536 3.63031 24.3131L4.37417 24.4089L5.11802 24.5047C5.12968 24.4142 5.14693 24.4194 5.11606 24.4588C5.09931 24.4801 5.07521 24.5024 5.04547 24.5199C5.01648 24.537 4.99349 24.5429 4.98468 24.5446L4.84557 23.8076ZM4.37417 24.4089L3.63031 24.3131C3.62718 24.3374 3.62486 24.3287 3.63835 24.3015C3.65355 24.2709 3.68318 24.2288 3.73146 24.1921C3.83165 24.116 3.90161 24.1414 3.82531 24.134L3.75324 24.8805L3.68117 25.6271C3.97374 25.6553 4.33162 25.6199 4.63878 25.3866C4.95287 25.148 5.07927 24.8056 5.11802 24.5047L4.37417 24.4089ZM3.75324 24.8805L3.82531 24.134C3.3221 24.0854 2.76109 24.1834 2.37413 24.6443L2.94853 25.1266L3.52293 25.6088C3.51695 25.6159 3.50881 25.6232 3.50016 25.6288C3.49188 25.6342 3.48862 25.6344 3.4947 25.6326C3.50958 25.628 3.56496 25.6159 3.68117 25.6271L3.75324 24.8805ZM2.94853 25.1266L2.37413 24.6443C2.12184 24.9448 1.95788 25.296 1.87433 25.6807L2.60725 25.8399L3.34017 25.999C3.37644 25.832 3.44 25.7076 3.52293 25.6088L2.94853 25.1266ZM2.60725 25.8399L1.87433 25.6807C1.81323 25.9621 1.75712 26.2358 1.70603 26.5017L2.44257 26.6432L3.1791 26.7847C3.22777 26.5313 3.28145 26.2694 3.34017 25.999L2.60725 25.8399ZM2.44257 26.6432L1.70603 26.5017C1.66909 26.694 1.6108 26.8569 1.53611 26.9959L2.19682 27.3508L2.85753 27.7057C3.01075 27.4205 3.11629 27.1116 3.1791 26.7847L2.44257 26.6432ZM2.19682 27.3508L1.53611 26.9959C1.40343 27.2429 1.29099 27.4989 1.19894 27.7637L1.90734 28.01L2.61574 28.2563C2.68176 28.0664 2.76231 27.883 2.85753 27.7057L2.19682 27.3508ZM1.90734 28.01L1.19894 27.7637C1.19893 27.7637 1.19874 27.7643 1.19818 27.7654C1.19761 27.7666 1.1965 27.7687 1.19453 27.7718C1.19065 27.7779 1.18269 27.7889 1.16771 27.8043C1.13676 27.8362 1.07913 27.8832 0.978564 27.9379L1.33689 28.5967L1.69522 29.2556C2.09117 29.0402 2.45368 28.7224 2.61574 28.2563L1.90734 28.01ZM1.33689 28.5967L0.978564 27.9379C0.752062 28.061 0.530055 28.2347 0.374069 28.4821C0.210684 28.7413 0.150819 29.0329 0.1813 29.3246L0.927236 29.2466L1.67317 29.1686C1.67382 29.1748 1.6746 29.1927 1.66902 29.2177C1.66332 29.2432 1.65337 29.2655 1.64299 29.282C1.62356 29.3128 1.62046 29.2962 1.69522 29.2556L1.33689 28.5967ZM0.927236 29.2466L0.1813 29.3246C0.19781 29.4825 0.178881 29.6212 0.129789 29.7512L0.83141 30.0162L1.53303 30.2812C1.66802 29.9238 1.71298 29.5495 1.67317 29.1686L0.927236 29.2466ZM0.83141 30.0162L0.129789 29.7512C-0.0171725 30.1403 -0.0384911 30.5466 0.0615695 30.9491L0.789412 30.7682L1.51726 30.5872C1.48923 30.4745 1.49591 30.3795 1.53303 30.2812L0.83141 30.0162ZM0.789412 30.7682L0.0615695 30.9491C0.105062 31.124 0.115518 31.2893 0.0974898 31.4491L0.842762 31.5332L1.58803 31.6173C1.62696 31.2722 1.60185 30.9275 1.51726 30.5872L0.789412 30.7682ZM0.842762 31.5332L0.0974898 31.4491C0.0424976 31.9366 0.208812 32.3738 0.504473 32.7302L1.08167 32.2513L1.65888 31.7724C1.57903 31.6762 1.58607 31.6347 1.58803 31.6173L0.842762 31.5332ZM1.08167 32.2513L0.504473 32.7302C0.504549 32.7303 0.493469 32.7168 0.483171 32.6891C0.472397 32.6601 0.46719 32.6282 0.467918 32.5985C0.469315 32.5414 0.49002 32.5424 0.441637 32.6138L1.06249 33.0346L1.68335 33.4553C1.8355 33.2308 1.95968 32.9533 1.96747 32.6352C1.97566 32.3005 1.85289 32.0062 1.65888 31.7724L1.08167 32.2513ZM1.06249 33.0346L0.441637 32.6138C0.28686 32.8422 0.146903 33.1546 0.185813 33.5183C0.22694 33.9028 0.449011 34.1816 0.69006 34.3626L1.14038 33.7628L1.59071 33.163C1.58301 33.1573 1.60115 33.169 1.62404 33.2045C1.64909 33.2434 1.6707 33.297 1.6773 33.3588C1.69025 33.4798 1.63758 33.5229 1.68335 33.4553L1.06249 33.0346ZM1.14038 33.7628L0.69006 34.3626C0.817153 34.458 0.814022 34.5073 0.814306 34.51L1.56005 34.4302L2.3058 34.3505C2.25146 33.8424 1.96855 33.4467 1.59071 33.163L1.14038 33.7628ZM1.56005 34.4302L0.814306 34.51C0.848423 34.829 0.922397 35.1383 1.03663 35.436L1.73686 35.1674L2.43709 34.8987C2.3702 34.7244 2.32631 34.5422 2.3058 34.3505L1.56005 34.4302ZM1.73686 35.1674L1.03663 35.436C1.205 35.8749 1.52963 36.1885 1.93212 36.3876L2.26477 35.7154L2.59742 35.0432C2.47715 34.9837 2.44983 34.9319 2.43709 34.8987L1.73686 35.1674ZM2.26477 35.7154L1.93212 36.3876C1.95395 36.3984 1.96587 36.407 1.97119 36.4112C1.9762 36.4152 1.97638 36.4163 1.97459 36.4139C1.97272 36.4114 1.97177 36.4093 1.97181 36.4094C1.97198 36.4098 1.97446 36.4159 1.97663 36.4304L2.71832 36.3191L3.46002 36.2078C3.38027 35.6764 3.06407 35.2742 2.59742 35.0432L2.26477 35.7154ZM2.71832 36.3191L1.97663 36.4304C2.03401 36.8127 2.17192 37.1681 2.40131 37.4784L3.00443 37.0326L3.60754 36.5868C3.53743 36.4919 3.4846 36.3716 3.46002 36.2078L2.71832 36.3191ZM3.00443 37.0326L2.40131 37.4784C2.50588 37.6199 2.60035 37.7923 2.68043 38.002L3.38105 37.7343L4.08166 37.4667C3.95909 37.1458 3.80247 36.8505 3.60754 36.5868L3.00443 37.0326ZM3.38105 37.7343L2.68043 38.002C2.78106 38.2654 2.95509 38.5032 3.21551 38.6679C3.4686 38.828 3.74855 38.8847 4.01015 38.8877L4.0188 38.1378L4.02744 37.3878C3.9652 37.3871 3.97695 37.3747 4.01745 37.4003C4.03728 37.4128 4.05477 37.429 4.06776 37.4455C4.08015 37.4613 4.08322 37.4708 4.08166 37.4667L3.38105 37.7343ZM4.0188 38.1378L4.01015 38.8877C4.22073 38.8902 4.30309 38.9393 4.33112 38.9613L4.79497 38.372L5.25882 37.7826C4.89963 37.4999 4.46454 37.3929 4.02744 37.3878L4.0188 38.1378ZM4.79497 38.372L4.33112 38.9613C4.48131 39.0795 4.62808 39.2218 4.77056 39.391L5.3442 38.9078L5.91784 38.4247C5.71523 38.1841 5.49585 37.9691 5.25882 37.7826L4.79497 38.372ZM5.3442 38.9078L4.77056 39.391C4.9826 39.6427 5.2215 39.8642 5.48685 40.0537L5.9227 39.4434L6.35856 38.833C6.19765 38.7181 6.05088 38.5826 5.91784 38.4247L5.3442 38.9078ZM5.9227 39.4434L5.48685 40.0537C5.78428 40.2661 6.11467 40.4111 6.47224 40.4851L6.62415 39.7506L6.77606 39.0162C6.62462 38.9849 6.48738 38.925 6.35856 38.833L5.9227 39.4434ZM6.62415 39.7506L6.47224 40.4851C6.81331 40.5556 7.16045 40.5656 7.50968 40.5186L7.40968 39.7753L7.30968 39.032C7.12055 39.0574 6.94401 39.0509 6.77606 39.0162L6.62415 39.7506ZM7.40968 39.7753L7.50968 40.5186C7.74958 40.4863 7.97621 40.4703 8.19007 40.4694L8.18701 39.7194L8.18394 38.9694C7.89972 38.9706 7.60814 38.9918 7.30968 39.032L7.40968 39.7753ZM8.18701 39.7194L8.19007 40.4694C8.4597 40.4683 8.72731 40.4561 8.99282 40.4328L8.92712 39.6857L8.86142 38.9385C8.63819 38.9582 8.41239 38.9685 8.18394 38.9694L8.18701 39.7194ZM8.92712 39.6857L8.99282 40.4328C8.98037 40.4339 8.97848 40.4295 8.99714 40.4375C9.02043 40.4476 9.07114 40.4758 9.14658 40.5473L9.66246 40.0029L10.1783 39.4585C9.83834 39.1363 9.39194 38.8919 8.86142 38.9385L8.92712 39.6857ZM9.66246 40.0029L9.14658 40.5473C9.35707 40.7468 9.65601 40.9278 10.0333 40.9275C10.409 40.9273 10.7073 40.7473 10.918 40.5507L10.4062 40.0024L9.89453 39.4541C9.85514 39.4909 9.90451 39.4276 10.0323 39.4275C10.1617 39.4274 10.2137 39.492 10.1783 39.4585L9.66246 40.0029ZM10.4062 40.0024L10.918 40.5507C10.9873 40.486 11.0233 40.4735 11.0228 40.4736C11.0217 40.474 11.014 40.4764 11.0015 40.4769C10.989 40.4775 10.9785 40.4759 10.9725 40.4743L11.1562 39.7472L11.34 39.0201C10.7646 38.8746 10.263 39.1102 9.89453 39.4541L10.4062 40.0024ZM11.1562 39.7472L10.9725 40.4743C11.2887 40.5542 11.609 40.5898 11.9316 40.5789L11.9062 39.8293L11.8809 39.0797C11.7035 39.0857 11.5238 39.0665 11.34 39.0201L11.1562 39.7472ZM11.9062 39.8293L11.9316 40.5789C12.0938 40.5734 12.26 40.5954 12.4336 40.6494L12.6562 39.9332L12.8789 39.217C12.5525 39.1155 12.2187 39.0683 11.8809 39.0797L11.9062 39.8293ZM12.6562 39.9332L12.4336 40.6494C12.8121 40.7671 13.2015 40.7803 13.5867 40.6848L13.4062 39.9569L13.2258 39.2289C13.111 39.2574 13.0004 39.2548 12.8789 39.217L12.6562 39.9332ZM13.4062 39.9569L13.5867 40.6848C13.6682 40.6646 13.7508 40.6675 13.8594 40.7143L14.1562 40.0255L14.4531 39.3368C14.0617 39.1681 13.6443 39.1252 13.2258 39.2289L13.4062 39.9569ZM14.1562 40.0255L13.8594 40.7143C14.267 40.8899 14.7016 40.9197 15.1299 40.7858L14.9062 40.07L14.6825 39.3541C14.6109 39.3765 14.5455 39.3766 14.4531 39.3368L14.1562 40.0255ZM14.9062 40.07L15.1299 40.7858C15.1504 40.7794 15.1605 40.78 15.169 40.7813C15.1797 40.7829 15.2103 40.7897 15.2632 40.8223L15.6562 40.1835L16.0493 39.5447C15.6394 39.2926 15.166 39.203 14.6825 39.3541L14.9062 40.07ZM15.6562 40.1835L15.2632 40.8223C15.5192 40.9798 15.8293 41.0634 16.1637 41.0034C16.4819 40.9463 16.7363 40.7745 16.9296 40.5862L16.4062 40.0489L15.8829 39.5117C15.8262 39.5669 15.8306 39.5392 15.8988 39.527C15.9338 39.5207 15.9706 39.5217 16.0034 39.5288C16.0346 39.5356 16.0503 39.5453 16.0493 39.5447L15.6562 40.1835ZM16.4062 40.0489L16.9296 40.5862C16.9698 40.547 16.9146 40.6193 16.7743 40.618C16.6357 40.6167 16.5844 40.545 16.6279 40.5882L17.1562 40.0559L17.6846 39.5236C17.4781 39.3186 17.1768 39.1217 16.7882 39.1181C16.3979 39.1144 16.0927 39.3073 15.8829 39.5117L16.4062 40.0489ZM17.1562 40.0559L16.6279 40.5882C16.9704 40.9283 17.4308 41.1929 17.9847 41.1346L17.9062 40.3887L17.8277 39.6428C17.8447 39.641 17.8512 39.6467 17.8354 39.6397C17.8141 39.6302 17.7626 39.6011 17.6846 39.5236L17.1562 40.0559ZM17.9062 40.3887L17.9847 41.1346C18.4718 41.0833 18.8746 40.8145 19.1953 40.483L18.6562 39.9616L18.1172 39.4401C17.9379 39.6255 17.8407 39.6415 17.8277 39.6428L17.9062 40.3887ZM18.6562 39.9616L19.1953 40.483C19.2724 40.4033 19.3184 40.3797 19.3285 40.3754C19.3322 40.3737 19.3276 40.3762 19.3159 40.3777C19.3037 40.3793 19.291 40.379 19.2802 40.3771L19.4062 39.6378L19.5323 38.8985C18.9457 38.7985 18.4618 39.0838 18.1172 39.4401L18.6562 39.9616ZM19.4062 39.6378L19.2802 40.3771C19.4718 40.4098 19.6682 40.4664 19.8702 40.5498L20.1562 39.8565L20.4423 39.1632C20.1442 39.0402 19.8407 38.951 19.5323 38.8985L19.4062 39.6378ZM20.1562 39.8565L19.8702 40.5498C20.0992 40.6443 20.3295 40.7514 20.5609 40.8715L20.9062 40.2057L21.2516 39.54C20.983 39.4007 20.7133 39.275 20.4423 39.1632L20.1562 39.8565ZM20.9062 40.2057L20.5609 40.8715C21.0151 41.1071 21.5121 41.121 21.9784 40.8992L21.6562 40.2219L21.3341 39.5446C21.3175 39.5525 21.3072 39.5553 21.3027 39.5564C21.3003 39.5569 21.2989 39.5571 21.2983 39.5571C21.2978 39.5572 21.2975 39.5572 21.2974 39.5572C21.2973 39.5572 21.2968 39.5572 21.2957 39.557C21.2947 39.5569 21.2926 39.5565 21.2893 39.5556C21.283 39.5539 21.2705 39.5498 21.2516 39.54L20.9062 40.2057ZM21.6562 40.2219L21.9784 40.8992C22.117 40.8333 22.2293 40.8182 22.3286 40.8285L22.4062 40.0825L22.4839 39.3366C22.0832 39.2949 21.6955 39.3727 21.3341 39.5446L21.6562 40.2219ZM22.4062 40.0825L22.3286 40.8285C22.6273 40.8596 22.9264 40.8613 23.2252 40.8337L23.1562 40.0869L23.0872 39.3401C22.8861 39.3587 22.6852 39.3575 22.4839 39.3366L22.4062 40.0825ZM23.1562 40.0869L23.2252 40.8337C23.4917 40.8091 23.758 40.7756 24.0241 40.7333L23.9062 39.9926L23.7884 39.2519C23.5545 39.2891 23.3208 39.3185 23.0872 39.3401L23.1562 40.0869ZM23.9062 39.9926L24.0241 40.7333C24.1542 40.7126 24.286 40.7216 24.4287 40.767L24.6562 40.0524L24.8838 39.3377C24.5265 39.224 24.1583 39.1931 23.7884 39.2519L23.9062 39.9926ZM24.6562 40.0524L24.4287 40.767C24.7396 40.866 25.056 40.9234 25.3763 40.9362L25.4062 40.1868L25.4361 39.4374C25.2565 39.4302 25.0729 39.398 24.8838 39.3377L24.6562 40.0524ZM25.4062 40.1868L25.3763 40.9362C25.5614 40.9436 25.7496 40.9748 25.9424 41.0322L26.1562 40.3133L26.3701 39.5944C26.0629 39.503 25.7511 39.4499 25.4361 39.4374L25.4062 40.1868ZM26.1562 40.3133L25.9424 41.0322C26.4307 41.1775 26.904 41.0767 27.3095 40.8181L26.9062 40.1857L26.503 39.5534C26.4483 39.5882 26.4165 39.5959 26.4055 39.5978C26.3971 39.5993 26.3882 39.5998 26.3701 39.5944L26.1562 40.3133ZM26.9062 40.1857L27.3095 40.8181C27.3267 40.8072 27.334 40.8051 27.3317 40.8058C27.3288 40.8068 27.3192 40.8094 27.3049 40.8099C27.2981 40.8101 27.2916 40.8098 27.2856 40.8091C27.2797 40.8083 27.2751 40.8073 27.2722 40.8065C27.2662 40.8049 27.2695 40.8049 27.2826 40.8124L27.6562 40.1621L28.0299 39.5118C27.8031 39.3814 27.5419 39.3017 27.2576 39.3106C26.9747 39.3196 26.7204 39.4147 26.503 39.5534L26.9062 40.1857ZM27.6562 40.1621L27.2826 40.8124C27.6546 41.0262 28.0699 41.1292 28.5069 41.07L28.4062 40.3268L28.3056 39.5836C28.2426 39.5921 28.1579 39.5853 28.0299 39.5118L27.6562 40.1621ZM28.4062 40.3268L28.5069 41.07C28.6999 41.0439 28.8919 41.0402 29.084 41.0588L29.1562 40.3123L29.2284 39.5658C28.9206 39.536 28.6126 39.542 28.3056 39.5836L28.4062 40.3268ZM29.1562 40.3123L29.084 41.0588C29.4649 41.0956 29.8372 41.0337 30.1914 40.888L29.9062 40.1944L29.6211 39.5007C29.4753 39.5606 29.3476 39.5773 29.2284 39.5658L29.1562 40.3123ZM29.9062 40.1944L30.1914 40.888C30.4607 40.7773 30.7289 40.6539 30.9962 40.518L30.6562 39.8495L30.3163 39.181C30.0835 39.2993 29.8518 39.4058 29.6211 39.5007L29.9062 40.1944ZM30.6562 39.8495L30.9962 40.518C31.155 40.4373 31.2908 40.4073 31.4106 40.4067L31.4062 39.6567L31.4019 38.9067C31.0217 38.9089 30.6575 39.0075 30.3163 39.181L30.6562 39.8495ZM31.4062 39.6567L31.4106 40.4067C31.5195 40.406 31.6472 40.4336 31.8019 40.5165L32.1562 39.8555L32.5106 39.1945C32.1653 39.0094 31.793 38.9044 31.4019 38.9067L31.4062 39.6567ZM32.1562 39.8555L31.8019 40.5165C32.2326 40.7474 32.7113 40.7913 33.1786 40.6092L32.9062 39.9104L32.6339 39.2116C32.6055 39.2227 32.5919 39.2222 32.586 39.2217C32.5788 39.2212 32.5551 39.2183 32.5106 39.1945L32.1562 39.8555ZM32.9062 39.9104L33.1786 40.6092C33.2322 40.5883 33.2697 40.586 33.34 40.6187L33.6562 39.9386L33.9725 39.2585C33.5428 39.0588 33.0803 39.0376 32.6339 39.2116L32.9062 39.9104ZM33.6562 39.9386L33.34 40.6187C33.7292 40.7996 34.1491 40.8554 34.5741 40.7578L34.4062 40.0269L34.2384 39.2959C34.1634 39.3131 34.0833 39.3101 33.9725 39.2585L33.6562 39.9386ZM34.4062 40.0269L34.5741 40.7578C34.7703 40.7128 34.9638 40.6909 35.1557 40.691L35.1562 39.941L35.1568 39.191C34.8487 39.1908 34.5422 39.2261 34.2384 39.2959L34.4062 40.0269ZM35.1562 39.941L35.1557 40.691C35.4403 40.6912 35.7245 40.6718 36.0081 40.633L35.9062 39.8899L35.8044 39.1468C35.588 39.1765 35.3722 39.1912 35.1568 39.191L35.1562 39.941ZM35.9062 39.8899L36.0081 40.633C36.3172 40.5906 36.622 40.5115 36.9217 40.398L36.6562 39.6966L36.3908 38.9951C36.1905 39.071 35.9953 39.1207 35.8044 39.1468L35.9062 39.8899ZM36.6562 39.6966L36.9217 40.398C37.0384 40.3539 37.1365 40.3496 37.2352 40.3727L37.4062 39.6425L37.5773 38.9123C37.176 38.8183 36.7741 38.8501 36.3908 38.9951L36.6562 39.6966ZM37.4062 39.6425L37.2352 40.3727C37.419 40.4158 37.6106 40.4868 37.8106 40.5907L38.1562 39.925L38.5019 39.2594C38.2019 39.1037 37.8935 38.9863 37.5773 38.9123L37.4062 39.6425ZM38.1562 39.925L37.8106 40.5907C38.1634 40.7738 38.5444 40.87 38.9431 40.8504L38.9062 40.1013L38.8694 39.3522C38.768 39.3572 38.6491 39.3359 38.5019 39.2594L38.1562 39.925ZM38.9062 40.1013L38.9431 40.8504C39.1613 40.8397 39.3796 40.8428 39.598 40.8598L39.6562 40.1121L39.7145 39.3644C39.4329 39.3424 39.1512 39.3384 38.8694 39.3522L38.9062 40.1013ZM39.6562 40.1121L39.598 40.8598C40.0787 40.8973 40.5068 40.7214 40.8602 40.4387L40.3919 39.853L39.9235 39.2672C39.7961 39.369 39.7338 39.3659 39.7145 39.3644L39.6562 40.1121ZM40.3919 39.853L40.8602 40.4387C40.8742 40.4276 40.8761 40.4288 40.8653 40.4333C40.8533 40.4384 40.833 40.4444 40.8072 40.446C40.7815 40.4475 40.7614 40.4439 40.7506 40.4409C40.7408 40.4381 40.7443 40.4375 40.7614 40.4479L41.1511 39.8071L41.5409 39.1663C41.3074 39.0243 41.0275 38.9299 40.7168 38.9487C40.4052 38.9675 40.1382 39.0955 39.9235 39.2672L40.3919 39.853ZM41.1511 39.8071L40.7614 40.4479C40.9924 40.5884 41.2825 40.6899 41.6087 40.6549C41.9391 40.6195 42.2031 40.4551 42.3983 40.2569L41.864 39.7306L41.3297 39.2042C41.3214 39.2127 41.3271 39.2047 41.349 39.193C41.3727 39.1804 41.4071 39.168 41.4486 39.1635C41.5372 39.154 41.5756 39.1874 41.5409 39.1663L41.1511 39.8071ZM41.864 39.7306L42.3983 40.2569C42.5546 40.0983 42.6904 40.0098 42.8015 39.963L42.5105 39.2718L42.2195 38.5805C41.8877 38.7202 41.5924 38.9376 41.3297 39.2042L41.864 39.7306ZM42.5105 39.2718L42.8015 39.963C42.9706 39.8918 43.1478 39.8396 43.3341 39.8066L43.2035 39.0681L43.0728 38.3295C42.7782 38.3817 42.4934 38.4652 42.2195 38.5805L42.5105 39.2718ZM43.2035 39.0681L43.3341 39.8066C43.4279 39.79 43.5907 39.7918 43.8468 39.8649L44.0527 39.1437L44.2586 38.4225C43.8633 38.3097 43.46 38.261 43.0728 38.3295L43.2035 39.0681ZM44.0527 39.1437L43.8468 39.8649C44.3174 39.9992 44.8338 39.9905 45.2852 39.6859L44.8657 39.0642L44.4461 38.4425C44.4459 38.4427 44.4442 38.4455 44.4272 38.4471C44.4052 38.4493 44.3522 38.4492 44.2586 38.4225L44.0527 39.1437ZM44.8657 39.0642L45.2852 39.6859C45.6916 39.4116 45.9246 38.9996 46.0367 38.5495L45.3089 38.3683L44.5812 38.1871C44.5349 38.3729 44.4724 38.4248 44.4461 38.4425L44.8657 39.0642ZM45.3089 38.3683L46.0367 38.5495C46.0539 38.4806 46.069 38.4752 46.0529 38.4928C46.0449 38.5015 46.0342 38.5103 46.0224 38.5171C46.0111 38.5236 46.0051 38.5245 46.009 38.5236L45.8348 37.7941L45.6605 37.0647C45.3906 37.1291 45.1432 37.2652 44.9467 37.4798C44.7553 37.6888 44.6432 37.938 44.5812 38.1871L45.3089 38.3683ZM45.8348 37.7941L46.009 38.5236C46.3399 38.4446 46.6545 38.327 46.9507 38.1699L46.5993 37.5073L46.2478 36.8447C46.0674 36.9404 45.8724 37.0141 45.6605 37.0647L45.8348 37.7941ZM46.5993 37.5073L46.9507 38.1699C47.3825 37.9409 47.6671 37.5657 47.7887 37.1005L47.0631 36.9108L46.3375 36.721C46.3173 36.7984 46.2926 36.821 46.2478 36.8447L46.5993 37.5073ZM47.0631 36.9108L47.7887 37.1005C47.8423 36.8957 47.9159 36.7284 48.0035 36.5911L47.3712 36.1877L46.7388 35.7844C46.5576 36.0685 46.4259 36.3832 46.3375 36.721L47.0631 36.9108ZM47.3712 36.1877L48.0035 36.5911C48.206 36.2735 48.3216 35.92 48.3579 35.5443L47.6113 35.4722L46.8648 35.4001C46.8497 35.5571 46.8051 35.6805 46.7388 35.7844L47.3712 36.1877ZM47.6113 35.4722L48.3579 35.5443C48.3793 35.3227 48.4186 35.1245 48.4729 34.9475L47.7559 34.7274L47.039 34.5073C46.952 34.7907 46.8949 35.089 46.8648 35.4001L47.6113 35.4722ZM47.7559 34.7274L48.4729 34.9475C48.464 34.9763 48.4519 34.9813 48.4711 34.9634C48.4944 34.9418 48.5507 34.8999 48.6642 34.8504L48.3643 34.1629L48.0645 33.4755C47.6336 33.6634 47.2011 33.9791 47.039 34.5073L47.7559 34.7274ZM48.3643 34.1629L48.6642 34.8504C49.1302 34.6471 49.5722 34.2801 49.6694 33.6769L48.9289 33.5577L48.1885 33.4384C48.19 33.4287 48.1937 33.4166 48.1996 33.4048C48.2053 33.3933 48.21 33.3886 48.2083 33.3904C48.2029 33.3962 48.1669 33.4308 48.0645 33.4755L48.3643 34.1629ZM48.9289 33.5577L49.6694 33.6769C49.7232 33.3428 49.725 33.0054 49.6764 32.6674L48.934 32.7741L48.1917 32.8807C48.2192 33.0728 48.2176 33.2578 48.1885 33.4384L48.9289 33.5577ZM48.934 32.7741L49.6764 32.6674C49.65 32.4838 49.6555 32.3139 49.6885 32.1534L48.9539 32.0023L48.2193 31.8511C48.1496 32.1897 48.1419 32.5344 48.1917 32.8807L48.934 32.7741ZM48.9539 32.0023L49.6885 32.1534C49.7374 31.9162 49.7933 31.6744 49.8565 31.428L49.1301 31.2416L48.4036 31.0552C48.3347 31.3239 48.2732 31.5892 48.2193 31.8511L48.9539 32.0023ZM49.1301 31.2416L49.8565 31.428C49.9503 31.0627 49.9612 30.6913 49.8857 30.3224L49.1509 30.4727L48.4161 30.623C48.445 30.7643 48.442 30.9055 48.4036 31.0552L49.1301 31.2416ZM49.1509 30.4727L49.8857 30.3224C49.8332 30.0657 49.7801 29.8107 49.7266 29.5573L48.9928 29.7124L48.259 29.8675C48.3119 30.1177 48.3643 30.3695 48.4161 30.623L49.1509 30.4727ZM48.9928 29.7124L49.7266 29.5573C49.6561 29.2239 49.5322 28.9084 49.3579 28.6131L48.7121 28.9945L48.0663 29.3759C48.1598 29.5342 48.223 29.6972 48.259 29.8675L48.9928 29.7124ZM48.7121 28.9945L49.3579 28.6131C49.1892 28.3274 48.9831 28.0669 48.7423 27.832L48.2186 28.3688L47.6948 28.9056C47.8442 29.0514 47.9672 29.208 48.0663 29.3759L48.7121 28.9945ZM48.2186 28.3688L48.7423 27.832C48.5862 27.6797 48.4667 27.5298 48.3776 27.3838L47.7375 27.7747L47.0974 28.1655C47.2595 28.431 47.4607 28.6772 47.6948 28.9056L48.2186 28.3688ZM47.7375 27.7747L48.3776 27.3838C48.3012 27.2587 48.2446 27.1148 48.2116 26.9457L47.4755 27.0894L46.7394 27.2331C46.8044 27.5662 46.9225 27.8792 47.0974 28.1655L47.7375 27.7747ZM47.4755 27.0894L48.2116 26.9457C48.1274 26.5144 47.9011 26.1499 47.5502 25.8842L47.0975 26.4822L46.6448 27.0802C46.6998 27.1219 46.7255 27.1621 46.7394 27.2331L47.4755 27.0894ZM47.0975 26.4822L47.5502 25.8842C47.4604 25.8163 47.3991 25.735 47.3577 25.6258L46.6565 25.892L45.9553 26.1581C46.0959 26.5286 46.3285 26.8408 46.6448 27.0802L47.0975 26.4822ZM46.6565 25.892L47.3577 25.6258C47.2139 25.2472 46.9707 24.9318 46.6339 24.7024L46.2118 25.3224L45.7896 25.9423C45.8637 25.9927 45.9169 26.0571 45.9553 26.1581L46.6565 25.892ZM46.2118 25.3224L46.6339 24.7024C46.5705 24.6593 46.5046 24.588 46.4498 24.4469L45.7506 24.7181L45.0513 24.9893C45.2006 25.3741 45.4422 25.7057 45.7896 25.9423L46.2118 25.3224ZM45.7506 24.7181L46.4498 24.4469C46.3583 24.2108 46.2117 23.9892 45.9937 23.8185C45.7756 23.6477 45.5252 23.5585 45.2735 23.5266L45.1794 24.2707L45.0852 25.0148C45.1002 25.0166 45.103 25.0187 45.0976 25.0165C45.0915 25.0141 45.0808 25.0088 45.0688 24.9994C45.0569 24.9901 45.0493 24.9811 45.0458 24.9762C45.0427 24.9718 45.0457 24.9746 45.0513 24.9893L45.7506 24.7181ZM45.1794 24.2707L45.2735 23.5266C45.184 23.5153 45.1395 23.4995 45.1251 23.4932C45.1132 23.488 45.141 23.4978 45.175 23.5394L44.5947 24.0145L44.0144 24.4896C44.3026 24.8416 44.7257 24.9693 45.0852 25.0148L45.1794 24.2707ZM44.5947 24.0145L45.175 23.5394C45.1272 23.4809 45.1167 23.4623 45.1226 23.4723C45.1239 23.4745 45.1498 23.5172 45.1706 23.5872C45.1815 23.6236 45.1978 23.6901 45.1986 23.7765C45.1994 23.8644 45.1838 23.9991 45.1041 24.1399L44.4515 23.7703L43.7988 23.4007C43.6388 23.6834 43.7137 23.9505 43.7328 24.0147C43.7617 24.1118 43.8036 24.1884 43.8288 24.2313C43.8824 24.3227 43.9513 24.4126 44.0144 24.4896L44.5947 24.0145ZM44.4515 23.7703L45.1041 24.1399C45.177 24.0112 45.1981 23.8791 45.1997 23.8711C45.2085 23.8253 45.2152 23.7776 45.2204 23.7346C45.2311 23.6467 45.2411 23.5342 45.2507 23.4029L44.5028 23.3477L43.7548 23.2925C43.7457 23.4157 43.7378 23.5008 43.7313 23.5538C43.728 23.5813 43.7263 23.5898 43.727 23.586C43.7273 23.5843 43.73 23.5703 43.736 23.5493C43.7391 23.5384 43.7445 23.5208 43.7527 23.499C43.7602 23.479 43.7748 23.4432 43.7988 23.4007L44.4515 23.7703ZM39.785 38.7161L39.9487 37.9842C39.6792 37.9239 39.4091 37.8749 39.1387 37.8371L39.035 38.5799L38.9313 39.3227C39.1609 39.3548 39.3909 39.3965 39.6213 39.4481L39.785 38.7161ZM39.035 38.5799L39.1387 37.8371C38.8938 37.8029 38.6489 37.7662 38.404 37.7268L38.285 38.4673L38.166 39.2078C38.4211 39.2488 38.6762 39.2871 38.9313 39.3227L39.035 38.5799ZM38.285 38.4673L38.404 37.7268C37.8273 37.6341 37.3481 37.9086 37.0017 38.2589L37.535 38.7863L38.0683 39.3136C38.1449 39.2362 38.1913 39.2123 38.2035 39.2071C38.2085 39.205 38.2055 39.2069 38.1959 39.2082C38.1859 39.2095 38.1751 39.2093 38.166 39.2078L38.285 38.4673ZM37.535 38.7863L37.0017 38.2589C36.9678 38.2933 36.9425 38.313 36.9269 38.3236C36.9117 38.3339 36.9082 38.3337 36.9165 38.3309C36.9258 38.3277 36.943 38.3236 36.9655 38.3233C36.9881 38.3231 37.0061 38.327 37.0166 38.3304L36.785 39.0437L36.5534 39.7571C37.1682 39.9567 37.7007 39.6854 38.0683 39.3136L37.535 38.7863ZM36.785 39.0437L37.0166 38.3304C36.8353 38.2715 36.6433 38.1804 36.4406 38.05L36.035 38.6809L35.6295 39.3119C35.9268 39.5029 36.2348 39.6536 36.5534 39.7571L36.785 39.0437ZM36.035 38.6809L36.4406 38.05C36.0441 37.7952 35.5814 37.6857 35.098 37.8102L35.285 38.5365L35.4721 39.2628C35.4886 39.2585 35.526 39.2453 35.6295 39.3119L36.035 38.6809ZM35.285 38.5365L35.098 37.8102C34.9245 37.8549 34.7562 37.8698 34.5899 37.8576L34.535 38.6056L34.4802 39.3536C34.8139 39.378 35.1455 39.3469 35.4721 39.2628L35.285 38.5365ZM34.535 38.6056L34.5899 37.8576C34.1474 37.8251 33.7371 37.9584 33.3766 38.1925L33.785 38.8215L34.1934 39.4506C34.3329 39.36 34.4227 39.3493 34.4802 39.3536L34.535 38.6056ZM33.785 38.8215L33.3766 38.1925C33.2445 38.2782 33.1665 38.2823 33.1202 38.277L33.035 39.0221L32.9498 39.7673C33.4035 39.8191 33.8255 39.6894 34.1934 39.4506L33.785 38.8215ZM33.035 39.0221L33.1202 38.277C32.9863 38.2617 32.8341 38.2137 32.6601 38.1132L32.285 38.7627L31.9099 39.4122C32.236 39.6004 32.5837 39.7254 32.9498 39.7673L33.035 39.0221ZM32.285 38.7627L32.6601 38.1132C32.3342 37.925 31.9866 37.8 31.6206 37.758L31.535 38.5031L31.4495 39.2482C31.5835 39.2636 31.7359 39.3116 31.9099 39.4122L32.285 38.7627ZM31.535 38.5031L31.6206 37.758C31.3107 37.7224 31.0004 37.7242 30.6908 37.7634L30.785 38.5075L30.8792 39.2516C31.0696 39.2275 31.2593 39.2263 31.4495 39.2482L31.535 38.5031ZM30.785 38.5075L30.6908 37.7634C30.4429 37.7948 30.195 37.8252 29.947 37.8544L30.035 38.5993L30.123 39.3441C30.3751 39.3143 30.6271 39.2835 30.8792 39.2516L30.785 38.5075ZM30.035 38.5993L29.947 37.8544C29.8039 37.8713 29.6581 37.859 29.5033 37.8119L29.285 38.5294L29.0667 39.247C29.412 39.352 29.7662 39.3862 30.123 39.3441L30.035 38.5993ZM29.285 38.5294L29.5033 37.8119C29.0653 37.6786 28.6246 37.7209 28.217 37.9117L28.535 38.5909L28.853 39.2702C28.9455 39.2269 29.0047 39.2281 29.0667 39.247L29.285 38.5294ZM28.535 38.5909L28.217 37.9117C28.0176 38.005 27.8255 38.068 27.64 38.1045L27.785 38.8404L27.93 39.5762C28.2445 39.5143 28.5524 39.4109 28.853 39.2702L28.535 38.5909ZM27.785 38.8404L27.64 38.1045C27.3969 38.1524 27.1539 38.1968 26.9109 38.2376L27.035 38.9772L27.1592 39.7169C27.4162 39.6737 27.6731 39.6269 27.93 39.5762L27.785 38.8404ZM27.035 38.9772L26.9109 38.2376C26.7414 38.266 26.5737 38.2665 26.4045 38.2392L26.285 38.9796L26.1656 39.7201C26.4963 39.7734 26.8286 39.7723 27.1592 39.7169L27.035 38.9772ZM26.285 38.9796L26.4045 38.2392C26.0552 38.1829 25.7052 38.197 25.3603 38.2796L25.535 39.009L25.7097 39.7383C25.8648 39.7012 26.0149 39.6958 26.1656 39.7201L26.285 38.9796ZM25.535 39.009L25.3603 38.2796C25.1435 38.3315 24.928 38.3676 24.7135 38.3881L24.785 39.1347L24.8565 39.8813C25.1421 39.8539 25.4265 39.8061 25.7097 39.7383L25.535 39.009ZM24.785 39.1347L24.7135 38.3881C24.5652 38.4023 24.4136 38.3876 24.2536 38.3389L24.035 39.0563L23.8164 39.7738C24.1564 39.8773 24.5049 39.9149 24.8565 39.8813L24.785 39.1347ZM24.035 39.0563L24.2536 38.3389C23.9927 38.2594 23.7316 38.1863 23.4703 38.1197L23.285 38.8465L23.0997 39.5732C23.3384 39.6341 23.5773 39.7009 23.8164 39.7738L24.035 39.0563ZM23.285 38.8465L23.4703 38.1197C23.1511 38.0383 22.8273 38.0038 22.5013 38.0185L22.535 38.7677L22.5687 39.517C22.7427 39.5091 22.919 39.5271 23.0997 39.5732L23.285 38.8465ZM22.535 38.7677L22.5013 38.0185C22.3576 38.0249 22.2072 38.0025 22.0448 37.9426L21.785 38.6461L21.5253 39.3497C21.8629 39.4744 22.2125 39.533 22.5687 39.517L22.535 38.7677ZM21.785 38.6461L22.0448 37.9426C21.7358 37.8285 21.4201 37.7558 21.0993 37.7282L21.035 38.4754L20.9707 39.2227C21.1499 39.2381 21.3343 39.2792 21.5253 39.3497L21.785 38.6461ZM21.035 38.4754L21.0993 37.7282C20.6539 37.6899 20.2403 37.8214 19.8776 38.0562L20.285 38.6858L20.6925 39.3155C20.8297 39.2267 20.9162 39.218 20.9707 39.2227L21.035 38.4754ZM20.285 38.6858L19.8776 38.0562C19.8299 38.087 19.8103 38.0877 19.8152 38.0871C19.8169 38.0869 19.8194 38.0869 19.821 38.0871C19.8223 38.0873 19.8186 38.087 19.8089 38.0832L19.535 38.7814L19.2611 39.4796C19.763 39.6765 20.2653 39.592 20.6925 39.3155L20.285 38.6858ZM19.535 38.7814L19.8089 38.0832C19.4304 37.9347 19.0322 37.8948 18.6317 37.9784L18.785 38.7126L18.9383 39.4468C19.0379 39.426 19.1396 39.4319 19.2611 39.4796L19.535 38.7814ZM18.785 38.7126L18.6317 37.9784C18.4666 38.0129 18.3048 38.0178 18.1426 37.9943L18.035 38.7366L17.9275 39.4788C18.2652 39.5277 18.6035 39.5167 18.9383 39.4468L18.785 38.7126ZM18.035 38.7366L18.1426 37.9943C17.8439 37.951 17.5443 37.9374 17.2443 37.9537L17.285 38.7026L17.3257 39.4515C17.5258 39.4406 17.7261 39.4496 17.9275 39.4788L18.035 38.7366ZM17.285 38.7026L17.2443 37.9537C17.061 37.9637 16.8765 37.9495 16.6893 37.9102L16.535 38.6442L16.3808 39.3781C16.6935 39.4438 17.009 39.4687 17.3257 39.4515L17.285 38.7026ZM16.535 38.6442L16.6893 37.9102C16.4036 37.8502 16.1168 37.8115 15.8289 37.7946L15.785 38.5434L15.7411 39.2921C15.9533 39.3045 16.1664 39.3331 16.3808 39.3781L16.535 38.6442ZM15.785 38.5434L15.8289 37.7946C15.4009 37.7695 15.0005 37.8927 14.6428 38.1122L15.035 38.7515L15.4273 39.3907C15.5695 39.3034 15.6692 39.2878 15.7411 39.2921L15.785 38.5434ZM15.035 38.7515L14.6428 38.1122C14.5424 38.1738 14.5025 38.1632 14.4786 38.1568L14.285 38.8814L14.0915 39.606C14.5675 39.7332 15.0277 39.6359 15.4273 39.3907L15.035 38.7515ZM14.285 38.8814L14.4786 38.1568C14.2085 38.0846 13.9378 38.0244 13.6665 37.9761L13.535 38.7145L13.4036 39.4528C13.6323 39.4936 13.8616 39.5446 14.0915 39.606L14.285 38.8814ZM13.535 38.7145L13.6665 37.9761C13.2791 37.9071 12.8946 37.9462 12.5262 38.0816L12.785 38.7855L13.0438 39.4895C13.1754 39.4411 13.2909 39.4328 13.4036 39.4528L13.535 38.7145ZM12.785 38.7855L12.5262 38.0816C12.305 38.1629 12.0855 38.2283 11.8677 38.2781L12.035 39.0092L12.2023 39.7403C12.4845 39.6757 12.7651 39.592 13.0438 39.4895L12.785 38.7855ZM12.035 39.0092L11.8677 38.2781C11.8558 38.2808 11.848 38.2809 11.8352 38.2778C11.8191 38.274 11.7806 38.2611 11.7189 38.2173L11.285 38.8291L10.8512 39.4409C11.2383 39.7154 11.7035 39.8545 12.2023 39.7403L12.035 39.0092ZM11.285 38.8291L11.7189 38.2173C11.3042 37.9233 10.8 37.8057 10.2811 37.9924L10.535 38.6981L10.7889 39.4038C10.7953 39.4015 10.7958 39.4021 10.7916 39.4025C10.7873 39.4029 10.7832 39.4026 10.781 39.4022C10.7758 39.4013 10.7985 39.4035 10.8512 39.4409L11.285 38.8291ZM10.535 38.6981L10.2811 37.9924C10.1883 38.0257 10.1136 38.0254 10.0285 37.9965L9.78772 38.7068L9.54699 39.4171C9.95825 39.5565 10.3817 39.5503 10.7889 39.4038L10.535 38.6981ZM9.78772 38.7068L10.0285 37.9965C9.54038 37.8311 9.0596 37.92 8.6426 38.1629L9.02013 38.8109L9.39765 39.459C9.45948 39.423 9.49613 39.4149 9.51048 39.413C9.52179 39.4114 9.53097 39.4117 9.54699 39.4171L9.78772 38.7068ZM9.02013 38.8109L8.6426 38.1629C8.58737 38.1951 8.5644 38.1955 8.56895 38.1951C8.5708 38.195 8.5745 38.195 8.57832 38.1957C8.58195 38.1963 8.58102 38.1967 8.57462 38.1938L8.2631 38.876L7.95157 39.5583C8.45013 39.7859 8.96009 39.7139 9.39765 39.459L9.02013 38.8109ZM8.2631 38.876L8.57462 38.1938C8.45887 38.1409 8.33742 38.0494 8.21466 37.8912L7.6221 38.3509L7.02955 38.8107C7.27914 39.1324 7.58502 39.3909 7.95157 39.5583L8.2631 38.876ZM7.6221 38.3509L8.21466 37.8912C7.89008 37.4729 7.4174 37.2283 6.85374 37.2903L6.93581 38.0358L7.01788 38.7813C7.0264 38.7804 7.0263 38.7813 7.01986 38.7804C7.01305 38.7794 7.00504 38.777 6.99793 38.7738C6.99112 38.7706 6.99017 38.769 6.99499 38.773C7.0002 38.7773 7.01225 38.7884 7.02955 38.8107L7.6221 38.3509ZM6.93581 38.0358L6.85374 37.2903C6.76049 37.3006 6.73009 37.2809 6.70445 37.2604L6.23553 37.8457L5.7666 38.431C6.13198 38.7237 6.56843 38.8308 7.01788 38.7813L6.93581 38.0358ZM6.23553 37.8457L6.70445 37.2604C6.36472 36.9882 5.96073 36.8609 5.53694 36.8436L5.50646 37.593L5.47598 38.3424C5.63326 38.3488 5.71532 38.3899 5.7666 38.431L6.23553 37.8457ZM5.50646 37.593L5.53694 36.8436C5.51431 36.8427 5.50323 36.84 5.50097 36.8394C5.4992 36.8389 5.50399 36.8401 5.51216 36.8449C5.516 36.8472 5.51978 36.8498 5.52329 36.8526C5.5268 36.8554 5.52944 36.8579 5.53122 36.8598C5.53496 36.8638 5.5331 36.863 5.52768 36.8532L4.87189 37.2171L4.2161 37.581C4.4852 38.066 4.94455 38.3208 5.47598 38.3424L5.50646 37.593ZM4.87189 37.2171L5.52768 36.8532C5.41671 36.6532 5.32521 36.4468 5.25275 36.2335L4.54261 36.4747L3.83247 36.716C3.93403 37.015 4.06205 37.3034 4.2161 37.581L4.87189 37.2171ZM4.54261 36.4747L5.25275 36.2335C5.06583 35.6833 4.62478 35.3688 4.10688 35.2609L3.954 35.9952L3.80112 36.7294C3.83204 36.7359 3.84964 36.7426 3.85739 36.746C3.86467 36.7493 3.86292 36.7495 3.85647 36.7442C3.84966 36.7387 3.84254 36.731 3.83692 36.7228C3.8315 36.7148 3.83086 36.7112 3.83247 36.716L4.54261 36.4747ZM3.954 35.9952L4.10688 35.2609C4.03495 35.2459 4.01235 35.2286 4.01413 35.23C4.0151 35.2307 4.01886 35.2337 4.02307 35.239C4.02724 35.2442 4.02857 35.2475 4.02797 35.2461L3.34126 35.5476L2.65455 35.8492C2.8768 36.3553 3.31637 36.6285 3.80112 36.7294L3.954 35.9952ZM3.34126 35.5476L4.02797 35.2461C3.94055 35.047 3.8698 34.8439 3.81543 34.6366L3.08995 34.8268L2.36447 35.017C2.43898 35.3012 2.53577 35.5787 2.65455 35.8492L3.34126 35.5476ZM3.08995 34.8268L3.81543 34.6366C3.74203 34.3566 3.65016 34.0866 3.53929 33.8271L2.8496 34.1218L2.15991 34.4165C2.24063 34.6054 2.30898 34.8054 2.36447 35.017L3.08995 34.8268ZM2.8496 34.1218L3.53929 33.8271C3.46033 33.6423 3.39782 33.4525 3.35159 33.2572L2.62176 33.4299L1.89192 33.6026C1.95791 33.8814 2.04729 34.1529 2.15991 34.4165L2.8496 34.1218ZM2.62176 33.4299L3.35159 33.2572C3.29966 33.0377 3.25593 32.8176 3.22039 32.5967L2.47992 32.7159L1.73944 32.835C1.78081 33.0921 1.83165 33.348 1.89192 33.6026L2.62176 33.4299ZM2.47992 32.7159L3.22039 32.5967C3.19338 32.4288 3.1904 32.2595 3.21209 32.0866L2.46792 31.9932L1.72375 31.8999C1.68453 32.2125 1.68955 32.525 1.73944 32.835L2.47992 32.7159ZM2.46792 31.9932L3.21209 32.0866C3.24863 31.7952 3.25624 31.5047 3.23399 31.216L2.4862 31.2736L1.73842 31.3312C1.75269 31.5164 1.7481 31.7057 1.72375 31.8999L2.46792 31.9932ZM2.4862 31.2736L3.23399 31.216C3.20645 30.8586 3.09345 30.5125 2.92336 30.1829L2.25687 30.5268L1.59037 30.8708C1.68955 31.063 1.72944 31.2147 1.73842 31.3312L2.4862 31.2736ZM2.25687 30.5268L2.92336 30.1829C2.90778 30.1527 2.92668 30.1749 2.92061 30.2321C2.91782 30.2584 2.91073 30.2804 2.90365 30.2956C2.89703 30.3098 2.89309 30.3124 2.90008 30.3043L2.33247 29.8141L1.76486 29.3239C1.59134 29.5248 1.46051 29.7767 1.42898 30.0739C1.39771 30.3687 1.47133 30.6401 1.59037 30.8708L2.25687 30.5268ZM2.33247 29.8141L2.90008 30.3043C3.081 30.0949 3.20436 29.8398 3.23897 29.5489C3.27278 29.2648 3.21633 28.9953 3.11796 28.7562L2.42439 29.0416L1.73081 29.3271C1.74343 29.3577 1.74736 29.3758 1.74848 29.3825C1.74948 29.3885 1.74802 29.384 1.74948 29.3717C1.75018 29.3658 1.75144 29.3592 1.7534 29.3522C1.75536 29.3452 1.75774 29.3389 1.7602 29.3335C1.76533 29.3223 1.76892 29.3192 1.76486 29.3239L2.33247 29.8141ZM2.42439 29.0416L3.11796 28.7562C3.089 28.6859 3.09517 28.6651 3.09396 28.681C3.09334 28.6892 3.0911 28.701 3.08622 28.7135C3.08395 28.7193 3.08159 28.724 3.07959 28.7276C3.07761 28.731 3.07631 28.7327 3.07638 28.7326L2.48254 28.2745L1.88871 27.8164C1.52384 28.2894 1.53167 28.8431 1.73081 29.3271L2.42439 29.0416ZM2.48254 28.2745L3.07638 28.7326C3.25227 28.5046 3.41478 28.2733 3.56358 28.0387L2.93021 27.637L2.29684 27.2353C2.1738 27.4293 2.03787 27.6231 1.88871 27.8164L2.48254 28.2745ZM2.93021 27.637L3.56358 28.0387C3.64926 27.9036 3.75907 27.7844 3.8985 27.6798L3.44862 27.0797L2.99875 26.4796C2.71879 26.6895 2.48299 26.9418 2.29684 27.2353L2.93021 27.637ZM3.44862 27.0797L3.8985 27.6798C4.20259 27.4519 4.44157 27.1637 4.60516 26.8209L3.92825 26.4979L3.25135 26.1749C3.19482 26.2934 3.11404 26.3932 2.99875 26.4796L3.44862 27.0797ZM3.92825 26.4979L4.60516 26.8209C4.69144 26.64 4.79584 26.472 4.91878 26.3158L4.32944 25.8519L3.74009 25.3881C3.54824 25.6318 3.38519 25.8944 3.25135 26.1749L3.92825 26.4979ZM4.32944 25.8519L4.91878 26.3158C5.07326 26.1195 5.23224 25.9213 5.39573 25.7213L4.81495 25.2467L4.23418 24.7722C4.0651 24.9791 3.9004 25.1844 3.74009 25.3881L4.32944 25.8519ZM4.81495 25.2467L5.39573 25.7213C5.5046 25.588 5.62975 25.4823 5.77381 25.4001L5.40204 24.7487L5.03027 24.0974C4.72411 24.2721 4.45786 24.4984 4.23418 24.7722L4.81495 25.2467ZM5.40204 24.7487L5.77381 25.4001C6.03642 25.2502 6.28684 25.0774 6.52503 24.8823L6.04987 24.302L5.57471 23.7218C5.39935 23.8654 5.21789 23.9903 5.03027 24.0974L5.40204 24.7487ZM6.04987 24.302L6.52503 24.8823C6.5232 24.8838 6.51613 24.889 6.50441 24.8939C6.49263 24.8988 6.48293 24.9006 6.47838 24.9011C6.47064 24.9019 6.50114 24.8968 6.58407 24.9268L6.83933 24.2216L7.09459 23.5163C6.60424 23.3388 6.04265 23.3386 5.57471 23.7218L6.04987 24.302ZM6.83933 24.2216L6.58407 24.9268C7.13136 25.1249 7.68167 25.0527 8.16744 24.7469L7.76782 24.1122L7.36821 23.4775C7.25505 23.5488 7.18637 23.5495 7.09459 23.5163L6.83933 24.2216ZM7.76782 24.1122L8.16744 24.7469C8.38097 24.6124 8.60922 24.4184 8.74495 24.1369C8.89527 23.8251 8.89031 23.4928 8.77252 23.1967L8.07562 23.4738L7.37871 23.751C7.37038 23.73 7.3585 23.689 7.35953 23.6332C7.3606 23.5759 7.3749 23.5246 7.39379 23.4855C7.42692 23.4168 7.45414 23.4234 7.36821 23.4775L7.76782 24.1122ZM8.07562 23.4738L8.77252 23.1967C8.66328 22.922 8.53069 22.6533 8.37579 22.3906L7.72976 22.7715L7.08372 23.1525C7.20143 23.3521 7.29942 23.5516 7.37871 23.751L8.07562 23.4738ZM7.72976 22.7715L8.37579 22.3906C8.27634 22.2219 8.20909 22.0531 8.16963 21.8827L7.43895 22.0518L6.70827 22.2209C6.78395 22.5479 6.91056 22.8589 7.08372 23.1525L7.72976 22.7715ZM7.43895 22.0518L8.16963 21.8827C8.13557 21.7355 8.13183 21.587 8.16042 21.4306L7.42265 21.2957L6.68488 21.1608C6.62008 21.5152 6.62721 21.8707 6.70827 22.2209L7.43895 22.0518ZM7.42265 21.2957L8.16042 21.4306C8.21446 21.1351 8.24359 20.8398 8.24701 20.5452L7.49706 20.5364L6.74711 20.5277C6.74471 20.7348 6.72423 20.9456 6.68488 21.1608L7.42265 21.2957ZM7.49706 20.5364L8.24701 20.5452C8.25064 20.2325 8.2159 19.9196 8.1451 19.6077L7.4137 19.7737L6.68231 19.9397C6.72848 20.1431 6.74931 20.3387 6.74711 20.5277L7.49706 20.5364ZM7.4137 19.7737L8.1451 19.6077C8.09731 19.3971 8.07092 19.1874 8.06533 18.9779L7.3156 18.9979L6.56586 19.0179C6.57412 19.3275 6.61313 19.635 6.68231 19.9397L7.4137 19.7737ZM7.3156 18.9979L8.06533 18.9779C8.06498 18.9647 8.06663 18.9557 8.07299 18.9421C8.08079 18.9253 8.10249 18.8881 8.15977 18.8342L7.64572 18.2881L7.13167 17.742C6.78309 18.0701 6.55211 18.502 6.56586 19.0179L7.3156 18.9979ZM7.64572 18.2881L8.15977 18.8342C8.35479 18.6507 8.51646 18.4159 8.59039 18.1267C8.66481 17.8356 8.63479 17.5501 8.54487 17.2929L7.83689 17.5404L7.1289 17.7879C7.13432 17.8034 7.13319 17.806 7.13263 17.7975C7.132 17.7882 7.13259 17.7729 7.13714 17.7551C7.14165 17.7375 7.1478 17.7262 7.15023 17.7223C7.15219 17.7192 7.14835 17.7263 7.13167 17.742L7.64572 18.2881ZM7.83689 17.5404L8.54487 17.2929C8.53943 17.2773 8.54163 17.2776 8.54245 17.2915C8.54334 17.3065 8.54209 17.3303 8.53405 17.358C8.52602 17.3857 8.51448 17.4061 8.50608 17.4178C8.49843 17.4285 8.49694 17.427 8.51052 17.4162L8.04291 16.8298L7.57529 16.2434C7.36371 16.4122 7.17994 16.6418 7.09339 16.9403C7.00674 17.2392 7.03935 17.5318 7.1289 17.7879L7.83689 17.5404ZM8.04291 16.8298L8.51052 17.4162C8.72516 17.245 8.90399 17.0165 8.9941 16.726C9.08354 16.4377 9.06639 16.1503 8.99402 15.8909L8.27162 16.0925L7.54921 16.2941C7.55548 16.3165 7.55497 16.3244 7.5549 16.32C7.55482 16.3147 7.55557 16.3005 7.56144 16.2816C7.56737 16.2625 7.57565 16.2478 7.58192 16.2391C7.58762 16.2312 7.5879 16.2334 7.57529 16.2434L8.04291 16.8298ZM8.27162 16.0925L8.99402 15.8909C8.94453 15.7136 8.96419 15.619 8.986 15.5661L8.29255 15.2804L7.5991 14.9946C7.42412 15.4193 7.42983 15.8662 7.54921 16.2941L8.27162 16.0925ZM8.29255 15.2804L8.986 15.5661C8.98038 15.5797 8.97328 15.5816 8.98787 15.5705C9.00754 15.5555 9.05974 15.5235 9.16864 15.492L8.96004 14.7716L8.75144 14.0512C8.27732 14.1885 7.81536 14.4698 7.5991 14.9946L8.29255 15.2804ZM8.96004 14.7716L9.16864 15.492C9.67622 15.345 10.1786 14.9995 10.2837 14.3475L9.5433 14.2281L8.80287 14.1087C8.80475 14.097 8.80992 14.0778 8.82152 14.0561C8.83312 14.0344 8.84612 14.0196 8.85451 14.0117C8.86208 14.0047 8.86149 14.0074 8.84525 14.0158C8.82868 14.0245 8.7989 14.0374 8.75144 14.0512L8.96004 14.7716ZM9.5433 14.2281L10.2837 14.3475C10.3122 14.171 10.3668 14.0204 10.4436 13.8887L9.79568 13.511L9.14776 13.1332C8.97252 13.4337 8.8589 13.7612 8.80287 14.1087L9.5433 14.2281ZM9.79568 13.511L10.4436 13.8887C10.4902 13.8088 10.5616 13.7357 10.6873 13.6723L10.3493 13.0027L10.0113 12.3332C9.65084 12.5152 9.35318 12.7809 9.14776 13.1332L9.79568 13.511ZM10.3493 13.0027L10.6873 13.6723C11.2404 13.3931 11.4636 12.8667 11.4676 12.3276L10.7176 12.3219L9.96764 12.3163C9.96707 12.3931 9.9528 12.4044 9.96404 12.3836C9.96981 12.373 9.97895 12.3603 9.99087 12.349C9.99642 12.3437 10.0014 12.3397 10.0054 12.337C10.0093 12.3342 10.0115 12.3331 10.0113 12.3332L10.3493 13.0027ZM10.7176 12.3219L11.4676 12.3276C11.4691 12.1229 11.5195 12.0508 11.5402 12.0271L10.9748 11.5343L10.4094 11.0416C10.0921 11.4057 9.97106 11.8587 9.96764 12.3163L10.7176 12.3219ZM10.9748 11.5343L11.5402 12.0271C11.5361 12.0318 11.5305 12.0367 11.5249 12.0403C11.5197 12.0437 11.5191 12.0429 11.5269 12.0404C11.5445 12.0348 11.5992 12.0225 11.7092 12.0305L11.7636 11.2824L11.818 10.5344C11.3241 10.4985 10.7882 10.6068 10.4094 11.0416L10.9748 11.5343ZM11.7636 11.2824L11.7092 12.0305C12.19 12.0654 12.7275 11.9692 13.1066 11.5396L12.5442 11.0434L11.9819 10.5471C11.9894 10.5386 11.9981 10.5315 12.0058 10.5267C12.0131 10.5221 12.0147 10.5226 12.0068 10.525C11.9884 10.5306 11.9315 10.5427 11.818 10.5344L11.7636 11.2824ZM12.5442 11.0434L13.1066 11.5396C13.2153 11.4164 13.3383 11.3169 13.478 11.2381L13.1094 10.5849L12.7408 9.93168C12.454 10.0935 12.2002 10.2996 11.9819 10.5471L12.5442 11.0434ZM13.1094 10.5849L13.478 11.2381C13.8096 11.0509 14.0762 10.785 14.2825 10.4643L13.6517 10.0586L13.021 9.65281C12.9306 9.79322 12.8357 9.87816 12.7408 9.93168L13.1094 10.5849ZM13.6517 10.0586L14.2825 10.4643C14.344 10.3687 14.4006 10.3342 14.46 10.3157L14.2368 9.59971L14.0136 8.88369C13.5894 9.0159 13.256 9.28736 13.021 9.65281L13.6517 10.0586ZM14.2368 9.59971L14.46 10.3157C14.8235 10.2024 15.1425 10.0043 15.4124 9.73523L14.8829 9.20406L14.3534 8.67289C14.2453 8.78065 14.1335 8.8463 14.0136 8.88369L14.2368 9.59971ZM14.8829 9.20406L15.4124 9.73523C15.4563 9.69146 15.4897 9.67655 15.5592 9.67763L15.5708 8.92772L15.5825 8.17781C15.1127 8.1705 14.6875 8.33982 14.3534 8.67289L14.8829 9.20406ZM15.5708 8.92772L15.5592 9.67763C15.9968 9.68444 16.4036 9.55094 16.7504 9.28148L16.2902 8.68925L15.8301 8.09702C15.7568 8.15391 15.684 8.17939 15.5825 8.17781L15.5708 8.92772ZM16.2902 8.68925L16.7504 9.28148C16.7756 9.26188 16.789 9.25856 16.7937 9.2575C16.7991 9.25627 16.8194 9.2524 16.8636 9.26128L17.0112 8.52593L17.1587 7.79059C16.6836 7.69526 16.2195 7.7944 15.8301 8.09702L16.2902 8.68925ZM17.0112 8.52593L16.8636 9.26128C17.1835 9.32546 17.4993 9.35533 17.8093 9.34647L17.7879 8.59678L17.7665 7.84709C17.5821 7.85236 17.3801 7.835 17.1587 7.79059L17.0112 8.52593ZM17.7879 8.59678L17.8093 9.34647C18.2267 9.33454 18.607 9.1876 18.9394 8.94732L18.5 8.3395L18.0606 7.73168C17.938 7.82031 17.8436 7.84488 17.7665 7.84709L17.7879 8.59678ZM18.5 8.3395L18.9394 8.94732C18.957 8.93453 18.9685 8.92884 18.9735 8.92666C18.9782 8.92461 18.9784 8.92509 18.975 8.92565C18.9736 8.92589 18.9721 8.92604 18.9707 8.9261C18.9693 8.92615 18.9687 8.92608 18.9689 8.9261C18.969 8.92611 18.9751 8.92662 18.988 8.93089L19.2228 8.21858L19.4575 7.50627C18.9621 7.34297 18.472 7.43427 18.0606 7.73168L18.5 8.3395ZM19.2228 8.21858L18.988 8.93089C19.5182 9.10563 20.0232 8.96807 20.4308 8.65825L19.9769 8.06116L19.5231 7.46407C19.4689 7.50524 19.4445 7.50884 19.4489 7.50793C19.4507 7.50754 19.4548 7.50706 19.4594 7.50734C19.4638 7.50761 19.4636 7.50828 19.4575 7.50627L19.2228 8.21858ZM19.9769 8.06116L20.4308 8.65825C20.4594 8.63649 20.425 8.67182 20.3405 8.6711C20.3018 8.67077 20.2705 8.66255 20.2506 8.65457C20.2324 8.64725 20.2302 8.64281 20.2432 8.65324L20.7116 8.06742L21.1799 7.48161C20.9629 7.30818 20.6836 7.17398 20.3533 7.17116C20.0239 7.16835 19.7428 7.29703 19.5231 7.46407L19.9769 8.06116ZM20.7116 8.06742L20.2432 8.65324C20.6695 8.99398 21.2012 9.11275 21.7414 8.89981L21.4663 8.20207L21.1913 7.50432C21.1816 7.50816 21.1806 7.50725 21.1872 7.5065C21.1904 7.50614 21.1945 7.50591 21.1993 7.50606C21.2041 7.50621 21.2088 7.50671 21.213 7.50747C21.222 7.50907 21.2248 7.51102 21.2204 7.50889C21.2155 7.50652 21.2018 7.49915 21.1799 7.48161L20.7116 8.06742ZM21.4663 8.20207L21.7414 8.89981C21.7508 8.8961 21.7485 8.89829 21.736 8.89959C21.7227 8.90097 21.7048 8.9006 21.6853 8.89645C21.6662 8.89235 21.6538 8.88635 21.6494 8.88387C21.6457 8.8818 21.6523 8.88483 21.6679 8.89964L22.184 8.35547L22.7001 7.81131C22.5138 7.63459 22.2804 7.48975 21.9989 7.42958C21.7142 7.36872 21.4383 7.40696 21.1913 7.50432L21.4663 8.20207ZM22.184 8.35547L21.6679 8.89964C21.8804 9.10117 22.1557 9.24762 22.4838 9.27164C22.801 9.29486 23.0871 9.19776 23.3229 9.06373L22.9522 8.41171L22.5816 7.75969C22.5219 7.79364 22.5321 7.77116 22.5933 7.77564C22.6235 7.77785 22.6522 7.78599 22.6753 7.79693C22.6971 7.80725 22.7048 7.81576 22.7001 7.81131L22.184 8.35547ZM22.9522 8.41171L23.3229 9.06373C23.5061 8.9596 23.579 8.97893 23.5876 8.98108L23.7699 8.25359L23.9523 7.5261C23.4617 7.40311 22.9895 7.52784 22.5816 7.75969L22.9522 8.41171ZM23.7699 8.25359L23.5876 8.98108C23.7655 9.02568 23.9345 9.0954 24.0966 9.19188L24.4803 8.54746L24.864 7.90303C24.5781 7.73285 24.2736 7.60665 23.9523 7.5261L23.7699 8.25359ZM24.4803 8.54746L24.0966 9.19188C24.2241 9.2678 24.3487 9.37919 24.467 9.54145L25.073 9.09949L25.6789 8.65754C25.4549 8.35043 25.1844 8.0938 24.864 7.90303L24.4803 8.54746ZM25.073 9.09949L24.467 9.54145C24.7185 9.8863 25.0527 10.1513 25.473 10.2782L25.6898 9.56022L25.9065 8.84222C25.8468 8.82418 25.7697 8.78205 25.6789 8.65754L25.073 9.09949ZM25.6898 9.56022L25.473 10.2782C25.5976 10.3158 25.7051 10.3784 25.8031 10.473L26.3238 9.93321L26.8445 9.39342C26.5772 9.13558 26.262 8.94955 25.9065 8.84222L25.6898 9.56022ZM26.3238 9.93321L25.8031 10.473C26.0063 10.669 26.2175 10.8504 26.4368 11.0168L26.8902 10.4194L27.3435 9.8219C27.173 9.69253 27.0067 9.54984 26.8445 9.39342L26.3238 9.93321ZM26.8902 10.4194L26.4368 11.0168C26.767 11.2674 27.1553 11.3915 27.562 11.4243L27.6223 10.6767L27.6827 9.92914C27.503 9.91464 27.4032 9.86717 27.3435 9.8219L26.8902 10.4194ZM27.6223 10.6767L27.562 11.4243C27.7945 11.443 28.0049 11.4883 28.1963 11.5567L28.4488 10.8505L28.7013 10.1442C28.3772 10.0283 28.0366 9.95771 27.6827 9.92914L27.6223 10.6767ZM28.4488 10.8505L28.1963 11.5567C28.1925 11.5553 28.1787 11.5496 28.1611 11.536C28.1431 11.522 28.1292 11.5061 28.1202 11.4922C28.1032 11.4661 28.1196 11.4737 28.1259 11.5581L28.8739 11.5023L29.6218 11.4464C29.6025 11.1885 29.5354 10.9163 29.3767 10.6729C29.2112 10.4191 28.9753 10.2422 28.7013 10.1442L28.4488 10.8505ZM28.8739 11.5023L28.1259 11.5581C28.1421 11.7742 28.1985 12.1286 28.4677 12.3922C28.8107 12.7282 29.2418 12.6955 29.5163 12.6007L29.2715 11.8918L29.0268 11.1828C29.0393 11.1785 29.1056 11.1571 29.2062 11.1699C29.3202 11.1843 29.4321 11.2372 29.5172 11.3206C29.5929 11.3947 29.6187 11.4643 29.6243 11.481C29.6301 11.4985 29.6251 11.4915 29.6218 11.4464L28.8739 11.5023ZM29.2715 11.8918L29.5163 12.6007C29.7546 12.5184 29.9928 12.4369 30.2309 12.3561L29.9899 11.6459L29.749 10.9356C29.5083 11.0173 29.2676 11.0997 29.0268 11.1828L29.2715 11.8918ZM29.9899 11.6459L30.2309 12.3561C30.5108 12.2612 30.7807 12.143 31.0404 12.0019L30.6821 11.343L30.3239 10.684C30.1394 10.7844 29.9479 10.8682 29.749 10.9356L29.9899 11.6459ZM30.6821 11.343L31.0404 12.0019C31.2979 11.8619 31.548 11.699 31.7911 11.5145L31.3375 10.9171L30.884 10.3198C30.6973 10.4616 30.5106 10.5826 30.3239 10.684L30.6821 11.343ZM31.3375 10.9171L31.7911 11.5145C31.7855 11.5187 31.7707 11.5284 31.7471 11.5364C31.7232 11.5445 31.7004 11.5473 31.683 11.5471C31.6508 11.5467 31.6669 11.5371 31.7436 11.5802L32.1114 10.9266L32.4793 10.273C32.2548 10.1467 31.9915 10.0508 31.7013 10.0472C31.3974 10.0435 31.1179 10.1423 30.884 10.3198L31.3375 10.9171ZM32.1114 10.9266L31.7436 11.5802C32.0087 11.7294 32.3526 11.8272 32.7245 11.7251C33.0867 11.6257 33.3327 11.3752 33.493 11.1311L32.8661 10.7194L32.2393 10.3076C32.1975 10.3711 32.2167 10.309 32.3273 10.2786C32.3809 10.2639 32.4291 10.2651 32.462 10.271C32.4914 10.2764 32.4979 10.2835 32.4793 10.273L32.1114 10.9266ZM32.8661 10.7194L33.493 11.1311C33.5206 11.0891 33.5414 11.0653 33.5532 11.0536C33.5646 11.0423 33.5643 11.0453 33.5505 11.0528C33.5354 11.061 33.5115 11.0704 33.4815 11.0748C33.4517 11.0791 33.4283 11.0767 33.4157 11.0741L33.5663 10.3394L33.7169 9.60465C33.4148 9.54272 33.1099 9.58527 32.835 9.73449C32.5757 9.87519 32.3834 10.0882 32.2393 10.3076L32.8661 10.7194ZM33.5663 10.3394L33.4157 11.0741C33.7928 11.1514 34.172 11.1414 34.5438 11.0427L34.3514 10.3178L34.1589 9.59288C34.0135 9.6315 33.8692 9.63587 33.7169 9.60465L33.5663 10.3394ZM34.3514 10.3178L34.5438 11.0427C34.5466 11.0419 34.543 11.0432 34.5347 11.0431C34.5263 11.043 34.5192 11.0415 34.5155 11.0404C34.508 11.0381 34.5329 11.0433 34.588 11.0938L35.0951 10.5413L35.6023 9.98872C35.2208 9.63863 34.7179 9.44449 34.1589 9.59288L34.3514 10.3178ZM35.0951 10.5413L34.588 11.0938C34.9254 11.4035 35.3482 11.62 35.8423 11.6099L35.8269 10.86L35.8114 10.1102C35.8042 10.1103 35.7391 10.1143 35.6023 9.98872L35.0951 10.5413ZM35.8269 10.86L35.8423 11.6099C36.0027 11.6066 36.1547 11.6313 36.303 11.6842L36.5548 10.9777L36.8066 10.2713C36.4857 10.1569 36.1525 10.1032 35.8114 10.1102L35.8269 10.86ZM36.5548 10.9777L36.303 11.6842C36.6453 11.8062 37.0042 11.8478 37.3701 11.8192L37.3117 11.0715L37.2533 10.3238C37.0791 10.3374 36.9334 10.3165 36.8066 10.2713L36.5548 10.9777ZM37.3117 11.0715L37.3701 11.8192C37.5934 11.8018 37.814 11.8054 38.0325 11.8299L38.1159 11.0845L38.1992 10.3392C37.8855 10.3041 37.57 10.2991 37.2533 10.3238L37.3117 11.0715ZM38.1159 11.0845L38.0325 11.8299C38.0328 11.8299 38.0254 11.829 38.0138 11.8242C38.002 11.8192 37.9924 11.813 37.9865 11.808C37.9749 11.7985 37.9946 11.8091 38.0254 11.8793L38.7121 11.5777L39.3988 11.2761C39.1876 10.7953 38.7933 10.4056 38.1992 10.3392L38.1159 11.0845ZM38.7121 11.5777L38.0254 11.8793C38.1991 12.2748 38.4596 12.6322 38.8461 12.8586L39.2252 12.2115L39.6043 11.5643C39.5692 11.5438 39.4877 11.4786 39.3988 11.2761L38.7121 11.5777ZM39.2252 12.2115L38.8461 12.8586C38.966 12.9288 39.0713 13.0227 39.1638 13.1479L39.7671 12.7024L40.3704 12.2568C40.1619 11.9744 39.9059 11.741 39.6043 11.5643L39.2252 12.2115ZM39.7671 12.7024L39.1638 13.1479C39.3577 13.4104 39.5846 13.6383 39.8451 13.8266L40.2844 13.2188L40.7238 12.611C40.5956 12.5183 40.4776 12.4019 40.3704 12.2568L39.7671 12.7024ZM40.2844 13.2188L39.8451 13.8266C40.0145 13.9491 40.1761 14.0817 40.3298 14.2244L40.8401 13.6748L41.3504 13.1251C41.1519 12.9408 40.943 12.7694 40.7238 12.611L40.2844 13.2188ZM40.8401 13.6748L40.3298 14.2244C40.6333 14.5062 41.0139 14.667 41.416 14.7489L41.5657 14.014L41.7155 13.2791C41.5023 13.2357 41.3992 13.1704 41.3504 13.1251L40.8401 13.6748ZM41.5657 14.014L41.416 14.7489C41.4521 14.7563 41.4764 14.7644 41.4915 14.7707C41.5063 14.7768 41.512 14.781 41.5121 14.781C41.5122 14.781 41.5113 14.7804 41.5098 14.779C41.5083 14.7776 41.5067 14.7759 41.5051 14.7739C41.5016 14.7696 41.5008 14.7672 41.5019 14.7696L42.1862 14.4627L42.8705 14.1558C42.6441 13.6511 42.2032 13.3785 41.7155 13.2791L41.5657 14.014ZM42.1862 14.4627L41.5019 14.7696C41.6421 15.0823 41.8306 15.3648 42.0655 15.6141L42.6113 15.0998L43.1572 14.5854C43.0373 14.4582 42.9424 14.316 42.8705 14.1558L42.1862 14.4627ZM42.6113 15.0998L42.0655 15.6141C42.2073 15.7646 42.3309 15.9267 42.437 16.1011L43.0777 15.7113L43.7184 15.3214C43.5575 15.057 43.3702 14.8115 43.1572 14.5854L42.6113 15.0998ZM43.0777 15.7113L42.437 16.1011C42.5091 16.2196 42.5536 16.3514 42.568 16.5068L43.3148 16.4376L44.0616 16.3683C44.0269 15.9941 43.9133 15.6418 43.7184 15.3214L43.0777 15.7113ZM43.3148 16.4376L42.568 16.5068C42.5872 16.7139 42.5828 16.9251 42.5539 17.1416L43.2973 17.2409L44.0407 17.3402C44.0841 17.015 44.0914 16.6907 44.0616 16.3683L43.3148 16.4376ZM43.2973 17.2409L42.5539 17.1416C42.5055 17.5045 42.5253 17.8645 42.6294 18.2108L43.3476 17.9949L44.0659 17.7791C44.0306 17.6615 44.0169 17.5189 44.0407 17.3402L43.2973 17.2409ZM43.3476 17.9949L42.6294 18.2108C42.6757 18.365 42.6968 18.5232 42.6921 18.6887L43.4418 18.7099L44.1915 18.7312C44.2007 18.4071 44.1589 18.0887 44.0659 17.7791L43.3476 17.9949ZM43.4418 18.7099L42.6921 18.6887C42.68 19.1153 42.8169 19.5072 43.0523 19.8498L43.6705 19.425L44.2886 19.0002C44.2052 18.8789 44.1897 18.7941 44.1915 18.7312L43.4418 18.7099ZM43.6705 19.425L43.0523 19.8498C43.1965 20.0595 43.3324 20.2815 43.4599 20.5159L44.1188 20.1576L44.7776 19.7992C44.6262 19.5208 44.4632 19.2544 44.2886 19.0002L43.6705 19.425ZM44.1188 20.1576L43.4599 20.5159C43.5071 20.6027 43.4964 20.6326 43.4859 20.6613L44.1904 20.9187L44.8948 21.1761C45.0678 20.7028 45.0093 20.2252 44.7776 19.7992L44.1188 20.1576ZM44.1904 20.9187L43.4859 20.6613C43.4296 20.8154 43.3381 20.9705 43.1994 21.1266L43.7602 21.6247L44.321 22.1227C44.5724 21.8396 44.7677 21.524 44.8948 21.1761L44.1904 20.9187ZM43.7602 21.6247L43.1994 21.1266C43.0107 21.3391 42.878 21.6043 42.849 21.9129C42.8208 22.2138 42.8971 22.4924 43.0153 22.7313L43.6876 22.3989L44.3599 22.0664C44.3314 22.0088 44.3465 22.0101 44.3425 22.053C44.3405 22.0737 44.3349 22.0935 44.3276 22.1094C44.3207 22.1245 44.3157 22.1286 44.321 22.1227L43.7602 21.6247ZM43.6876 22.3989L43.0153 22.7313C43.0475 22.7966 43.0339 22.8009 43.0366 22.7606C43.0379 22.7401 43.0431 22.7175 43.0521 22.6965C43.0608 22.6762 43.0694 22.6659 43.07 22.6653L43.637 23.1562L44.204 23.6471C44.3908 23.4313 44.5129 23.1644 44.5332 22.8606C44.5528 22.5679 44.4743 22.2978 44.3599 22.0664L43.6876 22.3989ZM43.637 23.1562L43.07 22.6653C42.8161 22.9584 42.6365 23.296 42.5522 23.6742L43.2842 23.8374L44.0162 24.0006C44.0415 23.8872 44.097 23.7706 44.204 23.6471L43.637 23.1562ZM43.2842 23.8374L42.5522 23.6742C42.4704 24.0408 42.474 24.5156 42.8124 24.8972L43.3736 24.3996L43.9347 23.902C43.956 23.926 43.9735 23.9531 43.9861 23.9809C43.9985 24.0081 44.0039 24.0306 44.0061 24.0445C44.0101 24.0692 44.003 24.0597 44.0162 24.0006L43.2842 23.8374ZM43.3736 24.3996L42.8124 24.8972C43.001 25.1099 43.2435 25.2839 43.5044 25.4307L43.872 24.7769L44.2397 24.1232C44.0647 24.0248 43.9749 23.9473 43.9347 23.902L43.3736 24.3996ZM43.872 24.7769L43.5044 25.4307C43.8237 25.6102 44.1783 25.7131 44.5526 25.7551L44.6361 25.0097L44.7196 24.2644C44.511 24.241 44.3562 24.1887 44.2397 24.1232L43.872 24.7769ZM44.6361 25.0097L44.5526 25.7551C44.5625 25.7562 44.5558 25.7567 44.5386 25.7493C44.5203 25.7415 44.4983 25.7281 44.4776 25.7088C44.4339 25.6678 44.438 25.6407 44.449 25.6883L45.1797 25.5194L45.9105 25.3505C45.8505 25.0909 45.7285 24.8253 45.5035 24.6144C45.2746 24.3998 44.996 24.2953 44.7196 24.2644L44.6361 25.0097ZM45.1797 25.5194L44.449 25.6883C44.5112 25.9573 44.6391 26.2204 44.8617 26.4308C45.084 26.6409 45.3534 26.7537 45.6243 26.8017L45.7552 26.0632L45.8862 25.3247C45.8641 25.3208 45.8578 25.3171 45.862 25.3191C45.8671 25.3215 45.8788 25.3281 45.892 25.3406C45.8982 25.3464 45.9035 25.3524 45.9078 25.3581C45.9121 25.3637 45.9147 25.3682 45.9161 25.3707C45.9188 25.3758 45.9152 25.3709 45.9105 25.3505L45.1797 25.5194ZM45.7552 26.0632L45.6243 26.8017C45.6829 26.8121 45.6763 26.8228 45.648 26.7987C45.6344 26.7871 45.6227 26.7731 45.6144 26.7595C45.6065 26.7464 45.6055 26.74 45.6069 26.7456L46.332 26.5538L47.0571 26.3621C46.9867 26.0958 46.8456 25.8482 46.6199 25.6562C46.3993 25.4686 46.1402 25.3698 45.8862 25.3247L45.7552 26.0632ZM46.332 26.5538L45.6069 26.7456C45.7168 27.1609 45.9383 27.5196 46.2688 27.7972L46.7512 27.2229L47.2336 26.6486C47.1488 26.5774 47.0909 26.49 47.0571 26.3621L46.332 26.5538ZM46.7512 27.2229L46.2688 27.7972C46.2602 27.7899 46.2432 27.7731 46.2271 27.7453C46.2108 27.7172 46.202 27.6893 46.1985 27.6676C46.1951 27.6473 46.1976 27.6404 46.196 27.6518C46.1944 27.6637 46.1891 27.6905 46.1731 27.7344L46.8776 27.9914L47.5822 28.2485C47.6718 28.0028 47.7271 27.7191 47.6786 27.424C47.627 27.1108 47.4679 26.8454 47.2336 26.6486L46.7512 27.2229ZM46.8776 27.9914L46.1731 27.7344C46.0138 28.1709 45.9455 28.6888 46.1957 29.1652L46.8597 28.8164L47.5237 28.4676C47.5354 28.4898 47.5299 28.497 47.5305 28.4675C47.5312 28.4331 47.5406 28.3627 47.5822 28.2485L46.8776 27.9914ZM46.8597 28.8164L46.1957 29.1652C46.3221 29.4057 46.467 29.6438 46.6296 29.8796L47.2471 29.4539L47.8646 29.0282C47.7333 28.8379 47.62 28.651 47.5237 28.4676L46.8597 28.8164ZM47.2471 29.4539L46.6296 29.8796C46.6858 29.9612 46.7029 30.0303 46.6987 30.1096L47.4477 30.1491L48.1966 30.1885C48.2188 29.7671 48.1021 29.3728 47.8646 29.0282L47.2471 29.4539ZM47.4477 30.1491L46.6987 30.1096C46.6798 30.4684 46.7376 30.8191 46.8667 31.1556L47.5669 30.8871L48.2672 30.6185C48.2109 30.4716 48.1892 30.3304 48.1966 30.1885L47.4477 30.1491ZM47.5669 30.8871L46.8667 31.1556C46.9289 31.3178 46.9597 31.478 46.9624 31.6395L47.7123 31.6271L48.4622 31.6146C48.4565 31.2728 48.3904 30.9396 48.2672 30.6185L47.5669 30.8871ZM47.7123 31.6271L46.9624 31.6395C46.9645 31.7681 46.9374 31.8938 46.873 32.025L47.5463 32.3555L48.2195 32.686C48.3848 32.3493 48.4684 31.9893 48.4622 31.6146L47.7123 31.6271ZM47.5463 32.3555L46.873 32.025C46.713 32.351 46.6239 32.6979 46.6119 33.0597L47.3615 33.0845L48.1111 33.1093C48.1158 32.967 48.1499 32.8279 48.2195 32.686L47.5463 32.3555ZM47.3615 33.0845L46.6119 33.0597C46.6102 33.1097 46.5979 33.1553 46.5322 33.2218L47.0655 33.7491L47.5988 34.2765C47.911 33.9608 48.096 33.5633 48.1111 33.1093L47.3615 33.0845ZM47.0655 33.7491L46.5322 33.2218C46.1013 33.6575 46.0551 34.2225 46.2054 34.7299L46.9245 34.5169L47.6437 34.304C47.6204 34.2254 47.6292 34.2035 47.6262 34.2199C47.6246 34.2286 47.6208 34.2413 47.6137 34.2547C47.6067 34.268 47.6001 34.2752 47.5988 34.2765L47.0655 33.7491ZM46.9245 34.5169L46.2054 34.7299C46.2208 34.7821 46.1845 34.7051 46.2444 34.5844C46.3065 34.4592 46.3974 34.4365 46.3608 34.4492L46.6066 35.1578L46.8523 35.8664C47.1227 35.7726 47.42 35.5899 47.5881 35.2511C47.754 34.9167 47.7232 34.5726 47.6437 34.304L46.9245 34.5169ZM46.6066 35.1578L46.3608 34.4492C45.8763 34.6173 45.4622 34.9613 45.3219 35.5213L46.0495 35.7035L46.777 35.8857C46.7774 35.8842 46.7764 35.8886 46.7723 35.8958C46.7681 35.9031 46.7638 35.908 46.7619 35.9098C46.7584 35.9133 46.778 35.8921 46.8523 35.8664L46.6066 35.1578ZM46.0495 35.7035L45.3219 35.5213C45.2623 35.7594 45.1913 36.0029 45.1086 36.2519L45.8204 36.4883L46.5321 36.7246C46.626 36.4419 46.7077 36.1623 46.777 35.8857L46.0495 35.7035ZM45.8204 36.4883L45.1086 36.2519C45.1073 36.2558 45.1099 36.2465 45.1211 36.2307C45.1329 36.2141 45.1491 36.1976 45.1677 36.1843C45.2061 36.157 45.2188 36.168 45.1601 36.1721L45.2124 36.9203L45.2647 37.6684C45.523 37.6504 45.7956 37.5783 46.0366 37.407C46.2841 37.2312 46.4444 36.9888 46.5321 36.7246L45.8204 36.4883ZM45.2124 36.9203L45.1601 36.1721C44.8776 36.1918 44.5865 36.283 44.3407 36.4907C44.0964 36.6972 43.9581 36.967 43.8875 37.237L44.6131 37.4269L45.3386 37.6167C45.3448 37.5932 45.349 37.5884 45.3449 37.5954C45.3403 37.6034 45.3289 37.6195 45.309 37.6363C45.2889 37.6533 45.2694 37.6632 45.2567 37.6679C45.2452 37.6721 45.2458 37.6698 45.2647 37.6684L45.2124 36.9203ZM44.6131 37.4269L43.8875 37.237C43.8408 37.4156 43.7797 37.4633 43.753 37.4803L44.1563 38.1126L44.5596 38.7449C44.9768 38.4789 45.2202 38.0693 45.3386 37.6167L44.6131 37.4269ZM44.1563 38.1126L43.753 37.4803C43.7455 37.4851 43.737 37.4894 43.7162 37.4914C43.6913 37.4938 43.6384 37.4932 43.5492 37.468L43.345 38.1896L43.1409 38.9113C43.6084 39.0436 44.1125 39.0302 44.5596 38.7449L44.1563 38.1126ZM43.345 38.1896L43.5492 37.468C43.0951 37.3395 42.5953 37.3398 42.1502 37.6166L42.5463 38.2535L42.9423 38.8904C42.9434 38.8897 42.9441 38.8894 42.9457 38.8889C42.9474 38.8883 42.9536 38.8865 42.9659 38.8855C42.9917 38.8835 43.0472 38.8848 43.1409 38.9113L43.345 38.1896ZM42.5463 38.2535L42.1502 37.6166C42.1116 37.6406 42.0735 37.6542 41.9885 37.6363L41.8339 38.3702L41.6794 39.1041C42.117 39.1963 42.5538 39.1321 42.9423 38.8904L42.5463 38.2535ZM41.8339 38.3702L41.9885 37.6363C41.4084 37.5142 40.9134 37.7543 40.5606 38.1407L41.1144 38.6464L41.6682 39.1522C41.7187 39.0968 41.7403 39.093 41.7268 39.0982C41.7199 39.1009 41.7094 39.1036 41.6973 39.1045C41.6854 39.1054 41.6787 39.104 41.6794 39.1041L41.8339 38.3702ZM41.1144 38.6464L40.5606 38.1407C40.5086 38.1975 40.5312 38.1472 40.637 38.1251C40.694 38.1132 40.7554 38.1143 40.8127 38.1285C40.8671 38.1421 40.9002 38.1631 40.9115 38.1712L40.4739 38.7803L40.0363 39.3894C40.2782 39.5633 40.5945 39.6664 40.9439 39.5934C41.2632 39.5266 41.5017 39.3345 41.6682 39.1522L41.1144 38.6464ZM40.4739 38.7803L40.9115 38.1712C40.8057 38.0953 40.6452 37.9861 40.4724 37.9295C40.4105 37.9093 40.155 37.8269 39.8717 37.9548C39.4815 38.1309 39.4112 38.5033 39.4105 38.6749L40.1605 38.6778L40.9105 38.6807C40.9102 38.7441 40.9006 38.8599 40.836 38.9887C40.764 39.1322 40.6431 39.2523 40.4888 39.3219C40.2317 39.438 40.0154 39.3582 40.0058 39.3551C39.9375 39.3327 39.9334 39.3155 40.0363 39.3894L40.4739 38.7803ZM40.1605 38.6778L39.4105 38.6749C39.4108 38.5873 39.4286 38.482 39.4811 38.375C39.534 38.267 39.6088 38.1846 39.6863 38.1264C39.8269 38.0207 39.9598 38.0055 39.9901 38.0024C40.054 37.9958 40.059 38.0089 39.9487 37.9842L39.785 38.7161L39.6213 39.4481C39.761 39.4793 39.9536 39.5139 40.1426 39.4946C40.2356 39.4851 40.4154 39.4548 40.5874 39.3256C40.7991 39.1665 40.9095 38.9253 40.9105 38.6807L40.1605 38.6778ZM23.2818 26.6719L23.5132 25.9585C23.3375 25.9015 23.2111 25.8245 23.1171 25.7372L22.6065 26.2865L22.0959 26.8359C22.3684 27.0891 22.6922 27.2691 23.0504 27.3853L23.2818 26.6719ZM22.6065 26.2865L23.1171 25.7372C23.133 25.7519 23.1303 25.7598 23.1221 25.7334C23.1122 25.7017 23.0987 25.6321 23.1038 25.5088L22.3544 25.4779L21.6051 25.4471C21.5852 25.9287 21.6879 26.4566 22.0959 26.8359L22.6065 26.2865ZM22.3544 25.4779L23.1038 25.5088C23.1155 25.2243 23.0664 24.8707 22.8217 24.5768C22.5661 24.2698 22.2133 24.1655 21.9106 24.1502L21.8725 24.8992L21.8345 25.6482C21.8521 25.6491 21.8357 25.6509 21.8 25.6358C21.7603 25.6191 21.7111 25.5872 21.669 25.5366C21.5849 25.4357 21.6085 25.3628 21.6051 25.4471L22.3544 25.4779ZM21.8725 24.8992L21.9106 24.1502C21.8112 24.1451 21.7595 24.1281 21.7388 24.119C21.7228 24.1119 21.7254 24.1102 21.7296 24.1156L21.1365 24.5746L20.5434 25.0336C20.8728 25.4592 21.3574 25.624 21.8345 25.6482L21.8725 24.8992ZM21.1365 24.5746L21.7296 24.1156C21.6379 23.997 21.5587 23.846 21.4997 23.6512L20.7819 23.8685L20.0641 24.0858C20.1694 24.4338 20.3266 24.7535 20.5434 25.0336L21.1365 24.5746ZM20.7819 23.8685L21.4997 23.6512C21.4221 23.3948 21.2801 23.1556 21.0583 22.9695C20.8396 22.7859 20.5842 22.688 20.3306 22.645L20.2052 23.3845L20.0799 24.1239C20.1047 24.1281 20.115 24.1325 20.1151 24.1326C20.1151 24.1326 20.1146 24.1324 20.1135 24.1318C20.1123 24.1312 20.1108 24.1304 20.1088 24.1292C20.1048 24.1267 20.0996 24.1232 20.094 24.1184C20.0818 24.1082 20.0723 24.0968 20.0662 24.0872C20.0605 24.0782 20.0611 24.076 20.0641 24.0858L20.7819 23.8685ZM20.2052 23.3845L20.3306 22.645C20.1455 22.6136 20.058 22.5556 20.0126 22.5107L19.4852 23.0439L18.9578 23.5771C19.2679 23.8838 19.6604 24.0528 20.0799 24.1239L20.2052 23.3845ZM19.4852 23.0439L20.0126 22.5107C19.9295 22.4284 19.8553 22.3143 19.8006 22.1473L19.0878 22.3806L18.375 22.6138C18.4947 22.9796 18.6855 23.3077 18.9578 23.5771L19.4852 23.0439ZM19.0878 22.3806L19.8006 22.1473C19.7412 21.9656 19.6472 21.7517 19.4834 21.5746C19.299 21.3752 19.0247 21.2264 18.69 21.244L18.7293 21.993L18.7686 22.7419C18.6909 22.746 18.6082 22.7319 18.5312 22.6975C18.4571 22.6644 18.4087 22.6218 18.3822 22.5932C18.338 22.5453 18.3473 22.5292 18.375 22.6138L19.0878 22.3806ZM18.7293 21.993L18.69 21.244C18.4129 21.2586 18.1534 21.3406 17.9167 21.4672L18.2706 22.1285L18.6244 22.7898C18.6957 22.7517 18.742 22.7433 18.7686 22.7419L18.7293 21.993ZM18.2706 22.1285L17.9167 21.4672C17.8077 21.5256 17.6704 21.6222 17.5639 21.7803C17.4487 21.9513 17.3992 22.1513 17.4158 22.3504C17.4444 22.6919 17.6562 22.9311 17.7698 23.0461L18.3032 22.5188L18.8366 21.9915C18.8193 21.974 18.8274 21.9787 18.8437 22.0056C18.8589 22.0308 18.9007 22.1072 18.9106 22.2254C18.9218 22.3594 18.8875 22.5003 18.8081 22.6182C18.7373 22.7232 18.6564 22.7727 18.6244 22.7898L18.2706 22.1285ZM18.3032 22.5188L17.7698 23.0461C17.9735 23.2521 18.193 23.4416 18.4279 23.6144L18.8724 23.0103L19.3169 22.4062C19.1444 22.2793 18.9845 22.1411 18.8366 21.9915L18.3032 22.5188ZM18.8724 23.0103L18.4279 23.6144C18.5471 23.7021 18.6454 23.8109 18.7251 23.9477L19.3731 23.5702L20.0212 23.1927C19.8406 22.8827 19.6051 22.6182 19.3169 22.4062L18.8724 23.0103ZM19.3731 23.5702L18.7251 23.9477C18.9223 24.2863 19.1965 24.5566 19.5374 24.7497L19.9069 24.0971L20.2765 23.4444C20.1659 23.3818 20.0843 23.3009 20.0212 23.1927L19.3731 23.5702ZM19.9069 24.0971L19.5374 24.7497C19.603 24.7868 19.653 24.8381 19.6925 24.9408L20.3926 24.672L21.0928 24.4032C20.9361 23.995 20.6624 23.6629 20.2765 23.4444L19.9069 24.0971ZM20.3926 24.672L19.6925 24.9408C19.7927 25.2019 19.8955 25.4604 20.001 25.7165L20.6944 25.4309L21.3879 25.1453C21.2871 24.9005 21.1888 24.6531 21.0928 24.4032L20.3926 24.672ZM20.6944 25.4309L20.001 25.7165C20.1857 26.1651 20.5269 26.4872 20.979 26.6529L21.2372 25.9488L21.4954 25.2446C21.4301 25.2207 21.4095 25.1975 21.3879 25.1453L20.6944 25.4309ZM21.2372 25.9488L20.979 26.6529C21.052 26.6797 21.0773 26.7082 21.1007 26.7613L21.7872 26.4594L22.4738 26.1575C22.2812 25.7195 21.9398 25.4075 21.4954 25.2446L21.2372 25.9488ZM21.7872 26.4594L21.1007 26.7613C21.3105 27.2384 21.7043 27.5394 22.1887 27.6619L22.3725 26.9348L22.5564 26.2077C22.5044 26.1945 22.4879 26.1807 22.4874 26.1802C22.4865 26.1795 22.4858 26.1788 22.4845 26.1772C22.4831 26.1753 22.4791 26.1696 22.4738 26.1575L21.7872 26.4594ZM22.3725 26.9348L22.1887 27.6619C22.2069 27.6665 22.2131 27.6701 22.2113 27.6692C22.2105 27.6688 22.2081 27.6674 22.2048 27.6649C22.2013 27.6625 22.1975 27.6593 22.1936 27.6554C22.1897 27.6516 22.1863 27.6477 22.1835 27.6441C22.1808 27.6405 22.1791 27.6378 22.1784 27.6365C22.1768 27.6337 22.18 27.6385 22.1845 27.6549L22.9086 27.4594L23.6326 27.2639C23.5656 27.0156 23.4417 26.7781 23.2428 26.5834C23.0442 26.3891 22.8046 26.2704 22.5564 26.2077L22.3725 26.9348ZM22.9086 27.4594L22.1845 27.6549C22.3177 28.1484 22.6359 28.5216 23.0776 28.7557L23.4288 28.093L23.7801 27.4304C23.6784 27.3765 23.6497 27.3272 23.6326 27.2639L22.9086 27.4594ZM23.4288 28.093L23.0776 28.7557C23.2903 28.8685 23.6089 28.9819 23.9639 28.89C24.3493 28.7903 24.5709 28.5057 24.6849 28.2554L24.0023 27.9446L23.3197 27.6339C23.323 27.6266 23.3938 27.4881 23.5881 27.4379C23.7519 27.3955 23.8391 27.4616 23.7801 27.4304L23.4288 28.093ZM24.0023 27.9446L24.6849 28.2554C24.7448 28.1237 24.8219 28.0324 24.916 27.9641L24.4755 27.3571L24.0349 26.7502C23.7194 26.9792 23.481 27.2796 23.3197 27.6339L24.0023 27.9446ZM24.4755 27.3571L24.916 27.9641C25.1663 27.7824 25.3931 27.5753 25.5953 27.343L25.0296 26.8506L24.4639 26.3581C24.337 26.5039 24.1943 26.6345 24.0349 26.7502L24.4755 27.3571ZM25.0296 26.8506L25.5953 27.343C25.7056 27.2163 25.8364 27.1072 25.9915 27.0153L25.6095 26.3699L25.2275 25.7245C24.9385 25.8955 24.6827 26.1068 24.4639 26.3581L25.0296 26.8506ZM25.6095 26.3699L25.9915 27.0153C26.2231 26.8783 26.4504 26.7369 26.6736 26.591L26.2634 25.9632L25.8532 25.3353C25.6488 25.4689 25.4402 25.5986 25.2275 25.7245L25.6095 26.3699ZM26.2634 25.9632L26.6736 26.591C26.8974 26.4449 27.1167 26.2941 27.3315 26.1386L26.8919 25.531L26.4522 24.9234C26.2569 25.0647 26.0572 25.202 25.8532 25.3353L26.2634 25.9632ZM26.8919 25.531L27.3315 26.1386C27.7306 25.8498 27.94 25.4281 28.0143 24.9738L27.2742 24.8526L26.5341 24.7314C26.509 24.8847 26.4634 24.9153 26.4522 24.9234L26.8919 25.531ZM27.2742 24.8526L28.0143 24.9738C28.041 24.8107 28.0908 24.7652 28.1109 24.7492L27.6443 24.162L27.1777 23.5748C26.8039 23.8719 26.6068 24.2868 26.5341 24.7314L27.2742 24.8526ZM27.6443 24.162L28.1109 24.7492C28.2856 24.6103 28.47 24.48 28.6641 24.3584L28.2658 23.7229L27.8675 23.0874C27.627 23.2381 27.3969 23.4006 27.1777 23.5748L27.6443 24.162ZM28.2658 23.7229L28.6641 24.3584C29.0062 24.1439 29.2666 23.8459 29.44 23.4828L28.7632 23.1596L28.0864 22.8364C28.0313 22.9519 27.96 23.0294 27.8675 23.0874L28.2658 23.7229ZM28.7632 23.1596L29.44 23.4828C29.5585 23.2345 29.6729 22.9823 29.7831 22.7263L29.0942 22.4298L28.4052 22.1334C28.3027 22.3717 28.1964 22.6061 28.0864 22.8364L28.7632 23.1596ZM29.0942 22.4298L29.7831 22.7263C29.7831 22.7263 29.7821 22.7286 29.7797 22.7325C29.7773 22.7365 29.7737 22.7416 29.769 22.7472C29.7588 22.7594 29.7475 22.7688 29.738 22.7748C29.7194 22.7866 29.7305 22.7718 29.8056 22.7655L29.7431 22.0181L29.6806 21.2707C29.1496 21.3151 28.6468 21.5721 28.4052 22.1334L29.0942 22.4298ZM29.7431 22.0181L29.8056 22.7655C30.2418 22.7291 30.6659 22.594 31.0076 22.2983L30.5167 21.7312L30.0259 21.1641C29.9886 21.1964 29.8969 21.2527 29.6806 21.2707L29.7431 22.0181ZM30.5167 21.7312L31.0076 22.2983C31.2559 22.0833 31.4673 21.8337 31.6415 21.5523L31.0038 21.1576L30.3661 20.7628C30.2699 20.9182 30.1566 21.051 30.0259 21.1641L30.5167 21.7312ZM31.0038 21.1576L31.6415 21.5523C31.7869 21.3175 31.9242 21.0754 32.0535 20.8262L31.3877 20.4808L30.722 20.1355C30.6097 20.3518 30.4911 20.5609 30.3661 20.7628L31.0038 21.1576ZM31.3877 20.4808L32.0535 20.8262C32.1513 20.6376 32.2629 20.4681 32.3877 20.316L31.8079 19.8403L31.2281 19.3646C31.0342 19.6009 30.8657 19.8584 30.722 20.1355L31.3877 20.4808ZM31.8079 19.8403L32.3877 20.316C32.4976 20.182 32.6324 19.986 32.6842 19.7408C32.7473 19.4423 32.6746 19.1147 32.4269 18.8703L31.9001 19.4041L31.3734 19.938C31.3136 19.8791 31.2566 19.7941 31.2267 19.6862C31.1975 19.5809 31.204 19.4902 31.2167 19.4304C31.2378 19.3306 31.2775 19.3043 31.2281 19.3646L31.8079 19.8403ZM31.9001 19.4041L32.4269 18.8703C32.2117 18.658 31.9373 18.5228 31.6243 18.4948L31.5577 19.2419L31.491 19.9889C31.4713 19.9871 31.4459 19.9812 31.42 19.9689C31.3945 19.9569 31.3791 19.9437 31.3734 19.938L31.9001 19.4041ZM31.5577 19.2419L31.6243 18.4948C31.283 18.4644 30.9425 18.5929 30.6821 18.7153L31.0013 19.394L31.3204 20.0727C31.4152 20.0282 31.4798 20.0052 31.5185 19.9946C31.5371 19.9895 31.5442 19.9888 31.5415 19.9892C31.5392 19.9894 31.5211 19.9916 31.491 19.9889L31.5577 19.2419ZM31.0013 19.394L30.6821 18.7153C30.2938 18.8979 29.9903 19.1882 29.7935 19.5707L30.4604 19.9138L31.1273 20.2569C31.1707 20.1726 31.2278 20.1163 31.3204 20.0727L31.0013 19.394ZM30.4604 19.9138L29.7935 19.5707C29.7559 19.6438 29.7064 19.6929 29.6149 19.7317L29.908 20.4221L30.2012 21.1124C30.6059 20.9405 30.9247 20.6508 31.1273 20.2569L30.4604 19.9138ZM29.908 20.4221L29.6149 19.7317C29.1069 19.9475 28.8116 20.3748 28.7134 20.8817L29.4497 21.0244L30.186 21.1671C30.197 21.1103 30.2099 21.0983 30.2042 21.1059C30.2017 21.1091 30.1982 21.1126 30.195 21.1151C30.1919 21.1174 30.1929 21.1159 30.2012 21.1124L29.908 20.4221ZM29.4497 21.0244L28.7134 20.8817C28.6784 21.0622 28.6187 21.1537 28.5676 21.205L29.0989 21.7343L29.6302 22.2637C29.932 21.9608 30.1061 21.579 30.186 21.1671L29.4497 21.0244ZM29.0989 21.7343L28.5676 21.205C28.349 21.4243 28.1577 21.6682 27.9934 21.9351L28.6321 22.3282L29.2708 22.7214C29.376 22.5506 29.4958 22.3985 29.6302 22.2637L29.0989 21.7343ZM28.6321 22.3282L27.9934 21.9351C27.9189 22.0562 27.8249 22.151 27.7054 22.2261L28.1044 22.8612L28.5034 23.4962C28.8181 23.2984 29.076 23.038 29.2708 22.7214L28.6321 22.3282ZM28.1044 22.8612L27.7054 22.2261C27.488 22.3627 27.2707 22.4994 27.0535 22.6362L27.4534 23.2708L27.8532 23.9053C28.0698 23.7688 28.2866 23.6325 28.5034 23.4962L28.1044 22.8612ZM27.4534 23.2708L27.0535 22.6362C26.6901 22.8653 26.4326 23.1947 26.2808 23.5906L26.9811 23.8591L27.6813 24.1277C27.7255 24.0124 27.7829 23.9496 27.8532 23.9053L27.4534 23.2708ZM26.9811 23.8591L26.2808 23.5906C26.2244 23.7377 26.1502 23.8363 26.0645 23.9077L26.5449 24.4837L27.0253 25.0596C27.3252 24.8095 27.5417 24.4917 27.6813 24.1277L26.9811 23.8591ZM26.5449 24.4837L26.0645 23.9077C25.9889 23.9708 25.8692 24.034 25.6714 24.0709L25.8088 24.8082L25.9462 25.5455C26.3444 25.4713 26.7154 25.3182 27.0253 25.0596L26.5449 24.4837ZM25.8088 24.8082L25.6714 24.0709C25.2734 24.1451 24.9025 24.298 24.5925 24.5562L25.0725 25.1325L25.5525 25.7088C25.6283 25.6456 25.7483 25.5824 25.9462 25.5455L25.8088 24.8082ZM25.0725 25.1325L24.5925 24.5562C24.2542 24.8379 24.0501 25.2142 23.952 25.6305L24.682 25.8026L25.4119 25.9748C25.4487 25.8189 25.505 25.7483 25.5525 25.7088L25.0725 25.1325ZM24.682 25.8026L23.952 25.6305C23.9185 25.7723 23.8687 25.8234 23.8317 25.8504L24.2744 26.4558L24.7171 27.0612C25.0886 26.7896 25.3104 26.4052 25.4119 25.9748L24.682 25.8026ZM24.2744 26.4558L23.8317 25.8504C23.7379 25.919 23.6636 25.9699 23.6072 26.0057C23.5461 26.0445 23.5241 26.0538 23.5307 26.051L23.8252 26.7408L24.1196 27.4306C24.3024 27.3526 24.5139 27.2098 24.7171 27.0612L24.2744 26.4558ZM23.8252 26.7408L23.5307 26.051C23.6065 26.0187 23.6661 26.0124 23.6897 26.0109C23.7148 26.0093 23.7242 26.0116 23.7122 26.01C23.7013 26.0087 23.6793 26.005 23.6441 25.9964C23.6093 25.9879 23.566 25.9756 23.5132 25.9585L23.2818 26.6719L23.0504 27.3853C23.2074 27.4363 23.3686 27.4785 23.5235 27.4981C23.6589 27.5153 23.8882 27.5294 24.1196 27.4306L23.8252 26.7408Z" fill="#030302"/>
</svg>
